<?xml version="1.0" encoding="UTF-8"?>
<svg width="50px" height="50px" viewBox="0 0 50 50" version="1.1" xmlns="http://www.w3.org/2000/svg" xmlns:xlink="http://www.w3.org/1999/xlink">
    <title>结构拓扑</title>
    <defs>
        <linearGradient x1="21.4681113%" y1="64.055822%" x2="87.3356094%" y2="46.6991187%" id="linearGradient-1">
            <stop stop-color="#003B7C" offset="0%"></stop>
            <stop stop-color="#4EA2FF" offset="100%"></stop>
        </linearGradient>
        <linearGradient x1="31.1699155%" y1="119.82222%" x2="82.8939109%" y2="-224.431113%" id="linearGradient-2">
            <stop stop-color="#003B7C" offset="0%"></stop>
            <stop stop-color="#4EA2FF" offset="100%"></stop>
        </linearGradient>
        <linearGradient x1="32.6962934%" y1="189.220951%" x2="57.100111%" y2="-224.126217%" id="linearGradient-3">
            <stop stop-color="#003B7C" offset="0%"></stop>
            <stop stop-color="#4EA2FF" offset="100%"></stop>
        </linearGradient>
        <linearGradient x1="21.4681113%" y1="62.6119451%" x2="87.3356094%" y2="47.0382%" id="linearGradient-4">
            <stop stop-color="#003B7C" offset="0%"></stop>
            <stop stop-color="#4EA2FF" offset="100%"></stop>
        </linearGradient>
        <linearGradient x1="21.4681113%" y1="64.0470666%" x2="87.3356094%" y2="46.7011748%" id="linearGradient-5">
            <stop stop-color="#003B7C" offset="0%"></stop>
            <stop stop-color="#4EA2FF" offset="100%"></stop>
        </linearGradient>
        <linearGradient x1="34.6613421%" y1="118.700238%" x2="113.144997%" y2="-234.958127%" id="linearGradient-6">
            <stop stop-color="#003B7C" offset="0%"></stop>
            <stop stop-color="#4EA2FF" offset="100%"></stop>
        </linearGradient>
        <linearGradient x1="38.6171232%" y1="176.457125%" x2="93.7657848%" y2="-216.512924%" id="linearGradient-7">
            <stop stop-color="#003B7C" offset="0%"></stop>
            <stop stop-color="#4EA2FF" offset="100%"></stop>
        </linearGradient>
        <linearGradient x1="38.7924844%" y1="247.400432%" x2="64.6656756%" y2="3.64231277%" id="linearGradient-8">
            <stop stop-color="#003B7C" offset="0%"></stop>
            <stop stop-color="#4EA2FF" offset="100%"></stop>
        </linearGradient>
        <linearGradient x1="-27.2467635%" y1="345.318595%" x2="82.412873%" y2="3.64231277%" id="linearGradient-9">
            <stop stop-color="#003B7C" offset="0%"></stop>
            <stop stop-color="#4EA2FF" offset="100%"></stop>
        </linearGradient>
        <linearGradient x1="21.4681113%" y1="64.0458714%" x2="87.3356094%" y2="46.7014555%" id="linearGradient-10">
            <stop stop-color="#003B7C" offset="0%"></stop>
            <stop stop-color="#4EA2FF" offset="100%"></stop>
        </linearGradient>
        <linearGradient x1="19.4996074%" y1="128.103907%" x2="108.527501%" y2="-61.3808818%" id="linearGradient-11">
            <stop stop-color="#003B7C" offset="0%"></stop>
            <stop stop-color="#4EA2FF" offset="100%"></stop>
        </linearGradient>
        <linearGradient x1="41.9838119%" y1="90.2936763%" x2="106.315492%" y2="-101.61341%" id="linearGradient-12">
            <stop stop-color="#003B7C" offset="0%"></stop>
            <stop stop-color="#4EA2FF" offset="100%"></stop>
        </linearGradient>
        <linearGradient x1="59.7160671%" y1="0%" x2="34.6924174%" y2="96.715658%" id="linearGradient-13">
            <stop stop-color="#C3EEFF" offset="0%"></stop>
            <stop stop-color="#25A8FF" offset="100%"></stop>
            <stop stop-color="#25A8FF" offset="100%"></stop>
        </linearGradient>
    </defs>
    <g id="页面-1" stroke="none" stroke-width="1" fill="none" fill-rule="evenodd">
        <g id="编组-121" transform="translate(4.000000, -0.000141)">
            <path d="M35.4608664,27.6158809 C35.4925724,27.6155285 35.5243962,27.6178784 35.5550414,27.6237533 L42.2981658,29.4061886 C42.2675206,29.4003138 42.2356967,29.3979638 42.2038728,29.3979638 C42.1698095,29.3971413 42.1356283,29.4006663 42.1002685,29.4053662 L36.7662991,27.9955872 L42.0996791,29.4056012 C42.0749272,29.4091261 42.0501753,29.4150009 42.0254234,29.4220508 L35.2822991,27.6396154 L35.3200163,27.6300688 L35.3200163,27.6300688 L35.3571441,27.6229308 C35.392504,27.6170559 35.4266852,27.614706 35.4608664,27.6158809 Z" id="形状结合" fill="#8F8F8F"></path>
            <polygon id="Fill-9" fill="url(#linearGradient-1)" fill-rule="nonzero" points="40.0013075 29.9785184 33.2581831 28.196083 35.2819455 27.6391454 42.0250698 29.4215808"></polygon>
            <path d="M28.5106511,39.2525872 L35.2537755,41.0350226 C35.2537755,41.0796716 35.2561328,41.1243206 35.2584901,41.1677946 C35.2936142,41.6950054 35.5434906,42.0486725 35.8817665,42.1379705 L29.1386421,40.3555352 C28.8015449,40.2662372 28.5504899,39.91257 28.51513,39.3850068 C28.5118298,39.3418852 28.5106511,39.2972362 28.5106511,39.2525872 Z M29.3940582,29.2583769 L36.1383612,31.0408123 L36.1155246,31.0478621 L36.0940435,31.0545595 C36.0362891,31.074534 35.980892,31.1039084 35.9278522,31.1391576 L29.1847278,29.3567222 C29.2389463,29.3202981 29.2943434,29.2920987 29.3497405,29.2721241 L29.3511946,29.2723769 L29.3940582,29.2583769 Z M31.52225,28.6723 L38.266553,30.4559103 L36.1378897,31.0410473 L29.3947654,29.2574369 L31.52225,28.6723 Z M35.3880251,31.8902009 L33.3116511,31.3413 L35.3886144,31.8906709 L35.3620945,31.9644005 L35.3620945,31.9644005 L35.3393463,32.0398926 C35.3252024,32.0892415 35.3134158,32.1385904 35.3028078,32.1879393 L32.5016511,31.4473 L35.3028078,32.1884093 L35.2885165,32.263167 L35.2885165,32.263167 L35.2772308,32.3384534 L35.2683909,32.4195266 L35.2624976,32.5011873 L35.2614662,32.5371709 L35.2614662,32.5371709 L35.2609653,32.5736832 L35.2538933,41.0346701 L28.510769,39.2522347 L28.5186511,30.7913 L28.5181946,30.7916003 L28.5199625,30.7181645 C28.5223199,30.6641157 28.5270345,30.6100669 28.5341065,30.5560181 C28.5408249,30.5058467 28.5490755,30.4553228 28.5596835,30.4047989 L28.5766267,30.3303643 L28.5766267,30.3303643 L28.5959862,30.2562822 L28.6192479,30.1817339 L28.6192479,30.1817339 L28.6449007,30.1077655 C28.664938,30.0548917 28.6861539,30.0031929 28.7097271,29.952669 C28.7369542,29.8935678 28.7675994,29.8359941 28.7994233,29.7819453 L28.8001946,29.7813769 L28.876272,29.6655054 C28.9030866,29.6282 28.9310798,29.592657 28.959957,29.5591702 L28.9591319,29.5592877 C29.028673,29.4782145 29.105286,29.4088911 29.1842564,29.3571922 L35.9273807,31.1396276 C35.8747338,31.1748768 35.8236585,31.2169148 35.7745039,31.2650452 L35.7019027,31.3416056 L35.618807,31.4479407 L35.5425476,31.5643807 C35.5107238,31.6196044 35.4800785,31.6760032 35.4529693,31.7347519 C35.4292782,31.7856282 35.4080623,31.8373271 35.3880251,31.8902009 Z" id="形状结合" fill="url(#linearGradient-2)" fill-rule="nonzero"></path>
            <path d="M31.526611,24.3566209 L38.2697354,26.1390563 L38.2661994,30.4559103 L31.523075,28.6723 L31.526611,24.3566209 Z M29.507799,20.5640402 L36.2509234,22.3464756 C37.3317563,22.6331692 38.134425,23.9056659 38.2546485,25.6704767 C38.2649029,25.8232233 38.2696175,25.9794948 38.2696175,26.1392913 L31.5264932,24.3556809 C31.5264932,24.1970595 31.5217785,24.0407879 31.5111706,23.8880413 C31.3924793,22.1232306 30.5898106,20.8495589 29.507799,20.5640402 Z" id="形状结合" fill="url(#linearGradient-3)" fill-rule="nonzero"></path>
            <path d="M29.3960619,17.9538358 C29.5574207,17.9547758 29.7153614,17.9700504 29.8709447,17.9970748 L29.8723968,17.9975648 L29.9941738,18.0205449 C30.0351323,18.0295041 30.0757962,18.0394914 30.11646,18.0506536 L36.8595844,19.833089 C36.7782567,19.8119395 36.696929,19.7931399 36.613244,19.7790402 C36.4584857,19.7524858 36.3005451,19.7372111 36.1390684,19.7360362 C36.0252489,19.7347045 35.9102639,19.7404488 35.7942312,19.7524597 L35.6195142,19.7753978 L35.4324017,19.8102064 L35.4324017,19.8102064 L35.2439926,19.8563535 L25.797018,22.4542207 L19.0538936,20.6717854 L28.5008682,18.0739181 C28.6265136,18.0387864 28.7526304,18.011762 28.8763899,17.9929624 C29.0530713,17.9644106 29.2263346,17.9514858 29.3960619,17.9538358 Z" id="形状结合" fill="url(#linearGradient-4)" fill-rule="nonzero"></path>
            <path d="M21.1897467,31.5401762 L21.2378067,31.542203 L21.2378067,31.542203 L21.2856898,31.5489885 C21.3033697,31.5513384 21.319871,31.5560383 21.3363723,31.5595633 L28.0794966,33.3419986 C28.0629954,33.3384737 28.0464941,33.3337738 28.0288142,33.3314239 L28.0213507,33.3291762 L27.980931,33.325079 C27.9648718,33.3236103 27.9486652,33.3227291 27.9321639,33.3227291 C27.8975112,33.3226116 27.8621514,33.3249615 27.8267915,33.3308364 C27.8021575,33.3338913 27.7762269,33.3397662 27.751475,33.346816 L21.0083507,31.5643807 C21.0342812,31.5573308 21.0590331,31.5514559 21.083785,31.547931 L21.1371489,31.5419387 L21.1371489,31.5419387 L21.1890395,31.5402937 L21.1897467,31.5401762 Z" id="形状结合" fill="#8F8F8F"></path>
            <polygon id="Fill-63" fill="url(#linearGradient-5)" fill-rule="nonzero" points="25.7866458 33.887304 19.0435214 32.1048686 21.0083507 31.5643807 27.751475 33.346816"></polygon>
            <path d="M14.2563864,43.310007 L20.9995107,45.0936173 C21.0348706,45.6164807 21.2764962,45.9654479 21.6088789,46.053571 L14.8657545,44.2711356 C14.5333719,44.1830126 14.2917462,43.8340453 14.2563864,43.310007 Z M14.2515538,43.17324 L20.9946782,44.9556754 C20.9946782,45.0026743 20.9970355,45.0484983 20.9993928,45.0931473 L14.2562685,43.309537 C14.2527325,43.266063 14.2515538,43.220239 14.2515538,43.17324 Z M17.2198958,32.6065825 L23.9618415,34.3890178 L21.8638234,34.96593 L15.1206991,33.1834947 L17.2198958,32.6065825 Z M21.030241,36.1683655 L21.0193122,36.2464165 C21.0110616,36.3028153 21.0063469,36.360389 21.0039896,36.4167878 C21.0023395,36.4436947 21.0023395,36.4695441 21.0023395,36.4953935 L15.5865538,35.0635825 L21.001868,36.4956285 L20.9947961,44.9554404 L14.2516717,43.173005 L14.2599223,34.7131931 L14.2592151,34.7129581 C14.2592151,34.6859337 14.2603938,34.6600843 14.2615725,34.6342349 L14.2608653,34.6343524 C14.2632226,34.5779536 14.2691159,34.5203799 14.2761879,34.4639812 C14.2829062,34.4116948 14.2911569,34.359996 14.3017648,34.3082971 L20.4775538,35.9405825 L14.3017648,34.3073572 C14.3123728,34.2568333 14.3253381,34.2074844 14.339482,34.1581355 C14.3533902,34.1077291 14.3698915,34.0583802 14.3875714,34.0090313 C14.40643,33.956745 14.4276459,33.9062211 14.4512192,33.8568722 C14.4785641,33.8005909 14.506852,33.7453672 14.5386759,33.6924933 C14.5848794,33.6142401 14.6367405,33.5425667 14.6921376,33.4779431 C14.7592035,33.3995723 14.8322805,33.3325988 14.9100722,33.2809 L14.9918419,33.2339304 L14.9918419,33.2339304 L15.0759099,33.1966544 C15.0912325,33.1919545 15.1053765,33.1872546 15.1206991,33.1837296 L21.8638234,34.966165 C21.8485008,34.9696899 21.8343569,34.9743898 21.8190343,34.9802647 L21.8193879,34.9806172 C21.7616335,35.0005917 21.7062363,35.0287911 21.6531966,35.0640403 C21.5754049,35.1150342 21.5023278,35.1820077 21.4351441,35.260731 L21.3545237,35.3630418 L21.2806216,35.4749287 C21.2499764,35.5278025 21.2205098,35.5830263 21.1945792,35.639425 C21.1719489,35.6886564 21.150733,35.7403553 21.1306958,35.7920541 C21.1130158,35.8408156 21.0965146,35.8901645 21.0823706,35.9406883 C21.0684624,35.9899197 21.0554971,36.0404436 21.0448892,36.0909675 L21.030241,36.1683655 L21.030241,36.1683655 Z" id="形状结合" fill="url(#linearGradient-6)" fill-rule="nonzero"></path>
            <polygon id="Fill-73" fill="url(#linearGradient-7)" fill-rule="nonzero" points="23.9621951 34.3887829 17.2190707 32.6063475 17.2273214 23.677721 23.9704457 25.4601564"></polygon>
            <path d="M21.1119551,0.00845981189 L27.8550794,1.79089518 C27.8303275,1.7944201 27.8055756,1.80029497 27.779645,1.80734481 L21.0365207,0.0249094461 C21.0624513,0.0178596029 21.0872032,0.0119847335 21.1119551,0.00845981189 Z M21.2177989,0.000234994775 C21.2508014,0.000234994775 21.2826253,0.0037599164 21.3144492,0.00963478577 L28.0587522,1.79207015 C28.0269283,1.78619528 27.9939258,1.78267036 27.9609232,1.78267036 L21.2177989,0.000234994775 Z M21.2185061,-2.60791388e-13 L27.9604518,1.78243537 C27.9262706,1.78243537 27.8909107,1.78478531 27.8555509,1.79066018 L21.1124265,0.00822481712 C21.1477864,0.00234994775 21.1831462,-2.60791388e-13 21.2185061,-2.60791388e-13 Z" id="形状结合" fill="#8F8F8F"></path>
            <polygon id="Fill-107" fill="url(#linearGradient-8)" fill-rule="nonzero" points="23.9725673 22.9556996 17.229443 21.1732642 17.2376936 12.1835391 23.980818 13.9671494"></polygon>
            <path d="M14.2886817,3.16338216 L21.0306274,4.94581753 L21.0235554,13.4056294 L21.0241447,13.4057469 C21.0241447,13.4527459 21.0253234,13.4985699 21.0276807,13.5432189 L21.0282701,13.5428664 C21.0636299,14.0704296 21.3076129,14.4252717 21.6423529,14.5133948 L14.8992285,12.7309594 C14.5644886,12.6428364 14.3205056,12.2879943 14.2851457,11.760431 L14.2845564,11.7607835 C14.282199,11.7161345 14.2798417,11.6703105 14.2798417,11.6233116 L14.2886817,3.16338216 Z M21.0364028,0.0247919487 L27.7795272,1.80722732 L21.8921113,3.42634131 L15.148987,1.64273097 L21.0364028,0.0247919487 Z M21.2213349,4.10206879 C21.1977616,4.15141769 21.1765457,4.20194157 21.1576871,4.25364042 L21.1321986,4.32714972 L21.1321986,4.32714972 L21.1095977,4.40156963 C21.0954538,4.44974356 21.0836672,4.50026743 21.0730592,4.54961634 C21.0625691,4.60002272 21.0531398,4.65172157 21.0472465,4.70342042 C21.0399388,4.75876169 21.0352242,4.81398546 21.0328668,4.86920923 C21.0310988,4.89505866 21.0310988,4.91973311 21.0310988,4.94558253 L14.2879745,3.16314717 C14.2879745,3.13729774 14.2891532,3.11144832 14.2891532,3.08677386 C14.2920998,3.03155009 14.2968145,2.97632632 14.3038864,2.92110255 L14.3157614,2.84358365 L14.3157614,2.84358365 L14.3299349,2.76718097 C14.3405428,2.71665709 14.3523294,2.66730819 14.3664734,2.61795929 C14.3815602,2.5681404 14.3968828,2.51879149 14.4145628,2.47061756 C14.4334214,2.41833123 14.4546373,2.36898232 14.4782105,2.31963342 L14.5201414,2.2351528 L14.5201414,2.2351528 L14.5648422,2.15396211 C14.6119886,2.07641383 14.6638498,2.00356545 14.7192469,1.93894189 C14.7873735,1.86068863 14.8604505,1.79371512 14.9382422,1.74201627 C14.9925785,1.70676705 15.0479756,1.6773927 15.1045514,1.65741815 L15.1059745,1.65655345 L15.1270639,1.6506033 C15.1344305,1.64825335 15.1417971,1.6459034 15.1494584,1.64355345 L21.8925828,3.42598882 L21.8697462,3.43303866 L21.8476758,3.43985351 C21.7911,3.45982807 21.7345242,3.48920242 21.6814844,3.52445163 C21.6035749,3.57615048 21.5304979,3.64312399 21.4621355,3.72184724 L21.4609745,3.72155345 L21.3820749,3.82418747 C21.3562916,3.86031791 21.3315397,3.89821082 21.3079665,3.93757245 C21.2763784,3.98997628 21.2480905,4.04402508 21.2209813,4.1015988 L15.8888417,2.69179195 L21.2213349,4.10206879 Z" id="形状结合" fill="url(#linearGradient-9)" fill-rule="nonzero"></path>
            <path d="M6.80971875,35.4734012 L13.5528431,37.2558366 C13.5280912,37.2593615 13.5021606,37.2652364 13.4774087,37.2722862 L6.73428439,35.4886759 C6.76021495,35.482801 6.78496685,35.4769262 6.80971875,35.4734012 Z M6.91638765,35.4649414 C6.95092244,35.4651764 6.98274631,35.4687013 7.01574884,35.4745762 L13.7588732,37.2570116 C13.7258707,37.2511367 13.6928681,37.2476118 13.6598656,37.2476118 C13.6253308,37.2473768 13.5887923,37.2497267 13.5534324,37.2556016 L6.81030808,35.4731662 C6.8468466,35.4672914 6.88220645,35.4649414 6.91638765,35.4649414 Z" id="形状结合" fill="#8F8F8F"></path>
            <polygon id="Fill-147" fill="url(#linearGradient-10)" fill-rule="nonzero" points="11.4901849 37.8184141 4.74706054 36.0359787 6.73428439 35.4896159 13.4774087 37.2720512"></polygon>
            <path d="M9.74753337,38.2974509 L3.00440902,36.5150156 L3.00912366,31.4250288 C3.0090058,31.3004815 3.01254178,31.1759343 3.01725643,31.0513871 L9.76038079,32.8349974 C9.75448748,32.9583697 9.75213015,33.0829169 9.75213015,33.2074641 L9.74753337,38.2974509 Z M4.36576344,26.5051781 C4.54229751,26.209261 4.73295343,25.9297347 4.93509578,25.6716554 L5.14073359,25.4204423 C5.49079616,25.0127263 5.87032527,24.667284 6.27224895,24.39939 L6.27154176,24.3992725 C6.48193289,24.2582756 6.69762801,24.1390892 6.91763261,24.0441917 L7.138919,23.9574823 C7.21435336,23.9304579 7.29096638,23.9057834 7.3675794,23.8846339 L7.36734366,23.8852214 L17.2292072,21.1733817 L23.9723316,22.9558171 L14.110468,25.6676568 L14.108409,25.6673817 L13.9959316,25.701731 L13.8821612,25.7399177 C13.6593941,25.8183472 13.440605,25.9218917 13.2267884,26.0480729 L13.0141946,26.1818253 C12.6945416,26.3961406 12.386958,26.6600867 12.0974786,26.9658431 L11.8840937,27.2033476 C11.6035722,27.5288154 11.3442666,27.8930573 11.1085342,28.2878485 C11.0050477,28.4608047 10.9066425,28.6396096 10.8134235,28.8234973 L10.6778512,29.1028104 C10.5646996,29.34368 10.4609774,29.5927745 10.3666844,29.8477438 C10.2804064,30.0826211 10.201436,30.3211408 10.131895,30.5655354 L10.0368359,30.9220518 L9.95474212,31.2829744 L9.88520107,31.6529443 L9.88520107,31.6529443 L9.8296861,32.0261454 C9.79550491,32.2940394 9.77193167,32.5642834 9.76014505,32.8345274 L3.0170207,31.0509171 C3.02880732,30.7806731 3.05238055,30.5104291 3.08656175,30.242535 C3.11850348,29.9940281 3.16093531,29.7461086 3.21161777,29.500539 C3.26218236,29.2587294 3.32111545,29.0190347 3.38829918,28.782865 C3.45831169,28.5387054 3.53728203,28.3001857 3.62450301,28.065191 L3.62356008,28.0653085 C3.68642204,27.8953289 3.7534748,27.7279604 3.82436913,27.5638992 L3.9343732,27.32061 L10.6774976,29.1030454 L10.6774976,29.1030454 L3.93354814,27.320375 L3.93354814,27.320375 C4.06638333,27.0374413 4.21018007,26.7648474 4.36576344,26.5051781 Z" id="形状结合" fill="url(#linearGradient-11)" fill-rule="nonzero"></path>
            <path d="M0.0100186256,38.5486604 L6.75196432,40.3310957 L6.75093299,40.3728073 L6.75093299,40.3728073 L6.75031419,40.4147539 L6.74324222,48.8745658 C6.74312436,48.9233272 6.74430302,48.9715011 6.747839,49.0185001 L6.74831047,49.0183826 C6.78249166,49.5424209 7.0158667,49.8925631 7.34353469,49.9795112 L0.600410339,48.1970758 C0.271563687,48.1101278 0.0405459671,47.7599855 0.00400745024,47.2359472 C0.00117866183,47.1890657 -3.31290551e-13,47.1408918 -3.31290551e-13,47.0915429 L0.00836849902,38.6323185 L0.00766130193,38.6320835 C0.00766130193,38.6038841 0.00883996376,38.5768597 0.0100186256,38.5486604 Z M6.83282052,39.8377242 C6.81867658,39.8882481 6.8057113,39.9387719 6.79510334,39.9904708 L0.664,38.3694856 L6.79510334,39.9907058 C6.78449539,40.0435796 6.77506609,40.0988034 6.76799412,40.1528522 C6.76068642,40.2114834 6.75479311,40.271407 6.75243578,40.3313307 L0.0093114285,38.5477204 C0.0116687522,38.4889717 0.0175620613,38.429048 0.0246340323,38.3702993 C0.0319417357,38.315193 0.0401923686,38.2611442 0.0519789869,38.2082704 C0.0637656053,38.1563366 0.0755522236,38.1046377 0.0896961656,38.0552888 C0.105254502,38.0032375 0.120577106,37.9538886 0.138257033,37.9057147 C0.157704953,37.8540158 0.178920867,37.8034919 0.201315441,37.755318 C0.226892403,37.7007992 0.255180287,37.6479254 0.284646833,37.5974015 L7.02777119,39.3798369 C6.99712598,39.4303607 6.97001676,39.4832346 6.9440862,39.5384583 L3.515,38.6314856 L6.9444398,39.5389283 L6.91187926,39.6126579 L6.91187926,39.6126579 L6.881,39.6874856 L6.88256005,39.68815 C6.86370146,39.7374989 6.8472002,39.7868478 6.83305625,39.8373717 L0.668,38.2074856 L6.83282052,39.8377242 Z M3.00488048,36.5154856 L9.74800484,38.2979209 L7.58987502,38.8912827 L7.59034648,38.8909302 C7.57502388,38.8956301 7.55970128,38.90033 7.54555733,38.9050299 C7.48992449,38.924182 7.43570605,38.9523814 7.38384493,38.9864556 L2.422,37.6744856 L7.38349133,38.9866906 C7.30923564,39.0360395 7.23969459,39.0994881 7.17486819,39.1746864 L7.1736613,39.1744949 L7.09869717,39.2719743 C7.0740926,39.3063423 7.05051936,39.3424727 7.02812479,39.3800719 L0.285000432,37.5964615 C0.329789581,37.5224382 0.378114717,37.4531147 0.431154499,37.3920161 L3.8216613,38.2874949 L0.43174383,37.3910761 C0.474961431,37.3417272 0.52027443,37.2970782 0.568032061,37.2581735 L0.641,37.2034856 L0.640720573,37.2040203 C0.692581694,37.169946 0.746800138,37.1417466 0.802197245,37.1229471 C0.817755581,37.1178947 0.831899523,37.1131948 0.847222127,37.1084949 L5.346,38.2974856 L0.846750662,37.1076724 L3.00488048,36.5154856 Z" id="形状结合" fill="url(#linearGradient-12)" fill-rule="nonzero"></path>
            <path d="M36.2614135,42.1320957 C35.7121571,42.2824923 35.2536576,41.8289524 35.2536576,41.0346701 L35.2619082,32.5736832 C35.2619082,31.8921984 35.6626533,31.1707644 36.137654,31.0415173 L38.2663173,30.4563803 L38.2698532,26.1395263 C38.2722106,23.5933579 36.9096775,21.9025705 35.2406923,22.3608103 L25.7948964,24.9586775 L25.7866458,33.887304 L27.751475,33.346816 C28.2995528,33.1964194 28.7439083,33.7662817 28.7439083,34.560564 L28.7356577,43.0203759 L21.98664,46.0471086 C21.4385622,46.1975053 20.9942067,45.7498402 20.9953854,44.9555579 L21.0024574,36.495746 C21.0024574,35.8025114 21.3890584,35.0963521 21.8640592,34.96593 L23.9620772,34.3890178 L23.9703279,25.4603914 L14.1084643,28.1722311 C12.6917128,28.5611474 11.4965497,30.6408512 11.4941923,32.7287798 L11.4906564,37.8187666 L13.4778802,37.2724037 C14.025958,37.1208321 14.4856361,37.6871695 14.4844574,38.4814518 L14.4773854,46.9412637 L7.71304518,49.9715214 C7.16496743,50.121918 6.74182783,49.6683781 6.74300159,48.8740958 L6.75125712,40.4142839 C6.75125712,39.7222243 7.11546363,39.0219398 7.58928569,38.8915177 L9.74741551,38.296981 L9.75213015,33.2069941 C9.75566614,29.7666706 11.7523193,26.3157724 14.1108216,25.6671868 L23.9726852,22.9553471 L23.9809358,13.9667969 L22.0161065,14.50611 C21.4668501,14.6576816 21.0224946,14.1994418 21.0236733,13.4051594 L21.0307452,4.94534754 C21.0319239,4.26386269 21.4173463,3.55652842 21.8923471,3.42610632 L27.7797629,1.80699232 C28.3290193,1.65659566 28.7733748,2.22645799 28.7721962,3.01016557 L28.7639455,11.4805522 C28.7639455,11.5909998 28.7568736,11.670898 28.7439083,11.7496212 L25.8055043,13.4650831 L25.7972537,22.4548082 L35.2430497,19.856941 C37.8761802,19.1331571 40.0083794,21.742774 40.0048435,25.6624869 L40.0013075,29.9781659 L42.0250698,29.4224033 C42.5743263,29.2708317 42.9962872,29.8477438 42.9951135,30.6408512 L42.9880366,39.1018381 C42.9927512,39.23931 42.9856792,39.3180332 42.972714,39.3955815 L36.2614135,42.1320957 Z" id="Fill-205" fill="url(#linearGradient-13)" fill-rule="nonzero"></path>
            <path d="M11.5978328,40.2122941 L12.505515,39.9605907 C12.7558544,39.8907632 12.9658165,40.1516688 12.9652802,40.5175861 L12.9620479,44.4149303 L9.87237517,45.8109373 C9.62203576,45.8802234 9.42876298,45.6712825 9.42929468,45.3053652 L9.43306989,41.408021 C9.43306989,41.0891966 9.59942446,40.7665831 9.81584691,40.706499 L10.801592,40.4326023 L11.5978328,40.2122941 Z" id="Fill-205" fill="#FFF47F"></path>
            <path d="M38.1774805,38.7611046 C37.9266025,38.8303352 37.7171787,38.6215617 37.7171787,38.2559376 L37.7209473,34.3611757 C37.7209473,34.0474746 37.9039912,33.7153841 38.1209522,33.655889 L39.0932387,33.3865387 L39.8857114,33.1664071 L40.8100835,32.9105784 C41.0609614,32.8408069 41.2536959,33.1063712 41.2531642,33.4714544 L41.2499273,37.3662163 C41.2520808,37.4294974 41.2488506,37.4657353 41.2429286,37.5014323 L38.1774805,38.7611046 Z" id="Fill-205" fill="#FFF47F"></path>
            <path d="M25.7596969,36.7364543 L26.6563325,36.4376809 C26.9064438,36.354544 27.1092222,36.6695551 27.1092222,37.1086221 L27.1054571,41.7850753 L24.0255917,43.4582064 C23.7754804,43.5413433 23.572702,43.293881 23.5732367,42.854814 L23.5764671,38.1783608 C23.5764671,37.7951514 23.7528897,37.4047974 23.9696529,37.3327021 L24.9270682,37.013794 L25.7596969,36.7364543 Z" id="Fill-205" fill="#FFF47F"></path>
        </g>
    </g>
</svg>