<?xml version="1.0" encoding="UTF-8"?>
<svg width="50px" height="50px" viewBox="0 0 50 50" version="1.1" xmlns="http://www.w3.org/2000/svg" xmlns:xlink="http://www.w3.org/1999/xlink">
    <title>网站安全风险-灰</title>
    <defs>
        <linearGradient x1="44.8954293%" y1="97.9591385%" x2="79.3420056%" y2="1.71137274%" id="linearGradient-1">
            <stop stop-color="#5F5F5F" offset="0%"></stop>
            <stop stop-color="#B8B8B8" offset="100%"></stop>
        </linearGradient>
        <linearGradient x1="64.0542202%" y1="0%" x2="52.1549239%" y2="97.8033369%" id="linearGradient-2">
            <stop stop-color="#E7E7E7" offset="0%"></stop>
            <stop stop-color="#AFAFAF" offset="100%"></stop>
        </linearGradient>
    </defs>
    <g id="页面-1" stroke="none" stroke-width="1" fill="none" fill-rule="evenodd">
        <g id="编组-102" transform="translate(7.000000, 0.000748)">
            <polygon id="Fill-1" fill="#6A6A6A" points="28.1533188 24.8314839 21.0302305 22.9386255 20.9679766 22.9136866 28.091065 24.8052981"></polygon>
            <path d="M20.7431156,49.9834319 L13.6200272,48.0905735 C13.5552832,48.0743633 13.4955195,48.0431897 13.4432262,47.9995467 L20.5663146,49.8924051 C20.6173628,49.9360481 20.6783716,49.9659747 20.7431156,49.9834319" id="Fill-3" fill="#6E6E6E"></path>
            <path d="M14.9056943,32.1891915 L22.0287826,34.079556 C21.9017847,34.1244459 21.7747868,34.165595 21.6452988,34.2017563 L14.5222104,32.3088979 C14.6504534,32.2739836 14.7786964,32.2340814 14.9056943,32.1891915 Z M18.1270833,29.8454388 L25.2501716,31.7382972 C24.7060728,32.3754847 24.1071905,32.9203984 23.4672207,33.3480996 L19.3422104,32.2521243 L23.4669717,33.3480996 C23.006293,33.6573413 22.524448,33.9029889 22.0289071,34.0800548 L14.9058188,32.1884433 C15.4026047,32.0126245 15.8832046,31.7657299 16.3451284,31.4564882 L16.3441323,31.4564882 C16.9841021,31.028787 17.5829844,30.4826263 18.1270833,29.8454388 Z M20.837119,24.1431717 L27.9602073,26.0347832 C27.9145545,26.254245 27.8639213,26.4725985 27.807939,26.6891046 L27.7194093,27.0126353 C27.6260285,27.343075 27.5189519,27.6697739 27.4019146,27.9889911 L21.5892104,26.4451243 L27.4015411,27.9892405 C27.2732981,28.3396313 27.1313592,28.6825404 26.9757245,29.0167209 C26.7915776,29.4120016 26.589875,29.7948129 26.3732315,30.160167 L26.3722104,30.1601243 L26.1658415,30.4967018 C25.8831192,30.939456 25.577129,31.3552365 25.2504207,31.7382972 L18.1273323,29.8454388 C18.5344726,29.3678599 18.9117311,28.8391564 19.2503922,28.2693037 L21.7492104,28.9321243 L19.2501432,28.2685556 C19.4667867,27.9019545 19.6684892,27.5203902 19.8527607,27.1238626 C20.0070258,26.790929 20.1502097,26.4480198 20.2796978,26.0976291 L20.2788262,26.0973797 C20.3971086,25.7781624 20.5029402,25.4527105 20.5975661,25.1210239 L20.596819,25.1207745 C20.6889547,24.8003103 20.7686397,24.4736114 20.837119,24.1431717 Z M21.0074456,23.1266644 L28.1305339,25.0195228 C28.0869562,25.359938 28.0296826,25.6991063 27.9599583,26.0345338 L20.8368699,24.1429223 C20.9065943,23.8074949 20.9638679,23.4683266 21.0074456,23.1266644 Z M21.030106,22.9391243 L28.1531943,24.8319826 C28.1457239,24.8930828 28.1382534,24.9554299 28.1307829,25.019024 L21.0076946,23.1261656 C21.015165,23.0650654 21.0238806,23.0027183 21.030106,22.9391243 Z" id="形状结合" fill="#8B8B8B"></path>
            <path d="M19.1058387,23.3325345 L26.227682,25.224146 C25.1867972,26.4436555 23.9541705,27.6257568 22.5820951,28.6819169 L15.4590067,26.7903055 C16.8310821,25.7353923 18.0637088,24.5520441 19.1058387,23.3325345 Z M21.7808877,19.2767301 L28.9039761,21.1683415 C28.7047637,21.5972897 28.4731793,22.0349664 28.211713,22.476384 C27.6709758,23.3880235 27.0023692,24.3157485 26.227931,25.2235225 L19.1048426,23.3319111 C19.8792808,22.425384 20.5478875,21.496412 21.0882511,20.5836503 C21.3500909,20.143355 21.5816753,19.7056782 21.7808877,19.2767301 Z M22.5102541,17.1533121 L29.6333425,19.0461705 C29.5947451,19.2307179 29.5474321,19.4215001 29.4926487,19.6135292 L29.4930222,19.6134045 C29.4282782,19.8366072 29.3535736,20.0635507 29.2689083,20.2954819 C29.1630767,20.5812811 29.0410591,20.8730656 28.9041006,21.1685909 L21.7810122,19.2757325 C21.9179707,18.9814542 22.0399883,18.6896697 22.1458199,18.4028729 C22.2317303,18.1731862 22.3064349,17.9449957 22.3699339,17.7217931 L27.9970067,19.2163071 L22.3695603,17.7206708 C22.4243438,17.5286417 22.4716567,17.3403534 22.5102541,17.1533121 Z M22.596538,16.6469288 L29.7196263,18.5385403 C29.69846,18.7056305 29.6685782,18.8727208 29.633716,19.0460458 L22.5106276,17.1531874 C22.5467349,16.9823563 22.5753717,16.8127721 22.596538,16.6469288 Z M22.6307776,15.6370303 L29.753866,17.5286417 C29.7663167,17.6982259 29.7688069,17.8727978 29.7613364,18.0523575 C29.7542395,18.2103451 29.7405436,18.3724475 29.7193773,18.5382909 L22.596289,16.6466794 C22.6174553,16.4820831 22.6311511,16.3199806 22.6386216,16.1603719 L26.1990067,17.1053071 L22.6382481,16.1594991 C22.6457185,15.9811863 22.6432284,15.8066144 22.6307776,15.6370303 Z M20.7111171,13.1283071 L27.8342055,15.0199185 C28.7231908,15.2568376 29.3556902,15.8341718 29.6246269,16.7768602 C29.6931062,17.0137792 29.7354388,17.2656616 29.754115,17.5287664 L22.6310266,15.635908 C22.6123505,15.3728032 22.5700178,15.1221678 22.5015386,14.8852488 C22.2326018,13.9413135 21.6001025,13.3639792 20.7111171,13.1283071 Z" id="形状结合" fill="#949494"></path>
            <path d="M12.0982935,32.3479272 C12.217821,32.3803477 12.3385935,32.4065335 12.4606111,32.4289785 L16.0212935,33.3736461 L12.4606111,32.4282303 C12.6909504,32.4693794 12.9262701,32.4893305 13.16657,32.4918244 L20.2896584,34.3846828 C20.0493584,34.3821889 19.8140388,34.3597439 19.5836994,34.3198418 L19.5692935,34.3156461 L19.4016069,34.2842727 C19.3412206,34.271024 19.2811456,34.2563724 19.2213819,34.2407856 L12.0982935,32.3479272 Z M13.9514669,32.4342156 L21.0745552,34.3258271 C20.8081087,34.3669762 20.5466424,34.3869272 20.2901564,34.3844334 L13.1670681,32.491575 C13.423554,32.4953158 13.6850203,32.4766117 13.9514669,32.4342156 Z M14.5222104,32.3096461 L21.6452988,34.2012575 C21.4535568,34.2536291 21.26306,34.2960252 21.0750533,34.3259518 L13.9519649,32.4330934 C14.1399716,32.4031668 14.3304685,32.3632646 14.5222104,32.3096461 Z" id="形状结合" fill="#7F7F7F"></path>
            <path d="M8.04120851,30.0038004 L8.15949087,30.0062943 L8.15949087,30.0062943 L15.2825792,31.8991527 L15.1642969,31.8966588 L15.1642969,31.8966588 L15.1207192,31.8966588 L7.9976308,30.0038004 L8.04120851,30.0038004 Z M9.14982551,29.9238714 L16.2729139,31.8167298 L16.1832683,31.8291992 L16.1832683,31.8291992 C16.1023383,31.8416687 16.0226533,31.8528911 15.9442134,31.8616197 C15.8969005,31.8678545 15.8508326,31.8728422 15.8035197,31.8753361 C15.7238347,31.8828178 15.6441497,31.8878055 15.5657099,31.8915464 C15.5246223,31.8940402 15.4835347,31.8965341 15.4424472,31.8977811 C15.3889088,31.899028 15.3353705,31.899028 15.2830773,31.899028 L8.1599889,30.0061696 C8.21228216,30.0074166 8.26582049,30.0074166 8.3206039,30.0061696 C8.36044638,30.0049227 8.40277901,30.0024288 8.44262149,30.0011819 C8.52106138,29.997441 8.60074634,29.9924533 8.68167637,29.9849716 C8.72774424,29.9799838 8.77381211,29.9749961 8.82112505,29.9700083 C8.89956493,29.9600328 8.97924989,29.9513042 9.06017993,29.9388347 C9.09006179,29.933847 9.11994365,29.9288592 9.14982551,29.9238714 Z M15.4586332,26.7905549 L22.5817216,28.6821663 C22.444763,28.7881564 22.3090496,28.8904057 22.1720911,28.991408 C22.1272683,29.0250754 22.0812004,29.0574959 22.0363776,29.0899164 C21.9417517,29.1597452 21.8471258,29.2270801 21.7512549,29.294415 C21.7039419,29.3280824 21.656629,29.3617499 21.6105611,29.3941704 C21.5184254,29.4577644 21.4275347,29.5201115 21.335399,29.5799648 C21.2992917,29.6049036 21.2619394,29.6298424 21.2245871,29.6547813 L21.2248361,29.6551554 C21.2136304,29.662637 21.2049149,29.6688717 21.1937092,29.6751065 C21.0891226,29.7449352 20.9845361,29.8122701 20.8799496,29.8771111 C20.8500678,29.8970622 20.8201859,29.9170133 20.790304,29.9357174 C20.6570808,30.0192625 20.5251025,30.0990668 20.3931243,30.1776242 C20.3570171,30.1988222 20.3196648,30.2200202 20.2823124,30.2412182 C20.1876865,30.2960837 20.0930606,30.3509492 19.9984348,30.4033207 C19.9498767,30.4320004 19.9025638,30.4569393 19.8552508,30.4831251 C19.7680954,30.5305089 19.6821851,30.5766457 19.5975198,30.6215356 C19.552697,30.6452275 19.5066291,30.6689195 19.4618064,30.6926114 C19.3671805,30.7412421 19.2725546,30.787379 19.1791738,30.8322689 C19.1443116,30.8497261 19.1106945,30.8671833 19.0758323,30.8833935 C18.9488344,30.9444937 18.8230816,31.0031 18.6973288,31.0579654 L18.6375651,31.0841512 L18.6375651,31.0841512 C18.5329785,31.1290412 18.428392,31.1739311 18.3262957,31.2163271 C18.2852081,31.2312904 18.2453656,31.2475007 18.2055232,31.2637109 C18.122103,31.2961314 18.0399279,31.3285519 17.9577527,31.3584785 C17.9154201,31.3734418 17.8730875,31.3884051 17.8307548,31.4033685 L17.8221949,31.4069534 L17.8141953,31.4097279 L17.6985587,31.4499417 L17.6985587,31.4499417 L17.4705539,31.5256935 C17.3584969,31.5606079 17.247685,31.5942753 17.1107265,31.6329305 C16.9787483,31.6690919 16.8492602,31.7002654 16.7197722,31.730192 C16.6774396,31.7389206 16.6351069,31.7464023 16.5915292,31.7563778 C16.5031287,31.7750819 16.4147282,31.7912922 16.3275728,31.8062555 C16.3101417,31.8099963 16.2914655,31.8137372 16.2727894,31.816231 L9.149701,29.9233727 C9.16837717,29.9208788 9.18705333,29.9183849 9.20572949,29.915891 C9.29288492,29.9009277 9.38004034,29.8822236 9.46968592,29.8647664 C9.51201856,29.8560378 9.55435119,29.8473092 9.5979289,29.8373336 C9.72617188,29.808654 9.85565994,29.7762335 9.98763816,29.7400721 C10.1245967,29.7026639 10.2354086,29.6689964 10.3487106,29.6328351 C10.3848179,29.6216126 10.4234153,29.6078963 10.4607676,29.5966738 C10.5379624,29.570488 10.6139121,29.5455492 10.692352,29.5181164 L10.6914805,29.5179917 C10.6964608,29.5154978 10.7026862,29.513004 10.7076665,29.513004 C10.7499991,29.4980407 10.7923317,29.4818304 10.8346644,29.4656202 C10.9168395,29.4356935 10.9990146,29.40452 11.0824348,29.3708525 C11.1222773,29.3558892 11.1621198,29.339679 11.2019622,29.3234687 C11.3053037,29.2823196 11.4098902,29.2386767 11.5144767,29.1925398 L11.5742404,29.166354 C11.6999932,29.1102416 11.8257461,29.0528823 11.952744,28.993029 C11.9863611,28.9755718 12.0224683,28.9581146 12.0560854,28.9419044 C12.1507113,28.8945206 12.2440921,28.8483837 12.338718,28.799753 L12.4731864,28.7299242 L12.4731864,28.7299242 C12.5590967,28.6850343 12.6450071,28.6388974 12.7321625,28.5915136 C12.7794754,28.5653278 12.8280335,28.539142 12.8753464,28.5129562 C12.9699723,28.4605847 13.0645982,28.4057192 13.1592241,28.3496068 C13.1965764,28.3271619 13.2326836,28.3084577 13.270036,28.2860128 C13.4020142,28.2087023 13.5339924,28.1264041 13.6659706,28.044106 C13.6970975,28.0254018 13.7269794,28.0054507 13.7581063,27.9867466 C13.8614478,27.9194117 13.9660343,27.8520768 14.0706208,27.783495 L14.1017477,27.7635439 L14.1017477,27.7635439 L14.1014987,27.7631699 C14.138851,27.738231 14.1762034,27.7132922 14.2135557,27.6883533 C14.3044463,27.6272531 14.395337,27.564906 14.4862277,27.501312 L14.6294116,27.4028035 C14.7240375,27.3367156 14.8186634,27.2681338 14.9132892,27.198305 L15.0490027,27.0997966 L15.0490027,27.0997966 C15.1847161,26.9987942 15.3216747,26.896545 15.4586332,26.7905549 Z" id="形状结合" fill="#838383"></path>
            <path d="M6.40380709,26.8832027 L13.5256504,28.7748141 C13.535611,28.9157186 13.5567773,29.0466475 13.5916395,29.1676009 C13.6090706,29.2299481 13.631482,29.2898013 13.6551384,29.3471606 C13.663854,29.3646178 13.6725695,29.382075 13.6825301,29.4007792 C13.6999612,29.4381874 13.7198825,29.4755957 13.7410488,29.511757 C13.7522545,29.5317081 13.7659503,29.5504122 13.7784011,29.5691164 C13.8008125,29.6015369 13.8219788,29.6314635 13.8456353,29.6613901 L13.8941933,29.7175025 L13.8941933,29.7175025 C13.9190949,29.7449352 13.9439964,29.771121 13.9713881,29.7960599 C13.9900643,29.813517 14.0087404,29.8297273 14.0274166,29.8471845 C14.0560534,29.8721233 14.0871803,29.8945683 14.1170622,29.9170133 L14.1793161,29.9606562 L14.1793161,29.9606562 C14.2154233,29.9831012 14.2540207,30.0055462 14.2938632,30.0267442 C14.3112943,30.0354728 14.3287254,30.0466953 14.3474015,30.0566708 L7.22431316,28.1638124 L7.16952975,28.1351327 L7.16952975,28.1351327 C7.13093235,28.1126878 7.09233495,28.0914898 7.0562277,28.0677979 C7.03506138,28.0553284 7.01514014,28.0403651 6.9952189,28.0241549 C6.96409197,28.0029569 6.93296503,27.979265 6.90432825,27.9543261 C6.88565208,27.9393628 6.86697592,27.9219056 6.84829976,27.9044484 C6.82215313,27.8795096 6.7960065,27.8520768 6.77110495,27.8258911 C6.75491895,27.8071869 6.73873294,27.7897297 6.72254693,27.7697787 C6.69889046,27.741099 6.67772414,27.7099254 6.65655782,27.6787519 C6.64410705,27.6588008 6.62916612,27.6400967 6.61796042,27.6201456 C6.59554903,27.5852312 6.57687286,27.546576 6.55944178,27.5091677 L6.53329515,27.4555492 L6.53329515,27.4555492 C6.5083936,27.3969429 6.48598221,27.3370897 6.46855112,27.2759895 C6.43493403,27.1550361 6.41252263,27.0228602 6.40380709,26.8832027 Z M6.4248489,26.3073647 L13.5491823,28.2002231 C13.5354865,28.2999785 13.5267709,28.3947461 13.5230357,28.4882668 L13.5236583,28.4888903 C13.5186779,28.5873987 13.519923,28.6834133 13.5261484,28.77444 L6.40306004,26.8828286 C6.39683466,26.7918018 6.39558958,26.6957873 6.40056989,26.5960319 L6.39994735,26.5954084 C6.40368258,26.5031347 6.41239813,26.4071201 6.4248489,26.3073647 Z M6.57737089,25.5926174 L13.7004593,27.4854758 C13.6618619,27.6188986 13.6294898,27.7498276 13.6033432,27.8757687 C13.5796867,27.9876195 13.5622557,28.0948565 13.5485598,28.1995997 L6.42547144,26.3067413 C6.43916729,26.2032451 6.45659838,26.096008 6.48025485,25.9850302 C6.50640148,25.8582161 6.53877349,25.7272872 6.57737089,25.5926174 Z M6.77645879,24.9373493 L13.8995471,26.8302076 L13.8836724,26.8973867 L13.8836724,26.8973867 L13.8655565,26.9636305 C13.8543508,27.0035326 13.8419001,27.0434348 13.8282042,27.08209 C13.7796462,27.2192536 13.7373135,27.3551703 13.6999612,27.4848523 L6.57687286,25.591994 C6.61422519,25.462312 6.65655782,25.3288891 6.70511585,25.1904785 C6.7188117,25.1518233 6.73126247,25.1131681 6.74371325,25.072019 L6.74284169,25.072019 C6.75529247,25.0271291 6.76649817,24.9822392 6.77645879,24.9373493 Z M14.1862885,24.4587728 L14.186911,24.4583987 C14.185666,24.4646334 14.1844209,24.4708682 14.1831758,24.4783498 C14.1234121,24.7875915 14.073609,25.0980801 14.0337665,25.4098157 C13.9829673,25.8002333 13.9481052,26.1942671 13.9306741,26.5895478 C13.9281839,26.6257091 13.9256938,26.6656113 13.9207135,26.7030195 C13.9156086,26.7449168 13.9081382,26.7873128 13.8994226,26.8297089 L6.77633428,24.9368505 C6.78504982,24.8957014 6.79252029,24.8533054 6.7975006,24.8109093 C6.80260541,24.7727529 6.80634065,24.7353446 6.80758572,24.6979363 C6.82501681,24.3014087 6.85987898,23.9098688 6.91092716,23.5183289 C6.95052062,23.2052217 7.0015688,22.8947331 7.06008744,22.5854914 C7.06133252,22.5792567 7.0625776,22.573022 7.0625776,22.5667873 L12.1194968,23.9090563 L7.06320013,22.5659144 C7.06444521,22.5559389 7.06569029,22.5459634 7.06569029,22.5359878 L7.06569029,22.5080563 L14.1887787,24.4009147 L14.1887787,24.4283474 L14.1887787,24.4283474 C14.1875336,24.4375748 14.1875336,24.4475503 14.1862885,24.4587728 Z" id="形状结合" fill="#6E6E6E"></path>
            <path d="M9.3279961,26.7279584 L16.4510845,28.6183229 L16.4174674,28.6245576 L16.4174674,28.6245576 C16.3427627,28.6357801 16.2693031,28.6470025 16.1746773,28.6569781 C16.0974825,28.6657067 16.025268,28.6706944 15.9530535,28.6756822 L15.9007602,28.6781761 L15.9007602,28.6781761 L8.77767185,26.7853177 C8.79510293,26.7853177 8.81253402,26.7840708 8.8299651,26.7828238 C8.90093452,26.78033 8.97439409,26.7740952 9.0515889,26.7653666 C9.14745986,26.7541442 9.21967436,26.7441686 9.29313393,26.7316992 C9.30558471,26.7304523 9.3167904,26.7292053 9.3279961,26.7279584 Z M13.5140712,24.8672711 L20.6384046,26.7588825 C20.5350632,26.8262174 20.4342119,26.8923054 20.3346057,26.9558994 C20.2947632,26.9820852 20.2549207,27.0057771 20.2150782,27.0319629 C20.0930606,27.1080264 19.9710431,27.1840899 19.8515156,27.2551656 C19.8353296,27.2638942 19.8178985,27.2751166 19.8017125,27.2850922 C19.6684892,27.3636496 19.5377561,27.4359722 19.4095131,27.5070479 C19.3734059,27.525752 19.3385437,27.5457031 19.3036815,27.5644073 C19.1916245,27.6242605 19.0820577,27.6816198 18.973736,27.7364853 C18.9550598,27.7464608 18.9363837,27.7564364 18.9177075,27.765165 C18.7956899,27.8275121 18.6749174,27.8836245 18.556635,27.937243 C18.5255081,27.9522063 18.4943811,27.9659227 18.4632542,27.979639 C18.3661382,28.023282 18.2690221,28.0656781 18.1743962,28.1043333 C18.1519848,28.1130619 18.1283284,28.1242843 18.107162,28.1330129 C17.9975952,28.1766559 17.8917636,28.217805 17.785932,28.2552133 C17.769746,28.2626949 17.752315,28.2676827 17.7361289,28.2739174 L17.7002707,28.2872597 L17.7002707,28.2872597 L17.6980296,28.2874156 L17.689314,28.2910005 L17.6898121,28.2906264 C17.6039017,28.3205531 17.5204815,28.3492327 17.4395515,28.3754185 C17.4196302,28.3816532 17.3984639,28.3878879 17.3797878,28.3941227 C17.2938774,28.4215554 17.2104572,28.4464942 17.1282821,28.4689392 C17.1133412,28.47268 17.0996453,28.4764208 17.0847044,28.4801617 C17.0635381,28.4863964 17.0436168,28.4901372 17.0224505,28.4963719 C16.9402754,28.5175699 16.8593454,28.537521 16.7809055,28.5549782 C16.7647195,28.5574721 16.7485335,28.5624599 16.7335925,28.5662007 C16.645192,28.5849048 16.5617719,28.5998681 16.4795967,28.6148314 L16.45096,28.6185723 L16.45096,28.6185723 L9.32787159,26.7269608 C9.33783221,26.7257139 9.34654776,26.72322 9.35650838,26.7219731 C9.43868349,26.7095036 9.52334876,26.6920464 9.61050419,26.6733423 L9.65781713,26.6633668 L9.65781713,26.6633668 C9.73625701,26.6459096 9.81718705,26.6259585 9.89936216,26.6047605 L9.96161604,26.5885502 L9.96161604,26.5885502 C9.97655697,26.5848094 9.9914979,26.5810686 10.0051938,26.5760808 C10.0873689,26.5548828 10.1707891,26.528697 10.2554543,26.5037582 C10.2766206,26.4975234 10.2965419,26.4900418 10.3164631,26.4825601 C10.3986382,26.4576213 10.4820584,26.4289416 10.5667237,26.399015 L15.7966718,27.7872324 L10.5662257,26.3981421 C10.5687158,26.3981421 10.571206,26.3968952 10.5724511,26.3956483 C10.5749412,26.3956483 10.5761863,26.3944013 10.5774314,26.3944013 L10.6132896,26.3831788 L10.6132896,26.3831788 L10.6628437,26.3648488 L10.6628437,26.3648488 C10.7674302,26.3261936 10.8745069,26.2850445 10.9840737,26.2401546 C11.0064851,26.231426 11.0288965,26.2214504 11.0513079,26.2127218 C11.1459338,26.1728197 11.2430498,26.1316706 11.3414109,26.0880276 L11.4335467,26.0456316 L11.4335467,26.0456316 C11.551829,25.992013 11.6713565,25.9346537 11.7958642,25.8735535 L11.8506476,25.8461208 L11.8506476,25.8461208 C11.9589694,25.7912553 12.0685362,25.732649 12.1805932,25.6727958 C12.2154553,25.6528447 12.2515626,25.6353876 12.2864247,25.6154365 C12.4146677,25.5456077 12.5454009,25.4720381 12.6786242,25.3922338 L12.7284273,25.3623072 L12.7284273,25.3623072 C12.8479547,25.2912315 12.9699723,25.2176619 13.093235,25.1391045 L13.2115173,25.064288 L13.2115173,25.064288 C13.3111235,25.0006939 13.4119748,24.934606 13.5140712,24.8672711 Z M17.8414625,21.033173 L24.9645509,22.9247844 C24.1427997,23.8899177 23.0931994,24.922386 21.785868,25.9311623 C21.6289883,26.0533626 21.4758437,26.1655874 21.3239443,26.2765653 C21.2841018,26.3064919 21.2455044,26.3339246 21.206907,26.3638512 C21.0637231,26.4648536 20.9242744,26.5646089 20.7599242,26.6768337 C20.7175915,26.7042665 20.677749,26.7329461 20.6379066,26.7591319 L13.5148182,24.8662736 L13.6355907,24.7852223 L13.6355907,24.7852223 C13.801186,24.6717506 13.9418798,24.5732421 14.0825735,24.4709929 C14.122416,24.4435601 14.1610134,24.4136335 14.2008559,24.3862008 C14.3527554,24.2752229 14.5058999,24.1605042 14.6627797,24.0395508 C15.970111,23.0307745 17.0197114,21.9983063 17.8414625,21.033173 Z M20.0049092,17.6802699 L27.1267524,19.5706344 C27.1155467,19.6092896 27.103096,19.6491917 27.0894001,19.6866 C27.0744592,19.728622 27.0582732,19.7685241 27.039597,19.8071793 C27.0371069,19.814661 27.0333716,19.8208957 27.0296364,19.8283774 C26.9013934,20.1014577 26.7407784,20.4069586 26.5440562,20.7386452 L26.5446787,20.7386452 C26.1587047,21.3895491 25.6382623,22.1339736 24.9646754,22.924535 L17.841587,21.0329236 C18.5151739,20.2436091 19.0356163,19.4966907 19.4215904,18.8457868 C19.6176901,18.5165941 19.7783051,18.2110932 19.906548,17.935519 L19.9165087,17.9155679 L19.9165087,17.9155679 C19.9351848,17.8756657 19.9513708,17.8357636 19.9663118,17.7958614 L23.5276718,18.7402324 L19.9663118,17.7949886 C19.9812527,17.7563334 19.9924584,17.7189251 20.0049092,17.6802699 Z M20.0639258,17.3109256 L27.1870142,19.203784 C27.1857691,19.24618 27.1807888,19.2910699 27.1758085,19.3347129 L27.1746718,19.3342324 L27.1669996,19.3951584 C27.1637312,19.4152654 27.159996,19.4352165 27.1556382,19.4551675 L27.1557628,19.4549181 C27.1482923,19.4935734 27.1383317,19.5334755 27.127126,19.5708838 L20.0040376,17.6792723 C20.0152433,17.6406171 20.0239588,17.6019619 20.0326744,17.5645536 L24.8606718,18.8452324 L20.0325499,17.5635561 C20.0412654,17.5236539 20.0474908,17.4825048 20.0524711,17.4426027 L24.4246718,18.6032324 L20.0527201,17.4418545 C20.0589455,17.3982115 20.0626808,17.3545686 20.0639258,17.3109256 Z M16.9522282,14.2802324 L24.0753165,16.1718438 C25.2817966,16.492308 26.3127208,17.3377348 27.0473165,18.5697138 C27.1282465,18.7031366 27.1730693,18.867733 27.1855201,19.0460458 L27.1860181,19.0460458 C27.1885083,19.0971704 27.1885083,19.149542 27.1872632,19.2031605 L20.0641749,17.3103021 C20.066665,17.2579305 20.0654199,17.205559 20.0616847,17.1531874 C20.051226,16.9761216 20.0039131,16.8115252 19.9242281,16.6781024 C19.1896324,15.4461234 18.1587082,14.6019435 16.9522282,14.2802324 Z" id="形状结合" fill="#878787"></path>
            <path d="M8.77754734,26.78644 L15.9006357,28.6780514 C15.8309114,28.6805453 15.7624321,28.6830392 15.6989331,28.6830392 L8.57584479,26.7901808 C8.64058881,26.7914277 8.707823,26.7889339 8.77754734,26.78644 Z" id="形状结合" fill="#838383"></path>
            <path d="M15.5870007,28.6648338 L8.46391232,26.7732224 C8.47885325,26.7769632 8.49379418,26.780704 8.50998019,26.7831979 L15.6330685,28.6748094 C15.6168825,28.6723155 15.6019416,28.6698216 15.5870007,28.6648338" id="Fill-101" fill="#7F7F7F"></path>
            <path d="M15.632695,28.67456 L8.50960666,26.7829485 C8.53077298,26.7866894 8.55318437,26.7891832 8.57559577,26.7904302 L15.6986841,28.6832886 C15.6762727,28.6820416 15.6538613,28.6795477 15.632695,28.67456" id="Fill-102" fill="#838383"></path>
            <path d="M7.56359678,29.962402 C7.59223356,29.9661428 7.62087034,29.9723775 7.6507522,29.9761183 C7.75658379,29.9898347 7.86490553,29.9985633 7.97696251,30.004798 L15.1000509,31.8951625 C14.9879939,31.8901747 14.8796722,31.8801992 14.7738406,31.8689767 C14.7439587,31.8652359 14.7153219,31.8590012 14.6866851,31.8540134 L7.56359678,29.962402 Z M7.34110143,29.9233727 L7.39043763,29.9338158 L7.4402096,29.9429497 C7.48129716,29.9504313 7.52238471,29.956666 7.56347227,29.9629007 L14.6865606,31.8545122 C14.6454731,31.8482775 14.6043855,31.8420427 14.563298,31.8345611 C14.5301789,31.8299474 14.4965618,31.8224658 14.4641898,31.816231 L7.34110143,29.9233727 Z M7.22456218,28.1641865 L14.3476505,30.0570449 C14.4074143,30.0857245 14.4684231,30.1131573 14.5344122,30.1368492 C14.596666,30.1605411 14.6614101,30.1792452 14.7273992,30.1979494 L7.60431081,28.305091 C7.53832171,28.2876338 7.47357768,28.2676827 7.41256888,28.2452377 C7.34533469,28.2215458 7.28308082,28.1941131 7.22456218,28.1641865 Z" id="形状结合" fill="#838383"></path>
            <path d="M0.0225359027,11.1687373 L7.14562426,13.0615957 L7.12321287,38.2348664 C7.12308836,38.2693328 7.12431049,38.3063719 7.12675474,38.3410083 L7.12732162,38.34148 C7.15595841,38.7804037 7.36139619,39.2604765 7.599206,39.4525056 L6.1,39.054 L7.59870797,39.4526303 L20.5661901,49.892031 L13.4431017,47.9991726 L0.476864681,37.5610188 C0.238307833,37.3676181 0.0328700459,36.8887922 0.00298818599,36.4511155 L2.685,37.162 L0.00373523249,36.4503673 C0.0012450775,36.414206 1.65911729e-12,36.3780447 1.65911729e-12,36.3418834 L0.0225359027,11.1687373 Z M13.3921781,0.325077852 L20.5152664,2.21668929 L7.71835991,11.8006877 L4.99,11.075 L7.71786188,11.800563 C7.66058832,11.8466998 7.60829506,11.8990714 7.55724688,11.9576777 C7.50246347,12.022394 7.4514153,12.0947166 7.40534743,12.1720271 C7.374345,12.2219048 7.3469533,12.2755233 7.32205175,12.3303887 L6.727,12.172 L7.32155371,12.3306381 L7.29073805,12.4014021 L7.29073805,12.4014021 L7.26166549,12.4744106 C7.24547948,12.5193005 7.23053855,12.5654374 7.2168427,12.6128212 C7.20451643,12.6582099 7.19206565,12.7043467 7.18335011,12.7504836 L7.17012116,12.8208423 L7.15869758,12.8917621 C7.15247219,12.9428868 7.14873696,12.9940114 7.1462468,13.0438891 L7.14574877,13.0609722 L0.0226604105,11.1681138 C0.0226604105,11.164373 0.0226604105,11.1581383 0.023905488,11.1531505 L2.466,11.8 L0.0231584415,11.1522777 C0.0256485965,11.101153 0.0293838289,11.0500284 0.0368542939,11.0001507 L0.0359827397,11.0001507 C0.0422081272,10.9527669 0.0509236696,10.9053831 0.0596392121,10.8579993 L3.608,11.8000779 L0.0602617509,10.8576252 C0.0702223709,10.8114883 0.0814280683,10.7653515 0.0938788433,10.7204616 C0.107450188,10.6738259 0.122391118,10.627689 0.138577125,10.5827991 C0.157377796,10.5325474 0.177299036,10.4851635 0.198465353,10.4377797 C0.223864934,10.3826649 0.252501716,10.3302933 0.282383576,10.2791687 C0.328326936,10.2031052 0.378130036,10.1307826 0.434158523,10.0671885 L6.965,11.8 L0.434158523,10.0660662 C0.483961623,10.00746 0.538745033,9.95508838 0.596018598,9.90770458 L0.595271551,9.90782927 L13.3921781,0.325077852 Z M14.3816412,-2.13162821e-13 L14.4555209,0.00308618214 L14.4555209,0.00308618214 L14.5276887,0.0102249267 L27.3133896,2.52780139 L34.4364779,4.42065977 L21.6507771,1.90308331 C21.6032151,1.89585104 21.5546571,1.89211022 21.504854,1.89211022 L21.3894042,1.89581987 L21.2726471,1.91093904 C21.2103932,1.91966764 21.1481393,1.933384 21.0871305,1.9508412 L21.0223865,1.96985707 L21.0223865,1.96985707 L20.957,1.99 L20.958016,1.99049396 C20.813587,2.04286554 20.6716482,2.1126943 20.5297093,2.20621498 L13.406621,0.314603537 C13.5485598,0.219835924 13.6892536,0.151254099 13.8349276,0.100129465 L19.463,1.594 L13.8345541,0.0991319112 C13.8768867,0.0841686039 13.9204644,0.0704522388 13.9640422,0.0592297583 L14.0564892,0.0363171939 L14.1500567,0.0174571919 C14.2272515,0.0062347114 14.3056914,-2.13162821e-13 14.3816412,-2.13162821e-13 Z" id="形状结合" fill="url(#linearGradient-1)" fill-rule="nonzero"></path>
            <path d="M14.1887787,24.4004159 L7.06569029,22.5075575 C7.04576905,22.4040613 7.03705351,22.389098 7.02709289,22.3753817 L14.1501812,24.2669931 C14.1601419,24.2807095 14.1688574,24.2969197 14.1887787,24.4004159" id="Fill-147" fill="#6E6E6E"></path>
            <path d="M11.3318238,23.4682019 L11.0633851,34.5654119 L21.6451743,39.4525056 L30.8113343,30.5303842 L31.7116732,12.8917621 C29.5831401,12.0352791 28.3326515,11.556661 27.9602073,11.4559081 C27.5877631,11.3551552 22.8021418,12.2762872 13.6033432,14.2193041 L11.3318238,23.4682019 Z" id="路径-32" fill="#949494"></path>
            <path d="M21.6452988,34.2017563 C24.927323,33.2939823 27.6478174,29.2588771 28.1533188,24.8309851 L28.091065,24.8060462 C26.7650574,26.6727188 25.0256842,28.504477 22.9800218,30.0731304 C20.9978585,31.615598 19.094135,32.6268682 17.4095451,33.1356207 L17.3858886,33.2391169 C18.5288698,34.251634 20.0154923,34.6506555 21.6452988,34.2017563 L21.6452988,34.2017563 Z M21.6614848,16.21212 C18.018388,17.2184025 15.0700445,22.0627732 15.0663093,27.0318382 C15.0650642,27.2263612 15.0650642,27.4308597 15.0812502,27.6216419 L15.0961911,27.9084386 C15.1273181,28.3648195 15.3701082,28.6653326 15.6988086,28.6827898 C15.7623076,28.6827898 15.8307869,28.6802959 15.9005112,28.677802 C15.9179423,28.6765551 15.9353734,28.6765551 15.9540495,28.6753081 C16.0250189,28.6703204 16.0972334,28.6665795 16.1744282,28.6578509 C16.2702992,28.6466285 16.3425137,28.635406 16.4172184,28.6241835 C16.4371396,28.6204427 16.4583059,28.6167018 16.4794722,28.6154549 C16.5616473,28.6004916 16.6450675,28.5842813 16.733468,28.5655772 C16.748409,28.5630833 16.7658401,28.5580956 16.780781,28.5556017 C16.8592209,28.5368975 16.9401509,28.5169465 17.0235711,28.4969954 C17.0434923,28.4907607 17.0634136,28.4857729 17.0845799,28.4795382 C17.0995208,28.4757974 17.1132167,28.4720565 17.1294027,28.4683157 C17.2103327,28.4471177 17.2937529,28.4209319 17.3796633,28.3947461 C17.3983394,28.3885114 17.4195057,28.3810298 17.439427,28.374795 C17.5228472,28.3486093 17.6087575,28.3186826 17.6959129,28.288756 C17.7257948,28.2775335 17.7556767,28.267558 17.7855585,28.2550886 C17.8913901,28.2176803 17.9972217,28.1765312 18.1067885,28.1328882 C18.1291999,28.1241596 18.1516113,28.1129372 18.1740227,28.1042086 C18.2686486,28.0655534 18.3657646,28.0231573 18.4641258,27.9795143 C18.4952527,27.965798 18.5263796,27.9520816 18.5575066,27.9383652 C18.6745439,27.8834998 18.7953164,27.8273874 18.918579,27.7650403 C18.9360101,27.7563117 18.9546863,27.7463361 18.9733625,27.7363606 C19.0816842,27.6814951 19.1924961,27.6253827 19.3045531,27.5642826 C19.3381702,27.5455784 19.3742774,27.5256274 19.4091396,27.5069232 C19.5386276,27.4358475 19.6681157,27.3635249 19.801339,27.2849675 C19.817525,27.274992 19.8349561,27.2650164 19.8523872,27.2550409 C19.9706695,27.1839652 20.0926871,27.1091486 20.2159498,27.0318382 C20.2545472,27.0056524 20.2943897,26.9819605 20.3342322,26.9557747 C20.4736808,26.8672418 20.6143746,26.7749681 20.7600487,26.6764597 C20.9243989,26.5642349 21.0638476,26.4644795 21.2057864,26.3634771 C21.2456289,26.3335505 21.2842263,26.3061178 21.3240688,26.2774381 C21.4759682,26.1664603 21.6291128,26.0529885 21.7859925,25.9307882 C24.7081894,23.6775635 26.340486,21.3033854 27.0302589,19.8282527 C27.2344517,19.4042923 27.2431672,18.8942929 27.0464449,18.5700879 C25.858641,16.5749803 23.8939087,15.5948836 21.6614848,16.21212 L21.6614848,16.21212 Z M22.581597,28.6815428 C27.3776356,24.9905937 30.4753884,19.7496953 29.6250004,16.7769849 C29.2191052,15.3554707 27.9902137,14.765667 26.2981534,14.9202878 C26.1487441,15.3380135 26.1624399,15.3529768 26.1811161,15.3641993 C26.6106678,15.6771818 27.0103377,16.0512645 27.3701651,16.4926821 C27.4398894,16.581215 27.5332702,16.6423151 27.6278961,16.6809703 C28.0823494,16.8580362 28.4023343,17.1797473 28.5280872,17.6199179 C29.0659606,19.4703802 26.5882564,23.9132356 22.1844173,27.3124002 C22.0561743,27.4109087 21.9291764,27.5056763 21.8021785,27.5991969 C21.7573557,27.6316174 21.713778,27.6640379 21.6689552,27.6964584 C21.58429,27.7588056 21.4996247,27.8199057 21.4162045,27.878512 C21.3701366,27.9109325 21.3240688,27.9421061 21.279246,27.9745266 C21.1983159,28.030639 21.1173859,28.0855044 21.0364559,28.139123 C20.990388,28.1702965 20.9443201,28.2014701 20.8970072,28.2326436 C20.8160772,28.2862621 20.7363922,28.3373868 20.6567072,28.3885114 C20.6118844,28.4171911 20.5670617,28.4458708 20.5222389,28.4733035 C20.4388187,28.526922 20.3553985,28.5767997 20.2719783,28.6266774 C20.234626,28.6503693 20.1960286,28.6740612 20.1586762,28.6965062 C20.0453742,28.763841 19.9345623,28.8274351 19.8237504,28.8897822 C19.6768312,28.9733273 19.561039,29.0356745 19.4452468,29.0967746 C19.4128748,29.1154788 19.3792577,29.131689 19.3456406,29.1491462 C19.2634655,29.1915422 19.1812904,29.2351852 19.1003604,29.2750874 C19.0592728,29.2937915 19.0194303,29.3137426 18.9783428,29.3336937 C18.9048832,29.369855 18.8301785,29.4047694 18.756719,29.4396838 C18.7156314,29.4571409 18.6745439,29.477092 18.6347014,29.4957962 C18.5624869,29.5269697 18.4927625,29.5568963 18.4217931,29.5880699 C18.3819506,29.6042801 18.3408631,29.6229843 18.3010206,29.6391945 C18.226316,29.6703681 18.1528564,29.7002947 18.0793968,29.7289744 C18.0457797,29.7414438 18.0121626,29.7551601 17.9797906,29.7676296 C17.8789393,29.8062848 17.7793331,29.8424461 17.680972,29.8761136 C17.5639347,29.9172626 17.4630835,29.9496831 17.3647223,29.9796098 C17.3311052,29.9908322 17.2974881,29.9995608 17.2651161,30.0095364 C17.2016172,30.0282405 17.1381182,30.0469446 17.0758644,30.0644018 C17.0011597,30.083106 16.9277001,30.1018101 16.8554793,30.1192673 C16.8193784,30.1279959 16.780781,30.1379714 16.7446737,30.1454531 C16.6388421,30.1703919 16.5342556,30.1915899 16.4321593,30.2102941 C16.3076515,30.2289982 16.2167609,30.2439615 16.1283604,30.255184 C16.0947433,30.2589248 16.0636163,30.2614187 16.0312443,30.2651595 C15.9665003,30.2726412 15.9030013,30.2788759 15.8407475,30.2813698 C15.8021501,30.2838637 15.7660428,30.2863576 15.7299356,30.2876045 C15.6739071,30.2900984 15.6191237,30.2913453 15.5655853,30.2925923 C15.528233,30.2925923 15.4921258,30.2925923 15.4560185,30.2913453 C15.4037253,30.2900984 15.3526771,30.2888514 15.302874,30.2851106 C15.2680118,30.2826167 15.2343947,30.2813698 15.2007776,30.2788759 C15.1497295,30.2738881 15.1011714,30.2676534 15.0526134,30.2614187 C15.0227316,30.2564309 14.9916046,30.2526901 14.9629678,30.2477023 C14.9106746,30.2389738 14.8621166,30.2277513 14.8135585,30.2177757 C14.788657,30.211541 14.7637554,30.2065533 14.740099,30.2003185 C14.6678845,30.1816144 14.5994052,30.1616633 14.5346612,30.1367245 C14.4686721,30.1130326 14.4076633,30.0855999 14.3478996,30.0569202 C14.3292234,30.0469446 14.3117923,30.0357222 14.2931161,30.0257466 C14.2532737,30.0057955 14.2159213,29.9833506 14.178569,29.9609056 C14.1574027,29.9459423 14.1387265,29.930979 14.1175602,29.9160157 C14.0864333,29.8948177 14.0565514,29.8711258 14.0279146,29.8474339 C14.0079934,29.8299767 13.9905623,29.8125195 13.9706411,29.7963092 C13.9444944,29.7701235 13.9183478,29.7451846 13.8946913,29.7165049 C13.8772603,29.6990477 13.8623193,29.6803436 13.8461333,29.6603925 C13.8224769,29.6317129 13.8000655,29.6017862 13.7788991,29.5693657 C13.7664484,29.5506616 13.7527525,29.5319575 13.7403017,29.5107595 C13.7191354,29.4758451 13.7004593,29.4384368 13.6817831,29.3997816 C13.6730676,29.3823244 13.6631069,29.3648672 13.6556365,29.3461631 C13.6307349,29.2900507 13.6095686,29.2301974 13.5921375,29.1678503 C13.4439733,28.6466285 13.5298836,27.9321305 13.8287022,27.0817159 C13.8834856,26.9258481 13.9220831,26.7525231 13.9307986,26.5904206 C13.9631706,25.8784166 14.049081,25.1738942 14.1835493,24.4781004 C14.1885296,24.4506677 14.1897747,24.4244819 14.1885296,24.40079 C14.1686084,24.2972938 14.1598929,24.2810835 14.1499322,24.2661202 C13.9382691,24.2760958 13.9183478,24.2997877 13.9009167,24.3284673 C12.6309377,26.4732081 12.073143,28.5169465 12.4939792,30.0107833 C12.523861,30.1130326 12.5587232,30.2102941 12.5960755,30.3038148 C12.6085263,30.3337414 12.6222221,30.3611741 12.635918,30.3898538 C12.6633097,30.4534478 12.6919465,30.514548 12.7230734,30.5731543 C12.7405045,30.6043278 12.7579356,30.6355014 12.7766118,30.665428 C12.8077387,30.7190465 12.8413558,30.7701712 12.876218,30.8188019 C12.8961392,30.8487285 12.9160604,30.8774082 12.9372267,30.903594 C12.9758242,30.9534717 13.0144216,30.9996085 13.0555091,31.0444985 C13.0766754,31.0669434 13.0978417,31.0931292 13.1202531,31.1155742 C13.1713013,31.1679458 13.2260847,31.2165765 13.2821132,31.2639603 C13.2958091,31.2751828 13.3082598,31.2888992 13.3232008,31.3001216 C13.3954153,31.357481 13.4701199,31.4110995 13.5498049,31.4597302 C13.5697261,31.4734466 13.5921375,31.4821752 13.6133038,31.4958916 C13.6718225,31.529559 13.7328313,31.5632265 13.7950851,31.5931531 C13.8262121,31.6081164 13.8585841,31.6218327 13.889711,31.6343022 C13.9469846,31.659241 14.0042582,31.681686 14.065267,31.702884 C14.0988841,31.7153534 14.1349913,31.7278228 14.1698535,31.7377984 C14.2308623,31.7577495 14.2931161,31.7752066 14.35537,31.788923 C14.3914773,31.7976516 14.4275845,31.8076271 14.4636918,31.8163557 C14.5371513,31.831319 14.611856,31.8425415 14.6865606,31.853764 C14.7164425,31.8587518 14.7438342,31.8649865 14.7737161,31.8687273 C14.8795476,31.8811967 14.9878694,31.8899253 15.0999264,31.8949131 C15.1210927,31.89616 15.142259,31.8949131 15.1634253,31.89616 C15.255561,31.8987664 15.3476968,31.8999009 15.4435678,31.897407 C15.4834102,31.89616 15.5244978,31.8936662 15.5655853,31.8911723 C15.6440252,31.8886784 15.7237102,31.8836906 15.8046402,31.876209 C15.8507081,31.8724681 15.896776,31.8674804 15.9440889,31.8612457 C16.0225288,31.8525171 16.1022137,31.8412946 16.1831438,31.8300721 C16.2317018,31.8225904 16.2790148,31.8151088 16.3275728,31.8063802 C16.4147282,31.7914169 16.5031287,31.7752066 16.5915292,31.7565025 C16.6351069,31.746527 16.6774396,31.7390453 16.7197722,31.7303167 C16.8492602,31.7003901 16.9787483,31.6692165 17.1107265,31.6318083 C17.247685,31.5944 17.3584969,31.5607326 17.4705539,31.5258182 L17.583856,31.4884099 C17.6660311,31.4609772 17.7482062,31.4335445 17.8303813,31.4036178 C17.8727139,31.3886545 17.9150466,31.3724443 17.9586243,31.3587279 C18.0395543,31.3275544 18.1217294,31.2963808 18.2051496,31.2639603 C18.2462372,31.2477501 18.2848346,31.2315398 18.3259222,31.2153296 C18.4292636,31.1729335 18.532605,31.1292905 18.6371915,31.0844006 C18.6571128,31.0744251 18.677034,31.0669434 18.6969553,31.0582148 C18.8227081,31.0033494 18.9484609,30.9447431 19.0754588,30.8836429 C19.110321,30.8674327 19.1451832,30.8499755 19.1800453,30.8325183 C19.2734261,30.7876284 19.3668069,30.7414915 19.4626779,30.6928607 C19.5062556,30.6691688 19.5523235,30.64423 19.5971463,30.621785 C19.6818116,30.5768951 19.768967,30.5307582 19.8548773,30.4833744 C19.9034353,30.4571887 19.9507483,30.4322498 19.9993063,30.4035701 C20.0926871,30.3511986 20.1885581,30.2963331 20.283184,30.2414676 C20.3192912,30.2202696 20.3566436,30.1990716 20.3927508,30.1766266 C20.524729,30.0993162 20.6567072,30.0195119 20.7899305,29.9359668 C20.8198124,29.9160157 20.8496942,29.8973116 20.8808212,29.8773605 C20.9841626,29.8112726 21.0887491,29.7451846 21.1945807,29.6753558 C21.2418937,29.6441823 21.2879615,29.6117618 21.3352745,29.5805882 C21.4274102,29.5194881 21.5183009,29.4571409 21.6104366,29.3947938 C21.6565045,29.3611264 21.7038174,29.3287059 21.7511304,29.2937915 C21.8470013,29.2277036 21.9416272,29.1591217 22.0362531,29.089293 C22.082321,29.0568725 22.1271438,29.0256989 22.1719665,28.9907845 C22.3089251,28.8897822 22.4446385,28.7875329 22.581597,28.6815428 L22.581597,28.6815428 Z M34.4359799,4.41978691 C34.7659254,4.5020851 34.983814,4.88364944 35,5.3662161 L34.9775886,30.5394868 C34.9526871,31.0644495 34.7796213,31.5981408 34.4982338,32.0221012 L21.5145656,49.6301731 C21.3726268,49.8097328 21.2082766,49.9294393 21.0352108,49.9768231 C20.8633901,50.0242069 20.6915694,49.9967742 20.5658166,49.892031 L7.59957952,39.4526303 C7.34184848,39.243144 7.12271484,38.6982302 7.12271484,38.2343677 L7.14512623,13.0610969 C7.16131224,12.5698017 7.38916142,12.06479 7.71786188,11.8004383 L20.5147684,2.21768684 C20.7027751,2.08925179 20.8907818,2.00570666 21.086259,1.9508412 C21.2755107,1.89846962 21.4709879,1.8772716 21.6502791,1.90345739 L34.4359799,4.41978691 Z" id="Fill-159" fill="url(#linearGradient-2)" fill-rule="nonzero"></path>
        </g>
    </g>
</svg>