<?xml version="1.0" encoding="UTF-8"?>
<svg width="50px" height="51px" viewBox="0 0 50 51" version="1.1" xmlns="http://www.w3.org/2000/svg" xmlns:xlink="http://www.w3.org/1999/xlink">
    <title>应急预案</title>
    <defs>
        <linearGradient x1="17.1866523%" y1="80.985297%" x2="75.4822142%" y2="39.3463673%" id="linearGradient-1">
            <stop stop-color="#003B7C" offset="0%"></stop>
            <stop stop-color="#4EA2FF" offset="100%"></stop>
        </linearGradient>
        <linearGradient x1="-73.6725997%" y1="88.7090779%" x2="75.4822142%" y2="48.5049124%" id="linearGradient-2">
            <stop stop-color="#003B7C" offset="0%"></stop>
            <stop stop-color="#4EA2FF" offset="100%"></stop>
        </linearGradient>
        <linearGradient x1="-60.8428232%" y1="269.978976%" x2="141.685783%" y2="32.4756486%" id="linearGradient-3">
            <stop stop-color="#003B7C" offset="0%"></stop>
            <stop stop-color="#4EA2FF" offset="100%"></stop>
        </linearGradient>
        <linearGradient x1="-9.04402877%" y1="249.027596%" x2="167.931581%" y2="13.4973987%" id="linearGradient-4">
            <stop stop-color="#003B7C" offset="0%"></stop>
            <stop stop-color="#4EA2FF" offset="100%"></stop>
        </linearGradient>
        <linearGradient x1="83.0798595%" y1="28.0320167%" x2="-12.529922%" y2="234.925357%" id="linearGradient-5">
            <stop stop-color="#C3EEFF" offset="0%"></stop>
            <stop stop-color="#25A8FF" offset="100%"></stop>
        </linearGradient>
        <linearGradient x1="49.5180317%" y1="103.340994%" x2="65.7792172%" y2="-15.2280229%" id="linearGradient-6">
            <stop stop-color="#003B7C" offset="0%"></stop>
            <stop stop-color="#4EA2FF" offset="100%"></stop>
        </linearGradient>
        <linearGradient x1="62.2504066%" y1="1.62583954%" x2="40.2374836%" y2="96.0220686%" id="linearGradient-7">
            <stop stop-color="#C3EEFF" offset="0%"></stop>
            <stop stop-color="#25A8FF" offset="100%"></stop>
        </linearGradient>
    </defs>
    <g id="页面-1" stroke="none" stroke-width="1" fill="none" fill-rule="evenodd">
        <g id="编组-105" transform="translate(8.000000, 2.000000)">
            <path d="M29.3922882,7.91659427 L29.3515334,8.08617654 L29.3050427,8.2546501 C29.2698225,8.3695528 29.2305771,8.48344758 29.1873065,8.59431861 L29.112388,8.77498798 L29.0297211,8.95071855 C28.9753814,9.06058166 28.9170164,9.16641309 28.85362,9.26922077 C28.8334941,9.30147415 28.8133683,9.33372754 28.7922362,9.36497301 L28.7927393,9.3651746 C28.4734092,9.85345507 28.07775,10.2222785 27.6538207,10.4376661 L27.4933141,10.5112786 C27.413817,10.543532 27.3333136,10.5717537 27.2528102,10.59292 L13.703789,14.2293888 L6.58225848,12.4010248 L20.1309778,8.76445523 C20.2117831,8.74338974 20.2922865,8.71617594 20.3717836,8.68291463 L20.3722734,8.68249402 L20.531549,8.61004324 C20.9560083,8.39411366 21.3508724,8.02598702 21.6702025,7.53681062 L21.6702734,7.53649402 L21.7008944,7.48961484 C21.7109573,7.47361414 21.7210203,7.45748744 21.7310832,7.44085679 C21.7944796,7.33804911 21.8528446,7.23221768 21.9071843,7.12336249 C21.9644424,7.00684713 22.0177759,6.88791276 22.0660779,6.76595463 L22.1270286,6.59812668 L22.1270286,6.59812668 L22.182204,6.42689088 C22.216418,6.31501194 22.2456004,6.20212508 22.2697514,6.0882303 C22.2958144,5.97181572 22.3159403,5.85489719 22.3320409,5.73697074 L23.0192585,5.91254254 L22.3325441,5.73686994 L22.3543052,5.54637337 L22.3672585,5.3550973 L22.3669593,5.35547362 C22.3709844,5.27181639 22.372997,5.18715125 22.3719907,5.10349402 L22.3588083,2.8890973 L29.4813451,4.71645336 L29.4934206,6.931858 L29.4933829,7.05746983 L29.4933829,7.05746983 L29.4892948,7.18424076 C29.4832571,7.31123848 29.4721879,7.4382362 29.4540746,7.56523392 L29.4545777,7.56533471 C29.4384771,7.68326116 29.4173449,7.8001797 29.3921876,7.91609031 L22.9312585,6.25754254 L29.3922882,7.91659427 Z M32.7231157,3.84913957 C32.7029899,3.85317125 32.6818577,3.85821084 32.6607256,3.86325043 L25.5381888,2.03589437 C25.5593209,2.02984686 25.5804531,2.02480727 25.6015852,2.0207756 C25.6513967,2.01160354 25.6996987,2.00656395 25.7469944,2.00555603 L25.8115229,2.00724429 L25.8741898,2.01422413 C25.8993471,2.0182558 25.9224918,2.02329539 25.9466428,2.0293429 L33.0681733,3.85669896 C33.0450286,3.85065145 33.0208776,3.84561186 32.9967266,3.8425881 L32.933305,3.8352303 L32.8695312,3.83392001 C32.8212292,3.83392001 32.7729272,3.8389596 32.7236189,3.84903878 L25.6592585,2.03554254 L32.7231157,3.84913957 Z" id="形状结合" fill="url(#linearGradient-1)" fill-rule="nonzero"></path>
            <path d="M25.5384907,2.035592 L32.6610275,3.86294806 L29.4811439,4.71665494 L26.6087454,3.979592 L23.1062822,4.91944812 L15.9837454,3.09209206 L19.6889136,2.0972766 L22.5607454,2.834592 L25.5384907,2.035592 Z" id="形状结合" fill="url(#linearGradient-2)" fill-rule="nonzero"></path>
            <path d="M27.0189479,3.8958062 C26.9716522,3.89590699 26.9233501,3.90094658 26.8740418,3.91102576 C26.8529097,3.91515823 26.8317775,3.92019782 26.8106454,3.92523741 L19.6881086,2.09788136 C19.7092407,2.09183385 19.7303729,2.08679425 19.751505,2.08276258 C19.8008133,2.07359052 19.8491154,2.06855093 19.8964111,2.06754301 L19.9610654,2.06933207 L19.9610654,2.06933207 L20.0242102,2.07621111 C20.0483612,2.08024278 20.0725122,2.08528238 20.095657,2.09132989 L27.2181938,3.91868594 C27.1940427,3.91263843 27.170898,3.90759884 27.146747,3.90457509 C27.1044827,3.89782203 27.0622185,3.89479828 27.0189479,3.8958062 Z" id="形状结合" fill="#8B8B8B"></path>
            <path d="M15.4499074,13.730066 L22.5714379,15.5574221 L21.3071942,22.881066 L25.3046284,23.9071189 L17.484731,40.2797454 L10.3621942,38.4513814 L13.7011798,31.460066 L7.60917975,29.8973795 L12.0107022,28.7160991 L14.6841798,29.402066 L17.2031942,24.126066 L13.8056258,23.253887 L15.4499074,13.730066 Z" id="形状结合" fill="#FFEAA4"></path>
            <path d="M21.1536727,1.83783841 C21.0842385,1.83078298 21.0148043,1.82775922 20.9443639,1.82876714 L16.2843083,0.632 L20.9439614,1.82836398 C20.8322629,1.83037981 20.7185519,1.84247483 20.6048409,1.86364112 L17.4483083,1.053 L20.6049415,1.86414508 C20.5546269,1.87321634 20.5053186,1.88531137 20.4550039,1.8984143 C20.3644376,1.92260435 20.272865,1.95384982 20.1812924,1.9911428 L20.1815943,1.99164676 C20.1554307,2.00172594 20.1302734,2.01281304 20.1051161,2.02390015 C19.9310275,2.10251778 19.7579453,2.20431754 19.5898945,2.3282915 C19.4218436,2.45226546 19.2588243,2.59942155 19.1018427,2.76774392 C18.9488863,2.93505838 18.8069991,3.11849953 18.6781936,3.31504361 C18.5757531,3.47106938 18.4821679,3.636368 18.3966331,3.80670621 C18.3283058,3.94559736 18.2649094,4.08872178 18.2075507,4.23486995 L12.5393083,2.78 L18.2078526,4.23517232 C18.1555254,4.36720963 18.109236,4.5022707 18.067978,4.6393476 L18.0684811,4.6393476 L18.012003,4.83929341 L18.012003,4.83929341 L17.9635249,5.04160783 C17.9333361,5.17868473 17.9091851,5.31777747 17.8900655,5.45687021 L14.1743083,4.503 L17.8900655,5.4570718 L17.8645309,5.68234156 L17.8645309,5.68234156 L17.848405,5.90761132 C17.8423673,6.04972781 17.841361,6.19083639 17.8473987,6.33093705 L10.7248619,4.50358099 C10.7198305,4.36247241 10.7198305,4.22136384 10.7268745,4.08025526 L10.7262707,4.08025526 C10.7343211,3.9290675 10.7474029,3.77888766 10.7675287,3.62870782 C10.7866021,3.4897519 10.8116841,3.35199577 10.8417757,3.21424447 L10.8412899,3.21415098 C10.8714787,3.078082 10.9056927,2.94402885 10.9459443,2.81199154 C10.9866992,2.67390672 11.0339949,2.53884566 11.0853158,2.40680835 L11.0850139,2.40650597 C11.1423726,2.2603578 11.205769,2.11723339 11.2741969,1.97914857 C11.3596311,1.80800402 11.4542226,1.64371333 11.5558581,1.48748597 C11.6844623,1.29013555 11.8263495,1.1066944 11.9803122,0.940387866 C12.1362875,0.771057575 12.3003131,0.624909407 12.4683639,0.500935444 C12.6364148,0.375953563 12.8084907,0.274153805 12.9825793,0.195536169 L13.0590575,0.163282781 L13.0590575,0.163282781 C13.1503282,0.125485841 13.2419008,0.0952482887 13.3334734,0.0700503287 C13.3827817,0.0569473895 13.4330964,0.0448523688 13.4824047,0.0357811032 L13.4843083,0.036 L13.6527448,0.0105831432 L13.6527448,0.0105831432 L13.8218271,0.000403167361 L13.8224308,6.09512441e-13 C13.8922675,-0.000604751038 13.9617017,0.00241900416 14.0311359,0.00947443295 C14.0623309,0.0124981881 14.093526,0.0165298617 14.124721,0.0215694537 L14.1353083,0.024 L14.2092999,0.0369402093 C14.2372245,0.0427357401 14.2648976,0.0492872097 14.2925706,0.0563426385 L21.4151074,1.8836987 C21.3597613,1.86958784 21.303409,1.85850074 21.2470566,1.84942947 C21.2160628,1.84489384 21.1838614,1.84086216 21.1536727,1.83783841 Z" id="形状结合" fill="url(#linearGradient-3)" fill-rule="nonzero"></path>
            <path d="M6.58175533,12.4013272 L13.7042921,14.2296912 L13.68316,14.2346048 L13.68316,14.2346048 L13.6618266,14.238964 L13.6045686,14.249144 C13.6015497,14.249144 13.5985308,14.2501519 13.5955119,14.2511598 C13.5693483,14.2561994 13.5431847,14.2622469 13.5170211,14.2672865 C13.5068576,14.2698063 13.4957884,14.2708142 13.4857254,14.2728301 C13.4454738,14.2778697 13.4062284,14.2788776 13.3659767,14.2819013 C13.3337753,14.2839172 13.301574,14.2879488 13.2693726,14.2879488 L7.35533829,12.7693272 L13.269272,14.288352 L13.2622279,14.288352 C13.2239888,14.2873441 13.1857497,14.2833124 13.1485169,14.2792808 C13.1132967,14.2772649 13.0790827,14.276257 13.0458751,14.2712174 L5.92333829,12.4438613 L6.0259801,12.4519247 L6.0259801,12.4519247 C6.06421921,12.4549484 6.10145202,12.459988 6.14069742,12.459988 L6.1468358,12.4595849 L6.24444615,12.4535374 L6.24444615,12.4535374 C6.28369155,12.4505136 6.32293695,12.4505136 6.36318864,12.4444661 C6.37425786,12.4434582 6.38432078,12.4414423 6.39539,12.4394265 C6.42165423,12.4348909 6.44781783,12.4278354 6.47297513,12.4227959 L6.48203176,12.42078 L6.48333829,12.4213272 L6.51061046,12.4161436 C6.52017024,12.4143797 6.52973002,12.4126159 6.53928979,12.4106 L6.54133829,12.4113272 L6.58175533,12.4013272 L6.58175533,12.4013272 Z" id="形状结合" fill="#838383"></path>
            <path d="M12.8576984,14.2303967 L5.73516163,12.4030407 C5.76333781,12.4090882 5.791514,12.4141278 5.81969018,12.4211832 L12.9412207,14.2485392 C12.9140508,14.2424917 12.8858746,14.2374521 12.8576984,14.2303967" id="Fill-87" fill="#7F7F7F"></path>
            <path d="M12.9417238,14.2485392 L5.81918703,12.4211832 C5.85340097,12.4282386 5.88660862,12.4373099 5.92082256,12.4423495 L13.0433594,14.2707134 C13.0081391,14.2656739 12.9759378,14.2566026 12.9417238,14.2485392" id="Fill-88" fill="#7F7F7F"></path>
            <path d="M13.0428562,14.2712174 L5.9213257,12.4428534 C5.9213257,12.4428534 5.92233199,12.4438613 5.92333829,12.4438613 L13.0458751,14.2712174 L13.0428562,14.2712174" id="Fill-89" fill="#838383"></path>
            <path d="M10.7252644,4.50267386 L17.8478013,6.33103784 L14.1174757,7.33190081 L14.1154615,7.33067386 L14.0571234,7.35027012 L14.0571234,7.35027012 L13.9979282,7.37322546 C13.7916383,7.4580586 13.6014211,7.61428595 13.4435823,7.81682622 L13.353398,7.94411045 L13.2893727,8.04742208 L13.2305297,8.15637806 C13.2013472,8.21584525 13.1731711,8.27833619 13.14902,8.34082713 C13.126781,8.39716977 13.1076614,8.45462111 13.0895482,8.5140883 L12.7464615,8.42567386 L13.0891457,8.51398751 C13.0720387,8.57043094 13.0579506,8.62687437 13.0448688,8.68533364 L13.0275606,8.7734761 L13.0275606,8.7734761 L13.0142775,8.8624249 L13.0029567,8.95918507 L13.0029567,8.95918507 L12.9957617,9.05624761 L12.9940007,9.11218708 L12.9940007,9.11218708 L12.994051,9.16772338 L13.0021014,10.6564189 L13.0025039,10.6566204 L13.0079671,10.7842565 L13.01156,10.8261629 C13.0272588,10.9898041 13.0625763,11.1398983 13.1142091,11.2729121 C13.1475174,11.3587197 13.1876155,11.4374191 13.2336164,11.5080619 L13.2538728,11.5381411 L13.2538728,11.5381411 L13.2694615,11.5596739 L13.2747231,11.5669812 C13.3090453,11.6128332 13.3460651,11.6546425 13.3855165,11.6921073 L13.4594612,11.755198 L13.4700546,11.7629809 C13.5187847,11.7988059 13.5704227,11.8286733 13.6245239,11.8521077 C13.6310578,11.8549574 13.6381568,11.8579085 13.6452971,11.8607496 L13.645805,11.8609429 L13.736091,11.8903126 L6.61466109,10.0623518 C6.21616934,9.96055199 5.92333829,9.53218668 5.88409289,8.9365069 C5.88197967,8.90102817 5.87996709,8.86474311 5.87996709,8.82845805 L5.87151423,7.33935941 C5.87121235,7.30246959 5.87221864,7.26517661 5.87423122,7.22788363 L5.87362745,7.22758126 C5.87664632,7.16307448 5.88268408,7.0985677 5.89174071,7.03406092 C5.89938853,6.97469453 5.91045774,6.91522734 5.92353954,6.85676808 C5.93541379,6.79951831 5.95050818,6.74206696 5.96761515,6.68562353 L5.96701137,6.68572432 C5.98512463,6.62726506 6.00424419,6.56981371 6.02638262,6.51337028 C6.05164055,6.44997221 6.07881044,6.38848919 6.10799292,6.329022 C6.14532636,6.25383129 6.18658435,6.183277 6.23086121,6.11574647 C6.40444663,5.85126868 6.62784352,5.64666125 6.87539142,5.54486149 L6.87621235,5.54414159 L6.93471235,5.5225361 C6.95483819,5.51573265 6.97521561,5.50968514 6.9958446,5.50414159 L6.99493894,5.50454475 L10.7252644,4.50267386 Z" id="形状结合" fill="url(#linearGradient-4)" fill-rule="nonzero"></path>
            <path d="M14.1435387,11.8842651 C13.5226564,12.0505716 13.0134725,11.5032719 13.0024033,10.6566204 L12.9933228,9.16792497 C12.9893215,8.31824976 13.4964928,7.4988121 14.1173751,7.33149764 L17.8477006,6.33063467 C17.7943671,5.03041994 18.2804063,3.66368259 19.1015408,2.76764313 C19.2585224,2.59932076 19.4225481,2.45216467 19.5905989,2.32819128 C19.7586497,2.20421675 19.9307257,2.10241699 20.1048142,2.02379935 C20.2215441,1.97239552 20.338274,1.93006294 20.4550039,1.89780955 C20.68947,1.83531861 20.9239361,1.81415233 21.1533708,1.83733445 C21.2670818,1.84842155 21.3797865,1.87160368 21.4904787,1.9058729 C21.6011709,1.93913421 21.7098504,1.98348262 21.8145048,2.03992605 C22.6436897,2.49248141 23.1438169,3.59413622 23.1065841,4.91954891 L26.810746,3.92574137 C27.4316284,3.75842692 27.9408123,4.30572661 27.9518815,5.15338598 L27.9599318,6.63301019 C27.9589255,7.48369332 27.4567857,8.30212306 26.8369096,8.4684296 L14.1435387,11.8842651 Z" id="Fill-98" fill="url(#linearGradient-5)" fill-rule="nonzero"></path>
            <path d="M7.32500281,46.863166 C7.36344318,47.4527982 7.65627423,47.875116 8.05275339,47.9769158 L0.93021659,46.1485518 C0.534743721,46.0467521 0.240906373,45.6254422 0.202667266,45.034802 C0.200453423,44.9954932 0.198440839,44.9551764 0.198440839,44.9138518 L0.00080503383,10.415224 C1.72084569e-12,10.3794429 0.00100629229,10.3431578 0.00301887686,10.3078807 L0.00251573072,10.3079815 C0.00553460758,10.2444826 0.0115723613,10.1819917 0.0196226996,10.1195007 C0.0277736671,10.0599327 0.03783659,10.0014735 0.0509183897,9.94301421 C0.0636983017,9.88576445 0.078792686,9.8283131 0.0958996549,9.77186967 C0.11350977,9.71149536 0.133635616,9.65303609 0.155774046,9.59558474 L0.195648378,9.50091601 L0.23879316,9.40881746 C0.265963051,9.35338195 0.29615182,9.30097019 0.327346881,9.24855844 L0.351497896,9.21025754 C0.531523586,8.93580136 0.762970812,8.72817017 1.00850613,8.62637041 L1.01,8.62546476 L1.06616668,8.60522932 L1.12402848,8.58746476 L1.125,8.586665 L4.30461651,7.734665 L11.426147,9.56202106 L8.24656529,10.4158287 C8.20731989,10.4259079 8.16908078,10.4390109 8.13084167,10.4551376 L8.13104293,10.4547344 C7.92559159,10.5387276 7.73062246,10.6976147 7.56768231,10.9068978 L7.473,11.037665 L7.4740347,11.0386215 C7.46598436,11.0507165 7.45692773,11.0638195 7.44887739,11.0769224 L7.40359424,11.1554141 L7.36183311,11.2361735 C7.33063805,11.2976565 7.30346816,11.3601475 7.27831085,11.4236463 C7.25617242,11.4814001 7.23604657,11.5398593 7.21793331,11.5993265 C7.2003232,11.6556692 7.18623511,11.7131205 7.17315331,11.7715798 C7.16037339,11.8298375 7.15031047,11.8882967 7.14226013,11.946756 C7.13410916,12.0093477 7.12807141,12.0728466 7.12505253,12.1353375 L6.05,11.858665 L7.12454939,12.1352367 C7.1225368,12.1715218 7.1225368,12.2067989 7.1225368,12.243084 L7.32057513,46.7426189 C7.32097764,46.7835404 7.32299023,46.8228492 7.32500281,46.863166 Z" id="形状结合" fill="url(#linearGradient-6)" fill-rule="nonzero"></path>
            <path d="M17.484731,40.2797454 L25.3046284,23.9071189 L20.9282632,25.0823517 L22.5715385,15.5575229 L14.7315153,31.724534 L19.1330378,30.5432536 L17.484731,40.2797454 L17.484731,40.2797454 Z M32.660625,3.8636536 C33.2815073,3.69734706 33.7906912,4.24464675 33.8017604,5.08323486 L34,39.5913371 C33.9989937,40.4420202 33.4968539,41.26045 32.8759715,41.4267565 L8.46231435,47.9701627 C7.84143201,48.1364693 7.32520407,47.5911854 7.32017261,46.7425181 L7.12288358,12.2434872 C7.11992044,11.8403198 7.23966923,11.4220337 7.44897802,11.0763177 C7.65828682,10.7396729 7.94608641,10.4967646 8.24596151,10.4161311 L11.4258451,9.56242423 L11.4389269,11.776821 C11.4399332,11.8826524 11.4449647,11.986468 11.453015,12.0872598 C11.4570402,12.1285845 11.4640842,12.1678933 11.4681094,12.20821 C11.4751535,12.2666693 11.4811912,12.3251286 11.4902478,12.381572 C11.4982982,12.4279362 11.5093674,12.4712767 11.518424,12.5156251 C11.528487,12.5629973 11.5365373,12.6133932 11.5486128,12.6597575 C11.5586757,12.7010821 11.5717575,12.7383751 11.583833,12.7776839 C11.5979211,12.826064 11.6110029,12.875452 11.6271036,12.9208083 C11.6391791,12.9570934 11.6552798,12.9903547 11.6683616,13.0256318 C11.6864748,13.0719961 11.7035818,13.1193683 11.7237077,13.1637167 C11.7408146,13.1979859 11.7589279,13.2302393 11.7760349,13.2645085 C11.797167,13.3048252 11.8162865,13.3461499 11.8394313,13.3854587 C11.8585508,13.41872 11.8806893,13.4489576 11.9018214,13.481211 C11.9249661,13.5164881 11.9460982,13.5527732 11.9702493,13.5860345 C11.9923877,13.616272 12.017545,13.6434858 12.041696,13.6727155 C12.0668533,13.702953 12.0910043,13.7352064 12.1181742,13.7634281 C12.1423252,13.7906419 12.1694951,13.8128161 12.1946524,13.8380141 C12.2228286,13.86422 12.2499985,13.8934496 12.279181,13.9176396 C12.3063509,13.9408218 12.3355334,13.9599722 12.3637095,13.9811385 C12.3938983,14.0033127 12.4230808,14.0275027 12.4532696,14.0466532 C12.482452,14.0658036 12.5146534,14.0809224 12.5438359,14.0970491 C12.5770435,14.1151916 12.6072323,14.1343421 12.6404399,14.1494609 C12.6726413,14.1645796 12.7048426,14.1746588 12.7380503,14.1877618 C12.7712579,14.1998568 12.8034593,14.2149756 12.8376732,14.2250547 C12.8718872,14.2351339 12.9071074,14.2411814 12.9413213,14.2482369 C12.9765416,14.2563002 13.0107555,14.2663794 13.0459757,14.271419 C13.0791834,14.2764586 13.1133973,14.2774665 13.1476112,14.2794823 C13.1858503,14.283514 13.2240895,14.2875457 13.2623286,14.2875457 C13.2965425,14.2875457 13.3317627,14.283514 13.3659767,14.2814982 C13.4062284,14.2794823 13.4454738,14.2784744 13.4857254,14.2724269 C13.521952,14.2673873 13.5591848,14.258316 13.5954113,14.2512606 C13.6316378,14.2431973 13.6678644,14.2391656 13.7040909,14.2290864 L27.2528102,10.5925168 C27.854573,10.4312499 28.4281596,9.96155991 28.8538212,9.26911997 C29.2724388,8.58675922 29.5048924,7.74413944 29.4938231,6.93175721 L29.4807413,4.71635256 L32.660625,3.8636536 Z" id="Fill-140" fill="url(#linearGradient-7)" fill-rule="nonzero"></path>
        </g>
    </g>
</svg>