<?xml version="1.0" encoding="UTF-8"?>
<svg width="50px" height="50px" viewBox="0 0 50 50" version="1.1" xmlns="http://www.w3.org/2000/svg" xmlns:xlink="http://www.w3.org/1999/xlink">
    <title>安全服务</title>
    <defs>
        <linearGradient x1="60.8635225%" y1="116.343546%" x2="58.0396523%" y2="-20.7600046%" id="linearGradient-1">
            <stop stop-color="#003B7C" offset="0%"></stop>
            <stop stop-color="#4EA2FF" offset="100%"></stop>
        </linearGradient>
        <linearGradient x1="48.4381789%" y1="84.4416419%" x2="74.8357295%" y2="46.2937786%" id="linearGradient-2">
            <stop stop-color="#003B7C" offset="0%"></stop>
            <stop stop-color="#4EA2FF" offset="100%"></stop>
        </linearGradient>
        <linearGradient x1="50%" y1="2.81229424%" x2="47.8654061%" y2="101.914432%" id="linearGradient-3">
            <stop stop-color="#C3EEFF" offset="0%"></stop>
            <stop stop-color="#25A8FF" offset="100%"></stop>
        </linearGradient>
    </defs>
    <g id="页面-1" stroke="none" stroke-width="1" fill="none" fill-rule="evenodd">
        <g id="编组-75" transform="translate(7.000000, 1.000000)">
            <path d="M15.6210778,34.4774525 L21.2638543,35.4754393 L28.3435011,36.7293141 C27.9354801,37.241081 27.5270161,37.7555066 27.1028795,38.2742832 C27.0171334,38.3791818 26.9310409,38.4839179 26.8441965,38.5888404 L26.7444566,38.7088674 C26.6440331,38.8295972 26.5425074,38.9506147 26.4397037,39.0719308 C26.4275386,39.0863218 26.4153345,39.1007042 26.4031125,39.1150905 L26.3573817,39.1678188 L26.1741565,39.3825434 L25.8784112,39.721731 L25.7212856,39.9151599 C25.689192,39.9532384 25.6570087,39.9917757 25.6247053,40.0301125 L25.5619055,40.1053013 L25.3780415,40.3165232 L25.3136077,40.3888987 L25.2348543,40.475283 L25.2093495,40.50416 L25.0910831,40.6322446 C24.9099874,40.8262476 24.7259447,41.0139238 24.5396118,41.1953105 L24.5035529,41.2299605 C24.4357443,41.2959194 24.3674038,41.3609218 24.2988275,41.4250566 C24.1967356,41.5202489 24.0966959,41.6114425 23.997402,41.6998742 C23.9722407,41.7224985 23.9472102,41.7446435 23.9221628,41.7666686 C23.8756341,41.807424 23.8290596,41.8479443 23.7824407,41.8880497 L23.6541341,41.9972854 C23.6364693,42.0121547 23.6188011,42.0269626 23.6011302,42.0417086 C23.5761106,42.0625886 23.5506554,42.0836993 23.5251978,42.1046804 L23.4101851,42.1988159 L23.2953838,42.2905359 C23.119431,42.4286309 22.9474535,42.5600862 22.7787281,42.6862071 L22.6218543,42.801283 L22.3338603,43.0123375 L22.1204253,43.1646491 C22.0608118,43.2068543 22.0014687,43.248598 21.9424019,43.289916 C21.862385,43.3458891 21.7828185,43.40112 21.7036689,43.455733 C21.6623899,43.4842156 21.62114,43.5125877 21.579991,43.5408146 C21.4392344,43.6373686 21.2997265,43.7321762 21.1608776,43.8262229 L20.8239485,44.0541276 L14.5638543,42.3933756 L14.5648543,42.391979 C15.0694395,42.053345 15.576518,41.7128484 16.1122805,41.3264389 L16.2689602,41.2124497 L16.2448543,41.229283 L16.3830164,41.1289475 C16.4741423,41.061699 16.5661898,40.9929628 16.6592816,40.9225297 L17.0363837,40.6319719 L19.6145378,38.066256 C19.615871,38.0645703 19.6172036,38.0628842 19.6185358,38.0611978 L19.619411,38.060979 L18.791859,37.3196713 L16.7345236,35.4763646 C15.9488855,35.1043783 15.399218,34.7552498 15.6210778,34.4774525 Z M17.7565336,31.1027782 L30.4800509,33.3524517 C30.317039,33.6587827 30.1529331,33.9476092 29.9888271,34.2254952 C29.4720028,35.0964601 28.9392056,35.8600997 28.3440481,36.7287671 L28.3428543,36.7284393 L28.3443763,36.7284389 L21.2638543,35.4754393 L15.6205308,34.4769055 C16.2156883,33.6082381 16.7484856,32.8456926 17.2648722,31.9748371 C17.4305098,31.6968416 17.5935217,31.4091092 17.7565336,31.1027782 Z M17.0371495,22.2367912 L32.5081814,19.6674393 L32.5027112,26.464707 L32.5006051,26.6375926 L32.4948341,26.8106423 C32.4838937,27.0830581 32.4587308,27.3587561 32.4226275,27.6377362 C32.383242,27.9468023 32.3296341,28.2586036 32.2639917,28.573687 L30.4908543,28.2594393 L32.2636635,28.573687 C32.1805835,28.9781557 32.0767501,29.3880858 31.9587119,29.8023859 L31.9588641,29.803278 C31.9533939,29.8229707 31.9479237,29.8415694 31.9424535,29.8601681 C31.8560244,30.1588409 31.7553728,30.4618898 31.6437807,30.7649388 C31.4575752,31.2714791 31.2409554,31.7780194 31.0123011,32.2703372 C30.8391146,32.6426388 30.6596922,33.0058599 30.4802697,33.3526705 L17.7567524,31.1019029 C17.9361749,30.7550924 18.1155974,30.3907772 18.2895497,30.0188038 C18.5174381,29.5272518 18.7340579,29.0196175 18.9200446,28.5141712 C19.0318555,28.2111223 19.1325071,27.9080733 19.2189362,27.6094005 L19.2353468,27.5525105 L19.2353468,27.5525105 L24.6697524,28.513283 L19.2349092,27.5515258 C19.3530655,27.1379789 19.4559052,26.7277141 19.5401463,26.3229194 C19.6061168,26.006742 19.6597248,25.6949408 19.6991102,25.3864216 C19.7352135,25.1079885 19.7592824,24.8322906 19.7713168,24.5609688 L29.7338543,26.322283 L19.7712074,24.5600935 C19.7766776,24.4441253 19.7788657,24.3281572 19.7788657,24.213283 L17.0371495,22.2367912 Z" id="形状结合" fill="#FFEAA4" fill-rule="nonzero"></path>
            <polygon id="Fill-25" fill="#858585" points="34.541235 1.65965798 28.2822348 -9.18154441e-14 29.1837234 0.0547019768 35.4427236 1.71435995"></polygon>
            <path d="M5.4819039,42.1124262 L11.7409041,43.7731783 C12.7517966,44.5740152 13.7626891,45.3748521 14.8829856,45.9951726 C16.0043762,46.6143989 17.0087045,47.1056227 18.019597,47.4524332 C18.3270221,47.5552729 18.6235068,47.6460782 18.9090511,47.7215669 L12.6500509,46.0608149 C12.3645066,45.9853262 12.0680219,45.8945209 11.7605968,45.7916812 C10.7497043,45.4459647 9.74537597,44.955835 8.62507949,44.3355146 C7.50368896,43.7162882 6.49279643,42.9143572 5.4819039,42.1124262 Z M2.68356958,39.1788686 L8.94256976,40.8385266 C9.83640006,41.8341026 10.7367946,42.8176441 11.7411229,43.7727406 L5.48212271,42.1119886 C4.47779442,41.1568921 3.57739988,40.1744446 2.68356958,39.1788686 Z M0.670974447,35.7154677 L6.92997463,37.3762197 C7.48574672,38.6157665 8.15967507,39.6616683 8.94300738,40.8388548 L2.68400719,39.1781028 C1.90067489,38.0020103 1.22674653,36.9550145 0.670974447,35.7154677 Z M0.0220995986,8.0995029 L6.28109978,9.75916087 L6.268,23.3675029 L14.583547,21.074593 L20.8425472,22.734251 L9.18336786,25.9507272 L6.267,25.1765029 L6.25921899,33.2394374 C6.25900018,33.5304519 6.2677525,33.8170903 6.28744521,34.1037286 C6.36008944,35.1892347 6.57123907,36.2526411 6.93008404,37.3762197 L0.671083851,35.7154677 C0.312238884,34.5918891 0.101089253,33.5284826 0.0277886042,32.4442895 L1.776,32.9075029 L0.0284450279,32.4440706 C0.00984635582,32.1585263 -4.14068779e-12,31.8707939 -4.14068779e-12,31.5786854 L0.0220995986,8.0995029 Z" id="形状结合" fill="url(#linearGradient-1)" fill-rule="nonzero"></path>
            <polygon id="Fill-33" fill="#FFEAA4" fill-rule="nonzero" points="20.842766 22.7338133 8.28304428 26.914029 8.28304428 10.8669329 20.8591766 5.12087086"></polygon>
            <path d="M1.2534411,7.45620765 L7.51244128,9.11586562 L6.28055276,9.75916087 L0.0215525789,8.09840886 L1.2534411,7.45620765 Z M14.6022551,0.0585311152 L20.8612553,1.71818909 L7.5128789,9.11608443 L1.25387871,7.45533242 L14.6022551,0.0585311152 Z M28.2823443,0.000765827681 L34.5413444,1.65932976 L20.8614741,1.7184079 L14.6024739,0.0576558835 L28.2823443,0.000765827681 Z" id="形状结合" fill="url(#linearGradient-2)" fill-rule="nonzero"></path>
            <path d="M9.18336786,25.9507272 L20.8425472,22.734251 L20.8589578,5.12130847 L20.7484598,5.15194158 L9.19649634,11.114457 L9.18336786,25.9507272 L9.18336786,25.9507272 Z M32.5028206,26.4649258 L32.5082908,19.6676581 L20.8425472,22.8852284 L20.8239485,44.0537994 C21.6083749,43.5231902 22.4004595,42.992581 23.2953838,42.2913017 C24.1903082,41.580176 25.0928908,40.7049444 25.8784112,39.7214028 C26.7733355,38.7061341 27.5588559,37.7127462 28.3443763,36.7292047 C29.1288026,35.5837453 29.8049191,34.6198965 30.4799415,33.3529987 C31.0389957,32.2698996 31.6035201,31.0336349 31.9426723,29.8597305 C32.2807305,28.6869201 32.5017265,27.5447428 32.5028206,26.4649258 L32.5028206,26.4649258 Z M34.5410162,1.65976738 L35.4425048,1.71446936 L35.420624,25.3468174 C35.41953,26.7406237 35.1908757,28.1967904 34.6329155,29.7339159 C34.1843593,31.2513487 33.5082429,32.8300478 32.7227225,34.2785561 C31.9372021,35.7369108 31.0335255,37.3703119 30.0281031,38.7280149 C29.0150225,40.2487299 28.003036,41.4477972 26.9965196,42.6545228 C25.984533,43.8612484 24.9714524,44.9082443 23.9660301,45.8108269 C22.9540435,46.7068453 22.1696172,47.3884319 21.3840968,47.7560292 L21.0471326,48 L20.7101684,47.9420159 C19.9257421,48.0065642 19.0308177,47.7888504 18.0199252,47.4518862 C17.0090327,47.1050757 16.0047044,46.6149459 14.8833138,45.9946255 C13.7630174,45.3753992 12.7521248,44.5734682 11.7412323,43.7726312 C10.736904,42.8175347 9.83650947,41.8339932 8.94267917,40.8384172 C8.15934686,39.6612307 7.48651254,38.6153289 6.92964642,37.3757821 C6.47671405,35.9568128 6.25790615,34.633025 6.2589961,33.2392186 L6.28088098,9.75894206 L7.51276949,9.11564682 L20.8611459,1.71884551 L34.5410162,1.65976738 Z" id="Fill-49" fill="url(#linearGradient-3)" fill-rule="nonzero"></path>
        </g>
    </g>
</svg>