<?xml version="1.0" encoding="UTF-8"?>
<svg width="50px" height="50px" viewBox="0 0 50 50" version="1.1" xmlns="http://www.w3.org/2000/svg" xmlns:xlink="http://www.w3.org/1999/xlink">
    <title>安全服务-灰</title>
    <defs>
        <linearGradient x1="54.1653537%" y1="100%" x2="76.4122229%" y2="-24.9807565%" id="linearGradient-1">
            <stop stop-color="#5F5F5F" offset="0%"></stop>
            <stop stop-color="#B8B8B8" offset="100%"></stop>
        </linearGradient>
        <linearGradient x1="39.9282694%" y1="84.2766403%" x2="84.327822%" y2="46.1270701%" id="linearGradient-2">
            <stop stop-color="#5F5F5F" offset="0%"></stop>
            <stop stop-color="#B8B8B8" offset="100%"></stop>
        </linearGradient>
        <linearGradient x1="67.1250633%" y1="0%" x2="40.7557073%" y2="95.0951313%" id="linearGradient-3">
            <stop stop-color="#E7E7E7" offset="0%"></stop>
            <stop stop-color="#AFAFAF" offset="100%"></stop>
        </linearGradient>
    </defs>
    <g id="页面-1" stroke="none" stroke-width="1" fill="none" fill-rule="evenodd">
        <g id="编组-74" transform="translate(7.000000, 1.000000)">
            <path d="M25.3442181,40.779522 L25.0049933,41.1182416 L24.9255339,41.1952352 L24.7834314,41.3298443 L24.7192862,41.389588 L24.6896239,41.4154393 L24.6658461,41.438283 L24.6509756,41.4525292 L24.6509756,41.4525292 L24.3740051,41.7007275 C24.1380744,41.9073913 23.8995006,42.104859 23.6613306,42.2911923 C23.012326,42.7923406 22.416384,43.2063099 21.8384652,43.5953166 L21.1513696,44.0541276 L14.7936239,42.392938 C15.0208093,42.2423981 15.2493168,42.0911528 15.4806495,41.9357609 L15.6506842,41.8211623 C15.8333466,41.6974719 16.0180698,41.570668 16.2059608,41.4388731 L16.2748461,41.389283 L16.5624588,41.1852918 C16.8029628,41.0117212 17.0495052,40.8285059 17.3042517,40.6319719 L19.9229429,38.066256 C19.9242971,38.0645703 19.9256507,38.0628842 19.9270038,38.0611978 L19.9278928,38.060979 L16.9969039,35.4760189 C16.1993087,35.104162 15.6414142,34.7551638 15.8666926,34.4774525 L25.8618461,36.218283 L15.866137,34.4769055 C16.4706524,33.6082381 17.0118269,32.8456926 17.5363329,31.9748371 C17.7045749,31.6968416 17.8701498,31.4091092 18.0357248,31.1027782 L30.9592977,33.3524517 C30.7937227,33.6587827 30.6270365,33.9476092 30.4603503,34.2254952 C29.9353998,35.0964601 29.3942252,35.8600997 28.7897099,36.7287671 L28.7900433,36.7284389 L28.2516251,37.3928097 L27.7408461,38.016283 L27.9937065,37.7096444 C27.8268611,37.9139023 27.658494,38.1186848 27.4876198,38.3241196 C27.416507,38.4096068 27.3445824,38.4956701 27.2721442,38.581859 C27.114169,38.7698194 26.9540378,38.9580441 26.7907397,39.1469506 L26.7844704,39.1526713 L26.7718066,39.1678188 C26.6381407,39.322422 26.502116,39.4777993 26.3637326,39.6332995 L26.3250605,39.6771903 L26.2853051,39.721731 L26.1257089,39.9151599 L26.0928461,39.952979 L26.0758791,39.9734622 L26.0258981,40.0321125 L26.0598461,39.990979 L25.9638229,40.1053013 L25.8065322,40.2836471 L25.7224044,40.3770347 C25.6902041,40.4124976 25.6578733,40.4477846 25.6254189,40.4828926 L25.8065322,40.2836471 C25.6552415,40.4529284 25.5008895,40.618331 25.3442181,40.779522 Z M33.0193171,19.6674393 L33.0137609,26.464707 L20.090188,24.2128454 L17.3050296,22.2367912 L33.0193171,19.6674393 Z M32.771288,28.573687 C32.7148082,28.8433328 32.6491078,29.1154059 32.5760589,29.3895829 L32.4613628,29.803278 C32.4558065,29.8229707 32.4502503,29.8415694 32.4446941,29.8601681 C32.3569061,30.1588409 32.2546718,30.4618898 32.1413252,30.7649388 C32.0151623,31.1026323 31.8753928,31.4403258 31.7273919,31.7738053 L31.4995833,32.2706654 C31.3240071,32.6426388 31.1417635,33.0058599 30.9595199,33.3526705 L18.0359471,31.1019029 C18.2181907,30.7550924 18.4004343,30.3907772 18.5771216,30.0188038 L18.5763438,30.0184756 C18.8085932,29.5272518 19.028619,29.0196175 19.2175301,28.5141712 C19.331099,28.2111223 19.4333332,27.9080733 19.5211212,27.6094005 C19.5266775,27.5908019 19.5322337,27.5711092 19.5377899,27.5525105 L25.0569471,28.513283 L19.5373454,27.5515258 C19.6573594,27.1379789 19.7618161,26.7277141 19.8473817,26.3229194 C19.9143896,26.006742 19.9688404,25.6949408 20.0088451,25.3864216 C20.0455161,25.1079885 20.0699634,24.8322906 20.0821871,24.5609688 L32.0166239,26.6374393 L20.0820759,24.5600935 C20.0876321,24.4441253 20.0898546,24.3281572 20.0898546,24.213283 L33.0134275,26.4651446 C33.0134275,26.5789247 33.011205,26.6959869 33.0056488,26.8108611 C32.9946475,27.0830581 32.969089,27.3587561 32.932418,27.6377362 C32.8924133,27.9468023 32.8379625,28.2586036 32.771288,28.573687 Z" id="形状结合" fill="#949494" fill-rule="nonzero"></path>
            <polygon id="Fill-25" fill="#858585" points="35.0843371 1.65965798 28.7269248 -1.17017507e-13 29.6425877 0.0547019768 36 1.71435995"></polygon>
            <path d="M15.1169952,45.9951726 C16.2560177,46.6143989 17.2761373,47.1056227 18.3029244,47.4524332 C18.6151833,47.5552729 18.9163297,47.6460782 19.2063637,47.7215669 L12.8489514,46.0608149 C12.5589174,45.9853262 12.257771,45.8945209 11.9455121,45.7916812 C10.918725,45.4459647 9.89860539,44.955835 8.76069416,44.3355146 C7.62167168,43.7162882 6.59488459,42.9143572 5.56809749,42.1124262 C4.5482001,41.1568921 3.63364839,40.1744446 2.72576413,39.1788686 L9.08317642,40.8385266 C9.99106068,41.8341026 10.9056124,42.8176441 11.925732,43.7727406 C12.9522969,44.5740152 13.979084,45.3748521 15.1169952,45.9951726 Z M7.03893667,37.3762197 C7.60344732,38.6157665 8.28797205,39.6616683 9.08362092,40.8388548 L2.72620863,39.1781028 C1.93055976,38.0020103 1.24603503,36.9550145 0.681524376,35.7154677 C0.317148308,34.5918891 0.102678709,33.5284826 0.0282255326,32.4442895 C0.010001173,32.1585263 -4.34008385e-12,31.8707939 -4.34008385e-12,31.5786854 L0.0224470771,8.0995029 L6.37985937,9.75916087 L6.366,23.3675029 L14.8128484,21.074593 L21.1702607,22.734251 L9.32776066,25.9507272 L6.365,25.1765029 L6.35763454,33.2394374 C6.35741229,33.5304519 6.36630222,33.8170903 6.38630457,34.1037286 C6.460091,35.1892347 6.6745606,36.2526411 7.03904779,37.3762197 L6.472,37.2275029 L7.03893667,37.3762197 Z" id="形状结合" fill="url(#linearGradient-1)" fill-rule="nonzero"></path>
            <polygon id="Fill-33" fill="#949494" fill-rule="nonzero" points="21.170483 22.7338133 8.41328103 26.914029 8.41328103 10.8669329 21.1871516 5.12087086"></polygon>
            <path d="M1.27314932,7.45620765 L7.63056161,9.11586562 L6.37930375,9.75916087 L0.0218914564,8.09840886 L1.27314932,7.45620765 Z M14.8318506,0.0585311152 L21.1892629,1.71818909 L7.63100611,9.11608443 L1.27359382,7.45533242 L14.8318506,0.0585311152 Z M28.7270359,0.000765827682 L35.0844482,1.65932976 L21.1894852,1.7184079 L14.8320729,0.0576558835 L28.7270359,0.000765827682 Z" id="形状结合" fill="url(#linearGradient-2)" fill-rule="nonzero"></path>
            <path d="M9.32776066,25.9507272 L21.1702607,22.734251 L21.1869293,5.12130847 L21.0746939,5.15194158 L9.34109556,11.114457 L9.32776066,25.9507272 L9.32776066,25.9507272 Z M33.013872,26.4649258 L33.0194282,19.6676581 L21.1702607,22.8852284 L21.1513696,44.0537994 C21.9481297,43.5231902 22.7526685,42.992581 23.661664,42.2913017 C24.5706595,41.580176 25.4874337,40.7049444 26.2853051,39.7214028 C27.1943006,38.7061341 27.9921719,37.7127462 28.7900433,36.7292047 C29.5868034,35.5837453 30.2735506,34.6198965 30.9591866,33.3529987 C31.5270309,32.2698996 32.1004315,31.0336349 32.4449164,29.8597305 C32.78829,28.6869201 33.0127608,27.5447428 33.013872,26.4649258 L33.013872,26.4649258 Z M35.0841148,1.65976738 L35.9997778,1.71446936 L35.9775529,25.3468174 C35.9764417,26.7406237 35.7441922,28.1967904 35.1774591,29.7339159 C34.7218501,31.2513487 34.0351029,32.8300478 33.2372315,34.2785561 C32.4393602,35.7369108 31.5214747,37.3703119 30.5002439,38.7280149 C29.4712343,40.2487299 28.4433359,41.4477972 27.4209938,42.6545228 C26.3930955,43.8612484 25.3640859,44.9082443 24.342855,45.8108269 C23.3149567,46.7068453 22.5181966,47.3884319 21.7203252,47.7560292 L21.3780629,48 L21.0358005,47.9420159 C20.2390404,48.0065642 19.3300449,47.7888504 18.3032578,47.4518862 C17.2764707,47.1050757 16.2563511,46.6149459 15.1173286,45.9946255 C13.9794173,45.3753992 12.9526302,44.5734682 11.9258432,43.7726312 C10.9057235,42.8175347 9.9911718,41.8339932 9.08328755,40.8384172 C8.28763867,39.6612307 7.60422519,38.6153289 7.03860329,37.3757821 C6.57854934,35.9568128 6.35630105,34.633025 6.35740814,33.2392186 L6.37963712,9.75894206 L7.63089498,9.11564682 L21.1891518,1.71884551 L35.0841148,1.65976738 Z" id="Fill-49" fill="url(#linearGradient-3)" fill-rule="nonzero"></path>
        </g>
    </g>
</svg>