<?xml version="1.0" encoding="UTF-8"?>
<svg width="50px" height="51px" viewBox="0 0 50 51" version="1.1" xmlns="http://www.w3.org/2000/svg" xmlns:xlink="http://www.w3.org/1999/xlink">
    <title>支撑单位</title>
    <defs>
        <linearGradient x1="89.2593652%" y1="61.6713675%" x2="74.8357295%" y2="41.8410556%" id="linearGradient-1">
            <stop stop-color="#003B7C" offset="0%"></stop>
            <stop stop-color="#4EA2FF" offset="100%"></stop>
        </linearGradient>
        <linearGradient x1="89.2593652%" y1="55.5054799%" x2="44.6972095%" y2="36.2707571%" id="linearGradient-2">
            <stop stop-color="#003B7C" offset="0%"></stop>
            <stop stop-color="#4EA2FF" offset="100%"></stop>
        </linearGradient>
        <linearGradient x1="64.4893978%" y1="116.343546%" x2="59.1660872%" y2="3.62211802%" id="linearGradient-3">
            <stop stop-color="#003B7C" offset="0%"></stop>
            <stop stop-color="#4EA2FF" offset="100%"></stop>
        </linearGradient>
        <linearGradient x1="70.2651897%" y1="116.343546%" x2="62.8198907%" y2="3.62211802%" id="linearGradient-4">
            <stop stop-color="#003B7C" offset="0%"></stop>
            <stop stop-color="#4EA2FF" offset="100%"></stop>
        </linearGradient>
        <linearGradient x1="30.9075239%" y1="-76.6708181%" x2="0%" y2="95.0282882%" id="linearGradient-5">
            <stop stop-color="#C3EEFF" offset="0%"></stop>
            <stop stop-color="#25A8FF" offset="100%"></stop>
        </linearGradient>
        <linearGradient x1="48.6497232%" y1="100%" x2="67.3905751%" y2="-48.0631561%" id="linearGradient-6">
            <stop stop-color="#003B7C" offset="0%"></stop>
            <stop stop-color="#4EA2FF" offset="100%"></stop>
        </linearGradient>
        <linearGradient x1="50%" y1="2.81229424%" x2="19.1618506%" y2="171.599105%" id="linearGradient-7">
            <stop stop-color="#C3EEFF" offset="0%"></stop>
            <stop stop-color="#25A8FF" offset="100%"></stop>
        </linearGradient>
        <linearGradient x1="69.448526%" y1="-43.9626823%" x2="40.3119577%" y2="100%" id="linearGradient-8">
            <stop stop-color="#C3EEFF" offset="0%"></stop>
            <stop stop-color="#25A8FF" offset="100%"></stop>
        </linearGradient>
    </defs>
    <g id="页面-1" stroke="none" stroke-width="1" fill="none" fill-rule="evenodd">
        <g id="编组-97" transform="translate(3.000000, 0.000000)">
            <path d="M36.3098103,38.8212754 C36.2178784,38.8211431 36.1287004,38.8118809 36.0421454,38.7973262 L28.5393957,36.7900911 C28.6259507,36.8046459 28.7164401,36.8125848 28.8069295,36.813908 C28.9054186,36.8153635 29.0050881,36.8074245 29.1073804,36.7915466 L36.4263957,38.7495421 L29.1073804,36.7914143 C29.1808211,36.7795058 29.2555732,36.7623047 29.3303253,36.7424573 L36.833075,38.7496924 C36.7583229,38.7708629 36.6835708,38.7867409 36.6101301,38.7986493 C36.5078378,38.8146596 36.4081683,38.8225985 36.3098103,38.8212754 Z M39.1384558,36.0047951 L39.0812424,36.1916849 L39.0812424,36.1916849 L39.0183279,36.376471 L38.9417726,36.5732912 L38.8585945,36.7636279 C38.7890881,36.9157914 38.7117131,37.0613391 38.6304039,37.200271 L34.6623957,36.1375421 L38.6302727,37.2008002 C38.5428434,37.3481122 38.4495854,37.4883672 38.3504988,37.6199972 L38.1978909,37.811439 C37.9919947,38.0522543 37.766427,38.2586674 37.5277449,38.420093 C37.3500447,38.5395744 37.1664431,38.6361652 36.9775957,38.7036464 L36.9758499,38.7035421 L36.9057288,38.7283895 L36.8335996,38.74956 L36.8335996,38.74956 L29.3308499,36.742325 L29.4034709,36.7206582 L29.4034709,36.7206582 L29.474846,36.6964113 C29.6636934,36.6289301 29.847295,36.5323394 30.0256509,36.4132549 C30.2636773,36.2514323 30.489245,36.0450192 30.6951412,35.8028808 C30.8508091,35.619623 30.996379,35.4145331 31.127523,35.192242 C31.2089635,35.0527809 31.2863384,34.9085564 31.3558448,34.7563929 C31.4132858,34.6312218 31.4670549,34.5015521 31.5155782,34.369236 C31.5596426,34.2476375 31.6002972,34.1232604 31.6357061,33.9962369 C31.6708527,33.8741092 31.7010158,33.7497321 31.7272446,33.6240318 L31.7263266,33.6237671 C31.7525554,33.4940974 31.7748499,33.3631045 31.7918986,33.2307884 L36.7763957,34.5645421 L31.7916364,33.2302591 C31.8099965,33.0860346 31.8231109,32.9391637 31.8296681,32.7909697 L34.9203957,33.6165421 L31.8288813,32.7903081 C31.8315041,32.7228269 31.834127,32.6526994 31.834127,32.583895 L31.8311763,32.4054337 L31.8311763,32.4054337 L31.8217995,32.2320665 C31.733933,30.9168446 31.1464078,30.0118026 30.2992173,29.7855421 L37.801967,31.7927771 C38.6008527,32.0064676 39.170463,32.8256145 39.305308,34.0239419 L39.3250738,34.2391693 C39.331631,34.3542843 39.3355653,34.4707224 39.3355653,34.5911301 C39.3355653,34.6612576 39.3342538,34.730062 39.331631,34.7988663 L39.3177297,35.0195861 L39.3177297,35.0195861 L39.2933957,35.2385421 L39.2946483,35.2393466 L39.2657967,35.4356706 L39.2657967,35.4356706 L39.2286829,35.6312668 C39.2037655,35.7569671 39.172291,35.8813442 39.1381935,36.0043982 L32.5433957,34.2385421 L39.1384558,36.0047951 Z" id="形状结合" fill="#FFEAA4" fill-rule="nonzero"></path>
            <path d="M14.2397134,32.6552134 C14.3643003,32.6816766 14.4888871,32.7054935 14.6121625,32.7279872 L14.6207134,32.7292493 L14.9801526,32.7852925 C15.3467821,32.834849 15.7089855,32.8618911 16.0601236,32.8658606 L18.2037134,33.4384303 L16.0595991,32.865199 C16.4517197,32.8704917 16.8281031,32.8440284 17.179569,32.7884557 L24.6823187,34.7956907 C24.3295413,34.8512635 23.953158,34.8777267 23.5623488,34.8737572 L23.5577134,34.8722493 L23.2088459,34.8620142 C22.8512531,34.842911 22.4838859,34.799991 22.1150433,34.7354869 L22.1037134,34.7322493 L21.9291794,34.7013163 C21.8670499,34.6892424 21.8047565,34.6763416 21.7424631,34.6624484 L14.2397134,32.6552134 Z M18.1007247,32.5514776 L25.6034744,34.5587126 C25.4775761,34.6037001 25.3529893,34.6433949 25.2310253,34.6777971 C25.0566038,34.7254309 24.8730022,34.7651257 24.6828433,34.7955584 L17.1800936,32.7883234 C17.3702525,32.7578907 17.5538541,32.7181958 17.7282757,32.6705621 C17.851551,32.6361599 17.9748264,32.596465 18.1007247,32.5514776 Z M29.8015258,24.5164509 L37.3042755,26.5236859 C37.1232967,26.5527954 36.9396951,26.5938134 36.7534706,26.6454167 C36.5302634,26.7073406 36.3073186,26.7695292 36.0843737,26.8489188 C35.8746089,26.9233466 35.6651063,27.01266 35.456157,27.1319306 L35.2465837,27.2614303 L35.2479371,27.2620097 C35.2125283,27.2845034 35.1784308,27.3083203 35.1443334,27.3334604 L35.1449891,27.3338573 C34.7358197,27.6792023 34.3318142,28.0305015 33.9324191,28.4011519 L33.5338847,28.7784843 C31.8722899,30.2710098 29.9169325,31.9990579 28.0940306,33.2243049 L28.0927134,33.2242493 L27.767152,33.4392245 C27.0078589,33.9278378 26.2761777,34.3194521 25.6037367,34.5591096 L18.100987,32.5505514 C18.869491,32.2779802 19.7153699,31.8056118 20.591412,31.2168052 C22.4141828,29.9918229 24.3695402,28.2624516 26.0324465,26.7712493 L26.0327134,26.7704303 L26.4296694,26.3939169 C26.8290645,26.0232665 27.23307,25.6719672 27.6422394,25.3266223 L32.8047134,26.7074303 L27.6415837,25.3262253 L27.6932216,25.2895076 L27.7446629,25.25451 C27.9541655,25.1135934 28.163668,25.0076578 28.3726174,24.9216317 L28.581624,24.8416838 C28.8045689,24.7622941 29.0275137,24.7001056 29.2504586,24.637917 L29.4857134,24.7004303 L29.2507209,24.6381817 C29.4369454,24.5852552 29.620547,24.5455604 29.8015258,24.5164509 Z M30.5536368,24.4584964 C30.7062447,24.4602606 30.8574975,24.4702578 31.0062245,24.488096 L31.2275859,24.5212142 C31.3429926,24.5410617 31.4583994,24.5662017 31.5711833,24.5966344 L39.0726215,26.6038695 C38.9598376,26.5734368 38.8457423,26.5482967 38.7303356,26.5284493 L38.7217209,26.5264304 L38.5089742,26.4953801 C38.3602472,26.4776399 38.2089944,26.4679367 38.055993,26.4670546 C37.8111471,26.4644083 37.5593506,26.4829325 37.3049312,26.5239505 L29.8021815,24.5167155 C30.0579123,24.4756975 30.3083974,24.4571733 30.5536368,24.4584964 Z" id="形状结合" fill="url(#linearGradient-1)" fill-rule="nonzero"></path>
            <path d="M35.2198723,44.0350585 L27.7171226,42.0278234 C27.2725444,41.8994768 26.7361653,41.6824784 26.1092969,41.4773885 C25.0653904,41.143952 23.9283717,40.7589122 22.7861073,40.453262 L30.2875455,42.460497 C31.42981,42.7661472 32.5681401,43.151187 33.6120466,43.4859467 C34.238915,43.6897135 34.7752941,43.9067119 35.2198723,44.0350585" id="Fill-47" fill="url(#linearGradient-2)" fill-rule="nonzero"></path>
            <path d="M19.038929,5.5723597 L26.5429902,7.5809179 C26.6033164,7.61532009 26.6623312,7.65369175 26.7305261,7.70661819 C26.7856066,7.74763617 26.8380642,7.7939468 26.8892104,7.8415806 C26.9036362,7.85613536 26.9167506,7.86804381 26.9311765,7.88259858 C26.9849455,7.93552502 27.0360917,7.99242093 27.0937951,8.06254846 C27.1410069,8.12076754 27.1855959,8.18427926 27.2288734,8.2504373 C27.2406764,8.26896156 27.2524794,8.28616265 27.2629709,8.30336374 C27.3088713,8.37613759 27.3508374,8.44891144 27.391492,8.52697793 C27.5532363,8.84453654 27.6548729,9.20436278 27.7024734,9.58578228 L27.7251224,9.81653051 C27.7356139,9.97795614 27.7369254,10.1420281 27.7303682,10.3074232 L27.7171226,10.5184012 L27.694697,10.730967 C27.6776483,10.8632831 27.6553538,10.9955992 27.6278136,11.1279153 L25.4739037,10.5493597 L27.6275513,11.1285768 C27.6013225,11.2582466 27.5698479,11.3892395 27.5331276,11.5175861 L20.0303779,9.51035109 L20.0815663,9.31617849 L20.1250639,9.12068021 C20.1526041,8.98836412 20.1748986,8.85604804 20.1919473,8.72373195 L23.8829037,9.7083597 L20.191685,8.723335 C20.2100452,8.58043363 20.2218482,8.44017857 20.2284054,8.29992352 C20.2341757,8.13479304 20.2328642,7.9707211 20.2223727,7.80929547 C20.1903736,7.34274895 20.0828355,6.90081321 19.8887423,6.51974288 C19.8493991,6.44167639 19.8048101,6.36757938 19.7615326,6.2961287 C19.7497297,6.2789276 19.7379267,6.26040335 19.7261237,6.24320226 C19.6828462,6.17704422 19.6369458,6.1135325 19.5897339,6.05531342 C19.533342,5.98386273 19.4808844,5.92828997 19.4284268,5.87536354 L19.3864607,5.83434555 C19.3353145,5.78671176 19.2828569,5.74040113 19.2277764,5.69805998 C19.1595815,5.64645671 19.1005667,5.60808504 19.038929,5.5723597 Z M24.5164215,14.3402852 L24.1869037,14.2513597 L24.515897,14.3400206 C24.4870453,14.3347279 24.459505,14.3294353 24.4306534,14.3228195 L16.9279037,12.3155845 C16.9567554,12.3222003 16.985607,12.3274929 17.0144587,12.3327855 L17.0159037,12.3323597 L17.0626869,12.3406584 C17.078916,12.3429739 17.0949812,12.3449586 17.1107184,12.3462818 L18.7459037,12.7833597 L17.1109807,12.3458848 C17.1175379,12.347208 17.1240951,12.3485312 17.1306523,12.3498543 C17.1739299,12.3538238 17.2172074,12.355147 17.2617964,12.3564701 L20.9199037,13.3343597 L17.2608783,12.3562055 C17.2857957,12.3562055 17.3094016,12.3562055 17.334319,12.3548823 L17.3369037,12.3553597 L17.3626461,12.3542208 C17.3721541,12.35389 17.381662,12.3535592 17.3908421,12.3528976 C17.4511683,12.3502513 17.512806,12.3423123 17.5731323,12.3330502 L20.8819037,13.2173597 L17.5739191,12.3330502 L17.5988365,12.3290807 L17.6009348,12.3284191 C17.6573267,12.319157 17.7137187,12.3059254 17.7701106,12.2913706 C17.783225,12.2874011 17.7963394,12.2821085 17.8094538,12.2768158 L17.8632229,12.2609379 C17.8789601,12.2556453 17.893386,12.2503526 17.9091233,12.2437368 L17.908861,12.2437368 C17.9573843,12.2265357 18.007219,12.2080115 18.0557423,12.1855177 L18.0660043,12.1815813 L18.076463,12.1770495 C18.1459694,12.1452936 18.2154757,12.106922 18.284982,12.0672272 C18.3020308,12.0566419 18.3190795,12.0460566 18.3361282,12.0354713 C18.3636685,12.0182702 18.3898973,12.0010691 18.4174375,11.9825449 C18.4566496,11.9563463 18.4946813,11.9285599 18.5340245,11.8994504 C18.612711,11.8399081 18.6795944,11.781689 18.7464779,11.7208236 L18.7963126,11.6731898 C18.863196,11.6096781 18.9287681,11.5421969 18.9930286,11.4694231 L19.0186017,11.439652 L19.04448,11.4093597 L19.2045105,11.2098777 C19.3080657,11.072269 19.4048209,10.9270153 19.4939988,10.7752929 C19.5809473,10.6277604 19.6609452,10.4742738 19.7330744,10.3168176 C19.7948432,10.1815906 19.8525466,10.0439819 19.9023813,9.90504998 C19.9501177,9.77538021 19.9933953,9.64306412 20.0301156,9.51074804 L27.5328653,11.5179831 C27.4948335,11.6502992 27.4528674,11.7826153 27.4056556,11.912285 C27.3539848,12.0512169 27.2975929,12.1888256 27.2359552,12.3237881 C27.1623834,12.4815088 27.0823856,12.6349955 26.9958305,12.7831895 L25.4039037,12.3553597 L26.9954371,12.7838511 C26.8616702,13.0101116 26.712166,13.2244637 26.5469245,13.4176451 L26.54548,13.4173597 L26.5213514,13.4473832 C26.512827,13.4571415 26.5043027,13.4667344 26.4957783,13.4766581 C26.4315178,13.549432 26.3646343,13.6169132 26.2990623,13.6804249 C26.2820136,13.6963028 26.2649648,13.7121808 26.2479161,13.7280587 C26.1823441,13.7889241 26.1154607,13.8471432 26.0367742,13.9080086 C25.9987425,13.9357949 25.9593993,13.9635813 25.9200561,13.9900445 C25.892647,14.0083042 25.8651067,14.0255052 25.8375665,14.0427063 L25.7877317,14.0744622 C25.7182254,14.1154802 25.6487191,14.1525287 25.5792127,14.1856077 C25.5726555,14.188254 25.5647869,14.1909004 25.5582297,14.1935467 L25.4855431,14.224674 L25.411873,14.252295 L25.3659725,14.268173 L25.3135149,14.285374 L25.2715488,14.2986057 C25.2164684,14.3131604 25.1600764,14.326392 25.1036845,14.3369773 L25.1010616,14.3369773 L22.8219037,13.7263597 L25.1015862,14.3376389 L25.0886357,14.3389621 L25.0886357,14.3389621 L25.0771934,14.3402852 C25.0155557,14.3508705 24.953918,14.3574863 24.8922803,14.3601326 C24.8739202,14.3614558 24.85556,14.362779 24.8371998,14.362779 L20.5569037,13.2173597 L24.8370687,14.3634405 L24.763628,14.3634405 C24.7199571,14.362382 24.6766795,14.3610588 24.633402,14.3570894 C24.6268448,14.3557662 24.6202876,14.354443 24.6137304,14.354443 C24.5806821,14.3508705 24.5478961,14.3455779 24.5164215,14.3402852 Z" id="形状结合" fill="#FFEAA4" fill-rule="nonzero"></path>
            <path d="M12.6615262,5.35483205 L20.1642759,7.36206709 C20.0187061,7.67697938 19.887562,7.99718431 19.768221,8.32400505 L19.2825749,8.194 L19.7675652,8.32400505 C19.6560928,8.63097837 19.5551119,8.94324434 19.465934,9.25815663 L18.2935749,8.944 L19.4655406,9.25802431 C19.4069629,9.46620162 19.353631,9.67555507 19.3051563,9.88569262 L19.2355749,10.201 L19.2366942,10.2017026 C19.1698108,10.5285234 19.1147303,10.8566673 19.0727642,11.1861343 L19.0715749,11.186 L19.0316675,11.5473376 C19.019816,11.6678433 19.0096645,11.7882999 19.0011644,11.9085116 L18.9801765,12.2678183 C18.9631278,12.7018151 18.9683736,13.1318424 18.9959138,13.5539307 C19.0663236,14.6014037 19.2813868,15.60434 19.6497616,16.500105 L19.7945809,16.8308709 C20.0190995,17.2733359 20.274673,17.6768471 20.5579441,18.0319199 L20.7755382,18.2889942 C25.6034744,21.7519708 27.4687358,23.2341757 28.6293605,25.7653824 C29.1564283,26.8564609 29.5183858,28.4865951 29.7806739,30.1445156 L22.2779242,28.1372806 C22.0156361,26.47936 21.6536786,24.8492258 21.1264796,23.7576181 L21.1265749,23.757 L21.0076227,23.5182394 C19.674754,21.0130895 15.196573,17.7248467 12.9453219,16.0764363 L13.1475749,16.133 L13.0557085,16.0245579 C12.7728151,15.6691886 12.5166121,15.2650424 12.2931427,14.8236359 L12.2923558,14.8236359 C11.8347932,13.8474207 11.5725242,12.7257404 11.4937558,11.5471715 L11.4931641,11.5466957 C11.4643124,11.1246074 11.4603781,10.6945801 11.4787383,10.2605833 L11.4778203,10.2609803 C11.4935575,9.90108049 11.5237207,9.53985757 11.5696211,9.17863466 C11.6119806,8.84943223 11.6670611,8.52128834 11.7339445,8.1944676 L11.7332888,8.19420297 C11.7988608,7.87796752 11.8749244,7.56305523 11.9641023,7.25078927 L11.9631843,7.25092158 C12.0523622,6.93600929 12.1533431,6.62374333 12.2648156,6.31677001 C12.3848123,5.98994927 12.5172678,5.66842118 12.6615262,5.35483205 Z M17.6034265,0.274820513 L25.1061762,2.28205556 L25.0563415,2.29925665 C25.0222441,2.31248826 24.9881466,2.32571987 24.9540492,2.33895147 C24.8570026,2.37732314 24.7586446,2.41834113 24.661598,2.4633286 C24.628812,2.47788337 24.5947145,2.49243814 24.5619285,2.50831607 C24.4360303,2.56785831 24.3114434,2.63269319 24.1330876,2.73589974 C24.024238,2.79941146 23.9153885,2.8655695 23.8078504,2.93702019 L23.7868673,2.95091338 L23.7660154,2.96480657 C23.743721,2.97936134 23.7214265,2.99391611 23.699132,3.00979404 C23.5981511,3.07992156 23.4958587,3.15269541 23.3948778,3.2307619 C23.3712719,3.24796299 23.3463546,3.26516409 23.3214372,3.2850115 C23.1994732,3.38160224 23.0775093,3.48348563 22.9555454,3.5893385 C22.9253822,3.61712488 22.8952191,3.64491126 22.865056,3.67269763 C22.7719437,3.75737993 22.67752,3.84603171 22.5844078,3.93865297 L22.4794925,4.04318268 C22.3601515,4.16491348 22.2408104,4.2892906 22.1240922,4.42292985 L21.9445889,4.61746758 L21.7701345,4.81670252 C21.3819482,5.27319303 21.0331051,5.76937835 20.7222938,6.29599638 C20.5199385,6.63948894 20.3324026,6.99674238 20.1645382,7.36193478 L12.6617885,5.35469974 C12.8309643,4.98818417 13.0158774,4.6322539 13.2191506,4.28823207 L13.2195749,4.28756249 L13.4106052,3.97651654 C13.6714664,3.56525697 13.9568358,3.17465988 14.2673848,2.80946748 L14.2675749,2.80856249 L14.442331,2.61023253 C14.5013458,2.54457067 14.5610163,2.47973579 14.6213425,2.41556249 C14.7393722,2.28205556 14.8574018,2.15767843 14.9767429,2.03594763 C15.0121517,2.00022229 15.0475606,1.96582011 15.0816581,1.93141793 C15.1747703,1.83879666 15.2678826,1.75014489 15.3623063,1.66546259 C15.3924694,1.63767621 15.4226325,1.60856667 15.4541071,1.58210346 C15.5747596,1.47492742 15.6967236,1.37304404 15.8186875,1.27777645 C15.8436049,1.25792904 15.8672108,1.24072795 15.8934396,1.2222037 C15.9931091,1.14546037 16.0954014,1.07268652 16.1963823,1.00255899 L16.229824,0.979569073 L16.3051007,0.929785145 C16.4139502,0.858334458 16.5214883,0.790853254 16.6303379,0.728664693 C16.8086937,0.625458144 16.934592,0.560623262 17.0591788,0.501081022 C17.0919648,0.485203092 17.1260623,0.470648322 17.1588483,0.456093553 C17.2558949,0.411106083 17.3542529,0.370088096 17.4512995,0.331716431 C17.4853969,0.318484822 17.5194944,0.305253213 17.5549032,0.292021605 L17.6034265,0.274820513 Z M19.1730894,-1.5187851e-13 C19.2772177,0.000661580437 19.3690186,0.0072773848 19.4608194,0.0138931892 C19.4962283,0.0178626718 19.5303257,0.0218321544 19.5657346,0.0244784761 C19.6483553,0.0337406023 19.7296646,0.0456490501 19.8096625,0.0588806588 L27.3124122,2.06743886 C27.2311029,2.05288409 27.1497936,2.04097565 27.0684843,2.03303668 C27.0330754,2.0290672 26.998978,2.02509772 26.9635691,2.02112823 C26.8717682,2.01451243 26.7799674,2.00921978 26.6750522,2.00789662 L22.9185749,1.002 L26.6745276,2.0085582 L26.5945298,2.0085582 C26.4869917,2.0085582 26.3794536,2.01517401 26.270604,2.02443613 C26.2325723,2.02708246 26.1945405,2.0323751 26.1565087,2.03634458 C26.0909367,2.04428355 26.0227418,2.05354567 25.9558584,2.06413096 L25.9523425,2.063 L25.9302525,2.06823276 L25.9041876,2.07286382 L25.7900923,2.09271124 C25.6878,2.11388181 25.5855076,2.13769871 25.4307577,2.17739353 C25.3232196,2.20782623 25.2156815,2.24355158 25.106832,2.28192324 L17.6040823,0.274688197 C17.7116204,0.236316532 17.8204699,0.200591188 17.928008,0.170158488 C18.082758,0.130463662 18.1850503,0.105323605 18.2873426,0.0854761924 L18.4014379,0.0656287793 L18.4276667,0.0605015309 L18.4531087,0.0568959175 C18.5213036,0.0463106305 18.588187,0.0370485044 18.6550705,0.0291095392 C18.6917908,0.0251400566 18.7298226,0.0198474131 18.7678543,0.0172010913 C18.8767039,0.00793896524 18.9855534,0.00132316087 19.0930915,-1.5187851e-13 L19.1730894,-1.5187851e-13 Z" id="形状结合" fill="url(#linearGradient-3)" fill-rule="nonzero"></path>
            <path d="M14.2399757,32.6552134 L21.7427254,34.6624484 C21.5669924,36.3163995 21.3847022,37.9822591 21.2929014,39.486693 L13.7901517,37.4794579 C13.8819525,35.975024 14.0655542,34.3078413 14.2399757,32.6552134 Z M21.0132145,42.4809399 L21.0134335,42.4812707 C20.9360585,42.8530789 20.8468806,43.2090091 20.7485226,43.5556773 L16.4910658,42.4152134 L20.747998,43.5563389 C20.6129196,44.0366463 20.4607926,44.4997526 20.3060426,44.9655052 L20.305518,44.9752966 L20.3042066,44.995144 C20.3028952,45.0000397 20.3028952,45.0053323 20.3015837,45.010625 L17.1610658,44.1702134 L20.3010591,45.0110219 L20.2980658,45.0242134 L17.1050658,44.1702134 L20.2984363,45.0255767 C20.2973496,45.0300943 20.2950011,45.0350089 20.2936218,45.0388641 L20.2934528,45.0393376 L20.2901742,45.0484343 L20.2860658,45.0562134 L20.287289,45.0572002 L20.2714206,45.084722 L20.2465032,45.12574 L20.2454101,45.1256671 L20.2396837,45.13831 L20.2332577,45.1511447 L20.2261759,45.166758 C20.2248645,45.1707274 20.223553,45.1760201 20.2222416,45.1799896 C20.2202744,45.1835621 20.2202744,45.1888548 20.218963,45.1928242 L12.8280658,43.2152134 L20.2184384,45.1932212 L20.217127,45.2064528 C20.2158155,45.2113485 20.2158155,45.2179643 20.2158155,45.2232569 L12.7130658,43.2160219 C12.7130658,43.2107292 12.7130658,43.2041134 12.7143773,43.1988208 C12.7143773,43.1939251 12.7156887,43.1899556 12.7170002,43.1859861 C12.7175247,43.1802965 12.7188362,43.1763271 12.7201476,43.1723576 C12.7208033,43.1674619 12.7221148,43.1634924 12.7234262,43.1595229 L12.726672,43.1518155 L12.7303768,43.1443066 C12.7343112,43.1350444 12.7395569,43.1271055 12.7448027,43.1178434 L12.7686709,43.0774869 L12.7686709,43.0774869 L12.7841459,43.0493036 L12.7907031,43.0321025 L12.7907031,43.0321025 C12.7931948,43.0272068 12.7945063,43.0232374 12.7958177,43.0179447 L16.5470658,44.0212134 L12.7956866,43.0170185 L12.7976537,43.0108989 L12.7990658,43.0032134 L12.798834,43.0033899 C12.8001455,42.9980973 12.8014569,42.9928047 12.8014569,42.987512 L20.1960658,44.9652134 L12.8014569,42.9865858 C12.8027683,42.9812932 12.8027683,42.9746773 12.8040798,42.9680615 L12.8032929,42.9679292 L12.8032929,42.9586671 C12.9580429,42.4925175 13.1101699,42.0294112 13.2465597,41.5477807 L13.2457729,41.5484422 C13.3113449,41.316448 13.3728369,41.0809254 13.4290831,40.8399141 L13.5102904,40.473374 L13.5234048,40.4085392 L19.5610658,42.0232134 L13.5237982,40.4081422 L13.5237982,40.3978215 L13.5251096,40.3779741 L13.5251096,40.3779741 L13.5276014,40.3626255 L13.5302243,40.3549511 C13.532716,40.3421165 13.5353389,40.338147 13.5366503,40.3328543 L13.5442929,40.3149872 L13.5436009,40.315124 L13.5522892,40.2975921 L13.5615677,40.2815157 C13.5668134,40.2735767 13.5720592,40.2656378 13.577305,40.2563757 L13.5762558,40.2570372 L13.5859277,40.2404977 L13.5942225,40.2234289 C13.5968454,40.2181363 13.5994683,40.2115205 13.6020912,40.2049047 L13.603841,40.1983551 L13.6062878,40.1904822 L13.6082549,40.1832049 C13.6115336,40.1708995 13.6115336,40.1656068 13.612845,40.1603142 L13.6138614,40.1501258 L13.6140253,40.1301461 L13.6142929,40.1292134 L13.6525974,39.7763435 C13.7029147,39.2936967 13.7505462,38.7688782 13.7746767,38.2025653 C13.7846437,37.9682336 13.7898894,37.7274183 13.7898894,37.4799872 L21.2926391,39.4872222 C21.2926391,39.7346533 21.2860819,39.9754686 21.2769018,40.2096681 C21.2472633,40.9176915 21.1790684,41.5607476 21.1174307,42.1376458 L18.9152929,41.5482134 L21.116775,42.1373811 L21.116775,42.1474372 C21.116775,42.154053 21.1154635,42.1606688 21.1154635,42.1672846 L21.1137915,42.1754882 L21.1129718,42.1831625 L21.1085129,42.1973203 L21.1048409,42.2134629 L21.0962929,42.2302134 L21.0973657,42.2311933 C21.0921199,42.2417785 21.0855627,42.253687 21.0790055,42.2642723 L21.0777982,42.2641461 L21.0643174,42.2887508 L15.1447982,40.7051461 L21.0647108,42.28928 C21.0581536,42.2998653 21.0515964,42.3104506 21.0463506,42.322359 L20.9232929,42.2892134 L21.0458261,42.3226237 L21.0420557,42.3312242 L21.0366173,42.3462586 L21.0336297,42.3549088 C21.0323182,42.3602014 21.0310068,42.3641709 21.0310068,42.3694636 L21.0290396,42.3777995 L21.0278593,42.3852092 L21.0267118,42.3951329 L21.0265479,42.4153772 C21.022278,42.4366334 21.0171284,42.4587772 21.0132145,42.4809399 Z" id="形状结合" fill="url(#linearGradient-4)" fill-rule="nonzero"></path>
            <path d="M36.8335996,38.74956 C38.1699572,38.3777518 39.3345161,36.5742836 39.3358324,34.5908654 C39.3384504,32.6074473 38.2670038,31.4166025 36.8388453,31.8135508 C35.4946191,32.1880053 34.3379288,33.9994125 34.3366161,35.9828307 C34.3353059,37.8405485 35.3975725,39.1491546 36.8335996,38.74956 M36.7536017,26.6452844 C40.2354756,25.6767306 43.003926,28.7451407 42.9999958,33.5720316 C42.9947459,38.3989224 40.3102277,42.8592977 36.8283538,43.8278515 C36.2919747,43.9773687 35.8473965,43.9866308 35.3110174,44.0104477 L35.220528,44.0355877 C34.7746384,43.9072411 34.2382593,43.6889196 33.6113909,43.486476 C30.9321184,42.6264214 27.6338462,41.4355766 25.2247304,42.1064192 C23.7900148,42.5060138 22.006456,43.7471387 20.2150287,45.230402 C20.2150287,45.1166102 20.305518,45.0914701 20.305518,44.9657698 C20.5796091,44.1440869 20.84452,43.3250503 21.0268102,42.4160388 C21.0268102,42.2890154 21.1172996,42.2638753 21.1172996,42.138175 C21.2012317,41.3694186 21.2917211,40.484224 21.2930325,39.4865607 C21.3848334,37.9821267 21.5671236,36.3162672 21.7428566,34.6623161 C22.9965934,34.9322409 24.2490189,34.9507652 25.2312876,34.6768709 C27.6404034,34.0073515 30.9426099,31.1056597 33.5340159,28.7782197 C34.0625263,28.2648333 34.5989054,27.7951112 35.1444645,27.333328 C35.6808436,26.9443187 36.2172226,26.7948016 36.7536017,26.6452844" id="Fill-137" fill="url(#linearGradient-5)" fill-rule="nonzero"></path>
            <path d="M8.401706,40.4814453 L15.9031443,42.4886804 C15.863801,42.5971796 15.8205235,42.7003861 15.7759345,42.8035926 C15.7641316,42.8260864 15.7549515,42.8499033 15.7431485,42.8737202 L15.7398699,42.8814937 L15.7365913,42.8886719 C15.6933138,42.9826163 15.6487248,43.0752376 15.58971,43.1824136 L15.5521701,43.2508872 L15.5521701,43.2508872 L15.512763,43.3171969 L15.5139088,43.3175083 C15.4903029,43.3572032 15.4666969,43.3955748 15.443091,43.4339465 L15.4037478,43.496135 C15.3499788,43.5794942 15.2948983,43.660207 15.2371949,43.7369503 L15.2149004,43.7660599 L15.1550659,43.8418108 L15.0945102,43.915577 C15.0813958,43.9301318 15.0682814,43.9460097 15.055167,43.9605645 C15.0407411,43.9777656 15.0263153,43.9949667 15.0118895,44.0108446 C14.9515632,44.0783258 14.891237,44.1405144 14.8282878,44.2013798 C14.8164849,44.2119651 14.8046819,44.2225504 14.7915675,44.2331357 C14.7377984,44.2834158 14.6814065,44.3310496 14.6250146,44.3773602 C14.6105887,44.3892686 14.5948515,44.4025002 14.5791142,44.4130855 L14.5053457,44.4693199 L14.428763,44.5214453 L14.4301346,44.5219817 C14.4143973,44.532567 14.39866,44.5418291 14.3816113,44.5524144 C14.3684969,44.5616765 14.354071,44.5696155 14.3409566,44.5775544 C14.2832532,44.6132798 14.2255499,44.6450356 14.1678465,44.6741452 C14.1521092,44.6820841 14.1363719,44.6913463 14.1193232,44.6992852 C14.0537512,44.7297179 13.9855563,44.7588275 13.9173614,44.7826444 L13.9150008,44.7831736 L13.8933621,44.790451 L13.7838568,44.8255148 C13.7536937,44.8347769 13.724842,44.8400695 13.6946789,44.8466853 L13.6461556,44.8585938 L13.5766492,44.8705022 L13.5743471,44.8694453 L13.5067167,44.8801944 L13.4360628,44.8873064 L13.4360628,44.8873064 C13.421637,44.8886295 13.4085226,44.8886295 13.3940968,44.8886295 L13.2980993,44.890482 L13.2205932,44.887968 C13.202233,44.8866448 13.1838729,44.8853216 13.1655127,44.8839985 L5.66276303,42.8767634 C5.68112319,42.8780866 5.69948335,42.8794098 5.71784352,42.8807329 C5.74407232,42.8820561 5.76898969,42.8820561 5.79521849,42.8833792 L5.89108478,42.8806006 C5.90577291,42.8800713 5.92019875,42.8800713 5.93462459,42.8787482 C5.980525,42.8761019 6.02773685,42.8708092 6.07363726,42.8628703 L8.89876303,43.6181969 L6.07389955,42.861944 L6.10865271,42.8569822 L6.19324061,42.8394503 L6.28110711,42.8182797 C6.30995879,42.8103408 6.33881048,42.7997555 6.3689736,42.7904934 L6.3907763,42.783216 L6.41356257,42.7759386 L6.41461172,42.7754093 C6.48280662,42.7502693 6.54969007,42.7224829 6.61788496,42.690727 C6.63362225,42.6841112 6.64935953,42.6748491 6.66509681,42.6669101 C6.72411162,42.6378006 6.78050356,42.6047216 6.83820693,42.5703194 C6.85132133,42.5623804 6.86574717,42.5544415 6.88017302,42.5451793 L6.92686029,42.5143497 C6.97669502,42.4812707 7.02652975,42.4442222 7.07636448,42.4058505 C7.09210176,42.3952652 7.10783904,42.3820336 7.12357633,42.3701251 C7.17996826,42.3238145 7.23504875,42.2761807 7.29012924,42.2259006 C7.30062076,42.2153153 7.31373516,42.20473 7.32553813,42.1941447 C7.38717582,42.1332793 7.44881351,42.0697676 7.50913976,42.0036096 C7.5235656,41.9864085 7.53799145,41.9705306 7.55241729,41.9533295 C7.56553169,41.9387747 7.57864609,41.9228968 7.5917605,41.908342 C7.63215286,41.859385 7.6728075,41.8104281 7.71215071,41.7588248 C7.72001935,41.7482395 7.727888,41.7389774 7.73575664,41.7297153 C7.79214857,41.652972 7.84722906,41.5722591 7.90099811,41.4889 C7.91411251,41.4677294 7.92722691,41.4465589 7.94034132,41.4267114 C7.96394724,41.3883398 7.98886461,41.3499681 8.01115909,41.3102733 C8.03712561,41.2664767 8.06204297,41.2214892 8.08696034,41.1751786 C8.14466371,41.0680025 8.19056412,40.9753813 8.23384165,40.8814368 L8.24039885,40.8664851 L8.27318485,40.7950344 C8.31777382,40.6931511 8.36105135,40.5886213 8.401706,40.4814453 Z M16.2424138,40.9016812 C16.2359878,41.0342619 16.2254963,41.1692243 16.2084475,41.3041867 C16.1929725,41.4256529 16.1733009,41.5487069 16.1470721,41.6704377 L16.146014,41.6701969 L16.1078929,41.844698 C16.0939588,41.902917 16.0788772,41.9611361 16.0624842,42.0193552 C16.0298294,42.1365873 15.9917976,42.2543486 15.9485201,42.3707867 C15.933832,42.4090261 15.9194061,42.4487209 15.9036688,42.4884157 L8.40091913,40.4811807 C8.41665642,40.4414859 8.43108226,40.401791 8.4455081,40.3634194 C8.48904792,40.2471135 8.52576825,40.1293522 8.55986569,40.0115909 C8.59252055,39.895682 8.62137224,39.7792438 8.64497816,39.6628057 C8.66923981,39.5414718 8.69022285,39.4184179 8.70596014,39.2966871 C8.72274657,39.1619893 8.73454953,39.0270269 8.7397953,38.8947108 C8.74622135,38.7264047 8.74490991,38.5596865 8.73310695,38.3982608 L15.420763,40.1871969 L8.73323809,38.3975993 C8.66242032,37.34304 8.22046495,36.4366748 7.50573002,36.0304645 C7.44146944,35.993416 7.37589743,35.9629833 7.30901398,35.9351969 L14.8130751,37.9424319 C14.8786471,37.9702183 14.9442191,38.000651 15.0084797,38.0376995 C15.7219032,38.445233 16.16517,39.3502751 16.2359878,40.4061575 C16.2463482,40.5682447 16.248971,40.7336398 16.2424138,40.9016812 Z" id="形状结合" fill="#FFEAA4" fill-rule="nonzero"></path>
            <path d="M5.52322578,42.8587685 C5.56912619,42.8667074 5.61633804,42.8720001 5.66354989,42.8772927 L13.1649881,44.8845278 C13.1190877,44.8805583 13.0718759,44.8739425 13.0259755,44.8660035 L5.52322578,42.8587685 Z" id="形状结合" fill="#7F7F7F"></path>
            <path d="" id="形状结合" fill="#7F7F7F"></path>
            <path d="M1.70863952,34.4238825 L9.21138921,36.4311176 L9.21138921,36.5568179 C9.19552078,36.5832811 9.17847206,36.6110674 9.16273478,36.6388538 C9.0415577,36.8443407 8.93270816,37.0600159 8.82910438,37.2836301 C8.64458473,37.6849448 8.48196614,38.1110026 8.31934755,38.5357373 L8.318,38.5353077 L8.20753027,38.8544818 C8.17173281,38.9610208 8.13729536,39.0676577 8.10426649,39.1743437 L8.00984765,39.4944996 C7.91804683,39.8173509 7.84067186,40.1402021 7.7737884,40.4617302 C7.72766942,40.6862706 7.68803478,40.9100318 7.65384019,41.1330089 L7.60631748,41.466274 C7.55910563,41.8380822 7.52894251,42.2059209 7.51320523,42.568467 C7.49510735,43.01596 7.50035311,43.4552494 7.5292048,43.8839535 C7.70742953,46.5490641 8.78543342,48.7534501 10.5362062,49.5526393 L6.771,48.545396 L10.5358127,49.5526393 C10.6433508,49.6095352 10.7535118,49.6584922 10.8636728,49.7034796 C10.8977702,49.7180344 10.9318677,49.7299429 10.9659651,49.7431745 L7.21337447,48.7384043 L10.9654406,49.7438361 C11.0454384,49.7729456 11.1241248,49.800732 11.2054341,49.825872 L3.70268442,47.818637 C3.62601981,47.7945444 3.5493552,47.7680215 3.47269059,47.7390682 L3.46321543,47.7359394 C3.42911799,47.7227078 3.39502054,47.7107994 3.36092309,47.6962446 C3.25110212,47.651396 3.14258449,47.6012873 3.03537023,47.5459187 L3.03345646,47.5454043 C1.28268372,46.7448919 0.204679835,44.5418291 0.02632396,41.8756599 C-0.00239658158,41.4480143 -0.00764234259,41.0087249 0.010717821,40.5601734 C0.026192816,40.1973627 0.0563559418,39.8308471 0.104879231,39.4590389 L0.103830079,39.4597005 C0.147107607,39.1262639 0.202188098,38.7915042 0.271694431,38.4540982 C0.337922164,38.1329671 0.41660858,37.8101158 0.507097957,37.4872646 L0.506704525,37.4872646 C0.597193903,37.1670596 0.700797683,36.8468547 0.816204425,36.5279729 C0.979216448,36.1037676 1.1405236,35.6777098 1.32674812,35.276792 C1.42864702,35.0527809 1.538808,34.8357825 1.65946051,34.6320157 C1.67703381,34.6038324 1.69277109,34.576046 1.70850837,34.5495828 L1.70863952,34.4238825 Z M10.9226876,15.262396 L18.4254373,17.2696311 C18.3756026,17.7552311 18.3205221,18.2421543 18.2588844,18.7264312 C18.1257732,19.7672295 17.9631546,20.7926792 17.7664386,21.7519708 C17.6749656,22.1964206 17.5761158,22.6268614 17.4693359,23.038137 L17.3596298,23.4425735 C17.2520917,23.824967 17.136685,24.1875131 17.0134096,24.5262422 L16.392,24.358396 L17.0127538,24.525713 L16.998328,24.5654078 L16.9833776,24.6045734 L16.9568209,24.6826399 L16.9288217,24.7611033 C16.7937433,25.1276189 16.6389934,25.5007502 16.4645718,25.8765279 C16.1645143,26.5276554 15.8104254,27.1892358 15.4183048,27.8547857 L13.562,27.356396 L15.4177802,27.8547857 C14.1456832,30.0163495 12.4769025,32.2096253 10.9898121,34.1274332 L10.5495828,34.6935427 C10.2442796,35.1158957 9.93981559,35.5433295 9.63484802,35.9284223 L9.40613809,36.2085619 C9.34187752,36.2853052 9.2763055,36.3594022 9.21204493,36.4308529 L1.70929524,34.4236179 L1.80585003,34.3144571 L1.90325725,34.2013269 C2.28488637,33.750129 2.66520404,33.2142489 3.04683315,32.6863077 L3.047,32.685396 L3.48706236,32.1201981 C4.97415285,30.2023902 6.64293347,28.0091144 7.91503052,25.8475507 C8.30767573,25.1820008 8.6617646,24.5190972 8.96208442,23.8694252 L14.493,25.348396 L8.96182213,23.8692929 C9.13624368,23.492192 9.29099363,23.1203838 9.42607198,22.7538683 L9.4255474,22.7534713 L9.48193933,22.5973383 C9.49164399,22.5714044 9.50082407,22.5449412 9.51000416,22.5184779 C9.63393526,22.180278 9.749342,21.8177319 9.8568801,21.4353385 C10.007958,20.9050156 10.1430364,20.3373796 10.2636889,19.7446035 C10.4617163,18.7854442 10.6230235,17.7599945 10.755479,16.7186669 C10.8177724,16.2349193 10.8728529,15.7479961 10.9226876,15.262396 Z" id="形状结合" fill="url(#linearGradient-6)" fill-rule="nonzero"></path>
            <path d="M24.0015501,8.23350085 C22.8369912,9.41772983 22.38979,11.6512254 23.0979678,13.1847688 C23.137311,13.2628353 23.1818999,13.3356092 23.2251775,13.408383 C23.2369804,13.4255841 23.2487834,13.4441084 23.2605864,13.4613095 C23.3038639,13.5274675 23.3484529,13.5909792 23.3969761,13.6491983 C23.4533681,13.7193258 23.5058257,13.7762217 23.5582833,13.8291482 C23.5727091,13.8437029 23.587135,13.8569346 23.6002494,13.8701662 C23.6513956,13.9178 23.7038532,13.9641106 23.7589337,14.0051286 C23.8271286,14.058055 23.8861434,14.0964267 23.9464696,14.1308289 C23.9622069,14.140091 23.9792556,14.1493531 23.9963043,14.1586152 C24.0526963,14.1890479 24.1103996,14.2181575 24.1694145,14.2419744 C24.2467894,14.2737302 24.3123614,14.2935776 24.3779335,14.3107787 C24.3949822,14.3147482 24.4120309,14.3187177 24.4303911,14.3226872 C24.4920288,14.3359188 24.552355,14.347829 24.6139927,14.354443 C24.6205499,14.354443 24.6271071,14.3557662 24.6323529,14.3570894 C24.7005478,14.3636598 24.7687427,14.3650283 24.8369375,14.362382 C24.8552977,14.362382 24.8749693,14.3610588 24.8933295,14.3597357 C24.9536557,14.3570894 25.0152934,14.3504736 25.0769311,14.3398883 C25.0861112,14.3385651 25.0939798,14.3385651 25.1044714,14.3359188 C25.1595519,14.3266567 25.2159438,14.3134251 25.2723357,14.2975471 C25.2854501,14.2949008 25.299876,14.2896082 25.3129904,14.2856387 C25.3300391,14.2790229 25.3483992,14.2737302 25.365448,14.2684376 C25.4297085,14.2459439 25.4939691,14.222127 25.5582297,14.1930174 C25.5647869,14.1903711 25.5726555,14.1877248 25.5792127,14.1850785 C25.6487191,14.1533226 25.7182254,14.1149509 25.7877317,14.0739329 C25.8047805,14.0633476 25.8218292,14.0527624 25.8375665,14.0435002 C25.9044499,14.0011591 25.9700219,13.9574948 26.0369054,13.9072147 C26.1155918,13.8476724 26.1824752,13.7894533 26.2480473,13.7272648 C26.265096,13.71271 26.2821447,13.6968321 26.297882,13.6809542 C26.3647654,13.6161193 26.4316489,13.5499612 26.4959095,13.4758642 C27.6525998,12.1685813 28.1076695,9.93376257 27.3903117,8.52724256 C27.3509685,8.44917607 27.307691,8.37507906 27.263102,8.30362837 C27.2526105,8.28642728 27.2408075,8.26790303 27.2290046,8.25070194 C27.185727,8.18454389 27.1411381,8.12103217 27.0926148,8.06281309 C27.0362229,7.99136241 26.9837652,7.93578965 26.9299962,7.88286321 C26.9168818,7.86830844 26.9024559,7.85507684 26.8893415,7.84184523 C26.8381954,7.79288827 26.7857378,7.74790081 26.7306573,7.70688282 C26.6624624,7.65395638 26.6021361,7.61558472 26.5418099,7.57985937 L26.494598,7.55339616 C26.4368947,7.52296346 26.3805027,7.49385392 26.3214879,7.47003702 C26.3162422,7.4673907 26.3109964,7.46474438 26.3057506,7.46342122 C26.2414901,7.43828116 26.1772295,7.41843375 26.1116575,7.40123266 C26.0946088,7.39726317 26.07756,7.39329369 26.0591999,7.38800105 C26.0001851,7.3760926 25.9411702,7.36418415 25.880844,7.35756835 C25.8729753,7.35624519 25.8637953,7.35492203 25.8559266,7.35359887 C25.7890432,7.34830622 25.7221597,7.34698306 25.6539648,7.34830622 C25.6356047,7.34962938 25.6159331,7.35095254 25.5975729,7.35095254 C25.5372466,7.35492203 25.475609,7.36021467 25.4139713,7.37079996 C25.4047912,7.37212312 25.3956111,7.37344628 25.3877425,7.37476944 C25.3313505,7.38403157 25.2749586,7.39726317 25.2198781,7.4131411 C25.2054523,7.41711059 25.1923379,7.42240323 25.1792235,7.42637271 C25.1608633,7.43166536 25.1438146,7.436958 25.1254544,7.4435738 C25.0625053,7.46342122 24.9982447,7.48856127 24.9339841,7.51634765 C24.9274269,7.52031714 24.9208697,7.52296346 24.9130011,7.52560978 C24.8448062,7.5586888 24.7752999,7.5957373 24.7057935,7.63675529 C24.6887448,7.64734058 24.6716961,7.65660271 24.6559588,7.66851115 C24.5890753,7.70952914 24.5235033,7.75319345 24.4592428,7.8021504 C24.3805563,7.8630158 24.3123614,7.92123488 24.2467894,7.98210028 C24.2297407,7.99797821 24.2140034,8.01253298 24.1982661,8.02841091 C24.1313827,8.09324579 24.0658107,8.15940384 24.0015501,8.23350085 M20.7754071,18.2895235 C20.4042695,17.8766973 20.075098,17.3844814 19.7944498,16.8314002 C18.100069,13.211232 19.086272,7.61823104 22.1235677,4.42279753 C22.2415973,4.29048145 22.3609383,4.16478116 22.478968,4.04305036 C22.5143769,4.00732502 22.5497857,3.97292284 22.5838832,3.93852065 C22.6769954,3.84589939 22.7714191,3.75724761 22.8658428,3.67256532 C22.896006,3.64477894 22.9261691,3.61699256 22.9563322,3.58920618 C23.0769847,3.48335331 23.1989487,3.38146993 23.3209126,3.28487918 C23.34583,3.26635493 23.3707473,3.24783068 23.3956647,3.23062959 C23.4966456,3.15256309 23.5976265,3.07978925 23.6999188,3.00966172 C23.7353277,2.98452166 23.7720481,2.96070477 23.8087684,2.93688787 C23.9163065,2.86543719 24.0238446,2.79927914 24.1326941,2.73576742 C24.31105,2.63256087 24.4369483,2.56772599 24.5615351,2.50818375 C24.5956325,2.49230582 24.6284185,2.47775105 24.6612046,2.46319628 C24.7595626,2.41820881 24.8566092,2.37719082 24.9536557,2.33881916 C24.9877532,2.32558755 25.0231621,2.31235594 25.0572595,2.29912433 C25.1818463,2.25413686 25.3064332,2.21311888 25.43102,2.17739353 C25.5857699,2.13769871 25.6880623,2.11388181 25.7903546,2.09271124 C25.8283864,2.08609543 25.8664181,2.07947963 25.9044499,2.07286382 C25.9896935,2.05830905 26.0736257,2.04640061 26.1575579,2.03581532 C26.1942782,2.03184584 26.23231,2.02787635 26.2703417,2.02390687 C26.3791913,2.01464474 26.4880408,2.0093521 26.5955789,2.00782774 C26.735903,2.00670578 26.8499983,2.01199842 26.9627822,2.02126055 C26.9981911,2.02523003 27.0336,2.02919951 27.0690089,2.033169 C27.1503182,2.04110796 27.2316275,2.05301641 27.3116253,2.06757118 C27.3483456,2.07286382 27.385066,2.07947963 27.4204748,2.08609543 C27.5096528,2.10461968 27.5988307,2.12711342 27.6853858,2.15093031 C27.7089917,2.15754612 27.7325976,2.16283876 27.7562036,2.16945457 C27.8637417,2.20121043 27.9699683,2.23825893 28.0748835,2.27927692 C28.1037352,2.29118537 28.1338983,2.30574014 28.16275,2.31764858 C28.240125,2.35072761 28.3175,2.38645295 28.3935635,2.42350145 C28.427661,2.44202571 28.4617584,2.4592268 28.4958559,2.47775105 C28.5732308,2.5200922 28.6506058,2.56507967 28.7266693,2.6113903 C28.7515867,2.62726823 28.7765041,2.641823 28.80011,2.65770093 C28.898468,2.72121265 28.9942032,2.79134018 29.0886269,2.86543719 C29.1109213,2.88396144 29.1332158,2.90248569 29.1568217,2.92100994 C29.228951,2.98055218 29.3010802,3.04274074 29.3705865,3.10625246 C29.4007496,3.13403884 29.4296013,3.16314838 29.4597644,3.19093476 C29.524025,3.25576964 29.589597,3.32325085 29.6525462,3.39205521 C29.6774635,3.41851843 29.7023809,3.44365849 29.7259868,3.47144487 C29.809919,3.56803561 29.8925397,3.66859584 29.9725376,3.77444871 C29.985652,3.79297296 30.0000778,3.81282037 30.0131922,3.83134462 C30.0800757,3.92131956 30.1443363,4.01526398 30.2072854,4.11185473 C30.2308913,4.14890323 30.2544972,4.18595174 30.2781032,4.2243234 C30.3305608,4.31165202 30.3830184,4.4003038 30.4341646,4.4916019 C30.4551476,4.52997356 30.4761306,4.56702207 30.4971137,4.60671689 C30.5653086,4.73638666 30.6308806,4.86870275 30.6938297,5.00763464 C30.9652979,5.5501306 31.1462766,6.11908977 31.3193867,6.81507239 L31.3193867,6.93018739 C31.4085647,7.6499869 31.4085647,8.39624963 31.4977426,9.24174943 C31.8492086,13.0987634 32.1993631,18.0778177 33.3599878,20.6090245 C34.0773456,22.1399216 35.4110803,23.6258313 36.9284167,24.8193224 L36.7553066,24.8682793 C36.1284381,25.0429366 35.5015697,25.3313856 34.8733898,25.7587666 C34.7829004,25.7839067 34.7829004,25.7839067 34.7002797,25.9321007 C34.1639006,26.3224331 33.6275216,26.8503743 32.9993417,27.3915471 C31.9436323,28.3508388 30.8695627,29.2677892 29.7810673,30.1450449 C29.5187793,28.4871243 29.1568217,26.8569901 28.6296228,25.7653824 C27.4689981,23.2341757 24.5261262,21.0853624 22.2009426,19.3824544 C21.665875,19.0265241 21.2199853,18.6573622 20.7754071,18.2895235" id="Fill-272" fill="url(#linearGradient-7)" fill-rule="nonzero"></path>
            <path d="M15.9036688,42.4884157 C16.6144694,40.6862706 16.1712026,38.7002061 15.0092666,38.0386257 C14.945006,38.000254 14.8781225,37.9698213 14.8125505,37.942035 C14.7968133,37.9367423 14.781076,37.9301265 14.7640272,37.9248339 C14.6984552,37.8996938 14.6315718,37.8785232 14.5633769,37.8639685 C14.4873134,37.8494137 14.4217413,37.8401516 14.3548579,37.8361821 C14.3378092,37.8348589 14.3220719,37.8335358 14.3050232,37.8335358 C14.2368283,37.8308895 14.1673219,37.8308895 14.099127,37.8375053 L14.0728982,37.8414747 C14.0112605,37.8494137 13.947,37.8586758 13.8840508,37.8732306 C13.8670021,37.8772001 13.8499534,37.8811696 13.8315932,37.8851391 C13.8184788,37.8891085 13.8053644,37.8917549 13.79225,37.8957243 C13.7358581,37.9116023 13.6794662,37.9301265 13.6230742,37.9512971 C13.6152056,37.9539434 13.6086484,37.9579129 13.6007797,37.9605592 C13.5378306,37.9843761 13.4748815,38.0134857 13.4132438,38.0439184 C13.3948836,38.0531805 13.3765235,38.0624426 13.3581633,38.0730279 C13.288657,38.1087532 13.2217735,38.1484481 13.1535786,38.1921124 C13.1470214,38.1960819 13.1417757,38.2013745 13.133907,38.205344 C13.0722693,38.246362 13.0106316,38.2926726 12.9503054,38.3403064 C12.9332567,38.353538 12.9162079,38.3654464 12.8991592,38.3800012 C12.8335872,38.4342508 12.7680152,38.4898236 12.705066,38.550689 C12.630314,38.6221397 12.5712991,38.6843282 12.5149072,38.7478399 C12.4991699,38.765041 12.4847441,38.780919 12.4690068,38.7981201 C12.4086805,38.8669244 12.3483543,38.9383751 12.2906509,39.0151184 C12.2867166,39.0204111 12.2814708,39.0270269 12.2762251,39.0336427 C12.2237675,39.1037702 12.1713099,39.1778672 12.1214751,39.2546106 C12.1070493,39.274458 12.0926234,39.2956285 12.0781976,39.3181223 C12.0244286,39.4014814 11.9719709,39.4861637 11.9221362,39.5761386 C11.8696786,39.6714062 11.8237782,39.760058 11.7791892,39.8526793 C11.7686977,39.8764962 11.7555833,39.9003131 11.7450918,39.9254531 C11.7005028,40.0207207 11.6572253,40.1186346 11.6165706,40.220518 C10.8979014,42.0239863 11.3490368,44.0074044 12.5031042,44.6729543 C12.5686763,44.7100028 12.6342483,44.7404355 12.7011317,44.7682219 C12.7194919,44.7761609 12.7365406,44.7827767 12.7549008,44.7893925 C12.8126041,44.8105631 12.8703075,44.8304105 12.9293223,44.8449652 C12.9411253,44.8476116 12.9503054,44.8502579 12.9607969,44.8529042 C13.0289918,44.8687821 13.0971867,44.8780443 13.1653816,44.8846601 C13.1837417,44.8859832 13.2021019,44.8859832 13.2204621,44.8873064 C13.2781654,44.8912759 13.3358688,44.8912759 13.3935722,44.8886295 C13.407998,44.8873064 13.4224239,44.8873064 13.4368497,44.8859832 C13.506356,44.8820137 13.5758624,44.8714285 13.6453687,44.8581968 C13.6624174,44.8555505 13.6794662,44.8502579 13.6952034,44.8462884 C13.7240551,44.8396726 13.7542183,44.83438 13.7830699,44.826441 C13.8132331,44.818502 13.8420847,44.8065936 13.8709364,44.7973314 C13.8853623,44.793362 13.9010996,44.7880693 13.9155254,44.7827767 C13.9837203,44.7589598 14.0519152,44.7311734 14.1201101,44.6980944 C14.1358474,44.6914786 14.1528961,44.6822165 14.1686334,44.6742775 C14.2263367,44.6451679 14.2840401,44.6120889 14.340432,44.5776867 C14.3548579,44.5697478 14.3692837,44.5618088 14.3823981,44.5525467 C14.4492816,44.5102055 14.5135422,44.4638949 14.5791142,44.4136148 C14.5948515,44.4017063 14.6105887,44.3897979 14.6250146,44.3765663 C14.6814065,44.3315788 14.7377984,44.283945 14.7915675,44.2336649 C14.8046819,44.2230796 14.8164849,44.2124943 14.8282878,44.2005859 C14.891237,44.1410437 14.9515632,44.0775319 15.0118895,44.0100507 C15.0263153,43.9941728 15.0407411,43.9769717 15.055167,43.9610938 C15.1102475,43.8989052 15.1627051,43.8340703 15.2151627,43.765266 L15.2374572,43.7361564 C15.2951605,43.6607363 15.350241,43.5800234 15.4040101,43.4966643 C15.4171245,43.4754937 15.4302389,43.4543232 15.4433533,43.4331526 C15.4944995,43.3524398 15.5430228,43.2690806 15.5902346,43.1830752 C15.6505609,43.0706065 15.6977727,42.9726926 15.7436731,42.8734555 C15.7541646,42.8496386 15.7646562,42.8258217 15.7751477,42.803328 C15.8210481,42.7014446 15.8643256,42.5969149 15.9036688,42.4884157 M24.0464014,22.7653798 C23.0549525,24.2790758 22.2536625,25.7398454 21.715972,27.1278412 C20.5501016,30.3060736 20.1002776,35.3830418 19.8327438,39.4120667 C19.740943,40.3091698 19.740943,41.1798096 19.6491422,41.824189 C19.4760321,42.6180855 19.2924304,43.2876049 19.0196509,43.9822644 C18.9567017,44.1542753 18.8871954,44.3236399 18.8176891,44.4903581 C18.796706,44.5393151 18.7744115,44.588272 18.7534285,44.637229 C18.6996594,44.7602829 18.644579,44.8820137 18.5868756,45.0024214 C18.5658925,45.048732 18.5449095,45.0937195 18.522615,45.138707 C18.4439286,45.2974863 18.3652422,45.4522961 18.2826214,45.6044596 C18.1790177,45.7910253 18.1029541,45.9233414 18.0242677,46.0530111 C17.9980389,46.0966754 17.9718101,46.1376934 17.9455813,46.1800346 C17.876075,46.2925032 17.8052572,46.4010024 17.7344394,46.5081785 C17.7095221,46.5425806 17.6872276,46.578306 17.6636216,46.6127082 C17.5705094,46.7489937 17.4747743,46.8813098 17.3777277,47.0096564 C17.3580561,47.0361196 17.3383845,47.0599365 17.3200243,47.0837534 C17.2400264,47.1882831 17.1574057,47.2901665 17.074785,47.3907268 C17.0433104,47.4277753 17.0118358,47.4648238 16.9790498,47.5018723 C16.899052,47.5944935 16.8177427,47.6857916 16.7351219,47.7757666 C16.7102046,47.8022298 16.6865987,47.828693 16.6616813,47.8551562 C16.5554546,47.9676249 16.4479165,48.0748009 16.3377556,48.1780075 C16.3141496,48.2005012 16.2905437,48.2216718 16.2669378,48.2441655 C16.1790713,48.3262015 16.0898933,48.4055911 15.999404,48.4823345 C15.966618,48.5101209 15.933832,48.5379072 15.9010459,48.5656936 C15.8066222,48.6424369 15.71351,48.716534 15.6190863,48.7879846 C15.5967918,48.8038626 15.5758088,48.8223868 15.5535143,48.8382648 C15.439419,48.9216239 15.3240122,49.0010135 15.2072941,49.0764337 C15.1771309,49.0976043 15.1456564,49.1148054 15.1154932,49.1333296 C15.0250039,49.1915487 14.9345145,49.2457983 14.8427137,49.2974016 C14.8086162,49.317249 14.7732073,49.3357732 14.7391099,49.3542975 C14.6341947,49.4111934 14.527968,49.4641198 14.4230528,49.5144 C14.2564999,49.5924665 14.1345359,49.6414234 14.0138834,49.6864109 C13.9824089,49.6996425 13.9496228,49.7102278 13.9168368,49.7208131 C13.8237246,49.7538921 13.7306123,49.7843248 13.6375001,49.8121112 C13.6034026,49.8213733 13.5679937,49.8319586 13.5312734,49.8425439 C13.4276696,49.8703302 13.3240658,49.8941471 13.2204621,49.9153177 C13.0604664,49.9470736 12.9424367,49.9629515 12.8244071,49.9761831 C12.7916211,49.9801526 12.7601465,49.9814757 12.7273605,49.9841221 C12.639494,49.992061 12.552939,49.9973537 12.4663839,49.9986768 C12.4296636,50 12.3916318,50 12.3549115,50 C12.267045,50 12.1791785,49.9960305 12.091312,49.9907379 C12.0611489,49.9880916 12.0309858,49.9867684 12.0008226,49.9854452 C11.8854159,49.9748599 11.7713206,49.958982 11.6559138,49.9378114 C11.6336194,49.933842 11.6113249,49.9285493 11.587719,49.9245798 C11.4972296,49.9047324 11.4054288,49.8835618 11.3149394,49.8584218 C11.2782191,49.8478365 11.2414987,49.8372512 11.2047784,49.8253428 C11.1247805,49.8015259 11.0447827,49.7737395 10.9660963,49.7433068 C10.9306874,49.7300752 10.8979014,49.7181667 10.8638039,49.703612 C10.7536429,49.6586245 10.643482,49.6096675 10.5359439,49.5527716 C7.68356131,48.2494582 6.61604895,43.2161542 8.31960984,38.5361342 C8.58320933,37.8427979 8.84812026,37.1507848 9.21138921,36.5566855 L9.21138921,36.4309853 C9.6572789,35.9400926 10.1031686,35.3115912 10.5490583,34.693675 C12.8781762,31.6967157 15.8262939,27.9071829 16.9842956,24.6045734 C17.7029649,22.6740817 18.1514774,19.9483703 18.4255684,17.2689695 C18.4255684,17.3959929 18.5081892,17.3734992 18.5081892,17.4991995 C18.7796573,18.1687189 19.2242355,18.7892813 19.5783244,19.3092836 C19.5783244,19.4243986 19.6701252,19.3992585 19.7593032,19.4998187 C20.2051929,19.8689806 20.7402605,20.2235877 21.2766395,20.694633 C22.0766181,21.3310734 23.0575754,22.0561655 24.0464014,22.7653798" id="Fill-306" fill="url(#linearGradient-8)" fill-rule="nonzero"></path>
        </g>
    </g>
</svg>