<?xml version="1.0" encoding="UTF-8"?>
<svg width="50px" height="50px" viewBox="0 0 50 50" version="1.1" xmlns="http://www.w3.org/2000/svg" xmlns:xlink="http://www.w3.org/1999/xlink">
    <title>远端检测-灰</title>
    <defs>
        <linearGradient x1="40.8579069%" y1="100%" x2="65.5171315%" y2="0%" id="linearGradient-1">
            <stop stop-color="#5F5F5F" offset="0%"></stop>
            <stop stop-color="#B8B8B8" offset="100%"></stop>
            <stop stop-color="#B8B8B8" offset="100%"></stop>
        </linearGradient>
        <linearGradient x1="60.0862955%" y1="0%" x2="19.1710585%" y2="100%" id="linearGradient-2">
            <stop stop-color="#E7E7E7" offset="0%"></stop>
            <stop stop-color="#AFAFAF" offset="100%"></stop>
        </linearGradient>
    </defs>
    <g id="页面-1" stroke="none" stroke-width="1" fill="none" fill-rule="evenodd">
        <g id="编组-88" transform="translate(0.000000, 3.000000)">
            <path d="M30.8624139,5.62103392 C31.3438233,5.61376831 31.8144823,5.64563503 32.273342,5.71446714 L32.2846409,5.71702044 L32.5364167,5.75817883 C32.7111233,5.78971508 32.8838876,5.82710536 33.0543212,5.86959432 L42.333776,8.18184329 C42.0768146,8.11810986 41.8172311,8.06584844 41.5524035,8.02633371 L41.5506409,8.02602044 L41.2057022,7.98204296 C40.856641,7.94434065 40.5016802,7.92761063 40.1408198,7.93239063 L40.1366409,7.93102044 L39.9291544,7.93790358 C39.8583589,7.94061225 39.7872356,7.94411759 39.7157846,7.94857893 L30.4376409,5.63632995 L30.6500274,5.62581393 L30.6500274,5.62581393 L30.861365,5.62141632 L30.8624139,5.62103392 Z" id="形状结合" fill="#878787"></path>
            <path d="M29.8940887,5.58903974 C29.9478409,5.60178643 30.001593,5.61325845 30.0553452,5.62090646 L30.0620887,5.62203974 L30.2000171,5.63671235 L30.2000171,5.63671235 L30.346,5.64066382 L30.437772,5.63683982 L30.437772,5.63683982 L39.7159157,7.94908879 L39.6259792,7.95151066 C39.5263411,7.95406 39.429325,7.94641199 39.334931,7.93239063 L39.3220887,7.92903974 L39.2541717,7.91833741 C39.2272957,7.9130794 39.2004196,7.90702473 39.1735435,7.90001405 L29.8940887,5.58903974 Z" id="形状结合" fill="#7F7F7F"></path>
            <path d="M34.1161227,20.040086 C34.1423432,20.4352333 34.1462763,20.8393032 34.1266109,21.2497466 L34.1254888,21.2493543 L34.1052411,21.5849372 C34.0877608,21.8091845 34.0632883,22.0349425 34.0318236,22.2618335 L34.0307052,22.2613543 L33.9845877,22.568566 C33.9503068,22.7734572 33.9098106,22.9785372 33.8634876,23.1841837 L28.1364888,24.0163543 L28.1384888,24.0163543 L33.8633565,23.1844387 C33.8187816,23.3824372 33.7689625,23.5810023 33.7135109,23.7790008 L33.6257983,24.0760694 C33.5826115,24.2142835 33.8526544,25.0919758 34.1468006,26.0321334 L34.2650592,26.4099232 L34.2704888,26.4293543 L34.3624888,26.5263543 L34.6144443,26.5196093 L34.6148376,26.5202466 L34.6137052,26.5213543 L34.6434888,26.8253543 L38.9778071,31.4251717 L37.3075576,34.0892292 L28.0281029,31.7769802 L29.3353881,29.6958171 C29.2655502,29.7314707 29.1955061,29.7655102 29.1252913,29.7979289 L28.848413,29.917621 C28.6438926,29.9979251 28.4393723,30.0654826 28.2348519,30.1190187 L28.0683514,30.1588521 L27.9022442,30.1930769 C27.7326846,30.2245187 27.563125,30.2468963 27.3947308,30.2590764 L27.1436835,30.2693021 L27.1431591,30.269557 C26.9155647,30.2731261 26.6913789,30.2578301 26.4698152,30.2246887 C26.3430388,30.2048039 26.2184912,30.1805852 26.0939435,30.1499931 L16.8144888,27.8377441 C16.9390364,27.8683362 17.0648951,27.8938296 17.1907537,27.9129496 L17.413138,27.9396326 C17.4877695,27.9467141 17.5627409,27.9518128 17.637955,27.9549287 L17.8637043,27.9585827 C18.1154216,27.9547587 18.36845,27.9292653 18.6227894,27.8808279 L18.6244888,27.8806479 L18.7893883,27.8472404 C18.8449431,27.8348124 18.900334,27.8214284 18.9553972,27.8067697 C19.1612285,27.7532336 19.3657489,27.6869508 19.5689582,27.605372 L19.5684338,27.6049896 C19.82075,27.5048798 20.0714808,27.3835743 20.319085,27.2415976 L19.4937052,27.2652904 L19.5565893,27.118567 L19.6165485,26.9714793 C19.737163,26.6719322 19.8446673,26.3698357 19.9377503,26.0664645 C20.0297844,25.7701041 20.1097571,25.4718316 20.1766196,25.1748338 L25.2874888,24.4313543 L25.2874888,24.4303543 L20.1754396,25.1745789 C20.2449241,24.8661091 20.3012983,24.5589139 20.3445622,24.2517187 C20.3909726,23.9118921 20.4237483,23.5741049 20.4394806,23.2401417 C20.4595394,22.8296984 20.4556063,22.4256284 20.4280747,22.0304811 L34.1161227,20.040086 Z M20.9988962,11.9673543 L30.27704,14.2796033 C30.3976545,14.3101954 30.5182691,14.3446114 30.6611711,14.3968728 C30.7726085,14.4363875 30.8827348,14.4835503 30.9915501,14.534537 C31.0217037,14.5485584 31.0505464,14.5625797 31.0807,14.5766011 C31.1960704,14.6339612 31.3114409,14.6951453 31.4255003,14.7652521 C33.0223322,15.7429229 33.958406,17.7365047 34.1157294,20.039831 L20.4276814,22.0302262 C20.3666331,21.1289246 20.8609815,19.616429 21.38974,18.050417 L21.5665526,17.5271959 C22.3320695,15.2579452 23.0486027,13.0063201 22.1460455,12.4530031 C22.0332971,12.384171 21.9166157,12.3217122 21.8012452,12.2643521 L21.7134063,12.2222881 C21.604591,12.1713013 21.4944647,12.1254132 21.3830273,12.0846238 C21.2388143,12.0323624 21.1181997,11.9979464 20.9988962,11.9673543 Z" id="形状结合" fill="#949494" fill-rule="nonzero"></path>
            <path d="M30.2774333,14.2796033 L20.9979785,11.9673543 C20.9966674,11.9673543 20.9966674,11.9673543 20.9953564,11.9673543 L30.2748112,14.2796033 C30.2761222,14.2796033 30.2761222,14.2796033 30.2774333,14.2796033" id="Fill-41" fill="#6E6E6E"></path>
            <path d="M7.29275603,16.4721609 L16.5722108,18.7844099 L16.4443856,19.0165589 L16.4443856,19.0165589 L16.30463,19.2381919 C16.0922435,19.5530351 15.8457703,19.8283635 15.5691434,20.0488812 C14.4800727,20.9276378 13.4886996,21.9912086 12.6313425,23.1875565 L12.3505702,23.5915678 C12.0526391,24.0332405 11.7731444,24.4906873 11.5131922,24.9622948 L11.2595329,25.4380529 C11.0038824,25.9364483 10.7705195,26.4475905 10.559444,26.9714793 L6.419,25.94 L10.5597062,26.9721166 C10.3735403,27.432272 10.2070397,27.9026248 10.0588936,28.3793509 L10.0591558,28.3790959 C9.92018685,28.829054 9.79826126,29.2853853 9.69469007,29.7455407 C9.59124997,30.2054412 9.50603317,30.6681459 9.44048178,31.1359493 C9.37112841,31.6363843 9.32262038,32.1398784 9.29771085,32.6459218 C9.28355175,32.9362914 9.27830764,33.2269158 9.27961867,33.518815 C9.28049268,33.7312597 9.28602813,33.9414384 9.29583657,34.1493511 L9.31318098,34.4592655 C9.64093793,39.3412465 12.286592,42.8555081 15.9469817,43.7668962 L6.66752687,41.4559219 C3.00844827,40.5432591 0.362794169,37.0289976 0.035037218,32.1482912 L0.0342506013,32.1485461 C0.0132741565,31.8388016 0.00147490628,31.5252331 0.000163878475,31.206566 C-0.00114714933,30.9159415 0.00540798969,30.6240424 0.0198292955,30.3334179 C0.0431655904,29.8289041 0.0916736191,29.3241353 0.16246912,28.8231905 C0.227889408,28.3571716 0.313106215,27.8931922 0.415366384,27.4343115 C0.518806477,26.9731364 0.640732063,26.516805 0.781012038,26.0681216 L0.780749832,26.0683765 C0.927479461,25.5907192 1.09515541,25.1206988 1.27985306,24.6608594 L1.27998922,24.660505 C1.4910647,24.1366162 1.72442764,23.625474 1.98138909,23.1270786 L1.98034027,23.1275884 C2.30940825,22.4864301 2.67518501,21.8682158 3.0711154,21.2793189 L3.072,21.279 L3.35188774,20.8762368 C4.20924486,19.6789596 5.20061786,18.6153888 6.28968866,17.7366322 C6.56631553,17.5161145 6.81409978,17.2407861 7.02517526,16.9259429 L7.026,16.925 L7.16493082,16.7054253 C7.20950577,16.6295825 7.25211417,16.5518277 7.29275603,16.4721609 Z M9.07968693,10.154648 L18.3578307,12.466897 C18.1441332,12.9984338 17.950101,13.5427173 17.7796674,14.0959235 L10.351,12.245 L17.7795363,14.0964334 C17.6169689,14.6215969 17.4740668,15.1544084 17.3534523,15.6948679 L9.925,13.843 L17.3539767,15.6951229 C17.2412283,16.1935183 17.1468343,16.6982871 17.0721057,17.2068799 L17.0399855,17.4015856 L17.0399855,17.4015856 L16.9998681,17.5945067 L16.9508684,17.7935143 L16.9508684,17.7935143 L16.8944615,17.9899089 C16.8538196,18.1224744 16.8079336,18.2524906 16.7568035,18.3799575 L16.7573279,18.37983 C16.7009537,18.5187689 16.6393354,18.6538838 16.572473,18.7839 L7.29301824,16.4729257 C7.36119168,16.3416348 7.42280999,16.2065199 7.47787316,16.0688557 C7.52834906,15.9405684 7.57543623,15.8108854 7.61600811,15.6786692 L7.61553108,15.6786796 C7.65617294,15.5486634 7.69157069,15.4160979 7.72172433,15.2822577 C7.74938701,15.1546633 7.77429654,15.0259218 7.79396196,14.8959056 C7.86737952,14.3860381 7.96177352,13.8812693 8.07452191,13.3828739 L8.0739975,13.382619 C8.19592308,12.8434341 8.33882511,12.3093479 8.50139256,11.7841844 L8.50021264,11.7849492 C8.67195728,11.2304684 8.86598939,10.6874595 9.07968693,10.154648 Z M21.1307856,6.32383035e-13 L21.134,0.001 L21.4680311,0.00252145397 C21.8038181,0.0109462173 22.1344429,0.0403432636 22.4599056,0.0890993404 L31.7380493,2.40134832 C31.3054102,2.33634021 30.8622828,2.30574817 30.4086671,2.31212151 C29.9146719,2.31862232 29.4099262,2.36960907 28.8960033,2.46520922 L23.692,1.168 L28.8957411,2.46508175 C28.6728663,2.50714582 28.4486806,2.5568579 28.2231838,2.61549265 C27.7984108,2.72638883 27.3788819,2.86532772 26.9672192,3.02975997 C24.406913,4.05306399 22.1073702,6.08743519 20.351904,8.69285796 C20.0272935,9.17538379 19.720513,9.67752358 19.4341968,10.1968714 L19.1542801,10.7214932 C18.8645429,11.2861714 18.5984043,11.868695 18.3584862,12.4665146 L9.07903141,10.1542656 C9.32026053,9.55772066 9.58639917,8.97519708 9.87613632,8.41051885 L9.8753497,8.41090125 C10.2398154,7.70346014 10.6396789,7.0253364 11.0723181,6.38162872 C12.8292264,3.77518622 15.1287692,1.74081501 17.6878955,0.717256064 C18.1007381,0.553078738 18.518956,0.414139853 18.943729,0.303243678 L19.2816464,0.221824216 L19.2816464,0.221824216 L19.6165485,0.152960241 C20.1304714,0.0573600904 20.6365281,0.00764801205 21.1307856,6.32383035e-13 Z M22.4587257,0.0888444067 C22.7078209,0.125809798 22.9542942,0.175521877 23.1955233,0.235431304 L32.4749781,2.54768028 C32.2324379,2.48649618 31.9872757,2.43805878 31.7381804,2.40109338 L22.4587257,0.0888444067 Z" id="形状结合" fill="url(#linearGradient-1)" fill-rule="nonzero"></path>
            <path d="M37.3075576,34.0892292 L38.9778071,31.4251717 L33.1817532,25.2736206 C34.968684,21.1602648 34.1820674,16.4541881 31.4249759,14.7652521 C31.3122275,14.6951453 31.195546,14.6339612 31.0801756,14.5766011 C31.051333,14.5625797 31.0211793,14.5485584 30.9923367,14.534537 C30.8835214,14.4835503 30.7733951,14.4376622 30.6619577,14.3968728 C30.5177447,14.3446114 30.3971301,14.3101954 30.2778266,14.2796033 C30.2463619,14.2719553 30.2148972,14.2643073 30.1847436,14.2579339 C30.0785503,14.2337152 29.9710461,14.2133205 29.8648528,14.1980245 C29.8478095,14.1954752 29.8294551,14.1916512 29.8124117,14.1891018 C29.6904861,14.1738058 29.5672495,14.1648831 29.4440129,14.1597844 C29.4138592,14.1585098 29.3837056,14.1585098 29.353552,14.1572351 C29.2473587,14.1559604 29.1411655,14.1585098 29.0336612,14.1648831 C29.0126847,14.1661578 28.9917083,14.1661578 28.9694208,14.1674325 C28.8461842,14.1763551 28.7229476,14.1916512 28.5984,14.2107712 C28.5682463,14.2158699 28.5380927,14.2222432 28.507939,14.2260672 C28.4030568,14.2464619 28.2981746,14.2681313 28.1932924,14.2936247 C28.0058154,14.3420621 27.8970001,14.3739288 27.7868737,14.4108942 C27.6452827,14.4631556 27.5521998,14.4975716 27.4591168,14.5358117 C27.422408,14.5511077 27.3870103,14.5676784 27.3503015,14.5829744 C27.2755729,14.6161158 27.2021553,14.6505319 27.1261157,14.6874973 C27.090718,14.7053426 27.0540092,14.723188 27.0173004,14.742308 C26.9360167,14.7830974 26.857355,14.8277108 26.7773823,14.8735989 C26.7485397,14.8888949 26.7210081,14.904191 26.6934766,14.9207616 C26.5872833,14.9832204 26.4837121,15.0495032 26.3801409,15.11961 C26.3552314,15.134906 26.3316329,15.1527513 26.3080344,15.169322 C26.2267507,15.2254075 26.146778,15.2840422 26.0668053,15.3439516 C26.0314075,15.369445 25.9973208,15.3974877 25.9632341,15.4242558 C25.8924386,15.4790665 25.8229541,15.5364266 25.7534696,15.5937867 C25.7206939,15.6231041 25.6866072,15.6511468 25.6525205,15.6817388 C25.5738588,15.7492963 25.4965082,15.8206777 25.4191575,15.8933338 C25.3981811,15.9137285 25.3758936,15.9328486 25.3549172,15.9532433 C25.2592121,16.0475688 25.1635071,16.1444436 25.0691131,16.2438677 C25.0442036,16.2706358 25.0192941,16.2999532 24.9943845,16.3267212 C24.9249001,16.4032013 24.8567266,16.4809561 24.7885532,16.5599856 C24.7570885,16.596951 24.7256238,16.6339163 24.6941592,16.6721564 C24.6325409,16.7473619 24.5709225,16.8251166 24.5106153,16.9041461 C24.4817727,16.9411115 24.451619,16.9793516 24.4227764,17.0175916 C24.3480478,17.1182904 24.2746303,17.2215386 24.2012127,17.3260614 C24.0845312,17.4955924 24.0032475,17.6217846 23.9245858,17.7505261 C23.9009873,17.7874915 23.8786999,17.8257316 23.8564124,17.8639716 C23.8000382,17.9582971 23.743664,18.0538972 23.6886008,18.1520467 C23.6636913,18.1966601 23.6387818,18.2412735 23.6151833,18.2871616 C23.5627422,18.3853111 23.5116121,18.4834606 23.460482,18.5841594 C23.4381945,18.6274982 23.4172181,18.6695622 23.3949306,18.7141756 C23.3254461,18.8569385 23.2585837,19.0009761 23.1943434,19.1488376 C21.4074125,23.2736655 22.1953402,27.9695449 24.9511206,29.6686782 C25.2002159,29.8216385 25.4584884,29.9452813 25.724627,30.0383321 C26.5204209,30.3200339 27.3778331,30.3417033 28.2352453,30.1186363 C29.0913464,29.8955692 29.9461365,29.4277658 30.7366863,28.7330714 C31.0002029,28.5010817 31.2558533,28.2435986 31.5023265,27.9618969 L37.3075576,34.0892292 M39.7159157,7.94832399 C45.5001704,7.59524077 49.9537318,12.7984383 50,20.4821411 C50.0507479,28.9841811 44.965271,37.2172661 38.6382509,38.8654127 L19.5418199,43.8391699 C13.8545813,44.9226383 9.31973612,40.4268818 9.27883285,33.5181776 C9.24894061,28.2601693 11.8303544,23.0633451 15.5694057,20.0487537 C16.3507782,19.4241661 16.904032,18.3598177 17.0718435,17.2075172 C18.0918231,10.2784183 22.6791094,4.05930986 28.222135,2.61638492 C32.3072976,1.55203658 35.8903366,3.34549541 37.9486502,6.91201836 C38.3537578,7.61563547 38.9896063,7.9929374 39.7159157,7.94832399" id="Fill-88" fill="url(#linearGradient-2)" fill-rule="nonzero"></path>
        </g>
    </g>
</svg>