<?xml version="1.0" encoding="UTF-8"?>
<svg width="50px" height="50px" viewBox="0 0 50 50" version="1.1" xmlns="http://www.w3.org/2000/svg" xmlns:xlink="http://www.w3.org/1999/xlink">
    <title>测评机构</title>
    <defs>
        <linearGradient x1="29.0370071%" y1="81.4305066%" x2="74.8357295%" y2="28.4243922%" id="linearGradient-1">
            <stop stop-color="#003B7C" offset="0%"></stop>
            <stop stop-color="#4EA2FF" offset="100%"></stop>
        </linearGradient>
        <linearGradient x1="-224.119891%" y1="173.272992%" x2="74.8357295%" y2="46.5693326%" id="linearGradient-2">
            <stop stop-color="#003B7C" offset="0%"></stop>
            <stop stop-color="#4EA2FF" offset="100%"></stop>
        </linearGradient>
        <linearGradient x1="29.0370071%" y1="90.2289245%" x2="74.8357295%" y2="22.38468%" id="linearGradient-3">
            <stop stop-color="#003B7C" offset="0%"></stop>
            <stop stop-color="#4EA2FF" offset="100%"></stop>
        </linearGradient>
        <linearGradient x1="48.0755133%" y1="117.561495%" x2="52.2800195%" y2="3.62211802%" id="linearGradient-4">
            <stop stop-color="#003B7C" offset="0%"></stop>
            <stop stop-color="#4EA2FF" offset="100%"></stop>
        </linearGradient>
        <linearGradient x1="50%" y1="4.35821887%" x2="-55.6280365%" y2="376.338118%" id="linearGradient-5">
            <stop stop-color="#C3EEFF" offset="0%"></stop>
            <stop stop-color="#25A8FF" offset="100%"></stop>
        </linearGradient>
        <linearGradient x1="50%" y1="2.81229424%" x2="37.5946943%" y2="100%" id="linearGradient-6">
            <stop stop-color="#C3EEFF" offset="0%"></stop>
            <stop stop-color="#25A8FF" offset="100%"></stop>
        </linearGradient>
    </defs>
    <g id="页面-1" stroke="none" stroke-width="1" fill="none" fill-rule="evenodd">
        <g id="编组-79" transform="translate(7.000000, 1.000000)">
            <polygon id="Fill-1" fill="#FFEAA4" fill-rule="nonzero" points="29.2703739 35.0563449 23.139987 33.416986 23.1432017 29.9621209 29.2735886 31.6014798"></polygon>
            <polygon id="Fill-3" fill="#FFEAA4" fill-rule="nonzero" points="29.2824825 22.097953 23.1520956 20.4575134 23.1553103 17.0026482 29.2846256 18.6430878"></polygon>
            <path d="M33.2019225,2.66825385 L27.0715356,1.02889494 C27.1251135,1.01484638 27.1786915,1.00295913 27.2311978,0.994313866 L33.3615847,2.63367278 C33.3090784,2.64231805 33.2555004,2.65312463 33.2019225,2.66825385" id="Fill-5" fill="#8B8B8B"></path>
            <path d="M33.3614776,2.63345665 L27.2310907,0.994097735 C27.3060998,0.982210492 27.3789658,0.976807199 27.4507602,0.977887858 L33.5811471,2.61616611 C33.5093527,2.61616611 33.4364867,2.6215694 33.3614776,2.63345665" id="Fill-7" fill="#878787"></path>
            <path d="M33.5812543,2.61659838 L27.4508674,0.977239463 C27.5183756,0.977239463 27.5848122,0.983723413 27.6491057,0.995610657 L33.7794926,2.63605023 C33.7151991,2.62416298 33.6487624,2.61767903 33.5812543,2.61659838" id="Fill-9" fill="#838383"></path>
            <path d="M33.779064,2.63561796 L27.6486771,0.995178393 C27.682967,1.00166234 27.7172568,1.00922695 27.7504752,1.01787222 L33.880862,2.65831179 C33.8465722,2.64858587 33.8133539,2.64102126 33.779064,2.63561796" id="Fill-11" fill="#7F7F7F"></path>
            <polygon id="Fill-13" fill="#FFEAA4" fill-rule="nonzero" points="20.5677105 37.4773441 14.4373237 35.8379852 22.852595 33.2591018 29.2709097 35.0566691"></polygon>
            <path d="M20.7542689,11.154881 L26.8846558,12.7953206 L14.2649099,16.3052993 L8.13452298,14.6659404 L20.7542689,11.154881 Z M21.2770824,10.9081667 L27.4063977,12.5486063 C27.2756675,12.6372203 27.1374365,12.7085437 26.9949192,12.7604153 L26.8845486,12.7952125 L20.7541617,11.154773 C20.7905947,11.145047 20.8280993,11.1331598 20.8645323,11.1201919 C21.0070496,11.0702655 21.1452806,10.9978613 21.2770824,10.9081667 Z M22.4848361,8.95174258 L28.615223,10.5911015 C28.598078,10.6764735 28.5777184,10.7607649 28.5541441,10.8439756 C28.529284,10.9307524 28.5014234,11.0161245 28.4714198,11.0993352 C28.4376657,11.1911911 28.4012327,11.2808858 28.3605135,11.3684191 L28.2838703,11.5238448 L28.2838703,11.5238448 L28.199523,11.6728636 L28.2008512,11.6738132 C28.1086972,11.829428 28.004756,11.9753169 27.8933139,12.1071573 C27.7453317,12.2802788 27.5824548,12.4304903 27.4067192,12.5482821 L21.2763323,10.9078425 C21.4509963,10.7900507 21.6149448,10.6409198 21.7628199,10.4669338 C21.8754407,10.3348774 21.9772388,10.1911498 22.0704644,10.0344543 C22.1278999,9.93676278 22.1814778,9.83410022 22.229698,9.72927635 C22.2697743,9.64152688 22.3072788,9.55075157 22.3404971,9.4588956 C22.3721081,9.3756849 22.3988971,9.29139354 22.4235429,9.20494086 C22.4473315,9.12140596 22.4676911,9.0371146 22.4848361,8.95174258 Z M22.5614525,2.28386363 L28.6918394,3.92322254 L28.686053,9.90682854 L28.6839099,10.0408302 L28.6839099,10.0408302 C28.6796236,10.1365765 28.6710512,10.2338358 28.659264,10.3289337 C28.6474769,10.4177639 28.6335466,10.5052972 28.6153301,10.5906692 L22.4849432,8.95131031 C22.5031597,8.86485763 22.5181616,8.7773243 22.5288771,8.68979096 C22.5417358,8.59447688 22.5492368,8.49829828 22.553523,8.40103902 C22.5556661,8.35608362 22.5567377,8.31177662 22.5567377,8.26638897 L22.5560947,8.26638897 L22.5614525,2.28386363 Z" id="形状结合" fill="url(#linearGradient-1)" fill-rule="nonzero"></path>
            <polygon id="Fill-37" fill="url(#linearGradient-2)" fill-rule="nonzero" points="28.6917323 3.92311448 22.5613454 2.28375556 27.0715356 1.02911107 33.2019225 2.66846998"></polygon>
            <polygon id="Fill-41" fill="#FFEAA4" fill-rule="nonzero" points="17.1337938 41.0263346 11.0034069 39.3858951 12.5700256 36.7782661 18.6993409 38.4187057"></polygon>
            <polygon id="Fill-43" fill="#FFEAA4" fill-rule="nonzero" points="20.5791762 24.5189522 14.4487893 22.8785126 22.852595 19.8690949 29.2823754 22.0982772"></polygon>
            <polygon id="Fill-45" fill="#FFEAA4" fill-rule="nonzero" points="16.8485449 36.3597271 10.718158 34.7192875 12.5740975 31.619959 18.7044844 33.2593179"></polygon>
            <polygon id="Fill-47" fill="#FFEAA4" fill-rule="nonzero" points="18.6997695 38.4187057 12.5693827 36.7782661 10.7177294 34.7196117 16.8481162 36.3600513"></polygon>
            <path d="M19.8613391,0.000756460937 L19.9275882,0.00391738699 L19.9913192,0.0115630457 C20.0127503,0.0158856796 20.0341815,0.021288972 20.0556127,0.0266922644 L26.1485937,1.657 L26.121706,1.65200262 C26.0798081,1.6447622 26.0369458,1.64043957 25.9919403,1.64043957 L25.9186189,1.6424523 L25.9186189,1.6424523 L25.8442795,1.65254295 C25.8078465,1.65686558 25.7714135,1.66551085 25.7349805,1.67523677 L19.6045937,0.0358778615 C19.6410266,0.0261519352 19.6774596,0.0185873258 19.7128211,0.012103375 L24.7751111,1.366 L19.713464,0.0115630457 C19.7638273,0.00399843637 19.8141905,0.000756460937 19.8613391,0.000756460937 Z M14.4057127,12.983031 C14.4326088,13.3942215 14.6597792,13.6881606 14.9791037,13.7735326 L8.84871681,12.1330931 C8.52832078,12.0477211 8.30329347,11.7559433 8.27543294,11.3442124 L14.2441111,12.94 L8.27532579,11.3436721 C8.27318267,11.3155749 8.27211111,11.2874778 8.27211111,11.2572194 L8.27854046,4.33765507 C8.27843331,4.32004034 8.27950487,4.30166914 8.27950487,4.28437861 L12.2631111,5.34920206 L8.27950487,4.28351408 L8.28365715,4.22448311 L8.29011111,4.16420206 L8.28989898,4.16431745 C8.29418522,4.12865572 8.30061457,4.09191333 8.30811548,4.0562516 C8.31572355,4.01886082 8.32429602,3.98319909 8.3350116,3.94753736 L8.33436867,3.94688896 C8.34508425,3.90906592 8.35794296,3.87124287 8.37080166,3.83450048 L12.2421111,4.869 L8.37101597,3.83396015 C8.38601779,3.79181447 8.40423429,3.75074945 8.42245079,3.70968443 C8.44591792,3.659758 8.47270689,3.61004771 8.50056741,3.56141808 C8.54900186,3.47853158 8.60365135,3.40180483 8.66580175,3.33048137 L11.3811111,4.056 L8.66505166,3.32950877 C8.75399102,3.22684622 8.85364598,3.13499025 8.96294496,3.06150547 C9.04749093,3.00531123 9.13750186,2.95776226 9.23179901,2.92426184 L9.26773641,2.91250968 L9.26773641,2.91250968 L9.30445069,2.90102769 L19.6053437,0.036202059 L25.7346591,1.67556097 L15.4348376,4.54146726 L15.4321111,4.54120206 L15.3981099,4.55146335 L15.3620787,4.56362076 C15.2689603,4.59712117 15.1778778,4.64358948 15.0932247,4.70086438 C14.9840329,4.77434916 14.8843779,4.86512447 14.7954385,4.96994834 C14.7351098,5.04116374 14.6793887,5.11897115 14.6311686,5.20110119 C14.6020222,5.24832597 14.5763048,5.29911692 14.5527305,5.34990787 C14.5335496,5.39010836 14.5164047,5.43225404 14.5014029,5.47331906 L14.4817665,5.53005363 L14.4641111,5.58520206 L11.1531111,4.7 L14.4647556,5.58624788 C14.4546829,5.622558 14.4461104,5.65930039 14.4386095,5.69496212 L14.428202,5.75010272 L14.4206073,5.80508122 C14.4152495,5.84398492 14.4120349,5.88396929 14.4098918,5.92395365 C14.4088202,5.94210871 14.4088202,5.95939925 14.4088202,5.97777044 L14.402498,12.8975509 C14.402498,12.9257561 14.4035696,12.9560145 14.4057127,12.983031 Z" id="形状结合" fill="url(#linearGradient-3)" fill-rule="nonzero"></path>
            <polygon id="Fill-57" fill="#FFEAA4" fill-rule="nonzero" points="18.7044844 33.2591018 12.5740975 31.6197429 11.011765 29.8820441 17.1421519 31.5224836"></polygon>
            <polygon id="Fill-59" fill="#FFEAA4" fill-rule="nonzero" points="13.4194501 42.0595522 7.28906323 40.4191126 9.14607432 37.3197841 15.2753897 38.959143"></polygon>
            <polygon id="Fill-61" fill="#FFEAA4" fill-rule="nonzero" points="19.9633515 19.8690949 13.8329646 18.2286553 12.0488195 16.6390067 18.1781348 18.2772849"></polygon>
            <polygon id="Fill-63" fill="#FFEAA4" fill-rule="nonzero" points="15.2580304 28.5924943 9.12764352 26.9520547 13.8328574 18.2289795 19.9632443 19.8694191"></polygon>
            <polygon id="Fill-65" fill="#FFEAA4" fill-rule="nonzero" points="15.2794616 34.6141395 9.14907469 32.9747806 7.29742139 30.9161262 13.4278083 32.5554851"></polygon>
            <polygon id="Fill-67" fill="#FFEAA4" fill-rule="nonzero" points="14.9654949 24.2360358 8.83510801 22.5966769 7.22562696 21.2750315 13.3560138 22.9143905"></polygon>
            <path d="M6.34180541,6.79539665 L12.4721923,8.43583622 L7.96950296,9.6883194 L1.83911607,8.04787982 L6.34180541,6.79539665 Z M6.13038689,46.0529095 C6.13081551,46.1235845 6.13295863,46.1938273 6.13724486,46.2619088 L1.888,45.1253966 L6.13670908,46.262233 C6.19671637,47.1537763 6.63927008,47.7956874 7.2500585,47.9588668 L1.11967161,46.3195079 C0.508883191,46.1563285 0.0663294788,45.5133367 0.00739375451,44.6228741 L0.00685797519,44.6225499 C0.0025717407,44.5544684 0.000428623448,44.4842256 0.000428623448,44.4129022 L0.0300036415,10.9487994 L5.67,12.4553966 L0.0297893297,10.9479349 C0.0297893297,10.9036279 0.0308608884,10.8593209 0.0330040056,10.8150139 C0.0372902401,10.719916 0.0458627091,10.6237374 0.057649854,10.5275588 L3.12178933,11.346096 L0.0570069188,10.5269104 C0.0687940637,10.439377 0.0827243258,10.3518437 0.100940822,10.2664717 L0.129203181,10.1380895 L0.163,10.0113966 L0.162769755,10.0118685 C0.187415603,9.92541587 0.215276128,9.84004385 0.245279769,9.75575248 C0.28021258,9.66249166 0.317717132,9.572797 0.357364801,9.48418301 C0.407192277,9.37827848 0.460770208,9.27453526 0.519705933,9.17511468 C0.612288598,9.01831114 0.716229784,8.87134159 0.829814999,8.73842059 C0.977690089,8.56411038 1.14271012,8.41389885 1.31844573,8.29394576 C1.4056706,8.23479772 1.49618159,8.18338239 1.58905794,8.14062834 L1.73,8.08239665 L1.72928131,8.08267703 C1.7657143,8.07078978 1.80214729,8.05890254 1.83858029,8.04809596 L7.97003873,9.68853553 C7.93253418,9.69826145 7.89610119,9.7101487 7.8596682,9.7231166 L3.706,8.61139665 L7.85934673,9.72354886 C7.71790099,9.77433981 7.58074149,9.84566327 7.44893978,9.93427727 C7.27309701,10.0532578 7.10914854,10.2034693 6.96020189,10.378536 C6.84661667,10.5107005 6.74267549,10.6576701 6.64944989,10.8154462 C6.5911571,10.9149748 6.53757917,11.0165567 6.48828747,11.1235419 L5.583,10.8813966 L6.48775169,11.1235419 C6.44703246,11.2121559 6.40952791,11.3029312 6.37630959,11.3958679 C6.34566302,11.4794028 6.31780249,11.5647748 6.29315664,11.6523081 L2.629,10.6713966 L6.29347811,11.6527404 C6.26990382,11.7359511 6.24847265,11.8202424 6.23132771,11.9056145 C6.21311121,11.9922833 6.19918095,12.0798166 6.18739381,12.1673499 C6.17517804,12.2620156 6.16767713,12.3581942 6.16339089,12.4554535 C6.16124778,12.4997605 6.16017622,12.5429868 6.16017622,12.5872938 L6.13038689,46.0529095 Z" id="形状结合" fill="url(#linearGradient-4)" fill-rule="nonzero"></path>
            <path d="M7.45172583,14.6775035 C7.48494415,14.6861487 7.51923402,14.6937133 7.5535239,14.7001973 L12.3897258,15.9931565 L7.55320243,14.699657 C7.61749595,14.7115442 7.68393258,14.7180282 7.75251233,14.7180282 L13.8828992,16.3584677 C13.815391,16.3573871 13.7478828,16.3509031 13.6835893,16.3400965 L13.6797258,16.3381565 L13.6322081,16.3298303 C13.615331,16.326048 13.5987219,16.3217253 13.5821127,16.3168624 L7.45172583,14.6775035 Z M8.13409436,14.6661565 L14.2644812,16.3055155 C14.2109033,16.3206447 14.1562538,16.3325319 14.1037475,16.3411772 L14.1007258,16.3401565 L13.9917696,16.3538479 C13.9548008,16.3566846 13.9183678,16.3580355 13.8824706,16.3580355 L7.75208371,14.7175959 C7.8249497,14.7186765 7.89888724,14.7143539 7.97389635,14.701386 L10.5647258,15.3941565 L7.97336057,14.7007376 C8.0269385,14.693173 8.08051643,14.6812858 8.13409436,14.6661565 Z" id="形状结合" fill="#7F7F7F"></path>
            <path d="M15.4264794,13.7640228 C14.8596249,13.921799 14.4020694,13.5338426 14.4020694,12.8973347 L14.4084987,5.97787851 C14.4095703,5.34137066 14.8681974,4.69837887 15.4350519,4.54168339 L25.7348734,1.67469644 C26.3017279,1.51800097 26.7667843,1.90271538 26.7657146,2.54030389 L26.7592834,9.45976013 C26.7592834,10.096268 26.2931554,10.7403404 25.7273725,10.8991972 L15.4264794,13.7640228 Z" id="Fill-113" fill="url(#linearGradient-5)" fill-rule="nonzero"></path>
            <path d="M29.2703739,35.0563449 L29.2735886,31.6014798 L20.5703894,34.0221548 L20.5671748,37.4770199 L29.2703739,35.0563449 L29.2703739,35.0563449 Z M29.2821611,22.0981691 L29.2853757,18.6433039 L20.5821766,21.0639789 L20.5789619,24.5188441 L29.2821611,22.0981691 L29.2821611,22.0981691 Z M18.6994481,38.4182735 L16.8488663,36.3596191 L18.7048059,33.2592099 L17.1424734,31.521511 L15.279033,34.6143556 L13.4284512,32.5557012 L11.8618325,35.1633301 L13.7199152,37.2295491 L11.8575463,40.3223937 L13.4198787,42.0590119 L15.2758183,38.9586027 L17.1339009,41.0259024 L18.6994481,38.4182735 L18.6994481,38.4182735 Z M15.2576018,28.5929266 L19.9628157,19.8687707 L18.1786706,18.2780414 L14.9650663,24.2357116 L13.3555852,22.9151469 L11.870405,25.8080697 L15.2576018,28.5929266 L15.2576018,28.5929266 Z M33.2019225,2.66792965 C34.1931142,2.39236174 35.0010694,3.24500128 34.9999989,4.56448528 L34.9689227,38.0303171 C34.9678511,39.3508817 34.1588244,40.6530752 33.1676326,40.9286431 L7.93457014,47.9475199 C6.93694907,48.2252491 6.12899386,47.3726096 6.13006436,46.0531256 L6.16006906,12.5872938 C6.16221218,11.2667292 6.97123894,9.96561636 7.96993158,9.68788713 L12.4726209,8.43540395 L12.4672631,14.4179293 C12.4661916,15.738494 13.2741468,16.5814076 14.2653385,16.304759 L26.8840129,12.7947803 C27.8827055,12.5181317 28.6853029,11.2267448 28.6863745,9.9072608 L28.6917323,3.92257415 L33.2019225,2.66792965 Z" id="Fill-119" fill="url(#linearGradient-6)" fill-rule="nonzero"></path>
        </g>
    </g>
</svg>