<?xml version="1.0" encoding="UTF-8"?>
<svg width="50px" height="50px" viewBox="0 0 50 50" version="1.1" xmlns="http://www.w3.org/2000/svg" xmlns:xlink="http://www.w3.org/1999/xlink">
    <title>设计单位</title>
    <defs>
        <linearGradient x1="0%" y1="143.64304%" x2="74.6814448%" y2="-158.540869%" id="linearGradient-1">
            <stop stop-color="#003B7C" offset="0%"></stop>
            <stop stop-color="#4EA2FF" offset="100%"></stop>
        </linearGradient>
        <linearGradient x1="3.51586263%" y1="542.383794%" x2="103.275736%" y2="-48.8406678%" id="linearGradient-2">
            <stop stop-color="#003B7C" offset="0%"></stop>
            <stop stop-color="#4EA2FF" offset="100%"></stop>
        </linearGradient>
        <linearGradient x1="18.1456719%" y1="-176.565759%" x2="50%" y2="160.113205%" id="linearGradient-3">
            <stop stop-color="#C3EEFF" offset="0%"></stop>
            <stop stop-color="#25A8FF" offset="100%"></stop>
        </linearGradient>
        <linearGradient x1="50%" y1="-2.78506871%" x2="53.3966258%" y2="100%" id="linearGradient-4">
            <stop stop-color="#C3EEFF" offset="0%"></stop>
            <stop stop-color="#25A8FF" offset="100%"></stop>
        </linearGradient>
        <linearGradient x1="26.1111018%" y1="605.226271%" x2="77.3792028%" y2="-61.4556084%" id="linearGradient-5">
            <stop stop-color="#003B7C" offset="0%"></stop>
            <stop stop-color="#4EA2FF" offset="100%"></stop>
        </linearGradient>
        <linearGradient x1="100%" y1="88.3510772%" x2="142.496399%" y2="-219.114574%" id="linearGradient-6">
            <stop stop-color="#003B7C" offset="0%"></stop>
            <stop stop-color="#4EA2FF" offset="100%"></stop>
        </linearGradient>
        <linearGradient x1="50%" y1="2.81229424%" x2="61.3373322%" y2="221.787498%" id="linearGradient-7">
            <stop stop-color="#C3EEFF" offset="0%"></stop>
            <stop stop-color="#25A8FF" offset="100%"></stop>
        </linearGradient>
        <linearGradient x1="100%" y1="200.555126%" x2="103.275736%" y2="-15.7837274%" id="linearGradient-8">
            <stop stop-color="#003B7C" offset="0%"></stop>
            <stop stop-color="#4EA2FF" offset="100%"></stop>
        </linearGradient>
        <linearGradient x1="3.51586263%" y1="541.419943%" x2="103.275736%" y2="-48.6471851%" id="linearGradient-9">
            <stop stop-color="#003B7C" offset="0%"></stop>
            <stop stop-color="#4EA2FF" offset="100%"></stop>
        </linearGradient>
    </defs>
    <g id="页面-1" stroke="none" stroke-width="1" fill="none" fill-rule="evenodd">
        <g id="设计单位" fill-rule="nonzero">
            <g id="编组-91" transform="translate(7.000000, 0.000000)">
                <polygon id="Fill-1" fill="#FFEAA4" points="31.1883162 11.2330992 25.0154993 9.57363307 26.0826058 7.78954296 32.2554226 9.44791594"></polygon>
                <polygon id="Fill-3" fill="#FFEAA4" points="27.9872127 16.5881026 21.8143959 14.9286364 22.8815023 13.1445463 29.0543191 14.8029193"></polygon>
                <polygon id="Fill-5" fill="url(#linearGradient-1)" points="26.7044191 39.4457733 20.5316023 37.7874003 16.1790166 32.923787 22.3518334 34.5832532"></polygon>
                <polygon id="Fill-7" fill="url(#linearGradient-2)" points="22.3521571 34.5830345 16.1793403 32.9235684 21.8612234 23.419353 28.0340402 25.0788192"></polygon>
                <polygon id="Fill-9" fill="url(#linearGradient-3)" points="28.0336086 25.0784912 32.3797205 29.9431977 34.0737115 39.7644389 26.7043112 39.4463199 22.3517255 34.5827066"></polygon>
                <polygon id="Fill-11" fill="#FFEAA4" points="32.2552068 9.44813458 26.08239 7.7886684 22.8897025 4.22158137 29.0625193 5.87995435"></polygon>
                <polygon id="Fill-13" fill="#FFEAA4" points="24.7793117 21.9537099 18.6064948 20.2953369 19.6736013 18.5112468 25.8464181 20.1685266"></polygon>
                <polygon id="Fill-15" fill="#FFEAA4" points="29.0541033 14.8030286 22.8812865 13.1435624 19.6810462 9.57866176 25.853863 11.2359415"></polygon>
                <polygon id="Fill-17" fill="#FFEAA4" points="21.5782082 27.3086039 15.4053914 25.6502309 16.4724978 23.8661408 22.6453146 25.5234206"></polygon>
                <polygon id="Fill-19" fill="#FFEAA4" points="25.8462023 20.1686359 19.6733855 18.5102629 16.480698 14.9333371 22.6535148 16.5917101"></polygon>
                <polygon id="Fill-21" fill="#FFEAA4" points="18.3771047 32.673118 12.2042879 31.0136518 13.2713943 29.2295617 19.4442112 30.8879347"></polygon>
                <polygon id="Fill-23" fill="#FFEAA4" points="22.6450988 25.5236392 16.472282 23.8652662 13.2795945 20.2981792 19.4524114 21.955459"></polygon>
                <polygon id="Fill-25" fill="#FFEAA4" points="15.1692037 38.0301983 8.99638689 36.3707322 10.0634933 34.5866421 16.2363101 36.245015"></polygon>
                <polygon id="Fill-27" fill="#FFEAA4" points="19.4439954 30.8881533 13.2711785 29.2286871 10.0709382 25.6539477 16.2437551 27.3123207"></polygon>
                <polygon id="Fill-29" fill="#FFEAA4" points="11.9681002 43.3947124 5.79528342 41.7352463 6.86238984 39.9413174 13.0352067 41.5996904"></polygon>
                <polygon id="Fill-31" fill="#FFEAA4" points="16.2359864 36.2452337 10.0631696 34.5857675 6.87048216 31.0186805 13.043299 32.6770535"></polygon>
                <polygon id="Fill-33" fill="#FFEAA4" points="13.034883 41.6001277 6.86206615 39.9406615 3.66182586 36.3757609 9.83572166 38.0330406"></polygon>
                <path d="M21.5782082,27.3086039 L22.6453146,25.5234206 L19.4515482,21.9563335 L18.3855207,23.7404236 L21.5782082,27.3086039 L21.5782082,27.3086039 Z M15.1690958,38.0306356 L16.2362022,36.2454523 L13.0424358,32.6772721 L11.9764084,34.4624554 L15.1690958,38.0306356 L15.1690958,38.0306356 Z M27.9948734,7.66502834 L31.1886398,11.2332086 L32.2557463,9.44802526 L29.0619798,5.87984503 L27.9948734,7.66502834 L27.9948734,7.66502834 Z M24.7795275,21.9541471 L25.8466339,20.1689638 L22.6528674,16.5909449 L21.585761,18.3761282 L24.7795275,21.9541471 L24.7795275,21.9541471 Z M27.9873206,16.5876653 L29.054427,14.8035752 L25.8541867,11.2364881 L24.7870803,13.0216714 L27.9873206,16.5876653 L27.9873206,16.5876653 Z M18.3768889,32.6728993 L19.4439954,30.887716 L16.2437551,27.3129766 L15.1766486,29.0981599 L18.3768889,32.6728993 L18.3768889,32.6728993 Z M11.9677766,43.3949311 L13.034883,41.599909 L9.83572166,38.0339152 L8.76753626,39.8180053 L11.9677766,43.3949311 L11.9677766,43.3949311 Z M31.1897188,1.6579357 L37,8.15040579 L11.9818032,50 L6.17260103,43.5075299 L31.1897188,1.6579357 Z" id="Fill-35" fill="url(#linearGradient-4)"></path>
                <polygon id="Fill-37" fill="url(#linearGradient-5)" points="6.17281683 43.5079672 2.84217094e-13 41.8495942 25.0171178 2.0250468e-13 31.1899346 1.65837298"></polygon>
                <polygon id="Fill-39" fill="url(#linearGradient-6)" points="11.9822348 49.9997814 5.80941799 48.3414084 0.000215795029 41.8500315 6.17303262 43.5084045"></polygon>
                <polygon id="Fill-41" fill="url(#linearGradient-7)" points="20.7795508 16.983073 15.0976677 26.4785428 6.26409812 16.6070148 11.9459813 7.11263818"></polygon>
                <polygon id="Fill-43" fill="url(#linearGradient-8)" points="15.0979914 26.4779962 8.92517453 24.81853 0.0916049901 14.9491884 6.26442182 16.6075614"></polygon>
                <polygon id="Fill-45" fill="url(#linearGradient-9)" points="6.26442182 16.6072334 0.0916049901 14.9488605 5.77348812 5.45448384 11.9463049 7.11176363"></polygon>
            </g>
        </g>
    </g>
</svg>