<?xml version="1.0" encoding="UTF-8"?>
<svg width="50px" height="50px" viewBox="0 0 50 50" version="1.1" xmlns="http://www.w3.org/2000/svg" xmlns:xlink="http://www.w3.org/1999/xlink">
    <title>设计单位-灰</title>
    <defs>
        <linearGradient x1="33.39498%" y1="69.1978386%" x2="78.1841671%" y2="30.8021614%" id="linearGradient-1">
            <stop stop-color="#5F5F5F" offset="0%"></stop>
            <stop stop-color="#B8B8B8" offset="100%"></stop>
            <stop stop-color="#B8B8B8" offset="100%"></stop>
        </linearGradient>
        <linearGradient x1="33.39498%" y1="94.3408229%" x2="78.1841671%" y2="5.65917714%" id="linearGradient-2">
            <stop stop-color="#5F5F5F" offset="0%"></stop>
            <stop stop-color="#B8B8B8" offset="100%"></stop>
            <stop stop-color="#B8B8B8" offset="100%"></stop>
        </linearGradient>
        <linearGradient x1="60.4517036%" y1="-146.769352%" x2="-29.7289809%" y2="163.131584%" id="linearGradient-3">
            <stop stop-color="#E7E7E7" offset="0%"></stop>
            <stop stop-color="#AFAFAF" offset="100%"></stop>
        </linearGradient>
        <linearGradient x1="54.2986286%" y1="0%" x2="36.8611653%" y2="100%" id="linearGradient-4">
            <stop stop-color="#E7E7E7" offset="0%"></stop>
            <stop stop-color="#AFAFAF" offset="100%"></stop>
        </linearGradient>
        <linearGradient x1="34.6739185%" y1="121.8517%" x2="64.4842679%" y2="0%" id="linearGradient-5">
            <stop stop-color="#5F5F5F" offset="0%"></stop>
            <stop stop-color="#B8B8B8" offset="100%"></stop>
            <stop stop-color="#B8B8B8" offset="100%"></stop>
        </linearGradient>
        <linearGradient x1="33.39498%" y1="73.1312208%" x2="222.703488%" y2="-202.713876%" id="linearGradient-6">
            <stop stop-color="#5F5F5F" offset="0%"></stop>
            <stop stop-color="#B8B8B8" offset="100%"></stop>
            <stop stop-color="#B8B8B8" offset="100%"></stop>
        </linearGradient>
        <linearGradient x1="55.9387102%" y1="0%" x2="31.8482268%" y2="100%" id="linearGradient-7">
            <stop stop-color="#E7E7E7" offset="0%"></stop>
            <stop stop-color="#AFAFAF" offset="100%"></stop>
        </linearGradient>
        <linearGradient x1="33.39498%" y1="79.5111786%" x2="78.1841671%" y2="20.4888214%" id="linearGradient-8">
            <stop stop-color="#5F5F5F" offset="0%"></stop>
            <stop stop-color="#B8B8B8" offset="100%"></stop>
            <stop stop-color="#B8B8B8" offset="100%"></stop>
        </linearGradient>
        <linearGradient x1="0%" y1="385.181113%" x2="155.536777%" y2="-11.8816861%" id="linearGradient-9">
            <stop stop-color="#5F5F5F" offset="0%"></stop>
            <stop stop-color="#B8B8B8" offset="100%"></stop>
            <stop stop-color="#B8B8B8" offset="100%"></stop>
        </linearGradient>
    </defs>
    <g id="页面-1" stroke="none" stroke-width="1" fill="none" fill-rule="evenodd">
        <g id="设计单位-灰" fill-rule="nonzero">
            <g id="编组-90" transform="translate(7.000000, 0.000000)">
                <path d="M31.1883162,11.2330992 L25.0154993,9.57363307 L26.0826058,7.78954296 L22.8897025,4.22158137 L29.0625193,5.87995435 L32.2552068,9.44813458 L31.1883162,11.2330992 Z" id="形状结合" fill="#949494"></path>
                <path d="M22.8815023,13.1445463 L29.0543191,14.8029193 L27.9872127,16.5881026 L21.8143959,14.9286364 L22.8815023,13.1445463 Z M19.6810462,9.57866176 L25.853863,11.2359415 L29.0541033,14.8030286 L22.8812865,13.1435624 L19.6810462,9.57866176 Z" id="形状结合" fill="#949494"></path>
                <polygon id="Fill-5" fill="url(#linearGradient-1)" points="26.7044191 39.4457733 20.5316023 37.7874003 16.1790166 32.923787 22.3518334 34.5832532"></polygon>
                <polygon id="Fill-7" fill="url(#linearGradient-2)" points="22.3521571 34.5830345 16.1793403 32.9235684 21.8612234 23.419353 28.0340402 25.0788192"></polygon>
                <polygon id="Fill-9" fill="url(#linearGradient-3)" points="28.0336086 25.0784912 32.3797205 29.9431977 34.0737115 39.7644389 26.7043112 39.4463199 22.3517255 34.5827066"></polygon>
                <path d="M19.6736013,18.5112468 L25.8464181,20.1685266 L24.7793117,21.9537099 L18.6064948,20.2953369 L19.6736013,18.5112468 Z M16.480698,14.9333371 L22.6535148,16.5917101 L25.8462023,20.1686359 L19.6733855,18.5102629 L16.480698,14.9333371 Z" id="形状结合" fill="#949494"></path>
                <path d="M21.5782082,27.3086039 L15.4053914,25.6502309 L16.4724978,23.8661408 L13.2795945,20.2981792 L19.4524114,21.955459 L22.6450988,25.5236392 L21.5782082,27.3086039 Z" id="形状结合" fill="#949494"></path>
                <path d="M10.0709382,25.6539477 L16.2437551,27.3123207 L19.4429382,30.8869477 L19.4442112,30.8879347 L19.4439954,30.8881533 L19.4429382,30.8879477 L18.3771047,32.673118 L12.2042879,31.0136518 L13.2713943,29.2295617 L16.3569382,30.0579477 L13.2711785,29.2286871 L10.0709382,25.6539477 Z" id="形状结合" fill="#949494"></path>
                <path d="M6.87048216,31.0186805 L13.043299,32.6770535 L16.2363101,36.245015 L15.1692037,38.0301983 L8.99638689,36.3707322 L10.0634933,34.5866421 L10.0631696,34.5857675 L6.87048216,31.0186805 Z" id="形状结合" fill="#949494"></path>
                <path d="M3.66182586,36.3757609 L9.83572166,38.0330406 L13.0338259,41.5987609 L13.0352067,41.5996904 L13.034883,41.6001277 L13.0338259,41.5997609 L11.9681002,43.3947124 L5.79528342,41.7352463 L6.86238984,39.9413174 L9.94882586,40.7697609 L6.86206615,39.9406615 L3.66182586,36.3757609 Z" id="形状结合" fill="#949494"></path>
                <path d="M21.5782082,27.3086039 L22.6453146,25.5234206 L19.4515482,21.9563335 L18.3855207,23.7404236 L21.5782082,27.3086039 L21.5782082,27.3086039 Z M15.1690958,38.0306356 L16.2362022,36.2454523 L13.0424358,32.6772721 L11.9764084,34.4624554 L15.1690958,38.0306356 L15.1690958,38.0306356 Z M27.9948734,7.66502834 L31.1886398,11.2332086 L32.2557463,9.44802526 L29.0619798,5.87984503 L27.9948734,7.66502834 L27.9948734,7.66502834 Z M24.7795275,21.9541471 L25.8466339,20.1689638 L22.6528674,16.5909449 L21.585761,18.3761282 L24.7795275,21.9541471 L24.7795275,21.9541471 Z M27.9873206,16.5876653 L29.054427,14.8035752 L25.8541867,11.2364881 L24.7870803,13.0216714 L27.9873206,16.5876653 L27.9873206,16.5876653 Z M18.3768889,32.6728993 L19.4439954,30.887716 L16.2437551,27.3129766 L15.1766486,29.0981599 L18.3768889,32.6728993 L18.3768889,32.6728993 Z M11.9677766,43.3949311 L13.034883,41.599909 L9.83572166,38.0339152 L8.76753626,39.8180053 L11.9677766,43.3949311 L11.9677766,43.3949311 Z M31.1897188,1.6579357 L37,8.15040579 L11.9818032,50 L6.17260103,43.5075299 L31.1897188,1.6579357 Z" id="Fill-35" fill="url(#linearGradient-4)"></path>
                <polygon id="Fill-37" fill="url(#linearGradient-5)" points="6.17281683 43.5079672 2.84217094e-13 41.8495942 25.0171178 2.0250468e-13 31.1899346 1.65837298"></polygon>
                <polygon id="Fill-39" fill="url(#linearGradient-6)" points="11.9822348 49.9997814 5.80941799 48.3414084 0.000215795029 41.8500315 6.17303262 43.5084045"></polygon>
                <polygon id="Fill-41" fill="url(#linearGradient-7)" points="20.7795508 16.983073 15.0976677 26.4785428 6.26409812 16.6070148 11.9459813 7.11263818"></polygon>
                <polygon id="Fill-43" fill="url(#linearGradient-8)" points="15.0979914 26.4779962 8.92517453 24.81853 0.0916049901 14.9491884 6.26442182 16.6075614"></polygon>
                <polygon id="Fill-45" fill="url(#linearGradient-9)" points="6.26442182 16.6072334 0.0916049901 14.9488605 5.77348812 5.45448384 11.9463049 7.11176363"></polygon>
            </g>
        </g>
    </g>
</svg>