<?xml version="1.0" encoding="UTF-8"?>
<svg width="50px" height="50px" viewBox="0 0 50 50" version="1.1" xmlns="http://www.w3.org/2000/svg" xmlns:xlink="http://www.w3.org/1999/xlink">
    <title>运维单位</title>
    <defs>
        <linearGradient x1="3.51586263%" y1="291.267792%" x2="103.275736%" y2="1.56812648%" id="linearGradient-1">
            <stop stop-color="#003B7C" offset="0%"></stop>
            <stop stop-color="#4EA2FF" offset="100%"></stop>
        </linearGradient>
        <linearGradient x1="16.6149762%" y1="605.226271%" x2="88.2627666%" y2="-61.4556084%" id="linearGradient-2">
            <stop stop-color="#003B7C" offset="0%"></stop>
            <stop stop-color="#4EA2FF" offset="100%"></stop>
        </linearGradient>
        <linearGradient x1="12.9784428%" y1="-160.455856%" x2="12.9784428%" y2="140.220113%" id="linearGradient-3">
            <stop stop-color="#C3EEFF" offset="0%"></stop>
            <stop stop-color="#25A8FF" offset="100%"></stop>
        </linearGradient>
        <linearGradient x1="38.5193276%" y1="128.798638%" x2="61.4806724%" y2="2.68511646%" id="linearGradient-4">
            <stop stop-color="#003B7C" offset="0%"></stop>
            <stop stop-color="#4EA2FF" offset="100%"></stop>
        </linearGradient>
        <linearGradient x1="51.1875385%" y1="0%" x2="46.5271414%" y2="100%" id="linearGradient-5">
            <stop stop-color="#C3EEFF" offset="0%"></stop>
            <stop stop-color="#25A8FF" offset="100%"></stop>
        </linearGradient>
        <linearGradient x1="3.51586263%" y1="230.854032%" x2="103.275736%" y2="13.6955288%" id="linearGradient-6">
            <stop stop-color="#003B7C" offset="0%"></stop>
            <stop stop-color="#4EA2FF" offset="100%"></stop>
        </linearGradient>
        <linearGradient x1="3.51586263%" y1="99.4582825%" x2="103.275736%" y2="40.0717901%" id="linearGradient-7">
            <stop stop-color="#003B7C" offset="0%"></stop>
            <stop stop-color="#4EA2FF" offset="100%"></stop>
        </linearGradient>
        <linearGradient x1="3.51586263%" y1="236.650374%" x2="103.275736%" y2="12.5319764%" id="linearGradient-8">
            <stop stop-color="#003B7C" offset="0%"></stop>
            <stop stop-color="#4EA2FF" offset="100%"></stop>
        </linearGradient>
        <linearGradient x1="3.51586263%" y1="251.966164%" x2="103.275736%" y2="9.45749897%" id="linearGradient-9">
            <stop stop-color="#003B7C" offset="0%"></stop>
            <stop stop-color="#4EA2FF" offset="100%"></stop>
        </linearGradient>
        <linearGradient x1="3.51586263%" y1="159.413105%" x2="103.275736%" y2="28.0365144%" id="linearGradient-10">
            <stop stop-color="#003B7C" offset="0%"></stop>
            <stop stop-color="#4EA2FF" offset="100%"></stop>
        </linearGradient>
        <linearGradient x1="66.6115641%" y1="-67.5352576%" x2="118.268697%" y2="289.463203%" id="linearGradient-11">
            <stop stop-color="#C3EEFF" offset="0%"></stop>
            <stop stop-color="#25A8FF" offset="100%"></stop>
        </linearGradient>
    </defs>
    <g id="页面-1" stroke="none" stroke-width="1" fill="none" fill-rule="evenodd">
        <g id="编组-95" transform="translate(6.000000, 0.000250)">
            <path d="M33.2828969,42.3026152 L27.2567518,40.7050749 C27.235685,40.7008653 27.2167249,40.6945509 27.1977649,40.6871841 L33.22391,42.283672 C33.2428701,42.2899864 33.2618302,42.2963008 33.2828969,42.3026152" id="Fill-1" fill="#6E6E6E"></path>
            <path d="M33.2238047,42.284093 L27.1976595,40.6865527 C27.1376193,40.6644523 27.1081258,40.6518235 27.0796857,40.6381424 L33.1047775,42.2335779 C33.134271,42.2483115 33.1637644,42.2609402 33.2238047,42.284093" id="Fill-2" fill="#6E6E6E"></path>
            <path d="M33.1049882,42.2337884 L27.078843,40.6373004 L27.0377629,40.6162525 C27.0093227,40.6004665 26.981936,40.5857329 26.9534958,40.5678422 C26.9398025,40.5583706 26.9261091,40.5499514 26.9124157,40.5415322 C26.8829222,40.5204842 26.8523754,40.4994363 26.822882,40.4762835 C26.8091886,40.4657595 26.7965485,40.4573404 26.7839085,40.4468164 C26.7407216,40.4131396 26.6975348,40.3752533 26.6543479,40.3342098 L32.6804931,41.9317501 C32.7247333,41.9717412 32.7668668,42.0085752 32.8100536,42.0433043 C32.8226937,42.0538283 32.8353337,42.0632999 32.8479738,42.0727715 C32.8785206,42.0959242 32.908014,42.1180246 32.9375075,42.1369677 C32.9512009,42.1464393 32.9659476,42.1559109 32.979641,42.1643301 C33.0080811,42.1811685 33.0354679,42.1980068 33.0628547,42.211688 C33.0776014,42.2201072 33.0912948,42.227474 33.1049882,42.2337884" id="Fill-4" fill="#6E6E6E"></path>
            <path d="M29.4967798,15.508349 L29.4620197,15.5136109 C29.4072461,15.5209777 29.3503659,15.5283445 29.2366054,15.5367637 C29.1955252,15.5388685 29.154445,15.5409733 29.0427912,15.5420257 C29.0038177,15.541289 28.9658976,15.5402366 28.8616171,15.5339222 C28.8226436,15.530765 28.7847235,15.5265554 28.6793897,15.5128743 C28.6688563,15.5118219 28.658323,15.5097171 28.6467362,15.5076123 C28.6136614,15.5023503 28.5725813,15.4939311 28.5009543,15.4802499 C28.4756742,15.4739355 28.4493408,15.4676212 28.4230073,15.4602544 L22.4055911,13.8652631 L22.4363623,13.8740273 C22.449529,13.8771845 22.4626958,13.8800786 22.4758625,13.8827096 C22.5229116,13.892532 22.5568524,13.8990802 22.5839271,13.9042253 L22.6205911,13.9111244 L22.6532445,13.9163863 L22.6532445,13.9163863 C22.7585783,13.9300675 22.7964985,13.9342771 22.835472,13.9374343 C22.9144723,13.9421701 22.9555525,13.943946 22.9867082,13.944982 L23.0155927,13.9455378 L23.0176994,13.9455378 C23.1293532,13.9444854 23.16938,13.9423806 23.2104602,13.9402758 C23.325274,13.9318566 23.3800476,13.9244898 23.4358745,13.917123 C23.4474612,13.9150182 23.4601013,13.9129134 23.4706346,13.911861 C23.5329922,13.9010213 23.5846058,13.8915498 23.6362193,13.8799734 C23.725753,13.857873 23.7573532,13.8505062 23.79106,13.842087 C23.8616336,13.8210391 23.9100871,13.8052531 23.9574873,13.7894671 L23.9835574,13.7801271 L23.9835574,13.7801271 L24.0077315,13.7717868 C24.1130653,13.7339005 24.1741589,13.7096954 24.2352525,13.6833854 C24.3163595,13.6476039 24.3795598,13.6170843 24.4438134,13.58446 L28.6535911,14.6992631 L24.443392,13.5842495 C24.5592592,13.522158 24.605606,13.4958481 24.6519529,13.4684857 C24.758656,13.4022899 24.8039495,13.3738751 24.842923,13.3475652 L24.8442689,13.346727 C24.8532984,13.3413034 24.8556684,13.3399879 24.8583018,13.3384093 C24.9804889,13.2531651 25.0215691,13.2226455 25.0626493,13.1910736 C25.1837831,13.0974101 25.22381,13.0637334 25.2648901,13.0300567 C25.3870773,12.9237645 25.4313175,12.8827209 25.4755577,12.8416774 C25.6009049,12.721704 25.6641051,12.6575077 25.7273054,12.5901543 C25.797879,12.5143816 25.8558126,12.4480805 25.9137462,12.380727 C26.0128652,12.2608589 26.0539454,12.2103438 26.0950256,12.1577239 L26.0958515,12.1571354 L26.1499213,12.08502 C26.2138632,11.9998852 26.2430195,11.9608202 26.2708277,11.9204081 C26.3751081,11.7709676 26.4088149,11.7204525 26.4425217,11.668885 C26.5373221,11.5194444 26.5720822,11.4615625 26.6036824,11.4089426 C26.6056837,11.4053645 26.6077904,11.4022073 26.6098971,11.3979977 C26.6486599,11.3314861 26.6776478,11.2813078 26.7007032,11.240862 L26.755915,11.1421218 C26.7634316,11.1283312 26.7704257,11.1153235 26.7773778,11.1022738 C26.8165619,11.028185 26.8479935,10.968072 26.8746388,10.9162098 L26.9431816,10.7796506 C26.9532009,10.7591078 26.9627652,10.7391965 26.9722453,10.7192009 L28.2932361,7.93013544 L28.3364493,7.84197079 L28.3364493,7.84197079 L28.3800311,7.75754215 C28.4137379,7.69966026 28.4348047,7.66177393 28.4527114,7.63125438 C28.4610328,7.61694177 28.4684062,7.60431299 28.4768329,7.59168421 C28.5263397,7.51380675 28.5558332,7.46960603 28.58638,7.42856251 C28.6115548,7.3992006 28.6326215,7.37394304 28.6515816,7.35184268 L28.7355284,7.25543965 C28.7653842,7.222524 28.7802995,7.20850606 28.7948355,7.19524585 C28.830649,7.1626215 28.8611958,7.13841635 28.8917426,7.11736839 C29.0208818,7.13557487 29.1288279,7.15123456 29.2185722,7.16515147 L29.3748033,7.19093101 L35.4009485,8.78741894 C35.2892947,8.76742338 35.1334007,8.74427062 34.9174664,8.71375107 C34.887341,8.73490427 34.8567942,8.75910943 34.8199274,8.79173377 C34.7957006,8.81383413 34.7714738,8.83803929 34.6777268,8.94854109 L34.6762747,8.94836839 L34.6470483,8.9839806 C34.6361199,8.99674092 34.6245332,9.0104221 34.6124198,9.02515567 C34.5819784,9.06609396 34.5524849,9.11029468 34.5019247,9.18817214 C34.4945513,9.20080092 34.487178,9.21342969 34.4787513,9.22816327 C34.4668837,9.24822899 34.4530966,9.27175593 34.4355488,9.30267305 L34.406703,9.35518772 C34.3772095,9.40991242 34.3477161,9.46568952 34.3192759,9.52672861 L32.9984958,12.3154783 C32.9509902,12.4156666 32.9014833,12.5145921 32.8035229,12.6987617 C32.7677095,12.7640104 32.7329493,12.8292591 32.6360422,12.9944856 C32.6339356,12.9986952 32.6318289,13.0029048 32.6297222,13.006062 L29.4305911,12.1572631 L32.6298275,13.0064829 C32.5982274,13.0580505 32.5624139,13.1169847 32.4686669,13.2653729 C32.4349601,13.3169404 32.4012533,13.3674555 32.2969728,13.516896 C32.2611593,13.5674111 32.2253459,13.6168738 32.1210654,13.754738 L29.2955911,13.0052631 L32.1211708,13.7552642 C32.0800906,13.8068317 32.0390104,13.8573468 31.9399967,13.9773202 L31.9385911,13.9772631 L31.851016,14.079166 C31.8203375,14.1135005 31.7882107,14.1487558 31.7534506,14.1866422 C31.6902503,14.2539957 31.62705,14.3181919 31.5017028,14.4381653 C31.4574627,14.4792089 31.4132225,14.5202524 31.289982,14.6265446 C31.2499551,14.6602213 31.2088749,14.6938981 31.0887944,14.7875615 C31.0477143,14.8191334 31.0055808,14.849653 30.8844469,14.9348972 L30.8766786,14.939633 L30.8701215,14.9440531 C30.831148,14.970363 30.7848012,14.9998302 30.6784141,15.0650789 C30.6317512,15.0933884 30.5854043,15.1186459 30.4695372,15.1807374 L30.4699585,15.1809479 C30.4067583,15.2135723 30.3425047,15.2440918 30.2613977,15.2809257 C30.2155775,15.3006582 30.1703498,15.3192067 30.1057176,15.342787 L30.0341927,15.3680643 C30.0183926,15.3743787 30.0015392,15.3796407 29.9836325,15.3859551 C29.9362323,15.401741 29.8877788,15.417527 29.8161518,15.438575 C29.7834983,15.4480465 29.7518982,15.4554133 29.6623645,15.4764613 C29.6107509,15.4880377 29.5591374,15.4985617 29.4969905,15.5080332 L23.5985911,13.9452631 L29.4967798,15.508349 Z" id="形状结合" fill="url(#linearGradient-1)" fill-rule="nonzero"></path>
            <path d="M28.1252287,26.5886277 L22.0990836,24.9921397 C22.1138303,24.9931921 22.1296304,24.9931921 22.1443771,24.9963493 L28.1705223,26.5928372 C28.1557755,26.5907324 28.1399755,26.5907324 28.1252287,26.5886277" id="Fill-28" fill="#838383"></path>
            <path d="M28.1705223,26.592732 L22.1443771,24.9962441 L22.1496438,24.9962441 L28.1747356,26.5937844 C28.1736823,26.5937844 28.1715756,26.592732 28.1705223,26.592732" id="Fill-29" fill="#7F7F7F"></path>
            <path d="M21.8651373,25.0223436 L27.8912824,26.6198839 C27.8523089,26.6335651 27.8133354,26.6525082 27.7575085,26.6872374 L21.7313634,25.0907494 C21.7871903,25.0560203 21.8261638,25.0370771 21.8651373,25.0223436 Z M22.0425193,24.9879301 C22.0614794,24.9879301 22.0804395,24.9900349 22.0993996,24.9921397 L28.1255447,26.5886277 C28.1065847,26.5865229 28.0876246,26.5844181 28.0686645,26.5844181 C28.0623445,26.5844181 28.0549711,26.5844181 28.0486511,26.5854705 L28.026531,26.5875753 L22.1133634,25.0209301 L28.0261097,26.5877857 L27.9945095,26.5941001 C27.9660694,26.5972573 27.9376293,26.6025193 27.8912824,26.6193577 L21.8651373,25.0218174 C21.8960352,25.011995 21.9189745,25.0063822 21.939261,25.0021726 L21.9683644,24.9965598 C21.9788977,24.994455 21.9894311,24.9923502 22.0010178,24.9912978 C22.0077592,24.9889825 22.0151326,24.9889825 22.0225059,24.9879301 L22.0425193,24.9879301 Z" id="形状结合" fill="#7F7F7F"></path>
            <path d="M21.3542685,25.5492793 L27.3804136,27.1468196 L24.599602,32.92659 L18.5734568,31.3301021 L21.3542685,25.5492793 Z M21.7314687,25.0906442 L27.7576139,26.6871321 C27.7555072,26.6881845 27.7534005,26.6892369 27.7523472,26.6902893 C27.7168497,26.7147049 27.6799829,26.7431197 27.630476,26.7894252 C27.6094092,26.8104732 27.5872892,26.8325735 27.5651691,26.8588835 L27.024963,26.7156442 L27.5648531,26.859094 C27.5501063,26.8769847 27.5343063,26.8969803 27.5174529,26.9190807 C27.4921728,26.9538098 27.467946,26.9885389 27.4458259,27.0264253 C27.4369779,27.0410536 27.4285512,27.0557872 27.4201245,27.0715731 L21.3939793,25.4750852 C21.402406,25.4592992 21.4108327,25.4445657 21.4192594,25.4298321 C21.4418008,25.392051 21.4660276,25.3562695 21.4913077,25.3225927 C21.5081611,25.29944 21.5239612,25.2804968 21.5397612,25.262606 C21.5621973,25.2360856 21.5832641,25.2139852 21.6043308,25.1929373 C21.6538377,25.1466318 21.6896512,25.118217 21.726518,25.0940119 L21.7314687,25.0906442 Z M24.5002723,33.1907419 L23.865963,33.0226442 L24.4999563,33.1908472 C24.4883695,33.2318907 24.4778362,33.2739866 24.4694095,33.3160825 C24.4604561,33.3593361 24.4530827,33.4035368 24.447816,33.4466851 L24.448132,33.4463694 C24.441812,33.4937273 24.4375987,33.5421377 24.435492,33.5894956 C24.4333853,33.6474827 24.4333853,33.7032598 24.4375987,33.7590369 C24.4549787,34.0243465 24.5424058,34.2600836 24.6972464,34.4126814 L32.6801771,41.9316449 L26.6540319,40.3341045 L18.6718386,32.8168249 L21.911963,33.6746442 L18.6711013,32.8161934 C18.5162606,32.6646481 18.4288336,32.4268061 18.4109268,32.1616018 L21.819963,33.0646442 L18.4114535,32.1614966 C18.4072401,32.1067719 18.4072401,32.0499424 18.4093468,31.9920605 C18.4114535,31.9456497 18.4156669,31.8982918 18.4219869,31.8498815 L22.068963,32.8156442 L18.4216709,31.8491448 C18.4269376,31.8059965 18.4343109,31.7628482 18.443791,31.7186475 C18.4527443,31.6764463 18.4622244,31.6354028 18.4748644,31.5933068 C18.4867671,31.5511057 18.5004605,31.5100622 18.5152073,31.4679662 C18.5311127,31.4246074 18.5500727,31.3804067 18.5700862,31.3383108 L18.5693488,31.3383108 C18.5704022,31.3351536 18.5725088,31.3330488 18.5735622,31.330944 L24.5997073,32.9263795 L24.595178,32.9347987 C24.5751646,32.977947 24.5572578,33.0210954 24.5414578,33.0652961 C24.5255524,33.1065501 24.5129123,33.148646 24.5002723,33.1907419 Z" id="形状结合" fill="url(#linearGradient-2)" fill-rule="nonzero"></path>
            <polygon id="Fill-51" fill="#989898" points="27.380519 27.1466091 21.3543738 25.5490688 21.3944006 25.4754009 27.4205458 27.0718889"></polygon>
            <path d="M36.3904539,34.2267226 C37.6418191,35.4033037 36.7391087,37.2934107 35.7163178,39.4171501 C35.6741843,39.5066039 35.6309974,39.5950054 35.5888639,39.681302 C35.5435704,39.7749654 35.5088102,39.8486333 35.4729968,39.9201964 C35.4645701,39.9380871 35.45509,39.9559779 35.4466633,39.9738687 C35.4087432,40.0496413 35.3729297,40.1243616 35.3360628,40.1990819 C35.3255295,40.2201298 35.3149961,40.2411778 35.3034094,40.2622258 C35.2749693,40.3190553 35.2475825,40.3748324 35.2191424,40.4306095 C35.2075556,40.450605 35.1970223,40.4727054 35.1864889,40.4927009 C35.1538354,40.5579496 35.1201286,40.6210935 35.0874751,40.683185 C35.0369149,40.7789532 35.0011014,40.8442019 34.9642346,40.910503 C34.9547546,40.9273414 34.9452745,40.9452321 34.9357945,40.9610181 C34.9063011,41.013638 34.8768076,41.0641531 34.8483675,41.1136158 C34.7862206,41.219908 34.7493537,41.2788423 34.7124869,41.3367242 C34.66298,41.4135493 34.6334866,41.4588024 34.6039931,41.5019507 C34.5924064,41.5187891 34.581873,41.5335227 34.5702863,41.5493086 C34.5386862,41.5956142 34.5060327,41.6398149 34.4744326,41.6819108 C34.4249257,41.7471595 34.3891122,41.7903078 34.3522454,41.8334561 C34.2932585,41.8997572 34.263765,41.9302768 34.2353249,41.9597439 C34.1710713,42.0239402 34.1331512,42.0576169 34.095231,42.0891889 C34.0446708,42.1281276 34.0130707,42.1512804 33.9804172,42.1723283 C33.9151102,42.2144242 33.8814034,42.232315 33.8476966,42.248101 C33.7918697,42.2744109 33.7528962,42.2880921 33.7139227,42.3007209 C33.6538825,42.3154545 33.6296557,42.319664 33.605429,42.3228212 C33.5927889,42.324926 33.5790955,42.3270308 33.5654021,42.3280832 C33.540122,42.330188 33.5158952,42.3312404 33.4916685,42.330188 C33.4221482,42.3280832 33.3905481,42.324926 33.3600013,42.3186117 C33.3020677,42.3091401 33.2630942,42.2975637 33.2241207,42.2838825 C33.1640804,42.2607298 33.134587,42.248101 33.1050935,42.2333674 C33.0914001,42.2281054 33.0766534,42.2207386 33.06296,42.2123194 C33.0355732,42.1975859 33.0081865,42.1817999 32.9797463,42.1639091 C32.966053,42.1554899 32.9513062,42.1460184 32.9376128,42.1375992 C32.9081194,42.1176036 32.8786259,42.0965557 32.8480791,42.0723505 C32.8354391,42.0628789 32.822799,42.0534073 32.810159,42.0439357 C32.7669721,42.0092066 32.7248386,41.9713203 32.6805984,41.9313291 L24.6973518,34.4129971 C24.3866171,34.1078016 24.3465903,33.4605768 24.5993913,32.927011 L27.380203,27.1461882 L27.4202298,27.0714679 C27.4497232,27.0156908 27.4823767,26.9662281 27.5171369,26.9199226 C27.5592704,26.8630931 27.5940305,26.8241543 27.6308973,26.7894252 C27.6825109,26.7410149 27.7193777,26.7115477 27.7572979,26.6873426 C27.8131248,26.6526135 27.8520983,26.6336703 27.8910718,26.6189367 C27.9374186,26.6031507 27.9658587,26.5978888 27.9942989,26.5936792 C28.0122056,26.590522 28.0301123,26.5863124 28.0490724,26.58526 C28.0743525,26.5831552 28.0996326,26.5863124 28.1249127,26.5884172 C28.1417661,26.590522 28.1586195,26.590522 28.1754729,26.5936792 C28.2028597,26.5999936 28.2291932,26.6105175 28.2555266,26.6210415 C28.26922,26.6273559 28.2829134,26.6305131 28.2966068,26.6368275 C28.3355803,26.6589278 28.3724471,26.6841854 28.4072072,26.7168097 L36.3904539,34.2267226 Z" id="Fill-75" fill="url(#linearGradient-3)" fill-rule="nonzero"></path>
            <path d="M27.5790731,1.59669841 L27.5558997,1.59669841 L27.5558997,1.59669841 C27.5168209,1.59648793 27.4757407,1.59754032 27.4315005,1.60385471 L27.4051671,1.60701191 L27.4051671,1.60701191 L27.4025452,1.606 L27.3600257,1.61520502 C27.3279574,1.62190919 27.2907395,1.6307961 27.2436904,1.64342488 L21.2175452,0.0469369555 C21.2881188,0.0279937896 21.3365724,0.0174698085 21.3787059,0.0101030218 C21.3885019,0.00841918484 21.3969286,0.00736678674 21.4053553,0.00631438863 C21.4506489,0.00105239811 21.4906757,5.28910249e-13 21.5296492,5.28910249e-13 L21.5539813,0.000210479623 L21.5539813,0.000210479623 L21.6171816,0.00481472133 L21.6171816,0.00481472133 L21.6681631,0.0119973384 L21.7039766,0.0193641251 L21.7039766,0.0193641251 L27.7301218,1.61585205 C27.718535,1.61269486 27.7069483,1.61059006 27.6943083,1.60848526 C27.6633401,1.60301279 27.6275267,1.5988032 27.5790731,1.59669841 Z" id="形状结合" fill="#8B8B8B"></path>
            <path d="M9.50790565,41.0669946 L15.5340508,42.6634825 L15.5336295,42.7455696 C15.5336295,42.8045039 15.5325761,42.8623858 15.5304695,42.92132 L9.5043243,41.3248321 C9.50643098,41.2669502 9.50853765,41.2080159 9.50853765,41.1490816 L9.50790565,41.1490816 L9.50790565,41.0669946 Z M14.615435,45.3888779 C14.4644917,45.5645231 14.300171,45.7139637 14.1242636,45.8307798 L14.1245796,45.8303589 C14.0013391,45.9134983 13.8728319,45.978747 13.7411647,46.0261049 L13.7384382,46.0260816 L13.7148576,46.0349188 C13.7062992,46.0379444 13.6978725,46.0408385 13.6894458,46.0434695 L13.6441523,46.0571507 C13.6178188,46.0645175 13.5925387,46.0676747 13.5672586,46.0718843 C13.5388185,46.0781986 13.5103784,46.0855654 13.4819382,46.089775 C13.4802529,46.0905117 13.4781462,46.0905117 13.4760396,46.0905117 C13.4433861,46.0957737 13.411786,46.0968261 13.3791325,46.0989309 C13.349639,46.1010357 13.3190922,46.1041929 13.2885454,46.1041929 L13.2875974,46.1045086 C13.2570506,46.1045086 13.2265038,46.1013514 13.1959571,46.0981942 C13.1675169,46.0960894 13.1380235,46.095037 13.1095834,46.089775 L7.08343819,44.4932871 C7.11187831,44.4974967 7.14031843,44.4985491 7.16981189,44.5017063 C7.20035868,44.5038111 7.22985214,44.5069683 7.26145227,44.5080207 L7.26345361,44.507705 C7.29294707,44.507705 7.32349386,44.5045478 7.35404065,44.5034954 C7.38564079,44.5013906 7.41724092,44.4992858 7.44989439,44.4950762 C7.45200106,44.4940238 7.45410774,44.4940238 7.45621441,44.4940238 C7.4842332,44.4890775 7.51267332,44.4827631 7.54111344,44.4764487 C7.56639354,44.4701343 7.59167365,44.4669771 7.61800709,44.4606628 C7.63275382,44.4554008 7.64750055,44.4511912 7.66330061,44.4469816 C7.68120735,44.4417196 7.69806076,44.4364576 7.71491416,44.4301432 L10.7274382,45.2280816 L7.7150195,44.429617 C7.84668671,44.3822591 7.97519392,44.315958 8.09843443,44.233871 C8.27297249,44.1174757 8.43834652,43.9669828 8.59002715,43.7922847 L14.0104382,45.2279946 L8.58928981,43.7913376 C8.70937031,43.6534734 8.81997078,43.4977185 8.92003786,43.3293348 L13.6394382,44.5789946 L8.92003786,43.3289138 C8.98639814,43.2194644 9.04643839,43.1037006 9.10331863,42.9826749 C9.1515615,42.8794346 9.19580168,42.77209 9.23582851,42.6626406 L15.2619737,44.2591285 L15.1987734,44.4218556 L15.1987734,44.4218556 L15.1284382,44.5789946 L15.1294638,44.5791628 C15.0736369,44.6991362 15.01149,44.8159524 14.946183,44.9254018 C14.8461159,45.0942064 14.7355155,45.2499613 14.615435,45.3888779 Z M15.4419891,43.6304259 L15.4055699,43.7907061 L15.4055699,43.7907061 L15.3634382,43.9469946 L12.8974382,43.2939946 L15.3638314,43.9480396 L15.3638314,43.9480396 C15.333074,44.0542266 15.2993672,44.1573616 15.2625003,44.2594442 L9.23635518,42.6619039 C9.273222,42.5619261 9.30798215,42.4577387 9.3374756,42.3514465 L12.1954382,43.1079946 L9.33768627,42.3504993 C9.36717973,42.2473643 9.39351317,42.1410721 9.4166866,42.0347799 L14.1734382,43.2939946 L9.41584393,42.033938 C9.43901736,41.9234362 9.45797744,41.8108296 9.47272417,41.6971706 L13.7254382,42.8239946 L9.47240817,41.6968549 C9.48820823,41.5737243 9.49874161,41.4495413 9.5040083,41.3253583 L15.5301535,42.9218462 C15.5248868,43.0470816 15.5143534,43.1712646 15.4985533,43.2943952 C15.4841226,43.4073175 15.4651625,43.5199241 15.4419891,43.6304259 Z" id="形状结合" fill="#FFEAA4" fill-rule="nonzero"></path>
            <path d="M12.9583241,46.0558878 L6.93217889,44.4583475 C6.95219231,44.4636095 6.97220573,44.4678191 6.99221914,44.4730811 L13.0194176,46.0706214 C12.9983509,46.0653594 12.9783375,46.0611498 12.9583241,46.0558878" id="Fill-123" fill="#7F7F7F"></path>
            <path d="M13.0189963,46.0703057 L6.99285115,44.4727653 C7.02023793,44.4790797 7.04867805,44.4874989 7.07606483,44.4917085 L13.10221,46.0892488 C13.0737699,46.0839868 13.0463831,46.07662 13.0189963,46.0703057" id="Fill-124" fill="#7F7F7F"></path>
            <path d="M13.1023153,46.0887226 L7.07617016,44.4911823 C7.07827684,44.4922347 7.08143685,44.4922347 7.08354353,44.4932871 L13.1096887,46.089775 C13.1065287,46.089775 13.104422,46.0887226 13.1023153,46.0887226" id="Fill-125" fill="#838383"></path>
            <path d="M9.49947895,40.8700909 L15.5256241,42.4665788 C15.5308908,42.5307751 15.5329975,42.5970762 15.5340508,42.6633773 L9.50790565,41.0668893 C9.50685231,41.0005883 9.5036923,40.9342872 9.49947895,40.8700909 Z M8.41791176,38.919471 L14.4440569,40.5159589 C14.469337,40.5264829 14.4946171,40.5359545 14.5188439,40.5485833 C14.5483374,40.5622645 14.5757241,40.5791028 14.6041643,40.5959412 C14.6273377,40.6096224 14.6515645,40.6233035 14.6747379,40.6390895 C14.7021247,40.6569803 14.7284581,40.680133 14.7547916,40.7001286 C14.7769117,40.7180194 14.8000851,40.7338053 14.8222052,40.7538009 L14.8585453,40.7906348 L14.8585453,40.7906348 L14.8948855,40.8274688 C14.9159522,40.8485167 14.937019,40.8685123 14.9559791,40.8906127 C14.9791525,40.9169226 15.0012726,40.9474422 15.0233927,40.9758569 C15.0434061,41.0000621 15.0623662,41.0242672 15.0802729,41.0495248 L15.1403132,41.1463454 L15.1403132,41.1463454 C15.1571666,41.1726554 15.1750733,41.2000177 15.1908734,41.2273801 C15.2098335,41.2621092 15.2266869,41.3010479 15.2445936,41.3378819 C15.2593403,41.367349 15.2751404,41.3947114 15.2877805,41.4273357 C15.3046339,41.465222 15.3193806,41.5062656 15.3341273,41.5473091 C15.3467674,41.578881 15.3594074,41.6094006 15.3699408,41.6420249 C15.3846875,41.6862256 15.3962742,41.7335835 15.4099676,41.7798891 C15.4183943,41.811461 15.4289277,41.8419805 15.4373544,41.8746049 C15.4489411,41.9230152 15.4584212,41.9745827 15.4679012,42.0261502 C15.4742212,42.0587746 15.4815946,42.0903465 15.4868613,42.1240232 C15.4963413,42.1798003 15.5026614,42.2376822 15.5089814,42.2966165 L15.5195148,42.3871228 L15.5195148,42.3871228 C15.5226748,42.4123803 15.5247814,42.4397427 15.5258348,42.4660526 L9.49968962,40.8695647 L9.49336959,40.7895824 C9.49126291,40.7590629 9.48599623,40.7306482 9.48283621,40.6990762 C9.47651619,40.6422467 9.47019616,40.5833124 9.46071612,40.5264829 C9.45544943,40.4938586 9.44807607,40.4622866 9.44175604,40.4286099 C9.43122266,40.3791472 9.42279596,40.3275797 9.41120925,40.278117 L9.38382246,40.1823487 L9.38382246,40.1823487 C9.37118241,40.1360432 9.35854236,40.0897377 9.34379563,40.045537 L9.30903549,39.9497688 L9.30903549,39.9497688 C9.29323542,39.9097776 9.27848869,39.8687341 9.26163529,39.8297954 C9.24899524,39.7992758 9.23319517,39.7698087 9.21844844,39.7403415 C9.20159504,39.7035076 9.1836883,39.6666737 9.16472822,39.6319445 C9.14892815,39.6024774 9.13102141,39.5772198 9.11522134,39.5498575 C9.09520793,39.5172331 9.07519451,39.4835564 9.05412775,39.4540892 C9.03622101,39.4267269 9.0162076,39.4035741 8.99724752,39.3783166 C8.97512742,39.3499018 8.95406067,39.3214871 8.93088724,39.2941247 C8.91087382,39.2720244 8.88980707,39.2520288 8.86979365,39.2309809 C8.84451355,39.2057233 8.82134012,39.1804657 8.79500667,39.157313 C8.77393992,39.1383698 8.75076649,39.1215314 8.7286464,39.1036407 C8.70231295,39.0825927 8.67597951,39.0615448 8.64859273,39.0426016 C8.6254193,39.0257632 8.60119253,39.0141868 8.57696576,38.9994533 C8.54957898,38.9826149 8.5221922,38.9657765 8.49269874,38.951043 C8.46847198,38.9394666 8.44319187,38.929995 8.41791176,38.919471 Z" id="形状结合" fill="#FFEAA4" fill-rule="nonzero"></path>
            <path d="" id="形状结合" fill="#6E6E6E"></path>
            <path d="M15.3944836,15.8791088 L21.4195754,17.4755967 L10.2889556,40.9367077 C10.2786329,40.9583871 10.2680995,40.9794351 10.2586195,41.0015354 C10.1523377,41.2310634 10.0554306,41.462591 9.96800357,41.6993806 L9.96673098,41.6991088 L9.85066175,42.0372004 C9.81379493,42.1505963 9.77903478,42.2645184 9.74638131,42.3787036 C9.68096904,42.6083368 9.6240888,42.838812 9.5766886,43.0692872 C9.52581239,43.3117597 9.48578556,43.5559161 9.45418543,43.7979677 C9.41900395,44.068013 9.39688385,44.3374269 9.38529714,44.6047361 C9.37191975,44.9320319 9.37507976,45.2540657 9.39614652,45.5687327 C9.49821494,47.0915528 10.0048704,48.4428319 10.8907274,49.2584405 C10.942341,49.3057984 10.9950079,49.3510515 11.0950749,49.4299814 C11.1329951,49.4594485 11.1698619,49.4878633 11.266769,49.5541643 C11.3025825,49.5783695 11.3373426,49.6004699 11.4363564,49.6594042 C11.4624265,49.6744008 11.4890891,49.6888055 11.5425624,49.7163816 L11.6059437,49.748858 C11.6428106,49.7667488 11.6807307,49.7835871 11.7786911,49.8246307 C11.825038,49.8435738 11.8713849,49.8593598 11.9514385,49.8867221 C11.977772,49.8940889 12.0041054,49.9014557 12.0346522,49.9098749 L6.00850704,48.3123346 C5.97796024,48.3060202 5.9516268,48.297601 5.92529335,48.2891818 C5.84523969,48.2628719 5.79889283,48.2460335 5.75254597,48.2270903 C5.67907566,48.1963077 5.63937799,48.1797324 5.60856787,48.165821 L5.57979858,48.1523701 C5.48078483,48.101855 5.44497135,48.0829118 5.4102112,48.0629162 C5.31119746,48.0039819 5.27643731,47.9818816 5.24167717,47.9587288 C5.14371676,47.8913753 5.10684994,47.8629606 5.06892978,47.8334934 C4.96886269,47.7535112 4.91619581,47.7093105 4.86458226,47.6609002 C3.97977856,46.8473964 3.47206978,45.4961173 3.36989602,43.9722448 C3.3489346,43.6575778 3.34472124,43.3344915 3.35946797,43.0071957 C3.36698178,42.8296913 3.37978569,42.6507836 3.39778606,42.4710963 L3.42804026,42.2004273 C3.45964039,41.9583758 3.50072056,41.7152718 3.55022744,41.4732203 C3.59794363,41.2423241 3.65482387,41.0118489 3.72013081,40.7824261 C3.78554309,40.5548977 3.85927673,40.3275797 3.94249041,40.1023665 L7.09373098,40.9362527 L3.9418584,40.1018403 C4.02928544,39.8671555 4.12619251,39.6335231 4.23257962,39.4041003 C4.24300766,39.3829471 4.2524877,39.3608468 4.26302108,39.3397988 L15.3944836,15.8791088 Z M26.6018917,1.96324867 C26.0114207,2.36105515 25.4565481,2.84700534 24.9425808,3.40453088 L24.6893464,3.68897108 C24.3093021,4.13013636 23.9542009,4.6110402 23.6256607,5.124139 L23.3846823,5.51467131 C23.1234545,5.95246892 22.8822402,6.4113145 22.6610392,6.88594604 C22.4703851,7.29648654 22.2944777,7.71955058 22.1343704,8.1531386 L18.914731,7.30025267 L22.1341597,8.1536648 C21.9835324,8.56199527 21.8476519,8.97979731 21.726518,9.40391375 C21.6075962,9.8217158 21.5022624,10.2468846 21.413782,10.6752107 C21.3524778,10.9698821 21.2988044,11.2664245 21.2526682,11.5642142 L21.1894211,12.0114405 C21.1272742,12.4955437 21.0851407,12.982804 21.0640739,13.4690119 C21.0455878,13.9069148 21.0439288,14.344344 21.0606966,14.779435 L21.082731,15.2132527 L21.083982,15.2140984 C21.1229555,15.8065986 21.1977425,16.3938367 21.3083429,16.9694985 C21.3409964,17.1420918 21.3799699,17.3136327 21.4199967,17.475702 L15.3938516,15.8792141 C15.3548781,15.7171447 15.3148512,15.5456039 15.2821978,15.3719582 C15.1715973,14.7973488 15.0978637,14.2101107 15.0578368,13.6165581 L19.445731,14.7792527 L15.0575208,13.6161372 C15.0196007,13.039423 15.0132806,12.4563945 15.0375074,11.8723135 C15.0518232,11.548538 15.0748343,11.2242018 15.1072885,10.9006121 L15.1629599,10.4152683 C15.2208935,9.96694674 15.2956805,9.52072994 15.3873209,9.07872274 C15.4761172,8.65039671 15.5803977,8.22522787 15.7004782,7.80637343 C15.8215067,7.38330939 15.9573873,6.96550734 16.1090679,6.55612448 C16.2683325,6.12306266 16.44424,5.69999862 16.6348941,5.28956336 C16.856095,4.81377417 17.0973093,4.355981 17.3585371,3.91818339 C17.672516,3.38962696 18.0150783,2.8912449 18.3827724,2.43068854 L18.6628852,2.09269363 C19.2464343,1.41494925 19.8868637,0.830868304 20.5757465,0.36676074 L20.60524,0.346765176 L25.090731,1.53525267 L20.6045027,0.346028497 C20.6487428,0.317613748 20.6919297,0.290251397 20.7351165,0.264993843 C20.8193836,0.21658353 20.8562504,0.196587966 20.8931172,0.1776448 C20.9868643,0.131339284 21.0332111,0.110291321 21.0785046,0.0934529518 C21.0943047,0.0871385631 21.1090514,0.0818765726 21.1227448,0.0766145821 C21.155609,0.0651434427 21.1872091,0.0556718598 21.2177559,0.0472526749 L27.2439011,1.6437406 C27.2133543,1.65215979 27.1817541,1.66163137 27.1491007,1.67320775 C27.1351966,1.6783645 27.1193965,1.68362649 27.1046498,1.68994088 C27.0593563,1.70677925 27.0119561,1.72782721 26.918209,1.77413273 C26.8823955,1.79307589 26.8455287,1.81307146 26.7612617,1.86148177 C26.7180749,1.88673932 26.674888,1.91410167 26.6306478,1.94356882 C26.6208518,1.94956749 26.6113717,1.95693428 26.6018917,1.96324867 Z" id="形状结合" fill="url(#linearGradient-4)" fill-rule="nonzero"></path>
            <path d="M16.2813939,24.2859806 L10.2552488,22.6894927 C10.2352354,22.6842307 10.2162753,22.6758115 10.1973152,22.6673923 L16.2234604,24.2638802 C16.2424204,24.2722994 16.2613805,24.2807186 16.2813939,24.2859806" id="Fill-158" fill="#6E6E6E"></path>
            <path d="M16.2237764,24.2638802 L10.1976312,22.6673923 C10.1870978,22.6631827 10.1744578,22.6600255 10.1639244,22.6537111 C10.1323243,22.6368728 10.1028308,22.6147724 10.0743907,22.5874101 L16.1005358,24.183898 C16.128976,24.2112603 16.1584694,24.2333607 16.1900696,24.2501991 C16.2006029,24.2565134 16.2121896,24.2596706 16.2237764,24.2638802" id="Fill-159" fill="#6E6E6E"></path>
            <path d="M15.5340508,42.7455696 L15.5340508,42.6634825 C15.5329975,42.5687667 15.5277308,42.477208 15.5193041,42.3867018 C15.5171974,42.3561823 15.5119307,42.3267151 15.5087707,42.2961956 C15.5024507,42.2383137 15.4961307,42.1793794 15.487704,42.1236023 C15.4813839,42.0899255 15.4740106,42.059406 15.4676905,42.0257293 C15.4582105,41.9752141 15.4487305,41.9236466 15.4371437,41.8752363 C15.428717,41.842612 15.419237,41.81104 15.409757,41.7794681 C15.3971169,41.7331626 15.3844769,41.6858047 15.3697301,41.641604 C15.3591968,41.6089796 15.3465567,41.5795125 15.33497,41.5468881 C15.3191699,41.5058446 15.3044232,41.4648011 15.2886231,41.4269147 C15.2749297,41.3953428 15.2591297,41.366928 15.2454363,41.3374609 C15.2264762,41.300627 15.2096228,41.2627406 15.1906627,41.2280115 C15.1748626,41.1995967 15.1580092,41.1732868 15.1401025,41.1459244 C15.1200891,41.1133001 15.101129,41.0806758 15.0800623,41.0501562 C15.0621555,41.0238463 15.0431954,41.0006935 15.023182,40.9754359 C15.0010619,40.9470212 14.9799952,40.9175541 14.9568217,40.8901917 C14.9368083,40.8691437 14.9157416,40.8480958 14.8957282,40.8281002 C14.8715014,40.8028427 14.8472746,40.7775851 14.8219945,40.7533799 C14.7998744,40.7344368 14.776701,40.7175984 14.7545809,40.70076 C14.7282475,40.6797121 14.701914,40.6576117 14.6755806,40.6386686 C14.6513538,40.6228826 14.627127,40.6102538 14.6039536,40.5955202 C14.5755135,40.5786819 14.5481267,40.5628959 14.5196866,40.5481623 C14.4944065,40.5355335 14.4691264,40.5271144 14.4438463,40.5165904 C14.4143528,40.5039616 14.383806,40.4902804 14.3532592,40.4818612 C14.3269258,40.4734421 14.3005923,40.4681801 14.2742589,40.4608133 C14.2437121,40.4534465 14.2131653,40.4450273 14.1815652,40.4408177 C14.153125,40.4366081 14.1236316,40.4355557 14.0951915,40.4323985 C14.0635913,40.4302937 14.0330445,40.4271365 14.0014444,40.4271365 C13.971951,40.4271365 13.9414042,40.4292413 13.9119107,40.4313461 C13.8803106,40.4345033 13.8476571,40.4366081 13.8150036,40.4408177 C13.7844568,40.4450273 13.7528567,40.4523941 13.7223099,40.4597609 C13.6980831,40.4650229 13.6749097,40.4671277 13.6517363,40.4734421 C13.6327762,40.478704 13.6138161,40.4850184 13.5948561,40.4902804 C12.5478383,40.824943 11.7251816,42.3277675 11.7504617,43.862164 C11.751515,43.9558274 11.7567817,44.0494908 11.7641551,44.1399971 C11.7662617,44.166307 11.7715284,44.1894598 11.7736351,44.2147173 C11.7810085,44.2789136 11.7873285,44.3441623 11.7978619,44.4052014 C11.8031286,44.4336161 11.8094486,44.4620309 11.8147153,44.4893932 C11.8252487,44.5451703 11.8347287,44.6019998 11.8484221,44.6546197 C11.8568488,44.6893489 11.8673822,44.7198684 11.8758089,44.7524927 C11.8895023,44.7977459 11.901089,44.8440514 11.9158357,44.8882521 C11.9274224,44.9219288 11.9411158,44.9545532 11.9537559,44.9871775 C11.9685026,45.0261163 11.982196,45.0671598 11.9990494,45.1039937 C12.0116894,45.1355657 12.0274895,45.1639804 12.0422362,45.1934476 C12.060143,45.2302815 12.0769964,45.2681678 12.0959565,45.302897 C12.1117565,45.3313117 12.1296633,45.3565693 12.1465167,45.384984 C12.1665301,45.416556 12.1865435,45.4502327 12.2076103,45.4818046 C12.225517,45.5070622 12.2455304,45.5302149 12.2644905,45.5554725 C12.2866106,45.5838873 12.3087307,45.6133544 12.3319041,45.6396644 C12.3519175,45.6617647 12.3740376,45.6828127 12.3951044,45.704913 C12.4182778,45.7291182 12.4425046,45.7533233 12.4677847,45.7764761 C12.4899048,45.7954193 12.5130782,45.81331 12.5362516,45.8322532 C12.5625851,45.8511964 12.5878652,45.8732967 12.6141986,45.8911875 C12.6384254,45.9080259 12.6637055,45.921707 12.6889856,45.9353882 C12.7163724,45.9522266 12.7427058,45.969065 12.7700926,45.9816937 C12.7964261,45.9953749 12.8238128,46.0048465 12.8501463,46.0153705 C12.8785864,46.0269469 12.9070265,46.0395756 12.93652,46.0490472 C12.9639067,46.0574664 12.9912935,46.0627284 13.0186803,46.0700952 C13.0492271,46.077462 13.0787206,46.0848288 13.1092674,46.0900907 C13.1377075,46.0953527 13.1672009,46.0964051 13.1956411,46.0985099 C13.2272412,46.1006147 13.257788,46.1037719 13.2893881,46.1037719 C13.3188816,46.1037719 13.3494284,46.1006147 13.3799752,46.0995623 C13.4115753,46.0974575 13.4431754,46.0964051 13.4758289,46.0911431 C13.5063757,46.0869335 13.5369225,46.0795668 13.5664159,46.0722 C13.5927494,46.066938 13.6180295,46.0637808 13.6443629,46.056414 C13.6591097,46.0532568 13.6738564,46.0490472 13.6896564,46.0437852 C14.7166607,45.7143846 15.5329975,44.258918 15.5340508,42.7455696 M28.2562639,23.2320039 C28.0392764,23.2793618 27.9107692,23.3004098 27.7812086,23.3161957 L16.6305754,46.7836211 C16.5758018,46.8930705 16.5273483,46.9909435 16.4767881,47.0867117 C16.3925211,47.2403619 16.3588143,47.3045582 16.3240541,47.3666496 C16.2282004,47.5255618 16.1955469,47.5802865 16.1628934,47.6339588 C16.0607197,47.7897137 16.0270129,47.8402288 15.9933061,47.8896915 C15.8890256,48.0380796 15.8542655,48.0843852 15.8195053,48.1306907 C15.7089049,48.2748692 15.6709847,48.3211747 15.6320112,48.3685326 C15.5171974,48.5053444 15.4676905,48.5590167 15.4181837,48.612689 C15.3181166,48.7221384 15.2549163,48.7852823 15.1906627,48.8484262 C15.0905956,48.9420896 15.0442488,48.9852379 14.9968486,49.0262815 C14.8809814,49.1241545 14.8399013,49.1578312 14.7977677,49.1904556 C14.6776872,49.2830666 14.6366071,49.3114813 14.5965802,49.3409485 C14.471233,49.4261927 14.4312062,49.4514503 14.3922327,49.4767078 C14.2637255,49.5535329 14.221592,49.5766857 14.1794585,49.5998384 C14.049898,49.6671919 14.0003911,49.6913971 13.9519375,49.712445 C13.8213237,49.7713793 13.7518034,49.7987417 13.6822831,49.8239992 C13.5780026,49.8587284 13.5253358,49.8755667 13.4726689,49.8903003 C13.4210553,49.9050339 13.3694418,49.9176627 13.3178282,49.929239 C13.2304012,49.9492346 13.1693076,49.9597586 13.1071607,49.9692302 C13.0123603,49.9818589 12.9681201,49.9871209 12.9238799,49.9913305 C12.8174928,49.9976449 12.7795726,49.9986973 12.7416525,49.9997497 C12.631052,49.9986973 12.5931319,49.9976449 12.5552117,49.9955401 C12.4477713,49.9871209 12.4077444,49.9818589 12.3687709,49.9765969 C12.2634372,49.960811 12.2202503,49.9534442 12.1770635,49.9439726 C12.0675163,49.9197674 12.0095828,49.9039815 11.9516492,49.8860907 C11.8715955,49.8597808 11.8252487,49.8429424 11.7789018,49.8250516 C11.6798881,49.7829557 11.6430212,49.7671697 11.6061544,49.7482266 C11.5060873,49.6977114 11.4713272,49.6798207 11.4355137,49.6587727 C11.3375533,49.6008908 11.3017398,49.5777381 11.2669797,49.5545853 C11.1700726,49.4872318 11.1321524,49.4598695 11.0952856,49.4304023 C10.9941652,49.3504201 10.9425516,49.305167 10.8909381,49.257809 C9.13607743,47.6444827 8.86852965,43.9263602 10.2894822,40.9364972 L21.4201021,17.4753863 C21.3800752,17.3133169 21.3411017,17.1417761 21.3073949,16.9691828 C20.2329904,11.3756868 22.6040537,4.66033453 26.6014704,1.96303819 C26.6562439,1.92515185 26.7089108,1.89252751 26.7615777,1.86095557 C26.8447914,1.81254526 26.8816582,1.79254969 26.918525,1.77465892 C27.0122721,1.72835341 27.0586189,1.70730545 27.1049658,1.68941468 C27.1544727,1.67047151 27.1997662,1.65573794 27.2440064,1.64310916 C27.3293267,1.6210088 27.3819936,1.60943242 27.4315005,1.60311803 C27.4852207,1.59644811 27.5336743,1.59575125 27.5800211,1.59644811 C27.6474347,1.59996084 27.6895682,1.60627523 27.7295951,1.61574681 C27.8328222,1.64310916 27.9055025,1.6788907 27.9697561,1.72730101 C28.0161029,1.76413494 28.0434897,1.79149729 28.0687698,1.82096444 C28.1330234,1.9009467 28.1741036,1.97671936 28.2057037,2.06196361 C28.2288772,2.12721229 28.2404639,2.17141301 28.2499439,2.21771853 C28.2731174,2.33979671 28.2804907,2.44714131 28.2773307,2.56185271 C28.2731174,2.64814935 28.2678507,2.70603125 28.2604773,2.76496554 C28.2383572,2.92072046 28.2088638,3.05016543 28.1677836,3.18487239 C28.1361834,3.2859026 28.1119567,3.35220368 28.0866766,3.41850477 C28.0424364,3.52900657 28.0118896,3.59951724 27.9781828,3.67108031 L26.6436039,6.48203565 C25.2300246,9.46979387 25.5049458,13.186864 27.2524331,14.8022951 C27.3166867,14.8633342 27.3693536,14.9064825 27.4220205,14.9485784 C27.5094475,15.0159319 27.545261,15.0422418 27.5821278,15.0674994 C27.6779815,15.1316957 27.7127417,15.153796 27.7485552,15.174844 C27.8465156,15.2306211 27.8823291,15.2506167 27.9181425,15.2685074 C28.019263,15.3179701 28.0592898,15.3348085 28.0993166,15.3505945 C28.2667973,15.4168956 28.3837178,15.4526771 28.5016916,15.4800395 C28.5975454,15.4989826 28.6386255,15.5074018 28.6786524,15.5137162 C28.7850395,15.526345 28.8229596,15.5305546 28.8619331,15.5337118 C28.9672669,15.5400261 29.0062404,15.5410785 29.0431072,15.5421309 C29.154761,15.5410785 29.1958412,15.5389737 29.2369214,15.5368689 C29.3506819,15.5284498 29.4065088,15.521083 29.4623357,15.5137162 C29.5402826,15.5021398 29.6013762,15.4905634 29.6624698,15.4768823 C29.7520035,15.4547819 29.7836037,15.4484675 29.8162571,15.4389959 C29.8878841,15.417948 29.9352843,15.402162 29.9837378,15.3853236 C30.1217251,15.3379657 30.1912454,15.3106034 30.2607657,15.2800838 C30.342926,15.2443023 30.4061263,15.2137827 30.4693265,15.1811584 C30.5851937,15.1190669 30.6315405,15.0927569 30.6778874,15.0653946 C30.7979679,14.9906743 30.8411547,14.963312 30.8843416,14.9348972 C31.0054754,14.849653 31.0476089,14.8191334 31.0886891,14.7875615 C31.2087696,14.6938981 31.2498498,14.6602213 31.2898766,14.6265446 C31.4131171,14.5202524 31.4573573,14.4792089 31.5015975,14.4381653 C31.6269447,14.3181919 31.690145,14.2539957 31.7533452,14.1866422 C31.8228655,14.1108695 31.8818524,14.0456208 31.939786,13.977215 C32.0387997,13.8572416 32.0798799,13.8067265 32.1209601,13.755159 C32.2252405,13.6162424 32.261054,13.5678321 32.2968675,13.517317 C32.4011479,13.3678765 32.4348547,13.3173613 32.4685615,13.2657938 C32.569682,13.1058293 32.6033888,13.0511046 32.6360422,12.9942751 C32.7329493,12.8290486 32.7677095,12.7637999 32.8035229,12.6996037 C32.9014833,12.5143816 32.9509902,12.4165086 32.9983904,12.3154783 L34.3192759,9.52662337 C34.3477161,9.46558428 34.3772095,9.40980718 34.406703,9.35508248 C34.4541032,9.26773343 34.4783299,9.22668991 34.5025567,9.18880358 C34.5520636,9.10987372 34.581557,9.0667254 34.6121038,9.02462947 C34.7616778,8.84782659 34.7911712,8.81835944 34.8206647,8.79204949 C34.8564782,8.75942515 34.887025,8.73521999 34.9175718,8.71417203 C35.6654416,8.81835944 35.6865083,8.84782659 35.7065217,8.87939853 C35.8529357,9.18459398 35.8676824,9.2298471 35.8813758,9.27825742 C35.9034959,9.35508248 35.9129759,9.39402121 35.922456,9.43506473 C35.9424694,9.52662337 35.9498427,9.56977169 35.9582694,9.61502481 C35.9751229,9.72342181 35.9835496,9.7855133 35.9898696,9.84970959 C35.9982963,9.94021582 36.003563,9.99599292 36.006723,10.0549272 C36.0119897,10.175953 36.0140963,10.2296253 36.0151497,10.28435 C36.0172564,10.4285285 36.016298,10.5085108 36.0140963,10.5905979 C36.0077763,10.8021299 35.9940829,11.0062951 35.9814429,11.2199319 C35.9677495,11.4072588 35.9519494,11.5924808 35.9329893,11.7787553 C35.9266693,11.8418992 35.9182426,11.9060955 35.9108692,11.9692394 C35.8982292,12.0913176 35.8845358,12.2112909 35.8687357,12.3323167 C35.8582024,12.4059846 35.8466156,12.4786001 35.8360823,12.5533203 C35.8202822,12.6627697 35.8044821,12.7732715 35.7865754,12.8827209 C35.7739353,12.9584936 35.7591886,13.0332139 35.7454952,13.1089865 C35.7265351,13.2142263 35.7086284,13.3194661 35.6875616,13.424706 C35.6728149,13.501531 35.6559615,13.5783561 35.6391081,13.6562335 C35.6180414,13.7572638 35.5959213,13.8593464 35.5727478,13.9593242 C35.5548411,14.038254 35.535881,14.1161315 35.5169209,14.1950614 C35.4926942,14.2929344 35.4684674,14.3908074 35.4431873,14.487628 C35.4221205,14.5655055 35.4010538,14.643383 35.379987,14.7223128 C35.3526003,14.8170286 35.3262668,14.9127969 35.2978267,15.0075127 C35.2757066,15.0843378 35.2525332,15.1611628 35.2283064,15.2358831 C35.1988129,15.3327037 35.1682661,15.4274195 35.136666,15.5231878 C35.1124392,15.5958032 35.0882125,15.6684187 35.0629324,15.7410342 C35.0302789,15.8368024 34.9965721,15.9315182 34.961812,16.0251817 C34.9354785,16.0977971 34.9101984,16.1693602 34.8828116,16.2398709 C34.8469981,16.3335343 34.8101313,16.4271977 34.7732645,16.5187564 C34.7458777,16.5882147 34.7174376,16.6566205 34.6900508,16.7250264 C34.650024,16.8186898 34.6099971,16.9102485 34.5699703,17.0028595 C34.5404769,17.0691606 34.5130901,17.1354617 34.4825433,17.2007104 C34.4404098,17.2943738 34.3961696,17.3859324 34.3519294,17.4785435 C34.3224359,17.5395825 34.2939958,17.6006216 34.2645024,17.6616607 C34.2160488,17.7595337 34.1654886,17.8563544 34.1149284,17.953175 C34.0875416,18.0057949 34.0612082,18.0584148 34.0338214,18.1099823 C33.9737812,18.2225889 33.9116342,18.3330907 33.8494873,18.4435925 C33.6251264,18.8329798 33.4513256,19.1108129 33.2701516,19.3791744 C33.2459248,19.4139036 33.221698,19.4475803 33.1985246,19.4823094 C33.131111,19.5780777 33.0647507,19.6748983 32.9962837,19.7685617 C32.9625769,19.8148672 32.9278168,19.8580156 32.89411,19.9032687 C32.8340697,19.9843033 32.7740295,20.0642856 32.7118826,20.1421631 C32.6729091,20.1916258 32.6328822,20.2389837 32.5939087,20.287394 C32.5359752,20.3589571 32.4769882,20.4294677 32.4180013,20.498926 C32.3769212,20.5483887 32.3347876,20.5957466 32.2926541,20.6431046 C32.2336672,20.7094056 32.1746803,20.7757067 32.1156934,20.839903 C32.0714532,20.8862085 32.027213,20.932514 31.9829728,20.9788196 C31.9250393,21.0398586 31.864999,21.1008977 31.8060121,21.159832 C31.7596652,21.2061375 31.712265,21.2513907 31.6648648,21.2966438 C31.6058779,21.3524209 31.546891,21.408198 31.4879041,21.4618703 C31.4394506,21.506071 31.390997,21.5481669 31.3425435,21.5902628 C31.2825033,21.6428828 31.2214097,21.6955027 31.1603161,21.7449654 C31.1118625,21.7860089 31.0623557,21.8270524 31.0117955,21.8659912 C30.9517552,21.9144015 30.8896083,21.960707 30.8285147,22.0070125 C30.7779545,22.0459512 30.7263409,22.0827852 30.6757807,22.1196191 C30.6136338,22.1638198 30.5504335,22.2069681 30.4882866,22.2490641 C30.4366731,22.2837932 30.3850595,22.3185223 30.333446,22.3511467 C30.2691924,22.3932426 30.2038854,22.4321813 30.1385785,22.4711201 C30.0880183,22.5005872 30.0385114,22.5311068 29.9868978,22.5605739 C29.9194842,22.5984602 29.8499639,22.6342418 29.781497,22.6700233 C29.7319901,22.6963333 29.6835366,22.7226432 29.6329764,22.7479008 C29.5602961,22.7826299 29.4876158,22.8152542 29.4138821,22.8478786 C29.3685886,22.8689265 29.3232951,22.8910269 29.2769482,22.9099701 C29.1926812,22.9457516 29.1084142,22.9762712 29.0241472,23.0078431 C28.9872803,23.0215243 28.9504135,23.0362578 28.9146,23.049939 C28.7924129,23.0909825 28.671279,23.1288689 28.5490918,23.163598 C28.4521848,23.189908 28.353171,23.2109559 28.2562639,23.2320039" id="Fill-161" fill="url(#linearGradient-5)" fill-rule="nonzero"></path>
            <polygon id="Fill-179" fill="url(#linearGradient-6)" fill-rule="nonzero" points="16.1008519 24.1836875 10.0747067 22.5871996 5.07767248 17.8924516 11.1027643 19.489992"></polygon>
            <path d="M10.9504517,19.3768592 L11.1031856,19.4894658 L5.07704048,17.8929778 L4.92807921,17.780935 L4.92472784,17.7799503 L2.85807921,17.136935 C2.77181085,17.1055736 2.69913055,17.0445345 2.63277027,16.961395 L8.65996878,18.5578829 C8.72527571,18.6410224 8.79795602,18.7031139 8.88432971,18.7336334 L10.9504517,19.3768592 Z" id="形状结合" fill="url(#linearGradient-7)" fill-rule="nonzero"></path>
            <path d="M1.49716686,9.53588447 L7.52331203,11.1323724 C7.49908526,11.1597347 7.47591183,11.1923591 7.44009835,11.2460314 C7.43272498,11.2573973 7.42535162,11.2689737 7.41903159,11.2805501 C7.40323153,11.3073862 7.3884848,11.3347486 7.37373807,11.3642157 L6.16619169,13.8760795 L0.140046527,12.2795916 L1.34822491,9.76751729 L1.3475929,9.76772777 C1.36128629,9.73826063 1.37708636,9.71089828 1.39288643,9.68353593 C1.40025979,9.67248575 1.40657982,9.66090937 1.41395318,9.64933299 C1.44976666,9.59587116 1.47294009,9.56324682 1.49716686,9.53588447 Z M1.99213026,9.31214463 L2.00055696,9.31298655 L8.02195318,10.9081516 L8.01827543,10.9084221 C8.00423093,10.9058262 7.98925012,10.9039552 7.96771522,10.9030198 L7.93032173,10.9027391 L7.88576554,10.9064225 C7.8678588,10.9095797 7.84889872,10.9137893 7.82677863,10.9211561 C7.8204586,10.9222085 7.81519191,10.9243133 7.80992523,10.9264181 C7.78569846,10.9349425 7.75936501,10.9465189 7.72144486,10.9665145 L7.70291928,10.9767753 L7.68394603,10.9885096 C7.66498595,11.0011384 7.6439192,11.0169243 7.61758576,11.0390247 C7.59230565,11.0600726 7.56702554,11.0842778 7.53015872,11.1242689 L1.50401356,9.52778101 C1.54088038,9.48778988 1.56616048,9.46358472 1.59144059,9.44253676 C1.61777403,9.4204364 1.63989412,9.40465043 1.6588542,9.39202165 C1.67202093,9.38370771 1.68360764,9.37634092 1.69519436,9.36897413 C1.73321985,9.35003097 1.75955329,9.33845459 1.78378006,9.3300354 C1.78904675,9.32782537 1.79536677,9.32572057 1.80063346,9.32466817 C1.82275355,9.31730139 1.84171363,9.31309179 1.86067371,9.3099346 L1.86229969,9.30925121 L1.88205647,9.30717205 L1.90364989,9.30583025 C1.94789008,9.30583025 1.97106351,9.30793504 1.99213026,9.31214463 Z" id="形状结合" fill="url(#linearGradient-8)" fill-rule="nonzero"></path>
            <polygon id="Fill-208" fill="url(#linearGradient-9)" fill-rule="nonzero" points="8.65965277 18.5584091 2.63350761 16.9619212 0.139203857 13.4195492 6.16534902 15.0160371"></polygon>
            <path d="M0.0547261708,12.5042786 L6.08087134,14.1007665 L6.06744128,14.152334 L6.06744128,14.152334 L6.0554859,14.2033753 L6.04534752,14.2579685 L6.04534752,14.2579685 L6.03778982,14.3115618 C6.03252314,14.351553 6.02936312,14.3904917 6.02725645,14.4294304 C6.02514977,14.4771041 6.02620311,14.524462 6.02936312,14.5707675 C6.0408445,14.7385197 6.08613803,14.8932223 6.16513836,15.0163528 L0.138993189,13.4188125 C0.0599928595,13.2967343 0.014699337,13.1420318 0.00311262196,12.9747005 C1.52630294e-05,12.927974 -0.000995395191,12.8806161 0.00111128027,12.8332582 C0.00321795574,12.7940038 0.00637796893,12.7540126 0.0116446576,12.7150739 C0.0167006787,12.6795029 0.0219673674,12.6437213 0.0293407315,12.6068874 C0.0368194294,12.5726844 0.0452461313,12.5379553 0.0547261708,12.5042786 Z M0.139625192,12.2792759 L6.16577036,13.8757638 L6.15945033,13.889445 L6.15945033,13.889445 L6.158,13.8892759 L6.13601357,13.9427226 C6.1286402,13.9607449 6.12153017,13.9788988 6.11468348,13.9973158 C6.10235943,14.0310977 6.09077271,14.0658269 6.08129267,14.100556 L0.0551475059,12.5040681 C0.0656808833,12.469339 0.0762142606,12.4346098 0.0888543134,12.4009331 C0.102231703,12.3639939 0.116978431,12.3282124 0.133831835,12.2924308 C0.135411841,12.2887474 0.137518517,12.2845378 0.139625192,12.2792759 Z" id="形状结合" fill="url(#linearGradient-10)" fill-rule="nonzero"></path>
            <path d="M11.1031856,19.4894658 L10.9504517,19.3768592 L8.88485638,18.7338439 C8.79848269,18.702272 8.72580238,18.6401805 8.65944211,18.5580934 L6.16513836,15.0167738 C5.97975092,14.7294691 5.97975092,14.2643092 6.16619169,13.8759743 L7.37331674,11.3639 C7.39438349,11.3218041 7.41650358,11.2828653 7.43967701,11.2460314 C7.47865051,11.1870971 7.50393061,11.1544728 7.53026406,11.1239532 C7.56713088,11.0850145 7.59241098,11.0608093 7.61769109,11.038709 C7.66193127,11.0029274 7.69142473,10.9829319 7.72197152,10.9660935 C7.76831838,10.9418883 7.79781184,10.9292596 7.82625196,10.9208404 C7.86733213,10.909264 7.89893226,10.904002 7.92947906,10.9018972 C7.97898593,10.9029496 8.0032127,10.9050544 8.02638613,10.9103164 C8.08326637,10.9239976 8.11381316,10.935574 8.14225328,10.9524123 L11.4202403,12.8383097 C11.506614,12.8877724 11.5729743,12.9603879 11.6256412,13.0645753 L12.8422462,15.464043 L12.9612734,15.6313743 L17.9593609,20.3345414 C18.2174287,20.5913266 18.2500822,21.1206828 18.043628,21.5605852 L16.9418367,23.8242935 L16.9028632,23.907433 C16.8744231,23.9568957 16.8449296,24.0010964 16.8133295,24.0410876 C16.8027961,24.0547687 16.7901561,24.0652927 16.7796227,24.0779215 C16.7575026,24.1021266 16.7364358,24.1273842 16.7132624,24.1473798 C16.6985157,24.1600085 16.683769,24.1694801 16.6690222,24.1810565 C16.6479555,24.1968425 16.6268887,24.2136808 16.605822,24.2263096 C16.5889686,24.2357812 16.5731685,24.2420956 16.5573684,24.2494624 C16.5363017,24.258934 16.5152349,24.2694579 16.4941682,24.2757723 C16.4741547,24.2820867 16.4541413,24.2852439 16.4341279,24.2894535 C16.4193812,24.2905059 16.4046345,24.2947155 16.3898877,24.2957679 C16.3698743,24.2968203 16.3488076,24.2936631 16.3287941,24.2915583 C16.3151007,24.2905059 16.3014074,24.2905059 16.287714,24.2873487 C16.2655939,24.2820867 16.2445271,24.2726151 16.2234604,24.264196 C16.212927,24.258934 16.2002869,24.2568292 16.1897536,24.2505148 C16.1592068,24.232624 16.12866,24.2115761 16.1012732,24.1831613 L11.1031856,19.4894658 Z" id="Fill-228" fill="url(#linearGradient-11)" fill-rule="nonzero"></path>
        </g>
    </g>
</svg>