<?xml version="1.0" encoding="UTF-8"?>
<svg width="50px" height="50px" viewBox="0 0 50 50" version="1.1" xmlns="http://www.w3.org/2000/svg" xmlns:xlink="http://www.w3.org/1999/xlink">
    <title>运维单位-灰</title>
    <defs>
        <linearGradient x1="33.39498%" y1="71.0127713%" x2="78.1841671%" y2="28.9872287%" id="linearGradient-1">
            <stop stop-color="#5F5F5F" offset="0%"></stop>
            <stop stop-color="#B8B8B8" offset="100%"></stop>
            <stop stop-color="#B8B8B8" offset="100%"></stop>
        </linearGradient>
        <linearGradient x1="38.0742331%" y1="100%" x2="41.8374685%" y2="-148.862534%" id="linearGradient-2">
            <stop stop-color="#5F5F5F" offset="0%"></stop>
            <stop stop-color="#B8B8B8" offset="100%"></stop>
            <stop stop-color="#B8B8B8" offset="100%"></stop>
        </linearGradient>
        <linearGradient x1="54.9275794%" y1="-153.443728%" x2="-41.720573%" y2="143.102695%" id="linearGradient-3">
            <stop stop-color="#E7E7E7" offset="0%"></stop>
            <stop stop-color="#AFAFAF" offset="100%"></stop>
        </linearGradient>
        <linearGradient x1="46.1851075%" y1="100%" x2="56.4751243%" y2="0%" id="linearGradient-4">
            <stop stop-color="#5F5F5F" offset="0%"></stop>
            <stop stop-color="#B8B8B8" offset="100%"></stop>
            <stop stop-color="#B8B8B8" offset="100%"></stop>
        </linearGradient>
        <linearGradient x1="53.2018238%" y1="0%" x2="40.2135687%" y2="100%" id="linearGradient-5">
            <stop stop-color="#E7E7E7" offset="0%"></stop>
            <stop stop-color="#AFAFAF" offset="100%"></stop>
        </linearGradient>
        <linearGradient x1="33.39498%" y1="92.6908017%" x2="78.1841671%" y2="7.30919827%" id="linearGradient-6">
            <stop stop-color="#5F5F5F" offset="0%"></stop>
            <stop stop-color="#B8B8B8" offset="100%"></stop>
            <stop stop-color="#B8B8B8" offset="100%"></stop>
        </linearGradient>
        <linearGradient x1="56.368822%" y1="-153.443728%" x2="-68.5474566%" y2="143.102695%" id="linearGradient-7">
            <stop stop-color="#E7E7E7" offset="0%"></stop>
            <stop stop-color="#AFAFAF" offset="100%"></stop>
        </linearGradient>
    </defs>
    <g id="页面-1" stroke="none" stroke-width="1" fill="none" fill-rule="evenodd">
        <g id="编组-94" transform="translate(6.000000, -0.000580)">
            <path d="M32.6302911,41.4739776 L26.7223057,39.9077616 C26.701652,39.9036345 26.6830637,39.8974439 26.6644754,39.8902216 L32.5724608,41.4554058 C32.5910491,41.4615964 32.6096374,41.467787 32.6302911,41.4739776" id="Fill-1" fill="#6E6E6E"></path>
            <path d="M32.5723575,41.4558185 L26.6643721,39.8896025 C26.6055091,39.8679355 26.5765939,39.8555544 26.5487115,39.8421414 L32.4556642,41.4062939 C32.4845794,41.4207386 32.5134946,41.4331198 32.5723575,41.4558185" id="Fill-2" fill="#6E6E6E"></path>
            <path d="M32.4558708,41.4065003 L26.5478853,39.841316 L26.5076106,39.8206808 C26.4797282,39.8052043 26.4528784,39.7907597 26.4249959,39.7732197 C26.411571,39.7639338 26.3981461,39.7556797 26.3847212,39.7474256 C26.3558061,39.7267904 26.3258583,39.7061551 26.2969431,39.6834563 C26.2835182,39.6731387 26.271126,39.6648846 26.2587338,39.654567 C26.2163937,39.6215505 26.1740537,39.5844071 26.1317137,39.5441683 L32.0396991,41.1103843 C32.0830718,41.1495913 32.1243792,41.185703 32.1667192,41.2197512 C32.1791115,41.2300688 32.1915037,41.2393547 32.2038959,41.2486406 C32.2338437,41.2713393 32.2627589,41.2930064 32.291674,41.3115781 C32.3050989,41.320864 32.3195565,41.3301498 32.3329814,41.3384039 C32.3608638,41.3549121 32.3877136,41.3714203 32.4145634,41.3848333 C32.429021,41.3930874 32.4424459,41.4003097 32.4558708,41.4065003" id="Fill-4" fill="#6E6E6E"></path>
            <path d="M29.6680369,14.9821251 C29.6081412,15.0079192 29.5492783,15.0316498 29.4449772,15.0677615 L29.445287,15.0675551 C29.4297967,15.0737457 29.4132738,15.0789045 29.3957181,15.0850951 C29.3492474,15.1005715 29.3017439,15.116048 29.2315214,15.1366832 C29.1995082,15.1459691 29.1685276,15.1531914 29.0807495,15.1738267 C29.030148,15.1851761 28.9795465,15.1954937 28.9186181,15.2047796 C28.907052,15.2061209 28.8967252,15.2081844 28.884333,15.2102479 C28.8306334,15.2174703 28.7748685,15.2246926 28.6633386,15.2329467 C28.6230639,15.2350102 28.5827892,15.2370737 28.4733247,15.2381055 L28.4722921,15.2381055 C28.4351154,15.2373833 28.3979388,15.2363515 28.2957031,15.2301609 C28.2574938,15.2270656 28.2203171,15.2229386 28.1170487,15.2095257 C28.1067219,15.2084939 28.0963951,15.2064304 28.0850355,15.2043669 C28.0526093,15.199208 28.0123346,15.1909539 27.9421121,15.177541 C27.9173276,15.1713505 27.8915105,15.1651599 27.8656934,15.1579375 L21.957708,13.5927533 C21.9835251,13.5999756 22.0093422,13.6061662 22.0351593,13.611325 C22.0812858,13.6209548 22.1145612,13.6273747 22.141105,13.6324188 L22.1770501,13.6391826 C22.1884096,13.6412461 22.1987364,13.6433097 22.2090633,13.6443414 C22.3123317,13.6577544 22.3495083,13.6618814 22.3877176,13.6649767 C22.4651689,13.6696196 22.5054436,13.6713607 22.5359885,13.6723764 L22.5643066,13.6729213 C22.6758365,13.6718895 22.7150785,13.669826 22.7553531,13.6677625 C22.8679157,13.6595083 22.9216153,13.652286 22.9763475,13.6450637 L23.0104261,13.6399049 L27.9480501,14.9476376 L23.0106326,13.6395953 C23.071561,13.6292777 23.1221625,13.6199918 23.172764,13.6086424 C23.2605422,13.5869754 23.2915227,13.5797531 23.3245686,13.571499 C23.3937584,13.5508637 23.4412619,13.5353873 23.4877327,13.5199108 C23.5052883,13.5137203 23.5218112,13.5075297 23.5373015,13.5023709 L23.5369917,13.5025772 C23.6402601,13.4654338 23.7001558,13.4417032 23.7600515,13.4159091 C23.8395681,13.3808292 23.9015292,13.3509081 23.9645229,13.3189234 C24.0777051,13.2578431 24.1231432,13.232049 24.1685813,13.2052232 C24.2731922,13.1403253 24.3175976,13.1124677 24.3558069,13.0866736 L24.3568911,13.0857931 L24.3708841,13.0776973 C24.4906754,12.9941245 24.5309501,12.9642034 24.5712248,12.9332505 C24.6899834,12.8414236 24.7292254,12.8084072 24.7695001,12.7753908 C24.8892915,12.6711827 24.9326642,12.630944 24.9760369,12.5907052 C25.0989263,12.4730842 25.1608874,12.4101467 25.2228484,12.3441139 C25.2920382,12.269827 25.3488359,12.2048259 25.4056335,12.1387931 C25.5028091,12.0212753 25.5430837,11.9717507 25.5833584,11.9201625 L25.5837368,11.919468 L25.6371778,11.8488842 C25.6998658,11.7654187 25.7284505,11.7271197 25.7557134,11.6875 C25.8579491,11.5409897 25.890995,11.4914651 25.9240409,11.4409087 C26.0169825,11.2943984 26.051061,11.2376514 26.0820415,11.1860633 L26.0881344,11.1753329 C26.1831413,11.0123144 26.2182526,10.9493769 26.2523311,10.8854076 C26.3483708,10.7038173 26.3969069,10.6078634 26.4433777,10.5098459 L27.7384668,7.775468 C27.766246,7.71572893 27.7951611,7.6610455 27.8240763,7.60636207 C27.8566058,7.54951194 27.8772595,7.51236848 27.8948151,7.48244735 C27.9029733,7.46841538 27.9102021,7.45603422 27.9184636,7.44365307 C27.9669997,7.36730262 27.9959149,7.32396858 28.0258627,7.28372983 C28.0505439,7.25494364 28.0711976,7.23018134 28.0897859,7.20851432 L28.0907595,7.20763755 L28.137405,7.15321183 C28.1915672,7.09097589 28.2112295,7.07232162 28.2302309,7.054988 C28.2653422,7.02300336 28.29529,6.99927281 28.3252378,6.97863755 C28.536525,7.0084555 28.6893622,7.03115428 28.7988268,7.05075778 L34.7068122,8.61594202 C34.5973477,8.59633852 34.4445105,8.57363974 34.2328102,8.54371862 C34.2032755,8.56445705 34.1733276,8.5881876 34.1371837,8.62017225 C34.1181823,8.63750586 34.0991809,8.65616013 34.0452831,8.71839607 L33.9977713,8.77369856 C33.979183,8.79536558 33.9574967,8.82012789 33.9337449,8.84901725 C33.9039004,8.88915282 33.8749852,8.93248686 33.8254164,9.00883731 C33.8181876,9.02121846 33.8109588,9.03359962 33.8026973,9.0480443 C33.785245,9.07755272 33.7635586,9.11469618 33.7315454,9.1724749 C33.7031466,9.22622974 33.6742314,9.28091317 33.646349,9.34075542 L32.3514664,12.0748238 C32.3048924,12.1730476 32.2563562,12.2700333 32.1603166,12.4505918 C32.1252053,12.5145611 32.0911268,12.5785304 31.9961198,12.7405172 L31.9930218,12.7465788 L31.990027,12.7522793 C31.9590465,12.8028357 31.9239352,12.8606144 31.8320263,13.0060929 C31.7989805,13.0566493 31.7659346,13.1061739 31.6636988,13.2526843 C31.6356098,13.292304 31.6075208,13.3312633 31.5450641,13.4144647 L31.4913439,13.4863785 C31.4510692,13.5369349 31.4107945,13.5864595 31.3137222,13.7040805 C31.2568213,13.7710419 31.198991,13.8350112 31.1308339,13.9092981 C31.0688728,13.975331 31.0069118,14.0382685 30.8840224,14.1558895 C30.8406497,14.1961282 30.7972769,14.236367 30.6764529,14.340575 C30.6372109,14.3735914 30.5969362,14.4066078 30.4792102,14.4984347 C30.4389356,14.5293876 30.3976282,14.5593087 30.2788695,14.6428815 L30.2712535,14.6475245 L30.264825,14.6518579 C30.2266157,14.6776519 30.1811776,14.7065413 30.0768765,14.7705106 C30.0311286,14.798265 29.9856905,14.8230273 29.8720953,14.8839013 C29.8105473,14.9160923 29.7475536,14.9460134 29.6680369,14.9821251 Z" id="形状结合" fill="url(#linearGradient-1)" fill-rule="nonzero"></path>
            <path d="M27.5737537,26.0681074 L21.6657682,24.5029232 C21.6802258,24.5039549 21.695716,24.5039549 21.7101736,24.5070502 L27.6181591,26.0722345 C27.6037015,26.0701709 27.5882112,26.0701709 27.5737537,26.0681074" id="Fill-28" fill="#838383"></path>
            <path d="M27.6181591,26.0721313 L21.7101736,24.5069471 L21.715337,24.5069471 L27.6222898,26.0731631 C27.6212571,26.0731631 27.6191918,26.0721313 27.6181591,26.0721313" id="Fill-29" fill="#7F7F7F"></path>
            <path d="M27.2132437,26.1647836 L21.3052582,24.5995994 C21.3599905,24.5655512 21.3981998,24.5469795 21.4364091,24.5325348 C21.4818472,24.5175742 21.5097296,24.5124154 21.5376121,24.5072566 L21.5532315,24.5042903 L21.5690057,24.5018914 C21.5762345,24.4998279 21.5834633,24.4998279 21.5906921,24.4987961 L21.6103131,24.4987961 C21.6289014,24.4987961 21.6474897,24.5008597 21.666078,24.5029232 L27.5740635,26.0681074 C27.5554752,26.0660439 27.5368868,26.0639804 27.5182985,26.0639804 C27.5121024,26.0639804 27.5048736,26.0639804 27.4986775,26.0650121 L27.4878343,26.065657 L27.4765781,26.067282 L27.4455976,26.0734726 C27.4177151,26.0765679 27.3898326,26.0817267 27.3443945,26.0982349 C27.3061852,26.1121637 27.2679759,26.1307354 27.2132437,26.1647836 Z" id="形状结合" fill="#7F7F7F"></path>
            <path d="M18.0499283,31.5318076 L23.9579137,33.0980236 C23.9754337,33.3574994 24.060834,33.5882031 24.2120619,33.7378351 L24.2126769,33.7383356 L32.0393893,41.1102812 L26.1314038,39.5440652 L18.3057241,32.1741831 L18.3050012,32.1735641 C18.1531967,32.0249902 18.0674839,31.7918118 18.0499283,31.5318076 Z M20.9355573,25.0491384 L26.8435428,26.6153544 L24.1172569,32.281796 L18.2092714,30.7166118 L20.9355573,25.0491384 Z M21.3053615,24.5994962 L27.2133469,26.1646804 L27.210378,26.1662281 L27.2084933,26.1679821 C27.1733821,26.1917126 27.1372381,26.2195702 27.088702,26.2649678 L27.057076,26.2970814 L27.057076,26.2970814 L27.0243657,26.3332705 C27.0099082,26.3508104 26.9944179,26.3704139 26.977895,26.392081 C26.9531105,26.4261291 26.9293588,26.4601773 26.9076724,26.4973208 C26.8989979,26.5116623 26.8907364,26.5261069 26.882475,26.5415834 L20.9744895,24.9763992 L20.9992739,24.9320333 C21.0213734,24.8949931 21.0451251,24.8599131 21.0699095,24.8268967 L21.0940485,24.7955569 L21.0940485,24.7955569 L21.1170226,24.7674962 L21.1166901,24.7678799 C21.1394091,24.7420858 21.1600628,24.7204188 21.1807165,24.6997835 C21.2130739,24.6695185 21.2394648,24.647049 21.2641727,24.6284008 L21.300198,24.6025915 L21.3053615,24.5994962 Z M24.0388503,32.4789917 L24.019565,32.5408717 L24.0034293,32.6018746 L24.0034293,32.6018746 L23.9890226,32.6634962 L23.9901335,32.6637546 C23.9808393,32.7060569 23.9736105,32.7493909 23.9684471,32.7916932 C23.9625608,32.837813 23.9584301,32.8852741 23.9563647,32.9317034 C23.9542993,32.9885535 23.9542993,33.043237 23.9584301,33.0979204 L18.0504446,31.5317044 C18.0463139,31.4780527 18.0463139,31.4223375 18.0483792,31.3655906 C18.0504446,31.3200898 18.0545753,31.2736605 18.0607714,31.2261994 L20.5820226,31.8936595 L18.0604616,31.2254772 C18.0656251,31.1831749 18.0728539,31.1408726 18.082148,31.0975386 L18.0816317,31.0974354 C18.0909258,31.0561649 18.10022,31.0159262 18.1126122,30.9746556 L18.1118893,30.9745525 C18.1242815,30.933282 18.1377064,30.8930432 18.152164,30.8517727 C18.1677575,30.8092641 18.1863458,30.76593 18.2059668,30.7246595 L24.1129196,32.2898437 C24.0932986,32.332146 24.075743,32.3744483 24.0602527,32.4177823 L24.0388503,32.4789917 Z" id="形状结合" fill="url(#linearGradient-2)" fill-rule="nonzero"></path>
            <polygon id="Fill-51" fill="#989898" points="26.843646 26.6151481 20.9356606 25.0489321 20.9749026 24.9767087 26.882888 26.5418929"></polygon>
            <path d="M35.6769156,33.5564358 C36.9037443,34.7099467 36.018734,36.5629928 35.0159978,38.6450902 C34.9746905,38.73279 34.9323504,38.8194581 34.891043,38.9040627 C34.8466376,38.9958896 34.8125591,39.068113 34.7774478,39.1382728 C34.7691863,39.1558128 34.7598922,39.1733528 34.7516307,39.1908927 C34.7144541,39.2651797 34.6793428,39.3384348 34.6431989,39.41169 C34.632872,39.4323252 34.6225452,39.4529605 34.6111857,39.4735958 C34.5833032,39.529311 34.5564534,39.5839944 34.5285709,39.6386778 C34.5172114,39.6582813 34.5068846,39.6799483 34.4965577,39.6995518 C34.4645445,39.7635211 34.4314986,39.8254269 34.3994854,39.8863009 C34.3499166,39.9801913 34.3148053,40.0441606 34.2786614,40.1091617 C34.2693672,40.1256699 34.2600731,40.1432098 34.2507789,40.1586863 C34.2218638,40.2102744 34.1929486,40.259799 34.1650662,40.3082919 C34.1041378,40.4124999 34.0679939,40.4702787 34.0318499,40.5270256 C33.9833138,40.6023443 33.9543986,40.6467101 33.9254835,40.6890124 C33.9141239,40.7055206 33.9037971,40.7199653 33.8924376,40.7354417 C33.861457,40.7808393 33.8294438,40.8241733 33.7984633,40.8654438 C33.7499272,40.9294131 33.7148159,40.9717154 33.678672,41.0140177 C33.6208417,41.0790187 33.5919265,41.1089399 33.564044,41.1378292 C33.5010503,41.2007668 33.4638737,41.2337832 33.4266971,41.2647361 C33.3771282,41.3029113 33.3461477,41.3256101 33.3141345,41.3462453 C33.2501081,41.3875158 33.2170622,41.4050558 33.1840163,41.4205323 C33.1292841,41.4463263 33.0910747,41.4597392 33.0528654,41.4721204 C32.9940024,41.4865651 32.9702507,41.4906921 32.946499,41.4937874 C32.9341068,41.4958509 32.9206819,41.4979145 32.907257,41.4989462 C32.8824726,41.5010098 32.8587208,41.5020415 32.8349691,41.5010098 C32.7668119,41.4989462 32.7358314,41.4958509 32.7058836,41.4896604 C32.649086,41.4803745 32.6108767,41.4690251 32.5726673,41.4556122 C32.5138044,41.4329134 32.4848892,41.4205323 32.4559741,41.4060876 C32.4425492,41.4009288 32.4280916,41.3937064 32.4146667,41.3854523 C32.3878169,41.3710076 32.3609671,41.3555312 32.3330846,41.3379912 C32.3196598,41.3297371 32.3052022,41.3204513 32.2917773,41.3121972 C32.2628621,41.2925937 32.233947,41.2719584 32.2039991,41.2482279 C32.1916069,41.238942 32.1792147,41.2296561 32.1668225,41.2203703 C32.1244825,41.1863221 32.0831751,41.1491786 32.0398024,41.1099716 L24.21309,33.7390578 C23.9084482,33.4398466 23.8692062,32.8053125 24.1170503,32.2822087 L26.8433362,26.6147354 L26.8825782,26.5414802 C26.9114934,26.4867968 26.9435066,26.4383039 26.9775852,26.3929064 C27.0188925,26.3371912 27.0529711,26.2990159 27.089115,26.2649678 C27.1397166,26.2175067 27.1758605,26.1886173 27.2130371,26.1648868 C27.2677694,26.1308386 27.3059787,26.1122669 27.344188,26.0978222 C27.3896261,26.0823457 27.4175086,26.0771869 27.445391,26.0730599 C27.4629467,26.0699646 27.4805023,26.0658375 27.4990906,26.0648058 C27.523875,26.0627423 27.5486594,26.0658375 27.5734439,26.0679011 C27.5899668,26.0699646 27.6064897,26.0699646 27.6230127,26.0730599 C27.6498625,26.0792505 27.6756796,26.0895681 27.7014967,26.0998857 C27.7149216,26.1060763 27.7283465,26.1091716 27.7417714,26.1153622 C27.7799807,26.1370292 27.8161246,26.1617915 27.8502032,26.1937761 L35.6769156,33.5564358 Z" id="Fill-75" fill="url(#linearGradient-3)" fill-rule="nonzero"></path>
            <path d="M21.1074992,0.000825410278 L27.0154847,1.56600965 C26.9772754,1.56600965 26.9370007,1.56704141 26.8936279,1.57323199 C26.8853665,1.57426375 26.8760723,1.57529552 26.8678108,1.57632728 L26.8645149,1.575 L26.8235546,1.58435974 C26.7921151,1.59093246 26.7556269,1.59964512 26.7095004,1.61202627 L20.8015149,0.0468420333 C20.8707048,0.028270302 20.9182082,0.0179526736 20.9595156,0.0107303336 L20.9615149,0.011 L20.9731212,0.008692602 C20.977381,0.00804775022 20.9815118,0.00753186879 20.9856425,0.00701598737 C21.0300479,0.00185717313 21.0692899,0.000825410278 21.1074992,0.000825410278 Z M27.038307,1.566216 L27.0155879,1.566216 L27.0155879,1.566216 L21.1076025,-5.34794431e-13 C21.1158639,0.00103176285 21.1230927,0.00103176285 21.1313542,0.00103176285 L21.1933152,0.00554572531 L21.1933152,0.00554572531 L21.2432972,0.0125875067 C21.2556894,0.0146510324 21.2670489,0.0167145581 21.2784084,0.0198098467 L27.1863939,1.58499409 C27.1750343,1.5818988 27.1636748,1.57983527 27.1512826,1.57777175 C27.1209217,1.57240658 27.0858104,1.56827953 27.038307,1.566216 Z" id="形状结合" fill="#8B8B8B"></path>
            <path d="M9.31321465,40.069542 L13.9525472,41.2981695 L9.31342119,40.0690261 L9.30722509,39.9906121 C9.30515972,39.960691 9.2999963,39.9328334 9.29689825,39.9018805 C9.29070214,39.8461653 9.28450604,39.7883866 9.27521188,39.7326714 L9.25662357,39.6367175 L9.25662357,39.6367175 C9.24629673,39.5882246 9.23803526,39.5376682 9.22667573,39.4891754 C9.21841426,39.4571907 9.20808742,39.4262378 9.19982595,39.395285 C9.18743374,39.3498874 9.17504153,39.3044898 9.16058395,39.2611558 C9.15025711,39.2291711 9.1378649,39.19925 9.12650538,39.1672654 C9.11101512,39.1280584 9.09655754,39.0878196 9.0800346,39.0496444 C9.06764239,39.0197233 9.05215213,38.9908339 9.03769455,38.9619446 C9.02117161,38.9258329 9.00361598,38.8897212 8.98502766,38.855673 C8.9695374,38.8267836 8.95198177,38.8020213 8.93649151,38.7751955 C8.91687052,38.7432108 8.89724952,38.7101944 8.87659584,38.6813051 C8.85904021,38.6544792 8.83941921,38.6317804 8.8208309,38.6070181 C8.79914453,38.5791605 8.77849085,38.5513029 8.7557718,38.5244771 C8.73615081,38.5028101 8.71549713,38.4832066 8.69587613,38.4625713 C8.67109171,38.437809 8.64837266,38.4130467 8.62255556,38.3903479 C8.60190188,38.3717762 8.57918283,38.355268 8.55749647,38.337728 C8.53167936,38.3170928 8.50586226,38.2964575 8.47901248,38.2778858 C8.45629343,38.2613776 8.4325417,38.2500282 8.40878996,38.2355835 C8.38194018,38.2190753 8.35509039,38.2025671 8.32617524,38.1881224 C8.30242351,38.176773 8.27763909,38.1674872 8.25285467,38.1571695 L14.1608401,39.7223538 C14.1856245,39.7326714 14.210409,39.7419573 14.2341607,39.7543384 C14.2630758,39.7677513 14.2899256,39.7842596 14.3178081,39.8007678 C14.3405272,39.8141807 14.3642789,39.8275936 14.3869979,39.84307 L14.4654819,39.9029123 C14.4871683,39.9204522 14.5098873,39.9359287 14.5315737,39.9555322 L14.5672013,39.9916439 L14.5672013,39.9916439 L14.6028289,40.0277556 C14.6234826,40.0483908 14.6441363,40.0679943 14.6627246,40.0896614 C14.6854436,40.1154554 14.70713,40.1453765 14.7288164,40.1732341 C14.7484374,40.1969647 14.7670257,40.2206952 14.7845813,40.2454575 C14.805235,40.2764104 14.8238233,40.3083951 14.8434443,40.3403797 C14.8599672,40.3661738 14.8775229,40.3929996 14.8930131,40.4198255 L14.94568,40.5281606 C14.9601376,40.5570499 14.9756278,40.5838758 14.9880201,40.6158604 C15.004543,40.6530039 15.0190006,40.6932426 15.0334582,40.7334814 C15.0458504,40.7644343 15.0582426,40.7943554 15.0685694,40.82634 C15.083027,40.8696741 15.0943865,40.9161034 15.1078114,40.961501 C15.1160729,40.9924538 15.1263997,41.022375 15.1346612,41.0543596 C15.1460207,41.1018207 15.1553149,41.1523771 15.164609,41.2029335 L15.1831973,41.2988874 L15.1831973,41.2988874 C15.1924915,41.3535708 15.1986876,41.4103178 15.2048837,41.4680965 C15.2079818,41.4969859 15.2131452,41.526907 15.2152105,41.5568281 C15.2183086,41.5815904 15.220374,41.6084163 15.2214066,41.6342103 C15.2263635,41.6976638 15.2284289,41.7626648 15.2294616,41.8276659 L15.2290485,41.9082466 C15.2290485,41.9660253 15.2280158,42.0227722 15.2259505,42.0805509 C15.2204772,42.2038466 15.2101504,42.3255946 15.1946601,42.4463109 L15.1701468,42.6119217 L15.1385472,42.7745848 L12.7435472,42.1401695 L15.139205,42.7757528 C15.1173121,42.881818 15.091495,42.9849943 15.0625798,43.0871388 L15.0615472,43.0870623 L15.015128,43.2412842 C14.9986051,43.2920985 14.9813076,43.3423969 14.9632356,43.3924374 C14.9234773,43.500463 14.8801046,43.604671 14.8326011,43.7057838 C14.7780754,43.8235079 14.717147,43.9380336 14.6531206,44.0453369 C14.5550156,44.2108317 14.4465838,44.3635326 14.3288578,44.4997253 C14.1808742,44.6719265 14.0197755,44.8184368 13.8473173,44.9329625 L13.8476271,44.9325498 C13.726803,45.0140591 13.6008156,45.0780284 13.4717301,45.1244577 L13.4695472,45.1240623 L13.4459388,45.1330987 C13.4375482,45.136065 13.4292867,45.1389024 13.4210253,45.1414818 L13.3766199,45.1548947 C13.3508028,45.162117 13.3260183,45.1652123 13.3012339,45.1693394 C13.2733515,45.17553 13.245469,45.1827523 13.2175865,45.1868794 L13.2155472,45.1865848 L13.2118035,45.1876016 C13.1797903,45.1927604 13.1488098,45.1937922 13.1167966,45.1958557 C13.0878814,45.1979192 13.0579336,45.2010145 13.0279857,45.2010145 L13.026953,45.2010145 C12.9971085,45.201324 12.9671606,45.1982287 12.9372128,45.1951335 C12.9093303,45.1930699 12.8804152,45.1920382 12.8525327,45.1868794 L6.94454725,43.6216951 C6.97242972,43.6258222 7.00031219,43.6268539 7.02922734,43.6299492 L7.11896758,43.6358303 L7.12103295,43.6358303 C7.1499481,43.6358303 7.17989594,43.632735 7.20984378,43.6317032 C7.2408243,43.6296397 7.27180482,43.6275762 7.30381803,43.6234491 L7.30960106,43.6216951 C7.33748353,43.6175681 7.365366,43.6113775 7.39324847,43.6051869 L7.4686344,43.5897105 C7.48309198,43.5845516 7.49754956,43.5804246 7.51303982,43.5762975 C7.53059545,43.5711387 7.54711839,43.5659799 7.56364134,43.5597893 C7.64976719,43.5284925 7.73447023,43.4891709 7.81716909,43.4425887 L7.93954725,43.3665848 L7.93933179,43.3667465 C8.11075735,43.2532526 8.27288874,43.1057105 8.42159525,42.9344379 L13.2225472,44.2061695 L8.42087237,42.9335093 C8.53859835,42.7983484 8.64703017,42.6456475 8.74513516,42.4805654 C8.81019425,42.3728494 8.86905724,42.2593554 8.92482218,42.1407027 C8.97211911,42.0394868 9.01549184,41.934247 9.05473384,41.8269436 C9.09139412,41.7282039 9.12547269,41.6260594 9.15438785,41.5218514 L12.6445472,42.4455848 L9.15459438,41.5209228 C9.18350954,41.41981 9.20932664,41.315602 9.23204569,41.2113939 L11.5585472,41.8265848 L9.23121954,41.2105685 C9.25393859,41.1022334 9.2725269,40.9918348 9.28698448,40.8804044 C9.30216494,40.7593786 9.31249178,40.6376306 9.3176552,40.5158826 C9.32003037,40.4586197 9.32209574,40.400841 9.32209574,40.3430623 L9.32147613,40.3430623 L9.32147613,40.2625848 C9.32044344,40.1974806 9.31734539,40.1324795 9.31321465,40.069542 Z" id="形状结合" fill="#949494" fill-rule="nonzero"></path>
            <path d="M12.7042393,45.1536566 L6.79625382,43.5874406 C6.81587481,43.5925994 6.83549581,43.5967265 6.85511681,43.6018853 L12.7641349,45.1681013 C12.7434813,45.1629425 12.7238603,45.1588154 12.7042393,45.1536566" id="Fill-123" fill="#7F7F7F"></path>
            <path d="M12.7637219,45.1677917 L6.85573642,43.6015757 C6.8825862,43.6077663 6.91046867,43.6160204 6.93731846,43.6201475 L12.8453039,45.1863635 C12.8174214,45.1812047 12.7905717,45.1739823 12.7637219,45.1677917" id="Fill-124" fill="#7F7F7F"></path>
            <path d="M12.8454072,45.1858476 L6.93742173,43.6196316 C6.93948709,43.6206633 6.94258515,43.6206633 6.94465051,43.6216951 L12.852636,45.1868794 C12.8495379,45.1868794 12.8474726,45.1858476 12.8454072,45.1858476" id="Fill-125" fill="#838383"></path>
            <path d="" id="形状结合" fill="#6E6E6E"></path>
            <path d="M14.7625851,13.3503922 L20.6705706,14.9166082 C20.7087799,15.4974907 20.7821005,16.0732144 20.8905323,16.6375886 L20.9425537,16.8895967 L20.9425537,16.8895967 L20.9995837,17.1337634 L10.0872114,40.1348526 L10.0574701,40.1984092 C9.95327223,40.4234366 9.8582653,40.6504245 9.77255252,40.8825711 C9.69159009,41.1018207 9.61930221,41.3246815 9.5552758,41.548574 C9.49114612,41.7737047 9.43538118,41.9996607 9.3889104,42.2256168 L9.32177302,42.5829679 L9.26839617,42.9395967 C9.23431759,43.2047597 9.21263123,43.468891 9.2012717,43.7309588 C9.18815662,44.051837 9.19125467,44.3675565 9.21190835,44.6760536 C9.31197543,46.1690144 9.80869646,47.4937979 10.6771837,48.2934141 C10.7277853,48.3398434 10.7794195,48.3842092 10.8775245,48.4615915 C10.9147011,48.4904808 10.950845,48.5183384 11.045852,48.5833395 C11.0809632,48.60707 11.1150418,48.628737 11.2121141,48.6865158 C11.237673,48.7012184 11.2638128,48.7153406 11.3162377,48.742376 L11.3783762,48.7742156 C11.4145202,48.7917556 11.4516968,48.8082638 11.5477364,48.8485025 C11.5931745,48.8670743 11.6386126,48.8825507 11.7170966,48.9093765 L11.7480304,48.9182556 L5.89069317,47.3658593 L5.84835313,47.3552837 L5.80911113,47.3431605 C5.73062714,47.3173665 5.68518905,47.3008583 5.63975095,47.2822865 C5.56772123,47.2521075 5.52880195,47.2358572 5.49859595,47.2222186 L5.47039076,47.2090314 C5.37331846,47.1595067 5.3382072,47.140935 5.30412863,47.1213315 C5.20705633,47.0635528 5.17297776,47.0418858 5.13889918,47.019187 C5.04285957,46.9531542 5.00671562,46.9252966 4.969539,46.8964072 C4.87143401,46.8179932 4.81979981,46.7746592 4.76919829,46.7271981 C3.90174369,45.9296454 3.40398998,44.6048619 3.30381962,43.1108693 C3.28326921,42.8023722 3.27913847,42.485621 3.29359605,42.1647428 C3.30096253,41.9907188 3.31351538,41.8153191 3.3311628,41.6391552 L3.36103037,41.3735791 L3.36082378,41.3737934 C3.3918043,41.1364879 3.43207898,40.8981507 3.48061513,40.6608453 C3.52739572,40.4344765 3.58316066,40.2085204 3.64718707,39.9835961 C3.71131675,39.760529 3.78360463,39.5376682 3.86518667,39.316871 L3.86456706,39.3163551 C3.95027984,39.086272 4.04528677,38.8572206 4.14958786,38.6322963 L4.17943243,38.5692556 L15.0926309,15.5685791 L15.0920113,15.5686823 C15.053802,15.4097908 15.01456,15.2416135 14.9825468,15.0713726 C14.874115,14.5080301 14.8018271,13.9323064 14.7625851,13.3503922 Z M20.8017215,0.0471515622 L26.7097069,1.6123358 C26.6797591,1.62058991 26.6487786,1.62987577 26.6167654,1.64122516 L26.6145899,1.64015156 L26.5952597,1.64898918 C26.5879018,1.65169756 26.5804149,1.6545349 26.5731861,1.65763019 C26.5287807,1.6741384 26.4823099,1.69477365 26.390401,1.74017122 C26.3552897,1.75874295 26.3191458,1.77834645 26.2365311,1.82580754 C26.194191,1.85056984 26.151851,1.87739568 26.1084783,1.90628504 L26.1065899,1.90615156 L26.080286,1.925579 C25.4049106,2.38058642 24.7770387,2.9532148 24.2049317,3.61767008 C23.739501,4.15810746 23.3119698,4.7596252 22.925746,5.40757226 C22.6700534,5.83657926 22.4335688,6.28642786 22.2167051,6.7517529 C22.0297893,7.15424359 21.8573311,7.56901226 21.7003631,7.99409855 L17.3160304,6.83215156 L21.7001566,7.99461443 C21.6017074,8.26149709 21.5096837,8.5325068 21.4240857,8.80672643 L21.3006111,9.22034869 C21.1839178,9.62995854 21.0806494,10.0467907 20.993904,10.4667182 C20.9037506,10.9000586 20.8304301,11.3375261 20.7736325,11.777057 C20.7130139,12.2513584 20.6717065,12.7290646 20.6510529,13.205739 C20.626888,13.7781611 20.6320515,14.3497577 20.6702608,14.9161955 L14.7622753,13.3499795 C14.7250987,12.7845735 14.7189026,12.2129768 14.7426543,11.6403485 C14.7637211,11.1638804 14.8039958,10.6861742 14.8659568,10.2115633 C14.9224446,9.77234182 14.9957652,9.33487437 15.0856087,8.90153397 C15.1436455,8.62158232 15.2084293,8.34300635 15.2800516,8.06672319 L15.3925224,7.65413269 C15.5112811,7.23936403 15.6444973,6.82975417 15.7932038,6.42839843 L15.7923777,6.42891431 C15.9493456,6.00382801 16.1218039,5.58905935 16.3087197,5.18667184 C16.5255833,4.72021185 16.762068,4.27139502 17.0181736,3.84218167 C17.4029517,3.19444095 17.8315156,2.59292321 18.2972561,2.05227948 C18.8690533,1.38803056 19.4969252,0.815402179 20.1723005,0.360394763 L20.2012157,0.340791269 L22.7025899,1.00315156 L20.2004928,0.340069035 C20.2438655,0.312211438 20.2862056,0.285385604 20.3285456,0.260623295 C20.4111603,0.213162204 20.4473043,0.19355871 20.4834482,0.174986979 C20.5753571,0.129589414 20.6207952,0.108954157 20.6652006,0.0924459512 L20.6876615,0.0838049374 L20.6876615,0.0838049374 L20.7087799,0.0760409219 C20.7407931,0.0646915306 20.7717736,0.055405665 20.8017215,0.0471515622 Z" id="形状结合" fill="url(#linearGradient-4)" fill-rule="nonzero"></path>
            <path d="M15.9621509,23.8106103 L10.0541655,22.2454261 C10.0345445,22.2402673 10.0159562,22.2320132 9.99736784,22.223759 L15.9053533,23.7889433 C15.9239416,23.7971974 15.9425299,23.8054515 15.9621509,23.8106103" id="Fill-158" fill="#6E6E6E"></path>
            <path d="M15.9056631,23.7889433 L9.99767764,22.223759 C9.9873508,22.219632 9.9749586,22.2165367 9.96463175,22.2103461 C9.93365123,22.1938379 9.90473608,22.1721709 9.87685361,22.1453451 L15.7848391,23.7105293 C15.8127215,23.7373551 15.8416367,23.7590222 15.8726172,23.7755304 C15.8829441,23.7817209 15.8943036,23.7848162 15.9056631,23.7889433" id="Fill-159" fill="#6E6E6E"></path>
            <path d="M15.2294616,41.9082466 L15.2294616,41.827769 C15.2284289,41.7349104 15.2232655,41.645147 15.215004,41.5564154 C15.2129386,41.5264943 15.2077752,41.4976049 15.2046772,41.4676838 C15.1984811,41.4109369 15.192285,41.3531581 15.1840235,41.2984747 C15.1778274,41.2654583 15.1705986,41.2355372 15.1644025,41.2025208 C15.1551083,41.1529961 15.1458142,41.1024398 15.1344547,41.0549787 C15.1261932,41.022994 15.116899,40.9920411 15.1076049,40.9610883 C15.0952127,40.9156907 15.0828204,40.8692614 15.0683629,40.8259273 C15.058036,40.7939427 15.0456438,40.7650533 15.0342843,40.7330687 C15.018794,40.6928299 15.0043365,40.6525912 14.9888462,40.6154477 C14.9754213,40.5844948 14.959931,40.5566372 14.9465062,40.5277479 C14.9279178,40.4916362 14.9113949,40.4544927 14.8928066,40.4204445 C14.8773163,40.3925869 14.8607934,40.3667929 14.8432377,40.339967 C14.8236168,40.3079824 14.8050284,40.2759977 14.7843748,40.2460766 C14.7668191,40.2202825 14.7482308,40.1975837 14.7286098,40.1728214 C14.7069235,40.1449638 14.6862698,40.1160745 14.6635507,40.0892486 C14.6439297,40.0686134 14.623276,40.0479781 14.603655,40.0283746 C14.5799033,40.0036123 14.5561516,39.97885 14.5313672,39.9551195 C14.5096808,39.9365477 14.4869618,39.9200395 14.4652754,39.9035313 C14.4394583,39.8828961 14.4136412,39.8612291 14.3878241,39.8426573 C14.3640723,39.8271809 14.3403206,39.8147997 14.3176016,39.8003551 C14.2897191,39.7838468 14.2628693,39.7683704 14.2349868,39.7539257 C14.2102024,39.7415446 14.185418,39.7332905 14.1606336,39.7229728 C14.1317184,39.7105917 14.1017706,39.6971788 14.0718228,39.6889247 C14.0460057,39.6806706 14.0201886,39.6755117 13.9943715,39.6682894 C13.9644236,39.6610671 13.9344758,39.652813 13.9034953,39.6486859 C13.8756128,39.6445589 13.8466976,39.6435271 13.8188152,39.6404318 C13.7878346,39.6383683 13.7578868,39.635273 13.7269063,39.635273 C13.6979911,39.635273 13.6680433,39.6373365 13.6391281,39.6394 C13.6081476,39.6424953 13.5761344,39.6445589 13.5441212,39.6486859 C13.5141734,39.652813 13.4831929,39.6600353 13.453245,39.6672576 C13.4294933,39.6724165 13.4067742,39.67448 13.3840552,39.6806706 C13.3654669,39.6858294 13.3468786,39.69202 13.3282902,39.6971788 C12.3018023,40.0252794 11.4952761,41.4986367 11.5200605,43.0029469 C11.5210932,43.0947738 11.5262566,43.1866007 11.5334854,43.2753323 C11.5355507,43.3011264 11.5407142,43.3238252 11.5427795,43.3485875 C11.5500083,43.411525 11.5562044,43.4754943 11.5665313,43.5353366 C11.5716947,43.5631942 11.5778908,43.5910518 11.5830542,43.6178776 C11.593381,43.672561 11.6026752,43.7282762 11.6161001,43.7798644 C11.6243616,43.8139125 11.6346884,43.8438337 11.6429499,43.8758183 C11.6563748,43.9201841 11.6677343,43.9655817 11.6821919,44.0089157 C11.6935514,44.0419321 11.7069763,44.0739168 11.7193685,44.1059014 C11.7338261,44.1440766 11.747251,44.1843154 11.7637739,44.2204271 C11.7761661,44.25138 11.7916564,44.2792376 11.806114,44.3081269 C11.8236696,44.3442386 11.8401925,44.3813821 11.8587808,44.4154303 C11.8742711,44.4432879 11.8918267,44.4680502 11.9083497,44.4959078 C11.9279707,44.5268607 11.9475917,44.5598771 11.9682454,44.59083 C11.985801,44.6155923 12.005422,44.638291 12.0240103,44.6630534 C12.0456967,44.690911 12.067383,44.7198003 12.0901021,44.7455944 C12.1097231,44.7672614 12.1314094,44.7878967 12.1520631,44.8095637 C12.1747822,44.8332942 12.1985339,44.8570248 12.2233183,44.8797236 C12.2450047,44.8982953 12.2677237,44.9158353 12.2904428,44.934407 C12.3162599,44.9529787 12.3410443,44.9746457 12.3668614,44.9921857 C12.3906131,45.0086939 12.4153975,45.0221068 12.440182,45.0355197 C12.4670317,45.0520279 12.4928488,45.0685362 12.5196986,45.0809173 C12.5455157,45.0943302 12.5723655,45.1036161 12.5981826,45.1139337 C12.6260651,45.1252831 12.6539476,45.1376643 12.6828627,45.1469501 C12.7097125,45.1552042 12.7365623,45.160363 12.7634121,45.1675854 C12.7933599,45.1748077 12.8222751,45.1820301 12.8522229,45.1871889 C12.8801054,45.1923477 12.9090205,45.1933795 12.936903,45.195443 C12.9678835,45.1975065 12.9978314,45.2006018 13.0288119,45.2006018 C13.057727,45.2006018 13.0876749,45.1975065 13.1176227,45.1964747 C13.1486032,45.1944112 13.1795837,45.1933795 13.2115969,45.1882206 C13.2415448,45.1840936 13.2714926,45.1768713 13.3004078,45.1696489 C13.3262249,45.1644901 13.3510093,45.1613948 13.3768264,45.1541725 C13.391284,45.1510772 13.4057416,45.1469501 13.4212318,45.1417913 C14.4280988,44.8188495 15.2284289,43.3919215 15.2294616,41.9082466 M27.7022196,22.7772998 C27.4894866,22.8237291 27.3634992,22.8443644 27.236479,22.8598408 L16.3044857,45.8671206 C16.2507861,45.9744239 16.2032826,46.0703779 16.1537138,46.1642683 C16.0710991,46.3149057 16.0380532,46.3778432 16.0039746,46.4387172 C15.9100004,46.5945134 15.8779872,46.6481651 15.845974,46.700785 C15.7458036,46.8534859 15.7127577,46.9030105 15.6797118,46.9515034 C15.5774761,47.0969819 15.5433975,47.1423795 15.509319,47.187777 C15.4008871,47.3291286 15.3637105,47.3745261 15.3255012,47.4209554 C15.2129386,47.5550846 15.1644025,47.6077045 15.1158663,47.6603244 C15.0177614,47.7676278 14.9558003,47.8295335 14.8928066,47.8914393 C14.7947016,47.9832662 14.7492635,48.0255685 14.7027927,48.0658072 C14.5891975,48.1617612 14.5489228,48.1947776 14.5076154,48.2267622 C14.3898895,48.3175574 14.3496148,48.345415 14.3103728,48.3743043 C14.1874834,48.4578771 14.1482414,48.4826394 14.1100321,48.5074017 C13.9840446,48.5827204 13.9427373,48.6054192 13.9014299,48.628118 C13.7744098,48.6941508 13.7258736,48.7178813 13.6783701,48.7385166 C13.5503173,48.7962953 13.4821602,48.8231212 13.414003,48.8478835 C13.3117673,48.8819316 13.2601331,48.8984398 13.2084989,48.9128845 C13.1578974,48.9273292 13.1072959,48.9397104 13.0566943,48.9510598 C12.9709816,48.9706632 12.9110859,48.9809809 12.8501575,48.9902667 C12.757216,49.0026479 12.7138432,49.0078067 12.6704705,49.0119338 C12.5661694,49.0181243 12.5289928,49.0191561 12.4918162,49.0201879 C12.3833843,49.0191561 12.3462077,49.0181243 12.3090311,49.0160608 C12.2036973,49.0078067 12.1644553,49.0026479 12.126246,48.9974891 C12.0229776,48.9820126 11.9806376,48.9747903 11.9382975,48.9655044 C11.8308984,48.9417739 11.7741007,48.9262974 11.7173031,48.9087575 C11.6388191,48.8829634 11.593381,48.8664552 11.5479429,48.8489152 C11.4508706,48.8076447 11.4147267,48.7921683 11.3785828,48.7735965 C11.2804778,48.7240719 11.2463992,48.706532 11.2112879,48.6858967 C11.1152483,48.6291497 11.0801371,48.606451 11.0460585,48.5837522 C10.9510516,48.5177194 10.9138749,48.4908935 10.877731,48.4620042 C10.7785933,48.3835902 10.7279918,48.3392244 10.6773903,48.2927951 C8.95693866,46.7111026 8.69463691,43.0658845 10.0877277,40.1346462 L21.0001001,17.133557 C20.9608581,16.9746656 20.9226488,16.8064882 20.8896029,16.6372791 C19.8362651,11.1534596 22.1608369,4.56978083 26.0798729,1.92537265 C26.1335725,1.88822919 26.1852067,1.85624454 26.2368409,1.82529165 C26.3184229,1.77783056 26.3545669,1.75822707 26.3907108,1.7406871 C26.4826197,1.69528954 26.5280578,1.67465428 26.5734959,1.65711431 C26.622032,1.63854258 26.6664375,1.6240979 26.7098102,1.61171675 C26.7934576,1.59004973 26.8450918,1.57870033 26.8936279,1.57250976 C26.9462948,1.56597061 26.9937983,1.56528742 27.0392364,1.56597061 C27.1053282,1.56941447 27.1466355,1.57560505 27.1858775,1.58489091 C27.2870806,1.61171675 27.3583358,1.64679668 27.4213295,1.69425777 C27.4667676,1.73036947 27.4936174,1.75719531 27.5184018,1.78608467 C27.5813955,1.86449864 27.6216702,1.93878557 27.6526507,2.02235836 C27.6753698,2.08632766 27.6867293,2.1296617 27.6960235,2.17505926 C27.7187425,2.29474375 27.7259713,2.39998356 27.7228732,2.51244571 C27.7187425,2.59705027 27.7135791,2.65379722 27.7063503,2.71157594 C27.6846639,2.86427684 27.6557488,2.99118367 27.6154741,3.12324932 C27.5844936,3.22229855 27.5607418,3.28729961 27.5359574,3.35230067 C27.4925847,3.46063577 27.4626369,3.52976388 27.429591,3.59992375 L26.1211803,6.35576232 C24.7353183,9.28493705 25.0048488,12.9291234 26.7180717,14.5128794 C26.7810654,14.5727216 26.8326996,14.6150239 26.8843338,14.6562944 C26.9700466,14.7223273 27.0051578,14.7481213 27.0413018,14.7728836 C27.135276,14.8358212 27.1693546,14.8574882 27.2044658,14.8781234 C27.3005055,14.9328069 27.3356167,14.9524104 27.370728,14.9699503 C27.4698656,15.0184432 27.5091076,15.0349514 27.5483496,15.0504278 C27.7125464,15.1154289 27.8271743,15.1505088 27.9428349,15.1773347 C28.0368092,15.1959064 28.0770839,15.2041605 28.1163259,15.2103511 C28.220627,15.2227322 28.2578036,15.2268593 28.2960129,15.2299546 C28.3992813,15.2361452 28.4374906,15.2371769 28.4736345,15.2382087 C28.5830991,15.2371769 28.6233737,15.2351134 28.6636484,15.2330499 C28.7751783,15.2247958 28.8299105,15.2175734 28.8846428,15.2103511 C28.9610614,15.1990017 29.0209571,15.1876523 29.0808528,15.1742394 C29.1686309,15.1525724 29.1996114,15.1463818 29.2316246,15.1370959 C29.3018472,15.1164607 29.3483179,15.1009842 29.3958214,15.084476 C29.531103,15.0380467 29.5992602,15.0112209 29.6674173,14.9812997 C29.7479667,14.9462198 29.8099277,14.9162987 29.8718887,14.884314 C29.985484,14.82344 30.0309221,14.7976459 30.0763602,14.7708201 C30.1940862,14.697565 30.2364262,14.6707391 30.2787663,14.6428815 C30.3975249,14.5593087 30.4388323,14.5293876 30.479107,14.4984347 C30.596833,14.4066078 30.6371076,14.3735914 30.6763496,14.340575 C30.7971737,14.236367 30.8405464,14.1961282 30.8839191,14.1558895 C31.0068085,14.0382685 31.0687696,13.975331 31.1307306,13.9092981 C31.1988878,13.8350112 31.2567181,13.7710419 31.3135157,13.7039773 C31.410588,13.5863564 31.4508627,13.5368317 31.4911373,13.4862754 C31.5933731,13.3500827 31.6284843,13.3026216 31.6635956,13.253097 C31.7658313,13.1065866 31.7988772,13.057062 31.8319231,13.0065056 C31.9310607,12.8496777 31.9641066,12.796026 31.9961198,12.7403108 C32.0911268,12.5783241 32.1252053,12.5143548 32.1603166,12.4514172 C32.2563562,12.269827 32.3048924,12.173873 32.3513632,12.0748238 L33.646349,9.34065224 C33.6742314,9.28081 33.7031466,9.22612657 33.7320617,9.1724749 C33.7785325,9.08683858 33.8022842,9.04659983 33.826036,9.00945637 C33.8745721,8.93207415 33.9034873,8.88977188 33.9334351,8.84850136 C34.0800763,8.67516521 34.1089914,8.64627585 34.1379066,8.62048177 C34.1730178,8.58849713 34.2029657,8.56476658 34.2329135,8.54413132 C34.9661192,8.64627585 34.9867729,8.67516521 35.0063939,8.70611809 C35.1499369,9.00532932 35.1643945,9.04969512 35.1778194,9.09715621 C35.1995058,9.1724749 35.2087999,9.21065012 35.2180941,9.25088887 C35.2377151,9.34065224 35.2449439,9.38295452 35.2532053,9.42732032 C35.2697283,9.53359189 35.2779898,9.5944659 35.2841859,9.65740344 C35.2924473,9.74613504 35.2976108,9.80081847 35.3007088,9.85859719 C35.3058722,9.97724992 35.3079376,10.0298698 35.3089703,10.0835215 C35.3110356,10.224873 35.3100961,10.303287 35.3079376,10.3837645 C35.3017415,10.5911488 35.2883166,10.7913108 35.2759244,11.0007587 C35.2624995,11.1844125 35.2470092,11.3660027 35.2284209,11.5486247 C35.2222248,11.6105305 35.2139633,11.673468 35.2067346,11.7353738 C35.1943423,11.8550583 35.1809175,11.9726793 35.1654272,12.091332 C35.1551004,12.1635554 35.1437408,12.234747 35.133414,12.3080022 C35.1179237,12.4153055 35.1024335,12.5236406 35.0848778,12.630944 C35.0724856,12.7052309 35.0580281,12.7784861 35.0446032,12.852773 C35.0260148,12.9559493 35.0084592,13.0591255 34.9878055,13.1623018 C34.973348,13.2376205 34.956825,13.3129392 34.9403021,13.3892897 C34.9196484,13.4883389 34.897962,13.5884199 34.875243,13.6864374 C34.8576873,13.7638196 34.839099,13.84017 34.8205107,13.9175522 C34.796759,14.0135062 34.7730073,14.1094601 34.7482228,14.2043823 C34.7275692,14.2807328 34.7069155,14.3570832 34.6862618,14.4344654 C34.659412,14.5273241 34.6335949,14.6212145 34.6057124,14.7140732 C34.5840261,14.7893918 34.561307,14.8647105 34.5375553,14.9379657 C34.5086401,15.0328879 34.4786923,15.1257465 34.4477118,15.219637 C34.42396,15.2908286 34.4002083,15.3620202 34.3754239,15.4332119 C34.3434107,15.5271023 34.3103648,15.6199609 34.2762862,15.7117878 C34.2504691,15.7829795 34.2256847,15.8531393 34.1988349,15.9222675 C34.1637237,16.0140943 34.1275797,16.1059212 34.0914358,16.1956846 C34.064586,16.263781 34.0367035,16.3308455 34.0098537,16.3979101 C33.9706117,16.489737 33.9313698,16.5795004 33.8921278,16.6702955 C33.8632126,16.7352966 33.8363628,16.8002976 33.806415,16.8642669 C33.7651076,16.9560938 33.7217349,17.0458572 33.6783622,17.1366523 C33.649447,17.1964946 33.6215645,17.2563368 33.5926494,17.3161791 C33.5451459,17.412133 33.4955771,17.5070552 33.4460083,17.6019774 C33.4191585,17.6535655 33.3933414,17.7051537 33.3664916,17.75571 C33.3076286,17.8661087 33.2467002,17.9744438 33.1857719,18.0827789 C32.9658102,18.4645311 32.7954173,18.7369165 32.6177956,19.000016 C32.5940439,19.0340642 32.5702922,19.0670806 32.5475731,19.1011288 C32.4814813,19.1950192 32.4164223,19.2899414 32.3492978,19.3817683 C32.3162519,19.4271658 32.2821733,19.4694681 32.2491274,19.5138339 C32.1902644,19.5932797 32.1314015,19.6716936 32.0704731,19.7480441 C32.0322638,19.7965369 31.9930218,19.8429663 31.9548125,19.8904274 C31.8980149,19.9605872 31.8401846,20.0297154 31.7823542,20.0978117 C31.7420796,20.1463046 31.7007722,20.1927339 31.6594648,20.2391632 C31.6016345,20.3041643 31.5438042,20.3691653 31.4859739,20.4321029 C31.4426012,20.4775004 31.3992285,20.522898 31.3558557,20.5682956 C31.2990581,20.6281378 31.2401951,20.68798 31.1823648,20.7457588 C31.1369267,20.7911563 31.0904559,20.8355221 31.0439851,20.8798879 C30.9861548,20.9345714 30.9283245,20.9892548 30.8704942,21.0418747 C30.8229908,21.0852087 30.7754873,21.1264793 30.7279838,21.1677498 C30.6691208,21.2193379 30.6092252,21.2709261 30.5493295,21.3194189 C30.501826,21.3596577 30.4532899,21.3998964 30.403721,21.4380716 C30.344858,21.4855327 30.2839297,21.5309303 30.224034,21.5763279 C30.1744652,21.6145031 30.1238637,21.6506148 30.0742948,21.6867265 C30.0133665,21.7300605 29.9514054,21.7723628 29.8904771,21.8136333 C29.8398755,21.8476815 29.789274,21.8817297 29.7386725,21.9137143 C29.6756788,21.9549848 29.6116524,21.9931601 29.547626,22.0313353 C29.4980571,22.0602246 29.449521,22.0901458 29.3989195,22.1190351 C29.3328277,22.1561786 29.2646705,22.1912585 29.1975461,22.2263385 C29.1490099,22.2521325 29.1015064,22.2779266 29.0519376,22.3026889 C28.9806824,22.3367371 28.9094272,22.3687217 28.8371393,22.4007064 C28.7927339,22.4213416 28.7483285,22.4430087 28.7028904,22.4615804 C28.6202757,22.4966603 28.537661,22.5265814 28.4550462,22.5575343 C28.4189023,22.5709472 28.3827583,22.5853919 28.3476471,22.5988048 C28.2278557,22.6390436 28.1090971,22.6761871 27.9893057,22.7102352 C27.8942988,22.7360293 27.7972265,22.7566646 27.7022196,22.7772998" id="Fill-161" fill="url(#linearGradient-5)" fill-rule="nonzero"></path>
            <path d="M0.0536531087,12.259922 L5.96163857,13.8251063 C5.95234441,13.8591545 5.94408294,13.8921709 5.93685415,13.926219 C5.92952209,13.9618149 5.92332599,13.9968948 5.91919525,14.0319747 C5.91423837,14.0709754 5.91114032,14.1091506 5.90907495,14.1473258 L0.982,12.8415034 L5.90907495,14.1476354 C5.90700958,14.1940647 5.90804226,14.240494 5.91114032,14.2858916 C5.92236726,14.4499263 5.96657093,14.6012337 6.04364887,14.7217962 L6.04445983,14.7224304 L8.48985566,18.1953442 L8.49016547,18.1948283 C8.55419188,18.2763376 8.62544708,18.3372116 8.71012717,18.3671327 L10.73615,18.9973334 L7.43603844,18.1227421 L10.7357369,18.9977462 L10.8854761,19.1081448 L7.937,18.3265034 L10.885063,19.1086607 L15.7851489,23.710323 L9.87716342,22.1451387 L4.98,17.5435034 L4.97749067,17.5429605 L4.83003844,17.4327421 L4.82816455,17.4321492 L2.80203844,16.8017421 C2.71746162,16.7709956 2.64620642,16.7111533 2.58114732,16.6296441 L0.13647437,13.1572462 C0.0588165289,13.0368395 0.0144111147,12.8851703 0.00305159016,12.72112 C1.4963754e-05,12.6753098 -0.000975877638,12.6288804 0.00108949046,12.5824511 C0.00315485857,12.5439664 0.00625291072,12.5047594 0.011416331,12.4665841 C0.0163732144,12.4317106 0.0215366347,12.3966306 0.028765423,12.3605189 C0.0360974798,12.3269866 0.0443589522,12.2929385 0.0536531087,12.259922 Z M1.93103829,9.12693976 L1.95306888,9.13017262 L1.96133036,9.13120438 L7.86931581,10.6963886 C7.86621776,10.6963886 7.86311971,10.6953569 7.86105434,10.6953569 C7.84040066,10.6914362 7.81768161,10.6893726 7.77430888,10.6893726 C7.76036765,10.6908171 7.74591007,10.6918489 7.73145249,10.6939124 L7.72905852,10.6926011 L7.70377656,10.6990712 C7.69422423,10.7013927 7.68415556,10.70423 7.67331238,10.7078412 C7.66711628,10.708873 7.66195286,10.7109365 7.65678944,10.713 C7.6330377,10.7213573 7.6072206,10.7327067 7.57004398,10.7523102 L7.55186874,10.7623699 L7.53328042,10.773874 C7.51469211,10.7862552 7.49403843,10.8017316 7.46822133,10.8233986 C7.44343691,10.8440339 7.41865249,10.8677644 7.38250855,10.9069714 L7.37589937,10.9145033 C7.35204437,10.9417418 7.32932532,10.9737265 7.29421407,11.0263464 L7.29316951,11.0261884 L7.28349997,11.0431641 C7.28001466,11.0488388 7.27665844,11.0545135 7.27356039,11.0601882 L7.25097042,11.1002335 L7.2287419,11.142007 L6.04528597,13.6048249 L4.354,13.1565034 L6.0448729,13.6045154 L6.04177485,13.6116088 L6.03816045,13.6174124 C6.02267019,13.6524924 6.00821262,13.6875723 5.99478772,13.723684 L5.99509753,13.7237872 C5.98270532,13.7568036 5.9713458,13.7908518 5.96205164,13.8248999 L0.0540661823,12.2597157 C0.0643930228,12.2256675 0.0747198633,12.1916193 0.0871120719,12.1586029 L0.0868022667,12.1584998 L0.107843204,12.1049771 L0.130691339,12.0527441 L0.136887443,12.0393311 L0.137,12.0385034 L1.32116951,9.57702911 C1.33459441,9.54813975 1.35008467,9.52131392 1.36557493,9.49448808 C1.37280372,9.48365457 1.37899982,9.47230518 1.38622861,9.46095579 C1.42133987,9.40854224 1.44405892,9.37655759 1.46781065,9.34973176 L1.47411002,9.34209671 C1.51066704,9.30258019 1.53545145,9.27884965 1.56023587,9.25821439 C1.58605297,9.23654737 1.60773934,9.22107093 1.62632765,9.20868977 L1.62581131,9.20879295 C1.6392362,9.20053885 1.65059573,9.19331651 1.66195525,9.18609417 C1.69923514,9.16752244 1.72505225,9.15617304 1.74880398,9.14791894 C1.7539674,9.14575224 1.7601635,9.14368871 1.76532692,9.14265695 C1.78701329,9.13543461 1.8056016,9.13130756 1.82418991,9.12821227 L1.82605852,9.1276011 L1.8451534,9.12550389 L1.86683977,9.1246011 C1.89523858,9.1241884 1.91497432,9.12510552 1.93103829,9.12693976 Z" id="形状结合" fill="url(#linearGradient-6)" fill-rule="nonzero"></path>
            <path d="M10.8854761,19.1081448 L10.7357369,18.9977462 L8.71064351,18.367339 C8.62596342,18.3363862 8.55470822,18.2755122 8.48964912,18.1950347 L6.04425329,14.7231527 C5.8625009,14.4414814 5.8625009,13.9854422 6.04528597,13.6047217 L7.2287419,11.1419038 C7.24939558,11.1006333 7.27108194,11.0624581 7.29380099,11.0263464 C7.3320103,10.9685677 7.35679472,10.936583 7.38261182,10.9066619 C7.41875576,10.8684867 7.44354018,10.8447561 7.4683246,10.8230891 C7.51169733,10.7880092 7.54061248,10.7684057 7.57056032,10.7518975 C7.61599842,10.7281669 7.64491357,10.7157858 7.67279604,10.7075317 C7.71307072,10.6961823 7.74405124,10.6910235 7.77399908,10.6889599 C7.82253523,10.6899917 7.84628696,10.6920552 7.86900601,10.697214 C7.92477095,10.710627 7.95471879,10.7219763 7.98260125,10.7384845 L11.196314,12.5874036 C11.2809941,12.6358964 11.3460532,12.7070881 11.3976874,12.8092326 L12.5904375,15.1616519 L12.7071308,15.3257022 L17.6072166,19.9366503 C17.8602242,20.1884005 17.8922374,20.7073772 17.6898313,21.1386541 L16.6096438,23.3579759 L16.5714345,23.4394852 C16.543552,23.4879781 16.5146369,23.5313121 16.4836564,23.5705191 C16.4733295,23.583932 16.4609373,23.5942496 16.4506105,23.6066308 C16.4289241,23.6303613 16.4082704,23.6551236 16.3855514,23.6747271 C16.3710938,23.6871083 16.3566362,23.6963942 16.3421787,23.7077436 C16.321525,23.72322 16.3008713,23.7397282 16.2802176,23.7521094 C16.2636947,23.7613952 16.2482044,23.7675858 16.2327141,23.7748081 C16.2120605,23.784094 16.1914068,23.7944116 16.1707531,23.8006022 C16.1511321,23.8067928 16.1315111,23.8098881 16.1118901,23.8140151 C16.0974325,23.8150469 16.082975,23.8191739 16.0685174,23.8202057 C16.0488964,23.8212375 16.0282427,23.8181422 16.0086217,23.8160787 C15.9951968,23.8150469 15.9817719,23.8150469 15.968347,23.8119516 C15.9466607,23.8067928 15.926007,23.7975069 15.9053533,23.7892528 C15.8950265,23.784094 15.8826342,23.7820305 15.8723074,23.7758399 C15.8423596,23.7582999 15.8124117,23.7376647 15.7855619,23.7098071 L10.8854761,19.1081448 Z" id="Fill-228" fill="url(#linearGradient-7)" fill-rule="nonzero"></path>
        </g>
    </g>
</svg>