<?xml version="1.0" encoding="UTF-8"?>
<svg width="50px" height="50px" viewBox="0 0 50 50" version="1.1" xmlns="http://www.w3.org/2000/svg" xmlns:xlink="http://www.w3.org/1999/xlink">
    <title>CDN服务商-灰</title>
    <defs>
        <linearGradient x1="28.2728325%" y1="52.6900208%" x2="105.517463%" y2="44.290989%" id="linearGradient-1">
            <stop stop-color="#5F5F5F" offset="0%"></stop>
            <stop stop-color="#B8B8B8" offset="100%"></stop>
        </linearGradient>
        <linearGradient x1="-20.3546479%" y1="160.731594%" x2="87.0344065%" y2="30.8652582%" id="linearGradient-2">
            <stop stop-color="#5F5F5F" offset="0%"></stop>
            <stop stop-color="#B8B8B8" offset="100%"></stop>
        </linearGradient>
        <linearGradient x1="73.3129451%" y1="-254.043225%" x2="-32.0792035%" y2="245.106219%" id="linearGradient-3">
            <stop stop-color="#E7E7E7" offset="0%"></stop>
            <stop stop-color="#AFAFAF" offset="100%"></stop>
        </linearGradient>
        <linearGradient x1="40.3545661%" y1="106.245907%" x2="94.0528273%" y2="-25.638641%" id="linearGradient-4">
            <stop stop-color="#5F5F5F" offset="0%"></stop>
            <stop stop-color="#B8B8B8" offset="100%"></stop>
        </linearGradient>
        <linearGradient x1="67.7854597%" y1="8.95579841%" x2="23.741742%" y2="92.2600769%" id="linearGradient-5">
            <stop stop-color="#E7E7E7" offset="0%"></stop>
            <stop stop-color="#AFAFAF" offset="100%"></stop>
        </linearGradient>
    </defs>
    <g id="页面-1" stroke="none" stroke-width="1" fill="none" fill-rule="evenodd">
        <g id="编组-84" transform="translate(0.000000, 4.000000)">
            <path d="M34.54135,8.65022594 L42.4418423,10.7451476 C42.2236501,10.7796717 42.0054579,10.8266244 41.7831227,10.8887678 L41.7805464,10.8887635 L41.5888557,10.9457671 C41.5244683,10.9659637 41.4602535,10.9873686 41.3960387,11.0101545 L33.4955464,8.91385187 C33.623976,8.86966104 33.7524056,8.8296131 33.8822162,8.79370805 L38.2945464,9.96276347 L33.8826304,8.79246518 C34.1035846,8.73170279 34.3245388,8.68336906 34.54135,8.65022594 Z M35.4476764,8.58076347 C35.6354874,8.58260476 35.8208434,8.59487999 36.0037444,8.61677082 L36.2757021,8.65630218 C36.4207033,8.68115952 36.5629425,8.71292168 36.7038008,8.7502077 L44.6042931,10.8451294 C44.4634348,10.8078433 44.3198146,10.7774621 44.1761944,10.7512238 L44.1746304,10.7507635 L43.9042367,10.7126643 C43.7213357,10.6911826 43.5359797,10.6789074 43.3481687,10.6770661 L35.4476764,8.58076347 Z M35.4486431,8.58186824 L43.3481687,10.6770661 L43.3481687,10.6770661 C43.0508473,10.674028 42.7484162,10.6961234 42.4418423,10.7444571 L34.54135,8.64953546 C34.8479239,8.60120173 35.1517359,8.57910632 35.4486431,8.58186824 Z" id="形状结合" fill="url(#linearGradient-1)" fill-rule="nonzero"></path>
            <path d="M40.271382,11.5198681 L32.3708897,9.42494647 C32.7354641,9.22608773 33.1110861,9.05070536 33.496375,8.91398997 L41.3954863,11.0102926 C41.0115784,11.145627 40.6359564,11.3210094 40.271382,11.5198681" id="Fill-13" fill="#8F8F8F"></path>
            <path d="M28.5837353,19.274945 L36.4842276,21.3698666 C36.4869896,21.4112955 36.4897515,21.4527244 36.4925134,21.4913914 L36.4927896,21.4918057 C36.5038373,21.6616642 36.5093612,21.8108083 36.5093612,21.936476 L28.6088689,19.8415543 C28.6088689,19.7158866 28.603345,19.5667426 28.5922973,19.3955031 C28.5892592,19.3564218 28.5864973,19.3163739 28.5837353,19.274945 Z" id="形状结合" fill="#FFEAA4" fill-rule="nonzero"></path>
            <path d="M36.4838133,21.3700047 L28.583321,19.2737021 C28.583321,19.203273 28.5750353,19.0486051 28.5750353,18.822127 L36.4755276,20.9170487 C36.4755276,21.1449077 36.4838133,21.2968137 36.4838133,21.3700047" id="Fill-27" fill="#FFEAA4" fill-rule="nonzero"></path>
            <path d="M12.4100287,32.5179708 L20.30914,34.6128925 C20.2152345,34.6460356 20.119948,34.6764168 20.0218996,34.7040361 C19.8686126,34.745465 19.7180876,34.7772272 19.5730865,34.8007035 C19.3852754,34.831499 19.2029882,34.8453087 19.0262249,34.8439277 L19.02141,34.8425899 L18.8756436,34.8383476 C18.7766234,34.8323123 18.6796491,34.8209577 18.5839023,34.8034655 L10.68341,32.7085438 C10.7791568,32.7251154 10.8767449,32.7367768 10.9761743,32.743119 L11.12641,32.747598 L11.3043372,32.7442494 C11.4246345,32.7387255 11.5473868,32.7264503 11.6725942,32.7061962 C11.8189763,32.6836865 11.9681203,32.6491624 12.1214073,32.6077335 C12.2180747,32.5814952 12.3147422,32.551114 12.4100287,32.5179708 Z M16.0242864,27.1243416 L23.9247787,29.2206442 C23.8888736,29.4926941 23.8446828,29.7564581 23.7922062,30.0105554 L23.7924824,30.0102792 C23.7469106,30.2312333 23.694434,30.4466637 23.6350526,30.6524272 L15.7345603,28.5575056 C15.7939417,28.350361 15.8464183,28.1363117 15.8919901,27.9167385 L20.44041,29.120598 L15.8917139,27.9156337 C15.9441905,27.6615364 15.9883813,27.3977724 16.0242864,27.1243416 Z M16.0777297,26.6115899 L23.9796029,28.7065115 C23.9644124,28.8818939 23.9464598,29.0531334 23.9243644,29.22023 L16.0238721,27.1239273 C16.0445866,26.9568307 16.0639201,26.7855913 16.0777297,26.6115899 Z M16.0815964,22.902598 L23.9820887,24.9975197 L21.6013076,25.8689077 L13.7008153,23.773986 L16.0815964,22.902598 Z M21.262281,34.1341124 C20.9626119,34.3357331 20.6449903,34.4945439 20.3094162,34.6133068 L12.4089239,32.5170042 C12.744498,32.3982413 13.0621196,32.2394305 13.3617887,32.0405718 C13.7324393,31.7937936 14.0749183,31.4844577 14.3911589,31.1143595 C14.5238695,30.9612107 14.6495372,30.795495 14.772443,30.6201127 C14.8635866,30.4916831 14.9505873,30.3591106 15.0320641,30.2210142 L17.55841,30.890598 L17.56141,30.890598 L15.0326165,30.2203237 C15.1389507,30.0407985 15.2383801,29.8529874 15.3295237,29.6568906 L15.3292475,29.6566144 C15.4093433,29.483994 15.4839154,29.3058497 15.5515826,29.1221815 L19.84641,30.260598 L19.84741,30.259598 L15.5511683,29.1212149 C15.6188355,28.9403087 15.6795979,28.7511166 15.7348364,28.5577818 L23.6353287,30.6527034 L23.59641,30.776598 L28.6311024,32.1129342 L25.2864087,33.0354179 L22.88141,32.396598 L22.8061982,32.5198006 C22.7626979,32.5866047 22.7178166,32.6522005 22.6715543,32.7164153 C22.5500295,32.8917977 22.4229809,33.0561323 22.2917893,33.2094193 C21.9754106,33.5807604 21.6329316,33.8887152 21.2628334,34.1345267 L20.03941,33.809598 L21.262281,34.1341124 Z" id="形状结合" fill="#949494"></path>
            <path d="M14.0325227,9.76922068 L21.933015,11.8655233 C21.8639668,12.0491915 21.7990616,12.2356215 21.7355372,12.4234326 L13.8350449,10.3271299 C13.8985693,10.1406999 13.9648555,9.95426979 14.0325227,9.76922068 Z M14.7376427,8.07160222 L22.638135,10.1665239 C22.3826567,10.7147664 22.146512,11.2823424 21.9324626,11.865109 L14.0319703,9.76880639 C14.2474006,9.18742075 14.4821644,8.61984474 14.7376427,8.07160222 Z M23.3878601,0.0820377774 L31.2883524,2.1783404 C31.0259693,2.21976931 30.7594434,2.27776977 30.4901555,2.3523418 C30.3133921,2.40067553 30.1366288,2.45591407 29.9612464,2.51805743 C29.2609598,2.7652499 28.5815258,3.11463367 27.9269491,3.55101814 L27.9272253,3.55115624 C27.0005987,4.16982789 26.1278298,4.96664384 25.326871,5.90569904 L25.3274233,5.90556094 C24.7059898,6.63332872 24.130128,7.44533527 23.6067428,8.32638999 L23.6071571,8.32652809 C23.2591543,8.91205662 22.9346279,9.52658539 22.6377207,10.1659715 L14.7372284,8.07104984 C15.0355165,7.43166373 15.358662,6.815754 15.7052838,6.23160643 L19.0960449,7.13 L15.7062505,6.23146833 C16.2296357,5.35179457 16.8054975,4.53840706 17.426931,3.80925832 C18.2273375,2.87310315 19.1001064,2.0762872 20.026733,1.45623458 C20.6810335,1.01833104 21.3618485,0.670328237 22.060616,0.421754803 C22.2361365,0.360992408 22.4128998,0.304372904 22.5910441,0.256039181 C22.8589511,0.182848114 23.125477,0.124847647 23.3878601,0.0820377774 Z M24.4919404,0.000422833339 C24.8341432,0.00235618227 25.1697173,0.0341183432 25.4970057,0.0907378476 L29.8490449,1.244 L25.4976961,0.0899092694 C25.6730785,0.12167143 25.845699,0.158957445 26.0169384,0.204529242 L33.9174307,2.2994509 C33.7461913,2.25526007 33.5735708,2.21521213 33.3981884,2.18621189 L33.3900449,2.184 L33.067908,2.13717234 C32.8457263,2.11108748 32.6204758,2.09727784 32.3921565,2.09451592 L32.3880449,2.093 L32.1205987,2.09819273 C31.8472974,2.10777317 31.5697237,2.13366623 31.2890429,2.1782023 L23.3885506,0.081899681 C23.7627917,0.0225182497 24.130128,-0.00372005722 24.4919404,0.000422833339 Z" id="形状结合" fill="url(#linearGradient-2)" fill-rule="nonzero"></path>
            <path d="M34.3219149,12.894203 L42.2224072,14.9891247 L42.2099786,28.3665183 L42.2071974,28.366203 L40.2639248,28.9032988 L36.5041974,27.906203 L36.5027325,29.9417834 L36.5001974,29.9405856 L34.7386897,30.428573 L26.8381974,28.3322704 L28.6022402,27.8454808 L28.6091451,19.8427972 L32.4031974,20.8475856 L29.3011459,14.2795856 L34.3191974,15.610203 L34.3219149,12.894203 Z M13.8543784,18.7351263 L21.7548707,20.828667 C23.032262,21.1683841 23.7779823,22.5548714 23.9823649,24.9977959 L16.0818726,22.9014933 C15.876109,20.4599498 15.1303887,19.0734624 13.8543784,18.7351263 Z" id="形状结合" fill="#949494"></path>
            <path d="M10.7955442,29.5171371 L18.6946556,31.6106778 C18.8797047,31.9034421 19.1075636,32.0857293 19.3768515,32.1575394 L11.4763592,30.0626177 C11.2056904,29.9921886 10.9792124,29.8099014 10.7955442,29.5171371 Z M22.722788,16.5694993 L30.6246613,18.664421 C30.7461861,18.6975641 30.8594251,18.738993 30.9629974,18.7900887 C31.5609546,19.0787101 32.0815778,19.6656196 32.5593912,20.5383885 C32.8937225,21.1560935 33.1038913,21.9404669 33.1959381,22.8975492 L33.2225299,23.2229816 C33.2418634,23.510222 33.2501492,23.812653 33.2501492,24.1275127 C33.2501492,24.3084189 33.2460063,24.4879442 33.2391014,24.6660885 C33.2239108,25.0143675 33.1949106,25.3554654 33.1521007,25.6882777 L27.3535601,24.1494993 L27.3535601,24.1514993 L33.1519626,25.6889681 C33.1280259,25.8776998 33.0991792,26.0645902 33.0658314,26.2492302 L33.012071,26.5244511 C32.9595944,26.7785484 32.898832,27.0271218 32.8284029,27.2715523 C32.7594928,27.5165353 32.6807779,27.7568229 32.5937772,27.9929677 C32.4997336,28.2498269 32.3961613,28.4984003 32.2815413,28.7442118 C32.199374,28.9209752 32.1123733,29.0935956 32.0212297,29.2634541 L27.4615601,28.0544993 L32.0213678,29.2640065 L31.9478315,29.3967516 L31.8715601,29.5254993 L31.8729142,29.5262515 C31.6699126,29.8659685 31.4503394,30.1766853 31.2128137,30.454259 L31.2111625,30.4540848 L31.0091216,30.6804939 C30.7318241,30.9729489 30.4324312,31.2270461 30.1109429,31.4413717 L23.8925601,29.7904993 L30.1109429,31.441786 C29.7629401,31.6737878 29.3900799,31.858837 28.9909815,31.9996952 C28.8733234,32.0411241 28.7531795,32.0797911 28.6316548,32.1129342 L20.7311625,30.0166316 C20.8526873,29.9834885 20.9728311,29.9462025 21.090213,29.9047736 C21.4895876,29.7639153 21.8624478,29.5774852 22.2104506,29.3454833 C22.3283764,29.2664518 22.4433293,29.1827211 22.5553092,29.0938071 L19.4472807,28.2676413 L19.4515601,23.7497191 L19.4072839,23.7838471 C19.3263696,23.8497242 19.2493426,23.9246031 19.1766118,24.0093022 L18.7285601,23.8894993 L19.1761975,24.0093022 C19.0891968,24.1101125 19.00772,24.2233516 18.931767,24.3504002 L18.1875601,24.1514993 L18.9312146,24.3505383 L18.8557795,24.4867358 L18.7837277,24.6319787 C18.7395369,24.7272651 18.698108,24.8280755 18.659441,24.9330287 C18.6173216,25.0459915 18.5786546,25.1661353 18.5427496,25.293184 L18.4835925,25.5156917 L18.4307534,25.7522163 C18.3879436,25.9593608 18.3506575,26.1816959 18.3202763,26.4178407 C18.2769141,26.7623911 18.2451519,27.1366322 18.2285804,27.5412545 C18.2176708,27.7909327 18.2121469,28.0505539 18.2121469,28.3239846 C18.2121469,28.6854518 18.2183612,29.0197313 18.2325377,29.3268231 L18.2490186,29.6255427 C18.3139239,30.5880743 18.460306,31.2495558 18.6950698,31.6113683 L10.7945775,29.5164466 C10.5811559,29.1875262 10.440777,28.6109454 10.3692906,27.7856667 L10.3495601,27.5297191 C10.3240833,27.1446418 10.3102736,26.7110192 10.3116546,26.229063 C10.3116546,25.9570132 10.3171785,25.6946301 10.3282262,25.4460567 L13.9935601,26.4169223 L10.3280881,25.4449519 C10.3415525,25.1414852 10.3612312,24.8558846 10.3894546,24.5864025 L10.419784,24.3215381 C10.4501652,24.0867743 10.4874513,23.8644391 10.5302611,23.6559136 C10.5634043,23.4951695 10.6006903,23.3418825 10.6421192,23.1968814 C10.6781623,23.0725947 10.7168293,22.9524508 10.7582582,22.8392118 L14.1985601,23.7494993 L10.7589487,22.838107 C10.7976157,22.7317729 10.8390446,22.6323435 10.8832354,22.537057 L14.9665601,23.6197191 L10.8829592,22.5359522 C10.929912,22.4365229 10.9796267,22.3439983 11.0321033,22.2556166 L11.0312747,22.2554785 C11.1072277,22.1298109 11.1887045,22.0151909 11.2757052,21.9129996 C11.3487122,21.8301418 11.4252176,21.7546491 11.5061625,21.6881583 L11.630751,21.5946875 C11.742609,21.5214964 11.8599909,21.462115 11.9870395,21.4179242 L15.2625601,22.2844993 L11.9860729,21.4166813 C12.0219779,21.4042526 12.0592639,21.391824 12.09655,21.3821572 C12.1586933,21.3642047 12.2180747,21.351776 12.2760752,21.3434902 L12.4845601,21.3974993 L12.2767657,21.3425236 L12.3846535,21.3300949 L12.4884674,21.3249853 L12.4894341,21.325952 C12.5464679,21.3249853 12.6017064,21.3305092 12.654183,21.3401759 L19.4515601,23.1437191 L19.4555665,19.8672402 L19.4552903,19.8671021 L20.410917,19.6047191 C20.4991606,19.5793093 20.5861613,19.5599758 20.6704001,19.5475472 C20.7781152,19.5309756 20.8830684,19.5226898 20.9838788,19.5240708 C21.0710176,19.5232422 21.1552564,19.531528 21.2367332,19.5453376 L21.2405601,19.5454993 L21.2981516,19.5575592 C21.3186934,19.5620473 21.3390626,19.5668807 21.3590866,19.5724045 L25.2749766,20.609715 C25.174173,19.7399951 24.970443,19.0179124 24.6588989,18.4434668 C24.1824665,17.5693169 23.6604623,16.9837884 23.0625051,16.6937861 C22.9589328,16.6426904 22.8456938,16.6012615 22.722788,16.5694993 Z" id="形状结合" fill="#949494"></path>
            <path d="M30.6463424,22.9088124 C30.9322019,23.4045783 31.1669657,23.8782488 31.1655908,25.1114492 C31.1642038,26.2604108 30.7554386,27.2574665 30.3549591,28.2172362 C29.9544797,29.1894345 29.112092,29.8757733 28.2862758,30.1036323 L27.3472206,30.3618725 L27.3555064,21.9628524 L28.3111331,21.6990883 C28.7889465,21.5665158 29.1977117,21.598278 29.5443335,21.7778033 C29.8826696,21.9600904 30.360483,22.4144274 30.6463424,22.9088124" id="Fill-179" fill="url(#linearGradient-3)" fill-rule="nonzero"></path>
            <path d="M0.0483337232,29.2716018 L7.94882602,31.3679044 C8.32859099,36.9980927 10.9220405,41.0498397 14.4490213,41.984752 L6.54852901,39.8898303 C3.02292915,38.954918 0.428098691,34.903171 0.0483337232,29.2716018 Z M0.0207144528,26.8707967 L7.92120675,28.9670993 C7.90739712,29.2764352 7.9004923,29.5885329 7.9004923,29.9006307 C7.9004923,30.4005395 7.91706386,30.8894006 7.94882602,31.3672139 L0.0483337232,29.2709113 C0.0165715622,28.7944789 -6.60804744e-13,28.3042369 -6.60804744e-13,27.805709 C0.00138096352,27.4922303 0.00828578112,27.1828945 0.0207144528,26.8707967 Z M0.490932531,23.0968996 L8.39004387,25.1918213 C8.26851908,25.7814927 8.16770874,26.3780689 8.09037478,26.98155 L2.286,25.4410415 L8.09106526,26.9822405 C8.00682649,27.6368172 7.94882602,28.3010606 7.92120675,28.9666851 L0.0207144528,26.8703824 C0.0483337232,26.204758 0.106334191,25.5432765 0.190572966,24.8859379 L0.189882484,24.8852474 C0.267216441,24.2831473 0.368026778,23.6851901 0.490932531,23.0968996 Z M2.1538888,18.0458874 L10.0543811,20.1421901 C9.88406227,20.5076851 9.72233609,20.8817727 9.56961176,21.2632256 L9.34788016,21.8409133 C9.14902142,22.38087 8.9681152,22.9360174 8.80654246,23.4994505 C8.64869833,24.0540454 8.50922102,24.6188595 8.39045816,25.1919594 L0.489965857,23.0956567 C0.60872872,22.5239378 0.748206035,21.9591238 0.90701684,21.4053574 L4.253,22.2920415 L0.906050166,21.4045288 C1.0676229,20.8397147 1.24852912,20.2859484 1.44738787,19.7446107 L1.44683548,19.7444726 C1.66226579,19.1630869 1.89702959,18.59413 2.1538888,18.0458874 Z M4.85422487,13.7806435 L12.7533362,15.8755652 C12.1291407,16.6060949 11.5477551,17.4208634 11.021608,18.30468 L11.0220222,18.3048181 C10.6740194,18.8889657 10.350874,19.5021135 10.0539668,20.1414996 L2.15347451,18.045197 C2.45038167,17.4085728 2.7749081,16.794044 3.12152994,16.2098964 C3.64726275,15.3259417 4.22864839,14.5097923 4.85422487,13.7806435 Z M11.8891292,9.99487012 C12.2300891,9.99680347 12.5642823,10.0285656 12.8915707,10.0865661 L19.424,11.8170415 L12.8923992,10.0857375 C13.0691626,10.1161187 13.243164,10.1547857 13.4157844,10.1989765 L21.3148957,12.2952791 C21.1436563,12.2497074 20.9682739,12.2110404 20.7928915,12.1806592 L20.791,12.1800415 L20.4628822,12.1322334 C20.2412119,12.1061485 20.0168821,12.0917251 19.7894834,12.0889632 C19.430571,12.0856489 19.0659966,12.1132682 18.6945175,12.1712686 C18.4337915,12.2126975 18.1700275,12.269317 17.9048825,12.3425081 C17.7212144,12.3936038 17.5389272,12.4516042 17.358021,12.5151285 L17.356,12.5140415 L17.0075184,12.6490014 C16.4272899,12.8861628 15.8612867,13.1918927 15.3135045,13.5589989 L15.314195,13.5585846 C14.402759,14.1717324 13.5424188,14.9547387 12.7538886,15.8758414 L4.85339629,13.7795387 C5.64192646,12.859817 6.50226673,12.0768107 7.41370266,11.4650439 L13.642,13.1150415 L7.41301218,11.4640772 C8.07035081,11.0221689 8.75392775,10.6700232 9.45821915,10.4214497 L12.587,11.2500415 L9.45752867,10.4202069 C9.63843489,10.3566826 9.82072207,10.2986821 10.0043902,10.2475864 C10.2709162,10.1743954 10.5332992,10.1177759 10.7943014,10.076347 C11.0726346,10.0318109 11.3481368,10.0059178 11.6193666,9.99750258 L11.8889911,9.99404154 L11.8891292,9.99487012 Z" id="形状结合" fill="url(#linearGradient-4)" fill-rule="nonzero"></path>
            <path d="M42.2099786,28.3665183 L42.2224072,14.9891247 L40.4672026,15.4738429 L40.4602978,22.472566 C40.4602978,22.6769486 40.4699645,22.9738558 40.4948219,23.3494778 L37.2012239,16.3742311 L34.7513946,17.0509032 L34.7389659,30.4282968 L36.5024563,29.9421977 L36.5093612,21.9367522 C36.5093612,21.7807033 36.5010754,21.5928922 36.4845038,21.3705571 C36.4845038,21.297366 36.476218,21.1454601 36.476218,20.9162201 L40.264201,28.9037131 L42.2099786,28.3665183 M32.0212297,29.2627636 C32.8387601,27.7464657 33.2489063,26.031309 33.2502936,24.1283413 C33.2516682,22.5954718 33.0279521,21.4023193 32.5584245,20.5378361 C32.0819921,19.6650672 31.5613689,19.0781577 30.9620307,18.7895363 C30.3723593,18.498153 29.4678282,18.5078197 28.2608661,18.8420129 L25.2986993,19.6581623 L25.2862706,33.035556 L28.6309643,32.1130723 C30.0726902,31.7153548 31.2036993,30.7693948 32.0212297,29.2627636 M18.6949317,31.6117826 C18.3662624,31.103588 18.2102136,30.0098649 18.2129755,28.3237084 C18.2143564,25.4153993 18.8067898,23.8051958 19.9971803,23.4765265 C21.031522,23.192048 21.5687168,23.9888639 21.60186,25.8683553 L23.9826411,24.9983483 C23.6981626,21.6177496 22.3793424,20.2602624 20.0510379,20.9024105 C18.7045985,21.2738897 17.6357327,22.2143258 16.8610122,23.7085284 C16.0780059,25.2165405 15.6858122,26.9745071 15.684417,28.9976186 C15.6816693,31.1519217 16.0807678,32.7276011 16.8872505,33.7260377 C17.6854474,34.736903 18.7266939,35.0600485 20.0220377,34.7037599 C21.0632842,34.4151385 21.9512437,33.752276 22.6721067,32.7151724 C23.4026364,31.6891165 23.8390209,30.3495819 23.9784982,28.7062353 L21.7730994,29.1246673 C21.561812,30.8688242 20.9887122,31.8769276 20.049657,32.1351678 C19.4682713,32.2967405 19.0166963,32.1213581 18.6949317,31.6117826 M41.7832608,10.889044 C46.3266308,9.63512912 50.0055176,14.0749268 50,20.8112669 C49.993089,27.5476069 46.3045354,34.020183 41.7611654,35.2740978 C37.4870833,36.4520597 25.4105573,39.8547538 17.8787823,41.9331039 C12.361833,43.4549257 7.8930351,38.0719299 7.90130937,29.8993878 C7.90822569,21.7268457 12.3797856,13.8664013 17.9050206,12.3418176 C19.2597458,11.9689575 20.5537086,12.0186722 21.7358134,12.4232945 C23.4426843,7.39382533 26.7197108,3.39179305 30.4911221,2.35192752 C35.3300183,1.01653579 39.3651937,4.99923458 40.2711058,11.5201443 C40.7572049,11.2536184 41.2612566,11.0312832 41.7832608,10.889044" id="Fill-169" fill="url(#linearGradient-5)" fill-rule="nonzero"></path>
        </g>
    </g>
</svg>