<?xml version="1.0" encoding="UTF-8"?>
<svg width="50px" height="50px" viewBox="0 0 50 50" version="1.1" xmlns="http://www.w3.org/2000/svg" xmlns:xlink="http://www.w3.org/1999/xlink">
    <title>建设单位</title>
    <defs>
        <linearGradient x1="47.3078671%" y1="-45.5357725%" x2="21.3136859%" y2="123.957328%" id="linearGradient-1">
            <stop stop-color="#C3EEFF" offset="0%"></stop>
            <stop stop-color="#25A8FF" offset="100%"></stop>
        </linearGradient>
        <linearGradient x1="-180.600892%" y1="124.526537%" x2="85.2096315%" y2="46.4479156%" id="linearGradient-2">
            <stop stop-color="#003B7C" offset="0%"></stop>
            <stop stop-color="#4EA2FF" offset="100%"></stop>
        </linearGradient>
        <linearGradient x1="49.2912692%" y1="106.015989%" x2="51.9390586%" y2="0%" id="linearGradient-3">
            <stop stop-color="#003B7C" offset="0%"></stop>
            <stop stop-color="#4EA2FF" offset="100%"></stop>
        </linearGradient>
        <linearGradient x1="46.5528317%" y1="106.015989%" x2="59.4313127%" y2="0%" id="linearGradient-4">
            <stop stop-color="#003B7C" offset="0%"></stop>
            <stop stop-color="#4EA2FF" offset="100%"></stop>
        </linearGradient>
        <linearGradient x1="50%" y1="2.81229424%" x2="31.624453%" y2="100%" id="linearGradient-5">
            <stop stop-color="#C3EEFF" offset="0%"></stop>
            <stop stop-color="#25A8FF" offset="100%"></stop>
        </linearGradient>
    </defs>
    <g id="页面-1" stroke="none" stroke-width="1" fill="none" fill-rule="evenodd">
        <g id="编组-93" transform="translate(4.000000, 1.000000)">
            <path d="M21.1983177,36.6271573 L28.1216251,38.440241 L26.6597556,38.8379728 L19.7364482,37.0260835 L21.1983177,36.6271573 Z M31.4226909,33.8441096 L38.3459983,35.655999 L36.8841288,36.0334261 L36.8814482,36.0331096 L28.121141,38.4396438 L21.1978336,36.6277545 L29.9617896,34.2210591 L29.9624482,34.2201096 L31.4226909,33.8441096 Z" id="形状结合" fill="#949494"></path>
            <path d="M27.9561966,30.6046857 L29.392229,30.9797253 L27.9564387,30.6038496 C27.9830621,30.6086271 28.0108957,30.6110159 28.0387293,30.6122103 C28.0712825,30.6120909 28.1039568,30.6097021 28.1378412,30.6049245 L35.0611486,32.4168138 C35.0272642,32.4215914 34.9945899,32.4239802 34.9619157,32.4239802 C34.9329929,32.4240996 34.9063695,32.4205164 34.879746,32.4169333 L34.8595364,32.4128425 C34.8528806,32.4114988 34.8462247,32.4100058 34.8395688,32.4082142 L27.9162615,30.5951305 C27.9295732,30.5987137 27.9428849,30.6022969 27.9561966,30.6046857 Z M28.2152912,30.5877253 L35.1385986,32.3996146 C35.1119751,32.406781 35.0865619,32.4127529 35.0611486,32.4163361 L28.1378412,30.6044468 C28.1632545,30.5996692 28.1886678,30.5948917 28.2152912,30.5877253 Z M31.8699649,28.5988274 L38.7932723,30.4119111 L38.793121,30.4484893 L38.7918201,30.4860827 C38.7893998,30.5362471 38.7857693,30.5852171 38.7797186,30.6329927 C38.7741518,30.6747963 38.7668909,30.7154056 38.7584198,30.7560148 C38.7511589,30.792802 38.7414776,30.8298281 38.7317963,30.8644654 C38.721752,30.8991027 38.7096505,30.93374 38.6975489,30.967183 L37.2604251,30.5908274 L38.6973069,30.9676607 C38.6839951,31.002298 38.6706834,31.0357409 38.6549514,31.0691838 L32.7392615,29.519494 L38.6545883,31.0695422 C38.6376461,31.1065682 38.6182836,31.1435943 38.5965008,31.1782316 L38.3932615,31.124494 L38.5961378,31.1781122 C38.5634635,31.2330541 38.5259487,31.2844129 38.4848033,31.3321885 C38.4287731,31.3963272 38.3670551,31.4512691 38.2980761,31.4966559 C38.2413198,31.5345181 38.1808119,31.5643778 38.1154635,31.5870713 L36.5522615,31.177494 L38.1149794,31.5873101 C38.0980372,31.5932821 38.0798848,31.599254 38.0617325,31.6040316 L38.0602615,31.603494 L35.1385986,32.4000924 L28.2152912,30.5870087 L31.1390302,29.7915451 C31.1565775,29.7873647 31.1747298,29.7813928 31.1928822,29.7754208 L31.1921561,29.7751819 C31.2575045,29.7524885 31.3180124,29.7214344 31.3748898,29.6844083 C31.4425375,29.6393798 31.5054657,29.5832435 31.5623431,29.5199408 C31.6026413,29.4725236 31.6401561,29.4211648 31.6740405,29.3662229 L31.6731934,29.3663423 C31.6937661,29.331705 31.7143388,29.2946789 31.7312809,29.2564585 C31.747376,29.2238516 31.7618979,29.1904087 31.7739995,29.154577 C31.7875532,29.1218507 31.7984447,29.0872134 31.8081259,29.0525761 L33.3102615,29.445494 L31.808489,29.0525761 C31.8181702,29.0167444 31.8278515,28.9809127 31.8351124,28.9438867 C31.8435835,28.9035163 31.8508444,28.862907 31.8556851,28.8211034 C31.862462,28.7721334 31.8673026,28.7231634 31.8697229,28.6741934 L31.8687548,28.674074 C31.8699649,28.6489918 31.8699649,28.6239096 31.8699649,28.5988274 Z M31.8717802,26.61196 L38.7950875,28.4238493 L38.7938774,30.4113139 L31.87057,28.5994246 L31.8717802,26.61196 Z M31.4494354,25.808494 L38.3727428,27.6203833 C38.5857304,27.6766524 38.7308297,27.8754224 38.7782931,28.1848169 L38.7920622,28.3060825 C38.7944825,28.344303 38.7956926,28.3837178 38.7956926,28.4243271 L31.8723852,26.6124378 C31.8723852,26.5718285 31.8711751,26.5324137 31.8687548,26.4941932 L31.8681497,26.4940738 C31.8427364,26.1154522 31.6890465,25.8706023 31.4494354,25.808494 Z" id="形状结合" fill="#FFEAA4" fill-rule="nonzero"></path>
            <path d="M31.3850551,21.7359831 L38.3083625,23.5478725 C38.2502749,23.5860929 38.1897671,23.6159527 38.1244186,23.6386461 C38.1063873,23.6454541 38.0882349,23.6514261 38.0688724,23.6562036 L38.0673101,23.655666 L35.1456175,24.4522644 L28.2223101,22.6391807 L31.1460491,21.8437171 C31.1649275,21.8395367 31.1830799,21.8335648 31.2012322,21.8263985 C31.2664597,21.8040634 31.3281777,21.7730092 31.3850551,21.7359831 Z M31.8801302,18.664132 L38.8022275,20.4760214 L38.8010173,22.463486 L32.9813101,20.939666 L38.8004122,22.4640832 L38.7992021,22.5405241 L38.7992021,22.5405241 C38.7970238,22.5906885 38.7921832,22.6408529 38.7861324,22.6898228 C38.7812918,22.7328209 38.7740308,22.7734301 38.7655597,22.8140394 L38.2913101,22.689666 L38.7649546,22.8143977 L38.7530043,22.8685931 L38.7379681,22.9218928 L38.7225386,22.9735501 L38.7050519,23.0238937 C38.6917401,23.058531 38.6784284,23.0919739 38.6626964,23.1242224 L37.4773101,22.813666 L38.6622123,23.124103 L38.6351351,23.1787463 L38.6351351,23.1787463 L38.605577,23.2314786 C38.5716926,23.2864205 38.5353879,23.3365849 38.4954527,23.3831661 L38.493565,23.3829995 L38.4370918,23.4441198 C38.3969325,23.4828711 38.3539047,23.5173757 38.3087255,23.5476336 L31.3854181,21.7357443 C31.4531869,21.6903575 31.5161151,21.6354155 31.5717823,21.5709185 L31.572565,21.5699995 L31.6299303,21.4985683 C31.6483852,21.4733368 31.6659325,21.4470603 31.6822696,21.4195893 L31.7120092,21.3668421 L31.7120092,21.3668421 L31.739389,21.3123331 C31.755121,21.2800846 31.7696429,21.2454473 31.7817445,21.21081 C31.7940881,21.1792781 31.8049795,21.1446408 31.8158709,21.1100035 L31.8150238,21.1100035 L31.8298482,21.0565545 L31.8298482,21.0565545 L31.8423101,21.000666 L31.8422523,21.0009557 C31.8507234,20.9615408 31.8579844,20.9197372 31.862825,20.8779335 C31.8700859,20.8289635 31.8737164,20.7787992 31.8761367,20.7286348 C31.8771049,20.7023582 31.878315,20.677276 31.878315,20.6509995 L31.8777099,20.6515967 L31.8801302,18.664132 Z M31.4571804,17.860666 L38.3792776,19.6725553 C38.6200989,19.735858 38.7737888,19.9795135 38.7992021,20.3581351 C38.8015014,20.396475 38.8027115,20.4358899 38.8027115,20.4764991 L31.8794041,18.6646098 C31.8794041,18.6240006 31.878194,18.5845857 31.8757737,18.5451708 C31.8492712,18.1676242 31.6955813,17.9227743 31.4571804,17.860666 Z" id="形状结合" fill="#FFEAA4" fill-rule="nonzero"></path>
            <path d="M27.9192868,22.6484969 C27.9325986,22.6520801 27.9459103,22.6544689 27.9604322,22.6568577 L27.9612868,22.6563001 L28.0007909,22.6625907 C28.0147077,22.6637851 28.0289271,22.6643823 28.0434489,22.6643823 C28.0753971,22.6648601 28.1092815,22.6624713 28.1431659,22.6576937 L35.0664733,24.4695831 C35.0325889,24.4743606 34.9987045,24.4767494 34.9660302,24.4767494 L34.9612868,24.4753001 L34.923947,24.4744801 C34.9101815,24.4732857 34.8965672,24.4714941 34.8832555,24.4691053 L34.8792868,24.4673001 L34.8627131,24.4650145 C34.855906,24.4636708 34.8492501,24.4621778 34.8425942,24.4603863 L27.9192868,22.6484969 Z M28.2224311,22.6393001 L35.1457385,24.4523838 C35.1191151,24.4595502 35.0924916,24.4655221 35.0670783,24.4691053 L28.1437709,22.657216 C28.1691842,22.6524384 28.1958077,22.6476609 28.2224311,22.6393001 Z" id="形状结合" fill="#7F7F7F"></path>
            <path d="M38.6692312,11.6556916 L38.5000513,11.6610664 L38.5000513,11.6610664 L38.328088,11.6812516 C38.2457973,11.6931955 38.1635067,11.7111113 38.0800059,11.7338047 L31.1566985,9.92191542 C31.2401993,9.89922202 31.3237001,9.88130617 31.4047806,9.86816788 L31.4066985,9.86860794 L31.5768952,9.84902778 L31.5768952,9.84902778 L31.7459238,9.84260794 L31.746771,9.84260794 C31.8512075,9.84380233 31.955281,9.85335745 32.0569342,9.87127329 L32.0596985,9.87160794 L32.1365625,9.88668092 C32.1631859,9.89235427 32.1898094,9.89862482 32.2164328,9.90579116 L39.1397402,11.7176805 C39.0864933,11.7045422 39.0332464,11.6925983 38.9799995,11.6830432 C38.8785884,11.6652468 38.7745149,11.6556916 38.6692312,11.6556916 Z" id="形状结合" fill="#8B8B8B"></path>
            <path d="M38.7938774,30.4113139 L38.7950913,28.4238493 C38.7962977,27.8242657 38.5070702,27.5101411 38.065363,27.6295801 L35.141624,28.4262381 C34.7083878,28.5444827 34.4106892,29.0174611 34.4094791,29.6182391 L34.4082653,31.6057037 C34.4070588,32.1957323 34.7047574,32.5182175 35.1379935,32.3999729 L38.0617325,31.6045013 C38.5034397,31.483876 38.7938774,31.0013425 38.7938774,30.4113139 L38.7938774,30.4113139 Z M38.8011383,22.4638443 L38.8023523,20.4763797 C38.8035586,19.876796 38.5143312,19.5614771 38.0726239,19.6821105 L35.1488849,20.4775741 C34.7156488,20.5958187 34.4179502,21.0699914 34.4179502,21.6707695 L34.4155299,23.6570397 C34.4155299,24.2578177 34.7120183,24.5695535 35.1452545,24.4525033 L38.0689934,23.6558453 C38.5107007,23.5364063 38.7999282,23.063428 38.8011383,22.4638443 L38.8011383,22.4638443 Z M38.0798848,11.7334464 C39.6869731,11.2962998 41.0024137,12.7283731 40.9999967,14.9117176 L40.9782105,38.7350164 L32.2154647,41.1214072 L32.240878,13.3231792 L38.0798848,11.7334464 Z" id="Fill-393" fill="url(#linearGradient-1)" fill-rule="nonzero"></path>
            <polygon id="Fill-395" fill="url(#linearGradient-2)" fill-rule="nonzero" points="32.240878 13.323657 25.3175706 11.5117677 31.1565775 9.92203486 38.0798848 11.7339242"></polygon>
            <polygon id="Fill-397" fill="url(#linearGradient-3)" fill-rule="nonzero" points="32.2154647 41.1211683 25.2921573 39.3080846 25.3175706 11.511051 32.240878 13.3241347"></polygon>
            <path d="M20.0890879,32.6805351 L13.1657805,30.8686458 L16.0895195,30.0719878 C16.1064617,30.0684046 16.124614,30.0624327 16.1415562,30.0564607 L16.1414352,30.0568191 C16.2055735,30.0341257 16.2648712,30.0042659 16.3217486,29.9672398 C16.3895174,29.9216141 16.4536557,29.8654778 16.5093229,29.8009808 L16.5095195,29.7999868 L16.5691652,29.7263613 C16.5882251,29.700234 16.6063775,29.6730616 16.6233197,29.6449935 C16.6436503,29.6092812 16.664223,29.5722551 16.6823753,29.5340346 L16.7046484,29.4836736 L16.7046484,29.4836736 L16.7253359,29.4310782 C16.7386476,29.3976353 16.749539,29.362998 16.7592203,29.3283607 C16.7704748,29.2926485 16.7789459,29.2568168 16.7862068,29.2197907 L19.6417805,29.9667283 L16.7860858,29.2188352 C16.7945569,29.1794203 16.8018178,29.1388111 16.8066584,29.0970074 C16.8128302,29.0497096 16.8176709,29.001934 16.8200912,28.952964 L16.8192441,28.9528446 C16.8204542,28.9289568 16.8216644,28.905069 16.8216644,28.8799868 L23.7437616,30.6918761 L23.7436103,30.7287529 L23.7436103,30.7287529 L23.7421884,30.7648533 C23.7409783,30.8138233 23.7361376,30.8615989 23.7300868,30.9093745 L23.721056,30.9709154 L23.721056,30.9709154 L23.7087805,31.0307283 L20.0427805,30.0717283 L23.7093932,31.0319189 L23.7093932,31.0319189 C23.7022532,31.0687061 23.692572,31.1045378 23.6828907,31.1403695 L23.2657805,31.0307283 L23.6825277,31.14025 L23.6664931,31.1920567 L23.6664931,31.1920567 L23.6477805,31.2427283 L23.6490063,31.2434453 L23.6281311,31.295252 L23.6056827,31.345924 C23.5875304,31.3841444 23.5681679,31.4211705 23.546385,31.4570022 C23.5115325,31.5142135 23.4740177,31.5655722 23.4328723,31.6133478 L23.4315195,31.6129868 L23.3740497,31.6750226 C23.3338008,31.7141278 23.2910419,31.7486324 23.245056,31.7788903 L23.1571683,31.8292935 L23.0648636,31.8683501 C23.0479214,31.874322 23.0309792,31.8802939 23.0128269,31.8850715 L20.0890879,32.6805351 Z M16.3956892,26.0907283 L23.3189966,27.9026176 C23.5586076,27.9647259 23.7171382,28.2083814 23.7425515,28.5893918 C23.7448508,28.6266567 23.7460609,28.6648772 23.7460609,28.7054864 L20.2837805,27.7987283 L23.7455768,28.7050087 L23.7443667,30.6924733 L16.8210593,28.880584 L16.8234796,26.8931194 L16.8227535,26.8935971 C16.8227535,26.8529879 16.8215434,26.8147674 16.8191231,26.7777413 L23.2757805,28.4667283 L16.8192441,26.7775024 C16.7926206,26.3964921 16.6353002,26.1528366 16.3956892,26.0907283 Z" id="形状结合" fill="#FFEAA4" fill-rule="nonzero"></path>
            <path d="M16.826263,18.8293162 L23.7495704,20.6412055 L23.7522932,20.6986855 L23.7522932,20.6986855 L23.7525958,20.7571807 L23.7513856,22.7446453 L16.8280782,20.9315616 L16.8304985,18.9452914 L16.8298935,18.945172 C16.8298935,18.9057571 16.8286833,18.8663422 16.826263,18.8293162 Z M16.4028291,18.141706 L23.3261365,19.9535953 C23.5657475,20.0168979 23.7242781,20.2605534 23.7496914,20.6415638 L16.826384,18.8296745 C16.8009707,18.4486641 16.6424402,18.2050086 16.4028291,18.141706 Z M19.8296303,24.7508619 L19.8201457,24.7484595 L19.7894531,24.7420234 L19.7894531,24.7420234 L12.8702885,22.930706 L12.8862645,22.9347623 L12.8862645,22.9347623 L12.9081457,22.9384595 L12.9471657,22.9443473 C12.9610825,22.9455417 12.9753018,22.9461389 12.9898237,22.9461389 L19.8132885,24.731706 L12.9895817,22.9453028 L13.0396519,22.944407 L13.0918399,22.9383753 C13.1184634,22.9335978 13.1450868,22.9288202 13.1729204,22.9204595 L13.1742885,22.919706 L16.0965384,22.1241598 L16.0982885,22.123706 L16.1236157,22.1168442 C16.1325406,22.1140075 16.1413142,22.1110215 16.1497853,22.1080356 L16.1505384,22.1071588 L16.243875,22.0683818 C16.2741289,22.0531534 16.3034752,22.0361333 16.332519,22.0176203 C16.4007718,21.9727112 16.4637,21.9165749 16.5205774,21.8520778 C16.5607546,21.805855 16.5982694,21.7544962 16.6321538,21.6983599 C16.6518794,21.6644392 16.672452,21.6274131 16.6906044,21.5891926 L16.6898783,21.5894315 C16.7056103,21.557183 16.7201322,21.5225457 16.7322338,21.4879084 L17.5352885,21.697706 L16.7329599,21.4879084 C16.7450615,21.4544655 16.7559529,21.4210226 16.7668443,21.3851909 L16.7659972,21.3859075 C16.7768886,21.3500758 16.7853597,21.3142441 16.7938308,21.277218 L16.7932257,21.2773375 C16.8016968,21.2367282 16.8089577,21.196119 16.8137984,21.1543153 C16.8199702,21.1059425 16.8248108,21.0569726 16.8272311,21.0068082 C16.8280782,20.9823232 16.8280782,20.957241 16.8280782,20.9321588 L23.7513856,22.7452425 C23.7513856,22.768816 23.7502071,22.7935527 23.7501761,22.8183046 L23.7505385,22.8186975 L23.7452441,22.8931976 L23.7452441,22.8931976 L23.7362885,22.965706 L17.8942885,21.436706 L23.7372268,22.9668018 L23.7372268,22.9668018 C23.7322651,23.0080083 23.7250042,23.0498119 23.7165331,23.0892268 C23.7086671,23.1261334 23.700196,23.1631595 23.6893046,23.1977968 L19.5912885,22.124706 L23.6889415,23.1982746 C23.6792603,23.2329119 23.6683688,23.2663548 23.6562673,23.2997977 L23.6567513,23.2997977 C23.6422295,23.334435 23.6289177,23.3690723 23.6131857,23.4013208 C23.5957594,23.4393024 23.5763969,23.4763285 23.5546141,23.5109658 L20.7662885,22.780706 L23.5542511,23.5114436 C23.5215768,23.5663855 23.484062,23.6177443 23.4429166,23.6643255 L23.4415384,23.6641588 L23.3846319,23.7261197 C23.344383,23.7652249 23.3010862,23.7997295 23.2551003,23.8299873 C23.198949,23.86773 23.137231,23.8975898 23.0730927,23.9202832 L23.0705384,23.9201588 L23.046923,23.9291814 L23.0334411,23.9330258 L23.0334411,23.9330258 L23.0198458,23.9360491 L20.0961068,24.7327071 L20.0932885,24.732706 L20.0552338,24.7430983 L20.0552338,24.7430983 L20.0145422,24.7500258 C19.9806578,24.7559977 19.9455633,24.7583865 19.9128891,24.7583865 C19.8840873,24.7580282 19.8562537,24.7556394 19.8296303,24.7508619 Z" id="形状结合" fill="#FFEAA4" fill-rule="nonzero"></path>
            <path d="M12.8626362,30.8773648 C12.875948,30.880948 12.8892597,30.8833368 12.9037816,30.8857256 L12.9046362,30.8852875 L12.9436562,30.8915781 C12.957573,30.8927725 12.9717924,30.8933697 12.9863143,30.8933697 C13.0181414,30.893728 13.0520258,30.8913392 13.0871203,30.8853673 L20.0092176,32.698451 C19.9753332,32.7032285 19.9414488,32.7056173 19.9087745,32.7056173 L19.9046362,32.7042875 L19.8668123,32.7034674 C19.8530468,32.702273 19.8394325,32.7004814 19.8261208,32.6980926 C19.8125671,32.6952261 19.7992553,32.6928373 19.7859436,32.6892542 L12.8626362,30.8773648 Z M13.1663856,30.8682875 L20.0884828,32.6801768 C20.0618594,32.6885375 20.0352359,32.6945095 20.0098226,32.6980926 L13.0865152,30.8850089 C13.1119285,30.8814258 13.138552,30.8766482 13.1663856,30.8682875 Z" id="形状结合" fill="#7F7F7F"></path>
            <path d="M16.8370334,10.9968662 L23.7603408,12.8087555 L23.7591306,14.7962202 L16.8358232,12.9843308 L16.8370334,10.9968662 Z M16.4068226,10.1944752 L23.3289198,12.0063645 C23.5721614,12.0708615 23.7319021,12.3181002 23.7573154,12.6967218 C23.7596147,12.7327924 23.7608248,12.7710128 23.7608248,12.8092333 L16.8375174,10.997344 C16.8375174,10.9591235 16.8363073,10.920903 16.833887,10.8850713 C16.8073845,10.5062109 16.648854,10.2577778 16.4068226,10.1944752 Z M16.1042834,14.1763319 L16.1054045,14.1754752 L16.1307556,14.1690162 C16.1396805,14.1661795 16.1484541,14.1631936 16.1569252,14.1602076 L16.1576783,14.1593308 L16.2508939,14.1206733 C16.2811478,14.1054448 16.3104941,14.0884248 16.3389328,14.0699117 C16.4077907,14.0248832 16.4707189,13.9687469 16.5275963,13.9042499 L16.5276783,13.9033308 L16.5857443,13.8311532 C16.6041992,13.8054738 16.6217465,13.7786001 16.6386887,13.7505319 C16.6596244,13.716014 16.6801971,13.6789879 16.6971392,13.6407675 L22.6354045,15.1954752 L16.6975023,13.6404092 C16.7132343,13.6081606 16.7265461,13.5747177 16.7398578,13.5400804 L16.7737422,13.4380795 L22.1074045,14.8334752 L16.7739842,13.4373629 L16.7884153,13.3841827 L16.7884153,13.3841827 L16.8003656,13.3293901 C16.8088367,13.2890197 16.8160977,13.2484104 16.8209383,13.2066068 C16.8275942,13.1587118 16.8324348,13.1097418 16.8348551,13.0595774 L16.834008,13.0595774 C16.8352181,13.0344952 16.8352181,13.009413 16.8352181,12.9843308 L23.7585255,14.7962202 L23.7583743,14.8338434 L23.7569523,14.8714667 C23.754532,14.9216311 23.7509015,14.9706011 23.7448508,15.0183767 C23.7394051,15.0602997 23.7321441,15.100909 23.723673,15.1415182 L23.7112689,15.1961019 L23.7112689,15.1961019 L23.6972916,15.2504466 C23.6876103,15.2850839 23.6755088,15.3185268 23.6634072,15.3519697 C23.6498534,15.386607 23.6365417,15.4200499 23.6208097,15.4534929 C23.6022943,15.4908773 23.5829318,15.5279033 23.5623591,15.5625406 C23.5281117,15.6185575 23.491807,15.6699163 23.4506616,15.7164975 C23.3940263,15.7818306 23.3310981,15.8367725 23.2621192,15.8821593 C23.2053628,15.9200215 23.144855,15.9498813 23.0807167,15.9725747 L23.0786783,15.9713308 L23.054063,15.9809055 C23.0451381,15.9837422 23.0360619,15.9864296 23.0269857,15.9888184 L23.0254045,15.9884752 L20.1038518,16.7848792 C20.0761392,16.7928816 20.0483056,16.7988535 20.0228923,16.8024367 L13.1264045,14.9974752 L20.0228923,16.802795 L19.970553,16.8081698 L19.9195449,16.8102002 C19.8917113,16.8102002 19.8638777,16.8078114 19.8372543,16.8030339 L19.8264045,16.7996315 L19.8167118,16.7988237 C19.8099047,16.79748 19.8032489,16.795987 19.796593,16.7941954 L12.8774045,14.9824752 L12.8934045,14.9869343 C12.9002116,14.988278 12.90717,14.9894724 12.9144309,14.9906668 L12.9154045,14.9906315 L12.9547897,14.9960714 C12.9687065,14.9974151 12.9829258,14.9983109 12.9974477,14.9983109 C13.030606,14.998072 13.0632802,14.9956832 13.0995849,14.9909057 C13.1262084,14.9857698 13.1528318,14.9809923 13.1806654,14.9726315 L16.1042834,14.1763319 Z" id="形状结合" fill="#FFEAA4" fill-rule="nonzero"></path>
            <path d="M12.5219771,34.6873488 L12.5180063,34.6859096 L12.5013136,34.683258 C12.4945065,34.6819144 12.4878506,34.6804214 12.4811948,34.6786298 L5.56200626,32.8669096 L5.57800626,32.8713687 C5.58481339,32.8727124 5.59177179,32.8739068 5.59903273,32.8751012 L5.60000626,32.8749096 L5.63936121,32.8808343 C5.65312675,32.8820287 5.66704355,32.8826259 5.68096035,32.8826259 L12.5120063,34.6699096 L5.68083934,32.8817898 C5.71351357,32.8829842 5.74618781,32.8805954 5.7800722,32.8746234 L5.81834341,32.8678453 L5.85691716,32.8584992 L8.78065613,32.0618412 L8.78200626,32.0609096 L8.80788466,32.0545256 C8.81696084,32.0516889 8.82603701,32.0487029 8.83511319,32.0457169 L8.83438709,32.0461947 C8.89973556,32.0235013 8.96024341,31.9924471 9.01712078,31.9554211 C9.08476855,31.9097954 9.1476967,31.8548534 9.20336392,31.7903564 L9.20365613,31.7894374 L9.26257084,31.7168118 C9.28117701,31.6909832 9.29872428,31.6641094 9.3150614,31.6366384 C9.33599711,31.6021206 9.35656978,31.5650945 9.37351197,31.5280684 C9.38897458,31.4957658 9.40337077,31.4614776 9.41657954,31.4260063 L9.41647254,31.4255898 C9.42978427,31.3921468 9.44067568,31.3587039 9.45035693,31.3228722 L9.46496958,31.2696024 L9.47734343,31.2145411 C9.48581453,31.1739318 9.49307547,31.1333226 9.4979161,31.0915189 L10.3800063,31.3219096 L9.49803711,31.0913995 C9.5040879,31.0436239 9.50892853,30.9946539 9.51134884,30.9444895 C9.51219595,30.9194074 9.51219595,30.8955196 9.51219595,30.8704374 L9.51461626,28.8829728 L13.3630063,29.8899096 L9.51401119,28.8822561 C9.51401119,28.8416469 9.51280103,28.8034264 9.51038071,28.7640115 C9.48496742,28.3858677 9.33006734,28.1422122 9.09166644,28.0789096 L16.0149738,29.8907989 C16.2545849,29.9541015 16.4082748,30.1977571 16.4336881,30.5763786 C16.4361084,30.6153157 16.4373186,30.6547306 16.4373186,30.6953398 L16.4360063,30.6949096 L16.4355033,32.6823267 L16.4348983,32.7193528 L16.4346562,32.7563789 C16.4322359,32.8065432 16.4273953,32.8555132 16.4213445,32.9032888 L16.4122986,32.9658151 L16.4000457,33.0267887 C16.3927848,33.0638148 16.3843137,33.0996465 16.3734223,33.1354782 L16.3736643,33.1359559 L16.340264,33.2380763 C16.3269523,33.2727136 16.3124304,33.3073509 16.2966983,33.3395994 C16.278667,33.3769838 16.2593045,33.4140099 16.2387318,33.4486472 C16.2044844,33.5046641 16.1681797,33.5560228 16.1270344,33.602604 L16.1256561,33.6024374 L16.0686734,33.6635577 C16.0285141,33.702309 15.9854863,33.7368136 15.9403071,33.7670715 C15.8835508,33.8055308 15.8218328,33.8353906 15.7576945,33.858084 L15.7550063,33.8579096 L15.7310408,33.8664149 L15.7039635,33.8743277 L15.7039635,33.8743277 L15.7010063,33.8739096 L12.7802245,34.6703885 L9.73800626,33.8739096 L12.7796195,34.6706274 C12.7542062,34.6777937 12.7287929,34.6837657 12.7033796,34.6873488 C12.6694952,34.6924847 12.6356108,34.6948735 12.6041467,34.6948735 C12.575224,34.6945152 12.5486005,34.6921264 12.5219771,34.6873488 Z" id="形状结合" fill="#FFEAA4" fill-rule="nonzero"></path>
            <path d="M5.86405709,24.9103129 L12.7873645,26.7222022 C12.6772402,26.7532563 12.575587,26.7544507 12.4848253,26.7317573 L5.56151787,24.919868 L5.86405709,24.9103129 Z M9.38113596,23.5832264 L16.3044433,25.3951157 C16.2875012,25.4321418 16.2681386,25.4679735 16.247566,25.5026108 L16.194909,25.5814853 L16.194909,25.5814853 L16.1367156,25.6544177 C16.0996041,25.6974158 16.0598034,25.7356362 16.0169549,25.7697869 L15.9499884,25.8176908 L15.8611931,25.8694975 L15.8611931,25.8694975 L15.7655605,25.9097783 C15.7486183,25.9157502 15.7304659,25.9217222 15.7111034,25.9264997 L15.7095179,25.9260816 L12.7878485,26.7225605 L5.86454115,24.9106712 L8.78828012,24.1140132 L8.78951787,24.1130816 L8.81562966,24.1066976 L8.81562966,24.1066976 L8.84273718,24.0977695 C8.90808565,24.0750761 8.96980365,24.044022 9.02789118,24.0058015 L9.02704407,24.0061598 C9.07303003,23.9759019 9.1157889,23.9413974 9.15603782,23.9029999 L9.21451787,23.8420816 L9.21377127,23.8422895 C9.2549166,23.7957083 9.29122131,23.745544 9.32389554,23.690602 C9.34483126,23.6560842 9.36419377,23.6202525 9.38113596,23.5832264 Z M9.51933588,22.921415 L16.4426433,24.7344987 C16.4426433,24.7607753 16.4426433,24.7858575 16.4414331,24.8109397 L13.7505179,24.1060816 L16.4416751,24.8114174 C16.4392548,24.8615818 16.4344142,24.9117462 16.4283634,24.9607161 C16.4235228,25.0032364 16.4162618,25.0438457 16.4077907,25.0844549 L16.3948572,25.1394864 L16.3948572,25.1394864 L16.3808042,25.1927861 L16.3647697,25.2444434 L16.3472829,25.2943092 C16.3339712,25.3289465 16.3206594,25.3623894 16.3049274,25.394638 L9.38162003,23.5827486 L9.40370539,23.5334801 L9.40370539,23.5334801 L9.42361247,23.4824199 C9.43692419,23.448977 9.44781561,23.4155341 9.45749686,23.3808968 C9.46814624,23.3451845 9.47661734,23.3093528 9.48387828,23.2723267 C9.49295446,23.2319564 9.5002154,23.1913471 9.50505602,23.1483491 C9.51110681,23.0998568 9.51594744,23.0496925 9.51836775,22.9983337 C9.51933588,22.9739682 9.51933588,22.9476916 9.51933588,22.921415 Z M9.52115111,20.9345476 L16.4444585,22.7464369 L16.4432483,24.7339015 L9.51994095,22.9220122 L9.52115111,20.9345476 Z M9.09880637,20.1310816 L16.0221138,21.9429709 C16.2351014,21.9992399 16.3802007,22.19801 16.427664,22.5074045 L16.4413121,22.6286701 C16.4437324,22.6668905 16.4449426,22.7063054 16.4449426,22.7469147 L9.52163517,20.9350254 L9.52072756,20.8750073 L9.52072756,20.8750073 L9.51752064,20.8166613 C9.49210735,20.4380398 9.33841743,20.1931899 9.09880637,20.1310816 Z" id="形状结合" fill="#FFEAA4" fill-rule="nonzero"></path>
            <path d="M5.57665564,16.9718508 C5.58184851,16.9740705 5.59516023,16.9776537 5.60968211,16.9800424 L5.61053678,16.9790821 L5.65016186,16.9847304 C5.66407867,16.9860741 5.67829801,16.9869699 5.69281989,16.9875671 C5.72476803,16.9874477 5.75865242,16.9850589 5.79253682,16.9802813 L12.7158442,18.7921706 L12.6651689,18.7975454 L12.6149171,18.7994564 C12.5870835,18.7994564 12.5592499,18.7958732 12.5326265,18.7922901 L12.5245368,18.7900821 L12.511963,18.7881993 C12.5051559,18.7868556 12.4985,18.7853626 12.4918442,18.783571 L5.57665564,16.9718508 Z M5.87180209,16.9630821 L12.7951095,18.7749714 C12.768486,18.7821378 12.7418626,18.7881097 12.7164493,18.7916929 L5.79314189,16.9798036 C5.81855519,16.975026 5.84517864,16.9702484 5.87180209,16.9630821 Z M9.10158973,12.1838508 L16.0248971,13.9957401 C16.2669285,14.0590428 16.4230387,14.3074759 16.448452,14.6837086 C16.4508723,14.7214514 16.4520825,14.7596718 16.4520825,14.7990867 L16.4506811,14.7988508 L16.4496622,16.7866707 L16.4495109,16.8253391 L16.4476811,16.8628508 L16.4488151,16.8635894 C16.4463947,16.9137538 16.4415541,16.9639182 16.4355033,17.0128882 C16.4305417,17.0554084 16.4232807,17.0960177 16.4148097,17.1366269 L16.4023753,17.1911807 L16.3872181,17.2449581 C16.3775368,17.2795954 16.3666454,17.3130383 16.3545438,17.3464812 C16.3411111,17.3811185 16.3277994,17.4145614 16.3120673,17.44681 L15.7396556,17.2958508 L16.3115833,17.4466905 L16.284506,17.5017818 L16.2549479,17.5546634 L16.2021548,17.6331945 L16.1450657,17.7065898 C16.0881883,17.7698924 16.0264703,17.8248343 15.9574914,17.8702212 C15.8995249,17.9080833 15.839017,17.9391374 15.7736685,17.9618309 C15.7556372,17.9679222 15.7374849,17.9738942 15.7181223,17.9786717 L15.7187274,17.9780746 L12.7949885,18.7747325 L5.87168107,16.9628432 L8.79542004,16.1661852 C8.81417747,16.1620049 8.83232983,16.1560329 8.85048218,16.150061 C8.91570963,16.1272481 8.97742763,16.096194 9.03430501,16.0579735 C9.08021029,16.0279545 9.12348012,15.9935296 9.16372008,15.9548048 L9.22168107,15.8928508 C9.26145145,15.8478804 9.29896631,15.7965216 9.33164055,15.7415797 L9.33181496,15.740587 L9.3613499,15.6898925 L9.38875995,15.6349207 C9.40449199,15.6026721 9.41780372,15.5692292 9.43111544,15.5345919 L9.46512085,15.4330688 L9.46439475,15.4331882 C9.47518715,15.3976823 9.48360304,15.3621763 9.49199733,15.3255083 L9.49150227,15.3247376 C9.49997337,15.2841284 9.50723431,15.2435191 9.51207493,15.2005211 C9.51945689,15.1520289 9.52308736,15.1018645 9.52550768,15.0505057 C9.52635479,15.0249458 9.52635479,14.9998636 9.52635479,14.973587 L9.52668107,14.9728508 L9.52938018,12.9867196 C9.5287751,12.9477825 9.52756494,12.9083677 9.52514463,12.8713416 C9.49973133,12.4955865 9.3436211,12.2471535 9.10158973,12.1838508 Z" id="形状结合" fill="#FFEAA4" fill-rule="nonzero"></path>
            <path d="M0.00363047057,45.4837965 L6.92693785,47.2968802 C6.95356131,47.6766961 7.1108817,47.9203516 7.35049275,47.9836543 L0.427185371,46.171765 C0.187574313,46.1084623 0.0302539214,45.8648068 0.00363047057,45.4837965 Z M24.3633619,1.8130837 L24.1928811,1.81801056 L24.0201614,1.83864364 C23.9378708,1.85058754 23.85437,1.86850339 23.7708691,1.89119679 L23.768,1.891 L12.0770024,5.07484278 C12.0206091,5.09036984 11.9637317,5.10828569 11.9080645,5.12739593 L11.9054466,5.12695347 L11.6902094,5.21465274 C11.5463352,5.27994605 11.405688,5.35851035 11.2693437,5.44928398 C11.0613783,5.58825123 10.8623831,5.75464466 10.6753004,5.94455263 L10.4916969,6.14203005 C10.3690677,6.28376431 10.2523548,6.43558452 10.1429925,6.59642901 L9.98512525,6.84468957 C9.88710254,7.00593219 9.79634078,7.17553554 9.71405011,7.35111084 L9.61483238,7.57390932 L9.52478158,7.80163467 C9.47153468,7.94376705 9.42312841,8.08828822 9.38077292,8.23519816 C9.33986961,8.37721111 9.30356491,8.52053788 9.27331099,8.66625344 C9.24305706,8.81376057 9.21764377,8.9630593 9.1970711,9.11355241 C9.17625641,9.27670606 9.16173452,9.44153185 9.15447358,9.60635764 C9.15096413,9.68267915 9.14975397,9.75912009 9.14975397,9.83436665 L9.11901599,43.6137404 L7.6571465,44.0114722 L6.144,43.6137103 L7.65666244,44.0111138 C7.63851009,44.0158914 7.62156789,44.0218634 7.60341554,44.0278353 L7.601,44.0266567 L7.50990067,44.067489 C7.47949548,44.0827175 7.44984663,44.0997376 7.42140795,44.1182506 L7.4192993,44.1182245 L7.35408289,44.1666986 C7.33243453,44.1841721 7.31145847,44.2027957 7.29115473,44.2225253 L7.23189738,44.284868 C7.19196221,44.3314492 7.15444734,44.3828079 7.12056295,44.4389443 L7.09024852,44.4927515 L7.06187034,44.5491864 L7.03978498,44.598455 L7.01975689,44.6501124 C7.00765532,44.6823609 6.99555375,44.7158038 6.98587249,44.7504411 L6.97165315,44.8034571 L6.95973311,44.8572196 C6.95126201,44.8966344 6.94400107,44.9360493 6.93916044,44.9778529 L6.938,44.9776567 L6.9315062,45.0481428 C6.92953969,45.0720306 6.928027,45.096217 6.92681684,45.120702 C6.92560668,45.1447092 6.92560668,45.168597 6.92560668,45.1936792 L6.92330738,47.180666 C6.92379145,47.2202003 6.9250016,47.2596152 6.92742192,47.2966413 L0.00411453332,45.4835576 C0.0016942196,45.4465315 0.000484062743,45.408311 0.000484062743,45.3688962 L0.00242031372,43.3813121 L2.413,44.0107103 L0.00229929803,43.3805955 C0.00229929803,43.3567077 0.00229929803,43.3328199 0.00350945489,43.3089321 L0.00835008232,43.2362684 L0.016,43.1646567 L0.0158530548,43.1647692 L0.0252317705,43.1046019 L0.036,43.0446567 L0.0359416587,43.0452108 C0.0444127567,43.0093791 0.0528838547,42.972353 0.0625651096,42.9389101 C0.0734565213,42.9039145 0.084347933,42.8704716 0.0964495016,42.8370287 L0.0962074702,42.8364315 C0.109519196,42.8029886 0.122830921,42.7683513 0.13856296,42.7361027 C0.156957344,42.6984795 0.176319854,42.6614534 0.196892521,42.6268161 L0.197,42.626 L0.2503512,42.5464336 C0.268957362,42.5207543 0.288622411,42.4962693 0.309800156,42.4729787 C0.365830418,42.4074067 0.428758575,42.3512704 0.497737516,42.3058835 L0.498299298,42.3052245 L0.586290744,42.2555997 L0.632711604,42.234138 L0.632711604,42.234138 L0.680108154,42.215946 L0.734565213,42.1992245 L0.734565213,42.1992245 L0.733839119,42.1995829 L2.1957086,41.8006567 L2.227,8.022 L2.22644659,8.02247734 C2.22644659,7.94603639 2.22765674,7.86959545 2.23128721,7.79434889 C2.23842714,7.62964254 2.25294902,7.46481675 2.27352169,7.30118535 C2.29312623,7.15116999 2.31853952,7.00187126 2.3500036,6.85376693 C2.38146768,6.70864857 2.41656223,6.5653218 2.45770756,6.42318941 C2.49982102,6.27639891 2.5482273,6.13068335 2.60026404,5.98974536 L3.74,6.287 L2.60111115,5.98938704 C2.65798852,5.83531076 2.72212684,5.68601203 2.79110578,5.53910209 C2.84572419,5.42213152 2.90426889,5.30776206 2.96627374,5.19673689 L3.0613338,5.03244194 C3.16298698,4.86283859 3.27270787,4.70172868 3.38942077,4.55017388 L3.56899461,4.33026018 C3.80739551,4.05674492 4.06757923,3.82264452 4.34591531,3.6375141 C4.55055283,3.50123423 4.7647506,3.39254476 4.98499914,3.31490942 L4.98644659,3.31395347 L5.06886301,3.28788635 C5.09699916,3.27907773 5.12513531,3.270717 5.15296892,3.26295347 L16.8474407,0.0787102871 L16.849,0.079 L16.9726617,0.0488505424 L17.09637,0.0250821856 L17.2695737,0.00537475405 L17.2695737,0.00537475405 L17.439,-2.52242671e-13 L17.535,0.025 L17.44,-2.52242671e-13 L17.597617,0.00806213108 C17.6496537,0.0128396902 17.7010854,0.0197074315 17.751912,0.0280681601 L17.7535617,0.029 L17.8319941,0.0436250871 C17.8587688,0.0494477373 17.8853923,0.0560168811 17.9120157,0.0631832199 L24.8341129,1.87507253 C24.7820762,1.86073985 24.7288293,1.84999035 24.6743722,1.84043523 L24.6665617,1.838 L24.5198655,1.82039934 C24.46798,1.81577108 24.4156407,1.8130837 24.3629989,1.81248651 L19.252,0.475 L24.3633619,1.8130837 Z" id="形状结合" fill="url(#linearGradient-4)" fill-rule="nonzero"></path>
            <path d="M5.56151787,24.9195097 C5.5748296,24.9230929 5.58814132,24.9254816 5.60266321,24.9278704 L5.61051787,24.9289101 L5.64253787,24.9336035 C5.65645468,24.9347979 5.67067402,24.9353951 5.6851959,24.9353951 C5.71762811,24.9351562 5.75030234,24.9327674 5.78539689,24.9279899 L12.7087043,26.7398792 C12.6748199,26.7458511 12.6409355,26.7470455 12.6082613,26.7470455 C12.5794595,26.7472844 12.5516259,26.7448956 12.5250025,26.740118 L12.5155179,26.7379101 L12.5047928,26.7360273 C12.498137,26.7346836 12.4914811,26.7331906 12.4848253,26.731399 L5.56151787,24.9195097 Z M5.86405709,24.9109101 L12.7873645,26.7227994 C12.760741,26.7299657 12.7341176,26.7359377 12.7087043,26.7395209 L5.78539689,24.9276315 C5.81081018,24.922854 5.83743364,24.9180764 5.86405709,24.9109101 Z" id="形状结合" fill="#7F7F7F"></path>
            <path d="M16.4355033,32.6823267 L16.4367173,30.6948621 C16.4379236,30.094084 16.1486962,29.7799595 15.7069889,29.9005929 L12.7832499,30.6960565 C12.3500138,30.8154955 12.0523152,31.2884738 12.0523152,31.8892519 L12.0498949,33.8767165 C12.0498949,34.4655506 12.3463833,34.7892303 12.7796195,34.6709857 L15.7045686,33.8743277 C16.1450657,33.7536943 16.4355033,33.2723552 16.4355033,32.6823267 L16.4355033,32.6823267 Z M23.7448508,30.6924733 L23.7460646,28.7050087 C23.7472711,28.105425 23.4495725,27.7924949 23.0163363,27.9107395 L20.0925974,28.7062031 C19.6508901,28.8268365 19.3616626,29.2986204 19.3604525,29.8993985 L19.3592423,31.8856687 C19.3592423,32.4756973 19.6472596,32.8005713 20.0889669,32.6811323 L23.0127059,31.8856687 C23.445942,31.7662297 23.7436406,31.2825019 23.7448508,30.6924733 L23.7448508,30.6924733 Z M16.4500252,16.786193 L16.4524455,14.7987284 C16.4524455,14.2098942 16.163218,13.8850202 15.7227209,14.0044592 L12.798982,14.8011172 C12.3645357,14.9181674 12.0680472,15.4030896 12.0668371,15.9931182 L12.0656232,17.9793884 C12.0644168,18.5801664 12.3609052,18.8930966 12.7953515,18.774852 L15.7178803,17.978194 C16.1595876,17.858755 16.4500252,17.3857767 16.4500252,16.786193 L16.4500252,16.786193 Z M16.4427643,24.7336626 L16.4451846,22.7473924 C16.4451846,22.1466144 16.1571673,21.8324898 15.7142498,21.9531232 L12.791721,22.7485868 C12.3572747,22.8668314 12.0595761,23.3410041 12.0595761,23.9405878 L12.0571558,25.9280524 C12.0571558,26.5288305 12.3536443,26.8405662 12.7880906,26.7223216 L15.7106194,25.926858 C16.1523266,25.8062247 16.4427643,25.3344407 16.4427643,24.7336626 L16.4427643,24.7336626 Z M23.7593726,14.7963396 L23.7605865,12.808875 C23.761793,12.2200408 23.4653045,11.8963612 23.0308582,12.0146058 L20.1071192,12.8112638 C19.665412,12.9307027 19.3761845,13.4132362 19.3749743,14.0032648 L19.3737604,15.989535 C19.372554,16.5903131 19.6629917,16.905632 20.1034888,16.7849986 L23.0272277,15.9883406 C23.4616741,15.8712904 23.7581625,15.3959233 23.7593726,14.7963396 L23.7593726,14.7963396 Z M23.7509015,22.7450036 L23.7533219,20.757539 C23.7533219,20.156761 23.4568334,19.8450252 23.0235973,19.9632698 L20.0998583,20.7587334 C19.658151,20.8793668 19.3689236,21.3511508 19.3677134,21.9519288 L19.3664995,23.938199 C19.3652931,24.5389771 19.6545206,24.8531016 20.0962278,24.7324683 L23.0199668,23.9370047 C23.453203,23.8187601 23.7509015,23.3445873 23.7509015,22.7450036 L23.7509015,22.7450036 Z M38.3453932,35.6563573 C38.7871005,35.5357239 39.076328,35.8510428 39.0751216,36.439877 L39.0739077,38.4273416 C39.0739077,39.0269253 38.78347,39.4999036 38.3429729,39.620537 L7.65339502,47.9752936 C7.2189487,48.0935381 6.92367043,47.780608 6.92367043,47.1810243 L6.92609074,45.1935597 C6.92609074,44.6035312 7.22378933,44.1293584 7.65702549,44.0111138 L9.11889497,43.613382 L9.14914889,9.83484441 C9.15156921,7.65030548 10.4706402,5.51234776 12.0765183,5.07520109 L23.7714742,1.89095791 C25.3773524,1.45381125 26.6927929,2.8751351 26.6903725,5.05967403 L26.6601186,38.8382117 L28.120778,38.4392855 L36.8835238,36.0337844 L38.3453932,35.6563573 Z" id="Fill-285" fill="url(#linearGradient-5)" fill-rule="nonzero"></path>
        </g>
    </g>
</svg>