<?xml version="1.0" encoding="UTF-8"?>
<svg width="50px" height="50px" viewBox="0 0 50 50" version="1.1" xmlns="http://www.w3.org/2000/svg" xmlns:xlink="http://www.w3.org/1999/xlink">
    <title>结构拓扑-灰</title>
    <defs>
        <linearGradient x1="67.0782423%" y1="54.1899149%" x2="143.478155%" y2="40.0804543%" id="linearGradient-1">
            <stop stop-color="#5F5F5F" offset="0%"></stop>
            <stop stop-color="#B8B8B8" offset="100%"></stop>
        </linearGradient>
        <linearGradient x1="58.9644169%" y1="108.843304%" x2="67.8193231%" y2="-201.520614%" id="linearGradient-2">
            <stop stop-color="#5F5F5F" offset="0%"></stop>
            <stop stop-color="#B8B8B8" offset="100%"></stop>
        </linearGradient>
        <linearGradient x1="50%" y1="240.900658%" x2="63.3994371%" y2="-227.577152%" id="linearGradient-3">
            <stop stop-color="#5F5F5F" offset="0%"></stop>
            <stop stop-color="#B8B8B8" offset="100%"></stop>
        </linearGradient>
        <linearGradient x1="-80.4412751%" y1="94.5503981%" x2="50%" y2="19.8564154%" id="linearGradient-4">
            <stop stop-color="#5F5F5F" offset="0%"></stop>
            <stop stop-color="#B8B8B8" offset="100%"></stop>
        </linearGradient>
        <linearGradient x1="67.0782423%" y1="54.187305%" x2="143.478155%" y2="40.0866332%" id="linearGradient-5">
            <stop stop-color="#5F5F5F" offset="0%"></stop>
            <stop stop-color="#B8B8B8" offset="100%"></stop>
        </linearGradient>
        <linearGradient x1="58.9054792%" y1="108.843304%" x2="89.9187589%" y2="-214.62154%" id="linearGradient-6">
            <stop stop-color="#5F5F5F" offset="0%"></stop>
            <stop stop-color="#B8B8B8" offset="100%"></stop>
        </linearGradient>
        <linearGradient x1="45.1657427%" y1="234.733539%" x2="98.3568697%" y2="-216.838794%" id="linearGradient-7">
            <stop stop-color="#5F5F5F" offset="0%"></stop>
            <stop stop-color="#B8B8B8" offset="100%"></stop>
        </linearGradient>
        <linearGradient x1="39.4570325%" y1="317.6612%" x2="86.7188409%" y2="-89.3104305%" id="linearGradient-8">
            <stop stop-color="#5F5F5F" offset="0%"></stop>
            <stop stop-color="#B8B8B8" offset="100%"></stop>
        </linearGradient>
        <linearGradient x1="6.59254857%" y1="335.619506%" x2="114.585931%" y2="15.186844%" id="linearGradient-9">
            <stop stop-color="#5F5F5F" offset="0%"></stop>
            <stop stop-color="#B8B8B8" offset="100%"></stop>
        </linearGradient>
        <linearGradient x1="67.0782423%" y1="54.1869487%" x2="143.478155%" y2="40.0874767%" id="linearGradient-10">
            <stop stop-color="#5F5F5F" offset="0%"></stop>
            <stop stop-color="#B8B8B8" offset="100%"></stop>
        </linearGradient>
        <linearGradient x1="39.7945768%" y1="128.083155%" x2="143.764474%" y2="-55.2655315%" id="linearGradient-11">
            <stop stop-color="#5F5F5F" offset="0%"></stop>
            <stop stop-color="#B8B8B8" offset="100%"></stop>
        </linearGradient>
        <linearGradient x1="58.9520971%" y1="108.843304%" x2="195.690151%" y2="-267.77182%" id="linearGradient-12">
            <stop stop-color="#5F5F5F" offset="0%"></stop>
            <stop stop-color="#B8B8B8" offset="100%"></stop>
        </linearGradient>
        <linearGradient x1="73.6582857%" y1="0%" x2="37.2290039%" y2="95.0951313%" id="linearGradient-13">
            <stop stop-color="#E7E7E7" offset="0%"></stop>
            <stop stop-color="#AFAFAF" offset="100%"></stop>
        </linearGradient>
    </defs>
    <g id="页面-1" stroke="none" stroke-width="1" fill="none" fill-rule="evenodd">
        <g id="编组-120" transform="translate(4.000000, -0.000140)">
            <path d="M35.0849288,27.4100376 L41.7748566,29.1787205 C41.7502957,29.1822182 41.7257348,29.1880478 41.7011738,29.1950432 L35.0100765,27.4263604 C35.0346374,27.4193649 35.0603679,27.4135354 35.0849288,27.4100376 Z M35.187149,27.4024592 C35.2187273,27.4024592 35.2503057,27.4047911 35.2807144,27.4106206 L38.6260765,28.2944592 L35.2808314,27.4098045 C35.2972053,27.4133022 35.3135793,27.4167999 35.3287837,27.4214635 L42.0198811,29.1901464 C42.0035071,29.1854828 41.9883027,29.1819851 41.9719288,29.1796532 L41.9640765,29.1774592 L41.9254677,29.1730367 C41.9098247,29.1717251 41.8940356,29.1711421 41.8782464,29.1711421 L35.187149,27.4024592 Z M35.187266,27.402809 L41.8783634,29.1714919 C41.8444459,29.170326 41.8105284,29.1738237 41.7754414,29.1784873 L35.084344,27.4098045 C35.119431,27.4039749 35.1533485,27.4016431 35.187266,27.402809 Z" id="形状结合" fill="#8F8F8F"></path>
            <polygon id="Fill-9" fill="url(#linearGradient-1)" fill-rule="nonzero" points="39.6926751 29.7472174 33.0015777 27.9785345 35.0097256 27.425894 41.700823 29.1945769"></polygon>
            <path d="M28.2906755,38.9497316 L34.9817729,40.7184145 C34.9817729,40.762719 34.984112,40.8070235 34.9864512,40.8501621 C35.0213043,41.3733051 35.2692527,41.7242435 35.6049186,41.8128526 L28.9138212,40.0441697 C28.5793249,39.9555607 28.3302069,39.6046223 28.2951199,39.0811294 C28.2918451,39.0383406 28.2906755,38.9940361 28.2906755,38.9497316 Z M31.2790382,28.4510772 L37.9713052,30.2209259 L35.8590657,30.8015483 L29.1679683,29.0316995 L31.2790382,28.4510772 Z M35.6501809,30.899368 C35.5979402,30.9343452 35.5472589,30.9760588 35.4984836,31.0238179 L35.4264426,31.0997876 C35.3691338,31.1662444 35.3165032,31.2408625 35.2685509,31.3213102 C35.2367387,31.3756415 35.2063299,31.4316051 35.1794299,31.4899005 L35.1458487,31.5662821 L35.1458487,31.5662821 L35.1155715,31.6446166 C35.0968584,31.6924188 35.0804844,31.7425529 35.0664496,31.7926869 L35.0472102,31.8661391 L35.0472102,31.8661391 L35.0304269,31.9400577 C35.0199008,31.9890259 35.0117138,32.0391599 35.0046964,32.089294 L34.9962756,32.1693919 L34.9904277,32.2504225 L34.9894043,32.2861285 L34.9894043,32.2861285 L34.9889073,32.3223591 L34.9818899,40.7180647 L28.2907925,38.9493818 L28.2989795,30.5536762 L28.2981608,30.5540259 L28.2999151,30.4811567 C28.3022542,30.4275249 28.3069325,30.3738931 28.3139499,30.3202613 C28.3206165,30.270477 28.3288034,30.220343 28.3393295,30.1702089 C28.3498557,30.1207744 28.3615513,30.0718063 28.3755861,30.0228381 L28.3986266,29.9483657 L28.3986266,29.9483657 L28.4238893,29.8754673 C28.443772,29.8230014 28.4648242,29.7717015 28.4882155,29.7215674 C28.5152325,29.6629222 28.5456413,29.6057927 28.5772196,29.5521609 L28.6534462,29.4365611 L28.6534462,29.4365611 L28.7356961,29.3312213 C28.8047006,29.2507737 28.8807225,29.1819851 28.9590835,29.1306851 C29.0133515,29.0940756 29.0683212,29.0660938 29.1232908,29.0462733 C29.139197,29.0419595 29.1532318,29.0372958 29.1672666,29.0326322 L35.8595335,30.8013151 L35.81509,30.815306 L35.81509,30.815306 L35.8155578,30.8149562 C35.758249,30.8347767 35.7032793,30.8639244 35.6506487,30.8989016 L29.4276755,29.2540772 L35.6501809,30.899368 Z" id="形状结合" fill="url(#linearGradient-2)" fill-rule="nonzero"></path>
            <path d="M31.2833656,24.168696 L37.974463,25.9373789 L37.9709543,30.2209259 L31.2798569,28.4510772 L31.2833656,24.168696 Z M37.974346,25.9376121 L31.2832487,24.1677633 C31.2832487,24.0103656 31.2785704,23.8552998 31.2680443,23.7037318 L33.9191299,24.4043772 L31.2683951,23.7037318 C31.1502688,21.9525375 30.3537931,20.6886929 29.2801299,20.4053772 L35.9712273,22.1740601 C37.0437209,22.4585417 37.8401966,23.7212204 37.9594925,25.4724146 C37.9696678,25.6239827 37.974346,25.7790485 37.974346,25.9376121 Z" id="形状结合" fill="url(#linearGradient-3)" fill-rule="nonzero"></path>
            <path d="M35.1590209,19.6573596 L34.9720655,19.7031506 L25.5979796,22.2809739 L18.9068822,20.512291 L28.2809681,17.9344677 L28.2805003,17.9345843 C28.405644,17.8996071 28.5307878,17.8727912 28.6535924,17.8541367 L35.1958822,19.5830429 L28.6534755,17.8537869 C28.8289106,17.8258051 29.0008371,17.8129801 29.1692549,17.8153119 C29.3293687,17.8162446 29.4860908,17.8314015 29.6404737,17.8582173 L36.3304015,19.6269002 C36.1771882,19.6000843 36.0204661,19.5849275 35.8602353,19.5837616 C35.6907649,19.581663 35.5188384,19.5956539 35.3445728,19.6224698 L35.1590209,19.6573596 L35.1590209,19.6573596 Z" id="形状结合" fill="url(#linearGradient-4)" fill-rule="nonzero"></path>
            <path d="M20.9211119,31.3045211 L27.6122092,33.073204 C27.5876483,33.0767017 27.5619178,33.0825313 27.5373569,33.0895267 L20.8462595,31.3208438 C20.87199,31.3138484 20.8965509,31.3080188 20.9211119,31.3045211 Z M21.0255543,31.2969427 L21.0739451,31.2988373 L21.0739451,31.2988373 L21.1214588,31.3055704 C21.1390023,31.3079022 21.1553763,31.3125659 21.1717502,31.3160636 L27.8628476,33.0847465 L27.8125562,33.0742533 L27.8125562,33.0742533 L27.8062595,33.0718261 L27.7650425,33.0679574 C27.7491072,33.0665 27.7330256,33.0656256 27.7166516,33.0656256 L21.0255543,31.2969427 Z M21.026256,31.2968261 L27.7161838,33.065509 C27.6822664,33.065509 27.6471793,33.0678408 27.6120923,33.0736704 L20.9209949,31.3038216 C20.9572515,31.2991579 20.991169,31.2968261 21.026256,31.2968261 Z" id="形状结合" fill="#8F8F8F"></path>
            <polygon id="Fill-63" fill="url(#linearGradient-5)" fill-rule="nonzero" points="25.5876874 33.6258445 18.89659 31.8571616 20.8462595 31.3208438 27.5373569 33.0895267"></polygon>
            <path d="M14.1415951,42.8401344 L20.8326925,44.6088173 C20.8326925,44.6554536 20.8350317,44.700924 20.8373708,44.7452285 C20.8725748,45.2645241 21.1123362,45.6107988 21.4421543,45.698242 L14.7510569,43.9295591 C14.4212388,43.842116 14.1814774,43.4958412 14.1463904,42.9758461 C14.1427647,42.9322411 14.1415951,42.8867707 14.1415951,42.8401344 Z M21.67291,34.7025025 L21.6510391,34.7107222 L21.5668302,34.7464281 L21.5668302,34.7464281 L21.4861301,34.793968 C21.4346691,34.8273908 21.3852873,34.868068 21.3383313,34.914618 L21.269877,34.988325 L21.1897616,35.0901962 L21.1164297,35.2012198 L21.0719861,35.2815218 L21.0308173,35.3643304 L20.9983618,35.43924 L20.9676607,35.5164814 L20.9423688,35.5890592 L20.9199423,35.6632693 C20.9059075,35.7122374 20.8930422,35.7623715 20.8825161,35.8125055 C20.87199,35.8635723 20.8626335,35.9160382 20.8567856,35.9673382 C20.8489495,36.0227188 20.8442713,36.0798483 20.8419321,36.1358119 C20.8402947,36.1625112 20.8402947,36.1881612 20.8402947,36.2138112 L15.0985951,34.6960045 L20.8398269,36.2140444 L20.8328095,44.6085841 L14.1417121,42.8399012 L14.1498991,34.4453615 L14.1491973,34.4451283 L14.1499283,34.4056331 L14.1499283,34.4056331 L14.1508347,34.367129 C14.1531739,34.3111654 14.1590217,34.2540359 14.1660391,34.1980723 C14.1727056,34.1461894 14.1808926,34.0948894 14.1914187,34.0435895 L19.1875951,35.3640045 L14.1914187,34.0426567 C14.2019448,33.9925227 14.2148101,33.9435545 14.2288449,33.8945864 C14.2426458,33.8445689 14.2590198,33.7956008 14.2765633,33.7466326 C14.2952764,33.6947497 14.3163286,33.6446157 14.3397199,33.5956475 C14.3668539,33.5398005 14.3949235,33.4850028 14.4265019,33.4325369 C14.4723489,33.3548874 14.5238099,33.283767 14.5787796,33.2196421 L14.5791973,33.2186986 L14.647234,33.1458919 C14.6941899,33.0992556 14.7435717,33.0583192 14.7950327,33.0241193 L14.7951973,33.0236986 L14.8761714,32.9775995 L14.9178921,32.9579248 L14.9178921,32.9579248 L14.9595951,32.9400045 L14.9595909,32.9405236 C14.9747952,32.93586 14.9888301,32.9311964 15.0040344,32.9276986 L17.0870347,32.3550045 L23.7769625,34.1236874 L21.6951318,34.6961483 L21.67291,34.7025025 L21.67291,34.7025025 Z" id="形状结合" fill="url(#linearGradient-6)" fill-rule="nonzero"></path>
            <polygon id="Fill-73" fill="url(#linearGradient-7)" fill-rule="nonzero" points="23.7773134 34.1234542 17.086216 32.3547713 17.094403 23.4950342 23.7855004 25.2637171"></polygon>
            <path d="M20.9490645,0.00839453972 L27.6401619,1.77707742 C27.615601,1.78057515 27.5910401,1.78640469 27.5653096,1.79340014 L20.8742122,0.0247172558 C20.8999427,0.0177218061 20.9245036,0.0118922646 20.9490645,0.00839453972 Z M21.0547935,2.74114065e-13 C21.0868396,0.00023318166 21.1184179,0.00373090654 21.1499963,0.00956044802 L24.4952122,0.893 L21.1505811,0.00932726636 C21.166955,0.0116590829 21.1844985,0.0151568078 21.2008725,0.019820441 L27.8919699,1.78850332 C27.8755959,1.78383969 27.8580524,1.78034197 27.8416784,1.77801015 L27.8402122,1.778 L27.7941648,1.77139362 C27.777937,1.7697905 27.7615631,1.76891606 27.7451891,1.76891606 C27.7108038,1.76868288 27.6757168,1.7710147 27.6406297,1.77684424 L20.9495324,0.00816135806 L21.0021629,0.00189460098 L21.0021629,0.00189460098 L21.0540917,0.00023318166 L21.0547935,2.74114065e-13 Z" id="形状结合" fill="#8F8F8F"></path>
            <polygon id="Fill-107" fill="url(#linearGradient-8)" fill-rule="nonzero" points="23.7876056 22.7785835 17.0965082 21.0099006 17.1046952 12.0895363 23.7957926 13.8593851"></polygon>
            <path d="M14.1784365,3.1389749 L20.8683644,4.90765778 L20.8613469,13.3021975 L20.8619317,13.3023141 C20.8619317,13.3486075 20.8630842,13.3937521 20.865389,13.4377479 L20.8660252,13.4383756 C20.9011122,13.9618684 21.1432128,14.3139727 21.47537,14.4014158 L14.7842727,12.632733 C14.4521154,12.5452898 14.2100149,12.1931855 14.1749278,11.6696927 L14.174343,11.6700425 C14.1720039,11.625738 14.1696648,11.5802675 14.1696648,11.5336312 L19.4626648,12.9316007 L14.1702496,11.5335146 L14.1784365,3.1389749 Z M14.193524,2.89856461 L20.8846213,4.66724749 C20.8776039,4.72204518 20.8729257,4.77684287 20.8705865,4.83164056 C20.8688322,4.85729055 20.8688322,4.88177462 20.8688322,4.9074246 L14.1777348,3.13874172 C14.1777348,3.11309174 14.1789044,3.08744175 14.1789044,3.06295768 C14.1818283,3.00815999 14.1865065,2.9533623 14.193524,2.89856461 Z M20.8740952,0.024600665 L27.5651926,1.79328355 L21.7232015,3.39990518 L21.7216648,3.39960067 L21.6792257,3.4135463 C21.6229695,3.43313356 21.5668302,3.46228127 21.5141997,3.49725852 C21.4368913,3.54855848 21.3643781,3.61501526 21.2965431,3.69313111 C21.2418073,3.75678971 21.1903464,3.82907602 21.1435637,3.90719188 C21.1122192,3.95919139 21.0841496,4.01282317 21.0572495,4.06995267 L21.0242239,4.1446874 L21.0242239,4.1446874 L20.9944438,4.22140416 L20.9691519,4.29383621 L20.9467254,4.36760906 C20.9326906,4.4154113 20.9209949,4.46554536 20.9104688,4.51451351 C20.9000596,4.56453097 20.8907031,4.61583094 20.8848553,4.6671309 L14.1937579,2.89844802 C14.2007753,2.84714806 14.2089623,2.79584809 14.2194884,2.74571403 C14.2298975,2.69569657 14.2415932,2.64672842 14.255628,2.59776027 C14.2705985,2.54832576 14.2858029,2.49935761 14.3033464,2.45155537 C14.3220595,2.39967245 14.3431117,2.3507043 14.366503,2.30173615 C14.3930522,2.24414029 14.4222914,2.1905085 14.4527002,2.13804263 L16.7536648,2.74560067 L14.4524663,2.13734309 C14.499249,2.06039314 14.55071,1.98810682 14.6056796,1.92398187 C14.6732807,1.84633238 14.7457939,1.7798756 14.8229853,1.72857564 C14.8769024,1.69359839 14.9318721,1.66445068 14.9880114,1.64463024 L15.0325719,1.63087252 L15.0325719,1.63087252 L17.5716648,2.30160067 L15.0321041,1.63005639 L20.8740952,0.024600665 Z" id="形状结合" fill="url(#linearGradient-9)" fill-rule="nonzero"></path>
            <path d="M6.75717797,35.1997041 L13.4482754,36.968387 C13.4237144,36.9718847 13.3979839,36.9777143 13.373423,36.9847097 L6.68232563,35.2148609 C6.70805612,35.2090314 6.73261704,35.2032019 6.75717797,35.1997041 Z M13.5544721,36.9602257 L6.86337472,35.1915428 L6.91293516,35.1940203 L6.91293516,35.1940203 L6.96161842,35.2006369 C6.97799237,35.2029687 6.99553588,35.2064664 7.0130794,35.21113 L13.7030072,36.9798129 C13.6866333,36.9763152 13.6702593,36.9716516 13.6527158,36.9693197 C13.6199679,36.9637234 13.58722,36.9602257 13.5544721,36.9602257 Z M6.86302385,35.1913096 L13.5541212,36.9599925 C13.5202038,36.9599925 13.4839472,36.9623243 13.4488601,36.9681538 L6.75776275,35.199471 C6.79401935,35.1936414 6.82910639,35.1913096 6.86302385,35.1913096 Z" id="形状结合" fill="#8F8F8F"></path>
            <polygon id="Fill-147" fill="url(#linearGradient-10)" fill-rule="nonzero" points="11.4015317 37.5266239 4.71043432 35.757941 6.68232563 35.2157937 13.373423 36.9844766"></polygon>
            <path d="M13.7749356,25.5413198 C13.4803215,25.6450857 13.1926078,25.793156 12.9142507,25.9797013 L11.5822283,25.6270172 L12.9137829,25.9798179 C12.5172994,26.245645 12.139529,26.5884221 11.7921673,26.9929922 L8.08222832,26.0120172 L11.7924013,26.9934586 C11.5836334,27.2356761 11.3867074,27.4995357 11.2026101,27.7815944 L11.0231765,28.0693588 C10.8687936,28.3270245 10.7261063,28.5975152 10.5951147,28.8784991 C10.4831871,29.1172772 10.3802651,29.3644497 10.2866997,29.6174518 C10.2010873,29.8505169 10.1227263,30.0871963 10.0537218,30.3297052 L9.95939613,30.6834709 L9.87793573,31.0416088 L9.80893123,31.4087242 L9.75384459,31.7790458 C9.71992712,32.0448729 9.69653576,32.3130318 9.68484009,32.5811907 C9.67922616,32.7040774 9.67688702,32.8276637 9.67688702,32.95125 L9.67232571,38.0019647 L2.98122832,36.2332818 L2.98590659,31.1825671 C2.98578964,31.0589808 2.98929834,30.9353945 2.99397661,30.8118083 C3.00543838,30.543183 3.02882973,30.2750241 3.0627472,30.009197 L3.06278964,30.0083506 L3.11783384,29.6400413 L3.15069139,29.456101 L3.15069139,29.456101 L3.18672139,29.2731591 C3.2370128,29.032982 3.29549119,28.7951367 3.36215656,28.5607891 C3.43162888,28.3185134 3.50998993,28.081834 3.59653794,27.8486523 L3.59560229,27.8487689 C3.68916771,27.5957668 3.79208968,27.3485943 3.90319862,27.1095831 L4.81722832,27.3510172 L3.90401732,27.1098163 C3.99134505,26.9224937 4.08387086,26.7398347 4.18159474,26.5625303 L4.33172826,26.3009091 C4.50716343,26.0071002 4.69641412,25.7296869 4.89701327,25.4735878 L5.10122832,25.2240172 L5.10106996,25.2243094 C5.4484316,24.8197392 5.82503243,24.4769621 6.22385505,24.2111351 L6.22315331,24.2110185 C6.50151045,24.0244731 6.78922412,23.8764028 7.08395521,23.7726369 C7.15869059,23.7458211 7.2347125,23.721337 7.31073441,23.7003506 L17.0962743,21.0100172 L23.7873717,22.7787001 L14.0015979,25.4696165 C13.9258099,25.4911858 13.849788,25.5145039 13.7749356,25.5413198 Z" id="形状结合" fill="url(#linearGradient-11)" fill-rule="nonzero"></path>
            <path d="M0.00994132631,38.2512359 L6.69986914,40.0199188 C6.69869958,40.0479006 6.69869958,40.0747165 6.69869958,40.1026983 L0.98,38.5907482 L6.69823175,40.1029315 L6.69121434,48.4974712 C6.69109739,48.5455115 6.69225054,48.5929853 6.69570188,48.6393095 L6.69624348,48.6401784 C6.73016095,49.1601735 6.96173538,49.5076141 7.28687522,49.5938913 L0.595777838,47.8252085 C0.269468421,47.7389313 0.0402331323,47.3914906 0.00397653052,46.8714955 L0.571,47.0212486 L0.0046782712,46.8716121 C0.0011695678,46.8249757 8.06466005e-13,46.7771735 8.06466005e-13,46.7282054 L0.00830393138,38.3342486 L0.00760219071,38.3340154 C0.00760219071,38.3060336 0.00877175851,38.2792177 0.00994132631,38.2512359 Z M2.98169615,36.2337482 L9.67279354,38.0024311 L7.53131489,38.5912148 L0.840217508,36.821366 L2.98169615,36.2337482 Z M7.32687444,38.6856533 L2.981,37.5367482 L7.32652357,38.6858865 C7.2528408,38.7348547 7.1838363,38.7978137 7.11951007,38.8724319 L7.12009486,38.8721987 C7.0674643,38.9328259 7.01834246,39.0016145 6.97389888,39.0762326 L6.97260219,39.0761821 L6.930274,39.1529494 C6.91653158,39.1791823 6.90337394,39.2059982 6.8905087,39.2333971 L6.89085957,39.2338634 L6.85855026,39.3070242 L6.85855026,39.3070242 L6.828,39.3817482 L6.82945726,39.3819338 C6.81074417,39.4309019 6.79437022,39.4798701 6.78033541,39.5300041 C6.76606668,39.580488 6.75320144,39.630622 6.74267533,39.681922 C6.73214922,39.734621 6.72279267,39.7894187 6.71577527,39.8430505 C6.70852395,39.9012293 6.70267611,39.9606907 6.70033697,40.020152 L0.00923958563,38.2503032 C0.0115787212,38.1920078 0.0174265602,38.1325465 0.024443967,38.074251 C0.0316952874,38.0195699 0.039882262,37.9659382 0.05157794,37.9134723 C0.063273618,37.8619391 0.074969296,37.8106392 0.0890041096,37.761671 C0.104442405,37.7100213 0.119646786,37.6610531 0.137190303,37.6132509 L0.16745287,37.5373211 L0.19941131,37.4647142 C0.225141802,37.4099165 0.253211429,37.3574506 0.282450624,37.3073166 L3.85,38.2497482 L0.282801494,37.3063838 C0.327245071,37.2329316 0.37519735,37.164143 0.427827901,37.1035158 L4.766,38.2497482 L0.428412685,37.1025831 C0.471296838,37.0536149 0.516260222,37.0093104 0.563649377,36.9707059 L0.636,36.9167482 L0.635777056,36.9169705 C0.68723804,36.8831591 0.741038158,36.8551773 0.796007845,36.8365228 L0.840685335,36.8221821 L0.840685335,36.8221821 L7.53178272,38.590865 L7.48733915,38.6048559 L7.48733915,38.6048559 C7.43213554,38.6238602 7.37833543,38.651842 7.32687444,38.6856533 Z" id="形状结合" fill="url(#linearGradient-12)" fill-rule="nonzero"></path>
            <path d="M35.9816364,41.807023 C35.4366178,41.9562593 34.981656,41.5062187 34.981656,40.7180647 L34.9898429,32.3223591 C34.9898429,31.6461322 35.387496,30.9302646 35.8588318,30.8020146 L37.9710713,30.2213923 L37.97458,25.9378452 C37.9769191,23.411322 36.6248987,21.7335799 34.9687907,22.1882842 L25.5958744,24.7661074 L25.5876874,33.6258445 L27.5373569,33.0895267 C28.0812059,32.9402905 28.522133,33.505756 28.522133,34.29391 L28.513946,42.6884497 L21.8170008,45.6918295 C21.2731518,45.8410657 20.8322247,45.3968547 20.8333943,44.6087007 L20.8404117,36.2141609 C20.8404117,35.526275 21.2240299,34.8255642 21.6953657,34.6961483 L23.7771964,34.1236874 L23.7853834,25.2639502 L13.9996096,27.9548666 C12.5937891,28.3407822 11.4078474,30.4044399 11.4055082,32.476259 L11.4019995,37.5269737 L13.3738908,36.9848263 C13.9177399,36.8344242 14.3738713,37.396392 14.3727017,38.184546 L14.3656843,46.5790857 L7.65353473,49.5859632 C7.1096857,49.7351994 6.68981086,49.2851588 6.69097557,48.4970048 L6.6991674,40.1024651 C6.6991674,39.4157451 7.06056385,38.7208638 7.53073011,38.591448 L9.67220875,38.0014984 L9.67688702,32.9507836 C9.68039573,29.5370041 11.6616436,26.1127315 14.0019488,25.4691501 L23.7877225,22.7782338 L23.7959095,13.8590353 L21.84624,14.3941872 C21.3012214,14.5445894 20.8602943,14.0898851 20.8614639,13.3017311 L20.8684813,4.90719142 C20.8696509,4.23096461 21.2520995,3.52908782 21.7234354,3.399672 L27.5654265,1.79305037 C28.1104451,1.6438141 28.5513722,2.20927963 28.5502026,2.98694046 L28.5420156,11.3919734 C28.5420156,11.5015687 28.5349982,11.5808505 28.522133,11.6589664 L25.6064005,13.3611925 L25.5982135,22.2815568 L34.9711298,19.7037336 C37.5839443,18.9855341 39.6996925,21.5750164 39.6961838,25.4644865 L39.6926751,29.7468676 L41.700823,29.195393 C42.2458416,29.0449908 42.6645468,29.6174518 42.6633821,30.4044399 L42.6563599,38.8001455 C42.6610381,38.9365568 42.6540207,39.0146727 42.6411555,39.0916226 L35.9816364,41.807023 Z" id="Fill-205" fill="url(#linearGradient-13)" fill-rule="nonzero"></path>
            <path d="M11.508349,39.9020338 L12.409028,39.6522724 C12.6574359,39.5829837 12.865778,39.8418762 12.8652458,40.2049703 L12.8620385,44.0722443 L9.79620428,45.4574803 C9.54779638,45.5262319 9.3560148,45.318903 9.3565424,44.955809 L9.36028849,41.088535 C9.36028849,40.7721705 9.52535954,40.4520461 9.74011217,40.3924257 L10.7182516,40.1206422 L11.508349,39.9020338 Z" id="Fill-205" fill="#949494"></path>
            <path d="M37.8829199,38.4620411 C37.6339776,38.5307375 37.4261696,38.3235748 37.4261696,37.9607717 L37.4299091,34.0960601 C37.4299091,33.7847793 37.6115408,33.4552511 37.8268277,33.3962151 L38.7916125,33.128943 L39.5779709,32.9105097 L40.4952109,32.6566549 C40.7441531,32.5874218 40.9354006,32.850937 40.934873,33.2132034 L40.9316611,37.0779151 C40.933798,37.1407079 40.9305927,37.1766662 40.9247164,37.2120878 L37.8829199,38.4620411 Z" id="Fill-205" fill="#949494"></path>
            <path d="M25.5609464,36.4530121 L26.450664,36.1565439 C26.6988455,36.0740484 26.9000594,36.386629 26.9000594,36.8223083 L26.8963233,41.4626801 L23.8402209,43.122902 C23.5920393,43.2053975 23.3908255,42.9598445 23.391356,42.5241652 L23.3945615,37.8837934 C23.3945615,37.5035407 23.5696229,37.1161985 23.7847136,37.0446595 L24.734742,36.7282119 L25.5609464,36.4530121 Z" id="Fill-205" fill="#949494"></path>
        </g>
    </g>
</svg>