<?xml version="1.0" encoding="UTF-8"?>
<svg width="50px" height="50px" viewBox="0 0 50 50" version="1.1" xmlns="http://www.w3.org/2000/svg" xmlns:xlink="http://www.w3.org/1999/xlink">
    <title>关联资产</title>
    <defs>
        <linearGradient x1="44.0216217%" y1="60.2152689%" x2="75.4822142%" y2="40.4245608%" id="linearGradient-1">
            <stop stop-color="#003B7C" offset="0%"></stop>
            <stop stop-color="#4EA2FF" offset="100%"></stop>
        </linearGradient>
        <linearGradient x1="44.0216217%" y1="76.8384351%" x2="75.4822142%" y2="24.8425807%" id="linearGradient-2">
            <stop stop-color="#003B7C" offset="0%"></stop>
            <stop stop-color="#4EA2FF" offset="100%"></stop>
        </linearGradient>
        <linearGradient x1="44.0216217%" y1="77.3626097%" x2="75.4822142%" y2="24.3512376%" id="linearGradient-3">
            <stop stop-color="#003B7C" offset="0%"></stop>
            <stop stop-color="#4EA2FF" offset="100%"></stop>
        </linearGradient>
        <linearGradient x1="44.0216217%" y1="94.913721%" x2="75.4822142%" y2="7.89943387%" id="linearGradient-4">
            <stop stop-color="#003B7C" offset="0%"></stop>
            <stop stop-color="#4EA2FF" offset="100%"></stop>
        </linearGradient>
        <linearGradient x1="44.0216217%" y1="94.2466312%" x2="75.4822142%" y2="8.52474074%" id="linearGradient-5">
            <stop stop-color="#003B7C" offset="0%"></stop>
            <stop stop-color="#4EA2FF" offset="100%"></stop>
        </linearGradient>
        <linearGradient x1="44.0216217%" y1="94.1235654%" x2="75.4822142%" y2="8.64009835%" id="linearGradient-6">
            <stop stop-color="#003B7C" offset="0%"></stop>
            <stop stop-color="#4EA2FF" offset="100%"></stop>
        </linearGradient>
        <linearGradient x1="44.0216217%" y1="94.3249795%" x2="75.4822142%" y2="8.45129979%" id="linearGradient-7">
            <stop stop-color="#003B7C" offset="0%"></stop>
            <stop stop-color="#4EA2FF" offset="100%"></stop>
        </linearGradient>
        <linearGradient x1="44.0216217%" y1="94.0090238%" x2="75.4822142%" y2="8.74746567%" id="linearGradient-8">
            <stop stop-color="#003B7C" offset="0%"></stop>
            <stop stop-color="#4EA2FF" offset="100%"></stop>
        </linearGradient>
        <linearGradient x1="68.7894723%" y1="1.62583954%" x2="40.6412177%" y2="100%" id="linearGradient-9">
            <stop stop-color="#C3EEFF" offset="0%"></stop>
            <stop stop-color="#25A8FF" offset="100%"></stop>
            <stop stop-color="#25A8FF" offset="100%"></stop>
        </linearGradient>
        <linearGradient x1="83.0798595%" y1="12.0396319%" x2="33.5233689%" y2="89.2362035%" id="linearGradient-10">
            <stop stop-color="#C3EEFF" offset="0%"></stop>
            <stop stop-color="#25A8FF" offset="100%"></stop>
            <stop stop-color="#25A8FF" offset="100%"></stop>
        </linearGradient>
    </defs>
    <g id="页面-1" stroke="none" stroke-width="1" fill="none" fill-rule="evenodd">
        <g id="编组-124" transform="translate(5.000000, 0.000069)">
            <g id="编组-123">
                <path d="M26.6233079,29.6658975 L34.3805289,31.7469833 C34.3737482,31.7510988 34.3669674,31.7552143 34.3615427,31.7593299 L34.2462694,31.8292938 L34.2462694,31.8292938 C34.2042285,31.853987 34.1635437,31.880052 34.1215029,31.9020015 C34.0848866,31.9225792 34.0482704,31.9404131 34.0116541,31.9582471 C33.9669009,31.9815684 33.9235039,32.0048897 33.8801068,32.0240955 C33.8421344,32.0405577 33.804162,32.0556479 33.7675458,32.0707382 C33.7227926,32.089944 33.6793955,32.107778 33.6359985,32.1242401 L33.63193,32.1256119 L33.6304318,32.1254634 L33.575819,32.1438574 L33.520047,32.1623773 L33.520047,32.1623773 C33.4847869,32.1719802 33.4495268,32.1856986 33.3206918,32.2213665 C33.2881441,32.2309694 33.2542401,32.2364568 33.2203362,32.2446879 C33.1796515,32.2542908 33.1376106,32.2666374 33.0955697,32.2734966 C33.0860766,32.2762403 33.0765835,32.2776121 33.0670904,32.278984 C33.0375262,32.283511 33.0076907,32.2876266 32.9778552,32.2917421 L32.8517326,32.309576 C32.8096917,32.3136916 32.769007,32.3136916 32.7269661,32.3164353 C32.6876375,32.3178071 32.6496651,32.3205508 32.6116927,32.3205508 L32.6035558,32.3205508 L32.5994318,32.3194634 L32.5425287,32.3184244 C32.5221863,32.3173956 32.5018439,32.3160237 32.4815016,32.3146519 C32.4448853,32.31328 32.4082691,32.3119082 32.373009,32.3091645 L24.6144318,30.2267069 C24.651048,30.2308225 24.6876643,30.2308225 24.7229244,30.2335661 C24.7636091,30.2363098 24.8042938,30.2390535 24.8449786,30.2390535 L24.8531155,30.2394651 C24.8910879,30.2394651 24.9304165,30.2353495 24.9683889,30.2339777 C25.0104298,30.2326059 25.0511145,30.231234 25.0931554,30.2284903 L25.2192781,30.2106564 L25.3087844,30.1983098 L25.3087844,30.1983098 L25.3369925,30.1924109 C25.3790334,30.1841798 25.4210743,30.1732051 25.4631152,30.1636022 C25.495663,30.1553711 25.5282107,30.1498837 25.5621147,30.1402808 C25.6909496,30.1046129 25.7262097,30.0908945 25.7614698,30.0799197 C25.7980861,30.068945 25.8360585,30.0565984 25.8726747,30.0442518 L29.2934318,30.9604634 L25.8733528,30.0431543 C25.874709,30.0431543 25.8760651,30.0431543 25.8774213,30.0417825 C25.9208183,30.0266922 25.9655715,30.0074864 26.0089686,29.9896525 C26.046941,29.9745622 26.0835572,29.9594719 26.1215296,29.9430098 C26.1649267,29.923804 26.2083237,29.8991108 26.2530769,29.8771614 C26.2896932,29.8593274 26.3263094,29.8414934 26.3642818,29.8209158 C26.4049666,29.7989663 26.4470075,29.7729013 26.4876922,29.7482081 C26.5256646,29.7248868 26.5649932,29.7029373 26.6029656,29.6782441 L26.6233079,29.6658975 Z M35.0453174,31.2114158 C35.0127696,31.2429682 34.9788656,31.2717769 34.9463179,31.3019574 C34.9056331,31.340369 34.8649484,31.3787806 34.8229075,31.4144485 C34.7876474,31.4446291 34.7510312,31.4720659 34.7144149,31.5008746 C34.6750864,31.5337989 34.6344016,31.5667231 34.5950731,31.5969036 L34.4784435,31.6792142 L34.4784435,31.6792142 C34.4458957,31.7011637 34.413348,31.724485 34.3808002,31.7464345 L26.622223,29.6653488 C26.6547708,29.6433993 26.6873186,29.620078 26.7198663,29.5967567 C26.7591949,29.5706916 26.7985235,29.5446266 26.8364959,29.5158179 C26.8771806,29.4856374 26.9165092,29.4527132 26.9558378,29.4197889 C26.992454,29.3909802 27.0290703,29.3635434 27.0643304,29.3333628 C27.1063712,29.2963231 27.147056,29.2592833 27.1877407,29.2208717 C27.2216446,29.1906912 27.2555486,29.1618825 27.2880963,29.1303301 C27.3599727,29.0603661 27.431849,28.9862866 27.5023692,28.9094634 L29.3981418,26.8121899 L37.1553629,28.8932756 L35.2608108,30.9908234 C35.1904262,31.0673723 35.1185499,31.1414518 35.0453174,31.2114158 Z M30.0627946,26.4754024 L30.6144318,26.6228537 L30.0636083,26.4748537 C30.0975123,26.4748537 30.13006,26.4775974 30.1626078,26.4844566 L30.1644638,26.4848537 L30.1886121,26.4892924 C30.1972577,26.4911786 30.2057336,26.4932364 30.2138706,26.4952942 L37.9724478,28.5763799 C37.9548177,28.5722644 37.9385438,28.5681488 37.9209138,28.5654051 C37.8886372,28.5586831 37.8547333,28.5559394 37.8221855,28.5559394 C37.7996733,28.5564882 37.7779748,28.5564882 37.7549201,28.5592319 C37.7413585,28.5606037 37.7264408,28.5619755 37.7128792,28.5647192 C37.6862985,28.5686976 37.6605315,28.5741849 37.6334084,28.582416 C37.6157783,28.5865315 37.5981483,28.5933907 37.5805182,28.5988781 L37.5784638,28.5978537 L37.5453938,28.6117048 L37.5108117,28.6271381 L37.5108117,28.6271381 C37.4647024,28.6477157 37.4199492,28.6737807 37.375196,28.7039613 L37.3757384,28.7042356 C37.2997936,28.7549938 37.2265611,28.8180986 37.1560409,28.89355 L29.3974638,26.8110924 C29.4679839,26.7370129 29.5412165,26.6725363 29.6158051,26.6231499 L32.9474318,27.5158537 L29.6166188,26.6228756 C29.661372,26.592695 29.7061252,26.56663 29.7522346,26.5460524 C29.7752892,26.5350776 29.7983439,26.5254747 29.8227548,26.5172437 L29.8219411,26.5177924 C29.8395711,26.5109332 29.8572012,26.5054458 29.8748312,26.5013303 C29.9005982,26.4930992 29.9277213,26.4876118 29.9534883,26.4834963 C29.9692198,26.4808898 29.9827813,26.479518 29.9963429,26.4781461 C30.0193976,26.4754024 30.0410961,26.4754024 30.0627946,26.4754024 Z" id="形状结合" fill="url(#linearGradient-1)" fill-rule="nonzero"></path>
                <path d="M32.2392918,32.2896843 L24.4807147,30.2085986 C24.5254679,30.2154578 24.5688649,30.2236889 24.6136181,30.2278044 L32.3735514,32.3088901 C32.3274421,32.3047746 32.284045,32.2965435 32.2392918,32.2896843" id="Fill-228" fill="#868686"></path>
                <path d="M32.1400211,32.2743197 L24.3814439,30.193234 C24.3855124,30.193234 24.3895809,30.1946058 24.3936494,30.1959776 L32.1522265,32.2770634 C32.1481581,32.2756915 32.1440896,32.2756915 32.1400211,32.2743197" id="Fill-229" fill="#828282"></path>
                <path d="M32.1526334,32.2769262 L24.3940562,30.1958405 C24.4225355,30.199956 24.452371,30.2040715 24.4808503,30.2081871 L32.2394275,32.2892728 C32.209592,32.2851572 32.1811127,32.2810417 32.1526334,32.2769262" id="Fill-230" fill="#868686"></path>
                <path d="M32.0015574,32.2401608 L24.2429803,30.1590751 C24.2890896,30.1714217 24.335199,30.1837682 24.3813083,30.1933711 L32.1398855,32.2744569 C32.09242,32.264854 32.0476668,32.2525074 32.0015574,32.2401608" id="Fill-231" fill="#828282"></path>
                <path d="M31.9273756,32.2220525 L24.1687984,30.1409667 C24.1932093,30.147826 24.2176201,30.1519415 24.2420309,30.1588007 L32.0019643,32.2398864 C31.9775534,32.2330272 31.9517864,32.2289117 31.9273756,32.2220525" id="Fill-232" fill="#828282"></path>
                <path d="M22.2707204,49.9033244 L14.5121432,47.8222387 C14.3046511,47.7659931 14.1025836,47.6864262 13.9072969,47.5821662 L21.664518,49.6632519 C21.8611608,49.767512 22.0632283,49.8470789 22.2707204,49.9033244" id="Fill-233" fill="#707070"></path>
                <path d="M16.3143409,24.9039564 L24.0729181,26.9850421 C24.011891,27.0056197 23.9508639,27.0248255 23.8898368,27.0426595 C23.796262,27.0687245 23.7013309,27.0893022 23.6077561,27.1043924 L20.18751,26.1870138 L23.6082985,27.1050783 L23.5201483,27.1174249 L23.5201483,27.1174249 C23.4170803,27.1297715 23.3153685,27.1352589 23.2150129,27.133887 L19.33551,26.0930138 L23.2144704,27.133887 C23.194128,27.133887 23.1737857,27.1325152 23.1520871,27.1325152 L15.39351,25.0514295 L15.4248711,25.0521154 L15.4248711,25.0521154 L15.4564357,25.0528013 C15.5581475,25.0541732 15.6585031,25.047314 15.7615711,25.0363392 C15.7900504,25.0322237 15.8198859,25.0281082 15.8497214,25.0226208 L15.85151,25.0220138 L15.9902193,24.9965558 C16.0373457,24.9862669 16.0844722,24.9746063 16.1312597,24.9615738 C16.1922867,24.9437398 16.2533138,24.924534 16.3143409,24.9039564 Z M16.8692806,24.6400138 L24.6278578,26.7210995 C24.5668307,26.7567674 24.5058036,26.7910635 24.4447765,26.8226159 C24.3227223,26.8857207 24.199312,26.9392225 24.0759016,26.9831215 C24.0745455,26.9844934 24.0731893,26.9844934 24.0731893,26.9844934 L16.3146122,24.9034076 C16.3159683,24.9020358 16.3159683,24.9020358 16.3173245,24.9020358 C16.4407348,24.8581368 16.5641451,24.8046349 16.6861993,24.7415302 C16.7485826,24.7099778 16.8096096,24.6756817 16.8692806,24.6400138 Z" id="形状结合" fill="#868686"></path>
                <path d="M5.45409588,35.4870386 C5.58835548,35.51036 5.72532739,35.5227066 5.86501161,35.5240784 L5.86709588,35.5241525 L6.01509807,35.5216955 C6.11615692,35.517021 6.21801941,35.506656 6.32108739,35.4901939 L14.0783084,37.5712796 C13.9770486,37.5877417 13.8751861,37.5981067 13.7739264,37.6027812 L13.6222326,37.6051641 C13.4839046,37.6037923 13.3469327,37.5914457 13.2126731,37.5681244 L5.45409588,35.4870386 Z M11.8399704,30.523025 L19.5985476,32.6041107 L16.302678,36.2802382 C16.2321578,36.3570614 16.1589253,36.4311409 16.0856928,36.5024768 C16.0558573,36.5312855 16.0246657,36.5573505 15.9948302,36.5847873 C15.950077,36.6259426 15.90668,36.6670979 15.8619268,36.7055095 L15.7575026,36.7891919 L15.6340923,36.8879646 C15.5961199,36.9154015 15.5581475,36.9414665 15.5201751,36.9675315 L15.4187345,37.0394161 C15.4119537,37.0435316 15.4065291,37.0462753 15.3997483,37.0503908 C15.363132,37.0737122 15.3265158,37.0956617 15.2898995,37.1176111 C15.2478586,37.1423043 15.2044616,37.1697412 15.1610646,37.1930625 C15.1258045,37.2136401 15.0905444,37.2301023 15.0552843,37.2479362 C15.0105311,37.2712576 14.9657779,37.2945789 14.9210247,37.3151565 C14.8844084,37.3316186 14.846436,37.3453371 14.8098198,37.3604273 C14.7664227,37.3782613 14.7216695,37.3974671 14.6782725,37.4139292 C14.6755602,37.4139292 14.674204,37.4153011 14.6728479,37.4153011 C14.6362316,37.4280592 14.5996154,37.4390339 14.5616429,37.4513805 C14.527739,37.4623553 14.4924789,37.4760737 14.4083971,37.4980232 C14.2985484,37.5295756 14.1886996,37.5528969 14.0788509,37.5707309 L6.32027369,35.4896451 C6.43012245,35.4718112 6.53997121,35.4484899 6.64981997,35.4169375 C6.73254558,35.394988 6.76780567,35.3812695 6.80442193,35.3702948 L6.91427068,35.3346269 C6.91562684,35.3328435 6.91833916,35.3328435 6.91969531,35.3314717 C6.96309236,35.3163814 7.00784555,35.2971756 7.05124259,35.2793416 C7.08785885,35.2642513 7.12583126,35.2491611 7.16244751,35.232699 C7.20720071,35.2134932 7.25195391,35.1888 7.29670711,35.1668505 C7.3319672,35.1490165 7.3672273,35.1311826 7.40384355,35.1119768 L7.53132236,35.0365254 L7.53132236,35.0365254 C7.56793861,35.0145759 7.60591102,34.9926264 7.64117112,34.9693051 C7.6479519,34.9651896 7.65337653,34.9610741 7.66015732,34.9569585 C7.69379003,34.9344603 7.72769397,34.9097671 7.7615979,34.8864458 C7.79957031,34.8603808 7.83754272,34.8343158 7.87551514,34.8068789 C7.91619986,34.7753265 7.95824074,34.7410305 7.99892547,34.7081062 C8.03282941,34.6792975 8.06944566,34.6532325 8.1033496,34.6244238 C8.1481028,34.5860122 8.19149984,34.5448569 8.23625304,34.5037016 C8.26744466,34.4762648 8.29728012,34.4501998 8.32711559,34.4200192 C8.4003481,34.3500552 8.4735806,34.2759757 8.54545695,34.1991525 L8.54450764,34.1995641 L11.8399704,30.523025 Z M14.0860385,28.0548052 L21.8446157,30.1358909 L19.5988188,32.6038364 L11.8402416,30.5227506 L14.0860385,28.0548052 Z M15.0798307,26.3642832 L22.8384079,28.4453689 C22.7841616,28.5935279 22.7244907,28.7375714 22.6607513,28.8788713 L22.6614294,28.8790084 L22.5405618,29.1237109 L22.4101334,29.3597022 C22.3170105,29.5179214 22.2166549,29.6694338 22.10987,29.8126136 L21.9447001,30.0216164 C21.9121523,30.060028 21.8782484,30.0984396 21.8443444,30.1354794 L14.0857673,28.0543937 L14.1364537,27.9978051 L14.1364537,27.9978051 L14.1867673,27.938841 L14.3513431,27.7314771 C14.4582284,27.5881957 14.5588854,27.4363784 14.6529123,27.2772446 C14.7428256,27.1244213 14.8255512,26.9625439 14.901496,26.7979227 L21.0380959,28.443841 L14.9021741,26.7977855 C14.9672697,26.6564857 15.0269406,26.5110704 15.0798307,26.3642832 Z M15.3893059,25.0921732 L23.1478831,27.1732589 L23.1153353,27.3924108 L23.1153353,27.3924108 L23.0750574,27.6097794 C23.0465781,27.7510792 23.011318,27.8896353 22.9733456,28.0281915 C22.9325252,28.1690797 22.8891282,28.3076359 22.8389504,28.4448202 L15.0803732,26.3637344 L15.1510629,26.1567576 L15.1510629,26.1567576 L15.2147673,25.945841 L15.2696928,25.7384141 C15.2866448,25.6686216 15.3022406,25.5986576 15.3164802,25.5286936 C15.3459088,25.3830039 15.3703197,25.2375886 15.3893059,25.0921732 Z M15.3943237,25.051841 L23.1515447,27.1329268 C23.1501885,27.1452733 23.1488324,27.1589918 23.1474762,27.1727102 L15.388899,25.0916245 C15.3902552,25.0779061 15.3916113,25.0641876 15.3943237,25.051841 Z" id="形状结合" fill="url(#linearGradient-2)" fill-rule="nonzero"></path>
                <path d="M8.82618156,42.6815317 L21.6649248,49.6628404 L13.9063476,47.5817546 L1.06760438,40.600446 L6.779,42.131925 L1.06719753,40.5998972 C0.744432045,40.4284169 0.479981328,40.1334706 0.29283159,39.7342643 C0.12873653,39.3885599 0.0365178191,38.9920973 0.00939466866,38.5750571 L0.0089878214,38.5756058 C-0.00186143876,38.4274468 -0.00186143876,38.276544 0.00356319132,38.1242695 C0.00844535839,37.9986087 0.0192946186,37.8710273 0.0355685088,37.7448177 L3.134,38.574925 L0.0354328931,37.7437203 C0.0503506258,37.6298573 0.0693368311,37.5146225 0.0923915089,37.3993877 L0.093,37.3988652 L0.129516321,37.2335662 C0.142908377,37.178178 0.15748707,37.1229613 0.173082881,37.0680876 C0.20441012,36.9573799 0.239670216,36.8476325 0.278998784,36.7406287 L0.886,36.902925 L0.2791344,36.7402172 C0.321175283,36.6249823 0.367284638,36.5124912 0.417462467,36.4027438 C0.477269013,36.2743393 0.542364574,36.1495016 0.612884765,36.0287794 L0.613,36.0278652 L0.72725405,35.8461566 C0.806513922,35.7269587 0.891801162,35.6132482 0.983115768,35.5062444 L0.98243769,35.5063816 C1.01227316,35.4720856 1.04210862,35.4377895 1.07194409,35.4048652 L1.072,35.4040265 L1.90855766,34.4820265 L9.66713484,36.5644841 L8.83038565,37.4863625 L8.829,37.4860265 L8.78475095,37.5361947 C8.76983321,37.5531713 8.75525452,37.5703193 8.74101487,37.5874673 L8.04,37.398925 L8.74033679,37.5873302 C8.60472103,37.7478358 8.4813107,37.9234317 8.37146194,38.1100023 C8.30094175,38.2305873 8.23449003,38.355425 8.17617526,38.4843783 C8.12586181,38.5935769 8.07975246,38.7074399 8.03771157,38.8213029 C7.99824739,38.9287182 7.9629873,39.0384656 7.93179567,39.1495849 C7.90046843,39.2589208 7.87470144,39.37004 7.85164676,39.4811593 L7.229,39.3140265 L7.85096868,39.4818452 L7.81943802,39.6534971 L7.794,39.8250265 L5.273,39.148925 L7.79401007,39.8261778 C7.77791462,39.9517809 7.76707967,40.0790229 7.76164084,40.2049075 L7.76214037,40.2053552 L7.75874997,40.4325667 L7.76797184,40.6561428 C7.79509499,41.073183 7.88866986,41.4696456 8.05005261,41.8153501 C8.21046667,42.1587028 8.42767329,42.4234404 8.69057015,42.6000602 L8.823,42.680925 L8.82618156,42.6815317 Z M2.57429539,34.145925 C2.60819933,34.145925 2.64210326,34.1486687 2.67465104,34.1555279 L10.4332282,36.2366136 C10.4006804,36.2297544 10.3667765,36.2270107 10.3328726,36.2270107 C10.3098179,36.2275595 10.2867632,36.2275595 10.2637085,36.2303031 C10.250147,36.231675 10.2352292,36.2330468 10.2216676,36.2357905 L2.46309047,34.1547048 C2.4780082,34.1519611 2.49156978,34.1505893 2.50513135,34.1492174 L2.53971337,34.1468167 L2.57429539,34.145925 Z M10.0181084,36.2988953 C9.97199905,36.3194729 9.92724585,36.3455379 9.88384881,36.3743466 C9.80844645,36.4253792 9.73521394,36.488484 9.66740607,36.5639353 L1.90882889,34.4814778 C1.97799293,34.4073983 2.04986927,34.3442935 2.1258141,34.2935353 C2.17002483,34.2630804 2.21477803,34.2383872 2.25953123,34.2178096 C2.2825859,34.2068348 2.30564058,34.1972319 2.32869526,34.1890009 L9.927,36.226925 L2.32923772,34.1881778 C2.34686777,34.1826904 2.36449782,34.177203 2.38212787,34.1717156 C2.40925102,34.1648564 2.43637417,34.1579972 2.46349732,34.1552535 L10.2220745,36.2363392 C10.1949513,36.2404548 10.1678282,36.2459421 10.140705,36.2528014 C10.123075,36.2582887 10.1054449,36.2637761 10.0878149,36.2706353 C10.0642178,36.2783176 10.0411631,36.2879205 10.0181084,36.2988953 Z" id="形状结合" fill="url(#linearGradient-3)" fill-rule="nonzero"></path>
                <path d="M32.6637691,28.8500626 L24.905192,26.7689768 C24.8902742,26.7648613 24.8753565,26.7607458 24.8604388,26.7552584 L32.6190159,28.8363441 C32.6339337,28.8418315 32.6488514,28.845947 32.6637691,28.8500626" id="Fill-1" fill="#707070"></path>
                <path d="M32.6187447,28.8366185 L24.8601675,26.7555328 C24.786935,26.7322114 24.7150587,26.7020309 24.6458947,26.6636193 L32.4044718,28.744705 C32.4736359,28.7831166 32.5455122,28.8132972 32.6187447,28.8366185" id="Fill-2" fill="#707070"></path>
                <path d="M25.707766,15.039857 C25.7403138,15.0412288 25.7728616,15.0426007 25.8054093,15.0453444 C25.836601,15.048088 25.8677926,15.0522036 25.897628,15.0590628 L33.6575614,17.1401485 C33.6263698,17.1346611 33.5951781,17.1291738 33.5639865,17.1264301 C33.5314387,17.1236864 33.4988909,17.1223145 33.4663432,17.1223145 C33.3955517,17.1206683 33.3250316,17.1275275 33.2531552,17.1385023 L25.494578,15.0560447 C25.5664544,15.04507 25.6369746,15.0395826 25.7074948,15.0409545 L31.9748144,16.721857 L25.707766,15.039857 Z M26.6662981,23.9400995 L23.6378144,23.127857 L26.6657557,23.9406483 L26.634225,24.0143848 L26.634225,24.0143848 L26.6038144,24.089857 L26.605271,24.0907279 C26.5862848,24.1387424 26.5713671,24.1867569 26.5578055,24.2361432 L26.5381073,24.3083365 L26.5225454,24.3819701 L26.5081363,24.4569071 L26.4965072,24.53301 C26.4897264,24.5878838 26.4856579,24.6427575 26.4829456,24.6976312 L26.4818144,24.6971975 L26.4816234,24.7961981 C26.4821319,24.8287794 26.4834881,24.8610177 26.4855223,24.893256 C26.5005757,25.112888 26.5575343,25.3186645 26.6578899,25.4874012 C26.6976706,25.5559933 26.7452868,25.6166593 26.7979258,25.6706184 L26.880571,25.7466795 L32.4042006,28.7441563 L24.6456234,26.6630706 L19.1228144,23.665857 L19.1217226,23.6655938 C19.0362847,23.5942579 18.9603399,23.5092037 18.9006689,23.4063154 C18.7989571,23.2375788 18.7419985,23.0318023 18.7270808,22.8109356 C18.7228217,22.7476937 18.7215205,22.683217 18.7242328,22.6159967 C18.7270808,22.5616718 18.7311492,22.506798 18.7392862,22.4519243 L18.7382013,22.4517871 C18.744982,22.4010289 18.753119,22.3502708 18.7639683,22.3008844 L18.7634258,22.3004729 C18.774275,22.2510865 18.7851243,22.203072 18.7986859,22.1536857 L19.3458144,22.299857 L18.7992283,22.1536857 C18.8127899,22.1056712 18.8290638,22.0576567 18.8453377,22.0082703 L18.8458144,22.007857 L18.8751393,21.9332991 C18.88548,21.908263 18.8963292,21.8835698 18.9071785,21.8595625 C18.9348441,21.8013964 18.9633234,21.743779 18.9958712,21.6902771 C19.0351998,21.6242915 19.0772406,21.5611867 19.12335,21.5021975 L24.433656,15.6825654 L28.3119431,16.721857 L24.433656,15.6816051 C24.5041762,15.6061537 24.5760525,15.5361898 24.6506412,15.4744568 C24.7143806,15.4195831 24.7808323,15.3688249 24.8459279,15.3249259 L31.5448144,17.121857 L24.8461991,15.3239657 C24.9763902,15.2375395 25.1079375,15.1703192 25.2394848,15.1223047 L25.240656,15.122857 L25.3677773,15.0838931 C25.4101572,15.0729184 25.4525371,15.0640014 25.4952561,15.0571422 L33.2524771,17.1382279 L33.1256764,17.1649789 L32.9994181,17.2047623 C32.8665147,17.251405 32.7336113,17.3199971 32.6047763,17.4064232 C32.5380533,17.4499106 32.4743139,17.5006688 32.4092184,17.5555425 C32.3346297,17.6186473 32.2627534,17.6872395 32.1922332,17.7640627 L32.1909431,17.763857 L26.8815203,23.5830088 L26.8819272,23.5832832 C26.8358178,23.6422724 26.7924208,23.7053772 26.7544484,23.7712257 C26.7219006,23.8262366 26.6934213,23.8824821 26.6662981,23.9400995 Z" id="形状结合" fill="url(#linearGradient-4)" fill-rule="nonzero"></path>
                <path d="M32.662413,13.8528013 L24.9038358,11.7717156 C24.819754,11.7483942 24.7383846,11.7168419 24.6597275,11.6743147 L32.4169485,13.7554004 C32.4969618,13.7979276 32.5783312,13.82948 32.662413,13.8528013" id="Fill-16" fill="#707070"></path>
                <path d="M18.7196219,7.32516109 L26.4795552,9.40624681 L26.4651461,9.48049781 L26.4533814,9.55605206 C26.4466006,9.60955393 26.4425321,9.66442765 26.4398198,9.71930137 C26.4371075,9.78391517 26.4384637,9.84976363 26.4425321,9.91286841 C26.4548732,10.1038289 26.4996264,10.2849122 26.5782835,10.4413023 L26.578826,10.4415767 C26.6541632,10.6089635 26.7628641,10.7318009 26.8903661,10.803393 L26.8938614,10.8048407 L32.4174909,13.7556748 L24.6589138,11.6745891 L19.1388242,8.725 L19.1348773,8.72402932 C19.0073985,8.65269349 18.8961936,8.52922763 18.8188926,8.36049095 C18.7410492,8.20382649 18.696296,8.02274322 18.6840906,7.83205705 C18.6798315,7.76867791 18.6785303,7.70282945 18.6812426,7.63698099 C18.683955,7.58334193 18.6880234,7.52846821 18.6961604,7.4735945 L18.6952111,7.47332013 C18.7019919,7.42393378 18.7101288,7.37454744 18.7196219,7.32516109 Z M25.5123437,0.0172166287 L33.2709209,2.09830235 C33.2180307,2.10653341 33.1664967,2.11750815 33.1136066,2.13259842 C33.082415,2.14082948 33.0498672,2.15180422 33.0186756,2.16277897 C32.9069282,2.20338552 32.7957233,2.25825924 32.6858745,2.3241077 C32.6533267,2.34468534 32.620779,2.36389114 32.5895873,2.38584063 L24.8310102,0.304754906 C24.8622018,0.28280542 24.8947496,0.262227776 24.9272973,0.243021975 C25.0371461,0.175801671 25.148351,0.120927954 25.2609121,0.0811445092 C25.29129,0.0707185029 25.3238378,0.0597437595 25.3550294,0.0515127019 C25.4079196,0.0364224297 25.4608097,0.0240758434 25.5123437,0.0172166287 Z M25.8184284,0.00404693664 C25.8550447,0.00679062249 25.8903048,0.0122779942 25.9255649,0.0177653659 L25.9359463,0.02 L25.9755732,0.0279855957 C25.9920166,0.0317581638 26.0082905,0.0358736926 26.0245644,0.0399892214 L33.7831416,2.12107494 C33.7505938,2.11284389 33.7166898,2.10461283 33.6841421,2.09912546 L33.6749463,2.097 L33.6310824,2.09096299 C33.6132828,2.08856227 33.5953137,2.0865045 33.5770056,2.08513266 L33.5329305,2.08204601 L33.4893978,2.0812915 C33.4161653,2.07991966 33.344289,2.08677887 33.2710565,2.09775361 L25.5124793,0.0166678916 C25.5857118,0.00432130522 25.6589443,-0.00116606649 25.7308207,0.000205776439 C25.7601137,-6.85921463e-05 25.7899491,0.00130325078 25.8184284,0.00404693664 Z M26.8708067,8.57504718 L26.783504,8.68702386 L26.7054911,8.80771174 C26.6742995,8.86121362 26.6458201,8.91608733 26.6200532,8.97233289 L22.0088242,7.735 L26.6193751,8.97301882 C26.5976766,9.02103332 26.5773342,9.07041966 26.5597041,9.11980601 L26.5348526,9.1906274 L26.5129167,9.26302641 C26.5007113,9.30966907 26.4885059,9.35768357 26.4790128,9.40569808 L18.7204356,7.32461235 C18.7298628,7.27693128 18.7419647,7.22925022 18.7554134,7.18156915 L18.7547464,7.18139195 C18.768308,7.13337745 18.7832257,7.08536295 18.8008557,7.03872029 C18.818757,6.9879621 18.8390994,6.9399476 18.8621541,6.89056125 L18.861476,6.89124717 C18.887243,6.83500161 18.9157223,6.7801279 18.9469139,6.72662602 C18.9956,6.64349234 19.0512024,6.56529729 19.1122295,6.49396146 L19.1128242,6.493 L19.1123651,6.49409864 L24.1008242,7.832 L19.1128242,6.493 L19.136776,6.46528994 L23.1998242,7.555 L19.1369116,6.46460402 L24.4476244,0.634271578 C24.5174665,0.56019206 24.590699,0.491599913 24.6639315,0.428495139 C24.7181778,0.383224322 24.7751365,0.343440877 24.8307389,0.305029275 L32.5893161,2.386115 C32.5337136,2.4245266 32.476755,2.46431004 32.4225087,2.5109527 C32.3479201,2.57268564 32.2760437,2.64127778 32.2055235,2.7153573 L32.2062016,2.7153573 L26.8954887,8.54706159 L26.8938242,8.547 L26.8709423,8.57518437 L26.0688242,8.36 L26.8708067,8.57504718 Z" id="形状结合" fill="url(#linearGradient-5)" fill-rule="nonzero"></path>
                <path d="M23.1706665,23.7344603 L15.4120893,21.6533746 C15.4039524,21.6506309 15.3958154,21.6478872 15.3876785,21.6465153 L23.1462557,23.7276011 C23.1543926,23.7303447 23.1625296,23.7330884 23.1706665,23.7344603" id="Fill-56" fill="#707070"></path>
                <path d="M23.1467981,23.7277382 L15.388221,21.6466525 C15.3149884,21.624703 15.2431121,21.5945225 15.1739481,21.5574827 L22.9325252,23.6399403 C23.0016893,23.6769801 23.0735656,23.7057888 23.1467981,23.7277382" id="Fill-61" fill="#707070"></path>
                <path d="M9.72667015,16.8952745 L17.4852473,18.9763603 C17.4621926,19.0257466 17.4418503,19.0765048 17.4228641,19.127263 L16.8556219,18.9748614 L17.4225928,19.1278117 C17.4049628,19.1744544 17.3900451,19.2238407 17.3764835,19.2718552 L17.3767547,19.2718552 C17.3631931,19.3198697 17.3509877,19.3692561 17.3414946,19.4172706 L17.3269498,19.4931335 L17.3153208,19.5695451 C17.30854,19.6244189 17.3044715,19.6792926 17.3017592,19.7341663 C17.2989113,19.8000148 17.3002674,19.8658632 17.3043359,19.9303398 C17.320203,20.1642391 17.38123,20.3837339 17.4937911,20.557958 L17.6725327,20.7576983 L17.6730751,20.7570124 L22.932254,23.6392544 L15.1736768,21.5581687 L9.91314181,18.6759267 L13.7926219,19.7158614 L9.9139555,18.6766126 L9.73562189,18.4768614 L9.73521394,18.4768723 C9.62400903,18.3012764 9.56162578,18.0831533 9.54535189,17.8485682 L9.54562189,17.8480286 L9.54183918,17.7515103 C9.54133749,17.7185861 9.54169027,17.6853189 9.54304642,17.6517087 C9.54589435,17.5982069 9.55131898,17.5433331 9.55809977,17.4884594 L9.55701485,17.4881851 C9.56379563,17.4374269 9.57193258,17.3866687 9.58278184,17.3359105 C9.59241056,17.2867985 9.60461597,17.238784 9.61817755,17.1907695 C9.63146789,17.1413832 9.64774178,17.0933687 9.66401567,17.0453542 C9.68327311,16.9940472 9.70497163,16.9446609 9.72667015,16.8952745 Z M9.91571851,16.5730286 L17.6742957,18.6541144 C17.6376794,18.7021289 17.6051317,18.752887 17.57394,18.8063889 L17.5726219,18.8060286 L17.5276612,18.8902428 C17.5129129,18.9185371 17.4986733,18.9470028 17.4851117,18.9758115 L9.72653454,16.8947258 C9.75365769,16.8357366 9.78349315,16.779491 9.81604093,16.7246173 C9.84655448,16.6718013 9.88045841,16.6210431 9.91571851,16.5730286 Z M16.5402768,10.0418216 C16.6056436,10.0422332 16.669383,10.0477206 16.7344785,10.0600672 L24.4930557,12.1411529 C24.4279601,12.1288063 24.3628646,12.1233189 24.297769,12.1233189 C24.2527446,12.1229074 24.2079914,12.1242792 24.1632382,12.1283947 L24.1232315,12.1333677 L24.0836317,12.1392323 C24.0320978,12.1474634 23.9792076,12.1584381 23.9276736,12.1735284 C23.8978382,12.1817594 23.8666465,12.1913623 23.8368111,12.2023371 L17.6796219,10.5498614 L23.8364042,12.2028858 C23.7943633,12.2179761 23.7509663,12.23581 23.7075693,12.2550158 C23.6139944,12.2961711 23.5204195,12.3483012 23.429557,12.4100341 C23.2875673,12.5051028 23.1505954,12.6230813 23.0190481,12.765753 L17.6745669,18.6537028 L9.91598974,16.5726171 L15.2606065,10.6846672 C15.3920182,10.5419956 15.5303463,10.4240171 15.6713866,10.3293599 C15.7631985,10.2672154 15.8554172,10.2150854 15.9489921,10.1739301 C15.9923891,10.1533525 16.0357862,10.1368904 16.0791832,10.1218001 L16.0782339,10.1212513 C16.1080694,10.1102766 16.139261,10.1006737 16.1690965,10.0924426 C16.2206304,10.0773524 16.2721644,10.0663776 16.3236984,10.0581466 L17.3356219,10.3288614 L16.3246477,10.0582838 C16.3504147,10.0527964 16.3775379,10.0500527 16.404661,10.047309 L16.4719603,10.043022 L16.5391918,10.0408614 L16.5402768,10.0418216 Z" id="形状结合" fill="url(#linearGradient-6)" fill-rule="nonzero"></path>
                <path d="M13.7563566,34.1237011 L5.99777943,32.0426154 C5.98421786,32.0384999 5.96930012,32.0343844 5.95709471,32.0302688 L13.7143157,34.1113546 L13.7563566,34.1237011" id="Fill-101" fill="#707070"></path>
                <path d="M13.714587,34.1116289 L5.95600978,32.0305432 C5.88277727,32.0072219 5.80954477,31.9770413 5.74038073,31.9386297 L13.4976018,34.0197154 C13.5681219,34.058127 13.6413544,34.0883076 13.714587,34.1116289" id="Fill-104" fill="#707070"></path>
                <path d="M8.19556831,31.1499572 L13.4981442,34.0198526 L5.73956704,31.9387669 L0.437908308,29.0693654 L0.436719903,29.0691459 L0.223803173,28.831817 C0.12046397,28.6640407 0.0635053538,28.4555205 0.0472314635,28.2319101 L0.047908308,28.2314825 L0.0441255992,28.1350237 C0.0436239088,28.102271 0.0439766855,28.0693467 0.045332843,28.0364225 L5.53390831,29.5083654 L0.045332843,28.0362853 C0.048045158,27.9800398 0.0521136306,27.9251661 0.0602505757,27.8689205 C0.0667601318,27.819397 0.0748970769,27.7686388 0.0843901796,27.7178806 L1.26990831,28.0353654 L0.0850682584,27.717469 C0.094561361,27.6680827 0.106766779,27.6200682 0.120328354,27.5706818 C0.133754313,27.5226673 0.150028204,27.4746528 0.166302094,27.4266383 L0.166908308,27.4263654 L0.196239271,27.3521816 L0.228278493,27.2779306 L0.228278493,27.2779306 C0.25390987,27.2218222 0.282389178,27.1655766 0.313580801,27.1134466 L6.32390831,28.7253654 L0.314258879,27.1133094 C0.35223129,27.0488328 0.392916016,26.9870999 0.439025371,26.9294825 L0.43875414,26.9297568 L5.99628766,20.8277995 L9.87590831,21.8673654 L5.99710135,20.8273879 C6.12864863,20.6833444 6.26833286,20.5653659 6.4107294,20.4679651 L6.41110135,20.4673654 L6.42524028,20.4592882 L6.43947994,20.4491708 C6.5588218,20.3723476 6.68087598,20.3106147 6.80293015,20.2667157 L6.80410135,20.2663654 L6.93105313,20.2283041 C6.97360258,20.2173294 7.0159825,20.2084124 7.05802338,20.2015532 C7.12976411,20.1908528 7.20028431,20.1853654 7.2708045,20.1853654 C7.30308105,20.1856398 7.33562883,20.1870116 7.36953276,20.1897553 C7.40072439,20.192499 7.43055985,20.1979864 7.46175148,20.2034738 L15.2203287,22.2845595 C15.189137,22.2790721 15.1579454,22.2749566 15.1267538,22.2708411 C15.094206,22.2680974 15.0616582,22.2667255 15.0291104,22.2667255 C14.9588615,22.2664512 14.8883413,22.2719385 14.8164649,22.2829133 L14.6891218,22.3093898 L14.5615073,22.3491733 C14.4394532,22.3930723 14.317399,22.4534333 14.1980571,22.5302566 C14.188564,22.5371158 14.1790709,22.543975 14.1695778,22.5494624 L14.1681014,22.5493654 L14.0280151,22.653819 C13.9346913,22.7286098 13.8433767,22.8133592 13.7556785,22.9084736 L13.756221,22.9088852 L8.19760255,29.0105682 C8.15284935,29.0681856 8.11080847,29.1299185 8.07283605,29.1943951 C8.04232251,29.2480342 8.01248705,29.3029079 7.98672005,29.3591535 C7.96380099,29.4084026 7.94345863,29.457789 7.92582858,29.5085472 L7.92623543,29.5090959 C7.90724922,29.5557386 7.89233149,29.6037531 7.87876991,29.6531394 C7.86534395,29.7011539 7.85313854,29.7491684 7.84364543,29.7985548 L7.84432351,29.7989663 C7.83347425,29.8497245 7.82398115,29.9004827 7.81855652,29.9512409 C7.81069081,30.0062518 7.80662233,30.0624973 7.80391002,30.117371 C7.80121154,30.1830207 7.80254013,30.2485332 7.80656027,30.3126948 L7.8071648,30.3129959 C7.82072637,30.5379781 7.87904114,30.7451264 7.98210912,30.9124912 L8.19556831,31.1499572 Z" id="形状结合" fill="url(#linearGradient-7)" fill-rule="nonzero"></path>
                <path d="M13.7550005,19.1265771 L5.99642327,17.0454913 C5.91369767,17.02217 5.83232821,16.9906176 5.75367108,16.9494623 L13.5108921,19.0319199 C13.5909054,19.0717033 13.6722748,19.1046276 13.7550005,19.1265771" id="Fill-138" fill="#707070"></path>
                <path d="M0.450145863,14.0805272 L8.20872304,16.1616129 L13.5112989,19.0315083 L5.75272177,16.9490508 L0.450145863,14.0805272 Z M0.237093516,13.8427868 L7.99567069,15.9238726 L8.20858742,16.1612014 L0.450010247,14.0801157 L0.237093516,13.8427868 Z M7.29277425,5.14461676 C7.32288095,5.14502831 7.35271641,5.14640015 7.38255188,5.14914384 L7.43544202,5.15445973 L7.48833216,5.16245071 C7.5222361,5.16793809 7.55478388,5.17616914 7.58868782,5.1844002 L15.3459088,7.26548592 C15.3133611,7.25725487 15.2794571,7.24902381 15.2469093,7.24353644 C15.2116492,7.23708877 15.1763891,7.23297325 15.1397729,7.23022956 C15.1112936,7.22748587 15.0814581,7.22611403 15.0516227,7.22611403 L14.9433674,7.22981801 L14.8346375,7.24189022 C14.7817473,7.25149313 14.7288572,7.26246787 14.6773232,7.27755814 C14.6420631,7.2857892 14.606803,7.29813578 14.5728991,7.31048237 L14.5713917,7.31044265 L14.4375696,7.36552376 C14.3474605,7.4069839 14.2579541,7.45758966 14.1702559,7.51612163 L10.2903917,6.47544265 L14.1703915,7.51680755 C14.0320634,7.60872102 13.8978038,7.72395583 13.7689689,7.85976828 L8.21062166,14.0216752 L8.20922234,14.0214426 L8.14596685,14.1117709 L8.08544832,14.204679 C8.05561285,14.2581809 8.02577739,14.3130546 8.0000104,14.370672 C7.97709133,14.4192352 7.95810513,14.4686216 7.93911892,14.5193798 L7.93952577,14.5200657 C7.92189572,14.5667084 7.90562183,14.6147229 7.89206026,14.6641092 L4.43822234,13.7364426 L7.89219587,14.6646579 C7.8786343,14.7126724 7.86642888,14.7606869 7.85693578,14.8100733 L7.85761386,14.8097989 C7.8467646,14.8605571 7.83727149,14.9113153 7.83184686,14.9620735 C7.82398115,15.0170844 7.81991268,15.0733299 7.81720036,15.1282037 C7.81448805,15.1948752 7.8158442,15.2607237 7.81991268,15.3252003 L7.82045514,15.3245144 C7.83401672,15.5481248 7.89233149,15.7566449 7.99539946,15.9240097 L0.236822285,13.8415522 C0.133754313,13.6755592 0.0767956973,13.4670391 0.0618779646,13.2434287 C0.0572120798,13.179638 0.0559108715,13.1137895 0.0586231865,13.0465692 C0.0613355016,12.9922442 0.0667601317,12.9359987 0.0735409193,12.8811249 C0.0800504754,12.8302296 0.0881874205,12.7794714 0.0976805231,12.7287132 L1.65422234,13.1454426 L0.0983586019,12.7289876 C0.109207862,12.6796012 0.120057122,12.6315867 0.133618697,12.5822004 C0.148400814,12.5336371 0.163318547,12.4856226 0.179592437,12.4376081 L0.717222344,12.5814426 L0.180541748,12.4382941 C0.198171795,12.3875359 0.219870316,12.3381495 0.241568836,12.290135 C0.267200213,12.2319689 0.295679521,12.1770952 0.328227302,12.1235933 L0.327549223,12.124142 C0.365521633,12.0596654 0.406206359,11.9993043 0.452315715,11.9403151 L6.009578,5.778271 L6.01122234,5.77744265 L6.14098464,5.64978013 C6.22918511,5.56848574 6.31959561,5.4965402 6.41181432,5.43434998 L6.4123917,5.43344265 L6.54443146,5.35272533 C6.63363649,5.30242442 6.72404699,5.26126913 6.81445749,5.22925947 L10.0923917,6.10744265 L6.81432188,5.22802481 C6.84958197,5.21705006 6.88348591,5.20470348 6.91738985,5.19510058 C6.97163615,5.18138215 7.02317013,5.16903556 7.07606028,5.1608045 C7.14902155,5.15010413 7.2208979,5.14324491 7.29277425,5.14461676 Z" id="形状结合" fill="url(#linearGradient-8)" fill-rule="nonzero"></path>
            </g>
            <path d="M24.6277221,26.7205508 C24.772831,27.7851009 25.2488423,28.6150659 25.9404826,28.9923227 L28.156444,30.2393279 L31.4722491,32.0364421 C31.5427693,32.0734819 31.6146457,32.107778 31.6878782,32.1379585 C31.7136452,32.1489332 31.7407683,32.1557925 31.7665353,32.1653954 C31.8140008,32.1832293 31.8614664,32.2024351 31.910288,32.2175254 C31.9401235,32.2257564 31.9713151,32.2326157 32.0011506,32.2394749 C32.0472599,32.2518215 32.0933693,32.2655399 32.1394786,32.2737709 C32.1720264,32.2806302 32.2059304,32.2847457 32.2398343,32.2902331 C32.2832313,32.2957204 32.3279845,32.3039515 32.3727377,32.3094389 L32.4812303,32.3149262 L32.4812303,32.3149262 C32.5246274,32.3176699 32.5680244,32.3204136 32.6114215,32.3204136 C32.6493939,32.3204136 32.6887224,32.3176699 32.7266949,32.3162981 C32.7687357,32.3135544 32.8094205,32.3135544 32.8514613,32.3094389 C32.8935022,32.3053233 32.9355431,32.2970923 32.977584,32.2916049 C33.0169126,32.2861175 33.0562411,32.282002 33.0955697,32.2737709 C33.1376106,32.2669117 33.1796515,32.2545651 33.2203362,32.2449622 C33.2542401,32.2367312 33.2881441,32.2312438 33.3206918,32.2216409 C33.4495268,32.185973 33.4847869,32.1722546 33.520047,32.1612798 C33.5580194,32.1489332 33.597348,32.1379585 33.6353204,32.1242401 C33.6800736,32.107778 33.7234706,32.089944 33.7668677,32.0707382 C33.8048401,32.0556479 33.8428125,32.0405577 33.8794287,32.0240955 C33.9241819,32.0048897 33.967579,31.9815684 34.010976,31.9582471 C34.0475923,31.9404131 34.0855647,31.9225792 34.1221809,31.9020015 C34.1642218,31.880052 34.2049065,31.853987 34.2469474,31.8292938 C34.2849198,31.8059725 34.3228923,31.784023 34.3608647,31.7593299 C34.4001932,31.7346367 34.4395218,31.705828 34.4788504,31.6783911 C34.5168228,31.6509543 34.5561513,31.6248892 34.5941238,31.5960805 C34.6348085,31.5659 34.6754932,31.5329758 34.7148218,31.5014234 C34.751438,31.4726147 34.7880543,31.443806 34.8233144,31.4136254 C34.8653553,31.3793294 34.9046838,31.3395459 34.9467247,31.3025062 C34.9792725,31.2709538 35.0131764,31.2421451 35.0457242,31.2105927 C35.1189567,31.1406287 35.1908331,31.0665492 35.2613533,30.9910978 L37.1559053,28.89355 C37.2684664,28.7728278 37.3891644,28.683658 37.5112186,28.6274124 C37.5519033,28.6095785 37.592588,28.5931164 37.6332728,28.5821416 C37.6739575,28.5711669 37.7146422,28.5629358 37.7553269,28.5588203 C37.876025,28.5478456 37.9940107,28.569795 38.1025033,28.6287843 L38.9297594,29.0883517 C39.253881,29.2584602 39.5183317,29.5534064 39.7054815,29.9526127 C40.3008346,31.2243111 39.950946,33.164097 38.9161978,34.2848927 L26.0584683,48.4368243 C25.8889486,48.6220231 25.7153605,48.7921316 25.5363477,48.9457781 C25.3573349,49.0994245 25.1756098,49.2366088 24.9898162,49.3573309 C24.6209414,49.5974034 24.2412172,49.7729993 23.8614931,49.8786312 C23.386838,50.0117 22.9121829,50.0363932 22.4578701,49.9472234 C22.1852824,49.8937215 21.9194756,49.7990644 21.664518,49.6632519 L8.82577471,42.6805714 C8.50165306,42.509091 8.23720235,42.2155166 8.05005261,41.8149385 C7.45469946,40.544612 7.79780731,38.6061979 8.82984318,37.4867741 L9.66794853,36.5635238 C9.77644113,36.4441734 9.89578299,36.3550037 10.0178372,36.2987581 C10.0585219,36.2795523 10.0992066,36.264462 10.1412475,36.2534873 C10.1819322,36.2411407 10.222617,36.2342815 10.2646578,36.230166 C10.3853559,36.2178194 10.5060539,36.2397689 10.6145465,36.2987581 L12.5063862,37.3276403 C13.0868216,37.6294457 13.7432019,37.6843195 14.4090752,37.4977488 C14.4918008,37.4757993 14.5270609,37.4620809 14.562321,37.4511062 C14.6002934,37.4387596 14.639622,37.4277848 14.6775944,37.4140664 C14.7223476,37.3976043 14.7657446,37.3783985 14.8104978,37.3605645 C14.8471141,37.3454743 14.8837304,37.3317558 14.9203466,37.3152937 C14.9650998,37.2947161 15.0112092,37.2700229 15.0546062,37.2480734 C15.0912225,37.2302394 15.1264825,37.2124055 15.1617426,37.1931997 L15.2261601,37.1559884 L15.2261601,37.1559884 L15.2905776,37.1177483 C15.3271939,37.0957988 15.3638101,37.0738494 15.4004264,37.050528 C15.4397549,37.024463 15.4804397,36.9956543 15.5197682,36.9682174 C15.5577406,36.9407806 15.5957131,36.9160874 15.6336855,36.8872787 C15.6757263,36.8570982 15.7164111,36.8228021 15.7570958,36.7898779 C15.7923559,36.7610692 15.827616,36.7350041 15.8615199,36.7048236 C15.9062731,36.6677838 15.9496702,36.6252567 15.9944234,36.5841014 C16.025615,36.5566646 16.0554505,36.5305996 16.0852859,36.5017909 C16.1598746,36.4318269 16.2317509,36.3577473 16.3036273,36.2809241 L19.5990901,32.6043851 L21.8448869,30.1350678 C22.5365272,29.3723232 23.0152508,28.2762207 23.1522228,27.1321037 C23.2742769,27.137591 23.3963311,27.1321037 23.5197414,27.1170134 C23.6431518,27.1019231 23.7665621,27.0772299 23.8899724,27.041562 C23.9523557,27.0250999 24.0133828,27.0058941 24.075766,26.9825728 C24.1991764,26.9386738 24.3225867,26.8851719 24.445997,26.8220672 C24.505668,26.7905148 24.5666951,26.7562187 24.6277221,26.7205508 Z M33.5639865,17.1268416 C33.7158761,17.1405601 33.8623412,17.184459 34.0006692,17.2585385 L39.5595589,20.258759 L39.7643387,20.5111781 C40.0626933,21.0228755 39.9596254,21.8706745 39.5242988,22.4084369 L34.213586,28.2401412 C34.1430658,28.3169644 34.0725456,28.3883002 33.9993131,28.451405 C33.8528481,28.5789864 33.6982461,28.6805028 33.5436441,28.7532104 C33.464987,28.7888784 33.3863299,28.8176871 33.3090289,28.8396365 C33.2303718,28.861586 33.1517146,28.8766763 33.0730575,28.8835355 C32.9184555,28.8986258 32.7652097,28.8835355 32.6187447,28.8368929 C32.5455122,28.8135715 32.4736359,28.783391 32.4044718,28.7436075 L26.8808422,25.7461307 C26.7954043,25.6747949 26.7181033,25.5897406 26.6584324,25.4868524 C26.3519408,24.9792705 26.4550088,24.1300998 26.8808422,23.5827344 L32.1929113,17.7647486 C32.2620753,17.6879254 32.3353078,17.6179614 32.4098965,17.5548566 C32.7787713,17.2407046 33.1856186,17.0911737 33.5639865,17.1268416 Z M15.1399085,7.23050393 C15.2917982,7.24285051 15.4396193,7.2840058 15.5779474,7.35534164 L20.8886602,10.3294971 C20.9740982,10.3884863 21.041906,10.4762843 21.1110701,10.5764288 C21.4080686,11.0881262 21.3144937,11.9345533 20.8873041,12.4805468 L15.3202775,18.5262586 C15.0436213,18.8294359 14.7317051,19.029725 14.4184327,19.1161511 C14.1065165,19.203949 13.7932441,19.177884 13.5111633,19.0310968 L8.20858742,16.1612014 L7.99567069,15.9238726 C7.68917909,15.4272654 7.78411012,14.5684918 8.20994358,14.0211264 L13.7688333,7.86017983 C14.050914,7.56111807 14.3641864,7.36357269 14.6774588,7.27714659 C14.8334169,7.23324761 14.989375,7.2167855 15.1399085,7.23050393 Z" id="形状结合" fill="url(#linearGradient-9)" fill-rule="nonzero"></path>
            <path d="M26.8934545,10.805115 C26.7646195,10.7337792 26.6547708,10.6103134 26.578826,10.4415767 C26.3048821,9.89969871 26.4418541,9.05327163 26.8948107,8.54706159 L32.2055235,2.7153573 C32.2760437,2.64127778 32.3479201,2.57268564 32.4225087,2.5109527 C32.5079466,2.43824503 32.597453,2.37788394 32.6856033,2.32438207 C32.8266437,2.23795596 32.9703964,2.17347934 33.1141491,2.13232406 C33.2701072,2.08842508 33.4260653,2.07333481 33.5779549,2.0856814 C33.7298446,2.09802798 33.8763096,2.13918327 34.0146376,2.2105191 L39.5396234,5.28070357 L39.751184,5.5180324 C40.0590317,6.02698613 39.9641007,6.87204137 39.5369111,7.4194067 L34.2261982,13.251111 C33.9495421,13.5542883 33.6349135,13.7545773 33.3216412,13.8423753 C33.0083688,13.9288014 32.6950964,13.9041082 32.4170841,13.7559492 L26.8934545,10.805115 Z" id="Fill-83" fill="#FFEAA4"></path>
            <path d="M30.2753045,15.3988683 C30.5817961,15.907822 30.4787281,16.7569928 30.0515385,17.3029863 L24.7503188,23.1319469 C24.6092784,23.2842214 24.4587449,23.410431 24.3068553,23.5105755 C24.0139252,23.698518 23.7074336,23.7863159 23.4158598,23.7712257 C23.3249972,23.7657383 23.2341347,23.7533917 23.1473406,23.7273267 C23.0727519,23.7053772 23.0022317,23.6765685 22.9317115,23.6395287 L17.6725327,20.7572868 L17.4935199,20.5583695 C17.1788913,20.0631342 17.2561923,19.2221945 17.6738888,18.6542515 L23.0185056,12.7663017 C23.2354908,12.5330884 23.4687499,12.361608 23.7074336,12.2546043 C23.7806662,12.2216801 23.8552548,12.1942432 23.9284873,12.1736656 C24.0057883,12.1517161 24.0844454,12.1366258 24.1631026,12.1283947 C24.3963617,12.1064452 24.6255523,12.1476005 24.8357567,12.2587198 L30.0542508,15.1519365 C30.1383326,15.2109258 30.2156336,15.2973519 30.2753045,15.3988683" id="Fill-106" fill="url(#linearGradient-10)" fill-rule="nonzero"></path>
            <path d="M20.8755055,25.2589893 C20.9609434,25.3303252 21.0287513,25.4057765 21.0979153,25.5182676 C21.3949138,26.029965 21.2999828,26.8750203 20.8741494,27.4223856 L15.3071227,33.5161119 C15.2379587,33.5929351 15.1660823,33.6628991 15.0928498,33.7273757 C14.9463848,33.8549571 14.7944952,33.9551016 14.6385371,34.0278093 C14.5612361,34.0634772 14.4839351,34.0922859 14.405278,34.1142354 C14.3266208,34.1361849 14.2493199,34.1512752 14.1720189,34.1581344 C14.0160608,34.1732247 13.862815,34.1567626 13.7149938,34.1114917 C13.6417613,34.0895422 13.5685288,34.0579899 13.4980086,34.0195783 L8.19543269,31.1496829 L7.98251596,30.912354 C7.67602436,30.4157469 7.76959923,29.5569732 8.19678885,29.0109797 L13.7556785,22.9090224 C13.8967189,22.7567478 14.0445401,22.6291664 14.1977859,22.5303937 C14.5029213,22.3328484 14.8243307,22.2436786 15.1267538,22.2711154 C15.2786434,22.2862057 15.4251084,22.3287328 15.5634365,22.4028123 L20.8755055,25.2589893 Z" id="Fill-158" fill="#FFEAA4"></path>
        </g>
    </g>
</svg>