<?xml version="1.0" encoding="UTF-8"?>
<svg width="50px" height="50px" viewBox="0 0 50 50" version="1.1" xmlns="http://www.w3.org/2000/svg" xmlns:xlink="http://www.w3.org/1999/xlink">
    <title>域名解析</title>
    <defs>
        <linearGradient x1="64.755673%" y1="198.444802%" x2="122.246662%" y2="-191.323171%" id="linearGradient-1">
            <stop stop-color="#003B7C" offset="0%"></stop>
            <stop stop-color="#4EA2FF" offset="100%"></stop>
        </linearGradient>
        <linearGradient x1="50%" y1="-236.994578%" x2="-31.9053378%" y2="127.970776%" id="linearGradient-2">
            <stop stop-color="#C3EEFF" offset="0%"></stop>
            <stop stop-color="#25A8FF" offset="100%"></stop>
        </linearGradient>
        <linearGradient x1="0%" y1="96.6619427%" x2="77.9284672%" y2="8.47452239%" id="linearGradient-3">
            <stop stop-color="#003B7C" offset="0%"></stop>
            <stop stop-color="#4EA2FF" offset="100%"></stop>
        </linearGradient>
        <linearGradient x1="88.6262872%" y1="-15.4127995%" x2="-19.2539131%" y2="113.364361%" id="linearGradient-4">
            <stop stop-color="#C3EEFF" offset="0%"></stop>
            <stop stop-color="#25A8FF" offset="100%"></stop>
        </linearGradient>
        <linearGradient x1="24.2706522%" y1="89.4712241%" x2="124.031688%" y2="-25.9231846%" id="linearGradient-5">
            <stop stop-color="#003B7C" offset="0%"></stop>
            <stop stop-color="#4EA2FF" offset="100%"></stop>
        </linearGradient>
        <linearGradient x1="138.26803%" y1="-63.0842727%" x2="7.98452462%" y2="66.3823877%" id="linearGradient-6">
            <stop stop-color="#C3EEFF" offset="0%"></stop>
            <stop stop-color="#25A8FF" offset="100%"></stop>
        </linearGradient>
        <linearGradient x1="65.3161749%" y1="198.444802%" x2="190.990378%" y2="-132.39665%" id="linearGradient-7">
            <stop stop-color="#003B7C" offset="0%"></stop>
            <stop stop-color="#4EA2FF" offset="100%"></stop>
        </linearGradient>
        <linearGradient x1="-57.2160279%" y1="348.379581%" x2="78.8605819%" y2="7.83634612%" id="linearGradient-8">
            <stop stop-color="#003B7C" offset="0%"></stop>
            <stop stop-color="#4EA2FF" offset="100%"></stop>
        </linearGradient>
        <linearGradient x1="50%" y1="2.81229424%" x2="-43.8807516%" y2="366.607642%" id="linearGradient-9">
            <stop stop-color="#C3EEFF" offset="0%"></stop>
            <stop stop-color="#25A8FF" offset="100%"></stop>
        </linearGradient>
        <linearGradient x1="31.9682171%" y1="117.695087%" x2="103.275736%" y2="27.8945175%" id="linearGradient-10">
            <stop stop-color="#003B7C" offset="0%"></stop>
            <stop stop-color="#4EA2FF" offset="100%"></stop>
        </linearGradient>
        <linearGradient x1="50%" y1="38.2333937%" x2="-130.660887%" y2="128.948476%" id="linearGradient-11">
            <stop stop-color="#C3EEFF" offset="0%"></stop>
            <stop stop-color="#25A8FF" offset="100%"></stop>
        </linearGradient>
    </defs>
    <g id="页面-1" stroke="none" stroke-width="1" fill="none" fill-rule="evenodd">
        <g id="编组-83" transform="translate(6.000000, -0.000000)">
            <path d="M20.6083435,37.6645799 L28.1158149,39.6311821 C28.0817394,39.8901274 28.0581354,40.1516589 28.0476172,40.4131936 L28.0479708,40.4136746 C28.0427217,40.5355339 28.0400972,40.6573933 28.0400972,40.7792526 C28.0387849,40.9750053 28.0453463,41.1655726 28.0584689,41.3548435 L28.0587314,41.3545842 C28.2188278,43.7010245 29.3696847,45.382424 30.9457156,45.795968 L23.4382443,43.8280694 C21.8622133,43.4158218 20.7113564,41.7344223 20.55126,39.387982 L25.2536258,40.6189833 L20.5509975,39.3869449 C20.5391872,39.2002668 20.5326258,39.0071068 20.5326258,38.811354 C20.5326258,38.6894947 20.5352504,38.5689317 20.5404994,38.4483688 L23.6906258,39.2729833 L20.5401057,38.4475909 C20.5519161,38.1844266 20.5742246,37.9225587 20.6083435,37.6645799 Z M21.1239327,35.5881747 L28.6314041,37.5560732 C28.5474191,37.7790499 28.4726199,38.007212 28.4056944,38.2392633 L20.898223,36.2726611 C20.9651486,36.0406098 21.04126,35.8111513 21.1239327,35.5881747 Z M21.4216858,34.8811313 L28.9291571,36.8490298 C28.8215513,37.077192 28.7218192,37.3131324 28.6312728,37.5555547 L21.1238015,35.5876561 C21.2143478,35.3465302 21.31408,35.1105898 21.4216858,34.8811313 Z M21.8450226,34.0872307 L29.352494,36.0538329 C29.2002712,36.3079225 29.0585465,36.5736796 28.9286322,36.8485113 L21.4211608,34.8806127 C21.5510751,34.6070774 21.6927998,34.340024 21.8450226,34.0872307 Z M28.1154212,39.6305339 L20.6079499,37.6639317 C20.6394442,37.4253986 20.6788122,37.1881618 20.7286783,36.9548141 L26.4336258,38.4479833 L20.7284158,36.9536474 C20.7769697,36.7241888 20.8333971,36.4960267 20.8976981,36.27305 L28.4051695,38.2396522 C28.3408685,38.4626289 28.284441,38.6894947 28.2358872,38.9202496 C28.1862836,39.154764 28.1456033,39.3920008 28.1154212,39.6305339 Z M29.3527565,36.053444 L21.8452851,34.0868418 C22.0841174,33.6901507 22.3505073,33.32198 22.6378935,32.9901078 L29.8546258,34.8799833 L22.6378935,32.9898485 C23.0092646,32.5620444 23.4173792,32.1951701 23.8517391,31.9060783 L23.8514767,31.9062079 C24.1729818,31.6923059 24.5076095,31.5224806 24.8540476,31.4006213 C24.9415757,31.3698972 25.0308098,31.3426733 25.1200438,31.3180422 L25.1195189,31.3181718 C25.2520577,31.2818733 25.3832843,31.253353 25.5145109,31.232611 L25.5165189,31.2329833 L25.6969935,31.2098764 C25.8181108,31.1976809 25.9376728,31.1922073 26.0549018,31.1930715 C26.2216908,31.1947568 26.385724,31.2090169 26.5445081,31.2375372 L34.0532918,33.2041394 C33.8918831,33.1756191 33.7291622,33.161359 33.5625044,33.1600626 L33.5575189,33.1589833 L33.3842939,33.1631787 C33.2649263,33.1687484 33.1441979,33.1808479 33.0217198,33.1998614 L29.2675189,32.2159833 L33.0219822,33.2005096 L32.8254705,33.2363219 L32.8254705,33.2363219 L32.6275152,33.2846444 C32.5382811,33.3092755 32.4490471,33.3364994 32.3611253,33.3676124 C32.1016904,33.458618 31.8485051,33.5769933 31.6025169,33.7207087 L31.3592105,33.8726805 C30.9248506,34.1617723 30.516736,34.5286467 30.1453649,34.9564507 C29.8579787,35.2885822 29.5915888,35.6567529 29.3527565,36.053444 Z" id="形状结合" fill="url(#linearGradient-1)" fill-rule="nonzero"></path>
            <path d="M32.6269903,33.284774 C35.1622874,32.5938057 37.2146708,34.8313504 37.2120487,38.2797103 C37.2081094,41.7280701 35.150477,45.0727199 32.6151799,45.7636882 L32.4170278,45.818136 C29.9827752,46.3366863 28.0366853,44.1380328 28.0393072,40.7791229 C28.0432466,37.3307631 30.1008791,33.9731496 32.6269903,33.284774" id="Fill-9" fill="url(#linearGradient-2)" fill-rule="nonzero"></path>
            <path d="M11.3740619,25.6311005 L18.8815333,27.5977027 L18.8815333,27.8219757 L18.885995,27.9031612 L18.8898005,27.9827263 C18.9541016,28.9381553 19.2651085,29.4878187 19.8241336,29.6343092 L12.3166623,27.6664106 C11.7949055,27.5308961 11.4903432,27.0430439 11.3987078,26.2007461 L11.3824604,26.0154759 L16.8280619,27.441092 L11.3823292,26.0148277 C11.3798359,25.9636209 11.3758991,25.9091731 11.3745868,25.8547253 L11.3740619,25.6311005 Z M27.8794759,18.639875 L35.3869473,20.6064772 L20.725004,24.6019076 L20.7220619,24.601875 L20.6277323,24.6301362 L20.5339381,24.6615409 C20.3344737,24.7302489 20.1546933,24.8196988 19.9919724,24.927298 C19.8304325,25.034249 19.6860833,25.1612938 19.5587935,25.3064879 L19.5570619,25.3061758 L19.4394758,25.457775 C19.4015841,25.5102782 19.3654968,25.564726 19.3313779,25.6211184 L19.3300619,25.620875 L19.2693078,25.7305649 C19.2492957,25.7679977 19.2299398,25.8062408 19.2115681,25.8451321 L18.3980619,25.631092 L19.2110432,25.8451321 C19.1782365,25.9151364 19.1480544,25.9864371 19.1204968,26.0616269 C19.0941203,26.135261 19.0691872,26.2104508 19.0455665,26.2895298 C19.0216401,26.3736094 18.99941,26.4614196 18.9810776,26.551808 L18.9815279,26.5521755 C18.9592194,26.657182 18.9408477,26.7647812 18.9264128,26.8762695 L17.7380619,26.564092 L18.9260191,26.8763991 C18.9076474,27.0215932 18.8945247,27.1732692 18.8879634,27.3314271 C18.8835017,27.4184139 18.8821894,27.5065674 18.8821894,27.5973137 L11.374718,25.6307115 C11.374718,25.5399652 11.3760303,25.4518117 11.3799671,25.3636581 L12.0460619,25.537092 L11.380492,25.3635285 C11.3870533,25.2053706 11.400176,25.054991 11.4185477,24.9097969 C11.4333763,24.7968826 11.451748,24.6892834 11.4727443,24.5855733 L11.4730619,24.5851758 L11.5037465,24.4522086 C11.5147368,24.4082939 11.5265472,24.3651894 11.5390137,24.3230572 C11.5604036,24.2438486 11.5853367,24.1686588 11.6128942,24.0947654 C11.640583,24.0198349 11.6720774,23.9485342 11.7048841,23.8785299 C11.7408401,23.8007474 11.7815204,23.7255576 11.8248251,23.6542569 L11.8239065,23.6545162 C11.8921443,23.5417315 11.9682558,23.4354286 12.0522407,23.3394968 C12.1772997,23.1946916 12.3216489,23.0676468 12.4843698,22.9600476 C12.647222,22.8518002 12.8283146,22.7636467 13.0264667,22.6949387 L13.0259418,22.6948091 C13.0889306,22.6727707 13.1519193,22.6533251 13.2175326,22.6351758 L27.8794759,18.639875 Z M35.3873409,20.6064772 L27.8798696,18.639875 C27.9769772,18.6139475 28.0688358,18.5932055 28.1580699,18.5802417 L35.5690619,20.521092 L28.1574137,18.5797231 C28.2637073,18.5628703 28.366064,18.555092 28.4605471,18.555092 L28.5722865,18.5603099 L28.6782519,18.5733709 C28.7123709,18.5798528 28.7451775,18.587631 28.7766719,18.5954093 L36.2841432,20.5620115 C36.2513366,20.5542332 36.2198422,20.546455 36.1857233,20.5412695 C36.1161732,20.5286946 36.0439986,20.5222128 35.9678872,20.5222128 L35.9648696,20.521092 L35.8203886,20.5276899 C35.7698664,20.5317411 35.7180319,20.5378989 35.6648851,20.5463254 C35.5763072,20.5598077 35.4831363,20.5805497 35.3873409,20.6064772 Z" id="形状结合" fill="url(#linearGradient-3)" fill-rule="nonzero"></path>
            <path d="M35.3873409,20.6064772 C36.5591941,20.2875687 37.1693976,20.8735306 37.225825,22.3734375 L37.225825,22.5990069 C37.2245128,24.2609608 36.612997,25.2591702 35.3834041,25.5936352 L20.7201486,29.5890656 C19.5482954,29.9092705 18.9380919,29.3233086 18.8816645,27.8221053 L18.8816645,27.5978323 C18.8829768,25.934582 19.4958048,24.937669 20.7253976,24.6019076 L35.3873409,20.6064772 Z" id="Fill-51" fill="url(#linearGradient-4)" fill-rule="nonzero"></path>
            <path d="M9.35094206,43.9171304 L9.348,43.9170977 L9.2543265,43.945359 L9.16,43.9760977 L9.16105723,43.9768933 C8.96421739,44.0456012 8.78574927,44.1324584 8.62302834,44.2400576 C8.46161967,44.3475272 8.31727046,44.474572 8.1899807,44.6197661 C8.13372825,44.6838935 8.08056691,44.752515 8.03115768,44.8249392 L7.960203,44.9359522 C7.91558597,45.0098456 7.87490573,45.0863318 7.83685003,45.1667071 L7.83711249,45.1667071 C7.80299358,45.2367114 7.77281147,45.3080121 7.7452539,45.3844982 C7.71756509,45.4592991 7.69263205,45.5357853 7.66901127,45.6161606 C7.64434067,45.7005547 7.62334442,45.7900046 7.60366044,45.8807509 L7.57257615,46.0430572 L7.547,46.2120977 L7.54815161,46.2130121 C7.52846762,46.3595025 7.51534497,46.5137713 7.50878364,46.6732255 L7.50763541,46.6862703 L7.50763541,46.6862703 L7.50720892,46.9234261 L7.51032555,47.1271191 L7.52,47.3190977 L5.153,46.6991368 L7.52033158,47.3201171 C7.58332032,48.2673789 7.893015,48.8144495 8.45072787,48.96094 L0.943256498,46.9930414 C0.385543627,46.8478473 0.077161216,46.3007767 0.0128602027,45.3544223 L2.644,46.0421368 L0.0128602027,45.3535149 L0.00301821084,45.160679 L0.00301821084,45.160679 L0.001,44.9571368 L-1.04760645e-12,44.9573424 L-1.04760645e-12,44.7330694 L6.511,46.4381368 L2.0369928e-11,44.7319026 C2.0369928e-11,44.7241244 0.0013122656,44.7163461 0.0013122656,44.7072715 L3.028,45.4980977 L0.0013122656,44.7066233 L0.0160752534,44.4705208 L0.0160752534,44.4705208 L0.0404177798,44.2444653 C0.0561649668,44.1316806 0.0745366849,44.0214887 0.0955329341,43.9138895 L3.574,44.8231368 L0.0961890669,43.9128524 C0.114560785,43.822106 0.1368693,43.7339525 0.161802346,43.6483917 C0.185160673,43.5691831 0.210093719,43.4914006 0.237651296,43.4175071 L4.828,44.6191368 L0.237782523,43.4165997 C0.266652366,43.3427062 0.296834474,43.2688128 0.329641113,43.1988085 C0.367434362,43.1197296 0.408114595,43.041947 0.452731625,42.96935 L3.545,43.7781368 L0.452469171,42.9684425 C0.522019247,42.8556578 0.598130651,42.749355 0.682115648,42.6521268 C0.808486823,42.5066734 0.954148302,42.3796286 1.11555697,42.2720294 C1.27696563,42.1658562 1.45674602,42.0777027 1.65358586,42.0089947 C1.71486866,41.9879935 1.77916967,41.9685478 1.84347068,41.9516949 L5.306,42.8570977 L1.84347068,41.9505282 L16.505414,37.9550977 C16.6010782,37.9291702 16.6916245,37.9097246 16.778234,37.8967608 L21.5152828,39.1361368 L16.7788901,37.8955941 C16.8838714,37.8800376 16.9849158,37.8709629 17.079399,37.8722593 L17.1919257,37.8764725 L17.2978912,37.8905382 C17.3320101,37.8957237 17.3648167,37.903502 17.3963111,37.9112802 L24.9024702,39.8791788 C24.8709758,39.8701042 24.8381692,39.8636223 24.8053625,39.8571404 C24.7358125,39.8459916 24.6636379,39.8395097 24.5875265,39.8382133 L24.5842828,39.8371368 L24.4410448,39.8435609 C24.3910147,39.8476121 24.3395083,39.8537698 24.2863615,39.8621963 L24.2832828,39.8611368 L24.1521824,39.887508 C24.1065811,39.8973929 24.0599957,39.9087362 24.0127541,39.9216999 L9.35094206,43.9171304 Z" id="形状结合" fill="url(#linearGradient-5)" fill-rule="nonzero"></path>
            <path d="M24.0127541,39.9216999 C25.2344734,39.5885313 25.8525505,40.2522758 25.8512403,41.925897 L25.8433646,42.1410954 C25.7921863,43.670819 25.1806705,44.6003205 24.0088173,44.9205253 L9.34687403,48.9159558 C8.11596892,49.2504208 7.50576543,48.5866763 7.50707558,46.9234261 L7.50707558,46.7004494 C7.56744191,45.1668367 8.17895767,44.2373352 9.35081083,43.9171304 L24.0127541,39.9216999 Z" id="Fill-91" fill="url(#linearGradient-6)" fill-rule="nonzero"></path>
            <path d="M0.0350374935,28.7521254 L7.54250887,30.720024 C7.701293,33.0651679 8.84821312,34.7530493 10.4255563,35.1665932 L2.91808497,33.199991 C1.34205401,32.7864471 0.195133894,31.0985657 0.0350374935,28.7521254 Z M0.606397926,24.9595778 L8.1138693,26.92618 C8.0298843,27.1491566 7.95508516,27.3773188 7.88815962,27.6080737 C7.82398983,27.8309207 7.76756241,28.0590828 7.71900859,28.2885414 L7.71927104,28.2882821 L7.65152533,28.6408963 L7.65152533,28.6408963 L7.59880506,28.9975293 C7.56468615,29.2568045 7.54237764,29.5173761 7.53056725,29.779244 C7.52505573,29.9005848 7.5224312,30.0211477 7.5224312,30.1430071 C7.5224312,30.3387598 7.52899253,30.5306234 7.54211519,30.7198943 L0.0346438138,28.7519957 C0.021521158,28.5640212 0.0149598301,28.3721576 0.0162720957,28.1764049 C0.0162720957,28.0548803 0.0188822262,27.934645 0.0241024871,27.8131275 L0.0230958767,27.8126418 C0.0349062669,27.5507739 0.0572147817,27.2889059 0.0913336868,27.0296308 L0.0910712337,27.0295011 C0.122565608,26.7922643 0.161933575,26.5550275 0.211799667,26.3216799 C0.26009104,26.0924806 0.31651846,25.8643185 0.380819473,25.6413418 C0.447613791,25.4094202 0.522412929,25.1825544 0.606397926,24.9595778 Z M1.32538824,23.4618747 L8.83285961,25.4284769 C8.6806368,25.6812702 8.53891212,25.9470273 8.41031009,26.2205626 C8.30270432,26.4498915 8.20297213,26.6845355 8.11373807,26.9256614 L0.6062667,24.9590592 C0.696813025,24.7179333 0.795232943,24.4819929 0.90283872,24.2538307 C1.03144075,23.9791287 1.17316543,23.714668 1.32538824,23.4618747 Z M2.11642193,22.3672149 L9.6238933,24.3338171 C9.33650714,24.664393 9.07142949,25.0312673 8.83259716,25.4279584 L1.32512578,23.4613562 C1.56395812,23.0646651 1.82903577,22.6977908 2.11642193,22.3672149 Z M5.53789197,20.5682341 L13.0466756,22.5348363 C12.8695198,22.5335399 12.6884271,22.5465037 12.5047099,22.575024 L12.5021073,22.5739748 L12.3083294,22.611841 C12.2427161,22.6261012 12.1767748,22.6423059 12.1105053,22.6604551 C12.019959,22.6850863 11.930725,22.7123102 11.8428032,22.7434232 C11.4962338,22.8654122 11.1589816,23.0365338 10.8374765,23.2504358 L4.0241073,21.4649748 L10.837739,23.251084 C10.4033791,23.5388794 9.99526446,23.9057538 9.6238933,24.3335578 L2.11642193,22.3669556 C2.48779309,21.9391516 2.89590768,21.5722772 3.33026759,21.2831854 L3.33000513,21.2838336 C3.6515102,21.0686352 3.98876245,20.89881 4.33520057,20.7769506 C4.42456585,20.745708 4.51379991,20.7184841 4.60303397,20.6925566 C4.73557279,20.6575544 4.86811162,20.6290341 4.99802591,20.6082921 C5.18095573,20.5799015 5.36204838,20.5669377 5.53789197,20.5682341 Z M13.0461507,22.534577 L5.53867933,20.5679748 C5.64978448,20.5688391 5.75972317,20.5760412 5.86771777,20.5888129 L6.02894175,20.6123109 C6.11423901,20.626571 6.19691174,20.6447203 6.27958447,20.6654623 L13.7870558,22.6333609 C13.7043831,22.6113225 13.6203981,22.5931732 13.5364131,22.5789131 C13.3768416,22.5514299 13.2128084,22.5358734 13.0461507,22.534577 Z" id="形状结合" fill="url(#linearGradient-7)" fill-rule="nonzero"></path>
            <path d="M12.0992199,35.1393693 C9.56392276,35.8303377 7.51941299,33.5914965 7.52334411,30.1431367 C7.52597432,26.7051479 9.57573315,23.3501271 12.1110303,22.6604551 C14.6450151,21.9694868 16.6973984,24.2057352 16.6947764,27.643724 C16.6829635,31.0039303 14.7408105,34.2733902 12.297372,35.0745505 L12.0992199,35.1393693 Z" id="Fill-145" fill="#FFEAA4"></path>
            <path d="M26.0870523,0.000323347633 C26.2537101,0.00136044833 26.4177433,0.0169169589 26.5778397,0.0441408523 L34.085311,2.01074306 C33.9252146,1.98351916 33.7611814,1.96796265 33.5945237,1.96666628 C33.4764198,1.96519705 33.3565662,1.97095872 33.2349629,1.98344234 L33.051377,2.00763176 C32.9214627,2.02707739 32.7889239,2.05559766 32.656385,2.09189619 L32.5215498,2.13094951 L32.5215498,2.13094951 L32.3892078,2.17499388 C32.0414574,2.29685321 31.7055174,2.46797483 31.3840123,2.68187685 C30.9486026,2.97096867 30.540488,3.33784304 30.1691169,3.76564708 L30.169773,3.76590636 C29.8810746,4.09777858 29.6159969,4.46465296 29.3771646,4.86134397 L29.377427,4.86173289 C29.2252042,5.11452618 29.0834796,5.37898686 28.9548775,5.65381855 L24.6343309,4.522 L28.9547463,5.65446674 C28.8830091,5.80657484 28.8147713,5.96156378 28.7508105,6.11943355 L28.6576494,6.35813956 C28.5749766,6.58111621 28.5001775,6.80798199 28.433252,7.04003327 L28.4333832,7.04003327 C28.3690822,7.26300993 28.3126548,7.4898757 28.2641009,7.71933423 L28.2643634,7.71985278 L28.1971098,8.07181884 L28.1971098,8.07181884 L28.1440286,8.42767401 C28.1212827,8.60052413 28.1037858,8.77395041 28.0911492,8.94833698 L28.0755284,9.21016649 C28.0702793,9.33202583 28.0676548,9.45258878 28.0676548,9.57444811 C28.0676548,9.77149725 28.0742161,9.9620645 28.0873388,10.150039 C28.2462541,12.4962201 29.3984233,14.178916 30.9744543,14.5911635 L23.4669829,12.6245613 C21.8909519,12.2123137 20.740095,10.5296179 20.5799986,8.18317752 C20.5667447,7.9954623 20.5601834,7.80359867 20.5614957,7.60784591 C20.5614957,7.48665613 20.5640914,7.36674853 20.569283,7.24557284 L20.5683194,7.24408284 C20.5801298,6.98091853 20.6024384,6.72034698 20.6365573,6.46107181 L20.6361636,6.46107181 C20.667658,6.22253865 20.7070259,5.98659824 20.756892,5.75325058 L26.4503309,7.244 L20.7566296,5.75273203 C20.8051834,5.5232735 20.8616108,5.29640772 20.9259118,5.07343107 C20.9927061,4.84137979 21.0675053,4.61451401 21.1514903,4.39153736 L21.1507029,4.39179663 C21.2412492,4.15067072 21.3396692,3.91602669 21.4472749,3.68656815 L21.4473309,3.686 L21.5802852,3.41588967 C21.6716578,3.23737391 21.7684738,3.06365955 21.8699557,2.89513068 L27.1933309,4.289 L21.8696932,2.89474177 C22.1085256,2.49805075 22.3749155,2.13117638 22.6623016,1.79930415 C23.0330167,1.37124084 23.4424435,1.00436646 23.8768034,0.715274644 C24.198046,0.501372624 24.5352983,0.330251008 24.8817364,0.208391676 L24.8812115,0.208262038 C24.9704456,0.177149017 25.0583673,0.149925124 25.1476014,0.125293982 C25.2814525,0.0889954576 25.4139913,0.0604751883 25.5439056,0.0410295502 L31.3023309,1.549 L25.5437744,0.0405109998 C25.7288038,0.0106943547 25.9098965,-0.00226940412 26.0870523,0.000323347633 Z" id="形状结合" fill="url(#linearGradient-8)" fill-rule="nonzero"></path>
            <path d="M32.4462913,14.6138501 C30.0107264,15.131104 28.0646366,12.9337469 28.0685674,9.57483703 C28.0711979,6.12647719 30.1288303,2.78053105 32.6562538,2.09215546 C35.1902387,1.40118712 37.242622,3.6270645 37.24,7.07542434 C37.2360607,10.5237842 35.1784283,13.8813977 32.6444434,14.5710697 L32.4462913,14.6138501 Z" id="Fill-177" fill="url(#linearGradient-9)" fill-rule="nonzero"></path>
            <path d="M9.37915577,12.7136223 L9.28319635,12.7416888 L9.18886984,12.7712933 L9.18992707,12.7720889 C9.05870051,12.8178941 8.93505593,12.8723419 8.81938215,12.9350481 L8.65242309,13.0357717 C8.54394247,13.1075045 8.44362706,13.1873036 8.35108803,13.2759373 L8.2176695,13.4158691 C8.13368451,13.5130973 8.0575731,13.6181038 7.98802303,13.7321848 C7.94379968,13.8056893 7.90311944,13.8821755 7.86506374,13.9625508 L7.41486984,13.8442933 L7.86467006,13.963199 L7.8174285,14.0690157 L7.77399251,14.1793049 C7.74643493,14.2544947 7.72150189,14.3309808 7.69788111,14.4113562 L7.69686984,14.4108905 L7.66271239,14.5417716 C7.6518862,14.5861724 7.64171614,14.6312215 7.63187415,14.6765947 L7.37326352,14.608103 L7.63121802,14.6763354 L7.60169204,14.8393546 L7.57636532,15.0082076 C7.55668133,15.1546981 7.54355868,15.3089668 7.53699735,15.4697174 L7.53586984,15.4692933 L7.53634122,15.4949967 L0.888263522,13.753103 L7.53634122,15.4955153 L7.53634122,15.7197883 C7.53542263,15.8586302 7.54067169,15.9908605 7.54854529,16.116609 C7.61219017,17.0638708 7.92188484,17.6109415 8.47959771,17.7561356 L0.97212634,15.7895333 C0.41441347,15.6443392 0.104718793,15.0972686 0.0417300454,14.1496179 C0.0318880536,14.0242583 0.0292635224,13.892028 0.0292635224,13.7533158 L0.0295259756,13.5031152 L0.0447810629,13.2668507 L0.0447810629,13.2668507 L0.0686314898,13.040309 L0.094298683,12.8730989 L0.124402777,12.7099924 C0.144086761,12.6192461 0.166395275,12.5297962 0.190016056,12.4442354 C0.21271825,12.3643786 0.238963562,12.2878925 0.266521139,12.2127027 L0.310613262,12.1022514 L0.35759237,11.9959486 C0.395648072,11.9155733 0.436328305,11.8390871 0.480945334,11.7651937 C0.526918372,11.6895286 0.576201235,11.6169315 0.629177882,11.5481756 L0.710591811,11.4477113 C0.837881572,11.3025172 0.982230785,11.1754723 1.14495172,11.0678731 C1.30583548,10.9610518 1.48561586,10.8741946 1.68114343,10.8054866 L4.51826352,11.548103 L1.68206202,10.8052274 C1.7437385,10.783189 1.80672725,10.7637433 1.87234053,10.7468905 L7.04726352,12.102103 L1.87168439,10.7457237 L16.5336277,6.75029327 C16.6279796,6.72566212 16.7172137,6.70621649 16.8038232,6.69195635 C16.9094606,6.67588129 17.0091927,6.66810304 17.1036759,6.66810304 L17.2157105,6.673483 L17.3221681,6.68767831 C17.3549747,6.69286381 17.3877814,6.70064207 17.420588,6.70842032 L24.9267471,8.67502253 C24.8952527,8.66724428 24.8624461,8.65946602 24.8296395,8.65428052 C24.7600894,8.64170567 24.6879148,8.63522379 24.6118034,8.63522379 L24.6084965,8.63410304 L24.4656498,8.64070098 L24.3126068,8.65985493 C24.2259973,8.67281869 24.135451,8.69226433 24.0409678,8.71819185 L9.37915577,12.7136223 Z" id="形状结合" fill="url(#linearGradient-10)" fill-rule="nonzero"></path>
            <path d="M9.37469406,17.7117995 C8.14510122,18.0475608 7.53489772,17.38252 7.53620788,15.7192698 L7.53620788,15.4949967 C7.59526194,13.9626805 8.2067777,13.033179 9.37863086,12.7142705 L24.0405742,8.71884004 C25.2622934,8.38567144 25.8816828,9.05849052 25.8803726,10.7204444 L25.8711846,10.9369392 C25.8200063,12.4666627 25.2084905,13.3974606 24.0366374,13.716369 L9.37469406,17.7117995 Z" id="Fill-195" fill="url(#linearGradient-11)" fill-rule="nonzero"></path>
        </g>
    </g>
</svg>