<?xml version="1.0" encoding="UTF-8"?>
<svg width="50px" height="50px" viewBox="0 0 50 50" version="1.1" xmlns="http://www.w3.org/2000/svg" xmlns:xlink="http://www.w3.org/1999/xlink">
    <title>域名解析-灰</title>
    <defs>
        <linearGradient x1="13.2452562%" y1="112.104688%" x2="61.7135738%" y2="-221.53858%" id="linearGradient-1">
            <stop stop-color="#5F5F5F" offset="0%"></stop>
            <stop stop-color="#B8B8B8" offset="100%"></stop>
        </linearGradient>
        <linearGradient x1="65.6913607%" y1="0%" x2="31.2153931%" y2="222.870384%" id="linearGradient-2">
            <stop stop-color="#E7E7E7" offset="0%"></stop>
            <stop stop-color="#AFAFAF" offset="100%"></stop>
        </linearGradient>
        <linearGradient x1="0%" y1="101.169338%" x2="72.4720774%" y2="2.92698895%" id="linearGradient-3">
            <stop stop-color="#5F5F5F" offset="0%"></stop>
            <stop stop-color="#B8B8B8" offset="100%"></stop>
        </linearGradient>
        <linearGradient x1="80.2418686%" y1="37.5556348%" x2="13.796536%" y2="93.0252439%" id="linearGradient-4">
            <stop stop-color="#E7E7E7" offset="0%"></stop>
            <stop stop-color="#AFAFAF" offset="100%"></stop>
        </linearGradient>
        <linearGradient x1="41.1550744%" y1="56.3327353%" x2="108.227478%" y2="-28.2532561%" id="linearGradient-5">
            <stop stop-color="#5F5F5F" offset="0%"></stop>
            <stop stop-color="#B8B8B8" offset="100%"></stop>
        </linearGradient>
        <linearGradient x1="80.2418686%" y1="37.5281501%" x2="13.796536%" y2="93.1202696%" id="linearGradient-6">
            <stop stop-color="#E7E7E7" offset="0%"></stop>
            <stop stop-color="#AFAFAF" offset="100%"></stop>
        </linearGradient>
        <linearGradient x1="36.3153915%" y1="249.266837%" x2="94.4912086%" y2="-26.727076%" id="linearGradient-7">
            <stop stop-color="#5F5F5F" offset="0%"></stop>
            <stop stop-color="#B8B8B8" offset="100%"></stop>
        </linearGradient>
        <linearGradient x1="-63.3603429%" y1="331.07289%" x2="92.9535639%" y2="7.993393%" id="linearGradient-8">
            <stop stop-color="#5F5F5F" offset="0%"></stop>
            <stop stop-color="#B8B8B8" offset="100%"></stop>
        </linearGradient>
        <linearGradient x1="65.7152408%" y1="0%" x2="31.1868055%" y2="222.870384%" id="linearGradient-9">
            <stop stop-color="#E7E7E7" offset="0%"></stop>
            <stop stop-color="#AFAFAF" offset="100%"></stop>
        </linearGradient>
        <linearGradient x1="24.970098%" y1="122.434814%" x2="104.812444%" y2="31.180091%" id="linearGradient-10">
            <stop stop-color="#5F5F5F" offset="0%"></stop>
            <stop stop-color="#B8B8B8" offset="100%"></stop>
        </linearGradient>
        <linearGradient x1="80.2418686%" y1="37.5321272%" x2="13.796536%" y2="93.1065192%" id="linearGradient-11">
            <stop stop-color="#E7E7E7" offset="0%"></stop>
            <stop stop-color="#AFAFAF" offset="100%"></stop>
        </linearGradient>
    </defs>
    <g id="页面-1" stroke="none" stroke-width="1" fill="none" fill-rule="evenodd">
        <g id="编组-82" transform="translate(6.000000, -0.000000)">
            <path d="M20.6165902,37.6796518 L28.1270657,39.6470409 C28.0929332,39.9064198 28.069303,40.1683926 28.0588006,40.4303653 L28.0591945,40.4298465 C28.0539433,40.5517546 28.0513177,40.6736627 28.0513177,40.7955708 C28.0500049,40.9914019 28.0565689,41.1820454 28.0696968,41.371392 L28.0699594,41.3711327 C28.2301198,43.7185119 29.3814373,45.4005843 30.9580989,45.8142937 L23.4476233,43.8456076 C21.8709617,43.4331951 20.7196443,41.7511228 20.5594838,39.4037435 L25.1758422,40.6125744 L20.5592212,39.402706 C20.5474061,39.2159531 20.5408422,39.0227158 20.5408422,38.8268848 C20.5408422,38.7049767 20.5434677,38.5843655 20.5487189,38.4637543 L25.0678422,39.6464654 L20.5483251,38.4629761 C20.5601402,38.1997065 20.5824576,37.9377338 20.6165902,37.6796518 Z M28.1266719,39.6463925 L20.6161963,37.6790033 C20.6477033,37.4403747 20.687087,37.203043 20.7369731,36.9696019 L27.8308422,38.8264654 L20.7367105,36.9684347 C20.7852838,36.7388844 20.8417338,36.5106309 20.9060605,36.2875651 L28.4165361,38.2549542 C28.3522094,38.4780201 28.2957594,38.7049767 28.2471861,38.9358239 C28.1975626,39.1704321 28.1568661,39.4077639 28.1266719,39.6463925 Z M30.1574278,34.9706982 C29.8699267,35.3027033 29.6034302,35.6710213 29.3645023,36.0678711 C29.211956,36.3224515 29.0701746,36.5883149 28.9402083,36.8632566 L24.1268422,35.6014654 L28.9407334,36.8637753 C28.8330846,37.0920288 28.7333125,37.3280636 28.6427299,37.5705829 L28.6428612,37.5711017 C28.5588426,37.7941676 28.4840135,38.022421 28.4170612,38.2545652 L20.9065856,36.287176 C20.973538,36.0550319 21.0496798,35.8254815 21.1323856,35.6024156 L21.2748727,35.2441809 L21.2748727,35.2441809 L21.4298422,34.8944654 L21.4297327,34.8945705 C21.559699,34.6209258 21.7014804,34.3537655 21.8537641,34.100871 L24.8848422,34.8944654 L21.8540267,34.1004819 C22.0929546,33.7036322 22.3594511,33.3353141 22.6469523,33.0033091 C23.018472,32.5750745 23.4267499,32.2080533 23.8612837,31.9188458 C24.1826548,31.7049879 24.5174165,31.5350947 24.8639932,31.4131866 L24.8648422,31.4125744 L24.9963553,31.3696433 C25.0408261,31.3558638 25.085461,31.3428949 25.1300959,31.3305744 L25.1295708,31.3307041 C25.2621626,31.294391 25.3934417,31.2658593 25.5247208,31.245109 L25.5265708,31.2454654 L25.7072765,31.2223653 C25.8284422,31.2101649 25.948052,31.2046891 26.065328,31.2055537 C26.2321837,31.2072397 26.3962825,31.2215055 26.5551302,31.2500372 L30.3105708,32.2334654 L26.5559178,31.2496482 C26.6399364,31.263914 26.7239551,31.2820705 26.8066609,31.3041177 L34.3171364,33.2715069 C34.2344306,33.2494597 34.150412,33.2313032 34.0663934,33.2170373 L34.0645708,33.2164654 L33.9049104,33.193602 C33.7964836,33.1808251 33.6870844,33.1741966 33.5759348,33.173332 C33.3985768,33.171646 33.2187245,33.184615 33.0349338,33.2131466 L29.7145708,32.3424654 L33.0351963,33.2137951 L32.8386059,33.2496218 L32.8386059,33.2496218 L32.6405714,33.2979635 L32.5068309,33.3370325 L32.3744688,33.3805757 C32.027892,33.5024838 31.6931304,33.672377 31.3714967,33.8863646 C30.9372255,34.1754425 30.5289476,34.5424636 30.1574278,34.9704389 L23.9218422,33.3364654 L30.1574278,34.9706982 Z" id="形状结合" fill="url(#linearGradient-1)" fill-rule="nonzero"></path>
            <path d="M32.6400463,33.2980932 C35.1763579,32.6068484 37.2295626,34.8452885 37.2269395,38.2950283 C37.2229986,41.744768 35.1645428,45.0907562 32.6282312,45.782001 L32.4299998,45.8364706 C29.9947731,46.3552284 28.0479045,44.1556951 28.0505274,40.7954411 C28.0544684,37.3457014 30.1129242,33.9867443 32.6400463,33.2980932" id="Fill-9" fill="url(#linearGradient-2)" fill-rule="nonzero"></path>
            <path d="M20.7332973,24.6116227 L20.6359867,24.6399922 L20.542155,24.6714095 C20.3426108,24.7401449 20.1627584,24.8296306 19.9999724,24.9372729 L15.1436133,23.663517 L19.9998411,24.9379213 C19.8383679,25.0442667 19.6939609,25.1713624 19.5666202,25.3166146 L19.5656133,25.3162335 L19.4472547,25.4679622 C19.4093479,25.5204864 19.3732461,25.574956 19.3391136,25.6313709 C19.2967104,25.7024407 19.2560139,25.7776606 19.2192558,25.8554743 C19.1859109,25.9255066 19.1557167,25.9968358 19.1281481,26.0720557 L19.0896177,26.1839777 L19.0527939,26.3001795 L19.0187826,26.4288909 L18.9891236,26.5628006 C18.9668061,26.6678491 18.948427,26.7754914 18.9339863,26.8870243 L16.3546133,26.210517 L18.9335925,26.887154 C18.9152134,27.0324062 18.9020855,27.1841429 18.8955216,27.342364 C18.8910581,27.4293856 18.8897453,27.5175745 18.8897453,27.6083571 L12.2336133,25.864517 L18.8890889,27.6087462 L18.8890889,27.8331089 L18.889614,27.8324605 C18.8922396,27.888227 18.8948652,27.9413996 18.8974908,27.9932754 C18.9616862,28.9497352 19.2728176,29.4996185 19.8320665,29.6461676 L12.3215909,27.6774816 C11.7623421,27.5322294 11.4525235,26.9823461 11.3868839,26.0252378 C11.3843896,25.9740105 11.3804513,25.9195409 11.3791385,25.8650713 L11.3786133,25.641357 C11.3792697,25.5501853 11.3805825,25.4619965 11.3845209,25.3738076 L11.8896133,25.505517 L11.385046,25.3736779 C11.39161,25.2154568 11.4047379,25.065017 11.4231169,24.9197648 C11.4379515,24.8068053 11.4563306,24.699163 11.4773352,24.5954115 L11.4776133,24.594517 L11.5083499,24.4619934 C11.5193445,24.4180611 11.5311596,24.3749394 11.5436311,24.3327903 L11.5427122,24.3326606 C11.5650296,24.25355 11.5899726,24.1783302 11.6175413,24.1044072 L11.6176133,24.103517 L11.661651,23.9944305 C11.6770763,23.9584417 11.693158,23.9231013 11.7095679,23.8880851 C11.7455383,23.8102715 11.7862349,23.7350516 11.8295569,23.6637224 C11.8969031,23.5511519 11.973045,23.4448066 12.0570636,23.3488364 L12.0561446,23.3492254 C12.1821725,23.2039732 12.3265795,23.0768775 12.4893656,22.9692353 C12.6522829,22.8609446 12.833448,22.7727558 13.0316794,22.7040203 L13.0311543,22.7038907 C13.0941682,22.6818434 13.1571822,22.66239 13.2228217,22.6442335 L13.2246133,22.6433339 L27.8906321,18.6473339 C27.9881725,18.621396 28.0800678,18.6006457 28.1693376,18.5876768 L35.6785004,20.5550659 C35.5905434,20.5680349 35.4973353,20.5887852 35.4015015,20.6147231 L20.7332973,24.6116227 Z M28.4719359,18.562517 C28.5479464,18.5630358 28.6214627,18.5695202 28.6897278,18.5811923 L36.2002034,20.5498784 C36.1306255,20.5369094 36.058422,20.5304249 35.9822801,20.5304249 C35.8865777,20.5299062 35.7854928,20.5376875 35.6791568,20.5545472 L28.1686812,18.587158 C28.2750173,18.5702984 28.3774149,18.562517 28.4719359,18.562517 Z" id="形状结合" fill="url(#linearGradient-3)" fill-rule="nonzero"></path>
            <path d="M35.4015015,20.6147231 C36.5738236,20.295687 37.1842713,20.8818834 37.2407213,22.3823905 L37.2407213,22.6080501 C37.2394085,24.2706691 36.6276481,25.2692779 35.3975632,25.6038767 L20.7284399,29.600906 C19.5561179,29.921239 18.9456702,29.3350426 18.8892202,27.8332386 L18.8892202,27.6088758 C18.890533,25.94496 19.5036062,24.9476481 20.7336911,24.6117523 L35.4015015,20.6147231 Z" id="Fill-51" fill="url(#linearGradient-4)" fill-rule="nonzero"></path>
            <path d="M17.0868898,37.8867658 C17.1630317,37.8867658 17.236548,37.8932503 17.3048131,37.9062193 L24.8152887,39.8736084 C24.7457108,39.8619364 24.6735073,39.8554519 24.5973654,39.854155 L24.5938875,39.8527658 L24.4508251,39.8595047 C24.400775,39.8635575 24.349248,39.8697177 24.2960799,39.8781475 L16.7856044,37.9107584 L16.9398573,37.892764 L16.9398573,37.892764 L17.0868898,37.8867658 Z M7.57552434,46.0614494 L7.55,46.2307658 L7.55117207,46.2315047 C7.53148021,46.3780538 7.51835231,46.5323842 7.51178835,46.6919023 L7.51063966,46.7049523 L7.51063966,46.7049523 L7.51047556,46.9427217 C7.51021301,47.0822676 7.51415138,47.2132539 7.52334091,47.3390527 C7.58635487,48.2866936 7.89617347,48.8339831 8.45410951,48.9805322 L0.943633951,47.0118462 C0.385697906,46.866594 0.0771920928,46.3193044 0.0128653488,45.3725714 L4.291,46.4917658 L0.0128653488,45.3716635 C0.00367581396,45.2471616 -0.000262558126,45.1135815 0.00105023257,44.9761107 L-9.01501096e-13,44.9753325 L-9.01501096e-13,44.7509698 L6.178,46.3687658 L2.05186979e-11,44.7498026 C2.05186979e-11,44.7420212 0.00131279072,44.7342398 0.00131279072,44.7251616 C0.00787674419,44.5636982 0.0210046511,44.4093677 0.0406965115,44.2628186 L5.273,45.6337658 L0.0404339534,44.2621702 C0.0561874417,44.1493403 0.0745665115,44.0391043 0.0955711626,43.931462 L6.347,45.5687658 L0.0962275579,43.9304245 C0.114606628,43.8396419 0.136924069,43.7514531 0.161867093,43.665858 C0.185234767,43.5866178 0.21017779,43.5088041 0.237746395,43.4348811 L2.375,43.9937658 L0.237877674,43.4339733 C0.266759069,43.3600503 0.296953255,43.2861273 0.329773022,43.216095 C0.367581394,43.1369844 0.408277906,43.0591707 0.45291279,42.9865446 L4.057,43.9302858 L0.452650231,42.9856368 C0.522228138,42.8728069 0.598369999,42.7664616 0.682388603,42.6691945 C0.808810347,42.5236829 0.954530114,42.3965872 1.11600337,42.288945 C1.27747662,42.1827293 1.45732895,42.0945405 1.65424755,42.0258051 L1.65385372,42.0255457 C1.71555488,42.0047954 1.77988162,41.9853419 1.84420837,41.9684823 L7.02,43.3227658 L1.84420837,41.9673151 L16.5120188,37.9702858 L16.5118875,37.9702858 C16.6077212,37.944348 16.6983038,37.9248945 16.784948,37.9119256 L24.2954235,39.8780179 L24.1618471,39.9034694 L24.1618471,39.9034694 L24.0224944,39.937675 L9.35468393,43.9347043 L9.25802972,43.9629604 L9.25802972,43.9629604 L9.16472312,43.9944911 C8.96780451,44.0632265 8.78926498,44.1501185 8.62647893,44.2577607 C8.46500568,44.3652733 8.3205987,44.492369 8.193258,44.6376212 L7.661,44.4977658 L8.19286417,44.6378805 C8.10884556,44.7338507 8.03139091,44.8401961 7.96312579,44.9543228 L7.89922571,45.0669257 C7.87871335,45.1053462 7.85902149,45.1445773 7.83998603,45.184781 L7.84024859,45.184781 C7.80611603,45.2548133 7.77592184,45.3261425 7.74835324,45.4026593 C7.72065335,45.4774901 7.69571033,45.5540069 7.6720801,45.6344144 C7.64739963,45.7188422 7.62639498,45.808328 7.60670312,45.8991106 L7.57552434,46.0614494 L7.57552434,46.0614494 Z" id="形状结合" fill="url(#linearGradient-5)" fill-rule="nonzero"></path>
            <path d="M24.0223631,39.937675 C25.2445712,39.6043731 25.8628956,40.2683831 25.8615849,41.9426741 L25.8537061,42.1579586 C25.8025073,43.6882943 25.1907468,44.6181677 24.0184247,44.9385007 L9.35061428,48.93553 C8.11921661,49.2701288 7.50876894,48.6061188 7.51007961,46.9422029 L7.51007961,46.7191371 C7.5704701,45.1849107 8.18223056,44.2550373 9.35455265,43.9347043 L24.0223631,39.937675 Z" id="Fill-91" fill="url(#linearGradient-6)" fill-rule="nonzero"></path>
            <path d="M0.0350515141,28.7636308 L7.54552708,30.7323169 C7.70437475,33.0783993 8.85175382,34.7669561 10.4297282,35.1806655 L2.91925267,33.2132763 C1.34259105,32.7995669 0.195211979,31.1110101 0.0350515141,28.7636308 Z M1.3259186,23.4712632 L8.83639417,25.4386524 C8.68411045,25.6915468 8.54232905,25.9574102 8.41367556,26.231055 C8.30602673,26.4604757 8.20625463,26.6952136 8.11698487,26.936436 L8.11711615,26.9369547 C8.03309754,27.1600206 7.95826847,27.3882741 7.89131615,27.6191213 C7.82712068,27.8420575 7.77067068,28.070311 7.72209743,28.2998613 L7.72235998,28.2996019 L7.65458716,28.6523573 L7.65458716,28.6523573 L7.6018458,29.009133 C7.57909076,29.1820523 7.56158688,29.355548 7.5489452,29.52962 L7.53331812,29.7906417 C7.52806696,29.9125498 7.52544138,30.033161 7.52544138,30.1550691 C7.52544138,30.3509002 7.53200533,30.5428406 7.54513324,30.7321872 L0.0346576769,28.7635011 C0.0215297699,28.5754514 0.0149658165,28.383511 0.0162786072,28.1876799 C0.0162786072,28.0661067 0.0188897821,27.9458233 0.024112132,27.8242572 L0.0231051188,27.8237713 C0.034920235,27.5617986 0.0572376768,27.2998259 0.0913702349,27.0404469 L0.0911076767,27.0403172 C0.122614653,26.8029855 0.161998374,26.5656538 0.211884421,26.3322128 C0.260195118,26.1029218 0.316645118,25.8746683 0.380971862,25.6516025 C0.447792908,25.419588 0.522621978,25.1926315 0.606640582,24.9695656 L5.81111374,26.3322053 L0.606509303,24.9690468 C0.697091861,24.7278244 0.795551163,24.4917896 0.9032,24.2635361 C1.03185349,23.9887242 1.17363488,23.7241577 1.3259186,23.4712632 Z M4.33693534,20.7852647 L11.8474109,22.7526539 C11.5008342,22.874562 11.163447,23.0457521 10.8418132,23.2597397 L7.08611374,22.2752053 L10.8420758,23.2603881 C10.4075421,23.5482987 9.99926416,23.9153199 9.6277444,24.3432952 C9.34024324,24.6742627 9.07505952,25.0412839 8.83613161,25.4381336 L1.32565605,23.4707444 C1.56458395,23.0738947 1.82976767,22.7068735 2.11726883,22.3761654 C2.4887886,21.9479308 2.89706651,21.5809096 3.33160023,21.2917021 L3.33211374,21.2912053 L3.57541418,21.1394385 C3.82223934,20.9951185 4.07700278,20.8766958 4.33693534,20.7852647 Z M5.54010801,20.5764647 L13.0518964,22.5438539 C12.8746696,22.542557 12.6935045,22.5555259 12.5097138,22.5840576 C12.3792224,22.6046782 12.2479433,22.6332099 12.1153515,22.6695229 C12.0247689,22.6941639 11.9354992,22.7213987 11.8475422,22.7525242 L4.33706662,20.785135 C4.42633639,20.7540096 4.51560615,20.7267748 4.60487592,20.7008369 C4.73746778,20.6658207 4.87005964,20.637289 5.00002592,20.6165387 C5.18302894,20.5881367 5.36419406,20.5751678 5.54010801,20.5764647 Z M5.54089569,20.5762053 C5.70762011,20.5775022 5.87171894,20.5930649 6.03056662,20.6202997 L9.78611374,21.6042053 L6.03135429,20.6205591 C6.11668569,20.6348249 6.1993915,20.6529815 6.28209731,20.6737318 L13.7925729,22.6424178 C13.7098671,22.6203706 13.6258485,22.6022141 13.5418299,22.5879483 L13.5401137,22.5872053 L13.3809303,22.5644409 C13.2725035,22.551664 13.1625209,22.5444591 13.0513713,22.5435945 L5.54089569,20.5762053 Z" id="形状结合" fill="url(#linearGradient-7)" fill-rule="nonzero"></path>
            <path d="M12.1040615,35.1534307 C9.56774986,35.8446755 7.52242196,33.6049385 7.52635465,30.1551988 C7.52898591,26.7158342 9.57956498,23.3594709 12.1158766,22.6695229 C14.6508754,21.9782781 16.7040801,24.2154213 16.701457,27.6547859 C16.6896394,31.0163368 14.7467092,34.2871051 12.3022929,35.088586 L12.1040615,35.1534307 Z" id="Fill-145" fill="#8B8B8B"></path>
            <path d="M21.8787072,2.8962892 L29.3891827,4.86367836 C29.236899,5.11657281 29.0951176,5.38113932 28.9664641,5.65608098 C28.858684,5.88498288 28.7589119,6.11972081 28.6696421,6.36094322 L24.9145588,5.377 L28.669117,6.36068384 C28.5864112,6.58374971 28.5115821,6.81070627 28.4446298,7.04285041 C28.3804344,7.26591629 28.3239844,7.49287285 28.2754111,7.7224232 L28.2756737,7.72294196 L28.2083931,8.07504885 L28.2083931,8.07504885 L28.1552907,8.43104643 C28.1211582,8.69042536 28.0988407,8.95110118 28.0870256,9.21437079 C28.0815119,9.33576013 28.0788863,9.45637133 28.0788863,9.57827943 C28.0788863,9.77540741 28.0854503,9.96605092 28.0985782,10.1541006 C28.2575571,12.5012206 29.4101874,14.1845898 30.986849,14.5970023 L23.4763734,12.6296131 C21.8997118,12.2172006 20.7483944,10.5338314 20.5882339,8.1864521 C20.5749747,7.99866176 20.5684108,7.80672135 20.5697236,7.61089026 C20.5697236,7.48931708 20.5723347,7.36903368 20.5775571,7.24746758 L20.5765501,7.24698163 C20.5883652,6.98371202 20.6106826,6.7230362 20.6448152,6.46365727 L20.6444213,6.46365727 C20.6759283,6.22502866 20.715312,5.98899383 20.7651981,5.7555528 C20.8135088,5.52548369 20.8699588,5.29852713 20.9342855,5.07546125 C21.0011066,4.84331711 21.0759356,4.61636055 21.1599543,4.39329467 L21.1591666,4.39355405 C21.2497491,4.15233165 21.3482084,3.91759372 21.4558573,3.68804337 C21.584642,3.41375016 21.7264234,3.14918365 21.8787072,2.8962892 Z M25.5541273,0.0410459686 L33.0646028,2.00843513 C32.9346365,2.02788855 32.8020447,2.05642023 32.6694528,2.09273328 L32.5345636,2.13180223 L32.5345636,2.13180223 L32.4021686,2.17586423 C32.0542791,2.29777232 31.7182047,2.46896242 31.396571,2.68295003 C30.960987,2.97215753 30.5527091,3.33917872 30.1811893,3.76715394 L30.1818457,3.76741332 C29.8930318,4.09941835 29.6278481,4.46643953 29.3889202,4.86328929 L21.8784446,2.89590013 C22.1173725,2.49905037 22.383869,2.13202919 22.6713702,1.80002416 L28.3335588,3.283 L22.6707138,1.79976478 C23.0422335,1.37178955 23.4518242,1.00476837 23.886358,0.715560868 C24.2077291,0.501573254 24.5451163,0.330383162 24.8916931,0.208475066 L24.891168,0.208345377 C24.9804377,0.177219905 25.0683947,0.149985118 25.1576645,0.12534412 C25.2915691,0.0890310701 25.424161,0.0604993881 25.5541273,0.0410459686 Z M26.0974913,0.000323477023 C26.2642158,0.00136099273 26.4283146,0.0169237284 26.5884751,0.0441585157 L34.0989506,2.01154768 C33.9387902,1.98431289 33.7746913,1.96875015 33.6079669,1.96745326 C33.4307402,1.96511885 33.249575,1.97938469 33.0644715,2.00791637 L25.553996,0.0405272107 C25.7390995,0.0106986341 25.9202646,-0.00227031225 26.0974913,0.000323477023 Z" id="形状结合" fill="url(#linearGradient-8)" fill-rule="nonzero"></path>
            <path d="M32.459275,14.6196979 C30.0227355,15.1371589 28.0758669,12.9389225 28.0797993,9.57866849 C28.0824309,6.12892877 30.1408867,2.78164371 32.6693215,2.09299266 C35.2043204,1.40174782 37.257525,3.62851591 37.254902,7.07825564 C37.2509611,10.5279954 35.1925053,13.8869525 32.6575064,14.5769004 L32.459275,14.6196979 Z" id="Fill-177" fill="url(#linearGradient-9)" fill-rule="nonzero"></path>
            <path d="M0.0288813953,13.5343268 L7.53935696,15.501716 L7.53935696,15.7260788 C7.53843801,15.8649762 7.54368917,15.9972594 7.55156591,16.1230582 C7.61523626,17.0706991 7.92505486,17.6179886 8.48299091,17.7632408 L0.972515347,15.7958517 C0.454431876,15.6609746 0.150286403,15.179443 0.0590278347,14.352295 L0.0410903488,14.155669 C0.0319008139,14.0298703 0.0292752325,13.897587 0.0292752325,13.7588193 L0.0288813953,13.5343268 Z M9.38290893,12.7187098 L9.28682906,12.7468038 L9.28682906,12.7468038 L9.19227523,12.7762901 L9.19360451,12.7771997 C9.06232544,12.8230233 8.93863139,12.8774929 8.82291132,12.9402242 L8.65588544,13.0409881 C8.4930994,13.1486304 8.34869242,13.2744291 8.22135172,13.4209782 L6.77227523,13.0402901 L8.22095789,13.4212376 C8.16494548,13.4860823 8.11243386,13.5543855 8.06303403,13.6265312 L7.99161335,13.7372908 C7.94697847,13.8112138 7.90628196,13.8877306 7.86821103,13.9681381 L7.4178814,13.8499945 L7.86781719,13.9687865 C7.83499742,14.0375219 7.80480324,14.110148 7.77723463,14.1853679 C7.74953475,14.2601987 7.72459173,14.3367155 7.70096149,14.417123 L7.6998814,14.4169945 L7.6657787,14.5475906 C7.65494818,14.5920092 7.64477405,14.6370763 7.63492812,14.6824676 L7.63327523,14.6822901 L7.60473394,14.8452928 L7.57939707,15.0142133 L7.55478225,15.2397108 L7.55478225,15.2397108 L7.53927523,15.4742901 L6.78527523,15.2762901 L7.54001335,15.4759078 L7.54001335,15.4759078 L7.53935696,15.5011972 L0.0288813953,13.5338081 L0.0295377907,13.5085186 L0.0447989825,13.2721596 L0.0447989825,13.2721596 L0.0686589534,13.0455272 L0.0944224707,12.8777415 L0.0944224707,12.8777415 L0.124452558,12.7150785 C0.144144418,12.6242959 0.16646186,12.5348101 0.190092093,12.4492151 C0.212803372,12.3693264 0.239059186,12.2928096 0.26662779,12.2175897 L0.310737557,12.1070943 L0.357735464,12.0007489 C0.395806394,11.9203414 0.436502906,11.8438247 0.48113779,11.7699017 C0.550321859,11.656164 0.626463719,11.5498187 0.711795115,11.4525516 L0.710876161,11.4522922 C0.838216858,11.30704 0.982623835,11.1799443 1.14540988,11.072302 C1.30635802,10.9654379 1.48621035,10.878546 1.68181616,10.8098106 L3.12127523,11.1862901 L1.68273511,10.8095512 C1.74443627,10.787504 1.80745023,10.7680506 1.87308976,10.7511909 L8.3558814,12.4489945 L1.87243337,10.7500237 L16.5402438,6.75299446 C16.6346334,6.72835347 16.7239032,6.70890005 16.8105474,6.6946342 L20.5661125,7.67777134 L16.8112038,6.69411545 L16.9648003,6.67660737 L16.9648003,6.67660737 L17.1111765,6.6712901 C17.1873183,6.6712901 17.2595218,6.67777457 17.3290997,6.69074352 L24.8395753,8.65813268 C24.7699974,8.64516374 24.6977939,8.63867926 24.621652,8.63867926 L24.47544,8.64415864 L24.3223358,8.66332026 C24.2356916,8.67628921 24.145109,8.69574263 24.0505881,8.72168052 L9.38290893,12.7187098 Z" id="形状结合" fill="url(#linearGradient-10)" fill-rule="nonzero"></path>
            <path d="M9.37844544,17.7188871 C8.14836056,18.0547828 7.53791289,17.3894758 7.53922357,15.72556 L7.53922357,15.5011972 C7.59830126,13.9682678 8.21006172,13.0383943 9.38238381,12.7193582 L24.0501942,8.72232897 C25.2724024,8.38902705 25.8920396,9.06211536 25.8907289,10.7247343 L25.8815373,10.9413157 C25.8303384,12.4716514 25.218578,13.4028217 24.0462559,13.7218578 L9.37844544,17.7188871 Z" id="Fill-195" fill="url(#linearGradient-11)" fill-rule="nonzero"></path>
        </g>
    </g>
</svg>