<?xml version="1.0" encoding="UTF-8"?>
<svg width="50px" height="50px" viewBox="0 0 50 50" version="1.1" xmlns="http://www.w3.org/2000/svg" xmlns:xlink="http://www.w3.org/1999/xlink">
    <title>域名托管机构-灰</title>
    <defs>
        <linearGradient x1="-39.7853466%" y1="109.191233%" x2="100%" y2="0.75991883%" id="linearGradient-1">
            <stop stop-color="#5F5F5F" offset="0%"></stop>
            <stop stop-color="#B8B8B8" offset="100%"></stop>
        </linearGradient>
        <linearGradient x1="28.2728325%" y1="91.6247668%" x2="105.517463%" y2="-38.3399312%" id="linearGradient-2">
            <stop stop-color="#5F5F5F" offset="0%"></stop>
            <stop stop-color="#B8B8B8" offset="100%"></stop>
        </linearGradient>
        <linearGradient x1="87.0624572%" y1="-21.5258707%" x2="23.741742%" y2="80.2115336%" id="linearGradient-3">
            <stop stop-color="#E7E7E7" offset="0%"></stop>
            <stop stop-color="#AFAFAF" offset="100%"></stop>
        </linearGradient>
        <linearGradient x1="13.1020945%" y1="106.463604%" x2="100%" y2="37.0922466%" id="linearGradient-4">
            <stop stop-color="#5F5F5F" offset="0%"></stop>
            <stop stop-color="#B8B8B8" offset="100%"></stop>
        </linearGradient>
        <linearGradient x1="80.2418686%" y1="31.710604%" x2="13.796536%" y2="113.233898%" id="linearGradient-5">
            <stop stop-color="#E7E7E7" offset="0%"></stop>
            <stop stop-color="#AFAFAF" offset="100%"></stop>
        </linearGradient>
    </defs>
    <g id="页面-1" stroke="none" stroke-width="1" fill="none" fill-rule="evenodd">
        <g id="编组-80" transform="translate(2.000000, 0.000034)">
            <path d="M43.1157689,19.497993 L36.0393572,17.6310736 C36.0814124,17.6187751 36.1222308,17.6064765 36.164286,17.5954078 L43.2406977,19.4610974 C43.1986425,19.472166 43.1578242,19.4832347 43.1157689,19.497993" id="Fill-1" fill="#8B8B8B"></path>
            <path d="M27.854419,26.8664213 L34.9308307,28.7321108 C34.5696504,28.8427978 34.2084702,28.9473354 33.846053,29.0469536 L33.739678,29.0789298 L33.3055195,29.1933063 C33.2127506,29.2179034 33.1212187,29.2437304 33.0284498,29.2658678 C32.7464323,29.3384292 32.4644149,29.4060712 32.1823974,29.4712535 C32.1329206,29.4823222 32.0834439,29.4933909 32.0339672,29.5032297 C31.7977157,29.5561135 31.5614642,29.6077674 31.3252128,29.6569615 C31.2250223,29.6778691 31.123595,29.6975467 31.0234046,29.7172244 C30.8403406,29.7541201 30.6560398,29.788556 30.4729758,29.8217621 C30.3604162,29.8426696 30.2466197,29.8623473 30.1340601,29.8820249 C29.9547069,29.9127713 29.7753537,29.9435177 29.5972374,29.9705745 L29.5446683,29.9791835 L29.4924704,29.9879154 C29.4194922,30.000214 29.3477509,30.0100528 29.2747727,30.0211215 C29.0805764,30.050638 28.8851433,30.0776948 28.6909471,30.1035218 L28.4225357,30.1404174 L27.9959534,30.1923788 L27.5709172,30.2389288 C27.3383765,30.2684453 27.1070727,30.2844334 26.8757689,30.2819737 C26.6657401,30.2808668 26.4554639,30.2636489 26.2476616,30.2292129 L19.1712499,28.3622935 C19.3097848,28.3860707 19.4494191,28.4011023 19.58942,28.4092102 L19.7993572,28.4162842 C19.9535597,28.417924 20.1077622,28.4119113 20.2623313,28.3986107 L20.493887,28.3731163 C20.7783783,28.3435997 21.0616327,28.3103937 21.346124,28.273498 C21.436419,28.2636592 21.5254772,28.2501308 21.6145353,28.2378322 C21.8099685,28.2120053 22.0041647,28.1849485 22.1995979,28.155432 L22.4156876,28.1221029 C22.4503213,28.1171835 22.484955,28.1110342 22.5208256,28.1061148 C22.6989419,28.0765983 22.8782951,28.0470818 23.0576484,28.0163354 C23.170208,27.9966577 23.2827675,27.9769801 23.3965641,27.9573024 C23.579628,27.9228665 23.7639289,27.8872007 23.9482298,27.8515349 C24.0484202,27.8306274 24.1486106,27.8121795 24.248801,27.791272 C24.4850525,27.7433077 24.721304,27.6916538 24.9575554,27.63877 C25.0070322,27.6264715 25.0565089,27.6166326 25.1059857,27.605564 C25.3880031,27.5403817 25.6700206,27.4715098 25.952038,27.4001782 C26.0448069,27.376811 26.1363389,27.350984 26.2278709,27.3276168 L26.6632663,27.2132403 L26.7696413,27.1824939 C27.1308215,27.0816459 27.4932387,26.9783381 27.854419,26.8664213 Z M32.0841861,21.6159257 L39.1605978,23.4803854 C38.3603114,24.7336073 37.4944683,25.9019693 36.5754378,26.9731727 L36.5742499,26.9729257 L36.1739146,27.4309246 C35.7691523,27.8831268 35.3544753,28.3173423 34.9314491,28.7314959 L27.8550374,26.8658064 C28.2780636,26.4507304 28.6927406,26.0176678 29.0975029,25.5655809 L29.499026,25.1062533 C30.4180566,24.0350499 31.2838997,22.8679178 32.0841861,21.6159257 Z M42.1142359,19.9775133 C41.7345018,20.2284037 41.3720847,20.5530853 41.0393535,20.9392597 L37.6372499,20.0421966 L41.0392299,20.9397516 L41.0144915,20.9692681 L41.0144915,20.9692681 C40.5852807,21.469819 39.9321876,22.3958996 39.1603504,23.4806314 L32.0839387,21.6149418 C32.854539,20.53021 33.5101059,19.6053593 33.9380798,19.1035786 L33.9628181,19.0740621 C34.2956729,18.6861659 34.659327,18.3627141 35.0378242,18.1118238 C35.3187284,17.9257468 35.6069304,17.7806239 35.9000802,17.678546 L38.8149387,18.4461966 L35.8992143,17.6779311 C35.9462172,17.661943 35.9932201,17.6459548 36.040223,17.6311966 L43.1153978,19.498116 L42.975626,19.5436206 L42.975626,19.5436206 L42.9729387,19.5431966 L42.7570741,19.6284806 C42.539705,19.7218727 42.324945,19.8387857 42.1143596,19.9771444 L35.6402499,18.2701966 L42.1142359,19.9775133 Z" id="形状结合" fill="url(#linearGradient-1)" fill-rule="nonzero"></path>
            <path d="M27.1407169,20.3644256 C27.2581005,20.369591 27.2914973,20.3720507 27.3248941,20.3769701 L34.4013058,22.2426597 C34.367909,22.2377402 34.3345122,22.2365104 34.2170049,22.2291313 C34.1893969,22.2289345 34.1617097,22.2304693 34.0903088,22.2361286 L34.0282511,22.2410609 C34.0233035,22.2422907 34.0183558,22.2422907 34.0134081,22.2435206 C33.9800113,22.2488089 33.9379561,22.2574179 33.8340549,22.2795553 L32.44,21.9114256 L33.8335601,22.2798013 C33.7890311,22.2920998 33.7432651,22.3043984 33.6974991,22.3216163 C33.6801822,22.3272737 33.6628654,22.3334229 33.6455485,22.3408021 C33.1792302,22.4473075 32.2911225,22.6268663 31.1952126,22.832252 C30.8575338,22.8974343 30.5000643,22.9663062 30.1265149,23.0400974 C29.9681893,23.0708438 29.8061529,23.10282 29.6441166,23.1347962 C29.5748491,23.1483246 29.5068186,23.1606232 29.4375512,23.1741516 C29.2408811,23.2122771 29.0417372,23.2528623 28.8401195,23.2934475 C28.7968273,23.3020565 28.7522982,23.3106655 28.7077692,23.3192744 C28.6261325,23.3352626 28.543259,23.3524805 28.3725642,23.3869165 C28.3032967,23.4004449 28.2327924,23.4139733 28.1635249,23.4287315 L27.9371688,23.4742361 C27.5957793,23.543108 27.250679,23.6144396 26.8251789,23.7017592 C26.7373577,23.7214369 26.6482996,23.7386549 26.5592414,23.7571027 L26.4627618,23.7767804 C26.0978708,23.8542612 25.7342167,23.9317421 25.3742733,24.0104528 C25.3396396,24.0178319 25.3062428,24.025211 25.2716091,24.0313603 C25.1738925,24.0534977 25.0774129,24.0756351 24.9289826,24.1076113 C24.6902573,24.160495 24.4527689,24.2146086 24.1373547,24.2859402 C24.0433488,24.3080776 23.9505799,24.330215 23.8108081,24.3621912 C23.7118546,24.3855584 23.6141381,24.4076958 23.4459171,24.4470512 C23.371702,24.465499 23.2974869,24.4839468 23.2245087,24.5011648 C23.1824534,24.5110036 23.1416351,24.5208425 23.1008168,24.5319112 C23.0315494,24.5483092 22.9628317,24.5652539 22.8869673,24.5838384 L22.7668488,24.6130816 C22.671606,24.6376787 22.5776002,24.6610459 22.41309,24.702861 C22.337638,24.7225386 22.2646598,24.7422163 22.1001496,24.7852612 C22.0234606,24.8049389 21.9467717,24.8258464 21.8193691,24.8602824 C21.7315478,24.8848794 21.6449635,24.9082467 21.4804534,24.9549812 C21.4198443,24.9721991 21.3604722,24.9894171 21.2231743,25.0300023 C21.1588545,25.04968 21.0957716,25.0668979 20.9869228,25.1013339 C20.9114708,25.1234713 20.8372556,25.1480683 20.7148007,25.1874237 L20.585703,25.2298765 C20.559911,25.2382577 20.5309121,25.2476866 20.497103,25.2587553 L20.4253617,25.2845822 C20.3821933,25.3002014 20.3413749,25.3149596 20.3005566,25.328488 C20.0806943,25.4115032 19.8545701,25.5249573 19.6242713,25.663143 L19.3920399,25.8088693 C18.6005356,26.3368459 17.7689552,27.1417612 16.9739443,28.0389229 L16.7106476,28.341509 C14.9377683,30.407963 13.3970106,32.8438805 12.9731517,33.5300774 L12.9016837,33.6463878 C12.8925252,33.6613801 12.8847674,33.6741181 12.8784464,33.6845149 L12.8634594,33.7082258 C12.8411949,33.7463513 12.8214042,33.7844768 12.8028504,33.825062 C12.7854099,33.8629415 12.7693299,33.901067 12.7544869,33.9391925 L12.7357166,33.9939826 L12.7172704,34.0496206 L11.34,33.6844256 L12.7182452,34.0508633 C12.7077314,34.0862831 12.697836,34.1256385 12.6904145,34.1625341 C12.6828693,34.2027504 12.6754478,34.2408759 12.6705001,34.2802312 L12.663326,34.3447986 L12.6602337,34.408874 C12.6577598,34.4592981 12.6577598,34.5097221 12.6614706,34.5601462 C12.6648103,34.603806 12.669758,34.6456211 12.6759426,34.6862063 L12.676561,34.6860833 L12.8311758,35.5605099 C12.8570274,35.7021892 12.9040304,35.822715 12.9658763,35.9112645 L10.6571432,35.3015204 C10.6057684,35.3295237 10.5504282,35.3597535 10.490802,35.3923888 C10.4673624,35.4129274 10.4455617,35.4359872 10.4006268,35.4815302 L10.3474432,35.5354209 L10.3273432,35.5574046 L10.3058827,35.5817864 C10.2823812,35.6100731 10.2539321,35.644509 10.2081661,35.6986226 L9.885,35.6124256 L10.207795,35.6991146 C10.163266,35.7556879 10.1187369,35.8147209 10.0766817,35.8786733 C9.90681149,36.1333899 9.49871995,36.7294291 9.05938137,37.3628532 L8.72725259,37.8401819 C8.28522638,38.4733023 7.86369671,39.0678232 7.66963792,39.3198067 L7.668,39.3196206 L7.57216873,39.4510322 C7.54093653,39.4962294 7.51094125,39.5426564 7.48249212,39.5900058 L7.48311058,39.5903747 L7.4155439,39.7090557 L7.35484212,39.8310573 L7.3056746,39.9409756 L7.262,40.0526206 L3.767,39.1294256 L7.26207322,40.053661 C7.23523208,40.1246236 7.21173063,40.1959552 7.19070301,40.2697465 L7.16129527,40.3796032 L7.13677335,40.4913663 C7.12069341,40.5676173 7.10708731,40.6450981 7.09719196,40.7213491 L6.787,40.6388819 L7.09694457,40.7209801 C7.08704922,40.7947714 7.08086463,40.8673329 7.07715387,40.9411241 L7.08105017,41.0472298 L7.08655446,41.1525362 C7.14052909,41.9463514 7.38873062,42.6385258 7.79584507,43.1181784 L7.9223404,43.2560796 L8.89455848,44.3641786 C9.2844947,44.8093181 9.75592743,45.3462111 10.2442675,45.9025628 L10.6126815,46.3223416 C11.7829606,47.6560161 12.9573521,48.9971553 13.2689305,49.3739659 L13.2697872,49.3743606 C13.4813003,49.6769049 13.7558962,49.878601 14.063889,49.9585416 L6.98747727,48.092852 C6.72348349,48.0232774 6.48402613,47.8669604 6.28779962,47.6324203 L6.19325179,47.5079332 C5.91390864,47.1707197 4.93441439,46.0509761 3.88773459,44.8574782 L3.53722123,44.4578862 L3.16861013,44.0377736 C2.68000124,43.480921 2.2082837,42.9433063 1.81827045,42.4975052 L0.847,41.3896206 L0.846299755,41.3898981 C0.363901473,40.9102548 0.0682779107,40.1600434 0.0101427331,39.2856168 L0.00989534938,39.2856168 C0.00494767469,39.2167449 0.00247383735,39.1466432 2.32924791e-12,39.0765415 L3.712,40.0524256 L0.000742151216,39.0754346 C0.00445290723,39.0028732 0.0118744193,38.9290819 0.02053285,38.8565205 C0.0306755831,38.7781787 0.0442816885,38.7006979 0.0603616312,38.6244469 C0.0760704983,38.5512705 0.0933873598,38.4762494 0.114414977,38.4049178 L2.251,38.9654256 L0.114291285,38.4040569 C0.135318903,38.3314955 0.158820358,38.2577042 0.18479565,38.1876025 L0.594,38.2946206 L0.185661493,38.1867416 L0.230190565,38.075286 L0.278059318,37.9657367 C0.317640715,37.8821066 0.35969595,37.8021661 0.405461941,37.7234554 L0.853,37.8398819 L0.4060804,37.7230864 L0.495447774,37.5842666 L0.593226195,37.4528873 C1.02985849,36.8859243 2.61929898,34.5860961 3.00026993,34.0129838 C3.04232517,33.9502612 3.08685424,33.8899983 3.13138331,33.8321952 C3.16131674,33.7957915 3.18448835,33.7683521 3.20357355,33.7464515 L3.229,33.7163713 L3.2509315,33.6921762 L3.271,33.6688819 L3.27066035,33.6696084 L3.36281079,33.5770618 L3.391028,33.5492364 L3.4143903,33.5266993 C4.06377261,33.1700414 4.20478133,33.1011696 4.25178424,33.0839516 L5.71427045,33.4696206 L5.71227045,33.4586206 L4.27318294,33.0787862 C4.37832102,33.0652578 4.40924399,33.0640279 4.44016696,33.0627981 L4.47640867,33.0619372 C4.55161333,33.063167 4.57758862,33.0656268 4.60480083,33.0680865 L5.69427045,33.3556206 L5.60014929,32.8191639 C5.59210932,32.7787017 5.58839856,32.7368866 5.5846878,32.6938417 L6.684,32.9814256 L5.58505888,32.6932268 L5.58196658,32.6185131 L5.5832035,32.5418317 C5.58444042,32.5000166 5.5893881,32.4569717 5.59433577,32.4139268 L9.268,33.3814256 L5.59408839,32.4133118 C5.59903606,32.3751863 5.60645757,32.335831 5.61387909,32.2977055 L8.221,32.9814256 L5.61400278,32.2968446 C5.62266121,32.2587191 5.63131964,32.2218235 5.64245191,32.1849278 L6.76,32.4774256 L5.64183345,32.1839439 C5.65296572,32.1470483 5.6653349,32.1101527 5.67894101,32.073257 L9.131,32.9814256 L5.67807516,32.0722731 C5.69291819,32.0341476 5.70899813,31.9960221 5.72631499,31.9591265 L7.458,32.4124256 L5.72643868,31.9581426 C5.74499246,31.9187873 5.76602008,31.8794319 5.78828462,31.8425363 L5.78741878,31.8416754 C5.89776691,31.6627874 7.51431626,28.9952247 9.45170214,26.689595 L9.63398846,26.4742206 C10.4199266,25.5588398 11.2509504,24.7151841 12.0513159,24.1297388 L12.3162466,23.9436717 C12.6267132,23.7370561 12.9309952,23.5747153 13.2241449,23.4640283 L13.2861455,23.4409686 L13.34895,23.4188927 C13.3724515,23.4115135 13.3971898,23.4029046 13.4206913,23.3942956 C13.5221186,23.3598597 13.5802538,23.340182 13.6396259,23.3205043 C13.7608439,23.281149 13.8338221,23.2590116 13.9092742,23.2344145 C14.0193599,23.2012084 14.0824428,23.1827606 14.1467625,23.1630829 C14.2840605,23.1237276 14.3434326,23.1065096 14.4028047,23.0892916 C14.5685518,23.0425571 14.6551361,23.0179601 14.7429573,22.9945928 C14.8715969,22.958927 14.9470489,22.9392494 15.0237379,22.9183418 C15.1882481,22.8752969 15.2624632,22.8556192 15.3366783,22.8371714 C15.5011885,22.7953564 15.5951943,22.7707593 15.6892001,22.747392 C15.8178397,22.7154158 15.9205039,22.6908187 16.0244051,22.6649918 L16.148097,22.6354752 C16.2223121,22.6170274 16.2952903,22.5998095 16.3695054,22.5825915 C16.5364894,22.5432361 16.6354429,22.5186391 16.7343964,22.4952718 C16.8741682,22.4632956 16.968174,22.4411582 17.0609429,22.4202507 C17.3775941,22.3476893 17.6138456,22.2948055 17.8525709,22.2419218 C18.0010011,22.2099455 18.0974808,22.1878081 18.1951974,22.1669006 L18.2978616,22.1435334 C18.6578049,22.0660525 19.022696,21.9873418 19.387587,21.9123207 C19.4197468,21.9049416 19.4506698,21.8987923 19.4828297,21.8914132 L19.7500041,21.8360697 C20.1742672,21.7475202 20.5193675,21.6774185 20.8607571,21.6085466 C20.9374461,21.5925585 21.0116612,21.5778002 21.0871132,21.563042 C21.1563807,21.5482837 21.226885,21.5347553 21.2961525,21.5199971 C21.3985693,21.4993355 21.4693706,21.4853152 21.5272584,21.4739513 L21.6313574,21.4535849 C21.6758865,21.4449759 21.7204156,21.4351371 21.7649446,21.4265281 C21.9665624,21.3871728 22.1657063,21.3478174 22.3611394,21.3096919 C22.4304069,21.2949337 22.4984374,21.2814053 22.5664679,21.2678769 C22.7309781,21.2359006 22.8917776,21.2051543 23.0501031,21.173178 C23.4236526,21.1006166 23.7811221,21.0305149 24.117564,20.9653326 C25.2159477,20.7599469 26.1028184,20.5816179 26.5691368,20.4746206 C26.5864536,20.4689633 26.6037705,20.4615841 26.6210874,20.4554349 L31.667,21.7844256 L26.6210874,20.4546969 C26.6668533,20.4399387 26.7126193,20.4251804 26.7583853,20.4128819 L26.7576432,20.4126359 C26.8627813,20.3917284 26.9035996,20.3831194 26.9369964,20.3769701 C26.9419441,20.3766012 26.9468917,20.3753713 26.9518394,20.3753713 L26.954,20.3754256 L27.0138981,20.3710373 C27.0853029,20.3659998 27.1130099,20.3644256 27.1407169,20.3644256 Z M11.4648755,40.0156585 L18.5412872,41.8801182 L19.1263497,42.5048844 L12.049938,40.6391948 L11.4648755,40.0156585 Z" id="形状结合" fill="url(#linearGradient-2)" fill-rule="nonzero"></path>
            <path d="M19.3220303,42.6334042 L12.2456185,40.7664848 C12.1689296,40.7468071 12.1033729,40.7037622 12.0501854,40.6398097 L19.1265971,42.5054993 C19.1797846,42.5694517 19.2453413,42.6124966 19.3220303,42.6334042" id="Fill-36" fill="#6E6E6E"></path>
            <path d="M44.974734,20.3518811 C45.1132689,21.6887331 44.6914796,23.1670184 43.8738764,24.2123949 C38.677581,32.1572561 35.3836666,36.3535202 33.7026941,37.176293 C33.4515996,37.2673023 33.2005052,37.3546219 32.9494107,37.4407118 C32.8751955,37.4653089 32.7997435,37.489906 32.7255284,37.514503 C32.5498859,37.5723062 32.3742435,37.6301094 32.198601,37.6854528 C32.107069,37.7137395 32.0143001,37.743256 31.9215312,37.7703128 C31.7619687,37.819507 31.6036431,37.8662415 31.4440806,37.912976 C31.347601,37.9412626 31.2498844,37.9683194 31.1534048,37.9966061 C31.0210545,38.0335017 30.8887042,38.0679377 30.7551169,38.1048333 C30.5819483,38.1515678 30.4087797,38.1958425 30.2356111,38.2388874 C30.1181038,38.268404 30.0005965,38.2979205 29.8818524,38.3262071 C29.7086837,38.3667923 29.5355151,38.4073775 29.3611096,38.445503 C29.2448392,38.47133 29.127332,38.4983868 29.0110616,38.5229839 C28.8218131,38.5635691 28.6338014,38.5992349 28.4445529,38.6361305 C28.3468363,38.6545783 28.2491197,38.674256 28.1514031,38.6927038 C27.864438,38.7455876 27.5774729,38.7947818 27.2905077,38.8378267 C26.0214292,39.080108 24.8315134,39.3100909 24.0225686,39.5326946 C23.9780395,39.5425334 23.9335105,39.5536021 23.8902183,39.5659006 C23.772711,39.5991067 23.6774683,39.6310829 23.5809886,39.6667487 C23.4276107,39.7257817 23.3286572,39.766367 23.2284668,39.8143313 C22.3329377,40.4329482 21.4695685,41.2016074 20.6742298,42.1030908 C20.5975408,42.1990195 20.503535,42.2654316 20.4095292,42.3023273 L19.5919259,42.6220895 C19.3903082,42.677433 19.2344564,42.6356179 19.1268445,42.5052533 L18.541782,41.8804871 C18.6493939,42.0219204 18.7409259,42.1904105 18.8114302,42.3761186 C18.8584332,42.5187817 18.8782238,42.5851939 18.8955407,42.6528359 C18.9165683,42.7376958 18.9326483,42.8250155 18.9462544,42.9160248 C18.9722297,43.0906641 18.9833619,43.2739125 18.9771773,43.4620802 C18.9301744,44.2319693 18.6345509,45.0055479 18.1818386,45.5552929 C17.5745116,46.3608477 16.6629025,47.7727209 16.1174214,48.6250102 L15.9071452,48.9496918 C15.5880202,49.4736099 15.1513879,49.8388767 14.6999126,49.9618622 C14.1408253,50.0946865 13.6188457,49.8757724 13.2700346,49.3752215 C12.7950578,48.8021092 10.3088513,45.9783629 8.89505325,44.3635637 L7.92283517,43.2554647 C7.40209241,42.7376958 7.09904734,41.9038544 7.0767828,40.9408782 C7.10894268,40.3579271 7.31921886,39.7565281 7.66926684,39.3199297 C8.10589913,38.7529667 9.69533963,36.4519086 10.0763106,35.8787963 C10.1196027,35.8148439 10.1628949,35.754581 10.2086609,35.6992376 C10.2841129,35.6069985 10.3150359,35.5701028 10.3471958,35.5356669 C10.4313062,35.4508069 10.4597554,35.4200605 10.4906783,35.3917739 C11.287254,34.9564053 11.3181769,34.9490262 11.3490999,34.9441068 C11.454238,34.9305784 11.4851609,34.9293485 11.5160839,34.9281187 C11.621222,34.9281187 11.650908,34.9305784 11.6805941,34.9342679 C11.7832583,34.9490262 11.8129444,34.9564053 11.8438674,34.9650143 C11.940347,34.993301 11.9700331,35.0068294 12.000956,35.0203578 C12.0937249,35.0621728 12.1209371,35.0806207 12.1506232,35.0978386 C12.2396813,35.1556418 12.2681305,35.1814687 12.2978165,35.2060658 C12.3905854,35.2872362 12.4326406,35.3327409 12.473459,35.381935 C12.5204619,35.4323591 12.5983878,35.5172191 12.6998151,35.6266761 C12.7752671,35.7078465 12.8643253,35.8025453 12.9657526,35.9107726 C12.9039067,35.822223 12.8569038,35.7016973 12.8309285,35.560264 L12.6763136,34.6858373 C12.6218892,34.3697646 12.6923936,34.0008082 12.8643253,33.7081028 C13.0436785,33.4141676 17.2504389,26.4753275 20.3006803,25.329103 C20.3637632,25.3057357 20.4293199,25.2835983 20.4973504,25.2590012 C20.5975408,25.2257952 20.655676,25.2061175 20.7150481,25.1876697 C20.837503,25.1470845 20.9104812,25.1237172 20.9859333,25.10035 C21.096019,25.0671439 21.1591019,25.0486961 21.2221847,25.0302483 C21.3607196,24.9896631 21.4200917,24.9724451 21.4794638,24.9552271 C21.6452109,24.9084927 21.7305583,24.8851254 21.8196165,24.8605283 C21.9470191,24.8260924 22.0224711,24.8051849 22.100397,24.7842773 C22.2649072,24.7412324 22.3378854,24.7227846 22.4133374,24.7031069 C22.5778476,24.6612919 22.6718534,24.6366948 22.7658592,24.6133275 C22.8932619,24.5813513 22.997163,24.5567542 23.1010642,24.5309273 C23.1418825,24.5210884 23.1827008,24.5112496 23.2247561,24.5014108 C23.2977343,24.4829629 23.3719494,24.465745 23.4461645,24.4472972 C23.6131485,24.4079418 23.712102,24.3845746 23.8110555,24.3624372 C23.9495904,24.3292311 24.0435962,24.3083236 24.137602,24.2861862 C24.4530163,24.2148546 24.6905047,24.160741 24.92923,24.1078573 C25.0776602,24.0746512 25.1741399,24.0537437 25.2718565,24.0316063 C25.3064902,24.0242271 25.339887,24.016848 25.3745207,24.0106987 C25.734464,23.931988 26.0981181,23.8545072 26.4630091,23.7770264 C26.495169,23.7696472 26.5273289,23.763498 26.5594888,23.7573487 C26.6485469,23.7389009 26.7363682,23.720453 26.8254263,23.7020052 C27.2509263,23.6134557 27.5960267,23.543354 27.9374162,23.4744821 C28.0128682,23.458494 28.0883203,23.4437357 28.1637723,23.4289775 C28.2330398,23.4142192 28.3023072,23.4006908 28.3728116,23.3871624 C28.5435064,23.3514966 28.6263799,23.3355085 28.7080165,23.3195204 C28.7525456,23.3096816 28.7958378,23.3010726 28.8403668,23.2936935 C29.0419846,23.2518784 29.2411285,23.2125231 29.4377986,23.1743976 C29.507066,23.1608692 29.5750965,23.1473408 29.6431271,23.1350422 C29.8064003,23.1018361 29.9684367,23.0710898 30.1267623,23.0403434 C30.4990748,22.9665521 30.8577812,22.8964504 31.1942231,22.832498 C32.2913699,22.6271122 33.1782406,22.4475535 33.6457959,22.3405561 C33.7088787,22.315959 33.7719616,22.2962813 33.8338075,22.2790634 C33.9550255,22.2544663 33.9921331,22.2458573 34.0280037,22.2409379 C34.1479849,22.231099 34.1826186,22.2286393 34.2172523,22.2286393 C34.3335227,22.2360185 34.3681564,22.2372483 34.4015532,22.2421677 C34.5141128,22.2643051 34.5462727,22.2716842 34.5784326,22.2802932 C34.6860445,22.3171889 34.7169674,22.3282576 34.7466535,22.341786 C34.8505547,22.39221 34.8790038,22.4081981 34.9074529,22.4254161 C35.0064064,22.4905984 35.0323817,22.510276 35.058357,22.5311836 C35.1511259,22.6098943 35.1758643,22.6332615 35.2006026,22.6590885 C35.2847131,22.7488678 35.3069777,22.7783844 35.3304791,22.806671 C35.4059311,22.908749 35.4269588,22.941955 35.4467495,22.9751611 C35.51478,23.0883077 35.5333338,23.1252034 35.5506506,23.162099 C35.6087858,23.2850845 35.6248658,23.3256697 35.6397088,23.3662549 C35.6891855,23.5015389 35.7015547,23.5482734 35.7151608,23.593778 C35.7535053,23.737671 35.7646376,23.7942443 35.7757698,23.8508176 C35.802982,24.0094689 35.8153512,24.0943289 35.8227727,24.1828784 C35.8128774,25.4533183 35.0657785,26.6807132 34.1467479,26.953741 C33.2363758,27.3632826 31.453976,28.0446221 29.8039265,28.6681584 C28.3802331,29.2289721 26.6139132,29.9053922 26.3566341,30.050515 L26.2477853,30.228844 C26.6831807,30.3014054 27.1272345,30.296486 27.5700514,30.2386828 C27.8545427,30.2103961 28.137797,30.1759602 28.4222883,30.1402944 C28.5113465,30.1279959 28.6016415,30.1156973 28.6906997,30.1033988 C28.8861328,30.0775718 29.0803291,30.050515 29.2757622,30.0209985 C29.3833741,30.0050104 29.4897491,29.9877925 29.5973611,29.9705745 C29.7754774,29.9435177 29.9548306,29.9127713 30.1329468,29.8820249 C30.2467434,29.8623473 30.3605399,29.8426696 30.4730995,29.8217621 C30.6561634,29.788556 30.8404643,29.7541201 31.0235283,29.7172244 C31.1237187,29.6975467 31.225146,29.6778691 31.3253364,29.6569615 C31.5615879,29.6077674 31.7978394,29.5561135 32.0340908,29.5032297 C32.0835676,29.4933909 32.1330443,29.4823222 32.1825211,29.4712535 C32.4645385,29.4060712 32.746556,29.3384292 33.0285735,29.2658678 C33.1213424,29.2425005 33.2128743,29.2179034 33.3044063,29.1933063 C33.4503627,29.1551808 33.5950822,29.1182852 33.7398017,29.0789298 C33.7744354,29.069091 33.8103061,29.0580223 33.8461767,29.0469536 C34.207357,28.9473354 34.5697741,28.8427978 34.9309544,28.730881 C36.472155,27.2218493 37.8983223,25.455778 39.1599793,23.4806314 C39.9318166,22.3958996 40.5861465,21.469819 41.0141204,20.9692681 C41.6375274,20.233815 42.3697833,19.7234254 43.1156452,19.4983619 C43.1577005,19.4836037 43.1985188,19.4713051 43.240574,19.4602365 C44.8386729,20.1145191 44.8584636,20.1464954 44.8782543,20.1784716 C44.9252572,20.2571823 44.9499956,20.3039168 44.974734,20.3518811" id="Fill-112" fill="url(#linearGradient-3)" fill-rule="nonzero"></path>
            <path d="M35.330108,0.00701017163 L42.4065198,1.87269971 C42.3916767,1.87515942 42.3768337,1.87761913 42.3619907,1.88130869 L35.285579,0.0156191543 C35.300422,0.0119295903 35.315265,0.00946988098 35.330108,0.00701017163 Z M35.4126105,0.000983883738 C35.4378436,6.73905376e-14 35.462582,0.00245970935 35.4860835,0.00737912804 L42.5624952,1.87306867 C42.5389937,1.8693791 42.5142554,1.86691939 42.4882801,1.86691939 C42.46181,1.86544357 42.4333609,1.86790328 42.4061487,1.8728227 L35.329737,0.00590330243 L35.3716376,0.00206000658 L35.3716376,0.00206000658 L35.4118684,6.73905376e-14 L35.4126105,0.000983883738 Z" id="形状结合" fill="#8B8B8B"></path>
            <path d="M13.7823663,17.7636519 L6.70595458,15.8967325 L6.79779579,15.9094923 L6.79779579,15.9094923 L6.89136869,15.9135815 C6.9581623,15.9148114 7.02742974,15.909892 7.09669719,15.8988233 L10.6349546,16.8316757 L7.09731565,15.8979624 C7.14184472,15.8918131 7.18761071,15.8819743 7.2333767,15.8696757 L14.3097884,17.7365951 C14.2640224,17.7476638 14.2182564,17.7575027 14.1737274,17.7648818 L14.1709546,17.7636757 L14.0696716,17.7766576 C14.0351925,17.7792711 14.0011772,17.7805009 13.9677804,17.7805009 C13.9048213,17.77964 13.8429753,17.7734908 13.7823663,17.7636519 Z M23.5944711,15.1963303 C23.5610743,15.207399 23.5264405,15.2184677 23.4918068,15.2283065 L14.3096647,17.7361032 L7.23325301,15.8691838 L10.1970338,13.4371462 L21.7989546,15.0001371 L10.1962917,13.4370232 C10.2309254,13.4284142 10.2655591,13.4173455 10.2989559,13.405047 C10.3885088,13.3733987 10.4759178,13.3340434 10.5609445,13.286489 L10.6859878,13.2088852 C10.8529718,13.0981982 11.0100605,12.9555351 11.1523061,12.7919644 L24.4465843,14.580788 C24.3055756,14.7468184 24.1484869,14.8882517 23.9815029,15.0001685 L20.8639546,14.5801371 L23.9808844,15.0002915 C23.8571926,15.0826917 23.728553,15.1491039 23.5949658,15.1958384 L10.6479546,13.4511371 L23.5944711,15.1963303 Z M25.1773559,13.0556453 L25.1472214,13.1880545 L25.1472214,13.1880545 L25.1124176,13.3184652 C25.0864424,13.4082446 25.0579932,13.4967941 25.0258333,13.5816541 L24.9715017,13.7196438 L24.9124079,13.8544359 C24.8629312,13.9602034 24.8085067,14.0622813 24.7503716,14.1594398 L24.7482917,14.1591371 L24.6554632,14.3077922 C24.5901356,14.4043586 24.5205933,14.4956411 24.4472028,14.580911 L11.1516877,12.7908576 C11.2617734,12.6629527 11.3644377,12.5215194 11.4547327,12.3690174 C11.5129916,12.270998 11.567416,12.16892 11.6168928,12.0631525 L23.3332917,13.6411371 L11.6167691,12.0630296 C11.6588243,11.9757099 17.9150353,11.8090646 17.949669,11.7168255 L22.5139546,12.9191371 L17.9494216,11.7159646 C17.9815815,11.6298747 18.0100306,11.5425551 18.0360059,11.4540055 L21.6589546,12.4081371 L18.0357585,11.4530216 C18.0604969,11.3669318 18.0827615,11.2796121 18.1013152,11.1910626 L21.2849546,12.0291371 L18.1009442,11.1899557 C18.1194979,11.1001763 18.1355779,11.0079372 18.1467101,10.9156981 L24.0779546,12.4791371 L18.1469575,10.9149602 C18.1605636,10.815342 18.1692221,10.7144939 18.1729328,10.612416 L18.2709546,10.6381371 L18.1734276,10.612293 C18.1746645,10.5655585 18.1759014,10.518824 18.1759014,10.4720896 C18.1759014,10.3970684 18.1734276,10.324507 18.1684799,10.2519456 C18.1086131,9.3529218 17.6695069,8.70601824 17.0646537,8.54613713 L24.1410654,10.4118267 C24.7459186,10.5704779 25.1850248,11.2198412 25.2456338,12.118865 C25.2498393,12.1901965 25.2523132,12.262758 25.2523132,12.3377791 C25.2523132,12.3845136 25.2510762,12.4324779 25.2498393,12.4792124 C25.2456338,12.5801834 25.2369754,12.6822614 25.2233693,12.7818796 C25.2119896,12.8748566 25.1959097,12.9658659 25.1773559,13.0556453 Z" id="形状结合" fill="#949494"></path>
            <path d="M9.21343611,21.6490088 L4.6700653,20.4498651 L9.21294135,21.6490088 C9.23767972,22.0007473 9.40961141,22.2528675 9.64586288,22.31559 L2.56945116,20.4499005 C2.33319969,20.3884078 2.161268,20.1362876 2.13776654,19.7833193 L2.13702439,19.7833193 C2.13455055,19.7488833 2.13331363,19.7132176 2.13455055,19.6763219 L2.14271422,10.0749695 L5.3370653,10.9168651 L2.14308529,10.0742316 C2.14308529,10.0496345 2.14308529,10.0250374 2.14432221,10.0004403 C2.14555913,9.96034702 2.14926988,9.92222153 2.15421756,9.88409603 L5.07105578,10.6508651 L2.15397018,9.88323513 C2.15891785,9.84756935 2.16510244,9.81190356 2.17252396,9.77623778 L2.17202919,9.77636076 C2.1794507,9.74192483 2.18810913,9.7074889 2.19800448,9.67305297 C2.20728137,9.63861704 2.21841364,9.60541096 2.23201974,9.57097503 C2.2448837,9.53407939 2.25972672,9.49841361 2.27580666,9.46397768 L7.4390653,10.8228651 L2.27654882,9.46287081 C2.2951026,9.42105575 2.31736713,9.3817004 2.34086859,9.3435749 L2.34000274,9.34283699 C2.3771103,9.28257411 2.4166917,9.22723065 2.45998386,9.17680661 L8.06008529,10.6516601 L2.45948909,9.17582273 C2.51886118,9.10695086 2.58441787,9.04791784 2.65368532,9.00241322 C2.70353314,8.96846923 2.75548373,8.94264228 2.80867123,8.92419446 L9.88508295,10.789884 C9.83189545,10.8083318 9.77994486,10.8353886 9.73046812,10.8673648 C9.6608296,10.9136074 9.59527291,10.9726404 9.53590081,11.0415123 L9.53639558,11.0412663 C9.49310342,11.0916903 9.45228511,11.1482637 9.41641447,11.2085265 L8.7820653,11.0408651 L9.41604339,11.2080346 C9.39377886,11.2473899 9.37275124,11.2879751 9.35296054,11.3285603 L9.35345531,11.3284374 C9.33613845,11.3641031 9.32129542,11.3997689 9.30768932,11.4366646 C9.29482536,11.4698706 9.28369309,11.5055364 9.27379774,11.5399724 L9.2744162,11.5399724 L9.26050087,11.5905501 L9.24893568,11.6419273 C9.24151417,11.6763632 9.23532957,11.7132589 9.2303819,11.7489247 C9.22568161,11.7879111 9.22197085,11.8272664 9.22073393,11.8653919 C9.21949701,11.8907269 9.21949701,11.915324 9.21949701,11.941151 L9.21046751,21.5421344 C9.20972536,21.5789071 9.21096228,21.6145729 9.21343611,21.6490088 Z M35.2848368,0.0158651253 L42.3624855,1.88155466 L9.89708106,10.7857025 L2.82066934,8.9187831 L35.2848368,0.0158651253 Z" id="形状结合" fill="url(#linearGradient-4)" fill-rule="nonzero"></path>
            <path d="M14.3060777,12.9427446 C13.3499395,13.2256112 12.5855238,14.5022003 12.5916353,15.8095358 C12.58305,17.1217908 13.3449919,17.9900682 14.3097884,17.7354883 L23.4914357,15.2278146 C24.4648907,14.962166 25.251571,13.6695887 25.2528094,12.3376561 C25.2540448,11.0167922 24.4686015,10.1546641 23.4963834,10.4215425 L14.3060777,12.9427446 L14.3060777,12.9427446 Z M9.88656725,22.3154671 C9.5055963,22.408936 9.20255123,22.0670364 9.20983929,21.5418885 L9.21986809,11.9416429 C9.21244658,11.4214144 9.51549165,10.9122545 9.89769952,10.7855795 L42.361867,1.88143168 C42.7428379,1.78796272 43.0545414,2.13970116 43.0460592,2.66361925 L43.0372246,12.2638648 C43.0446461,12.7840934 42.7329426,13.2957129 42.3507347,13.4113192 L9.88656725,22.3154671 Z" id="Fill-164" fill="url(#linearGradient-5)" fill-rule="nonzero"></path>
        </g>
    </g>
</svg>