<?xml version="1.0" encoding="UTF-8"?>
<svg width="50px" height="50px" viewBox="0 0 50 50" version="1.1" xmlns="http://www.w3.org/2000/svg" xmlns:xlink="http://www.w3.org/1999/xlink">
    <title>云端防护-灰</title>
    <defs>
        <linearGradient x1="20.9396409%" y1="107.35461%" x2="97.245337%" y2="0%" id="linearGradient-1">
            <stop stop-color="#5F5F5F" offset="0%"></stop>
            <stop stop-color="#B8B8B8" offset="100%"></stop>
            <stop stop-color="#B8B8B8" offset="100%"></stop>
        </linearGradient>
        <linearGradient x1="84.6420142%" y1="-128.735375%" x2="-33.9783092%" y2="100%" id="linearGradient-2">
            <stop stop-color="#E7E7E7" offset="0%"></stop>
            <stop stop-color="#AFAFAF" offset="100%"></stop>
        </linearGradient>
        <linearGradient x1="111.669102%" y1="-230.622932%" x2="51.8215776%" y2="97.8033369%" id="linearGradient-3">
            <stop stop-color="#E7E7E7" offset="0%"></stop>
            <stop stop-color="#AFAFAF" offset="100%"></stop>
        </linearGradient>
        <linearGradient x1="50%" y1="74.6480872%" x2="179.5425%" y2="-13.2139984%" id="linearGradient-4">
            <stop stop-color="#5F5F5F" offset="0%"></stop>
            <stop stop-color="#B8B8B8" offset="100%"></stop>
            <stop stop-color="#B8B8B8" offset="100%"></stop>
        </linearGradient>
        <linearGradient x1="53.8661794%" y1="88.5001096%" x2="131.77073%" y2="-247.310472%" id="linearGradient-5">
            <stop stop-color="#5F5F5F" offset="0%"></stop>
            <stop stop-color="#B8B8B8" offset="100%"></stop>
        </linearGradient>
        <linearGradient x1="30.0273407%" y1="74.4065997%" x2="83.6555841%" y2="36.151704%" id="linearGradient-6">
            <stop stop-color="#5F5F5F" offset="0%"></stop>
            <stop stop-color="#B8B8B8" offset="100%"></stop>
            <stop stop-color="#B8B8B8" offset="100%"></stop>
        </linearGradient>
        <linearGradient x1="57.606045%" y1="199.796987%" x2="128.737314%" y2="-156.954767%" id="linearGradient-7">
            <stop stop-color="#5F5F5F" offset="0%"></stop>
            <stop stop-color="#B8B8B8" offset="100%"></stop>
        </linearGradient>
        <linearGradient x1="100%" y1="-15.9951057%" x2="5.33711708%" y2="114.061476%" id="linearGradient-8">
            <stop stop-color="#E7E7E7" offset="0%"></stop>
            <stop stop-color="#AFAFAF" offset="100%"></stop>
        </linearGradient>
        <linearGradient x1="100%" y1="27.6531027%" x2="11.479401%" y2="153.04308%" id="linearGradient-9">
            <stop stop-color="#E7E7E7" offset="0%"></stop>
            <stop stop-color="#AFAFAF" offset="100%"></stop>
        </linearGradient>
        <linearGradient x1="54.8956305%" y1="297.416922%" x2="130.761673%" y2="-44.7963925%" id="linearGradient-10">
            <stop stop-color="#5F5F5F" offset="0%"></stop>
            <stop stop-color="#B8B8B8" offset="100%"></stop>
            <stop stop-color="#B8B8B8" offset="100%"></stop>
        </linearGradient>
        <linearGradient x1="19.8473067%" y1="84.4990791%" x2="77.8456874%" y2="46.6051011%" id="linearGradient-11">
            <stop stop-color="#5F5F5F" offset="0%"></stop>
            <stop stop-color="#B8B8B8" offset="100%"></stop>
            <stop stop-color="#B8B8B8" offset="100%"></stop>
        </linearGradient>
    </defs>
    <g id="页面-1" stroke="none" stroke-width="1" fill="none" fill-rule="evenodd">
        <g id="编组-86" transform="translate(7.000000, 0.000000)">
            <path d="M32.4277143,31.473832 L25.4336119,29.7148836 C25.5502132,29.7197318 25.6648382,29.730398 25.7774869,29.7478517 L32.7715894,31.5058305 C32.6589407,31.4893464 32.5443157,31.4786803 32.4277143,31.473832" id="Fill-1" fill="#838383"></path>
            <path d="M32.771293,31.5061214 L25.7771905,29.7481426 C25.875017,29.7626874 25.9708673,29.7820804 26.0647412,29.8053521 L33.0588437,31.5643005 C32.9639816,31.5400592 32.8681313,31.5216358 32.771293,31.5061214" id="Fill-3" fill="#7F7F7F"></path>
            <path d="M10.0450054,36.4504731 L17.0377968,38.2081957 L16.9820589,38.4807876 C16.9467052,38.6633694 16.9161824,38.8473878 16.8904906,39.0322681 C16.8480991,39.3322784 16.820431,39.636749 16.8056088,39.9421894 L16.8059053,39.9421894 C16.797012,40.1196356 16.7930594,40.2980516 16.7940475,40.4764675 C16.7950357,40.6655496 16.8019527,40.8517228 16.8138105,41.0330477 C16.9919733,43.7273223 18.343758,45.6811707 20.175782,46.142725 L13.1816796,44.3847462 C11.3498844,43.9232496 9.99919653,41.9688623 9.8210593,39.2756906 L9.82069614,39.2750689 C9.80883838,39.0927743 9.80192135,38.9075708 9.79994506,38.7175191 C9.79895691,38.5391031 9.8029095,38.3606872 9.81180282,38.1832409 L9.81150637,38.1832409 C9.82632858,37.8778006 9.85498483,37.5742996 9.89648699,37.2727379 C9.92211293,37.087599 9.9530529,36.9039254 9.98869206,36.7218894 L10.0450054,36.4504731 Z M10.5310748,34.8733344 C10.6450081,34.5887416 10.7705028,34.3104515 10.906867,34.0418579 L10.9062741,34.0423428 C11.0752472,33.7107218 11.2610188,33.392676 11.4626007,33.0911143 L11.4627968,33.0906864 L11.6548925,32.8144959 C12.3120435,31.9073505 13.1128507,31.1716973 14.0075726,30.6956864 L14.0067821,30.6959773 L14.0640946,30.5495599 L14.0640946,30.5495599 L14.0636993,30.5501417 C14.1012489,30.4541461 14.1407748,30.3591203 14.1812888,30.2660337 C14.1941347,30.2340352 14.2069806,30.2030063 14.2208147,30.1719774 C14.2474946,30.1089501 14.2761509,30.0468924 14.3048071,29.9848346 C14.3146886,29.9625327 14.3245701,29.9402307 14.3344515,29.9179287 C14.3601433,29.8636282 14.3858352,29.811267 14.411527,29.7589058 L14.4550054,29.6667888 L14.4757565,29.6250938 C14.4905787,29.5968769 14.5054009,29.568757 14.519235,29.5416068 C14.5202231,29.5396675 14.5202231,29.5386978 14.5212113,29.5367585 L14.5389114,29.5020208 L14.5389114,29.5020208 L14.5567821,29.4661957 L14.5682717,29.444181 L14.5805001,29.421273 L14.5805001,29.421273 C14.6032274,29.376669 14.6279311,29.3330347 14.6516466,29.2894003 C14.6704214,29.2535232 14.6901843,29.2166765 14.7099473,29.181769 C14.7346509,29.137165 14.7593546,29.0935307 14.7850464,29.0498963 C14.8048094,29.0149889 14.8245723,28.9800814 14.8443352,28.9461436 L14.883367,28.8816618 L14.9826758,28.7163361 C15.0093557,28.6756107 15.0350475,28.6348854 15.0617275,28.59416 L15.1269452,28.4913769 C15.1318859,28.4845893 15.1358385,28.4787714 15.1407792,28.4710142 C15.1619256,28.4391127 15.1836648,28.4080838 15.205404,28.3751156 C15.2281314,28.3411778 15.2518469,28.30724 15.2745743,28.2733022 C15.3071832,28.2257892 15.3407801,28.1802156 15.3743771,28.1336723 C15.3911756,28.109431 15.4079741,28.0861594 15.4247726,28.0628877 C15.4603459,28.0144051 15.4969073,27.9668922 15.5334687,27.9184096 C15.5492791,27.8980469 15.5650894,27.8757449 15.5808998,27.8553822 C15.6174612,27.8078693 15.6550108,27.761326 15.6925604,27.7157524 C15.7083707,27.6953897 15.7241811,27.675027 15.7399914,27.6546643 C15.7755647,27.6119996 15.811138,27.569335 15.8467113,27.5276399 L15.9040238,27.4597643 L16.0087673,27.3414668 C16.0295184,27.3181951 16.0502695,27.2939538 16.0720087,27.2706822 C16.1036294,27.2357747 16.1362382,27.2018369 16.1688471,27.1669294 L16.2429581,27.0883876 L16.2949593,27.035178 L16.4148956,26.91482 C16.4524452,26.8770035 16.4919711,26.8411264 16.5295206,26.8052493 L16.5917739,26.7461005 C16.6322879,26.7092538 16.6737901,26.672407 16.7143041,26.6355602 C16.7330789,26.6190762 16.7508655,26.6025921 16.7696403,26.586108 L16.8951349,26.4794463 L16.9534356,26.4319334 L17.0730013,26.3359378 C17.0947406,26.3184841 17.1164798,26.3010304 17.1392072,26.2835766 C17.178733,26.2535174 17.2182589,26.2244279 17.2577848,26.1943686 C17.2805121,26.1778846 17.3032395,26.1604308 17.326955,26.1439468 L17.4494852,26.0576477 C17.4722126,26.043103 17.4939518,26.0275885 17.5166792,26.0120741 L17.6401975,25.931593 C17.6629249,25.9170482 17.6866404,25.9025034 17.7093678,25.886989 C17.7479055,25.8637174 17.7874314,25.8404457 17.8259691,25.8171741 C17.8526491,25.8016597 17.8783409,25.7851756 17.9050209,25.7696611 C17.9425704,25.7483288 17.98012,25.7279661 18.0176696,25.7066338 C18.0463258,25.692089 18.073994,25.6756049 18.1016621,25.6610601 C18.1421761,25.6397278 18.1826901,25.6203348 18.2232041,25.5999721 C18.2479078,25.5863969 18.2735996,25.5737915 18.2992914,25.561186 L18.4149046,25.5068855 C18.444549,25.49428 18.4722171,25.4807049 18.5018615,25.4671298 C18.5364466,25.452585 18.573008,25.4380402 18.6075932,25.4225258 L18.6915857,25.388588 C18.6952418,25.3869396 18.7001825,25.3850003 18.7041351,25.3840306 C18.7387203,25.3694858 18.7742935,25.3568804 18.8098668,25.3442749 C18.8424757,25.3316694 18.8740964,25.3190639 18.9067052,25.3083978 C18.9432666,25.2948226 18.9798281,25.2841565 19.0163895,25.271551 L19.1102634,25.2414918 C19.147813,25.229856 19.1843744,25.2201594 19.2209359,25.2094933 C19.2594736,25.1988271 19.2980113,25.1881609 19.3355609,25.1784644 L19.5102158,25.1355573 L19.5102158,25.1355573 L19.6817968,25.0991957 L19.8653249,25.068811 C19.9865918,25.0503491 20.1069912,25.0367181 20.2263495,25.0280032 L20.492483,25.0168235 L20.4930759,25.0167265 C20.734579,25.0129449 20.9707461,25.0294289 21.2029605,25.0643364 L21.2047821,25.0651957 L21.4017757,25.099656 C21.4677344,25.1128675 21.5331992,25.1276547 21.5984169,25.1441387 L28.5925193,26.9021175 C28.4620839,26.8691494 28.3296723,26.8429688 28.1962725,26.8226061 C27.9648485,26.7874077 27.7276933,26.7718933 27.4865855,26.7748022 C27.2213669,26.7785839 26.9516029,26.8057341 26.6768981,26.8580953 L26.3937968,26.7861957 L26.6765028,26.8579014 C26.5618778,26.8802034 26.4462646,26.906384 26.3286752,26.9374129 C26.2911256,26.9461397 26.253576,26.9577755 26.2150383,26.9684417 C26.1784769,26.9791079 26.1409273,26.9888044 26.1043659,27.0004402 C26.0727452,27.0091671 26.0411245,27.0208029 26.0104919,27.0304994 C25.9739305,27.0431049 25.9363809,27.0537711 25.9008077,27.0663765 C25.8681988,27.0780124 25.83559,27.0906178 25.8039693,27.1022537 C25.7674078,27.1158288 25.7328227,27.1274646 25.6972494,27.1420094 C25.6932968,27.1439487 25.6893443,27.145888 25.6853917,27.1468576 C25.6570319,27.1582026 25.6293637,27.1698384 25.6016956,27.1814742 L25.4949758,27.2260782 L25.409007,27.2658339 C25.3694812,27.2832877 25.3309434,27.3007414 25.2924057,27.3201344 L25.2163184,27.3579509 C25.1758044,27.3783135 25.1362785,27.3986762 25.0957645,27.4200086 L25.0117721,27.4655822 C24.9742225,27.4859449 24.9366729,27.5063076 24.8991233,27.5286096 C24.8724434,27.5431544 24.8467516,27.5596384 24.8200716,27.5751529 C24.7805457,27.5993942 24.742008,27.6216962 24.7024821,27.6459374 C24.6797548,27.6604822 24.6570274,27.6759967 24.6333119,27.6905414 C24.5927978,27.716722 24.5512957,27.7438723 24.5097935,27.7710225 L24.4435877,27.8165962 L24.4435877,27.8165962 C24.4020855,27.8456857 24.3605834,27.8738056 24.3200694,27.9028952 C24.297342,27.9193793 24.2746146,27.936833 24.2518872,27.9533171 C24.2123614,27.9824066 24.1728355,28.0114962 24.1323215,28.0425251 C24.1105822,28.0590091 24.088843,28.0774325 24.0671038,28.0948863 C24.0265898,28.1259151 23.9870639,28.156944 23.9465499,28.1899121 C23.926787,28.2063962 23.9080122,28.2219106 23.8892374,28.2383947 C23.8467471,28.2733022 23.8052449,28.3082097 23.7637427,28.3450564 C23.744968,28.3605709 23.7261932,28.3780246 23.7084065,28.3945087 C23.6669044,28.4313554 23.6263904,28.4672326 23.5858763,28.505049 C23.5641371,28.524442 23.5443742,28.5438351 23.5236231,28.5632281 C23.4850854,28.6000749 23.4465477,28.635952 23.4089981,28.6737684 C23.3862707,28.6951007 23.3635433,28.7183724 23.3418041,28.7406744 C23.3062308,28.7755818 23.2706575,28.811459 23.2370605,28.8463664 C23.2113687,28.872547 23.1866651,28.8996973 23.1629495,28.9258779 L23.065123,29.0296306 C23.0443719,29.0529023 23.0236209,29.0771436 23.0018816,29.1004152 C22.9672965,29.1392013 22.9327114,29.1779874 22.8981262,29.2177431 C22.8783633,29.2400451 22.8595885,29.2633167 22.8408137,29.2865884 C22.8052404,29.3282834 22.7696672,29.3709481 22.7340939,29.4136127 C22.7182835,29.4330058 22.7024732,29.4543381 22.6856747,29.4737312 C22.6491133,29.5202745 22.6115637,29.5668177 22.5750022,29.6143307 C22.5582038,29.6346934 22.5433816,29.6560257 22.5265831,29.677358 C22.4910098,29.724871 22.4544484,29.7723839 22.4188751,29.8218362 L22.3936773,29.8567436 L22.2686768,30.031281 L22.2337211,30.0830361 L22.1995065,30.1340641 C22.1777673,30.1660626 22.156028,30.1980611 22.1342888,30.2300596 C22.129941,30.2367502 22.1259884,30.2435378 22.1210476,30.2503253 C22.0983203,30.2842631 22.0775692,30.3182009 22.05583,30.3531084 C22.02915,30.3938338 22.00247,30.4345592 21.9767782,30.4752845 C21.9560271,30.5082527 21.9362642,30.5421905 21.9155131,30.5761283 C21.8898213,30.618793 21.8631414,30.6614577 21.8384377,30.705092 C21.8176866,30.7390298 21.7989118,30.7739373 21.7781607,30.8078751 C21.7534571,30.8515095 21.7277653,30.8951438 21.7030616,30.9397478 C21.6832987,30.9756249 21.6645239,31.0124717 21.6447609,31.0483488 C21.6210454,31.0919831 21.5973299,31.1356174 21.5736144,31.1792518 L21.5617566,31.2025234 L21.5498,31.226086 C21.5379423,31.2493576 21.5270727,31.2726292 21.5152149,31.2949312 C21.5143256,31.2966766 21.5133374,31.2986159 21.5123493,31.2995856 L21.469859,31.3839453 C21.4629419,31.3976174 21.4560249,31.4111925 21.4491079,31.4257373 C21.4342857,31.4557965 21.4194635,31.4858557 21.4056294,31.5168845 C21.3799376,31.5692457 21.3532576,31.6225766 21.328554,31.6768771 C21.3186725,31.6982094 21.308791,31.7214811 21.2989096,31.7437831 C21.2702533,31.8048711 21.2415971,31.8678985 21.213929,31.9299562 C21.2010831,31.9619547 21.1882371,31.9929836 21.1744031,32.0240125 C21.1348772,32.1180687 21.0953514,32.2121249 21.0578018,32.3081204 L16.3067968,31.1131957 L21.058197,32.3085083 C21.0384341,32.3560212 21.0196593,32.4045038 21.0008845,32.4539561 L16.8267968,31.4041957 L21.0006869,32.4536652 C20.0164928,32.9782468 19.1469237,33.816026 18.4562091,34.8496749 L17.4257968,34.5901957 L18.455715,34.8500627 C18.3219858,35.0504574 18.1948443,35.2586094 18.074876,35.4736566 L17.8999813,35.801776 C17.8090718,35.980192 17.7229933,36.1629175 17.6420384,36.3493779 L17.5241891,36.6322828 C17.4563364,36.803588 17.3924362,36.9774789 17.3330742,37.1536682 L17.2476069,37.4201249 C17.1685551,37.6780523 17.0983967,37.9417976 17.0391079,38.2084519 L17.0377968,38.2081957 L17.0387126,38.208064 L10.0455983,36.4500852 L10.0455983,36.4500852 C10.0845313,36.2720572 10.1288881,36.095796 10.1774903,35.9214023 L10.2534056,35.6616613 L16.1887968,37.1531957 L10.2535044,35.6611765 L10.2535044,35.6611765 C10.3364099,35.3930678 10.4283076,35.1302921 10.5310748,34.8733344 Z" id="形状结合" fill="url(#linearGradient-1)" fill-rule="nonzero"></path>
            <path d="M32.4277143,31.473832 C34.486024,31.5572221 35.9642914,33.6051267 36,36.4297225 C36.0186395,39.7818089 34.0808838,42.939965 31.5996474,43.5925407 L22.0057309,46.1155747 C19.1598684,46.864146 16.8169725,44.3255975 16.7940799,40.4760797 C16.7744822,37.0658141 18.5294308,33.7699676 21.0007857,32.45415 C21.0561219,32.3087022 21.1144226,32.1661634 21.1746995,32.0236246 C21.1875454,31.9925957 21.2003914,31.9615669 21.2142254,31.930538 C21.2418935,31.8675107 21.2695616,31.8054529 21.2982179,31.7433952 C21.3090875,31.7210932 21.3179808,31.6978216 21.3288504,31.6764892 C21.3535541,31.6221887 21.3792459,31.5698275 21.4049377,31.5164967 C21.4197599,31.4864375 21.4345821,31.4554086 21.4494043,31.4253494 C21.4701554,31.3826847 21.4918946,31.3409897 21.5126457,31.2992947 C21.5333968,31.2595389 21.5531597,31.2188136 21.5739108,31.1790578 C21.5976263,31.1354235 21.6213419,31.0917892 21.6450574,31.0491245 C21.6638322,31.0122777 21.6835951,30.975431 21.703358,30.9395538 C21.7280617,30.8949499 21.7537535,30.8513155 21.7784572,30.8076812 C21.7992083,30.7737434 21.8179831,30.7388359 21.837746,30.7048981 C21.8634378,30.6612638 21.8901178,30.6185991 21.9158096,30.5759344 C21.9365607,30.5419966 21.9563236,30.5080588 21.9770747,30.4750906 C22.0027665,30.4343652 22.0294464,30.3936399 22.0551383,30.3529145 C22.0768775,30.3189767 22.0986167,30.2840692 22.1203559,30.2501314 C22.1470359,30.2113453 22.1727277,30.1725592 22.1994077,30.1347428 C22.2221351,30.0998354 22.2448624,30.0658975 22.268578,30.0319597 C22.3011868,29.9844468 22.3347838,29.9388731 22.3683808,29.8923299 C22.3851793,29.8680886 22.4019778,29.8448169 22.4187763,29.8215453 C22.4543495,29.7730627 22.490911,29.7245801 22.5264842,29.6770672 C22.5432827,29.6557348 22.5581049,29.6353721 22.5749034,29.6140398 C22.6114649,29.5665268 22.6490144,29.5199836 22.6855759,29.4734403 C22.7023744,29.4540472 22.7181847,29.4336845 22.7339951,29.4133219 C22.7695683,29.3706572 22.8051416,29.3289621 22.8407149,29.2862975 C22.8594897,29.2639955 22.8782645,29.2407238 22.8980274,29.2174522 C22.9326125,29.1776965 22.9671977,29.13988 23.0017828,29.1001243 C23.023522,29.0768527 23.0442731,29.0526114 23.0650242,29.0293397 C23.097633,28.9944323 23.1302419,28.9604944 23.1628507,28.925587 C23.1865663,28.8994064 23.2112699,28.8722561 23.2369617,28.8470452 C23.2705587,28.8111681 23.306132,28.7762606 23.3417053,28.7413531 C23.3634445,28.7190511 23.3861719,28.6957795 23.4088993,28.6734775 C23.4464488,28.6366307 23.4849866,28.599784 23.5235243,28.5639068 C23.5442754,28.5445138 23.5640383,28.5241511 23.5857775,28.5047581 C23.6262915,28.4669417 23.6668056,28.4310645 23.7083077,28.3942178 C23.7260944,28.3787033 23.7448691,28.3612496 23.7636439,28.3447655 C23.8051461,28.3079188 23.8466483,28.2739809 23.8891386,28.2390735 C23.9079134,28.2216197 23.9266881,28.2061053 23.9464511,28.1896212 C23.9869651,28.1576227 24.026491,28.1256242 24.067005,28.0945954 C24.0887442,28.0771416 24.1104834,28.0596879 24.1322227,28.0422342 C24.1727367,28.0121749 24.2122625,27.9821157 24.2517884,27.9530262 C24.2745158,27.9365421 24.2972432,27.9190884 24.3199705,27.9026043 C24.3604846,27.8735147 24.4019867,27.8453948 24.4434889,27.8172749 C24.4652281,27.8017605 24.4879555,27.7852764 24.5096947,27.7707316 C24.5511969,27.7435814 24.592699,27.7164311 24.633213,27.6902505 C24.6569286,27.6757058 24.6796559,27.6601913 24.7023833,27.6466162 C24.7419092,27.6214053 24.7804469,27.5991033 24.8199728,27.574862 C24.8466527,27.5593475 24.8723446,27.5438331 24.8990245,27.5283187 C24.9365741,27.5069863 24.9741237,27.4866237 25.0116732,27.4652913 C25.0393413,27.4507465 25.0670095,27.4342625 25.0956657,27.4197177 C25.1361797,27.3983853 25.1757056,27.3780226 25.2162196,27.35766 C25.2419114,27.3450545 25.2666151,27.332449 25.2923069,27.3198435 C25.3308446,27.3014202 25.3693823,27.2829968 25.4089082,27.265543 C25.4375645,27.2519679 25.4662207,27.2383928 25.494877,27.226757 C25.5304503,27.2112425 25.5660235,27.1966978 25.6015968,27.182153 C25.6332175,27.1685779 25.6648382,27.1550027 25.6974471,27.1423973 C25.7330203,27.1278525 25.7676055,27.115247 25.8031788,27.1026415 C25.8357876,27.0900361 25.8683964,27.0784002 25.9010053,27.0667644 C25.9365786,27.0541589 25.97314,27.0425231 26.0097014,27.0299176 C26.0413221,27.0202211 26.0729428,27.0095549 26.1045635,26.9998584 C26.1411249,26.9891923 26.1776864,26.9785261 26.2152359,26.9688296 C26.2527855,26.9581634 26.2913232,26.9465276 26.3288728,26.9368311 C29.1816524,26.1872902 31.6342325,28.0897471 32.4277143,31.473832" id="Fill-43" fill="url(#linearGradient-2)" fill-rule="nonzero"></path>
            <polygon id="Fill-45" fill="#949494" fill-rule="nonzero" points="13.9265446 42.8672411 6.9324421 41.1082927 6.92256064 39.3144368 13.9156749 41.0724155"></polygon>
            <polygon id="Fill-47" fill="#949494" fill-rule="nonzero" points="12.7989708 47.3613686 4.24349726 41.8157506 6.93323262 41.1079048 14.2156763 42.4569238"></polygon>
            <path d="M10.5313713,32.7726806 L6.84844963,26.783723 L6.83856816,24.9888975 L17.2476069,25.388588 C17.7205809,27.5093761 17.5694052,28.9959816 16.7940799,29.8484046 C16.0187546,30.7008277 13.9311851,31.6755863 10.5313713,32.7726806 Z" id="Fill-49" fill="#949494" fill-rule="nonzero"></path>
            <polygon id="Fill-51" fill="#949494" fill-rule="nonzero" points="11.1537061 29.248578 4.1596036 27.4905992 6.84933896 26.783723 13.8424533 28.5417018"></polygon>
            <path d="M9.24313196,44.7786993 L13.2270265,43.7313267 L13.2109211,41.0733852 L9.22702655,42.1207578 L9.24313196,44.7786993 Z M7.23491381,50 L7.16179096,37.4682197 L14.8713116,35.4406777 L14.8456198,35.4639493 L14.9187427,47.9792456 L7.23491381,50 Z" id="Fill-53" fill="url(#linearGradient-3)" fill-rule="nonzero"></path>
            <polygon id="Fill-55" fill="url(#linearGradient-4)" fill-rule="nonzero" points="7.16198858 37.4679288 0.167886127 35.7089803 7.87740681 33.682408 14.8705211 35.4403868"></polygon>
            <polygon id="Fill-57" fill="url(#linearGradient-5)" fill-rule="nonzero" points="7.23530907 49.9995152 0.241206613 48.2405667 0.168083756 35.7087864 7.16218621 37.4677348"></polygon>
            <polygon id="Fill-59" fill="url(#linearGradient-6)" fill-rule="nonzero" points="7.07799611 23.1509224 0.0838936562 21.391974 26.9614843 14.3251514 33.9545986 16.0840998"></polygon>
            <polygon id="Fill-61" fill="url(#linearGradient-7)" fill-rule="nonzero" points="7.15141541 35.682024 0.157312957 33.9240452 0.0841901002 21.3922649 7.07829256 23.1512133"></polygon>
            <path d="M16.1228035,25.7478459 L11.1429353,27.0570617 L11.163067,30.3794886 L16.1429353,29.0702728 L16.1228035,25.7478459 Z M18.6380281,26.4967061 L18.6736014,32.6530256 L7.15181067,35.6822179 L7.07769967,23.1504376 L33.9552904,16.083615 L33.9918518,22.4590758 L18.6380281,26.4967061 Z" id="Fill-63" fill="url(#linearGradient-8)" fill-rule="nonzero"></path>
            <polygon id="Fill-65" fill="#949494" fill-rule="nonzero" points="16.2313968 14.9320565 7.16179096 18.1312479 6.75467451 10.6718912 16.2313968 10.6718912"></polygon>
            <polygon id="Fill-67" fill="#949494" fill-rule="nonzero" points="11.0697136 14.9320565 4.07561113 13.1731081 6.76534649 12.4662319 13.7584608 14.2251803"></polygon>
            <path d="M16.0590416,14.7532665 L16.0389098,11.4308396 L11.0590416,12.7400554 L11.0791734,16.0624822 L16.0590416,14.7532665 L16.0590416,14.7532665 Z M33.8713967,1.75885147 L33.9445196,14.2896622 L7.06791702,21.3564847 L6.99380601,8.82567405 L33.8713967,1.75885147 Z" id="Fill-69" fill="url(#linearGradient-9)" fill-rule="nonzero"></path>
            <polygon id="Fill-71" fill="url(#linearGradient-10)" fill-rule="nonzero" points="7.06742294 21.3569696 0.0733204863 19.5989908 0.000197629344 7.06721045 6.99430009 8.82615888"></polygon>
            <polygon id="Fill-73" fill="url(#linearGradient-11)" fill-rule="nonzero" points="6.99410246 8.82577102 -4.4408921e-13 7.06682259 26.8775907 5.02708986e-13 33.870705 1.75894843"></polygon>
        </g>
    </g>
</svg>