<?xml version="1.0" encoding="UTF-8"?>
<svg width="50px" height="50px" viewBox="0 0 50 50" version="1.1" xmlns="http://www.w3.org/2000/svg" xmlns:xlink="http://www.w3.org/1999/xlink">
    <title>通报处置-灰</title>
    <defs>
        <linearGradient x1="50%" y1="100%" x2="78.9698266%" y2="6.18820503%" id="linearGradient-1">
            <stop stop-color="#5F5F5F" offset="0%"></stop>
            <stop stop-color="#B8B8B8" offset="100%"></stop>
        </linearGradient>
        <linearGradient x1="65.2099229%" y1="0%" x2="41.7895206%" y2="95.0951313%" id="linearGradient-2">
            <stop stop-color="#E7E7E7" offset="0%"></stop>
            <stop stop-color="#AFAFAF" offset="100%"></stop>
        </linearGradient>
    </defs>
    <g id="页面-1" stroke="none" stroke-width="1" fill="none" fill-rule="evenodd">
        <g id="编组-70" transform="translate(6.000000, 0.000000)">
            <path d="M19.2452101,11.6315621 L24.0516521,13.1420244 L27.7082813,14.2932194 L27.6966438,14.3539834 L27.6966438,14.3539834 L27.6971188,14.3542226 C27.6923688,14.3757532 27.6864313,14.3984799 27.6793063,14.4212066 C27.6715876,14.4478806 27.6620876,14.4765881 27.6514001,14.5040994 C27.6383376,14.5408209 27.6217126,14.5790975 27.6039001,14.6185702 L27.602704,14.6183734 L27.5544111,14.7216778 L27.5262265,14.7759901 L27.4946521,14.8320244 L27.4958377,14.832919 C27.4685252,14.8807648 27.4388377,14.9310028 27.4079627,14.9836331 L17.6527733,31.481913 L17.6533671,31.4816738 L14.1894311,32.613225 L5.72612243,29.951807 L9.19005837,28.8202558 L16.0191224,30.9670244 L9.19065212,28.8192989 L18.9447727,12.3208993 C18.9767165,12.2683886 19.0052165,12.2181506 19.032529,12.1703049 L23.8711224,13.6920244 L19.0333602,12.1697068 C19.0749227,12.0931536 19.1105477,12.0225812 19.1414227,11.9567933 L24.3496521,13.5940244 L19.1417789,11.955956 C19.1595914,11.9164833 19.1750289,11.8782068 19.1892789,11.8423225 C19.1987789,11.8139739 19.2082789,11.7864626 19.2165914,11.7589513 L19.8421224,11.9550244 L19.2171851,11.7585925 L19.2259429,11.7251005 L19.2345226,11.6913692 C19.2380851,11.6710348 19.2428351,11.6507004 19.2452101,11.6315621 Z M17.6558014,9.4978823 L24.958745,11.0666238 L27.4046521,13.5940244 L27.4058252,13.5947915 C27.5720751,13.7622515 27.6707035,13.9081145 27.7037721,14.0669911 L27.7158813,14.1636771 L27.7161782,14.1979167 L27.7161782,14.1979167 L27.7142188,14.2334122 L27.7116954,14.2628672 L27.7076521,14.2920244 L24.0516521,13.1420244 L19.2461601,11.6306052 L19.2520976,11.570798 L19.2537601,11.502259 L19.2536414,11.5015413 C19.2453289,11.3029816 19.1420164,11.1331293 18.943704,10.9333734 L22.0091224,11.8970244 L18.9440602,10.9326558 L17.6558014,9.4978823 Z M18.4877042,8.97002442 L24.6416521,10.8270244 L24.6396521,10.8260244 L24.6559327,10.8313425 C24.6761202,10.8397155 24.6963077,10.8504807 24.7176827,10.8636383 C24.7913076,10.9066995 24.8696826,10.9748796 24.958745,11.0669826 L18.7917041,9.20446844 C18.7026416,9.11356157 18.6230791,9.04538142 18.5494542,9.00112414 C18.5280792,8.98796656 18.5078917,8.97720128 18.4877042,8.97002442 Z" id="形状结合" fill="#949494"></path>
            <path d="M22.823621,20.4778764 L31.2869297,23.1404906 L31.2904922,27.0279552 L31.2881008,27.0278764 L20.7044095,30.485526 L12.2411008,27.8229118 L22.8276585,24.3660587 L27.6341008,25.8768764 L22.828371,24.365341 L22.823621,20.4778764 Z" id="形状结合" fill="#949494"></path>
            <path d="M-4.97379915e-13,12.4040312 L8.4633087,15.0654492 L8.50012118,50 L0.0379999829,47.3373858 L-4.97379915e-13,12.4040312 Z M8.60093989,13.6922771 L8.56328131,13.8785016 L8.56328131,13.8785016 L8.531,14.065 L8.53206492,14.0658326 L8.5010415,14.3046126 L8.5010415,14.3046126 L8.479,14.547 L8.48017119,14.5479978 C8.4682962,14.716654 8.4635462,14.8888985 8.4635462,15.0659277 L0.000237499893,12.4033135 C0.000237499893,12.2262844 0.00498749776,12.0540398 0.0168624924,11.8853836 L2.493,12.664 L0.0176937421,11.885264 C0.0283812373,11.7213924 0.0450062298,11.5611093 0.0687562191,11.4044145 L2.629,12.209 L0.0686374692,11.4034576 C0.0876374607,11.2778626 0.110199951,11.1534637 0.138699938,11.030261 C0.163756176,10.9184217 0.191068664,10.8071804 0.224318649,10.6971352 L7.059,12.846 L0.225268649,10.6961783 C0.257331134,10.5861331 0.294143618,10.476088 0.3345186,10.3660428 L8.7978273,13.0274609 C8.75745232,13.137506 8.72063983,13.2487473 8.68738985,13.3587925 C8.65437736,13.4697946 8.62587738,13.5810358 8.60093989,13.6922771 Z M11.063695,10.3469046 C10.4830078,10.5825447 10.008008,10.9545452 9.54607071,11.6148161 L9.5442375,11.6142639 L9.45617261,11.7461924 C9.39644578,11.8368335 9.33707081,11.9327907 9.27769583,12.0340642 C9.24325835,12.0926752 9.20882087,12.1512862 9.17675838,12.2098972 L1.441,9.776 L9.17640213,12.2103756 C9.09208967,12.3634819 9.0149022,12.5153921 8.94721473,12.66491 C8.89258976,12.7859596 8.84271478,12.9067701 8.7975898,13.0275805 L0.335468599,10.3649663 C0.37940608,10.245352 0.429281057,10.1245416 0.483906033,10.002535 C0.552781002,9.85277791 0.628780968,9.70086776 0.71309343,9.54776146 C0.745512165,9.48986814 0.77994965,9.43006099 0.814387134,9.37144999 C0.874553774,9.27017655 0.934192636,9.17475093 0.994007424,9.08446429 L1.08394951,8.95220189 C1.54469931,8.29312713 2.02088659,7.91993053 2.60038633,7.68429037 C2.6827988,7.6518749 2.76711126,7.62077518 2.85261122,7.59326389 L7.083,8.923 L2.85249247,7.59254621 L25.6596072,0.144164108 L29.891,1.475 L25.6590135,0.143446422 C25.7825134,0.103973705 25.9000759,0.0716778453 26.0152633,0.0477549865 C26.1368633,0.0219182989 26.2532382,0.00636844066 26.3660507,0.0015838689 L34.826,2.663 L26.3671194,0.0015838689 C26.4549944,-0.00200455993 26.5416818,0.000387725954 26.6259943,0.00995686949 L35.059,2.663 L26.6262318,0.0097176409 C26.7010443,0.0180906415 26.7758567,0.0324443568 26.8482942,0.0527787868 L35.3116029,2.71419683 C35.2379779,2.69505855 35.1631655,2.68070483 35.088353,2.67233183 C35.003803,2.66300191 34.9183031,2.66060963 34.8292406,2.66419806 C34.7165469,2.66898263 34.5989845,2.68453249 34.4778595,2.70965149 C34.3633846,2.73309589 34.2458221,2.76539175 34.1223222,2.80606061 L34.12,2.806 L11.3158012,10.2551604 L11.313,10.255 L11.1882637,10.2989392 C11.1464044,10.3141901 11.1051388,10.3300389 11.06417,10.3467849 L10.771,10.254 L11.063695,10.3469046 Z" id="形状结合" fill="url(#linearGradient-1)" fill-rule="nonzero"></path>
            <path d="M31.2904922,27.0279552 L31.2869297,23.1404906 L23.5491832,25.6667445 L20.7039345,30.4860044 L31.2904922,27.0279552 M14.1893124,32.6127466 L17.6532483,31.4823915 L27.4073689,14.9839919 C27.8194313,14.2974059 27.8194313,14.0115277 27.4061814,13.5952699 L24.958745,11.0666238 C24.8696826,10.9757169 24.7913076,10.9063406 24.7176827,10.8632795 C24.6963077,10.8501219 24.6761202,10.8393566 24.6559327,10.8309836 C24.5656827,10.80108 24.5098702,10.7998839 24.4528703,10.8190222 C24.3946828,10.8369643 24.3388703,10.8752409 24.2794953,10.9326558 C24.2284329,10.985286 24.2082454,11.0092089 24.1868704,11.0355241 C24.1144329,11.1276271 24.0348705,11.2484375 23.9469955,11.3979554 L14.1845624,27.8987472 L14.1893124,32.6127466 M36.1556775,3.25461421 C36.7708022,3.88019697 36.9738647,4.65051303 36.9750522,5.75335682 L36.9999948,29.043456 C37.0011771,30.1451037 36.7993022,31.0481916 36.1865525,32.0756784 C35.5797403,33.110342 34.9646156,33.5864069 34.1559284,33.8519507 L14.1976249,40.3697336 L8.50000243,49.9998804 L8.46318492,15.0665258 C8.46200245,13.963682 8.67100236,13.0582018 9.27781458,12.0331073 C9.89175181,10.9960513 10.498564,10.5223787 11.3155637,10.2556389 L34.1226784,2.80606061 C34.9313656,2.54171302 35.5464903,2.61587388 36.1556775,3.25461421" id="Fill-46" fill="url(#linearGradient-2)" fill-rule="nonzero"></path>
        </g>
    </g>
</svg>