<?xml version="1.0" encoding="UTF-8"?>
<svg width="50px" height="50px" viewBox="0 0 50 50" version="1.1" xmlns="http://www.w3.org/2000/svg" xmlns:xlink="http://www.w3.org/1999/xlink">
    <title>等保检查</title>
    <defs>
        <linearGradient x1="56.7826748%" y1="64.7911287%" x2="85.5977158%" y2="46.3527908%" id="linearGradient-1">
            <stop stop-color="#003B7C" offset="0%"></stop>
            <stop stop-color="#4EA2FF" offset="100%"></stop>
        </linearGradient>
        <linearGradient x1="56.7826748%" y1="81.2022613%" x2="85.5977158%" y2="42.3061196%" id="linearGradient-2">
            <stop stop-color="#003B7C" offset="0%"></stop>
            <stop stop-color="#4EA2FF" offset="100%"></stop>
        </linearGradient>
        <linearGradient x1="56.2091632%" y1="237.621237%" x2="81.3202825%" y2="9.20834323%" id="linearGradient-3">
            <stop stop-color="#003B7C" offset="0%"></stop>
            <stop stop-color="#4EA2FF" offset="100%"></stop>
        </linearGradient>
        <linearGradient x1="45.2392156%" y1="0%" x2="56.4194206%" y2="104.705303%" id="linearGradient-4">
            <stop stop-color="#C3EEFF" offset="0%"></stop>
            <stop stop-color="#25A8FF" offset="100%"></stop>
        </linearGradient>
        <linearGradient x1="-27.1768335%" y1="107.168994%" x2="85.5977158%" y2="47.0551898%" id="linearGradient-5">
            <stop stop-color="#003B7C" offset="0%"></stop>
            <stop stop-color="#4EA2FF" offset="100%"></stop>
        </linearGradient>
        <linearGradient x1="56.7826748%" y1="170.281908%" x2="85.5977158%" y2="20.3407836%" id="linearGradient-6">
            <stop stop-color="#003B7C" offset="0%"></stop>
            <stop stop-color="#4EA2FF" offset="100%"></stop>
        </linearGradient>
        <linearGradient x1="44.8831967%" y1="0%" x2="56.899475%" y2="104.705303%" id="linearGradient-7">
            <stop stop-color="#C3EEFF" offset="0%"></stop>
            <stop stop-color="#25A8FF" offset="100%"></stop>
        </linearGradient>
        <linearGradient x1="51.6769723%" y1="237.621237%" x2="58.8013041%" y2="3.73619394%" id="linearGradient-8">
            <stop stop-color="#003B7C" offset="0%"></stop>
            <stop stop-color="#4EA2FF" offset="100%"></stop>
        </linearGradient>
        <linearGradient x1="47.4775661%" y1="0%" x2="53.4012387%" y2="104.705303%" id="linearGradient-9">
            <stop stop-color="#C3EEFF" offset="0%"></stop>
            <stop stop-color="#25A8FF" offset="100%"></stop>
        </linearGradient>
    </defs>
    <g id="页面-1" stroke="none" stroke-width="1" fill="none" fill-rule="evenodd">
        <g id="编组-127" transform="translate(6.000000, 0.000000)">
            <path d="M36.307986,45.6580869 L25.0226428,42.631948 C24.9457107,42.6140065 24.8727238,42.5801169 24.8036822,42.5382533 C24.7366133,42.4943962 24.6734895,42.4405716 24.614311,42.374786 L35.8976817,45.3989314 C35.9568602,45.4627235 36.0199839,45.5185416 36.0890255,45.5604052 C36.1580671,45.6062558 36.231054,45.6361583 36.307986,45.6580869" id="Fill-83" fill="url(#linearGradient-1)" fill-rule="nonzero"></path>
            <polygon id="Fill-85" fill="url(#linearGradient-2)" fill-rule="nonzero" points="35.898668 45.3991307 24.6133247 42.3729919 22.3822946 39.8870925 33.6676379 42.9112379"></polygon>
            <path d="M17.9981527,38.4190763 C18.1382086,38.4449918 18.2782644,38.4569529 18.4242381,38.4589464 L29.7076087,41.4850852 C29.5636077,41.4830917 29.4215792,41.4691372 29.283496,41.4452152 L29.2723758,41.4418663 L29.282707,41.4444178 L23.6403758,39.9318663 L17.9981527,38.4190763 Z M18.8923401,38.4242594 L23.6603758,39.7008663 L30.1733758,41.4458663 L30.018559,41.4677491 C29.9142294,41.4789718 29.8107766,41.4842878 29.7082005,41.4842878 L18.4228572,38.458149 C18.5767214,38.4601425 18.7325581,38.450175 18.8923401,38.4242594 Z M17.7803758,38.3704348 C17.85139,38.3903698 17.9263495,38.4063179 17.9993363,38.4202724 L23.6403758,39.9318663 L29.2723758,41.4418663 L29.174213,41.423486 C29.1382128,41.415512 29.1022125,41.4065412 29.0657191,41.3965737 L17.7803758,38.3704348 Z M22.6939681,34.5634405 L33.9793114,37.5895793 C33.9004067,37.8028843 33.8136115,38.0122022 33.7208985,38.2175331 C33.6084593,38.4617373 33.4861571,38.6949772 33.3539917,38.9202432 L22.0686484,35.8941043 C22.2008138,35.6708319 22.3231161,35.4355984 22.4355552,35.1923909 L26.8423758,36.3728663 L22.4355552,35.1913942 C22.5302409,34.9880568 22.617036,34.7787389 22.6939681,34.5634405 Z M20.6962986,27.2518663 L31.9816419,30.2760117 C33.292091,30.6281442 34.2589449,32.0146278 34.4563636,33.9627841 L34.4768055,34.2089955 C34.4886412,34.3764498 34.494559,34.5478911 34.4925864,34.721326 L34.491116,34.8833012 L34.491116,34.8833012 L34.4870631,35.0454697 C34.4772,35.2807032 34.4574738,35.5119496 34.4278845,35.7431961 L27.7843758,33.9618663 L34.42749,35.7439935 C34.4018868,35.9549684 34.3644856,36.1659433 34.3231392,36.3729502 L34.3235331,36.3733426 C34.2802076,36.5803226 34.2309839,36.781342 34.175862,36.9803679 L34.1763758,36.9807633 C34.1171973,37.1880877 34.052101,37.3894315 33.9791141,37.5887819 L22.6937708,34.5626431 C22.7667577,34.3652862 22.831854,34.1619488 22.8910326,33.9566179 L26.3470248,34.8818663 L22.8902435,33.9552224 C22.9474494,33.7578656 22.9967648,33.5545282 23.0381898,33.3511908 L29.3623758,35.0448663 L23.037598,33.3497953 C23.0809274,33.1427969 23.116391,32.9298368 23.143989,32.7188514 L23.1425413,32.7170572 C23.1721305,32.4878042 23.1918567,32.2545643 23.2017198,32.0213243 L27.8203758,33.2588663 L23.2013253,32.0201282 C23.2072431,31.9144725 23.2092157,31.8048298 23.2092157,31.6951871 C23.2092157,31.5217523 23.2032979,31.3503109 23.1914622,31.1848501 C23.0535762,29.1078184 22.0613497,27.6166775 20.6962986,27.2518663 Z M21.3827694,36.8657381 C21.6332918,36.572693 21.8621154,36.2477519 22.0692402,35.8949017 L33.3545835,38.9210406 C33.1474587,39.2699037 32.9166625,39.5988319 32.6681127,39.891877 C32.3481542,40.2694466 31.9930831,40.5943877 31.6182858,40.8515497 L31.6170248,40.8508663 L31.4073822,40.9855942 C31.1938772,41.1131473 30.9734372,41.2185538 30.7485588,41.2992907 L30.0243758,41.1048663 L30.7481643,41.29949 C30.6732049,41.3273991 30.5962728,41.3513211 30.5173681,41.3732497 L30.5175654,41.373449 C30.4031536,41.4053451 30.2887418,41.4292671 30.1763026,41.4472087 L30.1733758,41.4458663 L30.1757108,41.4464113 L23.6603758,39.7008663 L18.8909593,38.4230633 C19.0033985,38.4051218 19.1178103,38.3811997 19.2322221,38.3473102 C19.3089569,38.3271758 19.385889,38.3012602 19.462821,38.2733512 C19.7630534,38.1674961 20.0550007,38.0159898 20.3331398,37.8266069 L25.1020248,39.1038663 L20.3329425,37.8254108 C20.7097124,37.5702423 21.0608383,37.2453012 21.3843475,36.8665355 L29.7293758,39.1038663 L21.3827694,36.8657381 Z" id="形状结合" fill="#FFEAA4"></path>
            <path d="M16.3667983,41.8004576 L27.6501689,44.8246029 C27.7409093,44.860486 27.8336223,44.8903885 27.9243627,44.9202911 L16.6390194,41.8941522 C16.5463064,41.8662432 16.455566,41.8343471 16.3667983,41.8004576 Z M15.9355841,41.6074864 L27.2209274,44.6296382 C27.331394,44.6894434 27.4458058,44.7412745 27.5621902,44.7891185 L27.650958,44.8250016 L16.3656147,41.7988627 L16.2768469,41.7649732 C16.1604625,41.7151356 16.0480233,41.665298 15.9355841,41.6074864 Z" id="形状结合" fill="#6E6E6E"></path>
            <path d="M12.6645902,34.0851989 L23.9499335,37.1093443 C23.9302073,37.5658566 23.9361252,38.0163885 23.9657144,38.4629334 C24.0463945,39.6624247 24.3048073,40.8066959 24.7604819,41.8213893 C24.8275509,41.9709021 24.8985651,42.1144344 24.971552,42.2559732 C24.9932508,42.2958433 25.0149496,42.3357133 25.0366483,42.3735899 C25.0938542,42.4792456 25.1530328,42.5829078 25.2122113,42.678596 C25.2339101,42.7144791 25.2556089,42.7523556 25.2773076,42.7842517 C25.358185,42.911836 25.4410349,43.0314462 25.52783,43.1490629 C25.5396657,43.1670045 25.5554467,43.1829525 25.569255,43.200894 C25.6422418,43.3005692 25.7191739,43.3942639 25.7980786,43.4839716 C25.8237226,43.5158676 25.8533119,43.5457702 25.8809285,43.5776662 C25.955888,43.6613934 26.0308474,43.7411336 26.1097521,43.8168867 C26.1314509,43.8368218 26.1511771,43.8567568 26.1709033,43.8766918 C26.2695341,43.9703865 26.3701376,44.0561072 26.4727137,44.1398343 C26.4963851,44.1577759 26.5200565,44.1757174 26.5437279,44.1936589 C26.6265778,44.2574511 26.7094278,44.3172562 26.7942503,44.3750678 L26.8889359,44.4368664 L26.8889359,44.4368664 C26.9836216,44.498665 27.0783072,44.5544831 27.1769381,44.6043207 C27.1907464,44.6122948 27.2045547,44.6222623 27.2203356,44.6302363 L15.9349923,41.6060909 L15.8896222,41.5821689 L15.8896222,41.5821689 C15.7949365,41.5283443 15.6982783,41.4725262 15.6035927,41.4127211 C15.5720308,41.392786 15.5404689,41.3708575 15.508907,41.3489289 C15.4240845,41.2931108 15.3412346,41.2333057 15.2603572,41.1695136 C15.2347132,41.151572 15.2110418,41.1336305 15.1873704,41.1136955 C15.0847943,41.0319618 14.9841908,40.9442476 14.8875326,40.8525465 C14.8658338,40.8326114 14.8461076,40.8126764 14.8244088,40.7907478 C14.7474768,40.7149947 14.6705447,40.6352545 14.5955852,40.5535209 L14.5127353,40.4598262 C14.4338306,40.368125 14.3568985,40.2744303 14.2839117,40.1787422 C14.2701034,40.1588071 14.2562951,40.1428591 14.2424867,40.122924 C14.1556916,40.0092943 14.0728417,39.8856971 13.9919644,39.7620998 L13.9288406,39.6564441 C13.8676895,39.556769 13.808511,39.4531068 13.7513051,39.3514381 C13.7296063,39.3095745 13.7079075,39.2716979 13.6862087,39.2318278 C13.6132218,39.0922826 13.5422076,38.9467568 13.4751386,38.7952505 C13.0194641,37.7825505 12.7590786,36.6362858 12.6801739,35.43819 L18.3229521,36.9497843 L12.6803711,35.4367945 C12.6507819,34.9942367 12.6468367,34.5397178 12.6645902,34.0851989 Z M12.9368114,31.8943381 L24.2221547,34.920477 C24.1491678,35.2673467 24.0919619,35.6201969 24.0465917,35.9710535 L24.0469863,35.9714522 C23.9976708,36.350218 23.966109,36.7329707 23.950328,37.109743 L12.6649847,34.0836041 C12.6807657,33.7068319 12.7143002,33.3280661 12.761643,32.9473069 C12.8066187,32.5960515 12.8657972,32.2451948 12.9368114,31.8943381 Z M13.1812187,30.8868213 L24.466562,33.9109667 C24.3738489,34.2438818 24.290999,34.580784 24.2219574,34.9196796 L12.9366141,31.8935407 C13.0056557,31.5566386 13.086533,31.2217299 13.1812187,30.8868213 Z M13.9319968,28.8478655 L25.2173401,31.8720109 C25.0615033,32.2089131 24.9175023,32.5577762 24.7892821,32.9106264 L24.7900712,32.9106264 C24.6697415,33.2395546 24.5612476,33.5744632 24.466562,33.9113654 L13.1812187,30.8852265 C13.2778769,30.5483243 13.3843982,30.2154092 13.5047279,29.8844875 L13.5039389,29.8844875 C13.6341316,29.5336309 13.77616,29.1867612 13.9319968,28.8478655 Z M17.4324061,24.5006317 L28.7177494,27.524777 C28.2364308,27.8497181 27.7689205,28.2464254 27.3290268,28.7049313 C27.1909436,28.8504571 27.0568057,28.9979764 26.9285855,29.1494827 L19.0689521,27.0427843 L26.9275992,29.1494827 C26.5172948,29.6339041 26.1464428,30.1641761 25.8150431,30.7263442 L21.3729521,29.5347843 L25.8146486,30.7267429 C25.5976607,31.0935476 25.3984263,31.4782939 25.2169456,31.8710141 L13.9316023,28.8468688 C14.1130831,28.452155 14.3123174,28.0713958 14.5312779,27.7006041 L14.5296998,27.7002054 C14.8610995,27.1380373 15.2339242,26.6117522 15.6442286,26.1253373 L15.6432423,26.1253373 C15.773435,25.9718375 15.9056004,25.8243182 16.0417109,25.6827794 C16.4835772,25.2202866 16.9491149,24.8235793 17.4324061,24.5006317 Z M18.853085,23.772006 L30.1384283,26.7981449 C29.6551371,26.9695862 29.1797363,27.2147872 28.7181439,27.5237803 L17.4328006,24.4996349 C17.8943931,24.1886483 18.3697938,23.9454408 18.853085,23.772006 Z M20.55644,23.4717843 C20.7951267,23.4737778 21.0278956,23.4976999 21.2547465,23.5375699 L28.4099521,25.4537843 L21.2557329,23.5359751 C21.3760625,23.5579037 21.4963922,23.5858127 21.6127766,23.6157153 L32.8981199,26.6398607 C32.7817354,26.6079646 32.6614058,26.5840425 32.5410761,26.562114 L32.5339521,26.5597843 L32.3112662,26.5278996 C32.1574021,26.5094412 32.0009078,26.4992522 31.8417833,26.4979232 C31.5900774,26.4965277 31.3316645,26.5144693 31.0693064,26.5563328 C30.8824996,26.5864347 30.6951009,26.6263048 30.5057297,26.6801294 C30.3834274,26.714019 30.2611251,26.7538891 30.1388229,26.7977462 L18.8534796,23.7716073 C18.9757818,23.7297437 19.0980841,23.6898736 19.2203864,23.6559841 C19.4117303,23.6021595 19.5991289,23.5622894 19.7845549,23.5303933 C20.0463212,23.4903239 20.3027615,23.4703889 20.5552565,23.4723824 L25.1469521,24.7027843 L20.55644,23.4717843 Z" id="形状结合" fill="url(#linearGradient-3)" fill-rule="nonzero"></path>
            <path d="M30.5173681,41.3732497 C32.7148637,40.7592505 34.4921919,37.7769687 34.4941661,34.7209273 C34.4961371,31.6648858 32.7247268,29.6893235 30.5272312,30.2993357 C28.3317082,30.9133349 26.5405717,33.8816621 26.5385975,36.9377036 C26.5366265,39.9957385 28.3218451,41.9852554 30.5173681,41.3732497 L30.5173681,41.3732497 Z M37.6385164,42.4796443 C38.1218076,43.0178904 38.119835,44.1063435 37.6365438,44.9137125 C37.5753926,45.0133877 37.5102963,45.1030954 37.4412547,45.1828356 C37.3031714,45.3443094 37.1532525,45.4699001 36.9974158,45.5536273 C36.9204837,45.5954909 36.841579,45.6273869 36.7626743,45.651309 C36.6837696,45.671244 36.6048649,45.683205 36.5279329,45.6852697 C36.3720961,45.687192 36.2241498,45.647322 36.0880392,45.5616013 C36.0209702,45.5177442 35.9578465,45.4639196 35.898668,45.4001275 L33.6676379,42.9102412 C33.5532261,43.0318449 33.4368416,43.1454746 33.3204572,43.2551173 C33.2849501,43.2910004 33.2474704,43.32489 33.2099907,43.356786 C33.1291133,43.4305457 33.048236,43.5023118 32.9653861,43.5740779 C32.9239612,43.6079675 32.8825362,43.6438506 32.8411112,43.6757466 C32.7543161,43.7455193 32.6675209,43.8152919 32.5787531,43.879084 C32.5471913,43.9049996 32.5136568,43.9289216 32.4801223,43.9528437 C32.3617652,44.0405578 32.2414356,44.1222915 32.1191333,44.2000382 C32.0974345,44.2139927 32.0777084,44.2259537 32.0560096,44.2379147 C31.9554061,44.3017069 31.8548026,44.3595185 31.7541991,44.4153366 C31.7127742,44.4372651 31.6733218,44.4572002 31.6338695,44.4791287 C31.5490469,44.5229858 31.4622518,44.5668429 31.3774292,44.6047194 C31.3379769,44.6246545 31.2965519,44.6445895 31.2570996,44.6605375 C31.1604413,44.7043946 31.0657557,44.7422712 30.9690975,44.7781543 C30.9414808,44.7901153 30.9138642,44.8020763 30.8862475,44.8120438 C30.7639453,44.8559009 30.641643,44.895771 30.5193407,44.9276671 C30.4936967,44.9356411 30.4680527,44.9416216 30.440436,44.9495956 C30.3358873,44.9775047 30.229366,45.0014267 30.1248173,45.0233553 C30.0893102,45.0293358 30.0518304,45.0373098 30.0163233,45.0432903 C29.9058568,45.0632253 29.7953902,45.0771799 29.6868962,45.0891409 C29.6651975,45.0911344 29.6454713,45.0951214 29.6257451,45.0971149 C29.497525,45.1090759 29.3712775,45.1150564 29.24503,45.1150564 C29.2134681,45.1170499 29.1819062,45.1150564 29.1503444,45.1150564 C29.0517135,45.1130629 28.9550552,45.1090759 28.8603696,45.1011019 C28.8228899,45.0971149 28.7873828,45.0951214 28.7518757,45.0911344 C28.6295734,45.0771799 28.5092437,45.0632253 28.3908867,45.0393033 C28.2626666,45.0153812 28.1423369,44.9854787 28.0220073,44.9495956 C27.9884728,44.9416216 27.9569109,44.9296606 27.925349,44.9196931 C27.832636,44.891784 27.7418956,44.8598879 27.6511552,44.8240049 L27.5604148,44.7901153 C27.446003,44.7402777 27.3315912,44.6884466 27.2211247,44.630635 C27.2053437,44.622661 27.1895628,44.6126935 27.1757545,44.6047194 C27.0790962,44.5548818 26.982438,44.4970702 26.889725,44.4372651 C26.8581631,44.4153366 26.8246286,44.3954015 26.7930667,44.3754665 C26.7102168,44.3176549 26.6253943,44.2578498 26.544517,44.1940576 C26.5208456,44.1761161 26.4952015,44.1561811 26.4715301,44.140233 C26.368954,44.0565059 26.2703232,43.9707852 26.1716923,43.8770905 C26.1499935,43.8571555 26.1302673,43.8352269 26.1105412,43.8172854 C26.0316365,43.7395388 25.9547044,43.6597986 25.879745,43.5760714 C25.8521283,43.5461689 25.8245117,43.5162663 25.796895,43.4843703 C25.719963,43.3946626 25.6430309,43.3009679 25.5680714,43.2012927 C25.5542631,43.1833512 25.5404548,43.1654096 25.5266465,43.1494616 C25.4418239,43.0318449 25.3570014,42.9102412 25.2780967,42.7846504 C25.2563979,42.7507608 25.2346991,42.7148778 25.2130003,42.6789947 C25.1518492,42.581313 25.0926707,42.4796443 25.0354648,42.3739886 C25.013766,42.3341185 24.9920672,42.296242 24.972341,42.2543784 C24.8993542,42.1148331 24.82834,41.9713008 24.761271,41.821788 C23.0016964,37.90854 24.1615953,32.0237165 27.327646,28.7065261 C28.2962011,27.6938261 29.389031,26.9921128 30.5055324,26.6811262 C34.1292303,25.6704197 37.0546217,28.9477401 37.0506764,33.9733633 C37.0487038,36.0824904 36.5259602,38.2813252 35.5692409,40.1711668 L37.6385164,42.4796443 Z" id="Fill-154" fill="url(#linearGradient-4)" fill-rule="nonzero"></path>
            <path d="M32.0008566,23.5874075 L20.8318977,20.6968269 C20.6839514,20.6250608 20.5340325,20.5632622 20.3841136,20.5074441 L31.5530725,23.4000182 C31.7029914,23.4578298 31.8529103,23.5176349 32.0008566,23.5874075" id="Fill-1" fill="#6E6E6E"></path>
            <path d="M31.5530725,23.4006162 L20.3841136,20.5080421 C20.3387434,20.4901006 20.2933732,20.4761461 20.248003,20.4582045 C20.1395091,20.4223214 20.0329877,20.3884319 19.9244938,20.3585293 L31.0934527,23.2511034 C31.2019466,23.281006 31.3084679,23.3148956 31.4169619,23.3527721 C31.4623321,23.3667267 31.5077023,23.3826747 31.5530725,23.4006162" id="Fill-3" fill="#6E6E6E"></path>
            <path d="M31.0934527,23.2507047 L19.9244938,20.3581306 C19.8929319,20.3481631 19.8593974,20.3401891 19.8278355,20.3322151 L30.9967944,23.2247892 C31.0283563,23.2327632 31.0618908,23.2407372 31.0934527,23.2507047" id="Fill-4" fill="#6E6E6E"></path>
            <path d="M20.7606862,8.41943467 L31.9316177,11.3120088 L26.8757997,12.6815459 L26.8739622,12.6814347 L26.6759736,12.7353705 C26.5674796,12.7553056 26.4629309,12.7652731 26.3603548,12.7652731 C26.3007113,12.7669779 26.2423002,12.7650123 26.1847004,12.7603155 L26.1624944,12.7578956 C26.1289778,12.7551554 26.0956839,12.7511425 26.0624194,12.7462341 L26.0526095,12.7446604 L26.0473005,12.7439426 L26.0409622,12.7424347 L26.0339622,12.7414347 L26.0329622,12.7414347 L26.0249622,12.7394347 L26.0119622,12.7374347 L26.0092755,12.7375406 L26.0209622,12.7394347 L26.0084162,12.7376246 L25.9748069,12.7311334 L25.9909622,12.7334347 L25.9697872,12.7301338 L25.9055888,12.7161913 C25.8991688,12.7147071 25.8870105,12.711743 25.8748937,12.7086576 L14.7039622,9.81608348 L14.8379622,9.84408348 L14.8799622,9.85108348 L15.02807,9.86870386 L15.0472452,9.87039198 C15.0949959,9.87328871 15.143227,9.87435886 15.191927,9.8735909 L15.191396,9.87269899 L15.3469861,9.86372822 L15.3469861,9.86372822 L15.5064229,9.84259708 L15.7076299,9.78877248 L15.7068408,9.78897183 L20.7606862,8.41943467 Z" id="形状结合" fill="url(#linearGradient-5)" fill-rule="nonzero"></path>
            <path d="M11.5888051,21.0670206 L22.7577639,23.9576012 L22.5210499,24.2825423 L11.7979025,27.185084 L0.628943639,24.2945034 L11.352091,21.3899682 L11.5888051,21.0670206 Z M22.7571722,23.9574019 L11.5882133,21.0668212 L11.600049,20.9751201 L11.5848598,18.2402321 L11.4215271,17.9615403 L22.590486,20.8521209 C22.6240069,20.8612956 22.6543138,20.8804643 22.679481,20.9080349 L22.6833545,20.9123915 L22.6991441,20.9328073 L22.7131365,20.9554931 L22.72204,20.9731418 C22.7254061,20.9799726 22.7304539,20.992397 22.7348213,21.0055009 C22.7379825,21.0167462 22.7412666,21.0283002 22.7440146,21.0402693 C22.7467943,21.0509047 22.7487306,21.0617349 22.7502462,21.0728918 L22.7518103,21.0874161 L22.7530302,21.1022017 C22.7531933,21.1021624 22.7532169,21.1025178 22.75324,21.1028735 L22.7542132,21.1046978 L22.7542132,21.1332049 L22.5219436,21.0725403 L22.7538187,21.1328062 L22.7695997,23.8678935 L22.7571722,23.9574019 Z" id="形状结合" fill="#FFEAA4"></path>
            <path d="M18.3972935,-2.69118061e-13 L26.0358593,1.94812242 L26.0713664,8.12997791 L25.8694212,8.078 L26.0723527,8.13037661 L26.0762979,8.2798894 L26.0766925,8.2798894 C26.1240353,9.00552481 26.4791064,9.52981632 26.960425,9.65540707 L15.7914661,6.76283296 C15.3101475,6.63724222 14.9550764,6.1129507 14.9077336,5.38731529 L14.9073391,5.38731529 C14.9033938,5.33747769 14.9014212,5.2896336 14.9014212,5.2378025 L18.4324212,6.151 L18.3972935,-2.69118061e-13 Z" id="形状结合" fill="url(#linearGradient-6)" fill-rule="nonzero"></path>
            <path d="M11.5436321,13.1187213 L22.712591,16.0112954 L22.4758769,16.318295 L11.7527296,19.2208367 L0.583770704,16.3302561 L11.3069181,13.4257209 L11.5436321,13.1187213 Z M22.7127883,16.0106974 L11.5438294,13.1181233 L11.5556651,13.0284156 L11.5396869,10.2933283 L22.7086458,13.1859024 L22.7244267,15.9209897 L22.7127883,16.0106974 Z" id="形状结合" fill="#FFEAA4"></path>
            <path d="M27.4498313,9.6476324 C26.6962915,9.8509698 26.0768897,9.16919148 26.0709719,8.13057596 L26.0374374,1.94872047 L31.9138642,8.43956906 L27.4498313,9.6476324 Z" id="Fill-35" fill="url(#linearGradient-7)" fill-rule="nonzero"></path>
            <path d="M11.3753679,10.0128423 L22.5443268,12.9054164 C22.6330945,12.9293385 22.7001635,13.0250267 22.708054,13.1585914 L22.7090403,13.1579934 L22.7090403,13.1859024 L22.7090403,13.1859024 L11.5400814,10.2933283 C11.5400814,10.2833608 11.5400814,10.2753868 11.5381088,10.2654193 L11.5383679,10.2648423 L11.5268018,10.1906948 C11.5022466,10.0970479 11.4463821,10.0319799 11.3753679,10.0128423 Z" id="形状结合" fill="#727272"></path>
            <polygon id="Fill-51" fill="#878787" points="11.7343842 27.185084 0.565425363 24.2945034 0.628549115 24.2945034 11.797508 27.185084"></polygon>
            <polygon id="Fill-55" fill="#939393" points="11.689014 19.2383795 0.520055166 16.3458054 0.583178918 16.3298574 11.7521378 19.220438"></polygon>
            <path d="M0.203859736,44.3542914 C0.365916553,44.4094476 0.890200964,44.5514166 1.78647544,44.7835367 C3.02747087,45.1049339 4.88896402,45.5870295 7.37095488,46.2298238 C7.4656405,47.7050167 8.17972795,48.7516062 9.14433778,49.0007942 L1.97636522,47.1088181 C1.05998588,46.8720895 0.369702993,45.9139069 0.221784563,44.5555962 L0.203859736,44.3542914 Z M-1.46549439e-13,8.96391904 L7.16895887,10.8564931 L7.37016583,45.9521287 L7.37115214,45.9515307 L7.37115214,46.2286277 L0.203179577,44.3366516 L0.201206959,44.0595546 L-1.46549439e-13,8.96391904 Z M0.3818987,6.91180616 L7.55164662,8.80338352 C7.49838595,8.94292879 7.44907052,9.08646106 7.40567294,9.23198685 L5.337,8.68620727 L7.40547568,9.2325849 C7.36405072,9.37013666 7.3285436,9.51366894 7.29698173,9.65720122 L0.127233813,7.76562386 C0.158795689,7.62209159 0.194302799,7.48055281 0.235727761,7.33901404 L0.236,7.33827752 L0.305213204,7.12386513 C0.329624342,7.05234818 0.355268367,6.98157879 0.3818987,6.91180616 Z M2.44071932,4.53435345 L9.61046724,6.42593081 C9.0107916,6.67511879 8.46832185,7.17748176 8.04815438,7.82537052 L8.047,7.82527752 L7.94347416,7.99348196 C7.87596681,8.10807152 7.81196634,8.22679575 7.75147274,8.34906398 C7.6784859,8.49558652 7.61338954,8.64709281 7.5522384,8.80258611 L0.382490485,6.91100876 C0.443641619,6.75551546 0.508737989,6.60400916 0.581724827,6.45648988 C0.67246522,6.27408427 0.771096083,6.10064944 0.879590032,5.93518861 L3.709,6.68020727 L0.878406461,5.93379316 C1.29857394,5.28590441 1.84104368,4.78553494 2.44071932,4.53435345 Z M16.7761234,0.651207268 L24.0411487,2.50749961 L9.89551043,6.33702053 L9.89610222,6.33682118 L9.70673096,6.38865228 L9.704,6.38820727 L9.65879636,6.40679317 C9.64301542,6.41327206 9.62723449,6.41975094 9.61145355,6.42573146 L2.556,4.56320727 L2.44170563,4.53435345 L2.443,4.53320727 L2.44170563,4.5341541 C2.47326751,4.52019957 2.50482938,4.50823855 2.53639126,4.49627752 L2.558,4.50220727 L2.63107689,4.48252235 L2.6304851,4.4827217 L16.7761234,0.651207268 Z M7.21886609,10.0987623 C7.1971673,10.2562491 7.18335898,10.4157294 7.17546851,10.5772033 C7.17172053,10.6701005 7.16974792,10.7637952 7.16974792,10.8554964 L2.29682939e-12,8.96391904 C2.29682939e-12,8.87022436 0.00197261725,8.77852318 0.00591785175,8.686822 L6.265,10.3362073 L0.00572059003,8.6856259 C0.013611059,8.52614559 0.0274193798,8.36467178 0.0491181695,8.20718497 C0.068844342,8.05906763 0.0944883663,7.91154835 0.126050242,7.76602256 L7.29777078,9.65759992 C7.26423628,9.8031257 7.23859226,9.94865149 7.21886609,10.0981643 L1.546,8.60120727 L7.21886609,10.0987623 Z" id="形状结合" fill="url(#linearGradient-8)" fill-rule="nonzero"></path>
            <path d="M22.7244267,15.9209897 L22.7086458,13.1859024 C22.7086458,12.994526 22.594234,12.8689353 22.4561508,12.9068119 L11.7330034,15.8093535 L11.4962893,16.1342946 L11.4844536,16.2240023 L11.5002346,18.9590896 L11.6896058,19.2381802 L11.7527296,19.2202386 L22.4758769,16.317697 L22.712591,16.0106974 L22.7244267,15.9209897 M22.7697969,23.8670961 L22.754016,21.1320088 C22.754016,20.942626 22.6396042,20.8170352 22.501521,20.8549118 L11.7783736,23.7594469 L11.5416595,24.0823945 L11.5298238,24.1721022 L11.5456048,26.909183 L11.734976,27.1842866 L11.7980998,27.1842866 L22.5212471,24.2817449 L22.7579612,23.9568038 L22.7697969,23.8670961 M26.6755791,12.7353705 L26.8748134,12.6815459 L31.9306314,11.3120088 L32.0016456,23.5880056 C31.8517267,23.518233 31.7037804,23.4564343 31.5538615,23.4006162 C31.5084913,23.3826747 31.4611485,23.3667267 31.4157783,23.3527721 C31.309257,23.3148956 31.200763,23.281006 31.0942417,23.2511034 C31.040981,23.2351554 30.989693,23.2231944 30.9384049,23.2092399 C30.8318836,23.1833243 30.7253623,23.1613958 30.6168683,23.1394672 C30.5675529,23.1294997 30.5202101,23.1195322 30.4708947,23.1115582 C30.3190031,23.0896296 30.1671116,23.0696946 30.0152201,23.0577336 C29.8534655,23.0457725 29.6956561,23.0417855 29.5378467,23.0417855 C29.4924765,23.043779 29.4490789,23.0457725 29.4037087,23.047766 C29.2912695,23.0497595 29.1768577,23.0577336 29.0644186,23.0677011 C29.0111579,23.0716881 28.9578972,23.0776686 28.9046366,23.0836491 C28.79417,23.0976036 28.6837034,23.1115582 28.5732369,23.1314932 C28.525894,23.1394672 28.4765786,23.1474412 28.4292358,23.1574088 C28.2832621,23.1853178 28.1392611,23.2172139 27.9932874,23.2570839 C27.7881352,23.3109085 27.6204627,23.3647332 27.4508176,23.4245383 C27.4074201,23.4404863 27.3620499,23.4584278 27.3166797,23.4743759 C27.1845143,23.5242135 27.0543216,23.5780381 26.9241288,23.6358497 C26.8807313,23.6537912 26.8393063,23.6717327 26.7959087,23.6916678 C26.6302089,23.7694144 26.4664816,23.8511481 26.304727,23.9388623 C26.0837939,24.064453 25.9476833,24.1441932 25.8115727,24.2299138 C25.7642299,24.2618099 25.7168871,24.2917125 25.6695443,24.3236085 C25.5393515,24.4093292 25.4111314,24.4990369 25.2848839,24.590738 C25.2513494,24.6146601 25.2158423,24.6385821 25.1823078,24.6644977 C25.0284437,24.7801209 24.8745795,24.9037181 24.722688,25.0293089 C24.681263,25.0651919 24.6418107,25.101075 24.6003857,25.1389516 C24.4840013,25.2386268 24.3676169,25.3442825 24.2551777,25.4499382 C24.2098075,25.4937953 24.1644373,25.5356589 24.1210397,25.5795159 C23.9770387,25.7170677 23.8350102,25.8606 23.696927,26.0121063 C23.5351724,26.1835476 23.3951166,26.3470149 23.2550608,26.5144693 C23.2156084,26.5623134 23.1761561,26.6101574 23.1367037,26.659995 C23.0301824,26.7895728 22.9276063,26.9251311 22.8230576,27.0606893 C22.7875505,27.1085334 22.7520434,27.154384 22.7165362,27.2022281 C22.5863435,27.3816434 22.4581234,27.5650458 22.3318759,27.7544287 C22.3082045,27.7903117 22.2845331,27.8281883 22.2608617,27.8640714 C22.1563129,28.0235517 22.0576821,28.1850255 21.9570786,28.3504863 C21.9215715,28.4122849 21.888037,28.4700966 21.8525299,28.5299017 C21.753899,28.697356 21.6592134,28.8707908 21.5665004,29.0442257 C21.5448016,29.0860892 21.5250754,29.1239658 21.5033766,29.1638359 C21.3929101,29.3751473 21.2863887,29.5904457 21.1838126,29.8117247 C21.1581686,29.8695363 21.130552,29.9293414 21.104908,29.9891465 C21.0260033,30.1625813 20.9510438,30.3360162 20.8760844,30.5154315 C20.8484677,30.5812171 20.8228237,30.6489963 20.795207,30.7147819 C20.702494,30.9480219 20.6117536,31.1852488 20.5269311,31.4284563 C18.6608352,36.7909817 19.4972249,42.5801169 22.5409733,45.3471003 L22.7047005,45.4926261 L22.7934683,45.5544247 L10.1253203,48.9852448 C8.69517283,49.3719846 7.49582155,48.1718953 7.37154666,46.228229 L7.36957404,45.951132 L7.17024679,10.8554964 C7.158504,8.86398603 8.2789506,6.91433925 9.70712548,6.38805423 L9.89649674,6.33622313 L24.042135,2.50670221 L24.0953957,9.63746553 C24.1072314,11.6449239 25.2316232,12.986552 26.6755791,12.7353705" id="Fill-81" fill="url(#linearGradient-9)" fill-rule="nonzero"></path>
        </g>
    </g>
</svg>