<?xml version="1.0" encoding="UTF-8"?>
<svg width="50px" height="50px" viewBox="0 0 50 50" version="1.1" xmlns="http://www.w3.org/2000/svg" xmlns:xlink="http://www.w3.org/1999/xlink">
    <title>公安备案</title>
    <defs>
        <linearGradient x1="87.5562733%" y1="104.595506%" x2="93.9900497%" y2="-121.509247%" id="linearGradient-1">
            <stop stop-color="#003B7C" offset="0%"></stop>
            <stop stop-color="#4EA2FF" offset="100%"></stop>
        </linearGradient>
        <linearGradient x1="57.3645968%" y1="180.078827%" x2="70.3128971%" y2="-53.8229511%" id="linearGradient-2">
            <stop stop-color="#003B7C" offset="0%"></stop>
            <stop stop-color="#4EA2FF" offset="100%"></stop>
        </linearGradient>
        <linearGradient x1="60.7363258%" y1="156.654682%" x2="73.2105226%" y2="32.6841499%" id="linearGradient-3">
            <stop stop-color="#003B7C" offset="0%"></stop>
            <stop stop-color="#4EA2FF" offset="100%"></stop>
        </linearGradient>
        <linearGradient x1="27.1173039%" y1="54.0917199%" x2="73.2105226%" y2="48.7202833%" id="linearGradient-4">
            <stop stop-color="#003B7C" offset="0%"></stop>
            <stop stop-color="#4EA2FF" offset="100%"></stop>
        </linearGradient>
        <linearGradient x1="46.3398611%" y1="0%" x2="54.9353151%" y2="104.705303%" id="linearGradient-5">
            <stop stop-color="#C3EEFF" offset="0%"></stop>
            <stop stop-color="#25A8FF" offset="100%"></stop>
        </linearGradient>
    </defs>
    <g id="页面-1" stroke="none" stroke-width="1" fill="none" fill-rule="evenodd">
        <g id="编组-63" transform="translate(5.000000, -0.000594)">
            <path d="M30.9564659,36.7653499 C30.95529,36.806441 30.9508948,36.8476805 30.9464765,36.88892 L30.9468158,36.8894644 C30.9408774,36.9280646 30.9349389,36.9651801 30.9275157,37.0008111 L30.9157872,37.0544617 L30.9157872,37.0544617 L30.9004818,37.1065421 L30.9015348,37.1071101 L30.8673885,37.2110337 C30.8543238,37.2485947 30.8394776,37.2842256 30.8231468,37.3183719 L30.7928976,37.3797425 L30.7928976,37.3797425 L30.7599018,37.4384779 L30.7033006,37.5249572 L30.7033006,37.5249572 L30.6418743,37.6044588 C30.583974,37.6697822 30.5231045,37.7261978 30.4562964,37.7707365 L30.3794301,37.8166856 L30.298481,37.8509062 C30.2851194,37.8568447 30.2702732,37.8612985 30.2569116,37.8642678 L30.2575054,37.8642678 L17.3680094,41.4199396 L8.87448183,39.1677667 L21.7624932,35.6120948 C21.7782302,35.607641 21.7915918,35.6046717 21.806438,35.5987332 L21.807384,35.5977921 L21.8864592,35.5645127 C21.9128113,35.5511511 21.938421,35.5359337 21.9629173,35.5188605 C22.0295769,35.4740249 22.091931,35.4176092 22.1468621,35.3522858 L22.1474818,35.3515421 L22.209773,35.2727843 C22.2296298,35.2449476 22.2485587,35.2159974 22.2663742,35.186305 L27.9974818,36.7057921 L22.2657804,35.1851173 C22.2880497,35.1480017 22.3103191,35.1079169 22.3296192,35.0663475 C22.34595,35.030568 22.3607962,34.9964217 22.3741578,34.9593061 C22.3872225,34.9247144 22.3976149,34.8905681 22.4080072,34.8549372 L29.1204818,36.6345421 L22.4078588,34.8544918 C22.4182511,34.8188608 22.4271589,34.7847145 22.4330974,34.7490835 L24.0774818,35.1845421 L22.4339881,34.7486382 C22.4414113,34.7115226 22.4488344,34.674407 22.4532882,34.6372914 C22.4587813,34.5961674 22.4617506,34.5545979 22.4632352,34.5130285 C22.4644229,34.4938769 22.4644229,34.4745768 22.4644229,34.4537921 L22.4666498,32.0476637 C22.4666498,32.0179713 22.4651652,31.9882788 22.4636806,31.960071 C22.4399266,31.6006438 22.2662258,31.3363809 22.0242322,31.2725421 L30.5177598,33.524715 C30.7597534,33.5900384 30.9334542,33.8528167 30.9572082,34.2120954 L30.9598063,34.2556506 L30.9594351,34.3014697 L30.9579505,36.7065588 L30.9564659,36.7653499 L30.9564659,36.7653499 Z" id="形状结合" fill="#FFEAA4" fill-rule="nonzero"></path>
            <path d="M30.0183327,3.19372078 L38.5118603,5.44589371 C38.4970141,5.44886296 38.4806832,5.45183221 38.465837,5.45480145 L29.9723094,3.20262852 C29.9886402,3.19817465 30.0034865,3.19669002 30.0183327,3.19372078 Z M30.1080039,3.18674305 L30.1480887,3.18878441 L30.1480887,3.18878441 L30.1877282,3.1940177 C30.2025744,3.19550233 30.215936,3.19995619 30.2292976,3.20292544 L38.7228252,5.45509838 C38.7094636,5.45212913 38.6946174,5.44915988 38.6812558,5.44619064 L38.6793094,5.44559459 L38.6416163,5.44095734 C38.6282547,5.4396583 38.6148931,5.43891599 38.6015315,5.43891599 L30.1080039,3.18674305 Z M30.1071131,3.18659459 L38.6021254,5.43876752 C38.5724329,5.43876752 38.5427404,5.44173677 38.5115634,5.44619064 L30.0180358,3.19253308 C30.0492128,3.18807921 30.0789053,3.18659459 30.1071131,3.18659459 Z" id="形状结合" fill="#8B8B8B"></path>
            <path d="M15.4979783,25.3209858 L15.5143092,25.3218766 C15.5350939,25.3218766 15.5558786,25.3248458 15.578148,25.3278151 L15.5956159,25.3319858 C15.6038319,25.3343474 15.6105128,25.3358321 15.6171936,25.3373167 L19.5888983,26.3886774 C19.7243222,26.2388082 19.8042908,26.1482101 19.8511896,26.092099 L19.8512939,26.0914055 L19.8855449,26.0518547 C19.9032504,26.0298603 19.9121581,26.0173235 19.9171069,26.0094055 L28.4106345,28.2615784 C28.404696,28.2734554 28.3868805,28.2957247 28.3453111,28.3447173 L28.3432939,28.3444055 L28.3161724,28.3775022 C28.220677,28.4877755 28.0329464,28.6970183 27.6588215,29.1058834 L27.6506979,29.1036292 L27.6585245,29.1066258 L27.6438267,29.1070711 C27.6245266,29.1070711 27.5814726,29.1026173 27.453795,29.0862864 L23.3096979,27.9866292 L20.2532255,31.0428709 L20.2516016,31.0426292 C20.2297382,31.0645192 20.1977431,31.0894245 20.0501292,31.1950448 L11.5566016,28.9428719 C11.7288178,28.8196482 11.743664,28.8062865 11.7599949,28.7899557 L11.7606016,28.7896292 L15.0125066,25.5393739 C15.0531853,25.501516 15.0947548,25.4673696 15.1378088,25.4376772 C15.1496858,25.430551 15.1615628,25.4231279 15.1734398,25.4157048 C15.2150092,25.3904662 15.2580633,25.3711661 15.3011173,25.3563199 C15.3156666,25.3500844 15.3290282,25.3471152 15.3438745,25.3426613 C15.3646592,25.3367228 15.3869285,25.3307843 15.4091979,25.3278151 L15.4106159,25.3279858 L15.4534396,25.3224705 C15.4682859,25.321357 15.4831321,25.3209858 15.4979783,25.3209858 Z M19.9622395,25.7172317 L28.4542824,27.9694046 C28.4542824,27.979797 28.4542824,27.991674 28.4498286,28.0243357 C28.4453747,28.0613028 28.4349824,28.1266262 28.4171669,28.2468806 L19.9236393,25.9947077 C19.9429394,25.8744532 19.9518471,25.8091298 19.956301,25.7720143 C19.9607549,25.739501 19.9607549,25.727624 19.9622395,25.7172317 Z M28.4556186,27.9655446 L19.962091,25.7133717 C19.9591217,25.5990557 19.9561525,25.5485785 19.9546679,25.5218553 C19.9533847,25.5055139 19.9519531,25.4980491 19.9518527,25.4895489 L19.9511047,25.4893421 L15.9022412,20.9520897 C15.8991235,20.9302657 15.8976389,20.9079964 15.8961543,20.885727 L15.8955604,20.8851332 L15.8931479,20.8129434 L15.8931479,20.8129434 L15.8942243,20.7393432 C15.8957089,20.6977738 15.9001628,20.6562043 15.9061013,20.6146349 L15.905062,20.6146349 L15.9135986,20.5574769 L15.9239167,20.5001705 C15.9328245,20.4630549 15.9417322,20.4274239 15.9506399,20.391793 C15.9610323,20.354232 15.9729093,20.3200857 15.9862709,20.2844547 L15.9855286,20.2849001 C15.9988902,20.2477846 16.0137364,20.2136382 16.0300673,20.1780073 L16.0591288,20.1199956 L16.0898976,20.0636913 C16.0958361,20.053299 16.1032592,20.0429066 16.1091977,20.0339989 L22.1737337,15.513567 C22.1767029,15.5079254 22.1811568,15.5019869 22.1856106,15.4945638 L22.1845714,15.4942669 C22.20981,15.4541821 22.2320793,15.411128 22.2513794,15.3680739 L22.2656979,15.3346292 L17.9967471,14.2032388 C17.8289847,14.1587001 17.6879456,14.0250841 17.6092606,13.8276292 L15.9966633,9.74491624 L15.9974906,9.74404896 L15.9475282,9.64247132 C15.8749836,9.51572016 15.7802052,9.43210619 15.6768755,9.38934905 C15.6560908,9.38192594 15.6367907,9.37450283 15.6174906,9.37004896 L24.1110182,11.6222219 C24.1303183,11.6266758 24.151103,11.6340989 24.1689185,11.641522 C24.3010499,11.696453 24.4153659,11.8122536 24.4910816,11.9978315 L24.4916755,11.9970892 L25.6516016,14.938049 L30.4313547,16.2067374 C30.6926483,16.2750301 30.8544722,16.5675008 30.8782262,16.9178718 L30.8789685,16.9172779 C30.8819377,16.9662705 30.8819377,17.015263 30.8804531,17.0657402 L30.8765189,17.1273521 L30.8706546,17.1885185 L30.8506979,17.2996292 L30.8520968,17.3003106 L30.8398487,17.3530147 L30.8246979,17.4046292 L28.1486979,16.6946292 L30.8253736,17.4057189 C30.8149812,17.4410529 30.8045889,17.4766838 30.7912273,17.5108302 C30.7775687,17.5482426 30.7627225,17.5853582 30.744907,17.6209892 L29.1166016,17.188049 L30.744907,17.6217315 L30.71373,17.684828 L30.6776536,17.7482214 L30.6672613,17.7657399 L28.0394787,22.0147306 L28.0399241,22.0147306 L28.0297173,22.0290201 L28.0297173,22.0290201 L28.0213663,22.04472 C27.999097,22.0818356 27.9797969,22.1189512 27.9604968,22.159036 C27.9444629,22.19437 27.9296166,22.230001 27.916255,22.2656319 L27.9146979,22.2656292 L27.8813664,22.3720794 L27.8668913,22.4266578 L27.8536979,22.4806292 L27.8550886,22.4810507 L27.844325,22.5387654 L27.8353431,22.5953667 C27.8308892,22.6369361 27.8264353,22.6785055 27.8249507,22.720075 L27.8238744,22.7936752 L27.8256979,22.8656292 L27.8268807,22.8664588 C27.8283654,22.8887281 27.82985,22.9109975 27.8328192,22.9332668 L28.4446323,27.741515 L25.3246979,26.9136292 L28.4453747,27.7422573 C28.4468593,27.7496804 28.4468593,27.7571035 28.4483439,27.7734344 C28.4496801,27.8007515 28.4526493,27.8512286 28.4556186,27.9655446 Z" id="形状结合" fill="#FFEAA4" fill-rule="nonzero"></path>
            <path d="M8.65624227,39.180089 C8.67999623,39.1845429 8.70671945,39.1860275 8.73195804,39.1860275 L8.73424227,39.1864698 L8.77193151,39.1853223 C8.78584985,39.1843945 8.79995376,39.1829098 8.81405768,39.1806829 L17.3075853,41.4328558 C17.2793774,41.4373097 17.2526542,41.4387943 17.2244464,41.4387943 L17.2202423,41.4374698 L17.1868854,41.4369014 C17.1746373,41.4359735 17.1623892,41.4344889 17.1497699,41.432262 L8.65624227,39.180089 Z M8.87373952,39.1674698 L17.3687517,41.4196427 C17.347967,41.4255812 17.3271823,41.430035 17.3078822,41.4330043 L8.81435461,39.1808314 C8.8336547,39.1763775 8.85443942,39.1734082 8.87373952,39.1674698 Z" id="形状结合" fill="#FFEAA4" fill-rule="nonzero"></path>
            <path d="M-8.31335001e-13,32.3563168 L8.4935276,34.6084898 C8.4935276,34.9113528 8.50391996,35.2127313 8.5261893,35.5126251 C9.01774794,42.3352096 15.0230476,48.3419939 20.1835968,49.7093316 L11.6900692,47.4571586 C6.53100459,46.0898209 0.524220345,40.0815521 0.032810166,33.2597099 C0.0118769832,32.9605583 -8.31335001e-13,32.6591799 -8.31335001e-13,32.3563168 Z" id="形状结合" fill="url(#linearGradient-1)" fill-rule="nonzero"></path>
            <polygon id="Fill-152" fill="url(#linearGradient-2)" fill-rule="nonzero" points="8.49367606 34.6078959 0.000148462295 32.355723 0.01944856 12.4305991 8.51149154 14.682772"></polygon>
            <path d="M0.0724495974,12.0477148 L8.5659772,14.3013724 L8.55280117,14.3520351 L8.55280117,14.3520351 L8.54044168,14.4035144 C8.53301857,14.4391454 8.52708008,14.4747763 8.52262621,14.5104073 L4.27526086,13.384 L8.52218082,14.5105557 C8.51772695,14.5491559 8.51475771,14.5892408 8.51327308,14.6278409 C8.51178846,14.6465472 8.51178846,14.6643627 8.51178846,14.6821781 L0.0182608616,12.4300052 C0.0182608616,12.4121897 0.0182608616,12.3928896 0.0197454845,12.3750742 C0.0212301074,12.3355832 0.0241993532,12.296983 0.0301378448,12.2583828 L0.0290986088,12.2582343 C0.0335104599,12.2214689 0.0408357975,12.187617 0.0481886208,12.1523495 L0.0472110082,12.1516384 L0.0724495974,12.0477148 L0.0724495974,12.0477148 Z M0.106744386,11.9448304 L8.60027198,14.1970034 C8.588395,14.2311497 8.57651802,14.265296 8.56612566,14.300927 L0.0725980597,12.0472694 C0.08299042,12.0131231 0.0933827803,11.9789768 0.106744386,11.9448304 Z M6.77091965,8.33571218 L15.2644472,10.5878851 C13.8441085,11.5338868 12.2614263,12.3945079 10.5261411,13.0647661 L9.94148031,13.2808426 C9.70245602,13.3654661 9.45897787,13.4471204 9.21401509,13.5243207 C9.20510735,13.52729 9.19768424,13.5287746 9.19026112,13.5317439 L9.10912648,13.5665583 L9.10912648,13.5665583 L9.02947646,13.6125073 C8.98295828,13.6441793 8.93907943,13.6811299 8.89696012,13.7229193 L8.83439702,13.7894744 L8.7700015,13.8724277 L8.7700015,13.8724277 L8.71117331,13.9639176 C8.68741935,14.0025178 8.66515001,14.0440872 8.64584991,14.0871413 C8.62981598,14.1223269 8.61348513,14.1594424 8.60012352,14.196558 L0.106595924,11.9443851 C0.121442153,11.9072695 0.136288382,11.8701539 0.152619234,11.834523 C0.171622407,11.7919143 0.19389175,11.7503448 0.217645717,11.71026 L0.218260862,11.71 L0.277216211,11.619698 C0.298186509,11.5907479 0.320084697,11.5632824 0.34235404,11.5373015 L0.341463266,11.5370045 C0.400848182,11.4672273 0.467656213,11.4078423 0.537433489,11.3603344 L0.536542715,11.3607798 C0.588504517,11.3266335 0.641950941,11.2984256 0.696881988,11.2791255 C0.70415664,11.2766017 0.713064378,11.2736324 0.719002869,11.2721478 C0.96545027,11.1949474 1.20892843,11.1132932 1.44943734,11.0286697 L1.44854656,11.0288181 C3.41418728,10.33253 5.19276551,9.3868252 6.77091965,8.33571218 Z M14.9629203,0.290392239 L23.4564479,2.54256517 C23.432694,2.57077301 23.4104246,2.59898084 23.3881553,2.63164255 C23.0244227,3.14977594 22.4454197,3.92771834 21.6659927,4.84224604 L21.666735,4.84239451 C20.21032,6.54971084 18.0501937,8.7321065 15.2650411,10.5878851 L6.7715135,8.33571218 C9.55666606,6.47993356 11.7167924,4.2975379 13.1732074,2.59022157 C13.9518921,1.6755454 14.5308951,0.897603004 14.8946277,0.37798499 C14.916897,0.346807909 14.9391664,0.317115451 14.9629203,0.290392239 Z M15.3168544,0.0329586283 L23.810382,2.28513156 C23.7584202,2.30294704 23.7064584,2.32967025 23.6544966,2.36381658 L17.3292609,0.686 L23.6540512,2.36322273 C23.6199049,2.3869767 23.584274,2.41518453 23.5501276,2.44487699 C23.5189506,2.47456945 23.4877735,2.50723115 23.4565964,2.5428621 L14.9630688,0.28920454 C14.9942459,0.253573591 15.025423,0.22239651 15.0580847,0.192704052 C15.0907464,0.161526971 15.1263773,0.134803759 15.1620083,0.111049793 L15.160969,0.111643642 C15.2114462,0.0774973153 15.2648926,0.0507741031 15.3168544,0.0329586283 Z M15.5021354,0.000593849159 L23.995663,2.25276679 L23.9533512,2.25406583 L23.9533512,2.25406583 L23.9113364,2.25811143 C23.8771901,2.26404992 23.8430437,2.27295766 23.810382,2.28483464 L15.3168544,0.0326617038 C15.3510008,0.0207847206 15.3851471,0.0118769832 15.4178088,0.00593849159 L15.4202609,0.006 L15.4598236,0.00189289419 C15.4739275,0.000965004884 15.4880315,0.000593849159 15.5021354,0.000593849159 Z M23.9959599,2.25217294 L15.5024323,-1.07469589e-13 C15.5276709,-1.07469589e-13 15.5543941,0.0029692458 15.5796327,0.00742311449 L15.5802609,0.007 L15.5992297,0.0106150537 C15.6059105,0.0120996766 15.6125913,0.0139554552 15.6192721,0.0161823896 L24.0862609,2.261 L24.0727149,2.25944759 L24.0727149,2.25944759 C24.0479217,2.25514218 24.0226831,2.25217294 23.9959599,2.25217294 Z" id="形状结合" fill="url(#linearGradient-3)" fill-rule="nonzero"></path>
            <path d="M23.0196719,3.47223603 C23.8258221,3.61327521 24.6898726,3.69938334 25.6118235,3.70829107 L25.6157721,3.70851612 L26.0746656,3.70664287 C26.8548487,3.69258706 27.6738657,3.62371706 28.5299982,3.48886381 L37.0235258,5.74103675 C35.9961668,5.90434526 35.0222542,5.96966867 34.1047572,5.96076093 L34.0997721,5.95951612 L33.6490976,5.94968675 C32.8965793,5.92136894 32.1837542,5.84218905 31.5131995,5.72589359 L23.0196719,3.47223603 Z M29.9721609,3.20248005 L38.4656885,5.45465299 C37.9742783,5.5719382 37.4932605,5.66695406 37.0241197,5.74118521 L28.5305921,3.48901227 C28.9997329,3.41478113 29.4807507,3.31976526 29.9721609,3.20248005 Z M21.7017721,3.18451612 C22.1219204,3.29586283 22.5613688,3.39384794 23.0201173,3.47253296 L31.5136449,5.72619052 C31.0548964,5.64602088 30.615448,5.54803577 30.1952997,5.43668905 L21.7017721,3.18451612 Z" id="形状结合" fill="url(#linearGradient-4)" fill-rule="nonzero"></path>
            <path d="M30.9579505,36.7065588 L30.9594405,34.3014697 C30.9609198,33.772944 30.6521182,33.4210884 30.2601778,33.5294658 L17.3721664,37.0851377 C16.9891337,37.1905459 16.6699397,37.7161024 16.6699397,38.2431435 L16.6684551,40.6482326 C16.6684551,41.1886354 16.9846798,41.5256448 17.3677125,41.4202365 L30.2572085,37.8645647 C30.649149,37.7561872 30.9579505,37.2469616 30.9579505,36.7065588 M17.4063127,19.7388037 C16.8258251,20.0149436 16.582347,21.0853567 17.011403,21.5322282 L19.633247,24.3337116 C19.8010094,24.5059279 19.8752406,24.8191833 19.838125,25.1383772 L19.2175526,30.2870494 C19.2145834,30.3108034 19.2116141,30.3345574 19.2101295,30.3583113 C19.2071603,30.5379507 19.2086449,30.5587354 19.2101295,30.5810048 C19.2502143,30.7947905 19.2561528,30.8126059 19.2620913,30.8304214 C20.019249,31.2104849 20.0355799,31.2030618 20.0504261,31.1956386 C20.2226423,31.0724149 20.2374886,31.0575687 20.2538194,31.0427225 L23.5051436,27.792883 C23.5571054,27.7424058 23.6105518,27.7008363 23.6669675,27.6681746 C23.7218985,27.6355129 23.7797988,27.6102743 23.8376991,27.5939435 C23.8941148,27.5790973 23.9520151,27.5716741 24.0069461,27.5746434 C24.0618772,27.576128 24.1168082,27.588005 24.16877,27.6102743 L27.4067325,29.0696586 C27.4230634,29.0755971 27.4379096,29.0815356 27.4542405,29.0859895 C27.6279414,29.1082588 27.6442722,29.1082588 27.6591184,29.1052896 C28.4073684,28.288747 28.4118222,28.2679623 28.4177607,28.2471776 C28.4533917,28.0096379 28.4548763,27.9873686 28.4548763,27.9650992 C28.4504224,27.7854598 28.4474532,27.7646751 28.4444839,27.7409212 L27.8328193,22.9337122 C27.7957037,22.6338184 27.8714195,22.2804781 28.0391819,22.0147306 L30.6669644,17.7657399 C31.0871127,17.084298 30.8555115,16.1445317 30.2676009,16.1920396 L26.6436364,16.4711487 C26.4105506,16.4830257 26.204188,16.3345634 26.101749,16.0792083 L24.4909332,11.9979799 C24.4152174,11.8124021 24.3009014,11.6966015 24.16877,11.6416705 C24.066331,11.600101 23.9549843,11.5956471 23.8436376,11.6268242 C23.794645,11.6401858 23.7471371,11.6594859 23.6996292,11.6847245 C23.6847829,11.6936323 23.6684521,11.7040246 23.6536059,11.714417 C23.5303822,11.793102 23.4130969,11.9163257 23.3210503,12.0796342 C23.310658,12.1004189 23.298781,12.1212036 23.286904,12.143473 C23.2661193,12.1865271 23.2468192,12.2310657 23.2275191,12.2800583 C23.2186113,12.3038123 23.2097036,12.3290509 23.2022805,12.3528048 L21.5721646,17.3292608 C21.4697256,17.6543932 21.263363,17.9038098 21.0302772,18.0196104 L17.4063127,19.7388037 M38.4656885,5.45524684 C38.857629,5.36023097 39.1753383,5.69724037 39.1753383,6.2242815 L39.1560382,26.1494054 C39.148615,35.0645659 29.266965,48.2970098 23.8035528,49.803902 C18.1901936,51.3523637 8.48521371,43.5224626 8.49411532,34.6073021 L8.51193692,14.6821781 C8.51193692,14.155137 8.82964622,13.6429421 9.21416355,13.5241723 C16.9178718,11.1027523 21.9106586,4.73520473 23.3878584,2.63149409 C23.4398202,2.55874756 23.4932666,2.49787803 23.5511669,2.4444316 C23.7411986,2.27221535 23.9594382,2.21134581 24.1509545,2.27963846 C24.2073702,2.30042318 24.2623012,2.33160026 24.3127784,2.37613895 C25.787009,3.66776087 30.7604957,7.28430225 38.4656885,5.45524684" id="Fill-194" fill="url(#linearGradient-5)" fill-rule="nonzero"></path>
        </g>
    </g>
</svg>