<?xml version="1.0" encoding="UTF-8"?>
<svg width="50px" height="50px" viewBox="0 0 50 50" version="1.1" xmlns="http://www.w3.org/2000/svg" xmlns:xlink="http://www.w3.org/1999/xlink">
    <title>公安备案-灰</title>
    <defs>
        <linearGradient x1="50%" y1="100%" x2="65.525668%" y2="10.3533133%" id="linearGradient-1">
            <stop stop-color="#5F5F5F" offset="0%"></stop>
            <stop stop-color="#B8B8B8" offset="100%"></stop>
        </linearGradient>
        <linearGradient x1="57.3658497%" y1="55.0655626%" x2="116.722613%" y2="48.9022419%" id="linearGradient-2">
            <stop stop-color="#5F5F5F" offset="0%"></stop>
            <stop stop-color="#B8B8B8" offset="100%"></stop>
        </linearGradient>
        <linearGradient x1="67.1263562%" y1="0%" x2="40.7550094%" y2="95.0951313%" id="linearGradient-3">
            <stop stop-color="#E7E7E7" offset="0%"></stop>
            <stop stop-color="#AFAFAF" offset="100%"></stop>
        </linearGradient>
    </defs>
    <g id="页面-1" stroke="none" stroke-width="1" fill="none" fill-rule="evenodd">
        <g id="编组-62" transform="translate(5.000000, 0.000594)">
            <path d="M22.3668342,32.0468377 L22.3660952,32.0466893 C22.3660952,32.0169971 22.3646172,31.987305 22.3631392,31.9590975 C22.3394916,31.5996746 22.1665681,31.3354149 21.9256577,31.2715768 L30.3811706,33.523723 C30.622081,33.5890457 30.7950044,33.8518208 30.8186521,34.2110953 L30.8212385,34.2546499 L30.8208691,34.3004685 L30.8193911,36.705529 L30.8186521,36.735184 L30.8182087,36.7641709 L30.8141882,36.8260295 L30.8083062,36.8884324 C30.8023943,36.9270321 30.7964824,36.9641473 30.7890925,36.9997778 C30.7822938,37.0358537 30.773426,37.0714842 30.7630801,37.1056302 L30.72953,37.2104433 C30.7162282,37.2475584 30.7014484,37.2831889 30.6851907,37.3173349 L30.6550769,37.3787047 L30.6550769,37.3787047 L30.6222288,37.4374394 C30.5867573,37.4968236 30.5468519,37.5532386 30.5039905,37.6037152 C30.4470884,37.6687409 30.3864913,37.7251559 30.3199823,37.7696941 L30.2434599,37.8156426 L30.1628732,37.8498628 C30.1495714,37.8558012 30.1347916,37.860255 30.1214898,37.8632242 L30.122081,37.8632242 L17.2902749,41.4188538 L8.83476205,39.1667076 L21.6650902,35.611078 L25.772762,36.704789 L21.6659769,35.611078 L21.6874076,35.604954 L21.7089769,35.596789 L21.7885013,35.5634964 C21.8147354,35.550135 21.8402306,35.5349178 21.8646172,35.5178448 L28.851762,37.3785768 L21.8644694,35.5175479 C21.9309784,35.4730097 21.9930535,35.4165947 22.0477387,35.3512721 L22.970762,35.5965768 L22.0484777,35.351569 C22.091339,35.3010925 22.1312445,35.2446775 22.1667159,35.1852932 L27.872762,36.7045768 L22.1661247,35.1841056 C22.1882944,35.1469904 22.2104641,35.1069061 22.2296778,35.0653371 C22.2459356,35.0295582 22.2607153,34.9954122 22.2740171,34.9582971 L22.2737215,34.9578517 C22.2870234,34.9237058 22.2973692,34.8895599 22.307715,34.8539293 L29.478762,36.7635768 L22.3075672,34.853484 C22.3179131,34.8178534 22.326781,34.7837075 22.3326929,34.748077 L23.751762,35.1255768 L22.3335797,34.7476316 C22.3409696,34.7105165 22.3483594,34.6734013 22.3527934,34.6362862 C22.3582619,34.5951627 22.3612179,34.5535937 22.3626958,34.5120248 C22.3638782,34.4928733 22.3638782,34.4735735 22.3638782,34.452789 L22.3668342,32.0468377 Z" id="形状结合" fill="#949494" fill-rule="nonzero"></path>
            <path d="M29.8839787,3.193089 L38.3394916,5.44523519 C38.3247118,5.4482044 38.308454,5.45117361 38.2936743,5.45414282 L29.8381614,3.20199664 C29.8544192,3.19754282 29.8691989,3.19605821 29.8839787,3.193089 Z M29.9732486,3.18611136 L30.013154,3.18815269 L30.013154,3.18815269 L30.052616,3.19338593 C30.0673958,3.19487053 30.0806976,3.19932435 30.0939994,3.20229356 L38.5495123,5.45443974 C38.5362105,5.45147053 38.5214307,5.44850132 38.5081289,5.44553211 L38.5061614,5.4449629 L38.4686669,5.44029888 C38.4553651,5.43899985 38.4420633,5.43825755 38.4287615,5.43825755 C38.3997931,5.43810909 38.3702335,5.4410783 38.339196,5.44553211 L29.8836831,3.19190132 C29.9147207,3.1874475 29.9442802,3.1859629 29.9723618,3.1859629 L34.2011614,4.3119629 L29.9732486,3.18611136 Z" id="形状结合" fill="#FFEAA4"></path>
            <path d="M15.5475909,9.36934383 L24.0031038,11.62149 C24.0223175,11.6259438 24.0430092,11.6333669 24.0607449,11.6407899 C24.1659769,11.6847342 24.2598581,11.7676346 24.3317943,11.8940517 L24.3820573,11.9963528 L25.5360647,14.9373438 L30.2951522,16.2059511 C30.5552764,16.2742429 30.716376,16.5667102 30.7400236,16.917077 L30.7407626,16.9164832 C30.7437186,16.9654751 30.7437186,17.0144671 30.7422406,17.0649437 L30.738324,17.1265548 L30.732486,17.1877205 C30.726574,17.2248357 30.7206621,17.2619508 30.7132722,17.2990659 L25.9680647,16.0343438 L25.9680647,16.0353438 L30.7140112,17.2995113 C30.7066213,17.3351418 30.6977535,17.3692878 30.6874076,17.4049183 C30.6770618,17.4402519 30.6667159,17.4758824 30.6534141,17.5100283 C30.6398167,17.5474404 30.6250369,17.5845555 30.6073012,17.620186 L26.7500647,16.5913438 L30.6073012,17.6209284 C30.5880875,17.6624973 30.5659178,17.7055509 30.5407922,17.7471198 L24.7580647,16.2053438 L30.5403488,17.7474167 C30.5373928,17.7533551 30.5329589,17.7592936 30.530003,17.765232 L27.9139817,22.0138753 L27.9144251,22.0138753 L27.904264,22.0281647 L27.904264,22.0281647 L27.8959503,22.0438644 C27.8737807,22.0809795 27.854567,22.1180946 27.8353532,22.158179 C27.8193911,22.1935126 27.8046113,22.2291431 27.7913095,22.2647736 L27.7897824,22.2647291 L27.756577,22.3712198 L27.7421667,22.4258533 L27.7304168,22.4801898 C27.7230269,22.5187896 27.715637,22.5573893 27.7112031,22.5945045 L27.2790647,22.4793438 L27.7107597,22.5945045 C27.7063257,22.6360734 27.7018918,22.6776423 27.7004138,22.7192113 L27.2210647,22.5913438 L27.2240647,22.5923438 L27.700266,22.7195082 C27.6987881,22.7685002 27.6987881,22.8174922 27.701744,22.8649995 L27.7023352,22.8655934 C27.7038132,22.8878625 27.7052912,22.9101315 27.7082471,22.9324006 L28.3180609,27.741334 C28.3195389,27.748757 28.3195389,27.75618 28.3210168,27.7725107 C28.322347,27.7998274 28.325303,27.850304 28.3282589,27.9646186 L27.4390647,27.7273438 L27.4220647,27.7273438 L28.3269288,27.9684786 C28.3269288,27.9788708 28.3269288,27.9907477 28.3224948,28.023409 C28.3180609,28.0603757 28.307715,28.1256983 28.2899793,28.2459513 L26.2830647,27.7113438 L26.2740647,27.7113438 L28.2885013,28.2480298 L28.2877623,28.2528918 L28.2871711,28.2544136 C28.2856932,28.2558982 28.2856932,28.2573828 28.2842152,28.260352 L26.2190647,27.7103438 L26.2170647,27.7103438 L28.2834762,28.2606489 C28.2775643,28.2725257 28.2598286,28.2947948 28.2184452,28.3437868 L28.2165152,28.3435027 L28.1894369,28.3765713 C28.0943689,28.4868434 27.9074786,28.6960836 27.5350281,29.1049439 L23.2540647,27.9643438 L27.5347325,29.1056862 L27.5201005,29.1061316 C27.5008868,29.1061316 27.4580254,29.1016778 27.3309193,29.0853471 L23.2050647,27.9863438 L20.1625776,31.0419084 L11.7070647,28.7897622 L14.9453148,25.5384767 L14.944428,25.539219 C14.9858114,25.5006193 15.0271948,25.4664733 15.0700562,25.4367812 L15.1055276,25.4148091 C15.146911,25.3895708 15.1897724,25.3702709 15.2326338,25.3554249 L15.2323382,25.3551279 C15.2471179,25.3491895 15.2604197,25.3462203 15.2751995,25.3417665 C15.2958912,25.3358281 15.3180609,25.3298897 15.3402306,25.3269204 L15.341428,25.3270913 L15.3842743,25.3215759 L15.4286137,25.3200913 L15.4286137,25.3200913 L15.4448714,25.320982 C15.4655631,25.320982 15.4862548,25.3239512 15.5084245,25.3269204 L15.525428,25.3310913 C15.5339935,25.3334527 15.5406444,25.3349373 15.5472953,25.3364219 L15.7300647,25.3853438 L16.5938516,15.1524752 L20.5780647,17.9413438 L22.0744901,15.5127889 C22.0774461,15.5071474 22.08188,15.501209 22.0863139,15.4937859 L22.0852793,15.493489 C22.110405,15.4534047 22.1325746,15.4103511 22.1517884,15.3672976 L22.1660647,15.3343438 L17.9161986,14.2024763 C17.7491871,14.1579381 17.6087792,14.0243236 17.5304463,13.8268711 L15.9250665,9.74420666 L15.9255909,9.74334383 L15.8761513,9.64176296 C15.8039314,9.5150133 15.7095773,9.43140033 15.60671,9.3886437 C15.5860183,9.38122067 15.5668046,9.37379764 15.5475909,9.36934383 Z" id="形状结合" fill="#949494"></path>
            <path d="M19.9603902,31.1940804 L11.5048773,28.9419343 C11.6763228,28.818712 11.6911026,28.8053506 11.7073603,28.7890199 L20.1628732,31.0411661 C20.1466154,31.0574968 20.1318356,31.0708582 19.9603902,31.1940804" id="Fill-129" fill="#FFEAA4"></path>
            <path d="M17.0348803,41.4225653 L8.57936743,39.1704192 C8.59266923,39.1733884 8.60449305,39.1763576 8.61779486,39.1793268 L17.0733077,41.431473 C17.0600059,41.4285038 17.0467041,41.4255346 17.0348803,41.4225653" id="Fill-136" fill="#7F7F7F"></path>
            <path d="M17.0730121,41.4311761 L8.61749926,39.1790299 C8.64114691,39.1834837 8.66775052,39.1849683 8.69287615,39.1849683 L17.146911,41.4371145 C17.1217854,41.4371145 17.0981377,41.4356299 17.0730121,41.4311761" id="Fill-138" fill="#838383"></path>
            <path d="M17.1473544,41.4377083 L8.69184156,39.1855621 C8.71844517,39.1855621 8.74652675,39.1840775 8.77460834,39.1796237 L17.2301212,41.4317699 C17.2020396,41.4362237 17.175436,41.4377083 17.1473544,41.4377083" id="Fill-140" fill="#878787"></path>
            <path d="M17.2304168,41.4319184 L8.77490393,39.1797722 C8.79411765,39.1753184 8.81480934,39.1723491 8.83402306,39.1664107 L17.2910139,41.4185569 C17.2703222,41.4244953 17.2496305,41.4289491 17.2304168,41.4319184" id="Fill-142" fill="#8B8B8B"></path>
            <path d="M-8.60644889e-13,32.3553387 L8.45551286,34.6074849 C8.45551286,34.9103443 8.46585871,35.2117192 8.48802838,35.5116095 C8.97738693,42.334113 14.9558085,48.3408259 20.0932604,49.7081473 L11.6377476,47.4560011 C6.50177357,46.0886797 0.521874076,40.0804822 0.0326633166,33.258721 C0.011823825,32.959573 -8.60644889e-13,32.6581982 -8.60644889e-13,32.3553387 Z M23.6262193,2.31772862 L23.5481821,2.36260082 C23.5141886,2.3863545 23.4787171,2.414562 23.4447236,2.44425411 C23.4136861,2.47394621 23.3826485,2.50660753 23.351611,2.54223806 L23.35,2.542 L23.3514632,2.54194113 L20.009,1.651 L23.35,2.542 L23.3169155,2.58480911 C23.3056459,2.59946959 23.294561,2.61468679 23.2834762,2.63101745 C22.9542902,3.10204221 22.447991,3.78778261 21.7756831,4.59565996 L21.5697606,4.84174315 C20.119864,6.54903921 17.9694059,8.73140895 15.1967189,10.5871655 C13.6250369,11.6382661 11.8544192,12.5839596 9.89757612,13.2802395 L7.308,12.59 L9.89698492,13.280091 C9.65903045,13.3647135 9.41664203,13.4463668 9.17277564,13.5235663 L9.16039758,13.5272778 L9.16039758,13.5272778 L9.14927579,13.5305439 C9.0945906,13.5498438 9.04138339,13.5780513 8.98965415,13.6121972 L8.988,13.612 L8.92145915,13.6631632 C8.87755772,13.7000034 8.8358459,13.7419022 8.79544783,13.7884199 L8.13,13.611 L8.79485664,13.7887168 C8.75051729,13.840678 8.7091339,13.9000622 8.67218445,13.9624156 C8.6485368,14.0017576 8.62636713,14.0433266 8.60715341,14.0863801 L8.58343187,14.1403084 L8.56177949,14.1962409 L8.52778599,14.3001633 L8.51452114,14.3512708 L8.50221697,14.4027495 L8.49224061,14.4561953 L8.49224061,14.4561953 L8.48403784,14.5097896 L8.47849542,14.5684315 L8.47516997,14.6264795 C8.47369199,14.6457794 8.47369199,14.6635947 8.47369199,14.6814099 L1.535,12.833 L8.47339639,14.6820038 L8.45566066,34.606891 L0.000147797818,32.3547448 L0.0193615135,12.4298576 L0.018179131,12.4292637 C0.018179131,12.4114485 0.018179131,12.3921486 0.0196571091,12.3743333 C0.0211350872,12.3348428 0.0240910435,12.2962431 0.030002956,12.2576434 L0.0289683713,12.2574949 C0.0333604761,12.2207299 0.0406530275,12.1868784 0.0479729415,12.1516114 L0.0469997044,12.1509003 L0.0721253326,12.0469779 L0.0721253326,12.0469779 C0.0826189772,12.0123866 0.0929648241,11.9782407 0.106266627,11.9440947 L0.106118829,11.9436494 C0.120898611,11.9065342 0.135678392,11.8694191 0.151936151,11.8337886 C0.170854271,11.7911804 0.193023943,11.7496114 0.216671593,11.7095271 L0.275975466,11.6188734 L0.275975466,11.6188734 L0.34,11.536 L0.339934969,11.5362737 C0.379347719,11.489756 0.422044865,11.4478572 0.466712648,11.411017 L0.534141295,11.360051 C0.585870529,11.3259051 0.639077742,11.2976976 0.693762932,11.2783977 L0.695179131,11.2774062 L0.715784806,11.2714201 C0.961129175,11.1942206 1.20351759,11.1125673 1.44295004,11.0279448 L1.44206326,11.0280933 C3.3989063,10.3318134 5.16952409,9.38611987 6.74061484,8.33501934 L7.912,8.647 L6.74120603,8.33501934 C9.51389299,6.47926276 11.6643512,4.29689302 13.1142477,2.58959696 L13.1135087,2.5894485 C13.8894472,1.67493166 14.4658587,0.896998501 14.8279633,0.377386658 C14.850133,0.346209948 14.8723027,0.316517843 14.8959503,0.289794948 L19.62,1.547 L14.8960981,0.288607264 C14.9271357,0.252976737 14.9581732,0.221800027 14.9906887,0.192107921 L15.0413095,0.148497642 L15.0413095,0.148497642 L15.0931126,0.111048474 C15.1433639,0.0769025527 15.1965711,0.050179658 15.2483003,0.0323643948 C15.2822938,0.0201906316 15.3162873,0.011283 15.3488028,0.00534457896 L15.3511791,0.0054061579 L15.3906296,0.00129902961 C15.4046704,0.000371151317 15.4187112,9.06386077e-13 15.432752,9.06386077e-13 L15.471475,0.00144749013 L15.5094591,0.00668072369 C15.5227609,0.00816532896 15.5360627,0.0111345395 15.5493645,0.0155883553 L23.9781791,2.26040616 L23.9649719,2.25882691 L23.9631791,2.25840616 L23.9275421,2.25359368 C23.9147946,2.25229465 23.9018623,2.25155235 23.8885604,2.25155235 L23.8461425,2.25344522 L23.8043157,2.25749077 C23.7703222,2.26342919 23.7363287,2.27233682 23.7038132,2.28421366 L23.6262193,2.31772862 Z" id="形状结合" fill="url(#linearGradient-1)" fill-rule="nonzero"></path>
            <path d="M22.916642,3.47160095 C23.7191842,3.61263845 24.5793674,3.69874556 25.4971918,3.70765319 L25.5006409,3.70788445 L25.9579625,3.706005 C26.7346537,3.69194936 27.5500049,3.62308018 28.4023056,3.48822853 L36.8578185,5.74037472 C35.8350576,5.9036813 34.865504,5.96900393 33.9521135,5.9600963 L33.9476409,5.95888445 L33.4984933,5.94902224 C32.7493431,5.92070477 32.0397083,5.84152582 31.3721549,5.72523174 L22.916642,3.47160095 Z M29.8380136,3.20184818 L38.2935265,5.45399436 C37.8043157,5.57127818 37.3254508,5.66629292 36.8584097,5.74052318 L28.4028968,3.48837699 C28.8699379,3.41414673 29.3488028,3.31913199 29.8380136,3.20184818 Z M21.6046409,3.18388445 C22.0229087,3.29522985 22.4603902,3.39321379 22.9170854,3.47189787 L31.3725983,5.72552867 C30.915903,5.64535998 30.4784215,5.54737603 30.0601537,5.43603064 L21.6046409,3.18388445 Z" id="形状结合" fill="url(#linearGradient-2)" fill-rule="nonzero"></path>
            <path d="M30.8193911,36.705529 L30.8208744,34.3004685 C30.822347,33.771949 30.5149276,33.4200976 30.1247414,33.5284738 L17.2944132,37.0841034 C16.9130949,37.1895104 16.5953296,37.7150606 16.5953296,38.2420955 L16.5938516,40.647156 C16.5938516,41.1875523 16.908661,41.5245577 17.2899793,41.4191508 L30.1217854,37.8635211 C30.5119716,37.755145 30.8193911,37.2459254 30.8193911,36.705529 M17.3284067,19.7379755 C16.7505173,20.014112 16.5081289,21.0845124 16.9352646,21.5313786 L19.5453739,24.3328288 C19.7123855,24.505043 19.7862844,24.8182947 19.7493349,25.1374848 L19.1315401,30.2860959 C19.1285841,30.3098496 19.1256281,30.3336032 19.1241502,30.3573569 C19.1211942,30.5369942 19.1226722,30.5577786 19.1241502,30.5800477 C19.1640556,30.7938309 19.1699675,30.8116461 19.1758794,30.8294614 C19.9296482,31.2095203 19.945906,31.2020973 19.9606858,31.1946743 C20.1321312,31.0714521 20.146911,31.056606 20.1631688,31.0417599 L23.3999409,27.791959 C23.4516701,27.7414824 23.5048773,27.6999135 23.5610405,27.6672522 C23.6157257,27.6345909 23.6733668,27.6093526 23.731008,27.5930219 C23.7871711,27.5781759 23.8448123,27.5707528 23.8994975,27.573722 C23.9541827,27.5752067 24.0088679,27.5870835 24.0605971,27.6093526 L27.2840674,29.0687196 C27.3003252,29.074658 27.3151049,29.0805964 27.3313627,29.0850502 C27.5042861,29.1073193 27.5205439,29.1073193 27.5353237,29.1043501 C28.2802247,28.2878172 28.2846586,28.2670327 28.2905705,28.2462482 C28.326042,28.0087114 28.32752,27.9864423 28.32752,27.9641732 C28.323086,27.784536 28.3201301,27.7637515 28.3171741,27.7399978 L27.7082471,22.932846 C27.6712977,22.6329557 27.7466745,22.2796197 27.9136861,22.0138753 L30.5297074,17.7649351 C30.9479752,17.0835012 30.7174106,16.1437461 30.1321312,16.1912535 L26.5243866,16.4703593 C26.2923441,16.4822361 26.0869051,16.3337756 25.9849246,16.0784235 L24.3813184,11.9972436 C24.3059415,11.8116679 24.1921372,11.6958687 24.0605971,11.6409383 C23.9586166,11.5993694 23.8477683,11.5949156 23.7369199,11.6260923 C23.6881466,11.6394537 23.6408513,11.6587536 23.593556,11.6839919 C23.5787762,11.6928995 23.5625185,11.7032918 23.5477387,11.713684 C23.4250665,11.7923681 23.3083062,11.9155903 23.2166716,12.0788969 C23.2063257,12.0996814 23.1945019,12.1204658 23.1826781,12.1427349 C23.1619864,12.1857885 23.1427727,12.2303266 23.123559,12.2793186 C23.1146911,12.3030723 23.1058232,12.3283106 23.0984333,12.3520643 L21.4756134,17.3284611 C21.3736329,17.6535897 21.1681939,17.9030034 20.9361513,18.0188026 L17.3284067,19.7379755 M38.2935265,5.4545882 C38.6837127,5.35957347 39,5.69657886 39,6.22361373 L38.9807863,26.148501 C38.9733964,35.0635556 29.135974,48.2958423 23.6970145,49.8027167 C18.1087792,51.35116 8.44723618,43.5213518 8.45609795,34.6062972 L8.47383979,14.6814099 C8.47383979,14.1543751 8.79012711,13.6421862 9.17292344,13.5234178 C16.8421519,11.1020266 21.8125924,4.73455465 23.2831806,2.63086899 C23.3349098,2.55812333 23.3881171,2.49725452 23.4457582,2.44380873 C23.6349394,2.27159452 23.8522022,2.2107257 24.0428614,2.27901754 C24.0990245,2.29980202 24.1537097,2.33097873 24.203961,2.37551688 C25.6715933,3.66712347 30.62282,7.28362189 38.2935265,5.4545882" id="Fill-194" fill="url(#linearGradient-3)" fill-rule="nonzero"></path>
        </g>
    </g>
</svg>