<?xml version="1.0" encoding="UTF-8"?>
<svg width="50px" height="50px" viewBox="0 0 50 50" version="1.1" xmlns="http://www.w3.org/2000/svg" xmlns:xlink="http://www.w3.org/1999/xlink">
    <title>域名注册机构-灰</title>
    <defs>
        <linearGradient x1="-135.139128%" y1="137.713936%" x2="50%" y2="25.7673182%" id="linearGradient-1">
            <stop stop-color="#5F5F5F" offset="0%"></stop>
            <stop stop-color="#B8B8B8" offset="100%"></stop>
        </linearGradient>
        <linearGradient x1="-208.129132%" y1="225.319096%" x2="143.478155%" y2="41.9478331%" id="linearGradient-2">
            <stop stop-color="#5F5F5F" offset="0%"></stop>
            <stop stop-color="#B8B8B8" offset="100%"></stop>
        </linearGradient>
        <linearGradient x1="67.0782423%" y1="73.3490587%" x2="313.282066%" y2="-327.654881%" id="linearGradient-3">
            <stop stop-color="#5F5F5F" offset="0%"></stop>
            <stop stop-color="#B8B8B8" offset="100%"></stop>
        </linearGradient>
        <linearGradient x1="44.2061222%" y1="117.561495%" x2="56.864248%" y2="3.62211802%" id="linearGradient-4">
            <stop stop-color="#003B7C" offset="0%"></stop>
            <stop stop-color="#4EA2FF" offset="100%"></stop>
        </linearGradient>
        <linearGradient x1="61.3740345%" y1="0%" x2="41.5029129%" y2="95.0951313%" id="linearGradient-5">
            <stop stop-color="#E7E7E7" offset="0%"></stop>
            <stop stop-color="#AFAFAF" offset="100%"></stop>
        </linearGradient>
        <linearGradient x1="67.0782423%" y1="54.2671032%" x2="143.478155%" y2="39.8977124%" id="linearGradient-6">
            <stop stop-color="#5F5F5F" offset="0%"></stop>
            <stop stop-color="#B8B8B8" offset="100%"></stop>
        </linearGradient>
        <linearGradient x1="63.2528103%" y1="81.8977692%" x2="99.303068%" y2="-250.873544%" id="linearGradient-7">
            <stop stop-color="#5F5F5F" offset="0%"></stop>
            <stop stop-color="#B8B8B8" offset="100%"></stop>
        </linearGradient>
        <linearGradient x1="50%" y1="229.63751%" x2="28.5742724%" y2="-491.405447%" id="linearGradient-8">
            <stop stop-color="#5F5F5F" offset="0%"></stop>
            <stop stop-color="#B8B8B8" offset="100%"></stop>
        </linearGradient>
        <linearGradient x1="65.5674894%" y1="56.6975989%" x2="26.9906246%" y2="-49.1720069%" id="linearGradient-9">
            <stop stop-color="#5F5F5F" offset="0%"></stop>
            <stop stop-color="#B8B8B8" offset="100%"></stop>
        </linearGradient>
        <linearGradient x1="53.9678012%" y1="-223.250442%" x2="39.2680264%" y2="95.0951313%" id="linearGradient-10">
            <stop stop-color="#E7E7E7" offset="0%"></stop>
            <stop stop-color="#AFAFAF" offset="100%"></stop>
        </linearGradient>
        <linearGradient x1="37.284317%" y1="135.34716%" x2="138.606021%" y2="-580.298233%" id="linearGradient-11">
            <stop stop-color="#5F5F5F" offset="0%"></stop>
            <stop stop-color="#B8B8B8" offset="100%"></stop>
        </linearGradient>
        <linearGradient x1="59.3304417%" y1="77.6254727%" x2="67.0782423%" y2="-64.4727799%" id="linearGradient-12">
            <stop stop-color="#5F5F5F" offset="0%"></stop>
            <stop stop-color="#B8B8B8" offset="100%"></stop>
        </linearGradient>
        <linearGradient x1="43.9949151%" y1="106.245907%" x2="63.8193001%" y2="0%" id="linearGradient-13">
            <stop stop-color="#5F5F5F" offset="0%"></stop>
            <stop stop-color="#B8B8B8" offset="100%"></stop>
        </linearGradient>
    </defs>
    <g id="页面-1" stroke="none" stroke-width="1" fill="none" fill-rule="evenodd">
        <g id="编组-76" transform="translate(5.000000, 0.000000)">
            <path d="M26.977165,10.2014533 L32.7930364,11.7433243 L28.9239215,12.8105389 L23.1080501,11.2676515 L26.977165,10.2014533 Z M27.5550924,10.1107909 C27.6618337,10.1128237 27.7360442,10.1179057 27.8092382,10.129086 L27.833382,10.1322623 L27.8558994,10.1360992 C27.9189275,10.1472795 27.9697567,10.1574434 28.0175361,10.1706566 L33.8334075,11.7125275 C33.7856281,11.6993144 33.7347989,11.6891505 33.6717708,11.6779701 C33.6566237,11.6750226 33.6413749,11.6729898 33.6251096,11.670957 C33.5519156,11.6597767 33.4777051,11.6546947 33.3699473,11.6536783 L33.3689307,11.6536783 C33.2933986,11.6536783 33.2171548,11.6587603 33.1073639,11.6740062 C33.0992312,11.6750226 33.0921151,11.676039 33.0839825,11.6770554 C33.01272,11.6881341 32.9344431,11.7054128 32.7931381,11.7430194 L26.9772667,10.2011484 C27.1185717,10.1635418 27.1968486,10.1462631 27.2680094,10.1350828 C27.2762437,10.1331516 27.2833598,10.1321352 27.2914925,10.1311188 C27.3646864,10.1216325 27.4229705,10.1162117 27.4762847,10.1133507 L27.5530593,10.1107909 L27.5550924,10.1107909 Z" id="形状结合" fill="url(#linearGradient-1)" fill-rule="nonzero"></path>
            <path d="M16.5510896,22.8150149 L22.3659445,24.3568859 C22.3506957,24.3965253 22.3334138,24.4351483 22.3161319,24.4727549 C22.3038312,24.499791 22.2906157,24.5262173 22.2774001,24.5516271 C22.2682508,24.5709386 22.2560518,24.5882173 22.2469026,24.6065125 C22.2286041,24.6390371 22.2113222,24.6715617 22.1930237,24.7020536 L22.1747252,24.731529 C22.160493,24.7549061 22.1442277,24.775234 22.128979,24.7975947 C22.1055976,24.8301193 22.0832327,24.8646767 22.0588347,24.8951686 L22.0512104,24.9052055 L22.0512104,24.9052055 L22.0439926,24.9143784 L22.0053625,24.9580834 L22.0030243,24.9604211 L21.9779147,24.9910146 C21.962666,25.0082933 21.9474172,25.025572 21.9321685,25.0418344 L21.8721901,25.0977361 C21.8477921,25.1211132 21.8223775,25.1455066 21.796963,25.1668509 C21.7756147,25.1841296 21.7532499,25.1983592 21.7319016,25.2146215 L21.6997522,25.2379986 L21.6997522,25.2379986 L21.666942,25.2614773 L21.6537264,25.2696084 C21.6313616,25.283838 21.6089968,25.2950183 21.5866319,25.3061987 C21.5591842,25.3214446 21.532753,25.3366905 21.5053053,25.3488872 L21.4876422,25.355875 L21.4710464,25.3624053 C21.459864,25.3664709 21.4486816,25.3695201 21.4374992,25.3735856 L21.4361776,25.3735856 L21.4117797,25.3832414 L21.387585,25.3925922 C21.3814855,25.394625 21.3764026,25.3966578 21.3703031,25.3976742 C21.3591207,25.4017398 21.3479382,25.404789 21.3357392,25.4068217 L15.3369846,27.0614109 L9.52111316,25.5195399 L15.5199695,23.8648491 C15.5320668,23.8619016 15.5432493,23.8598688 15.5544317,23.8558032 C15.5605312,23.8547868 15.5656141,23.852754 15.5717136,23.8507212 L15.5728678,23.8500149 L15.5959083,23.8413704 C15.6040409,23.8380671 15.6121736,23.8347639 15.6203062,23.8317147 L15.6213228,23.8317147 C15.6328102,23.8276491 15.6439926,23.8245999 15.655175,23.8205343 L15.6894339,23.8070163 C15.7168816,23.7948195 15.7433128,23.7795736 15.7707605,23.7643277 C15.7931254,23.7531473 15.8165068,23.741967 15.837855,23.7277375 L15.8510706,23.7196063 C15.8733338,23.7042588 15.894682,23.6879964 15.9160302,23.6727505 C15.9383951,23.6564882 15.9597433,23.6422587 15.9810916,23.62498 C16.0075227,23.6036357 16.0319207,23.5792422 16.0563187,23.5558651 L16.1162971,23.4999634 L16.1617384,23.449042 C16.1708876,23.4388781 16.1790203,23.4287141 16.1881695,23.4185502 L16.1874579,23.4182452 L16.1894911,23.4162125 C16.2016901,23.4009665 16.2149056,23.3877534 16.2281212,23.3725075 L16.2277146,23.3726091 C16.2327975,23.3665107 16.238897,23.3604124 16.2429633,23.3532976 C16.2673613,23.3228058 16.2897262,23.2882483 16.3131076,23.2557237 C16.3283563,23.233363 16.3446216,23.2130351 16.3588538,23.189658 L16.3771523,23.1601826 L16.4310312,23.0646415 C16.441197,23.0463464 16.4523794,23.0290677 16.4615287,23.0097562 C16.4747443,22.9843463 16.4879598,22.95792 16.5001588,22.9304774 L16.5510896,22.8150149 Z M16.5579008,21.1924422 L22.3737722,22.7343132 C22.4454413,22.8661904 22.4936654,23.0180779 22.5197312,23.1818286 L22.5389669,23.3489271 C22.5430332,23.4221075 22.5440498,23.4963044 22.5410001,23.5715176 L22.5399008,23.5714422 L22.5349514,23.6652546 C22.5321558,23.6968899 22.5285978,23.7286522 22.5245314,23.7601605 L22.5115192,23.8474688 L22.4957621,23.9338623 C22.4835631,23.9907805 22.4703475,24.0466822 22.4540822,24.1025839 C22.4427981,24.1419184 22.4305991,24.1805414 22.4173836,24.2191644 L19.2221132,23.3720449 L22.4170786,24.2194693 L22.3662494,24.3566826 L16.550378,22.8148116 L16.6022238,22.6775983 L16.6015122,22.6772934 C16.6147277,22.6386704 16.6269267,22.6000474 16.6381092,22.560408 C16.6544761,22.5048112 16.6687083,22.4489095 16.6798907,22.3919914 C16.6915814,22.3345651 16.7017473,22.2766306 16.7088633,22.2186961 C16.7167927,22.1542566 16.7218756,22.0912401 16.7249253,22.0292401 L16.7267552,21.9175383 L16.7225872,21.8073611 C16.7073385,21.5796886 16.652443,21.3682785 16.5579008,21.1924422 Z M16.1220916,20.7400449 L21.9380647,22.2830339 C21.9634793,22.2942142 21.9878772,22.3104765 22.0122752,22.3267388 C22.0295572,22.3369028 22.0478556,22.3460503 22.0651376,22.3582471 C22.0924836,22.3784733 22.1189148,22.4028668 22.1443294,22.4262439 C22.1565284,22.4384406 22.1697439,22.4465718 22.1819429,22.4587685 C22.2073575,22.4851948 22.2307389,22.516703 22.2541203,22.5471949 L22.2698774,22.5659982 L22.2857361,22.5849031 C22.3172501,22.6306409 22.3477476,22.6804442 22.3741788,22.7343132 L22.3740771,22.7342115 L16.5582057,21.1923406 C16.5317746,21.1384716 16.5012771,21.0886683 16.469763,21.0429305 C16.4595972,21.0297174 16.4484148,21.018537 16.4382489,21.0053239 C16.4148675,20.9748321 16.3914861,20.9433238 16.365055,20.9168976 L16.328458,20.8843729 C16.3020268,20.8609958 16.2776288,20.8366024 16.2491645,20.8162745 C16.2319842,20.8041794 16.2136857,20.7950318 16.1964038,20.7848679 L16.1220916,20.7400449 Z" id="形状结合" fill="#949494"></path>
            <path d="M21.9378614,22.2827289 L16.12199,20.7398416 C16.1026749,20.730694 16.0813266,20.725612 16.060995,20.7174809 L21.8758498,22.2593519 C21.897198,22.267483 21.9175297,22.272565 21.9378614,22.2827289" id="Fill-47" fill="#6E6E6E"></path>
            <path d="M21.8762564,22.2593519 L16.060385,20.7174809 C16.035987,20.7083333 16.0105725,20.697153 15.9851579,20.6900382 L21.8010293,22.2319092 C21.8274604,22.239024 21.8518584,22.2502043 21.8762564,22.2593519" id="Fill-48" fill="#6E6E6E"></path>
            <path d="M27.1364636,1.58405135 L21.3205922,0.0421803857 C21.355156,0.0492951496 21.3907364,0.0543771238 21.4253002,0.0625082825 L27.2411716,1.60539565 C27.2066078,1.59624809 27.1710274,1.59116612 27.1364636,1.58405135" id="Fill-49" fill="#7F7F7F"></path>
            <path d="M26.9936336,1.55660869 C26.9560201,1.55152672 26.9163733,1.55152672 26.8777432,1.54949393 C26.8360633,1.54644474 26.7954,1.54237917 26.7527035,1.54237917 L26.737658,1.54288736 C26.6980113,1.54288736 26.6583646,1.54796934 26.6187178,1.55101852 C26.5709384,1.5550841 26.523159,1.5561005 26.4753796,1.56423165 L26.4702967,1.56423165 L26.4678794,1.563 L26.4123769,1.57576774 C26.3931889,1.58034151 26.374128,1.58516939 26.3553212,1.58923497 C26.3024589,1.60041531 26.2506131,1.60854647 26.1977508,1.62379239 L20.3818794,0.080905029 C20.4347417,0.0666755013 20.4865875,0.0575279478 20.5394498,0.0463476046 C20.5780799,0.0382164459 20.6167101,0.0280524975 20.6543237,0.0219541285 L20.6595082,0.0213442916 C20.7072876,0.0142295277 20.755067,0.0132131329 20.8028464,0.00914755354 C20.8424932,0.00609836902 20.8821399,0.00101639484 20.9217866,6.66577904e-13 L20.9370354,6.66577904e-13 C20.9795286,0.000508197419 21.0201919,0.00457377677 21.0618718,0.00762296128 C21.1005019,0.00965575095 21.1401487,0.00965575095 21.1787788,0.0147377251 L21.1950442,0.0167705148 L21.1950442,0.0167705148 L21.2113095,0.0188033045 C21.2479065,0.0259180683 21.2845035,0.0350656219 21.3200839,0.0421803857 L27.1359553,1.58405135 C27.1003749,1.57693659 27.0637779,1.56778904 27.0271809,1.56169067 C27.0159985,1.55965788 27.0058326,1.55762509 26.9936336,1.55660869 Z" id="形状结合" fill="url(#linearGradient-2)" fill-rule="nonzero"></path>
            <path d="M22.3433763,12.9832244 C22.3202999,13.044513 22.2959019,13.1044803 22.2684542,13.1634312 C22.2359235,13.2332575 22.2013597,13.3003396 22.1627295,13.3643724 L22.0683906,13.5092087 L21.9648008,13.64134 C21.9031281,13.7138429 21.8369373,13.779118 21.7677343,13.836262 L21.6622657,13.9157666 C21.6087257,13.9516793 21.5538302,13.9826228 21.4975793,14.0082962 L21.4122879,14.0423078 C21.3899231,14.050439 21.3685749,14.0575537 21.3462101,14.0636521 L15.3474554,15.7182412 L9.53158396,14.1763703 L15.5304403,12.5216795 L15.5637588,12.5118713 L15.5637588,12.5118713 L15.5963149,12.500945 C15.6539213,12.4806171 15.7101722,12.4548685 15.7650677,12.4240002 L15.8459877,12.3738957 C15.9185039,12.3251087 15.9878575,12.2677389 16.0534459,12.2026896 L16.1493386,12.0989669 L16.2525192,11.9673377 C16.2855582,11.9210918 16.3170722,11.872813 16.3470614,11.8225015 C16.3844717,11.7584686 16.4210687,11.6913865 16.4525828,11.6212553 C16.4800305,11.5626093 16.5054451,11.502642 16.5278099,11.4416583 C16.5488532,11.3844353 16.5671517,11.3265008 16.5844336,11.2675499 L17.583584,11.5319669 L16.5846369,11.2671433 C16.6009022,11.2102252 16.6151344,11.1522907 16.6273334,11.0933398 C16.6395324,11.0334742 16.6496982,10.9735069 16.6578309,10.9125232 C16.6656586,10.8467624 16.6717581,10.7806968 16.6748078,10.7136147 L20.479584,11.7219669 L16.6744012,10.7128016 C16.6754178,10.6823097 16.6764343,10.6518179 16.6764343,10.621326 C16.6764343,10.5715227 16.6754178,10.5227357 16.6713514,10.4749652 C16.6323146,9.88250864 16.3456382,9.4576556 15.9522206,9.35296693 L21.768092,10.8948379 C22.1287248,10.9908025 22.3988112,11.3557941 22.4726423,11.8723803 L22.4882394,12.0168362 C22.4902726,12.0646067 22.4923057,12.1133937 22.4923057,12.163197 C22.4923057,12.1936889 22.4912892,12.2241807 22.4902726,12.2556889 L22.4906792,12.2554857 C22.4876295,12.3225677 22.48153,12.3886334 22.4733973,12.4546991 C22.4655696,12.5153778 22.4554038,12.5753451 22.4432048,12.6353124 C22.4310058,12.6941617 22.4167736,12.7520962 22.4005083,12.8090143 C22.3840396,12.8683718 22.3647246,12.9263063 22.3433763,12.9832244 Z" id="形状结合" fill="#949494"></path>
            <path d="M9.1021793,25.5264514 L9.13318508,25.5338203 L9.13318508,25.5338203 L9.16469915,25.5398678 C9.20434589,25.5469826 9.24500921,25.5510482 9.28668912,25.5510482 L15.1025605,27.0929191 C15.0608806,27.0929191 15.0202173,27.0888536 14.9805706,27.0817388 L14.9701793,27.0785399 L14.9491836,27.0756912 C14.9386365,27.0734044 14.9282165,27.0708634 14.9180507,27.0683224 L9.1021793,25.5264514 Z M9.42311456,25.5411891 L15.2379694,27.0830601 C15.1922231,27.0901749 15.1464769,27.0932241 15.1027638,27.0932241 L9.28689243,25.5503367 C9.33162209,25.5513531 9.37635174,25.5483039 9.42311456,25.5411891 Z M9.5210115,25.5195399 L15.3368829,27.0614109 C15.3033357,27.0705585 15.270805,27.0776732 15.2382744,27.0827552 L9.42240295,25.5408842 C9.4549336,25.5358023 9.48848084,25.5286875 9.5210115,25.5195399 Z" id="形状结合" fill="#7F7F7F"></path>
            <path d="M15.1255353,15.7455823 C15.0823305,15.745379 15.039634,15.7413134 14.9979541,15.7341986 L12.0896148,14.9629637 L14.9975475,15.7339954 C14.9761993,15.7299298 14.9538344,15.7248478 14.9324862,15.7197658 L9.11661478,14.1778949 C9.13796302,14.1829768 9.16032785,14.1880588 9.18269267,14.1921244 L9.18361478,14.1919637 L9.24536502,14.2005859 C9.26671326,14.2024916 9.28831565,14.203508 9.31017218,14.203508 C9.35642671,14.2037113 9.40318953,14.2006621 9.44995235,14.1935473 C9.47760341,14.1891768 9.50403456,14.1830785 9.53148231,14.1759637 L15.3473537,15.7178347 C15.319906,15.7249494 15.2924582,15.7310478 15.2660271,15.7351134 C15.2180443,15.7425331 15.1712815,15.7455823 15.1255353,15.7455823 Z" id="形状结合" fill="#7F7F7F"></path>
            <path d="M-1.44950718e-12,47.242337 L5.81688799,48.7842079 C5.81688799,48.8086014 5.81892115,48.8329949 5.81993773,48.856372 C5.84331914,49.2193265 5.96327594,49.5354253 6.16049304,49.7458191 C6.27231717,49.8596553 6.40142322,49.9358849 6.54171167,49.9734915 L0.725840269,48.4316206 C0.585551814,48.3940139 0.456445772,48.3177843 0.344621641,48.2039481 C0.147404537,47.9935544 0.0284643243,47.6774556 0.00406633204,47.3146026 C0.00203316602,47.2901075 0.00101658301,47.2667304 -1.44950718e-12,47.242337 Z M1.62023,45.2893343 L7.4361014,46.8322216 L5.82766377,48.6240241 C5.82258085,48.6738274 5.81851452,48.7236308 5.81648135,48.7744505 L5.81648135,48.783903 L0.000609949808,47.242032 L0.000609949808,47.2328845 C0.00264311583,47.1817598 0.00670944787,47.1319565 0.0128089459,47.0821531 L0.0119956795,47.0822548 L1.62023,45.2893343 Z" id="形状结合" fill="url(#linearGradient-3)" fill-rule="nonzero"></path>
            <path d="M4.34863714,4.50364552 L10.1645085,6.04551649 C10.1106296,6.05974602 10.0577673,6.07702473 10.004905,6.09531984 C9.86624309,6.14417455 9.72875589,6.20698775 9.59376872,6.28258494 L9.39282337,6.40541323 L9.39383697,6.40582846 C9.12444247,6.58369756 8.86623038,6.81543558 8.63139971,7.09087858 L8.48923057,7.26586366 L8.48923057,7.26586366 L8.35282337,7.45141323 L8.35387255,7.45180039 L8.23188258,7.63475146 L8.210636,7.67042692 C8.12422644,7.81475498 8.04594955,7.96518142 7.97377216,8.11967344 L7.885609,8.32005568 L7.80552767,8.52531662 C7.75774827,8.65338236 7.71505178,8.7844973 7.67743821,8.91662863 C7.64053625,9.04642225 7.60800559,9.17855358 7.58055785,9.31068491 L7.54235974,9.51550117 L7.54235974,9.51550117 L7.51153186,9.7220199 C7.49221679,9.87142994 7.47900121,10.0218564 7.47290171,10.1722828 L6.62355734,9.94664552 L7.47249508,10.1724861 L7.46931825,10.2944535 L7.46931825,10.2944535 L7.46822543,10.4166241 L7.43569477,46.8320184 L1.61982337,45.289131 L1.65337061,8.87373677 L1.65255734,8.87353349 C1.65255734,8.79323829 1.65357392,8.71192671 1.65764026,8.63061512 L1.65703031,8.63041184 C1.66414639,8.47998541 1.67634538,8.32955897 1.69566046,8.18014893 C1.71304403,8.04252907 1.73642544,7.90429937 1.76488976,7.76911886 C1.79213419,7.63668261 1.82466485,7.50455128 1.86227842,7.37445274 C1.89918038,7.24262633 1.94187687,7.1115114 1.98965627,6.98344565 L1.98955461,6.98324237 C2.04038376,6.84501267 2.09629583,6.70983216 2.15830739,6.57770083 C2.23007815,6.42331045 2.30937162,6.27288402 2.3947646,6.12855595 L5.61882337,6.98241323 L2.39466294,6.12764119 C2.40177902,6.11646085 2.4088951,6.10426411 2.41601118,6.09308377 L2.53782337,5.90941323 L2.53759451,5.90972614 C2.62603723,5.78166039 2.71956287,5.6617258 2.81512167,5.54788958 C3.05137556,5.27254822 3.30857107,5.04182659 3.57694898,4.86395749 C3.77670754,4.73141961 3.98205731,4.62673094 4.18944024,4.55355051 C4.24189593,4.53515376 4.29475824,4.51787505 4.34863714,4.50364552 Z M20.3818794,0.0814132265 L26.1977508,1.62328419 L10.1642036,6.04561813 L4.34833217,4.50273077 L20.3818794,0.0814132265 Z" id="形状结合" fill="url(#linearGradient-4)" fill-rule="nonzero"></path>
            <path d="M14.3198933,13.6070875 C14.1145435,14.1305309 14.1145435,14.7200399 14.3188767,15.1306634 L14.3697058,15.2485652 C14.586238,15.6378444 14.9511913,15.8187627 15.3476587,15.7181396 L21.346515,14.0634488 C21.9788297,13.8896453 22.4922056,13.0348572 22.4922056,12.1627905 C22.4932207,11.2907237 21.9818794,10.7276409 21.3495648,10.9024609 L15.3435924,12.5581681 C15.3008959,12.5693484 15.2775145,12.5805287 15.2531165,12.5896763 C15.2297351,12.5978074 15.2053371,12.6049222 15.1809391,12.6161026 C15.1545079,12.6272829 15.1290933,12.6425288 15.1036788,12.6567583 C15.0792808,12.6699715 15.0558994,12.6801354 15.0325179,12.6953814 C15.0060868,12.7116437 14.9816888,12.7309552 14.9562742,12.7492503 C14.9339094,12.7655126 14.9115446,12.7807585 14.8891797,12.7980372 C14.8637652,12.8193815 14.8383506,12.843775 14.812936,12.8671521 C14.7936209,12.8854472 14.7732893,12.9027259 14.7539742,12.9220374 C14.7285596,12.9484637 14.7061948,12.9769227 14.6817968,13.0043654 C14.6634983,13.0257097 14.6441832,13.0450212 14.6269013,13.0673819 C14.6045365,13.0968573 14.5831883,13.1283656 14.56184,13.1598738 C14.5455747,13.1832509 14.5272762,13.2056116 14.5110109,13.2310214 C14.4916958,13.2625297 14.4744139,13.2960707 14.4561154,13.3285953 C14.4398501,13.356038 14.4235847,13.3824643 14.408336,13.4119397 C14.3768219,13.4749562 14.3463244,13.5400055 14.3198933,13.6070875 M22.4169769,24.219266 C22.5969121,23.6948063 22.5847131,23.1256252 22.3742804,22.7343132 C22.3468327,22.6804442 22.3173518,22.6306409 22.2848211,22.5849031 C22.2756719,22.57169 22.2644895,22.5605096 22.2543237,22.5472965 C22.2309422,22.5168047 22.2075608,22.4852964 22.1811297,22.4588702 C22.1699473,22.4466734 22.1557151,22.4375259 22.1445327,22.4263455 C22.1181015,22.4029684 22.092687,22.378575 22.0652392,22.3582471 C22.0479573,22.3460503 22.0296588,22.3369028 22.0113603,22.3267388 C21.9869623,22.3104765 21.9635809,22.2942142 21.9381663,22.2830339 C21.9178347,22.2728699 21.897503,22.2677879 21.8761548,22.2596568 C21.8517568,22.2494928 21.8273588,22.2393289 21.8009276,22.2322141 C21.780596,22.2261157 21.7592477,22.2250993 21.7378995,22.2210338 C21.7114683,22.2159518 21.6850372,22.2098534 21.6565728,22.2078206 C21.6352246,22.2068042 21.6118432,22.208837 21.5894784,22.208837 C21.5630472,22.208837 21.5355995,22.2078206 21.5081517,22.2108698 C21.4837537,22.213919 21.4593557,22.2200174 21.4359743,22.2250993 C21.4115763,22.2291649 21.3881949,22.2311977 21.3637969,22.2383125 L15.339526,23.8991016 C14.7061948,24.0739216 14.1938355,24.9287096 14.1938355,25.8007764 C14.1928204,26.6728432 14.7041616,27.2359259 15.3364763,27.061106 L21.3353326,25.4064152 C21.3475316,25.4043824 21.358714,25.4013332 21.370913,25.398284 C21.3932778,25.3921857 21.4146261,25.3820217 21.4359743,25.3738906 C21.4593557,25.3657594 21.4817206,25.3586446 21.505102,25.3484807 C21.5325497,25.3373003 21.5599975,25.321038 21.5864286,25.3068085 C21.6087934,25.2946118 21.6311583,25.2834314 21.6535231,25.2702183 C21.6799543,25.253956 21.7063854,25.2336281 21.7328166,25.2143166 C21.7531482,25.1980542 21.7755131,25.1838247 21.7968613,25.166546 C21.8222759,25.1452017 21.8476905,25.1218246 21.8720884,25.0974312 C21.8924201,25.079136 21.9127518,25.0618573 21.9320668,25.0415294 C21.9574814,25.0151032 21.9808628,24.9866441 22.0052608,24.9581851 C22.0235593,24.9368408 22.0418578,24.9175293 22.0591397,24.8951686 C22.0835377,24.8646767 22.1059025,24.8301193 22.1292839,24.7975947 C22.1435161,24.775234 22.1597814,24.7549061 22.1750302,24.731529 C22.1994282,24.6918896 22.2228096,24.649201 22.246191,24.6065125 C22.2563568,24.5882173 22.2675392,24.5709386 22.2777051,24.5516271 C22.3092191,24.489627 22.3397166,24.4245778 22.3661478,24.3564793 L22.4169769,24.219266 M35.5146324,14.2392851 C35.5247983,14.3612525 35.5319144,14.4822035 35.5339475,14.6062036 L35.479052,25.4775628 L25.0153631,28.3631078 C24.2681746,28.5694359 23.6531419,29.540093 23.5951966,30.5686846 L23.5951966,30.7089471 L23.5809645,45.3907705 L6.99134634,49.9655636 C6.67823877,50.0519572 6.38444628,49.9747112 6.16079802,49.7460224 C5.95036533,49.5213991 5.82837537,49.1768412 5.81617638,48.7834964 C5.81820954,48.7306439 5.82227588,48.676775 5.82735879,48.6239225 L7.43559311,46.8320184 L7.46812377,10.4166241 C7.46304085,9.44901624 7.73853485,8.44888372 8.23157761,7.63475146 L8.35356757,7.45180039 C8.85880933,6.7220289 9.50535612,6.22704461 10.1641019,6.04612633 L26.1976492,1.62379239 C26.2505115,1.60854647 26.3023572,1.60041531 26.3552195,1.58923497 C26.3948663,1.58008741 26.4355296,1.56992347 26.4751763,1.5638251 C26.5229557,1.55671033 26.5707351,1.55467754 26.6185145,1.55162836 C26.6581613,1.54857917 26.697808,1.54234861 26.7374547,1.54234861 C26.7852341,1.54146441 26.8309804,1.54654638 26.8777432,1.54959557 C26.9163733,1.55162836 26.9560201,1.55162836 26.9936336,1.55671033 C27.0424296,1.5628087 27.0891925,1.57398904 27.1359553,1.58415299 C27.1715357,1.59126776 27.2081327,1.59634973 27.2426965,1.60549728 C27.2914925,1.61871042 27.3372387,1.63802192 27.3840015,1.65428424 C27.4175488,1.66648098 27.451096,1.67562853 27.4846432,1.68985806 C27.5324226,1.71018595 27.5781689,1.73762861 27.6249317,1.76202209 C27.6544126,1.77828441 27.6849101,1.79048115 27.7133744,1.80775986 C27.7672533,1.84028449 27.8180825,1.8778911 27.8689116,1.91651411 C28.0010674,2.0161208 28.0691785,2.07812088 28.1342398,2.14621934 L28.2491137,2.2722523 C28.6903107,2.81094156 28.9322574,3.60779511 28.9312409,4.50527176 L28.9241248,12.810234 L32.7932397,11.7430194 C32.9497935,11.7013472 33.029087,11.6840685 33.1073639,11.6739045 C33.2171548,11.6586586 33.2944151,11.6535766 33.3706589,11.6535766 C33.4774001,11.654593 33.5516106,11.659675 33.6248046,11.6708554 C33.7284961,11.6871177 33.7996569,11.7023636 33.8698011,11.7226915 C33.9684097,11.7531833 34.0365207,11.7796096 34.1025986,11.8090851 C34.1951077,11.85279 34.260169,11.8883639 34.3231972,11.9290196 C34.4106233,11.9859378 34.4716183,12.0306591 34.5305801,12.0794461 C34.608857,12.1465281 34.6668022,12.2014135 34.7206811,12.259348 C34.7938751,12.3386268 34.8457208,12.4016432 34.8955334,12.4687253 C34.9605947,12.5571517 35.0073575,12.6293157 35.0520872,12.7045289 C35.1079992,12.8021028 35.1506957,12.882398 35.1893259,12.9657424 C35.2360887,13.070431 35.2716691,13.1588574 35.3052163,13.2513493 C35.3428299,13.3631528 35.3723108,13.4586939 35.398742,13.559317 C35.4282229,13.6762024 35.4505877,13.780891 35.4688862,13.8886289 C35.4892179,14.0116127 35.50345,14.1234161 35.5146324,14.2392851" id="Fill-142" fill="url(#linearGradient-5)" fill-rule="nonzero"></path>
            <polygon id="Fill-144" fill="url(#linearGradient-6)" fill-rule="nonzero" points="36.3799479 37.6710484 30.5640765 36.1291774 34.1841286 35.1300613 40 36.6729487"></polygon>
            <polygon id="Fill-146" fill="url(#linearGradient-7)" fill-rule="nonzero" points="33.6607917 47.1377499 27.8449203 45.5948626 27.8489866 40.6114787 33.664858 42.1533496"></polygon>
            <polygon id="Fill-148" fill="url(#linearGradient-8)" fill-rule="nonzero" points="33.668721 38.4189117 27.8528496 36.8770408 27.8569159 31.9007716 33.6727873 33.4426426"></polygon>
            <polygon id="Fill-150" fill="url(#linearGradient-9)" fill-rule="nonzero" points="33.673194 33.4431508 27.8573226 31.9012798 30.5685495 31.1532132 36.3844209 32.6950842"></polygon>
            <polygon id="Fill-152" fill="url(#linearGradient-10)" fill-rule="nonzero" points="36.3799479 37.6710484 40 36.6729487 39.9969503 40.4061669 36.3768982 41.405283 36.3728318 46.3896833 33.6605883 47.1377499 33.6656713 42.1533496 30.0456192 43.1514494 30.0486689 39.4172147 33.668721 38.419115 33.6727873 33.4428459 36.3840142 32.6947793"></polygon>
            <polygon id="Fill-154" fill="url(#linearGradient-11)" fill-rule="nonzero" points="30.0452125 43.1510428 24.2293411 41.6091718 24.2334075 37.8749372 30.0482623 39.4178246"></polygon>
            <polygon id="Fill-156" fill="url(#linearGradient-12)" fill-rule="nonzero" points="30.0486689 39.417418 24.2327975 37.8745307 27.8528496 36.8764309 33.668721 38.4193183"></polygon>
            <path d="M4.34863714,4.50364552 L10.1645085,6.04551649 C10.1106296,6.05974602 10.0577673,6.07702473 10.004905,6.09531984 C9.86624309,6.14417455 9.72875589,6.20698775 9.59376872,6.28258494 L9.39282337,6.40541323 L9.39383697,6.40582846 C9.12444247,6.58369756 8.86623038,6.81543558 8.63139971,7.09087858 L8.48923057,7.26586366 L8.48923057,7.26586366 L8.35282337,7.45141323 L8.35387255,7.45180039 L8.23188258,7.63475146 L8.210636,7.67042692 C8.12422644,7.81475498 8.04594955,7.96518142 7.97377216,8.11967344 L7.885609,8.32005568 L7.80552767,8.52531662 C7.75774827,8.65338236 7.71505178,8.7844973 7.67743821,8.91662863 C7.64053625,9.04642225 7.60800559,9.17855358 7.58055785,9.31068491 L7.54235974,9.51550117 L7.54235974,9.51550117 L7.51153186,9.7220199 C7.49221679,9.87142994 7.47900121,10.0218564 7.47290171,10.1722828 L6.62355734,9.94664552 L7.47249508,10.1724861 L7.46931825,10.2944535 L7.46931825,10.2944535 L7.46822543,10.4166241 L7.43569477,46.8320184 L1.61982337,45.289131 L1.65337061,8.87373677 L1.65255734,8.87353349 C1.65255734,8.79323829 1.65357392,8.71192671 1.65764026,8.63061512 L1.65703031,8.63041184 C1.66414639,8.47998541 1.67634538,8.32955897 1.69566046,8.18014893 C1.71304403,8.04252907 1.73642544,7.90429937 1.76488976,7.76911886 C1.79213419,7.63668261 1.82466485,7.50455128 1.86227842,7.37445274 C1.89918038,7.24262633 1.94187687,7.1115114 1.98965627,6.98344565 L1.98955461,6.98324237 C2.04038376,6.84501267 2.09629583,6.70983216 2.15830739,6.57770083 C2.23007815,6.42331045 2.30937162,6.27288402 2.3947646,6.12855595 L5.61882337,6.98241323 L2.39466294,6.12764119 C2.40177902,6.11646085 2.4088951,6.10426411 2.41601118,6.09308377 L2.53782337,5.90941323 L2.53759451,5.90972614 C2.62603723,5.78166039 2.71956287,5.6617258 2.81512167,5.54788958 C3.05137556,5.27254822 3.30857107,5.04182659 3.57694898,4.86395749 C3.77670754,4.73141961 3.98205731,4.62673094 4.18944024,4.55355051 C4.24189593,4.53515376 4.29475824,4.51787505 4.34863714,4.50364552 Z M20.3818794,0.0814132265 L26.1977508,1.62328419 L10.1642036,6.04561813 L4.34833217,4.50273077 L20.3818794,0.0814132265 Z" id="形状结合" fill="url(#linearGradient-13)" fill-rule="nonzero"></path>
        </g>
    </g>
</svg>