<?xml version="1.0" encoding="UTF-8"?>
<svg width="50px" height="50px" viewBox="0 0 50 50" version="1.1" xmlns="http://www.w3.org/2000/svg" xmlns:xlink="http://www.w3.org/1999/xlink">
    <title>等保测评</title>
    <defs>
        <linearGradient x1="41.8539616%" y1="92.4739011%" x2="85.5977158%" y2="9.10529113%" id="linearGradient-1">
            <stop stop-color="#003B7C" offset="0%"></stop>
            <stop stop-color="#4EA2FF" offset="100%"></stop>
        </linearGradient>
        <linearGradient x1="-239.369478%" y1="193.573656%" x2="140.245204%" y2="41.2485269%" id="linearGradient-2">
            <stop stop-color="#003B7C" offset="0%"></stop>
            <stop stop-color="#4EA2FF" offset="100%"></stop>
        </linearGradient>
        <linearGradient x1="-263.448404%" y1="156.805741%" x2="140.245204%" y2="38.7738241%" id="linearGradient-3">
            <stop stop-color="#003B7C" offset="0%"></stop>
            <stop stop-color="#4EA2FF" offset="100%"></stop>
        </linearGradient>
        <linearGradient x1="53.7646163%" y1="237.621237%" x2="69.7579488%" y2="3.73619394%" id="linearGradient-4">
            <stop stop-color="#003B7C" offset="0%"></stop>
            <stop stop-color="#4EA2FF" offset="100%"></stop>
        </linearGradient>
        <path d="M0,0 L6.12821182,1.63326612 C6.88767733,2.76407159 7.77675543,3.73025932 8.66476235,4.97511367 L2.53655053,3.34292348" id="path-5"></path>
        <linearGradient x1="72.5073061%" y1="126.808039%" x2="140.245204%" y2="15.5552898%" id="linearGradient-7">
            <stop stop-color="#003B7C" offset="0%"></stop>
            <stop stop-color="#4EA2FF" offset="100%"></stop>
        </linearGradient>
        <linearGradient x1="40.0181021%" y1="-53.5233111%" x2="23.3438672%" y2="120.820243%" id="linearGradient-8">
            <stop stop-color="#C3EEFF" offset="0%"></stop>
            <stop stop-color="#25A8FF" offset="100%"></stop>
        </linearGradient>
        <linearGradient x1="72.5073061%" y1="76.564449%" x2="140.245204%" y2="38.0871227%" id="linearGradient-9">
            <stop stop-color="#003B7C" offset="0%"></stop>
            <stop stop-color="#4EA2FF" offset="100%"></stop>
        </linearGradient>
        <linearGradient x1="72.5073061%" y1="194.147111%" x2="140.245204%" y2="-14.6430443%" id="linearGradient-10">
            <stop stop-color="#003B7C" offset="0%"></stop>
            <stop stop-color="#4EA2FF" offset="100%"></stop>
        </linearGradient>
        <linearGradient x1="72.5073061%" y1="132.496598%" x2="140.245204%" y2="13.0042446%" id="linearGradient-11">
            <stop stop-color="#003B7C" offset="0%"></stop>
            <stop stop-color="#4EA2FF" offset="100%"></stop>
        </linearGradient>
        <linearGradient x1="72.5073061%" y1="70.1195407%" x2="140.245204%" y2="40.977354%" id="linearGradient-12">
            <stop stop-color="#003B7C" offset="0%"></stop>
            <stop stop-color="#4EA2FF" offset="100%"></stop>
        </linearGradient>
        <linearGradient x1="31.783145%" y1="329.669985%" x2="85.5977158%" y2="5.04184887%" id="linearGradient-13">
            <stop stop-color="#003B7C" offset="0%"></stop>
            <stop stop-color="#4EA2FF" offset="100%"></stop>
        </linearGradient>
        <linearGradient x1="39.4400523%" y1="138.685185%" x2="9.421912%" y2="1.50239511%" id="linearGradient-14">
            <stop stop-color="#003B7C" offset="0%"></stop>
            <stop stop-color="#4EA2FF" offset="100%"></stop>
        </linearGradient>
        <linearGradient x1="41.1351935%" y1="0.69964606%" x2="-4.70042034%" y2="264.249016%" id="linearGradient-15">
            <stop stop-color="#C3EEFF" offset="0%"></stop>
            <stop stop-color="#25A8FF" offset="100%"></stop>
        </linearGradient>
        <linearGradient x1="58.5138963%" y1="49.1462209%" x2="194.681194%" y2="-9.40964897%" id="linearGradient-16">
            <stop stop-color="#003B7C" offset="0%"></stop>
            <stop stop-color="#4EA2FF" offset="100%"></stop>
        </linearGradient>
        <linearGradient x1="-14.7796856%" y1="256.31141%" x2="203.145175%" y2="-139.75654%" id="linearGradient-17">
            <stop stop-color="#003B7C" offset="0%"></stop>
            <stop stop-color="#4EA2FF" offset="100%"></stop>
        </linearGradient>
        <linearGradient x1="42.5997279%" y1="0%" x2="59.9784941%" y2="104.705303%" id="linearGradient-18">
            <stop stop-color="#C3EEFF" offset="0%"></stop>
            <stop stop-color="#25A8FF" offset="100%"></stop>
        </linearGradient>
        <linearGradient x1="74.0343586%" y1="105.691627%" x2="127.166029%" y2="-235.486647%" id="linearGradient-19">
            <stop stop-color="#003B7C" offset="0%"></stop>
            <stop stop-color="#4EA2FF" offset="100%"></stop>
        </linearGradient>
        <linearGradient x1="-193.137213%" y1="117.187745%" x2="140.245204%" y2="43.5107991%" id="linearGradient-20">
            <stop stop-color="#003B7C" offset="0%"></stop>
            <stop stop-color="#4EA2FF" offset="100%"></stop>
        </linearGradient>
        <linearGradient x1="68.8600446%" y1="282.977496%" x2="125.621159%" y2="-54.479198%" id="linearGradient-21">
            <stop stop-color="#003B7C" offset="0%"></stop>
            <stop stop-color="#4EA2FF" offset="100%"></stop>
        </linearGradient>
        <linearGradient x1="79.5888317%" y1="-28.6131912%" x2="57.6067703%" y2="154.559173%" id="linearGradient-22">
            <stop stop-color="#C3EEFF" offset="0%"></stop>
            <stop stop-color="#25A8FF" offset="100%"></stop>
        </linearGradient>
        <linearGradient x1="140.87287%" y1="150.744696%" x2="258.56973%" y2="-30.878748%" id="linearGradient-23">
            <stop stop-color="#003B7C" offset="0%"></stop>
            <stop stop-color="#4EA2FF" offset="100%"></stop>
        </linearGradient>
        <linearGradient x1="83.4855216%" y1="230.334459%" x2="147.203115%" y2="-171.666277%" id="linearGradient-24">
            <stop stop-color="#003B7C" offset="0%"></stop>
            <stop stop-color="#4EA2FF" offset="100%"></stop>
        </linearGradient>
    </defs>
    <g id="页面-1" stroke="none" stroke-width="1" fill="none" fill-rule="evenodd">
        <g id="编组-66" transform="translate(6.000000, 0.000000)">
            <path d="M11.9333562,26.0519934 L18.0604969,27.6841836 C18.0804208,27.8364204 18.1532854,27.9744137 18.2492609,28.0631551 L18.7613689,28.1983719 C19.0495159,28.2747631 19.3076699,28.4931775 19.4747737,28.8396279 C19.5646581,29.0245773 19.6225503,29.2302354 19.6507669,29.4467124 L23.0923576,30.3637944 C23.269102,30.4100595 23.4276364,30.5068935 23.5626049,30.642461 L19.6652283,29.6035307 L19.6652283,29.6045307 L23.5628191,30.642999 L23.6635099,30.754896 C23.6742217,30.7678072 23.6870758,30.7785666 23.7095706,30.7990093 C23.7211393,30.8084775 23.7339934,30.817085 23.7511323,30.8278443 C23.7640027,30.8357997 23.7787031,30.842836 23.8019992,30.8532005 L23.8077976,30.8553882 C23.8217229,30.8607678 23.8356483,30.8650716 23.8570718,30.8715272 L19.6711107,29.7552775 C19.6712245,29.7948949 19.6703709,29.8346775 19.6685499,29.8744602 C19.665872,29.9516045 19.6583737,30.0301476 19.6487331,30.1086907 L19.6287021,30.2406001 L19.5879973,30.4396477 L19.5856407,30.4486855 L19.5794814,30.4809635 L19.5746076,30.5134567 L19.5705907,30.5536697 L19.5705907,30.5536697 L19.568609,30.5926454 C19.5664666,30.6292271 19.5675378,30.6658088 19.5696802,30.7013146 L17.8403562,30.2405307 L19.5696802,30.7016374 C19.5825343,30.9006849 19.6543033,31.0900491 19.7624923,31.1825794 C19.7682052,31.1883177 19.8704036,31.2799181 20.1668893,31.4339551 L20.2871555,31.4943847 C20.620292,31.6633062 20.7852534,31.7149509 20.8323853,31.7267862 L14.7041735,30.094596 C14.6570416,30.0827608 14.4920801,30.0321919 14.1600148,29.8621945 L16.0442294,30.3635307 L14.1591579,29.8613338 C13.7692489,29.6719696 13.6407075,29.5568448 13.6342805,29.5503892 C13.5260914,29.456783 13.4553937,29.2684947 13.4414683,29.0683712 C13.439326,29.0325427 13.4382548,28.9970369 13.4403972,28.9615311 L13.4399687,28.9608855 L13.4425127,28.921076 L13.4425127,28.921076 L13.4467171,28.8810513 C13.4499306,28.8595327 13.4531442,28.838014 13.4574289,28.8175713 L13.4572147,28.8169257 C13.4582858,28.812622 13.459357,28.8104701 13.459357,28.8072423 L15.2616141,29.2865307 L13.4597855,28.8063816 L13.5000618,28.6089479 C13.5086312,28.5648346 13.5150583,28.5207214 13.5204142,28.4755322 C13.5312331,28.3979574 13.5376602,28.3194143 13.5408737,28.2419472 C13.5446228,28.1486638 13.5435516,28.0561336 13.5371246,27.9646793 L17.4222283,28.9985307 L17.4212283,28.9975307 L13.5372317,27.9638185 C13.5190217,27.6916075 13.4568933,27.4344595 13.3465619,27.2063618 C13.2335959,26.9743678 13.0805143,26.7996588 12.9051731,26.6867999 L12.280418,26.5221761 C12.112243,26.4769869 11.962278,26.2811671 11.9333562,26.0519934 Z M11.9346416,24.3639623 L18.0617823,25.9961525 L18.0617823,26.0004562 L18.0606141,25.9999623 L18.0595338,26.0180597 C18.0553433,26.0599015 18.0458217,26.1607702 18.0377879,26.3356093 L17.3766141,26.1595307 L18.0374665,26.3360397 C18.0334496,26.4336806 18.0300352,26.5537143 18.0285791,26.6997722 L18.027933,26.8549621 C18.027933,27.1745142 18.0365025,27.3832451 18.0450719,27.5123571 C18.0522488,27.6276971 18.0608182,27.6782659 18.0608182,27.6836456 L11.9326064,26.0514554 C11.9315352,26.0471517 11.924037,25.9965828 11.9165387,25.8803821 L12.9676141,26.1595307 L11.9168601,25.8801669 C11.9097189,25.7725736 11.9025777,25.6089421 11.9003957,25.3724611 L11.8996141,25.2213732 C11.8996141,25.0040347 11.90497,24.8329614 11.9103259,24.7038495 L11.9095761,24.7034191 C11.9192167,24.4925363 11.9309996,24.3903226 11.9342132,24.368804 L11.9335705,24.368266 L11.9346416,24.3639623 Z M12.4939039,23.5753035 L18.6221157,25.2085696 L18.4807202,25.2838849 L18.4625101,25.2964733 C18.4134502,25.3287513 18.3641759,25.3739405 18.3191865,25.4277371 L18.3181772,25.4274479 L18.2625747,25.5006047 C18.2443646,25.5262926 18.226958,25.5531909 18.2108903,25.5811651 C18.1903237,25.6162406 18.1710425,25.6528223 18.1539036,25.689404 L18.1337655,25.7341897 L18.1157697,25.7801051 C18.1072002,25.8048516 18.0986308,25.8317499 18.0911326,25.8575723 C18.0845984,25.8805973 18.0781713,25.9042678 18.0738866,25.9268624 C18.0698161,25.9479507 18.0655314,25.9694693 18.063389,25.990988 L11.9351772,24.3587978 C11.9373196,24.3372791 11.9416043,24.3157605 11.945889,24.2942418 C11.9510307,24.2710017 11.9563866,24.2473311 11.9628136,24.2247366 L16.4726141,25.4265307 L11.9629207,24.2243062 C11.970419,24.1984838 11.9789884,24.1737373 11.988629,24.146839 L11.9879863,24.1465162 C11.9997693,24.1163901 12.0115522,24.0873399 12.0254776,24.0572138 C12.0428307,24.0195562 12.0621119,23.9840504 12.0824643,23.9485446 L16.8096141,25.2075307 L12.0826785,23.947899 C12.115885,23.8930264 12.1523051,23.8413817 12.1908675,23.7951166 C12.2370353,23.7428262 12.2852383,23.697637 12.3345125,23.6632072 L12.3525083,23.6524479 L12.4939039,23.5753035 Z M17.9314199,17.853062 L24.0596317,19.4863281 C24.0521334,19.48848 24.0446352,19.4917078 24.0349946,19.4938597 C24.0178557,19.5013912 24.0007169,19.5099986 23.9707239,19.5272136 C23.9557274,19.535821 23.9418021,19.5433526 23.9171649,19.5594916 C23.9000261,19.5713268 23.8839584,19.584238 23.857179,19.6057567 C23.8432536,19.6175919 23.8303995,19.6283513 23.8068336,19.6509459 L23.7832141,19.6753695 L23.7545601,19.7071095 C23.7422415,19.7214195 23.7304585,19.7364825 23.7101062,19.7644568 C23.6970378,19.7825324 23.6841836,19.7997474 23.6734719,19.8191142 L23.5723526,19.9968583 C23.5123666,20.0893885 23.4470247,20.177615 23.3784693,20.25831 C23.2553909,20.4022698 23.1204224,20.5260021 22.9747422,20.622836 C22.9049727,20.669675 22.8326801,20.7106322 22.7589116,20.744528 L22.6470687,20.7897132 L22.5613744,20.8176875 L22.5613744,20.8176875 C22.5174561,20.8284468 22.4735378,20.8381302 22.4306906,20.8456617 L22.4272294,20.8445307 L22.3401493,20.8559638 C22.3102902,20.8582501 22.2808328,20.8593261 22.251911,20.8593261 L21.3806141,20.6265307 L22.251911,20.8596489 C22.1972809,20.8585729 22.1437219,20.8542692 22.0912342,20.8445858 L20.7667648,20.4899393 C20.6807601,20.5666586 20.529607,20.7084999 20.2967961,20.9506728 C20.1541151,21.1018414 20.0468259,21.2214851 19.9673701,21.3134472 L19.9133142,21.3771726 C19.8147658,21.4933733 19.7751322,21.54717 19.7708475,21.5525496 L19.7533069,21.578641 L19.7533069,21.578641 L19.7360342,21.6063463 C19.7199665,21.6332446 19.70497,21.6633707 19.6910447,21.6934968 L19.6714421,21.7368973 L19.6714421,21.7368973 L19.654089,21.7817233 C19.6433772,21.8118495 19.6326654,21.8441275 19.624096,21.8742536 L19.6115766,21.9220384 L19.6115766,21.9220384 L19.6014942,21.9696888 L19.5917197,22.0190472 L19.5833562,22.0669446 L19.5845695,22.0673835 C19.5802848,22.1007374 19.5770713,22.1351673 19.5760001,22.1674453 C19.5749289,22.2046726 19.5749289,22.2391024 19.5770713,22.2724563 C19.5798564,22.3158164 19.5862834,22.3567019 19.5948529,22.3932836 L19.6351292,22.5687683 C19.6524823,22.6598998 19.6653364,22.7556578 19.6717635,22.8535677 C19.6770122,22.9446992 19.6780834,23.0393813 19.6748699,23.1340634 C19.6715492,23.2122837 19.6651222,23.2908268 19.6544104,23.3704458 L16.6466141,22.5685307 L19.6548388,23.370661 L19.6386373,23.4778508 L19.6386373,23.4778508 L19.6179903,23.586278 C19.604065,23.6551377 19.5879973,23.7239974 19.5676449,23.7928571 C19.5483637,23.8621472 19.525869,23.9320828 19.5001607,24.0009425 L19.4790585,24.0563531 C19.4544214,24.121985 19.4276419,24.1833131 19.3997913,24.2446413 C19.3584438,24.3332982 19.3145255,24.417221 19.2673936,24.4979159 C19.1925182,24.6250912 19.1089663,24.7412919 19.0200585,24.8467334 C18.8967659,24.9908008 18.7628686,25.1123812 18.6225442,25.2081392 L12.4943324,23.5748731 C12.6346567,23.4812669 12.7696252,23.3586106 12.8917396,23.2133596 C12.9807545,23.1091017 13.0632352,22.9918251 13.1392889,22.864865 C13.1863136,22.7850308 13.2313031,22.7000321 13.2720079,22.6118056 C13.2994301,22.5521989 13.3262095,22.4887188 13.3508466,22.4252388 C13.3583449,22.405872 13.3658431,22.3865052 13.3722702,22.3682144 C13.3976571,22.2998926 13.4201519,22.229957 13.4394331,22.1600213 C13.4587143,22.0918072 13.4758532,22.0218716 13.4908497,21.9530119 L13.490207,21.9525815 L13.5104255,21.8453917 L13.5261986,21.7371797 C13.5369103,21.6586366 13.5433374,21.5800935 13.5465509,21.5026264 L18.6636141,22.8645307 L13.5466581,21.5018732 C13.5509428,21.4071911 13.5498716,21.3135849 13.5434445,21.2210547 L15.0396141,21.6185307 L13.5435516,21.2203016 C13.5371246,21.1234676 13.5253416,21.0287855 13.5071316,20.9373312 L13.4672837,20.761201 C13.4580716,20.7234358 13.4516445,20.6825503 13.448431,20.6405889 C13.4467171,20.6058363 13.4467171,20.5714064 13.4477883,20.5359007 C13.4488595,20.5029771 13.452073,20.4696232 13.4563577,20.4362693 L14.7006141,20.7665307 L13.4561435,20.4354085 L13.4722112,20.3385746 L16.1766141,21.0575307 L13.4728539,20.3377138 C13.4792809,20.3054358 13.4867792,20.2742338 13.4964198,20.2430317 L14.5636141,20.5265307 L13.4958842,20.2420634 L13.5258772,20.1495332 C13.5379815,20.1195146 13.5497645,20.0904644 13.5626186,20.0603383 C13.5767582,20.0301046 13.5928259,20.0010544 13.6088935,19.9730802 C13.6201409,19.9547893 13.6308527,19.9375744 13.6426356,19.9214354 C13.6458492,19.9160557 13.686554,19.8611831 13.7840312,19.7449824 L16.7536141,20.5355307 L13.7846739,19.744014 C13.8671546,19.648256 13.9903402,19.5083847 14.169227,19.3179446 L17.2906141,20.1495307 L14.1685843,19.3174067 L14.2698054,19.2133791 L14.4391369,19.0444309 L14.5169865,18.9694477 L14.6340268,18.8612222 C14.6956024,18.8061367 14.7252493,18.783199 14.7288106,18.7805161 C14.7404864,18.7708328 14.7533406,18.7622253 14.7661947,18.7536178 L16.4068279,19.1915143 L16.408857,19.1909702 L14.7658734,18.7531875 L14.767373,18.7521115 C14.7887966,18.7392003 14.7984372,18.7338207 14.8080778,18.728441 C14.8360355,18.7183272 14.8585303,18.7097198 14.8756691,18.7032642 C14.9292281,18.6844353 14.9431534,18.6812075 14.9549363,18.6801316 C14.954615,18.6786253 14.9556862,18.6786253 14.9567574,18.6786253 C14.9792521,18.6753975 14.996391,18.6753975 15.0135298,18.6753975 L16.2012294,18.9905307 L15.0142796,18.6744292 L15.0228491,18.6744292 C15.0451296,18.6744292 15.0579837,18.6755051 15.0697667,18.676581 L16.1653562,18.9685307 L15.0697667,18.6764734 L15.0883784,18.6786253 L15.1031874,18.6806696 C15.1138992,18.6828214 15.1213975,18.6849733 15.1299669,18.6871252 L16.6632672,19.0968188 C16.7258526,19.0666408 16.7870475,19.0314237 16.8468517,18.9909686 C16.9922106,18.8938119 17.1282503,18.7700796 17.2503646,18.6259046 L19.3723562,19.1905307 L17.2502575,18.6250438 C17.3188129,18.5443489 17.3841548,18.4571983 17.4441408,18.3635922 L19.7972294,18.9905307 L17.4438194,18.363377 L17.5455814,18.186924 C17.557043,18.1686331 17.568826,18.1492663 17.5816801,18.1320514 L19.4332283,18.6245307 L17.5818943,18.1311906 C17.6022467,18.1042923 17.6140297,18.0892293 17.6258127,18.0763181 L22.8296141,19.4605307 L17.6258127,18.0754573 L17.6268838,18.0733055 C17.6483074,18.0496349 17.6633039,18.0334959 17.6783004,18.0195088 C17.7021877,17.9961611 17.7150418,17.9843258 17.7289671,17.9724905 C17.7557466,17.9509719 17.7728855,17.9380607 17.7889531,17.9273014 C17.8135902,17.9111624 17.8275156,17.9025549 17.8425121,17.8950234 C17.872505,17.8778085 17.8896439,17.869201 17.9067828,17.8616695 C17.9153522,17.8584417 17.9239216,17.8562898 17.9314199,17.853062 Z M20.3581746,21.386318 L20.5059972,21.3927736 L20.9146141,21.5015307 L20.5066399,21.3925584 C20.5184229,21.3925584 20.5302059,21.3947103 20.5419888,21.3968621 L26.6691295,23.0290523 C26.6573465,23.0269005 26.6466347,23.0258245 26.6348518,23.0247486 L26.4863864,23.0195841 L20.3581746,21.386318 Z M18.0871692,17.8285307 C18.1021657,17.8296067 18.1128775,17.8306826 18.1225181,17.8328345 L18.1234847,17.8325307 L18.1377288,17.8360623 L18.1377288,17.8360623 L24.2670118,19.4682524 C24.2616559,19.4671765 24.2563,19.4661006 24.249873,19.4650246 C24.2410893,19.4628728 24.2303775,19.4617969 24.215381,19.4607209 C24.2001703,19.4603981 24.1787467,19.4614741 24.0876966,19.4765371 L17.9594847,17.8443469 C18.0277724,17.8338566 18.056895,17.8300236 18.0717074,17.8287627 L18.0871692,17.8285307 Z" id="形状结合" fill="url(#linearGradient-1)" fill-rule="nonzero"></path>
            <polygon id="Fill-1" fill="#9F9F9F" points="34.82776 25.3154097 28.6995482 23.6821436 28.8345167 23.5713225 34.9616573 25.2035127"></polygon>
            <path d="M34.9621929,25.2029747 L28.8339811,23.5707845 C28.8146999,23.4642672 28.8007745,23.355598 28.7804222,23.2501565 L34.908634,24.8823467 C34.9289864,24.9888641 34.9418405,25.0964574 34.9621929,25.2029747" id="Fill-3" fill="#6E6E6E"></path>
            <path d="M30.1612783,14.9305055 L36.2894901,16.5626957 L36.2607022,16.5844833 L36.2607022,16.5844833 L36.2262906,16.6143405 C36.2091517,16.6283276 36.193084,16.6433907 36.163091,16.6745927 C36.1480945,16.6896558 36.133098,16.7057948 36.1159592,16.7262375 L29.9877474,15.0940473 C30.0048862,15.0736046 30.0198827,15.0574656 30.0348792,15.0424025 C30.0648722,15.0112005 30.0809399,14.9961374 30.0970076,14.9810743 C30.123787,14.9584797 30.1419971,14.9434167 30.1612783,14.9305055 Z M30.2872489,14.8570193 L36.4154607,16.4892095 C36.3972506,16.496741 36.3779694,16.5064244 36.2890616,16.5623729 L30.1608498,14.9301827 C30.2497576,14.8742342 30.2690388,14.8645508 30.2872489,14.8570193 Z M30.4541385,14.8176401 L36.5823503,16.4498303 C36.5705673,16.4509063 36.5609267,16.4509063 36.5470014,16.4530581 C36.5206504,16.457577 36.4831592,16.4661845 36.4156749,16.4887791 L30.2874631,14.8565889 C30.3560185,14.8339943 30.3924386,14.8253869 30.419218,14.8210831 C30.4327149,14.8187161 30.4434267,14.8176401 30.4541385,14.8176401 Z" id="形状结合" fill="url(#linearGradient-2)" fill-rule="nonzero"></path>
            <path d="M25.9614019,27.1549322 L32.0906849,28.7881983 C32.085329,28.8118688 32.0789019,28.8376912 32.0703325,28.8667414 L32.0708681,28.8672794 C32.064441,28.888798 32.0569427,28.9124686 32.0483733,28.937215 L25.9201615,27.3039489 C25.9287309,27.2792024 25.9362292,27.2566078 25.9426562,27.2340133 C25.9506901,27.205501 25.9571172,27.1796786 25.9614019,27.1549322 Z M25.9705069,27.1052241 L32.0987187,28.7374143 C32.0965763,28.7535533 32.0933628,28.7696923 32.0901493,28.7879831 L25.9619375,27.154717 C25.965151,27.1375021 25.9683645,27.1202871 25.9705069,27.1052241 Z M25.9735062,27.0655222 L32.101718,28.6987883 C32.101718,28.7106235 32.0995756,28.7235347 32.0985045,28.7375219 L25.9702927,27.1042557 C25.972435,27.0913446 25.9735062,27.0784334 25.9735062,27.0655222 Z M25.8428224,26.885411 L31.9699631,28.5176012 C32.0503014,28.5391198 32.0963621,28.5789294 32.101718,28.665004 L32.1022536,28.6653268 L32.1022536,28.6986807 L32.1022536,28.6986807 L25.9740418,27.0654146 L25.9740418,27.0320606 L25.9740418,27.0320606 L25.9735062,27.0317379 C25.9681503,26.9456632 25.9220896,26.9058537 25.8428224,26.885411 Z" id="形状结合" fill="url(#linearGradient-3)" fill-rule="nonzero"></path>
            <path d="M23.3995715,25.9941082 L29.5277833,27.6273743 C29.5481357,27.9286355 29.7045278,28.161037 29.9776783,28.2342005 L23.8494665,26.6009343 C23.576316,26.5288468 23.4199239,26.2953694 23.3995715,25.9941082 Z M23.4230303,25.6792902 L29.5512422,27.3104045 L29.5351745,27.4104662 L29.5351745,27.4104662 C29.5305684,27.4446809 29.5273549,27.4791108 29.5262837,27.5113887 L29.5267122,27.5118191 C29.5245698,27.5516286 29.525641,27.5892863 29.5277833,27.6269439 L23.3995715,25.9936778 C23.3974292,25.9570961 23.396358,25.9183625 23.3985004,25.8796289 L23.3980719,25.8791986 C23.3991431,25.8458446 23.4023566,25.8124907 23.4066413,25.7780609 C23.4112474,25.7449221 23.4166033,25.7126441 23.4230303,25.6792902 Z M23.4488457,25.5772918 L29.5759864,27.208406 C29.5674169,27.2439118 29.5588475,27.2772658 29.5513493,27.3106197 L23.4231375,25.6784295 C23.4306357,25.6450756 23.438134,25.6106457 23.4488457,25.5772918 Z M23.5373251,25.3371436 L29.6655369,26.9704097 C29.6462557,27.013447 29.6280456,27.0554084 29.6130492,27.0973698 C29.5989096,27.1355654 29.5871266,27.1721471 29.5764148,27.2087288 L23.448203,25.5765386 C23.4589148,25.5399569 23.4706978,25.5022993 23.4846231,25.4657176 C23.4998338,25.4232182 23.5180439,25.3801809 23.5373251,25.3371436 Z M23.6265542,25.1690829 L29.7547661,26.802349 C29.7215595,26.8582975 29.6915665,26.914246 29.6658582,26.9701945 L23.5376464,25.3369284 C23.5633547,25.2820558 23.5933477,25.2261073 23.6265542,25.1690829 Z" id="形状结合" fill="#6E6E6E"></path>
            <path d="M29.7547661,26.8021338 L23.6265542,25.1688677 C23.6351237,25.1559565 23.6426219,25.1419693 23.6522625,25.1269063 C25.7164234,21.8345516 27.7805842,18.5497285 29.8586704,15.271361 C29.8768804,15.2433868 29.8940193,15.2175644 29.9122293,15.1928179 C29.9422223,15.1508566 29.95829,15.1293379 29.9754288,15.1088952 C29.9797135,15.1035155 29.9839982,15.0992118 29.988283,15.0938321 L36.1154236,16.7260223 C36.1122101,16.731402 36.1079253,16.7367816 36.1036406,16.7410854 C36.0865018,16.7615281 36.0704341,16.7830467 36.0404411,16.8250081 C36.0222311,16.8497546 36.004021,16.875577 35.9868822,16.9035512 C33.908796,20.1829947 31.8446352,23.4656659 29.7794032,26.7601724 C29.7719049,26.7741595 29.7622643,26.7870707 29.7547661,26.8021338" id="Fill-39" fill="#8F8F8F"></path>
            <path d="M31.6278287,30.1780884 C31.3982751,30.803851 31.1497617,31.4085253 30.8819671,31.9863012 L30.8823956,31.9867316 C30.5867503,32.6236839 30.2686104,33.2326619 29.9269044,33.8093619 L29.9250915,33.8092717 L29.612295,34.3215275 C29.1849206,34.9941146 28.7235426,35.6226316 28.2265158,36.2070783 L28.2250915,36.2068599 L28.2263016,36.206648 L25.5150915,35.4838599 L22.098304,34.5738122 C22.6160402,33.9668068 23.0958389,33.3104877 23.5383199,32.6061003 L23.7990915,32.1768599 L23.7986926,32.1771717 C24.0549721,31.7438397 24.2979957,31.2935618 24.5277634,30.8267919 L24.7537553,30.354111 C25.0215499,29.7752591 25.2700633,29.1727367 25.5003667,28.5454678 L27.8240915,29.1638599 L25.4996168,28.5448223 C25.6474395,28.1413475 25.7877638,27.7281892 25.92059,27.3042717 L32.0488018,28.9375378 C31.960251,29.2194322 31.8683677,29.4970229 31.7731519,29.7706286 L31.6270915,30.1768599 L28.5480915,29.3568599 L31.6278287,30.1780884 L31.6278287,30.1780884 Z M30.1615996,14.9298599 L36.2887403,16.5620501 C36.2705302,16.5760373 36.2523202,16.5911003 36.2255407,16.6136949 C36.2094731,16.627682 36.1934054,16.643821 36.1634124,16.6739471 C36.1452024,16.6933139 36.1259211,16.7137567 36.1034264,16.7417309 C36.0862875,16.7621736 36.0702199,16.7836923 36.0402269,16.8245778 C36.0220168,16.8504001 36.004878,16.8762225 35.9877391,16.9041968 C33.909653,20.1825643 31.8444209,23.4663115 29.7802601,26.759742 C29.3678564,27.4160611 29.4706895,28.0982025 29.9773569,28.2337701 L23.8491451,26.6015799 C23.3424777,26.4670883 23.2407158,25.7838709 23.6520483,25.1275518 C25.7162091,21.8341213 27.78037,18.5492982 29.8584561,15.2720066 C29.8766662,15.2440323 29.893805,15.217134 29.9120151,15.1923876 C29.942008,15.1515021 29.9591469,15.1299835 29.9752146,15.1095407 C29.9977093,15.0815665 30.0159194,15.0611237 30.0352006,15.041757 C30.0651936,15.0116308 30.0812612,14.9954918 30.0973289,14.9815047 L30.1615996,14.9298599 Z M24.0893033,39.5305274 L17.9610915,37.8972613 C18.4206271,37.6562524 18.852312,37.4281546 19.2722139,37.1473361 C19.3644424,37.0867611 19.4544214,37.0222051 19.5454715,36.9565732 C20.4816815,36.2712039 21.331126,35.4760895 22.0980897,34.5744578 L25.5150915,35.4838599 L28.2250915,36.2068599 L27.8924811,36.5865276 C27.2145845,37.3331936 26.4750778,38.0011503 25.6726122,38.5876875 C25.5826332,38.6554712 25.491583,38.7178753 25.4005328,38.7792035 C24.9805238,39.0603448 24.5488389,39.2884425 24.0893033,39.5305274 Z" id="形状结合" fill="url(#linearGradient-4)" fill-rule="nonzero"></path>
            <g id="编组" transform="translate(18.358284, 38.468044)">
                <mask id="mask-6" fill="white">
                    <use xlink:href="#path-5"></use>
                </mask>
                <g id="Clip-44"></g>
                <path d="M8.66476235,4.97532886 L2.53655053,3.34206274 C1.64854361,2.09720838 0.760536688,1.13209658 0,0.000215186578 L6.12821182,1.63348131 C6.88767733,2.76428677 7.77675543,3.73047451 8.66476235,4.97532886" id="Fill-43" fill="url(#linearGradient-7)" fill-rule="nonzero" mask="url(#mask-6)"></path>
            </g>
            <path d="M38.1184201,29.3802842 C37.5464109,29.2963614 36.9669033,29.2339573 36.4077482,29.1080732 C36.3895382,29.1037694 36.3713281,29.1016176 36.3552604,29.0994657 C34.4217834,34.8686178 31.9109411,39.1346917 28.4124724,42.3226809 C27.9604351,42.7358391 27.4944724,43.107036 27.0231539,43.4438029 C26.135147,42.1978727 25.2460689,41.2327609 24.4866034,40.1008795 C24.3644891,39.9104393 24.2305918,39.7425938 24.0891962,39.530635 C24.6483513,39.2358294 25.1678729,38.9614665 25.6734691,38.5881178 C28.6256369,36.4276446 30.7240754,33.1718717 32.048052,28.9369998 C32.1637392,28.5883976 32.0887567,28.5249175 31.8734499,28.501247 C31.2607358,28.436691 30.6544488,28.3441608 30.0545889,28.2505546 C29.4825796,28.1655559 29.3486823,27.4479087 29.7803672,26.7603876 C31.8445281,23.4658811 33.9097601,20.1821339 35.9878462,16.9037664 C36.0049851,16.8757922 36.022124,16.8499698 36.040334,16.8252233 C36.070327,16.7832619 36.0863947,16.7617433 36.1035335,16.7413005 C36.1260283,16.7133263 36.1442383,16.6939595 36.1635195,16.6745927 C36.1924413,16.6433907 36.2095802,16.6283276 36.2256479,16.6143405 C36.2524273,16.5906699 36.2706374,16.5756069 36.2888474,16.5626957 C36.3788264,16.5056712 36.3970364,16.4970638 36.4152464,16.4884563 C36.5180796,16.4561783 36.5502149,16.4507987 36.5823503,16.4497227 C37.0172487,16.7929453 37.0258181,16.813388 37.0343876,16.8349067 C37.0890177,17.0264228 37.0943736,17.0533211 37.0986583,17.0802194 C37.7349383,20.7340875 38.3658624,24.3997908 38.988217,28.0579627 C38.9925018,28.0816332 38.9967865,28.1053037 39,28.1278983 C38.4012113,29.3684489 38.3830012,29.3727526 38.3647912,29.3749045 C38.3272999,29.3813601 38.3048052,29.3845879 38.2812393,29.3856638 C38.2512463,29.3878157 38.2308939,29.3878157 38.2105415,29.3867398 C38.1676944,29.3856638 38.1430573,29.383512 38.1184201,29.3802842 Z" id="Fill-45" fill="url(#linearGradient-8)" fill-rule="nonzero"></path>
            <path d="M24.486282,40.1009871 L18.3580702,38.4677209 C18.2370271,38.2783567 18.1020586,38.1105112 17.960663,37.8974765 L24.0888749,39.5307426 C24.2302704,39.7427014 24.3652389,39.9105469 24.486282,40.1009871" id="Fill-59" fill="url(#linearGradient-9)" fill-rule="nonzero"></path>
            <polygon id="Fill-61" fill="#9C9C9C" points="20.0226815 43.7144001 13.8944697 42.0811339 14.07657 41.9853759 20.2047819 43.6164902"></polygon>
            <path d="M32.663444,19.5679914 L26.5352322,17.9347253 C26.3209965,16.8673999 26.0585578,15.8958325 25.6815029,15.021099 C24.4603595,12.1322192 22.6168614,10.4118026 20.2077812,9.77054655 L26.335993,11.4027367 C28.7450733,12.0439927 30.5885714,13.7654854 31.8107859,16.6543652 C32.1867696,17.5280227 32.4481371,18.4995901 32.663444,19.5679914" id="Fill-65" fill="url(#linearGradient-10)" fill-rule="nonzero"></path>
            <path d="M20.1902138,36.5194217 C20.1694494,36.5268704 20.1404135,36.538502 20.0994464,36.5561542 L20.0005197,36.6000309 C19.8446414,36.6706316 19.5867355,36.7926758 19.1575729,37.0009319 C19.150528,37.0214519 19.144101,37.0408187 19.1387451,37.0612615 C19.1366027,37.0691158 19.1344604,37.0744954 19.1333892,37.082027 C18.9170111,37.8792932 18.6995619,38.685167 18.4928245,39.5609763 L12.3646127,37.9277102 C12.5724213,37.0519009 12.7887993,36.2460271 13.0041062,35.4498368 C13.0062485,35.4433812 13.0083909,35.4358497 13.0105333,35.4283181 L13.0276721,35.369895 L13.0276721,35.369895 L15.7316127,36.0893962 L13.0283148,35.3692494 C13.7267232,35.0303305 13.972023,34.9184335 14.062002,34.8872315 L14.083613,34.8804531 L14.083613,34.8804531 L14.0984221,34.8764721 L14.1025729,34.8755307 L14.1100979,34.8753962 L20.2372386,36.5086623 L20.2243148,36.5083962 L20.2118248,36.5125088 C20.2057995,36.5142572 20.198569,36.5164091 20.1899996,36.5190989 L14.4706127,34.9953962 L20.1902138,36.5194217 Z" id="形状结合" fill="url(#linearGradient-11)" fill-rule="nonzero"></path>
            <path d="M12.2386421,38.0519805 L18.3657827,39.6841707 C18.3079391,39.7229042 18.2222448,39.775625 18.0926322,39.8498643 L11.9644204,38.2165982 C12.0929618,38.1434348 12.1797273,38.0907141 12.2386421,38.0519805 Z M12.3609707,37.940191 L18.4891825,39.5723812 L18.4870401,39.5777609 C18.4855405,39.5807735 18.4844693,39.5829254 18.4833981,39.5850772 L18.4836123,39.5847545 C18.4803988,39.5890582 18.4771853,39.5944379 18.4729006,39.5998175 C18.4572614,39.61714 18.4272684,39.6440384 18.3662112,39.6838479 L12.2379994,38.0516577 C12.2990565,38.0107722 12.3290495,37.9860258 12.3451172,37.966659 C12.3489735,37.9622477 12.3532582,37.9579439 12.3554005,37.9525643 C12.3562575,37.9496593 12.3583998,37.9485833 12.359471,37.9464315 L14.9524204,38.6356912 L12.3588283,37.9455707 C12.3598995,37.9434188 12.3609707,37.941267 12.3609707,37.940191 Z" id="形状结合" fill="url(#linearGradient-12)" fill-rule="nonzero"></path>
            <path d="M27.0553964,5.62497714 L20.9271846,3.99278695 C20.9421811,3.99709068 20.9593199,4.00031848 20.9764588,4.00354627 C21.2078333,4.04981139 21.4349232,4.1025321 21.6598706,4.16278434 L27.7880825,5.79497453 C27.5642062,5.73579822 27.3360452,5.68307751 27.1035994,5.6368124 C27.0864606,5.63250867 27.0703929,5.62928087 27.0553964,5.62497714" id="Fill-95" fill="#7F7F7F"></path>
            <path d="M23.7634508,15.2106784 L17.635239,13.5784882 C17.6298831,13.5763364 17.6277408,13.5741845 17.6255984,13.5720326 L23.7538102,15.2042228 C23.7559526,15.2074506 23.758095,15.2096025 23.7634508,15.2106784" id="Fill-97" fill="#6E6E6E"></path>
            <path d="M18.4732219,6.47119835 C18.4453713,6.48733735 18.419663,6.50347634 18.3939547,6.52069127 L18.3943832,6.52047608 C18.3258278,6.56638255 18.2634614,6.61659275 18.2076014,6.67078789 L18.1284096,6.75524463 C18.0823489,6.80904128 18.0427153,6.86498979 18.0073664,6.9241661 C17.9867998,6.95827317 17.9685898,6.99270302 17.9525221,7.02820881 C17.9383825,7.05618306 17.9265996,7.08630918 17.9158878,7.11535937 L17.889751,7.19573156 L17.8791999,7.23532589 L17.870684,7.27427466 C17.8653282,7.30224891 17.8599723,7.32914724 17.8567587,7.35604556 L17.8520188,7.40166511 L17.8500103,7.44728467 C17.8478679,7.48709419 17.8478679,7.5269037 17.8510815,7.56671322 C17.8657566,7.78039349 17.9450238,7.99127634 18.0939176,8.17956459 C19.9791917,10.5272502 21.8623234,12.8674042 23.7540245,15.2043304 L17.6258127,13.5721402 C15.7351827,11.235214 13.8499087,8.89505996 11.966777,6.5473744 C11.816812,6.35908615 11.7375448,6.14712737 11.7225483,5.93409266 C11.7196561,5.89471351 11.7196561,5.85490399 11.7207273,5.81509448 L11.7210867,5.8141557 L11.7242086,5.76947492 L11.7287611,5.72374778 L11.7424722,5.64208447 C11.7485779,5.61550893 11.755005,5.58968654 11.7614321,5.56386415 L11.7739555,5.52372628 L11.787676,5.48316918 C11.7994589,5.45411899 11.8112419,5.42399287 11.824096,5.39601862 C11.8403779,5.36051283 11.8596591,5.32500705 11.8789404,5.29165313 L11.8790867,5.29089806 L11.9361948,5.20509433 C11.9565472,5.17685109 11.9782386,5.1494148 12.0012689,5.12305444 L12.0005191,5.12283926 C12.0755016,5.03568869 12.1633382,4.95714559 12.2651002,4.88828589 C12.2914512,4.87128615 12.3182306,4.85514716 12.3450101,4.83900816 C15.0411662,3.28105734 17.7373223,1.72310652 20.4334784,0.165155698 L26.1070867,1.676 L20.4334784,0.164402545 C20.514888,0.114909632 20.5887993,0.0751001156 20.6702089,0.0438980618 L20.6720867,0.044 L20.721438,0.0353443954 C20.7379074,0.0326545631 20.7534394,0.0302337141 20.7679004,0.0280818484 L26.895041,1.66027204 L26.8491142,1.66753459 L26.8491142,1.66753459 L26.7973495,1.67608825 C26.7170111,1.70836624 26.6430998,1.74709982 26.5616903,1.79766867 L18.4732219,6.47119835 Z M21.0134144,0.00107593289 C21.0167351,0.00161389933 21.0178063,0.00161389933 21.0199486,0.00268983222 L27.1433519,1.633 L27.1417334,1.63380409 L27.1337263,1.63232468 L27.1235234,1.6320826 C27.0946015,1.6320826 27.0356867,1.63746226 26.8953623,1.66005685 L20.7671505,0.0278666618 C20.87941,0.00979098928 20.9395674,0.00273286953 20.973948,0.000632648538 L20.9952044,1.10134124e-13 C21.0037738,1.10134124e-13 21.0091297,1.10134124e-13 21.0134144,0.00107593289 Z" id="形状结合" fill="url(#linearGradient-13)" fill-rule="nonzero"></path>
            <path d="M6.43231938,30.399085 L12.55946,32.0312752 C12.5337517,32.0624773 12.511257,32.0958312 12.4909046,32.130261 C12.4503069,32.1984752 12.4171004,32.2727146 12.3774668,32.3394224 L6.24925498,30.7061563 C6.28888858,30.6405244 6.32209512,30.5673609 6.3627999,30.4985012 C6.38304517,30.4625651 6.40553992,30.4292111 6.43231938,30.399085 Z M6.51426453,30.322909 L12.6424763,31.9561751 C12.6114122,31.9776938 12.5835615,32.0035161 12.5599956,32.0314904 L6.43178379,30.3982243 C6.45642089,30.37025 6.48320035,30.3455036 6.51426453,30.322909 Z" id="形状结合" fill="url(#linearGradient-14)" fill-rule="nonzero"></path>
            <path d="M18.0944532,8.17977978 C17.6499142,7.62137061 17.8255874,6.84669893 18.4725792,6.47119835 C21.1687353,4.91324753 23.8659626,3.35529671 26.5621187,1.79734589 C26.6424571,1.74785298 26.7174396,1.70804346 26.797778,1.67684141 C27.1073486,1.62412069 27.1309145,1.62950036 27.1534092,1.63595596 C27.4394139,1.91677444 27.4501257,1.94367276 27.4597663,1.97164702 C27.2948048,3.42092862 27.1116333,4.28275086 26.9091805,5.13166191 C26.827771,5.47058077 26.8481234,5.58570559 27.104135,5.63627443 C31.1724707,6.44752783 34.0807202,9.3417873 35.8417375,14.3061416 C35.9617095,14.6558198 35.9413571,14.8376525 35.6457119,15.0603706 C35.388629,15.26157 35.1797492,15.5714387 34.9772965,15.887763 C34.3024541,16.9787589 33.6147575,18.0643752 32.9334881,19.157523 C32.8595767,19.2801794 32.7706689,19.3974561 32.6635511,19.5674535 C32.4482442,18.4990521 32.1868767,17.5285606 31.8098219,16.6538272 C30.5265501,13.6164687 28.5534394,11.8702296 25.9611876,11.3128963 C25.9429776,11.3085926 25.9269099,11.3053648 25.9108422,11.303213 C25.3731107,12.6405975 25.170658,13.562672 24.9735611,14.4750631 C24.967134,14.5073411 24.9596358,14.5385431 24.9521376,14.5686693 C24.8171691,14.9560051 24.8053861,14.9796756 24.7936031,15.0022702 C23.7791972,15.2346717 23.766343,15.2196087 23.7545601,15.2045456 C21.8628589,12.8665434 19.9786561,10.5274653 18.0944532,8.17977978 Z" id="Fill-120" fill="url(#linearGradient-15)" fill-rule="nonzero"></path>
            <path d="M7.38266888,21.6416369 C7.91075985,21.6470165 8.43028139,21.6911298 8.95515882,21.7255596 C8.98086711,21.7266356 9.00657539,21.7287874 9.03121249,21.7330912 L15.1604955,23.3663573 C15.1347872,23.3620536 15.1090789,23.3588258 15.0822995,23.3577498 C14.5584932,23.32332 14.0389717,23.2802827 13.5108807,23.274903 L13.4380406,23.2739616 L13.4380406,23.2739616 L13.3560954,23.2738271 L7.2278836,21.6416369 L7.38266888,21.6416369 Z" id="形状结合" fill="url(#linearGradient-16)" fill-rule="nonzero"></path>
            <path d="M3.80161226,34.840536 L9.92982408,36.4727262 C9.85055688,36.5652564 9.76700496,36.6448754 9.67595479,36.7062036 C9.65356716,36.7223426 9.63000124,36.7352538 9.60643531,36.748165 L3.47822349,35.1159748 C3.50178942,35.1041395 3.52535534,35.0890765 3.54785009,35.0740134 C3.63879314,35.0137612 3.72234506,34.9330662 3.80161226,34.840536 Z M9.92960984,36.4729414 L3.80139803,34.8396752 C3.9117294,34.7105633 4.011349,34.5567049 4.1056127,34.3963909 C4.12832168,34.3586256 4.15081643,34.3198921 4.17331118,34.2811585 C4.86850598,33.0911767 5.55620254,31.9033468 6.24497027,30.7155169 L12.3731821,32.3477071 C11.6844144,33.535537 10.9956466,34.7233669 10.301523,35.9133487 L10.2340388,36.0295494 C10.1395608,36.1888951 10.0399412,36.3427535 9.92960984,36.4729414 Z" id="形状结合" fill="url(#linearGradient-17)" fill-rule="nonzero"></path>
            <path d="M25.6281583,44.0619264 C26.0716261,44.6848915 25.8691734,45.3939313 25.1750498,45.7446854 C22.4253347,47.1218795 19.6745485,48.4979977 16.9248335,49.8762677 C16.8509222,49.9150013 16.7695126,49.9558868 16.6891742,49.9774054 C16.6666795,49.9870888 16.6452559,49.9935444 16.6238323,50 C16.0057624,48.9993824 16.0100471,48.9767878 16.0164742,48.9531173 C16.2660588,47.979398 16.5231416,47.0046028 16.7930785,46.0341114 C16.8755593,45.7328502 16.8412816,45.639244 16.6463271,45.5628528 C13.3117486,44.324454 10.9433731,41.5227248 9.43836741,37.3179791 C9.33017839,37.0210216 9.35053078,36.8940615 9.60654243,36.7477346 C9.89040471,36.5960281 10.1057116,36.2560333 10.3017372,35.9128107 C10.9958609,34.7239049 11.6846286,33.534999 12.3723251,32.348245 C12.4537347,32.2137534 12.5072936,32.0491357 12.6422621,31.9555295 C13.4617136,36.0074928 15.2912864,38.5940355 18.092418,39.8496491 C18.4726863,39.6312348 18.4833981,39.5978808 18.4930387,39.5612991 C18.6997762,38.6844138 18.9161542,37.8785401 19.1325322,37.0823498 C19.1400305,37.0554514 19.1485999,37.0274772 19.1560982,37.0016548 C20.2229919,36.4830551 20.2337037,36.4981182 20.2454866,36.5131813 C22.0418529,39.0265605 23.8382191,41.5388638 25.6281583,44.0619264 Z" id="Fill-162" fill="url(#linearGradient-18)" fill-rule="nonzero"></path>
            <path d="M9.88686982,47.3314713 L16.0150816,48.9625855 C16.0182952,48.9948635 16.0793523,49.1185958 16.623511,49.9997848 L10.4952992,48.3665187 C9.95114053,47.4864056 9.89008336,47.3637492 9.88686982,47.3314713 Z M10.7026793,44.2313858 L16.82982,45.863576 C16.8276776,45.8850947 16.8233929,45.9087652 16.818037,45.9335117 C16.8116099,45.9653593 16.8030405,45.9987132 16.7933999,46.034219 L16.3973317,47.4925115 L16.3973317,47.4925115 L16.0157244,48.9538974 L16.0157244,48.9538974 L16.0151888,48.9628007 L9.88697694,47.3306105 L9.88697694,47.3241549 C9.88697694,47.3242625 9.88697694,47.3231866 9.88804812,47.3221106 L9.88751253,47.3221106 C9.88751253,47.3210347 9.88751253,47.3210347 9.88858371,47.3199588 C10.1381683,46.3473154 10.3952511,45.3725202 10.6651881,44.4031047 C10.6758999,44.3654471 10.6833981,44.3320931 10.6898252,44.301967 C10.6951811,44.276575 10.6994658,44.2529045 10.7026793,44.2313858 Z M10.7061071,44.1825385 L16.8343189,45.8147287 C16.8332477,45.8297917 16.8321766,45.8459307 16.8300342,45.8631456 L10.7018224,44.2309554 C10.7039647,44.2137405 10.7061071,44.1976015 10.7061071,44.1825385 Z M3.25070519,35.3802239 L9.37891701,37.01349 C9.37784583,37.0210216 9.37677465,37.029629 9.37677465,37.0382365 L9.37731024,37.0383441 C9.37623907,37.0523312 9.37623907,37.0641665 9.37731024,37.0781536 C9.38202343,37.1448615 9.403447,37.2223286 9.43772471,37.3180866 C10.9427304,41.5228324 13.3121771,44.3245616 16.6456844,45.5629604 C16.7677987,45.6113773 16.8267135,45.6640981 16.8342118,45.7727673 L16.8342118,45.8148363 L16.8342118,45.8148363 L10.706,44.1815701 C10.7070712,44.167583 10.7070712,44.1535959 10.706,44.1396087 C10.6985017,44.0329838 10.6395869,43.9781112 10.5174726,43.9307702 C7.18396528,42.6923714 4.81451859,39.8906422 3.30951289,35.6848205 C3.27523518,35.5901384 3.25381161,35.5126713 3.2495269,35.4459634 C3.24802725,35.4330522 3.24802725,35.4190651 3.24802725,35.4061539 C3.24856284,35.3974388 3.24963401,35.3888314 3.25070519,35.3802239 Z M3.25809632,35.3414903 L9.38630814,36.9736805 C9.38416579,36.9790602 9.38309461,36.9855158 9.38202343,36.9919714 L9.38213055,36.9914334 C9.37998819,36.998965 9.37891701,37.0054205 9.37891701,37.0129521 L3.25070519,35.379686 C3.25177637,35.3743063 3.25284755,35.3667748 3.25391873,35.3603192 L7.37202725,36.45619 L3.25381161,35.3597812 C3.25488279,35.3544015 3.25702515,35.3479459 3.25809632,35.3414903 Z M3.2849829,35.2814533 L9.41212354,36.9147194 C9.40783883,36.921175 9.40355412,36.9287065 9.40034058,36.937314 L9.39902725,36.93719 C9.39466333,36.9497948 9.39359216,36.9530226 9.39252098,36.9562504 C9.38995015,36.9611997 9.38780779,36.9676553 9.38673661,36.9741109 L3.2585248,35.3408448 C3.26066715,35.3354651 3.26173833,35.3300855 3.26388069,35.3236299 L6.68802725,36.23519 L3.26430916,35.3229843 L3.27180741,35.3046934 L6.76702725,36.23519 L3.27212876,35.3040479 C3.2753423,35.2975923 3.27962701,35.2900607 3.2849829,35.2814533 Z M3.47865196,35.11619 L9.60686378,36.7483802 L9.57405894,36.7681504 L9.57405894,36.7681504 L9.54345002,36.7871138 L9.48654366,36.8298821 L9.48654366,36.8298821 L9.4412596,36.8743719 C9.43054781,36.8872831 9.42090721,36.9001943 9.41233778,36.9141814 L3.28412596,35.2809153 C3.29269539,35.2680041 3.30233599,35.2550929 3.31411896,35.2411058 L3.31347625,35.2409982 C3.33918453,35.211948 3.37239106,35.1839738 3.41630938,35.1549236 L3.41545244,35.1549236 C3.43473365,35.1420124 3.45508604,35.1291012 3.47865196,35.11619 Z" id="形状结合" fill="url(#linearGradient-19)" fill-rule="nonzero"></path>
            <path d="M10.8631418,7.89939167 L16.9913537,9.53158186 C16.9892113,9.53158186 16.9859978,9.53050593 16.9827842,9.53050593 L13.9177543,8.71370644 L16.9823558,9.53050593 C16.9737863,9.52835406 16.9614083,9.52715858 16.9433173,9.52660069 L16.911658,9.52587941 C16.8431026,9.52480348 16.7231306,9.52910721 16.5099661,9.54094247 L10.3817543,7.90875228 C10.5531428,7.89928407 10.663517,7.89463604 10.7359116,7.89370644 L10.7834462,7.894012 C10.8198662,7.894012 10.8412898,7.89508794 10.8552151,7.89831573 L10.8577543,7.89870644 L10.8631418,7.89939167 Z" id="形状结合" fill="url(#linearGradient-20)" fill-rule="nonzero"></path>
            <path d="M8.52165291,35.2330363 L2.39344109,33.5997702 C2.38487166,33.5976183 2.38380049,33.5954664 2.38165813,33.5922387 L8.50986995,35.2233529 C8.5120123,35.2276566 8.51415466,35.2308844 8.52165291,35.2330363" id="Fill-208" fill="#6E6E6E"></path>
            <polygon id="Fill-209" fill="#6A6A6A" points="10.5390033 26.6855027 4.41079144 25.0522365 4.3775849 25.0059714 10.5047255 26.6392376"></polygon>
            <path d="M2.86936567,21.3178887 L8.99757749,22.9490029 C8.97829628,22.9522307 8.94616092,22.9543826 8.86475136,22.9554585 L2.73653954,21.3221924 C2.81687793,21.3211165 2.85008446,21.3200405 2.86936567,21.3178887 Z M10.3816471,7.90918266 L16.509859,9.54137285 C15.9485615,10.083643 15.4151146,10.6517356 14.907376,11.2488783 L10.4983657,10.0741827 L14.9071618,11.2493087 C14.1377496,12.1540146 13.4305095,13.1235399 12.7827433,14.1612725 L12.4633753,14.6859459 C12.0070533,15.4595417 11.5807243,16.2707951 11.1876018,17.1207821 C10.9281892,17.6823383 10.6819721,18.2609011 10.4498996,18.8568788 L10.2227914,19.4586766 C9.92714613,20.2634744 9.65720917,21.0983984 9.41083813,21.9666762 L9.29689152,22.3756517 L9.18653336,22.7903028 C9.18546219,22.7924547 9.18439101,22.7956825 9.18224865,22.7989103 C9.17924935,22.8027837 9.17603582,22.8081633 9.17067992,22.8146189 C9.15300548,22.8351692 9.11444306,22.8695991 9.01482346,22.9459903 C9.01043163,22.9469587 9.00507574,22.9480346 8.99757749,22.9491105 L2.86936567,21.3169203 C2.87686392,21.3158444 2.88221981,21.3136925 2.88650453,21.3126166 C2.98730242,21.2374089 3.02479366,21.202979 3.04193252,21.1814604 C3.047824,21.1759731 3.05210871,21.1716694 3.05425107,21.1662897 L3.05674156,21.1619591 L3.05875002,21.1572519 C3.13159015,20.8807371 3.20657264,20.6052983 3.28262631,20.3341632 C3.52899735,19.4662082 3.80000549,18.6302083 4.09457956,17.8264865 C4.39215293,17.016309 4.71243528,16.2373336 5.0594971,15.4884843 C5.35425862,14.8510747 5.66715654,14.2353923 5.99859755,13.6410285 L6.33559196,13.0536482 C7.06720683,11.8152494 7.88237362,10.6726087 8.78002115,9.61711852 L8.77916421,9.61668815 C9.28690278,9.0195454 9.82034964,8.4503769 10.3816471,7.90918266 Z" id="形状结合" fill="url(#linearGradient-21)" fill-rule="nonzero"></path>
            <path d="M8.40864359,34.9174652 C7.64489336,31.3184697 6.88649903,27.706563 6.1281047,24.0957322 C7.5238502,22.8605612 8.19762143,22.8885355 8.8649656,22.9552433 C8.97529698,22.9541674 8.99564937,22.9509396 9.01493058,22.9455599 C9.1627532,22.832587 9.17560734,22.8121443 9.18739031,22.7906256 C10.6484777,17.1764078 13.0779104,12.8586891 16.5099661,9.5405121 C16.9855693,9.51468971 16.9973523,9.52760091 17.0080641,9.54266397 C17.8896439,10.6680898 18.7980032,11.7590857 19.7267149,12.909258 C18.6276858,13.7162076 17.6368458,14.6533452 16.7263441,15.809973 C15.1474271,17.830575 13.9734155,20.1793365 13.1968112,22.8734724 C13.0950492,23.2091635 13.1421811,23.2704917 13.363915,23.2737195 C13.9434226,23.2715676 14.5100759,23.3199846 15.0820852,23.3576422 C15.6487386,23.3877684 15.8297678,24.1011119 15.4312894,24.7983164 C13.4742464,28.2111755 11.5107763,31.6165031 9.54730626,35.0121473 C9.5355233,35.0336659 9.52374034,35.0530327 9.51195737,35.0734755 C8.52968675,35.2617637 8.51897496,35.2423969 8.51040554,35.2241061 C8.42149773,34.9712618 8.41507066,34.9454394 8.40864359,34.9174652 Z" id="Fill-235" fill="url(#linearGradient-22)" fill-rule="nonzero"></path>
            <path d="M0.805526182,21.8306783 L6.933738,23.4628685 C6.69379403,23.6242584 6.42814178,23.8308375 6.12821182,24.095517 L-1.71240799e-12,22.4633268 C0.299929961,22.1975714 0.565582213,21.9920682 0.805526182,21.8306783 Z M2.34930854,21.297446 C2.48181331,21.2980915 2.60928355,21.3099268 2.73675378,21.322838 L8.8649656,22.9550282 C8.73749537,22.9431929 8.61002513,22.9313576 8.47719901,22.9302817 L3.032,21.4793329 L8.47752036,22.9307121 C8.35861955,22.9285602 8.23543403,22.9350158 8.10367909,22.9565345 L8.101,22.9553329 L7.97780769,22.9800416 C7.89219276,22.9990099 7.80292789,23.0243541 7.7093783,23.0573494 C7.48153865,23.1391203 7.22659818,23.2660804 6.93416647,23.4629761 L0.805954653,21.82971 C1.09945754,21.6349661 1.35332683,21.5069301 1.58148784,21.4251592 C1.72149086,21.3756663 1.85217463,21.3433883 1.97536015,21.3240215 L4.69,22.0463329 L1.97546727,21.3232683 C2.06258978,21.3096399 2.14685582,21.3022279 2.22858276,21.2991196 L2.34898719,21.2970156 L2.34930854,21.297446 Z" id="形状结合" fill="url(#linearGradient-23)" fill-rule="nonzero"></path>
            <path d="M8.51008418,35.2235681 L2.38187236,33.5913779 C2.29296455,33.3385337 2.28653748,33.3127113 2.28118159,33.285813 C1.51636019,29.6857415 0.75796586,26.0738348 0.000642707056,22.46408 L6.12778335,24.0951942 C6.88617768,27.7071009 7.64457201,31.3179317 8.40939341,34.9180032 C8.4147493,34.9449015 8.42117637,34.9717998 8.51008418,35.2235681" id="Fill-247" fill="url(#linearGradient-24)" fill-rule="nonzero"></path>
            <path d="M27.05229,23.5060134 C27.0533612,23.5178487 27.0854965,23.7394908 27.0854965,24.3441651 C27.0844253,24.9509913 27.0587171,25.1876965 27.0576459,25.2006077 C27.0169411,25.4728187 26.8284137,25.7955986 26.632388,25.9053437 L26.4909925,25.9924943 C26.1471442,26.2259717 25.8300754,26.621915 25.6340497,27.1329832 C25.4380241,27.6440513 25.3973193,28.1680306 25.4776577,28.6209983 L25.5247895,28.7942235 C25.5783485,29.0406122 25.5044372,29.4150368 25.3491163,29.6345271 C25.341618,29.6452864 25.2141478,29.8314228 24.8220965,30.2478089 C24.4321875,30.6545115 24.2650837,30.7793197 24.2565143,30.7868512 C24.2436601,30.7954587 24.2318772,30.8040662 24.2179519,30.8126736 C24.1986706,30.8245089 24.18903,30.8298886 24.1793894,30.8352682 C24.0701292,30.8740018 24.0551327,30.8772296 24.0390651,30.8793815 C24.0112144,30.8826093 23.9930044,30.8836852 23.9747943,30.8847611 C23.9501572,30.8836852 23.9351607,30.8836852 23.9212354,30.8815333 C23.8912424,30.8793815 23.8741036,30.8761537 23.8569647,30.8718499 C23.8366123,30.8653943 23.8216158,30.8610906 23.8076905,30.8557109 C23.7809111,30.8438757 23.7648434,30.8363442 23.7509181,30.8277367 C23.7337792,30.8169774 23.7219962,30.8083699 23.7091421,30.7986865 C23.6866473,30.7793197 23.6748644,30.7674844 23.6630814,30.7545733 L23.5623907,30.6426762 C23.2999519,30.3801486 22.9496766,30.261796 22.5522694,30.3726171 C22.1612893,30.4802104 21.8045868,30.7943828 21.5410769,31.2021613 L21.439315,31.3710828 C21.4286032,31.3893737 21.4168202,31.4087404 21.4039661,31.4259554 C21.3814714,31.4571574 21.3686172,31.4722205 21.3557631,31.4883595 C21.337553,31.5088022 21.3225565,31.5249412 21.3064889,31.5400043 C21.2807806,31.5647507 21.2668553,31.5776619 21.2518588,31.5894972 C21.2282928,31.608864 21.211154,31.6217752 21.1940151,31.6336104 C21.1672357,31.6508253 21.1522392,31.6594328 21.1372427,31.6680403 C21.109392,31.6841793 21.0922532,31.6917108 21.0740431,31.6992423 C21.0483349,31.7100017 21.0322672,31.7153813 21.0172707,31.7196851 C20.9144376,31.7369 20.9037258,31.7358373 20.8940852,31.7358373 C20.8715904,31.7347481 20.8587363,31.7325962 20.8469533,31.7315203 C20.8383839,31.7293684 20.6777071,31.6927867 20.2877982,31.4948151 C19.8968181,31.304375 19.7693478,31.1892501 19.7618496,31.1827945 C19.6075999,31.0493789 19.5272615,30.7169156 19.5883187,30.4393249 L19.6279523,30.2413533 C19.7157889,29.7421204 19.6697282,29.2418116 19.4747737,28.8394127 C19.2798193,28.4370138 18.9627505,28.2078401 18.6199734,28.1723343 L18.4785778,28.1648028 C18.2825522,28.1626509 18.0940247,27.9453125 18.0608182,27.6838608 C18.0586759,27.6731015 18.0276117,27.4600668 18.0276117,26.8543165 C18.0286829,26.2485663 18.0608182,26.0086333 18.0618894,25.9957221 C18.0961671,25.7170555 18.2846945,25.403959 18.4807202,25.2834545 L18.6221157,25.2081392 C18.9734622,24.970358 19.2830328,24.5679591 19.4790585,24.056891 C19.6750841,23.5555063 19.722216,23.0207677 19.6354505,22.5688758 L19.5947457,22.3934988 C19.5347597,22.149262 19.6161693,21.7737614 19.7714902,21.5531952 C19.7779172,21.5435118 19.9064587,21.3670588 20.2963676,20.9506728 C20.6884189,20.5439701 20.8480245,20.4202379 20.8565939,20.4127063 C20.8694481,20.4030229 20.8823022,20.3933395 20.8951564,20.3847321 C20.9176511,20.3718209 20.9272917,20.3653653 20.9369323,20.3599856 C21.0526196,20.3169483 21.0686873,20.3137205 21.0847549,20.3115686 C21.1072497,20.3083408 21.1243885,20.3072649 21.1425986,20.306189 C21.169378,20.306189 21.1833033,20.3072649 21.1982998,20.3083408 C21.2261505,20.3115686 21.2422182,20.3147964 21.2582858,20.3191002 C21.2829229,20.3266317 21.2947059,20.3309354 21.30756,20.3363151 C21.3343395,20.3459985 21.349336,20.35353 21.3632613,20.3632134 C21.3825425,20.3750487 21.3932543,20.3836561 21.4039661,20.3911877 C21.427532,20.4116304 21.4382438,20.4234657 21.4500268,20.4353009 L21.5507176,20.5568813 C21.8131563,20.819409 22.1698587,20.9259263 22.5608388,20.8172571 C22.9518189,20.7085879 23.3085214,20.4040989 23.5720313,19.9963203 L23.6737932,19.8187914 C23.684505,19.8005005 23.6973591,19.7822097 23.7102133,19.7639188 C23.7316368,19.7348686 23.7434198,19.7198056 23.7552028,19.7068944 C23.7766263,19.681072 23.7916228,19.6670848 23.8066193,19.6509459 C23.8312564,19.6283513 23.8430394,19.6175919 23.8569647,19.6057567 C23.8837442,19.5831621 23.900883,19.5713268 23.9169507,19.5594916 C23.9415878,19.5433526 23.9555131,19.535821 23.9705096,19.5272136 C24.0005026,19.5099986 24.0176415,19.5013912 24.0358515,19.4938597 C24.0562039,19.4863281 24.0722716,19.4809485 24.0872681,19.4766447 C24.1965283,19.4594298 24.2061689,19.4594298 24.2158095,19.4605057 C24.2404466,19.4626576 24.2543719,19.4648095 24.2661549,19.4680373 C24.2747243,19.4701891 24.4354011,19.4960115 24.82531,19.696135 C25.2162902,19.8865752 25.3501875,19.9984722 25.3576857,20.0049278 C25.5130066,20.1394194 25.5858467,20.4729586 25.5322878,20.7483974 L25.4851559,20.9485209 C25.3962481,21.4477538 25.44338,21.9480626 25.6383345,22.3504615 C25.8332889,22.7528604 26.1364324,22.9766544 26.4867078,23.0196917 L26.6345304,23.0250714 C26.8294849,23.0358307 27.0190835,23.2445617 27.05229,23.5060134" id="Fill-414" fill="#FFEAA4"></path>
        </g>
    </g>
</svg>