<?xml version="1.0" encoding="UTF-8"?>
<svg width="50px" height="50px" viewBox="0 0 50 50" version="1.1" xmlns="http://www.w3.org/2000/svg" xmlns:xlink="http://www.w3.org/1999/xlink">
    <title>关联资产-灰</title>
    <defs>
        <linearGradient x1="39.7945768%" y1="72.4203769%" x2="143.764474%" y2="19.7746218%" id="linearGradient-1">
            <stop stop-color="#5F5F5F" offset="0%"></stop>
            <stop stop-color="#B8B8B8" offset="100%"></stop>
        </linearGradient>
        <linearGradient x1="39.7945768%" y1="107.540444%" x2="143.764474%" y2="-27.5714743%" id="linearGradient-2">
            <stop stop-color="#5F5F5F" offset="0%"></stop>
            <stop stop-color="#B8B8B8" offset="100%"></stop>
        </linearGradient>
        <linearGradient x1="83.7369021%" y1="75.6469484%" x2="128.456406%" y2="-95.1218048%" id="linearGradient-3">
            <stop stop-color="#5F5F5F" offset="0%"></stop>
            <stop stop-color="#B8B8B8" offset="100%"></stop>
        </linearGradient>
        <linearGradient x1="39.7945768%" y1="147.306788%" x2="143.764474%" y2="-81.1813129%" id="linearGradient-4">
            <stop stop-color="#5F5F5F" offset="0%"></stop>
            <stop stop-color="#B8B8B8" offset="100%"></stop>
        </linearGradient>
        <linearGradient x1="42.3894076%" y1="91.475256%" x2="93.4459464%" y2="8.52474403%" id="linearGradient-5">
            <stop stop-color="#5F5F5F" offset="0%"></stop>
            <stop stop-color="#B8B8B8" offset="100%"></stop>
        </linearGradient>
        <linearGradient x1="35.6726638%" y1="250.347734%" x2="141.031938%" y2="-47.7879445%" id="linearGradient-6">
            <stop stop-color="#5F5F5F" offset="0%"></stop>
            <stop stop-color="#B8B8B8" offset="100%"></stop>
        </linearGradient>
        <linearGradient x1="34.7548873%" y1="91.0220907%" x2="130.805988%" y2="-37.7617471%" id="linearGradient-7">
            <stop stop-color="#5F5F5F" offset="0%"></stop>
            <stop stop-color="#B8B8B8" offset="100%"></stop>
        </linearGradient>
        <linearGradient x1="84.6055822%" y1="263.819982%" x2="177.96742%" y2="-30.9419401%" id="linearGradient-8">
            <stop stop-color="#5F5F5F" offset="0%"></stop>
            <stop stop-color="#B8B8B8" offset="100%"></stop>
        </linearGradient>
        <linearGradient x1="73.7724299%" y1="0%" x2="37.1673876%" y2="95.0951313%" id="linearGradient-9">
            <stop stop-color="#E7E7E7" offset="0%"></stop>
            <stop stop-color="#AFAFAF" offset="100%"></stop>
        </linearGradient>
    </defs>
    <g id="页面-1" stroke="none" stroke-width="1" fill="none" fill-rule="evenodd">
        <g id="编组-122" transform="translate(6.000000, 1.000067)">
            <path d="M29.3075355,25.8102678 L36.8725182,27.839071 C36.8500427,27.839071 36.8288893,27.839071 36.8064138,27.8417457 L36.7859215,27.843919 L36.7659579,27.8469615 C36.7395162,27.8509736 36.7143965,27.8563232 36.6879548,27.8643474 L36.6363934,27.880396 L36.4790503,27.8377328 L36.6358646,27.879861 C36.6133891,27.8878853 36.5909136,27.8972469 36.5684381,27.907946 C36.5234872,27.9280066 36.4798583,27.9534168 36.4362294,27.9828392 C36.3627214,28.0325896 36.2913287,28.0941091 36.2225801,28.1676649 L28.6589195,26.1375243 C28.727668,26.0653059 28.7990607,26.0024491 28.8717755,25.9543035 L32.2680503,26.8647328 L28.8725688,25.954036 C28.9161977,25.9246137 28.9598265,25.8992035 29.0047775,25.8791428 C29.027253,25.8684438 29.0497285,25.8590821 29.073526,25.8510578 L29.0727328,25.8515928 C29.0899199,25.8449059 29.1071071,25.8395564 29.1242942,25.8355442 C29.1494138,25.82752 29.1758556,25.8221705 29.2009752,25.8181583 C29.2163115,25.8156173 29.2295323,25.8142799 29.2427532,25.8129425 C29.2652287,25.8102678 29.2863821,25.8102678 29.3075355,25.8102678 Z M29.3083287,25.8097328 L29.3570807,25.8119061 L29.4045767,25.8189608 C29.4217638,25.8216355 29.4389509,25.8256476 29.454816,25.8296598 L37.0184766,27.858463 C37.0012895,27.8544508 36.9854244,27.8504387 36.9682373,27.8477639 C36.9367716,27.8412108 36.9037194,27.838536 36.8719893,27.838536 L29.3083287,25.8097328 Z M32.1493618,31.4804852 C32.1083771,31.4858347 32.0673924,31.4938589 32.0264077,31.4978711 L31.9047757,31.504558 L31.9047757,31.504558 L31.7923983,31.5085701 L31.7844657,31.5085701 L31.7800503,31.5071785 L31.7249718,31.5064972 C31.7051405,31.5054941 31.6853092,31.5041568 31.6654779,31.5028194 L31.5597109,31.4974699 L31.5597109,31.4974699 L23.9960503,29.4673293 C24.0317467,29.4713414 24.067443,29.4713414 24.1018173,29.4740162 L24.1613112,29.477694 L24.2208051,29.4797669 L24.2287377,29.4797669 C24.2657561,29.4797669 24.3040966,29.4757548 24.3411151,29.4744174 C24.3820998,29.47308 24.4217624,29.4717427 24.4627471,29.4690679 C24.5037318,29.4650558 24.5447165,29.4570315 24.5857012,29.451682 C24.6147871,29.4463325 24.643873,29.4436577 24.6729589,29.4396456 C24.6819491,29.4365696 24.6912037,29.4352322 24.7004584,29.4338948 C24.7414431,29.4258706 24.7824278,29.4151715 24.8234125,29.4058099 C24.8551426,29.3977856 24.8868726,29.3924361 24.9199248,29.3830745 C25.0455231,29.3483026 25.0798974,29.3349288 25.1142716,29.3242298 C25.149968,29.3135308 25.1869864,29.3014944 25.2226828,29.289458 L30.8670503,30.8027328 L25.2233438,29.2883881 C25.2246659,29.2883881 25.225988,29.2883881 25.2273101,29.2870507 C25.2696169,29.2723395 25.3132458,29.2536162 25.3555525,29.2362303 L25.4652858,29.1907594 C25.5075926,29.1720361 25.5498994,29.1479633 25.5935282,29.1265653 C25.6292246,29.1091793 25.6649209,29.0917934 25.7019394,29.0717327 C25.741602,29.0503347 25.7825867,29.0249245 25.8222493,29.0008517 C25.8592677,28.9781162 25.8976083,28.9567182 25.9346267,28.9326454 L25.9540503,28.9197328 L25.9534004,28.920074 C25.9851304,28.898676 26.0168605,28.8759405 26.0485906,28.8532051 C26.0869312,28.8277949 26.1252717,28.8023847 26.1622901,28.7742998 C26.2019527,28.7448774 26.2402933,28.7127804 26.2786338,28.6806833 L26.3844008,28.5964284 C26.4253855,28.5603192 26.4650481,28.52421 26.5047107,28.4867634 C26.5377629,28.4573411 26.5708151,28.4292561 26.6025451,28.3984964 C26.6726158,28.3302901 26.7426864,28.2580717 26.8114349,28.1831785 L28.6595805,26.1385942 L36.2219191,28.1673974 L34.3749633,30.2122491 L34.3750955,30.2119817 C34.306347,30.2868749 34.2362764,30.3590933 34.1648837,30.4272996 L34.0683713,30.5155666 C34.0287087,30.5530132 33.9890461,30.5904598 33.9480614,30.6252316 L33.8422944,30.7094865 C33.8039539,30.7415835 33.7642913,30.7736806 33.7259507,30.803103 C33.6876102,30.8311879 33.6505918,30.8565981 33.6122512,30.8833457 C33.5805211,30.9047437 33.5487911,30.9274792 33.517061,30.9488772 L32.6220503,30.7087328 L33.5167965,30.9494122 C33.5101861,30.9534243 33.5035757,30.9574364 33.4982873,30.9614486 C33.4612689,30.9855214 33.4229284,31.0069194 33.3859099,31.0296549 C33.3449252,31.0537277 33.3052626,31.0791379 33.2642779,31.1005359 C33.2285815,31.1205966 33.1928852,31.1379825 33.1571888,31.1553685 C33.11356,31.1781039 33.0712532,31.2008393 33.0289464,31.2195626 C32.9919279,31.2356112 32.9549095,31.2503223 32.9192132,31.2650335 C32.8755843,31.2837568 32.8332775,31.3011427 32.7909707,31.3171912 L32.7876655,31.3182612 L32.6779322,31.3543704 C32.643558,31.363732 32.6091837,31.3771058 32.4835854,31.4118776 C32.4518553,31.4212393 32.4188032,31.4265888 32.385751,31.4346131 C32.3460884,31.4439747 32.3051037,31.4560111 32.264119,31.462698 C32.2548644,31.4653728 32.2456097,31.4667102 32.2363551,31.4680475 C32.2075336,31.4724609 32.1784477,31.476473 32.1493618,31.4804852 Z" id="形状结合" fill="url(#linearGradient-1)" fill-rule="nonzero"></path>
            <path d="M31.4293531,31.4784791 L23.8656925,29.4496759 C23.9093214,29.4563628 23.9516282,29.4643871 23.9952571,29.4683992 L31.5602398,31.4972024 C31.5152888,31.4931903 31.472982,31.485166 31.4293531,31.4784791" id="Fill-228" fill="#868686"></path>
            <path d="M31.3325764,31.4635005 L23.7689157,29.4346973 C23.772882,29.4346973 23.7768483,29.4360346 23.7808145,29.437372 L31.3444751,31.4661752 C31.3405089,31.4648378 31.3365426,31.4648378 31.3325764,31.4635005" id="Fill-229" fill="#828282"></path>
            <path d="M31.3448718,31.4660415 L23.7812112,29.4372383 C23.808975,29.4412504 23.8380609,29.4452626 23.8658247,29.4492747 L31.4294853,31.4780779 C31.4003994,31.4740657 31.3726356,31.4700536 31.3448718,31.4660415" id="Fill-230" fill="#868686"></path>
            <path d="M31.1975913,31.4301997 L23.6339306,29.4013965 C23.6788816,29.413433 23.7238326,29.4254694 23.7687835,29.434831 L31.3324442,31.4636342 C31.2861711,31.4542725 31.2425422,31.4422361 31.1975913,31.4301997" id="Fill-231" fill="#828282"></path>
            <path d="M31.1252731,31.4125463 L23.5616125,29.3837431 C23.58541,29.39043 23.6092076,29.3944422 23.6330052,29.4011291 L31.1979879,31.4299323 C31.1741903,31.4232454 31.1490707,31.4192332 31.1252731,31.4125463" id="Fill-232" fill="#828282"></path>
            <path d="M21.7112193,48.6496166 L14.1475587,46.6208135 C13.9452793,46.5659809 13.7482884,46.488413 13.5579078,46.3867722 L21.1202463,48.4155754 C21.311949,48.5172162 21.50894,48.5947841 21.7112193,48.6496166" id="Fill-233" fill="#707070"></path>
            <path d="M15.9044803,24.2783007 L23.4681409,26.3071039 C23.408647,26.3271646 23.3491531,26.3458879 23.2896592,26.3632738 C23.1984351,26.388684 23.105889,26.4087447 23.014665,26.4234558 L19.8187831,25.5659891 L23.0151939,26.4241245 C22.9861079,26.4281367 22.957022,26.4321488 22.9292582,26.4361609 C22.8287796,26.4481973 22.729623,26.4535469 22.6317886,26.4522095 L18.8497831,25.4379891 L22.6312597,26.4522095 C22.6114284,26.4522095 22.5915971,26.4508721 22.5704437,26.4508721 L15.0067831,24.4220689 C15.0266144,24.4220689 15.0477678,24.4234063 15.0689212,24.4234063 C15.1672845,24.4247437 15.265119,24.4180568 15.3655976,24.4073577 C15.3933614,24.4033456 15.4224473,24.3993335 15.4515332,24.393984 L15.4527831,24.3939891 L15.5885015,24.3685738 C15.634444,24.3585434 15.6803865,24.3471757 15.7259985,24.3344706 C15.7854925,24.3170847 15.8449864,24.2983614 15.9044803,24.2783007 Z M16.4454784,24.0209891 L24.009139,26.0497923 C23.9496451,26.0845641 23.8901511,26.1179986 23.8306572,26.1487583 C23.7116694,26.2102777 23.5913594,26.2624355 23.4710495,26.3052316 C23.4697274,26.306569 23.4684053,26.306569 23.4684053,26.306569 L15.9047447,24.2777658 C15.9060668,24.2764284 15.9060668,24.2764284 15.9073889,24.2764284 C16.0276988,24.2336323 16.1480088,24.1814745 16.2669966,24.1199551 C16.3278126,24.0891954 16.3873065,24.0557609 16.4454784,24.0209891 Z" id="形状结合" fill="#868686"></path>
            <path d="M11.5425182,29.7562031 L19.1061788,31.7850062 L15.8931104,35.3687794 C15.8243618,35.4436726 15.7529691,35.5158911 15.6815764,35.5854347 C15.6524905,35.6135197 15.6220825,35.6389299 15.5929966,35.6656774 C15.5493677,35.7057988 15.5070609,35.7459202 15.463432,35.7833668 C15.4290578,35.8114517 15.3946835,35.8381993 15.3616313,35.8649468 C15.3206466,35.8970439 15.280984,35.9304784 15.2413214,35.9612381 C15.2043029,35.9879857 15.1672845,36.0133959 15.1302661,36.0388061 L15.0806878,36.0735779 L15.0313739,36.1088847 C15.0247635,36.1128968 15.0194752,36.1155716 15.0128647,36.1195837 C14.9771684,36.1423191 14.941472,36.1637172 14.9057757,36.1851153 L14.7801774,36.2586711 L14.7801774,36.2586711 C14.7458031,36.2787318 14.7114289,36.2947803 14.6770546,36.3121662 C14.6334257,36.3349017 14.5897968,36.3576371 14.546168,36.3776978 L14.4377568,36.4218313 L14.4377568,36.4218313 C14.39545,36.4392172 14.3518211,36.4579405 14.3095144,36.473989 C14.3068702,36.473989 14.3055481,36.4753264 14.304226,36.4753264 L14.1958149,36.5104994 L14.1958149,36.5104994 C14.1627627,36.5211985 14.1283884,36.5345723 14.046419,36.5559703 C13.93933,36.58673 13.8322409,36.6094655 13.7251518,36.6268514 L13.4037372,36.5404701 L13.724623,36.6273863 C13.6259072,36.6434349 13.5266037,36.6535395 13.4278879,36.6580965 L13.2800051,36.6604196 C13.1451522,36.6590822 13.0116214,36.6470458 12.8807348,36.6243104 L12.8767372,36.6229762 L12.7787027,36.6044837 C12.7448242,36.596961 12.711111,36.5886024 12.6773978,36.5792407 L5.11373715,34.5504375 L5.21504208,34.5746775 L5.31707416,34.5955072 C5.44796079,34.6182426 5.58149159,34.630279 5.71766657,34.6316164 L5.71973715,34.6319762 L5.86398244,34.6292933 C5.91324243,34.6270148 5.96269828,34.6233494 6.01239897,34.6182476 L6.16149122,34.5980482 C6.26858028,34.5806623 6.37566934,34.5579268 6.4827584,34.5271671 C6.56340572,34.5057691 6.59777999,34.4923953 6.63347634,34.4816963 C6.66917269,34.4696599 6.70486905,34.4589608 6.7405654,34.4469244 C6.74188749,34.4451858 6.74453166,34.4451858 6.74585375,34.4438484 C6.78816054,34.4291373 6.83178941,34.410414 6.8740962,34.3930281 L6.98250735,34.3475572 C7.02613622,34.3288339 7.0697651,34.3047611 7.11339398,34.283363 C7.14776824,34.2659771 7.18214251,34.2485912 7.21783886,34.2298679 C7.25882356,34.2071325 7.30113035,34.1803849 7.34211505,34.1563121 C7.37781141,34.134914 7.41482985,34.113516 7.44920411,34.0907805 L7.46771333,34.0787441 L7.46773715,34.0779762 L7.56660545,34.0100029 C7.60362389,33.9845927 7.64064233,33.9591825 7.67766077,33.9324349 C7.71732339,33.9016752 7.75830809,33.8682407 7.7979707,33.8361437 L7.89977142,33.7545636 C7.94340029,33.717117 7.98570708,33.6769956 8.02933596,33.6368743 C8.05974396,33.6101267 8.08882988,33.5847165 8.1179158,33.5552942 C8.1893085,33.4870879 8.26070121,33.4148694 8.33077183,33.3399762 L8.32984637,33.3403774 L11.5425182,29.7562031 Z M13.7321589,27.3499917 L21.2958195,29.3787948 L19.1064432,31.7847388 L11.5427826,29.7559356 L13.7321589,27.3499917 Z M14.5271299,26.1246855 L22.0921126,28.1534887 L21.9742816,28.3920436 L21.8471299,28.6221061 C21.7563465,28.7763504 21.6585121,28.9240564 21.55441,29.0636391 L21.3933895,29.2673912 C21.3616595,29.3048378 21.3286073,29.3422844 21.2955551,29.3783936 L13.7318945,27.3495904 C13.7649467,27.3134812 13.7979988,27.2760346 13.8297289,27.2372507 L13.8298945,27.2364701 L13.9907983,27.0347864 C14.0949984,26.8951047 14.1931266,26.7471014 14.2847913,26.5919655 C14.3724457,26.4429816 14.453093,26.2851709 14.5271299,26.1246855 Z M14.7009844,25.7019401 L22.264645,27.7307433 C22.2117615,27.8751802 22.1535897,28.0156049 22.0914516,28.1533549 L14.5277909,26.1245517 C14.5912511,25.9868018 14.649423,25.8450396 14.7009844,25.7019401 Z M15.0026847,24.461789 L22.5663453,26.4905922 C22.547836,26.6336917 22.5240385,26.7754539 22.4949526,26.9158786 C22.4675854,27.0538961 22.4332111,27.1889713 22.3961927,27.3240465 C22.3563978,27.4613953 22.314091,27.5964705 22.2651738,27.7302084 L14.7015132,25.7014052 C14.7491083,25.5676673 14.7940593,25.4325921 14.8323998,25.2948421 C14.8708726,25.1601681 14.9039247,25.0237555 14.9316886,24.8873429 C14.9603779,24.7453133 14.9841754,24.6035512 15.0026847,24.461789 Z M15.0075764,24.4224701 L22.5699149,26.4512733 C22.5685928,26.4633097 22.5672707,26.4766835 22.5659486,26.4900573 L15.002288,24.4612541 C15.0036101,24.4478803 15.0049322,24.4345065 15.0075764,24.4224701 Z" id="形状结合" fill="url(#linearGradient-2)" fill-rule="nonzero"></path>
            <path d="M21.120643,48.4151742 L13.5569824,46.386371 L1.04078326,39.5804518 C0.725729887,39.4127445 0.467922892,39.1252082 0.285474864,38.736031 C0.125635076,38.3992913 0.0357496552,38.0131507 0.00922461022,37.6069583 L0.00876202288,37.6064811 C-0.00181467436,37.4620443 -0.00181467436,37.3149326 0.00347367426,37.1664836 L0.0029448394,37.1670186 C0.00823318802,37.0439797 0.0188098853,36.9196035 0.0346749311,36.7965647 L3.816,37.8103982 L0.0345427224,36.7954948 C0.0490856811,36.6844924 0.0675949013,36.5721526 0.0900703829,36.4598128 C0.111884821,36.3521538 0.138326564,36.2438262 0.168734569,36.1368359 C0.199274782,36.0289095 0.233649048,35.9219192 0.271989575,35.8176036 L2.668,36.4596209 L0.272121784,35.8172024 C0.313106486,35.7048626 0.358057449,35.5951976 0.406974674,35.4882073 L0.407,35.4873982 L0.498330896,35.303181 C0.530060988,35.2423303 0.563113167,35.1824826 0.597487433,35.1236379 C0.704576493,34.9418882 0.824886424,34.7707038 0.958417226,34.6142305 L0.957756183,34.6143642 C0.9868421,34.5809297 1.01592802,34.5474953 1.04501393,34.5153982 L1.8606095,33.6157437 L9.42427011,35.6458842 L8.60867455,36.5442014 C8.57826654,36.5762985 8.54918063,36.6097329 8.5214168,36.6431674 L7.839,36.4596209 L8.52075575,36.6430337 C8.38854704,36.7995069 8.26823711,36.9706914 8.16114805,37.1525749 C8.09239951,37.2701304 8.02761724,37.3918319 7.9707675,37.5175455 C7.92171806,37.6240008 7.8767671,37.7350032 7.8357824,37.8460056 C7.79730966,37.9507224 7.7629354,38.0577126 7.73252739,38.1660403 C7.70198718,38.2726294 7.67686752,38.380957 7.65439204,38.4892847 L4.031,37.5167437 L7.653731,38.4899534 C7.63125551,38.6009558 7.61274629,38.7132956 7.59820334,38.8256354 C7.58251338,38.9480742 7.57195101,39.0721106 7.56664845,39.1948241 L7.56713429,39.1952868 L7.56382907,39.4167901 L7.57281926,39.6347494 C7.59926101,40.0413124 7.69048502,40.4278148 7.84781339,40.7648342 C8.03026142,41.1553487 8.28806841,41.4415477 8.60404724,41.60872 L21.120643,48.4151742 Z M10.0058563,35.3200988 L9.9853639,35.3222721 L9.96526818,35.3259833 C9.93882644,35.3299954 9.91238469,35.335345 9.88594295,35.3420319 L9.83438155,35.3594178 L9.83187392,35.3580859 L9.80013949,35.3719223 C9.78890175,35.3766031 9.77766401,35.3816183 9.76642627,35.3869678 C9.72147531,35.4070284 9.67784643,35.4324386 9.63553964,35.4605236 L9.63606848,35.4607911 C9.5620316,35.5102741 9.49063889,35.5717935 9.42453453,35.6453493 L1.86087392,33.6152087 C1.92830036,33.5429903 1.99837098,33.4814709 2.07240786,33.4319879 C2.1155079,33.4022981 2.15913678,33.3782253 2.20276566,33.3581646 C2.22524114,33.3474656 2.24771662,33.3381039 2.2701921,33.3300796 L2.32228234,33.3132287 L2.36194495,33.3036998 L2.36194495,33.3036998 L2.40121094,33.2966452 C2.4157539,33.2939704 2.42897477,33.292633 2.44219564,33.2912957 C2.46467112,33.2886209 2.4871466,33.2886209 2.50962209,33.2886209 L2.55903509,33.2902592 L2.60772095,33.2973139 C2.62490809,33.2999886 2.64077313,33.3040008 2.65663818,33.3080129 L10.2216209,35.3368161 C10.2044337,35.3328039 10.1885687,35.3287918 10.1713816,35.326117 C10.1393871,35.3195639 10.1063349,35.3168891 10.0732827,35.3168891 C10.0508072,35.3174241 10.0283317,35.3174241 10.0058563,35.3200988 Z" id="形状结合" fill="url(#linearGradient-3)" fill-rule="nonzero"></path>
            <path d="M31.8431664,28.12527 L24.2795058,26.0964668 C24.2649628,26.0924547 24.2504199,26.0884425 24.2358769,26.083093 L31.7995375,28.1118962 C31.8140805,28.1172457 31.8286235,28.1212578 31.8431664,28.12527" id="Fill-1" fill="#707070"></path>
            <path d="M31.7992731,28.1121637 L24.2356125,26.0833605 C24.1642198,26.060625 24.0941492,26.0312027 24.0267227,25.9937561 L31.5903834,28.0225593 C31.6578098,28.0600059 31.7278804,28.0894282 31.7992731,28.1121637" id="Fill-2" fill="#707070"></path>
            <path d="M18.3264118,21.5971243 L25.8900724,23.6272649 L25.8713979,23.6976444 L25.8562269,23.7694282 L25.8421798,23.8424825 L25.8308429,23.9166736 C25.8242324,23.9701687 25.8202662,24.0236638 25.817622,24.077159 C25.8148456,24.1421556 25.8161677,24.2050124 25.820134,24.2678692 C25.8348091,24.4819835 25.8903368,24.6825902 25.9881712,24.8470878 C26.0269525,24.9139567 26.0733724,24.9730986 26.124689,25.0257021 L26.205258,25.0998523 L31.5901189,28.0220244 L24.0264583,25.9932212 L18.6424464,23.0720143 L18.6413329,23.0710491 C18.5580414,23.0015055 18.4840046,22.918588 18.4258327,22.8182846 C18.3266762,22.653787 18.2711485,22.4531803 18.2566056,22.2378623 C18.2524535,22.1762092 18.251185,22.1133524 18.2538292,22.0478209 C18.2566056,21.9948607 18.2605718,21.9413655 18.2685043,21.8878704 L18.2674467,21.8877366 C18.2740571,21.8382536 18.2819896,21.7887706 18.2925663,21.740625 L18.2920375,21.7402238 C18.3026142,21.6920782 18.3131909,21.6452699 18.3264118,21.5971243 Z M18.4321787,21.3103903 L25.9958393,23.3391935 C25.974686,23.3860018 25.9548546,23.4354848 25.9363454,23.4849678 L22.9684464,22.6880143 L25.9368743,23.4855027 C25.918365,23.532311 25.9038221,23.5791192 25.8906012,23.6272649 L18.3269406,21.5971243 C18.3401615,21.550316 18.3560265,21.5035078 18.3718916,21.4553622 L18.3724464,21.4550032 L18.4009444,21.3822744 C18.4110253,21.3578673 18.421602,21.3337945 18.4321787,21.3103903 Z M24.8547459,14.6788653 L32.4170845,16.7076685 C32.335115,16.7210423 32.2518236,16.7424403 32.1698542,16.7718627 L27.8018161,15.6000143 L32.170383,16.7725313 C32.0408184,16.8180022 31.9112539,16.8848711 31.7856556,16.969126 L31.7838161,16.9690143 L31.6897052,17.0375998 C31.6581403,17.0620069 31.6267408,17.0877515 31.5950107,17.114499 C31.5222959,17.1760184 31.4522252,17.2428874 31.3834767,17.3177806 L26.2061834,22.990539 L26.20658,22.9908064 C26.1616291,23.0483137 26.1193223,23.1098331 26.0823038,23.1740273 C26.0505738,23.2276562 26.0228099,23.2824887 25.9963682,23.3386586 L18.4327076,21.3098554 C18.4591493,21.2536855 18.4869131,21.1975156 18.5186432,21.1453578 C18.5569838,21.0810299 18.5979685,21.0195105 18.6429194,20.9620032 L23.8198161,15.2885762 L30.0864464,16.9690143 L23.8198161,15.28764 C23.8885646,15.2140842 23.9586353,15.1458779 24.03135,15.0856958 C24.0934881,15.0322007 24.1582704,14.9827177 24.2217306,14.9399216 L28.4508161,16.0740143 L24.221995,14.9389854 C24.3489154,14.8547306 24.4771578,14.789199 24.6054003,14.7423908 L24.6068161,14.7430143 L24.7304697,14.7049442 C24.771785,14.6942452 24.8131002,14.6855522 24.8547459,14.6788653 Z M25.061917,14.6620143 C25.0936471,14.6633517 25.1253772,14.6646891 25.1571073,14.6673638 L25.202554,14.6725462 L25.2478024,14.6803364 C25.2795325,14.6856859 25.3112626,14.6923728 25.3429927,14.7017345 L32.9066533,16.7305377 C32.8749232,16.721176 32.8431931,16.7144891 32.8114631,16.7091396 L32.8088161,16.7090143 L32.7663799,16.7018509 C32.7511759,16.6995105 32.7359719,16.6975044 32.7207679,16.696167 C32.6890378,16.6934923 32.6573077,16.6921549 32.6255776,16.6921549 L32.6218161,16.6910143 L32.5220251,16.695398 C32.4874856,16.69824 32.4527808,16.7025865 32.4177455,16.707936 L24.8540849,14.6777954 C24.9241555,14.6670964 24.992904,14.6617469 25.0616526,14.6630842 L29.2908161,15.7970143 L25.061917,14.6620143 Z" id="形状结合" fill="url(#linearGradient-4)" fill-rule="nonzero"></path>
            <path d="M31.8418443,13.5047807 L24.2781837,11.4759775 C24.1962143,11.4532421 24.1168891,11.4224824 24.040208,11.3810237 L31.6025466,13.4098268 C31.6805497,13.4512856 31.7598749,13.4820453 31.8418443,13.5047807" id="Fill-16" fill="#707070"></path>
            <path d="M18.3461109,8.15045214 L25.9110936,10.1792553 C25.9703231,10.3108534 26.050706,10.414206 26.1447963,10.4858895 L26.2182144,10.5333932 L31.6030754,13.4100943 L24.0394148,11.3812911 L18.6555362,8.505 L18.6541572,8.50485745 C18.529881,8.43531376 18.4214698,8.3149497 18.3461109,8.15045214 Z M18.2501273,7.14059764 C18.2593819,7.09378939 18.2712807,7.04698114 18.2845016,7.00017289 C18.296797,6.95416707 18.31134,6.90735883 18.3285271,6.86188796 L19.9085362,7.285 L18.3287915,6.86188796 C18.3459787,6.81240495 18.36581,6.7655967 18.3882854,6.71745108 C18.4127441,6.66328725 18.4405079,6.60979211 18.4709159,6.55763435 L18.4715303,6.55686374 L18.546969,6.43997847 C18.5739065,6.40203036 18.6023314,6.36558679 18.6320783,6.33081495 L18.6325303,6.32986374 L18.6560081,6.30286374 L23.8334336,0.618336419 C23.9015211,0.54611798 23.9729138,0.479249055 24.0443065,0.417729643 C24.09719,0.373596153 24.1527176,0.334812176 24.2069232,0.297365578 C24.2375956,0.275700046 24.2693257,0.255639369 24.3010558,0.23691607 C24.4081449,0.171384523 24.516556,0.117889383 24.6262893,0.0791054066 L24.625496,0.079640358 C24.655904,0.06894133 24.6876341,0.058242302 24.7180421,0.050218031 C24.7696035,0.0355068675 24.8211649,0.0234704609 24.8714042,0.0167835684 C24.9429291,0.00421221051 25.0143218,-0.00113730349 25.0843925,0.000200075008 C25.1129495,-6.74006915e-05 25.1420355,0.00126997781 25.1697993,0.00394473482 L25.2225175,0.00962859345 L25.2742442,0.0175859955 C25.3072964,0.0229355095 25.3390265,0.0309597806 25.3707565,0.0389840516 L32.9344172,2.06778724 C32.9026871,2.05976297 32.8696349,2.0517387 32.8379048,2.04638918 C32.8035305,2.04077219 32.7691563,2.03542268 32.7334599,2.03274792 C32.704374,2.03007317 32.6766102,2.02873579 32.6475242,2.02873579 L26.6385362,0.417 L32.6480531,2.02900326 C32.5766604,2.02766588 32.5065898,2.03435278 32.435197,2.0450518 C32.3835034,2.05361103 32.3332641,2.06431006 32.2817027,2.07902122 C32.2512947,2.08704549 32.2195646,2.09774452 32.1891566,2.10844355 L32.1867726,2.1069326 L32.0802656,2.15238881 C32.0080894,2.18488216 31.9361091,2.22292315 31.8647164,2.26571926 C31.8329863,2.28577994 31.8012563,2.30450323 31.7708483,2.32590129 L25.4035362,0.618 L31.7705838,2.32616877 C31.7163783,2.36361536 31.6608506,2.40239934 31.6079671,2.44787021 C31.5352523,2.50805224 31.4651817,2.57492117 31.3964332,2.64713961 L31.3970942,2.64713961 L26.2198009,8.33233562 L26.2185362,8.332 L26.1957389,8.35961814 C26.136245,8.42916182 26.0820394,8.5053924 26.0344443,8.58697249 L25.9909476,8.66567721 L25.950624,8.74759164 C25.9294706,8.79439989 25.9096393,8.84254552 25.8924521,8.89069114 C25.8750006,8.93616201 25.8604576,8.98297026 25.8472368,9.02977851 L22.1275362,8.031 L25.8468401,9.03031346 C25.8349413,9.07578433 25.8230426,9.12259258 25.8137879,9.16940082 C25.8037401,9.2180814 25.7958076,9.26622703 25.7891971,9.31571003 C25.7821901,9.36813527 25.7782238,9.42163041 25.7755796,9.47512555 C25.7729355,9.53811608 25.7742575,9.60231025 25.7782238,9.66382966 L19.6275362,8.014 L25.778356,9.66409713 C25.7902548,9.84999274 25.8338837,10.0265267 25.9105647,10.1789879 L18.3469041,8.15018467 C18.2702231,7.99772352 18.2265942,7.82118956 18.2146954,7.63529394 C18.2105434,7.57350706 18.2092748,7.50931289 18.211919,7.44511872 C18.2145632,7.39282722 18.2185295,7.33933208 18.226462,7.28583694 C18.2321469,7.23742384 18.2400795,7.18927821 18.2493341,7.14113259 L24.5045362,8.818 L18.2501273,7.14059764 Z" id="形状结合" fill="url(#linearGradient-5)" fill-rule="nonzero"></path>
            <path d="M22.5885563,23.1381855 L15.0248957,21.1093824 C15.0169632,21.1067076 15.0090307,21.1040328 15.0010982,21.1026955 L22.5647588,23.1314987 C22.5726913,23.1341734 22.5806238,23.1368482 22.5885563,23.1381855" id="Fill-56" fill="#707070"></path>
            <path d="M22.5652876,23.1316324 L15.001627,21.1028292 C14.9302343,21.0814311 14.8601637,21.0520088 14.7927372,21.0158996 L22.3563978,23.0460402 C22.4238243,23.0821494 22.4938949,23.1102343 22.5652876,23.1316324" id="Fill-61" fill="#707070"></path>
            <path d="M9.66660869,16.1566685 L17.2302693,18.1854717 C17.194573,18.23228 17.1628429,18.281763 17.1324349,18.3339207 L17.1309104,18.3336685 L17.0873186,18.415668 C17.0729409,18.4432514 17.059059,18.471002 17.0458381,18.499087 L17.0459704,18.4996219 C17.0234949,18.5477676 17.0036636,18.5972506 16.9851543,18.6467336 L16.4359104,18.4996071 L16.9848899,18.6472685 C16.9677028,18.6927394 16.9531598,18.740885 16.939939,18.7876933 C16.9269825,18.8345015 16.9150837,18.8826471 16.9058291,18.9294554 L16.8916663,19.0034459 L16.8916663,19.0034459 L16.8803128,19.0779044 C16.8737024,19.1313996 16.8697361,19.1848947 16.867092,19.2383898 L16.8658029,19.3345139 L16.8692073,19.4289663 C16.8818993,19.6119196 16.9225139,19.7854579 16.9944354,19.9345167 L17.0540351,20.0409507 L17.2269104,20.2336071 L17.2290794,20.2355392 L22.3561334,23.0453715 L14.7924728,21.0165683 L9.66409672,18.2067361 L9.49091039,18.0126071 L9.49063889,18.0126824 C9.38222774,17.841498 9.32141173,17.6288548 9.30554669,17.4001631 L9.30591039,17.3996685 L9.30212222,17.3055435 C9.30163314,17.2734465 9.30197705,17.241015 9.30329914,17.2082493 C9.30607552,17.1560915 9.31136387,17.1025964 9.31797431,17.0491012 L9.31691664,17.0488337 C9.32352707,16.9993507 9.3314596,16.9498677 9.34203629,16.9003847 C9.35142311,16.8525066 9.3633219,16.8056983 9.37654277,16.7588901 C9.38949922,16.7107445 9.40536427,16.6639362 9.42122931,16.617128 C9.44000295,16.56711 9.46115635,16.5189644 9.48230974,16.4708188 L13.9359104,17.6646071 L9.48217753,16.4702838 C9.50861927,16.4127765 9.53770519,16.357944 9.56943528,16.3044489 C9.59918224,16.2529598 9.63223442,16.2034768 9.66660869,16.1566685 Z M15.2776788,10.0698578 L22.8413394,12.098661 C22.7025202,12.1909401 22.5689894,12.3059546 22.440747,12.445042 L17.2305337,18.1850705 L9.66687311,16.1562673 L14.8772186,10.4162388 C15.0053288,10.2771514 15.1401817,10.1621369 15.2776788,10.0698578 Z M16.12474,9.78954324 L16.2193684,9.79395659 L16.3134019,9.80692916 C16.346454,9.81227867 16.3795062,9.82030294 16.4112363,9.82832721 L23.9748969,11.8571304 C23.9418447,11.8491061 23.9101147,11.8410819 23.8770625,11.8357323 L23.8750864,11.8356071 L23.7825332,11.8229269 C23.7508032,11.820085 23.7190731,11.8187476 23.687343,11.8187476 L23.6830864,11.8176071 L23.6216352,11.8195166 C23.5998208,11.8203525 23.5780064,11.8216899 23.5561919,11.8236959 C23.5297502,11.8263707 23.5046305,11.8303828 23.4781888,11.834395 C23.4283461,11.8422855 23.3767847,11.8529845 23.3265454,11.8676957 L23.2822555,11.8807351 L23.2375689,11.8963156 C23.1965842,11.9110268 23.1542774,11.9284127 23.1119706,11.947136 C23.0207466,11.9872573 22.9295226,12.0380777 22.8409428,12.0982597 L15.2772822,10.0694566 C15.3671841,10.0092745 15.457086,9.95845414 15.54831,9.91833279 C15.5906168,9.89827211 15.6329236,9.88222357 15.6752304,9.8675124 L15.6743049,9.86697745 C15.7033908,9.85627842 15.7337989,9.84691677 15.7628848,9.8388925 C15.8131241,9.82418134 15.8633634,9.81348231 15.9136027,9.80545804 L17.7029104,10.2846071 L15.9145282,9.80559178 C15.9396478,9.80024226 15.9660896,9.79756751 15.9925313,9.79489275 L16.0581399,9.79071344 L16.1236824,9.78860707 L16.12474,9.78954324 Z" id="形状结合" fill="url(#linearGradient-6)" fill-rule="nonzero"></path>
            <path d="M13.4107595,33.2664204 L5.8470989,31.2376172 C5.83387803,31.2336051 5.81933507,31.229593 5.80743628,31.2255808 L13.3697748,33.254384 L13.4107595,33.2664204" id="Fill-101" fill="#707070"></path>
            <path d="M13.3700392,33.2546515 L5.80637861,31.2258483 C5.73498591,31.2031129 5.6635932,31.1736905 5.59616676,31.1362439 L13.1585053,33.1650471 C13.2272538,33.2024937 13.2986465,33.2319161 13.3700392,33.2546515" id="Fill-104" fill="#707070"></path>
            <path d="M0.218180628,28.1074828 L7.78184124,30.136286 L7.98967334,30.367385 L13.1590341,33.1651809 L5.5953735,31.1363777 L0.426805212,28.3392536 L0.425748312,28.3388493 L0.218180628,28.1074828 Z M0.0822700687,27.0215315 L7.64725277,29.0503347 C7.63667607,29.0998177 7.62742146,29.1493007 7.62213311,29.1987837 C7.61446501,29.2524126 7.61049875,29.3072451 7.60785457,29.3607402 C7.60522431,29.4247303 7.60651868,29.4885866 7.61043634,29.5511265 L7.61102758,29.5514504 C7.62424845,29.7707805 7.6810982,29.9727246 7.78157682,30.1358848 L0.217916211,28.1070816 C0.117437587,27.9439215 0.0619099266,27.7406399 0.0460448807,27.5226472 L0.0468052118,27.5219401 L0.0430170441,27.4281949 C0.0425279575,27.396265 0.0428718715,27.3641679 0.0441939587,27.3320708 C0.046838133,27.2771045 0.0508043945,27.2236094 0.0587369174,27.1687769 C0.0650829357,27.1204975 0.0730154587,27.0710145 0.0822700687,27.0215315 Z M0.305702798,26.4322825 L7.86936341,28.4610857 C7.84027749,28.5132435 7.81119158,28.5667386 7.78607192,28.6215711 C7.76372865,28.669583 7.74389734,28.7177287 7.72671021,28.7672117 L7.72710683,28.7677466 C7.70859761,28.8132175 7.69405465,28.8600257 7.68083378,28.9081714 C7.66774512,28.9549796 7.65584634,29.0017878 7.64659173,29.0499335 L0.0829311123,27.0211303 C0.0921857224,26.9729847 0.104084507,26.9261764 0.117305378,26.8780308 C0.130394041,26.8312225 0.146259087,26.7844143 0.162124133,26.737606 L0.162805212,26.7369401 L0.191309207,26.6650198 C0.201390121,26.6407798 0.211966819,26.616707 0.222543516,26.5926342 C0.247530963,26.5379354 0.275294793,26.4831029 0.305702798,26.4322825 Z M5.8456446,20.304548 L13.4106273,22.3333512 L7.99165647,28.2817433 C7.9480276,28.3379132 7.9070429,28.3980952 7.87002446,28.460952 L0.306363842,26.4321488 C0.343382282,26.369292 0.383044896,26.30911 0.42799586,26.2529401 L0.427731442,26.2532076 L5.8456446,20.304548 Z M7.08814211,19.6782536 C7.11960779,19.6785211 7.15133788,19.6798585 7.18439006,19.6825332 L7.22934102,19.6882171 L7.27376315,19.6955058 C7.30549324,19.7008553 7.33854542,19.7075422 7.37027551,19.7169039 L14.932614,21.745707 C14.9008839,21.7363454 14.8691539,21.7296585 14.8374238,21.724309 L14.8354379,21.7242536 L14.7923406,21.7175218 L14.7467286,21.7113364 C14.7149985,21.7086617 14.6832684,21.7073243 14.6515383,21.7073243 L14.6484379,21.7062536 L14.5485147,21.7110689 L14.4443673,21.7228379 C14.3610758,21.7362117 14.2791064,21.7576097 14.1958149,21.787032 L8.17480521,20.1712536 L14.1956827,21.7877007 C14.0766948,21.8304968 13.957707,21.8893415 13.8413633,21.9642347 C13.8321087,21.9709216 13.8228541,21.9776085 13.8135995,21.982958 C13.6745159,22.0775107 13.5383409,22.1938626 13.4100985,22.3329499 L5.84643786,20.3041468 C5.97468031,20.163722 6.11085529,20.0487075 6.24967444,19.9537536 L12.7838052,21.7062536 L6.24993886,19.9541548 C6.25919347,19.9488053 6.26844808,19.9421184 6.27770269,19.9354315 C6.39404636,19.8605383 6.5130342,19.8003563 6.63202204,19.7575602 C6.71544574,19.7288065 6.79873723,19.7074085 6.88070664,19.6940347 L6.88343786,19.6942536 L6.98485405,19.6822658 C7.01939358,19.679591 7.05376785,19.6782536 7.08814211,19.6782536 Z" id="形状结合" fill="url(#linearGradient-7)" fill-rule="nonzero"></path>
            <path d="M7.73966666,14.1546129 L7.74006329,14.1552816 L7.71543941,14.224491 L7.69392245,14.2962413 C7.68070157,14.3430496 7.66880279,14.3898578 7.65954818,14.4380034 L7.66020922,14.437736 C7.64963253,14.487219 7.64037792,14.536702 7.63508957,14.586185 C7.62742146,14.6398139 7.6234552,14.6946464 7.62081103,14.7481415 C7.61816685,14.8131381 7.61948894,14.8773323 7.6234552,14.9401891 L7.62398404,14.9395204 C7.63720491,15.1575131 7.69405465,15.3607946 7.79453328,15.5239548 L7.7947977,15.523821 L8.00236538,15.7551875 L2.03778476,14.1551999 L8.00249759,15.7555887 L13.1718584,18.5533846 L5.60819775,16.523244 L0.439784764,13.7271999 L0.438704766,13.7263843 L0.231137082,13.4950179 L5.26378476,14.8441999 L0.230872665,13.4938142 C0.130394041,13.3319914 0.0748663805,13.1287099 0.0603234218,12.9107172 C0.0557747567,12.8485291 0.0545062383,12.7843349 0.0571504126,12.7188034 C0.059794587,12.6658432 0.0650829356,12.6110107 0.0716933714,12.5575155 C0.0780393897,12.5078988 0.0859719126,12.4584158 0.0952265227,12.4089328 L0.0957847635,12.4081999 L0.112083134,12.3376505 C0.117702004,12.313912 0.123651397,12.2901736 0.130261832,12.2661007 C0.144672582,12.2187575 0.159215541,12.1719493 0.175080587,12.1251411 L0.175784764,12.1243413 L0.204265661,12.0525883 C0.214346575,12.0285155 0.224923273,12.004777 0.23549997,11.9813729 L7.19878476,13.8481999 L0.235367761,11.9808379 C0.260487417,11.924668 0.288251247,11.8711729 0.319981339,11.8190151 C0.356338736,11.7566933 0.39600135,11.6978486 0.440952314,11.6403413 L0.440687896,11.6406088 L5.85860106,5.63310459 L5.85978476,5.63219989 L5.98670641,5.50784176 C6.07269104,5.4285897 6.16083018,5.35845162 6.25073211,5.2978238 L6.25139431,5.29719989 L6.38001754,5.21824978 C6.4669815,5.16921257 6.55512064,5.12909121 6.64325978,5.09788571 L13.8977848,7.04319989 L6.64312758,5.09668207 C6.67750184,5.08598304 6.71055402,5.07394664 6.7436062,5.06458499 C6.79648969,5.0512112 6.846729,5.0391748 6.8982904,5.03115052 L6.90039431,5.03119989 L7.00428873,5.01888008 C7.0394893,5.01603815 7.07452461,5.01470077 7.10955992,5.01536946 C7.13891026,5.01577067 7.16799618,5.01710805 7.19708209,5.01978281 L7.24864349,5.02496515 L7.30020489,5.03275538 C7.33325707,5.03810489 7.36498716,5.04612916 7.39803934,5.05415344 L14.9603779,7.08295662 C14.9286478,7.07493235 14.8955956,7.06690808 14.8638655,7.06155857 C14.8294912,7.05527289 14.795117,7.05126075 14.7594206,7.048586 C14.7316568,7.04591124 14.7025709,7.04457386 14.673485,7.04457386 L14.6703943,7.04319989 L14.5679493,7.04818478 C14.5327488,7.05085954 14.4973829,7.05487167 14.4616866,7.06022119 L14.4593943,7.05919989 L14.3847742,7.07533357 C14.3591587,7.08101742 14.3337086,7.08736997 14.3085889,7.09472555 C14.2742146,7.10274982 14.2398404,7.11478623 14.2067882,7.12682264 C14.1187813,7.1578944 14.0306421,7.19861014 13.9436782,7.24764736 L13.8143927,7.32796436 C13.6795398,7.41756872 13.5486532,7.52990852 13.4230549,7.66230899 L13.4217848,7.66219989 L8.00434851,13.669412 L8.00278476,13.6691999 L7.941318,13.7572443 C7.92099091,13.7871682 7.90149013,13.8175935 7.88298091,13.8483533 L7.88178476,13.8483413 L7.83918677,13.9272251 C7.8251396,13.9541399 7.8115882,13.9815562 7.79902837,14.0096411 C7.7766851,14.0569843 7.75817588,14.1051299 7.73966666,14.1546129 Z" id="形状结合" fill="url(#linearGradient-8)" fill-rule="nonzero"></path>
            <path d="M24.0090068,26.0492573 C24.1504701,27.087063 24.6145227,27.896177 25.2887871,28.2639561 L27.4490775,29.4796332 L30.6815806,31.231599 C30.7503292,31.2677082 30.8203998,31.3011427 30.8917925,31.330565 C30.9169122,31.3412641 30.9433539,31.347951 30.9684736,31.3573126 C31.0147466,31.3746985 31.0610197,31.3934218 31.1086148,31.408133 C31.1377007,31.4161573 31.1681087,31.4228442 31.1971946,31.429531 C31.2421456,31.4415675 31.2870966,31.4549412 31.3320475,31.4629655 C31.3637776,31.4696524 31.3968298,31.4736645 31.429882,31.479014 C31.4721888,31.4843636 31.5158176,31.4923878 31.5594465,31.4977373 C31.5951429,31.5004121 31.6295171,31.5017495 31.6652135,31.5030869 C31.7075203,31.5057616 31.7498271,31.5084364 31.7921339,31.5084364 C31.8291523,31.5084364 31.8674928,31.5057616 31.9045113,31.5044242 C31.945496,31.5017495 31.9851586,31.5017495 32.0261433,31.4977373 C32.067128,31.4937252 32.1081127,31.4857009 32.1490974,31.4803514 C32.1874379,31.4750019 32.2257784,31.4709898 32.264119,31.4629655 C32.3051037,31.4562786 32.3460884,31.4442422 32.385751,31.4348806 C32.4188032,31.4268563 32.4518553,31.4215068 32.4835854,31.4121451 C32.6091837,31.3773733 32.643558,31.3639995 32.6779322,31.3533005 C32.7149507,31.3412641 32.7532912,31.330565 32.7903097,31.3171912 C32.8339385,31.3011427 32.8762453,31.2837568 32.9185521,31.2650335 C32.9555705,31.2503223 32.992589,31.2356112 33.0282853,31.2195626 C33.0719142,31.2008393 33.114221,31.1781039 33.1565278,31.1553685 C33.1922242,31.1379825 33.2292426,31.1205966 33.2649389,31.1005359 C33.3059236,31.0791379 33.3455863,31.0537277 33.386571,31.0296549 C33.4235894,31.0069194 33.4606078,30.9855214 33.4976263,30.9614486 C33.5359668,30.9373758 33.5743073,30.9092908 33.6126479,30.8825432 L33.7250253,30.8023005 C33.7646879,30.7728782 33.8043505,30.7407811 33.842691,30.7100214 C33.8783874,30.6819365 33.9140837,30.6538515 33.948458,30.6244292 C33.9894427,30.5909947 34.0277832,30.5522107 34.0687679,30.5161015 C34.100498,30.4853418 34.1335502,30.4572569 34.1652803,30.4264972 C34.236673,30.3582909 34.3067436,30.2860724 34.3754922,30.2125166 L36.2224479,28.1676649 C36.3321811,28.0499756 36.4498469,27.963046 36.5688347,27.9082134 C36.6084974,27.8908275 36.64816,27.874779 36.6878226,27.86408 C36.7274852,27.8533809 36.7671478,27.8453567 36.8068104,27.8413445 C36.9244762,27.8306455 37.0394978,27.8520435 37.1452647,27.9095508 L37.9517379,28.3575726 C38.2677167,28.5234076 38.5255237,28.8109439 38.7079718,29.2001211 C39.288368,30.439871 38.9472695,32.3309242 37.938517,33.4235624 L25.4038087,47.219959 C25.2385478,47.4005051 25.0693207,47.5663401 24.8948052,47.7161264 C24.7202897,47.8659128 24.54313,47.9996507 24.362004,48.11734 C24.0023963,48.3513812 23.6322119,48.5225657 23.2620275,48.6255438 C22.799297,48.7552695 22.3365665,48.7793424 21.8936673,48.6924128 C21.6279278,48.640255 21.3687987,48.5479759 21.1202463,48.4155754 L8.60404724,41.6083188 C8.28806841,41.4411465 8.03026142,41.1549475 7.84781339,40.764433 C7.26741713,39.5260205 7.60190518,37.6363047 8.6080135,36.5450038 L9.42506337,35.6449481 C9.53083034,35.5285962 9.64717401,35.4416666 9.76616185,35.386834 C9.80582447,35.3681107 9.84548708,35.3533996 9.88647178,35.3427005 C9.9261344,35.3306641 9.96579701,35.3239772 10.0067817,35.3199651 C10.1244475,35.3079287 10.2421132,35.3293268 10.3478802,35.386834 L12.1921918,36.3898679 C12.7580451,36.6840912 13.3979353,36.7375863 14.0470801,36.5557028 C14.1277274,36.5343048 14.1621016,36.520931 14.1964759,36.510232 C14.2334943,36.4981956 14.2718349,36.4874965 14.3088533,36.4741228 C14.3524822,36.4580742 14.394789,36.4393509 14.4384179,36.421965 C14.4741142,36.4072538 14.5098106,36.39388 14.5455069,36.3778315 C14.5891358,36.3577708 14.6340868,36.333698 14.6763935,36.3123 L14.7808384,36.2588048 C14.8231452,36.2360694 14.8641299,36.2093218 14.9064367,36.185249 C14.9421331,36.1638509 14.9778294,36.1424529 15.0135258,36.1197175 L15.1298694,36.0394747 C15.1668879,36.0127272 15.2039063,35.9886544 15.2409248,35.9605694 C15.2819095,35.9311471 15.3215721,35.8977126 15.3612347,35.8656155 C15.395609,35.8375306 15.4299832,35.8121204 15.4630354,35.7826981 C15.5066643,35.7465888 15.5489711,35.7051301 15.5925999,35.6650088 C15.6230079,35.6382612 15.6520939,35.612851 15.6811798,35.5847661 C15.7538946,35.5165597 15.8239652,35.4443413 15.8940358,35.3694481 L19.1067076,31.7852737 L21.2960839,29.3779924 C21.9703484,28.63441 22.4370451,27.5658446 22.5705759,26.4504709 C22.6895638,26.4558204 22.8085516,26.4504709 22.9288616,26.4357597 C23.0491715,26.4210486 23.1694814,26.3969757 23.2897914,26.3622039 C23.3506074,26.3461554 23.4101013,26.3274321 23.4709173,26.3046966 C23.5912272,26.2619005 23.7115372,26.2097427 23.8318471,26.1482233 C23.8900189,26.1174636 23.9495128,26.0840292 24.0090068,26.0492573 Z M32.7207679,16.6965682 C32.8688416,16.709942 33.011627,16.7527381 33.1464799,16.8249566 L38.5657152,19.7498034 L38.7653503,19.995881 C39.0562095,20.4947232 38.9557309,21.3212231 38.5313409,21.8454755 L33.3540476,27.5306715 C33.2852991,27.6055647 33.2165506,27.6751084 33.1451578,27.7366278 C33.0023724,27.861004 32.8516545,27.95997 32.7009366,28.0308511 C32.6242555,28.0656229 32.5475745,28.0937078 32.4722155,28.1151059 C32.3955344,28.136504 32.3188534,28.1512151 32.2421723,28.157902 C32.0914544,28.1726132 31.9420585,28.157902 31.7992731,28.1124311 C31.7278804,28.0896957 31.6578098,28.0602734 31.5903834,28.0214894 L26.2055224,25.0993174 C26.1222309,25.0297737 26.0468719,24.9468562 25.9887001,24.8465528 C25.6899084,24.3517228 25.790387,23.5238855 26.2055224,22.9902715 L31.3841378,17.3184493 C31.4515642,17.2435561 31.5229569,17.1753498 31.5956717,17.1138303 C31.9552794,16.8075707 32.3519056,16.6617964 32.7207679,16.6965682 Z M24.2118149,11.9507469 L29.2992063,14.7712782 C29.3811757,14.8287854 29.4565347,14.9130403 29.5147065,15.0120063 C29.8134982,15.5081737 29.7130196,16.336011 29.2965621,16.8682876 L24.1285234,22.5508089 C23.9910264,22.6992579 23.8442747,22.8222967 23.696201,22.9199254 C23.4106301,23.1031462 23.1118384,23.1887385 22.8275897,23.1740273 C22.7390098,23.1686778 22.65043,23.1566414 22.5658164,23.1312312 C22.4931016,23.1098331 22.4243531,23.0817482 22.3556046,23.045639 L17.2285506,20.2358067 L17.0540351,20.0418868 C16.7473109,19.5590932 16.8226698,18.7392802 17.2298727,18.1856055 L22.4402182,12.4455769 C22.6517521,12.2182226 22.8791511,12.0510503 23.1118384,11.9467348 C23.1832311,11.9146377 23.2559459,11.8878901 23.3273386,11.8678294 C23.4026976,11.8464314 23.4793787,11.8317202 23.5560597,11.8236959 C23.7834587,11.8022979 24.0068914,11.8424192 24.2118149,11.9507469 Z M14.7595528,7.04885347 C14.9076266,7.06088988 15.0517341,7.10101123 15.186587,7.17055491 L20.3638803,10.0699915 C20.4471718,10.1274988 20.5132761,10.213091 20.5807026,10.3107196 C20.8702397,10.8095618 20.7790156,11.6347244 20.3625582,12.167001 L14.9353904,18.0608281 C14.6656846,18.3563887 14.3616046,18.551646 14.0562025,18.6359008 C13.7521224,18.721493 13.4467203,18.6960828 13.1717262,18.5529833 L8.00236538,15.7551875 L7.79479769,15.523821 C7.496006,15.03969 7.5885521,14.2024911 8.00368747,13.6688771 L13.4229227,7.6627102 C13.6979168,7.37116169 14.003319,7.17857919 14.3087211,7.09432434 C14.4607611,7.05152823 14.6128012,7.03547969 14.7595528,7.04885347 Z" id="形状结合" fill="url(#linearGradient-9)" fill-rule="nonzero"></path>
            <path d="M14.7467286,21.7116039 C14.8948023,21.7263151 15.0375878,21.7677738 15.1724406,21.8399922 L20.351056,24.6244143 C20.4343475,24.693958 20.5004519,24.7675138 20.5678783,24.8771788 C20.8574154,25.376021 20.7648693,26.1998461 20.3497339,26.7334602 L14.9225662,32.6740955 C14.8551397,32.7489887 14.7850691,32.817195 14.7136764,32.8800518 C14.570891,33.004428 14.4228172,33.1020566 14.2707772,33.1729377 C14.1954182,33.2077095 14.1200593,33.2357944 14.0433782,33.2571925 C13.9666972,33.2785906 13.8913382,33.2933017 13.8159792,33.2999886 C13.6639392,33.3146998 13.5145434,33.2986512 13.3704359,33.2545177 C13.2990431,33.2331197 13.2276504,33.20236 13.1589019,33.1649134 L7.98954113,30.3671176 L7.78197345,30.1357511 C7.48318175,29.6516201 7.57440577,28.8144211 7.99086322,28.2821445 L13.4100985,22.3334849 C13.5475955,22.1850359 13.691703,22.0606597 13.8410989,21.9643684 C14.1385685,21.7717859 14.4519031,21.6848563 14.7467286,21.7116039 Z M32.7343854,2.03328287 C32.8824591,2.04531928 33.0252445,2.08544064 33.1600974,2.15498432 L38.5462805,5.14803741 L38.7525261,5.37940389 C39.0526399,5.87557131 38.9600938,6.69939647 38.5436363,7.23301049 L33.366343,12.9182065 C33.0966372,13.2137672 32.789913,13.4090244 32.4845109,13.4946166 C32.1791088,13.5788715 31.8737066,13.5547987 31.6026788,13.4103618 L26.2178178,10.5336606 C26.0922195,10.464117 25.9851304,10.3437529 25.9110936,10.1792553 C25.644032,9.65099082 25.7775628,8.82582829 26.2191399,8.33233562 L31.3964332,2.64713961 C31.4651817,2.57492117 31.5352523,2.50805224 31.6079671,2.44787021 C31.6912586,2.37698915 31.7785164,2.3181445 31.864452,2.26598673 C32.0019491,2.18173189 32.1420903,2.1188751 32.2822316,2.07875374 C32.4342716,2.03595763 32.5863116,2.02124647 32.7343854,2.03328287 Z" id="形状结合" fill="#949494"></path>
        </g>
    </g>
</svg>