<?xml version="1.0" encoding="UTF-8"?>
<svg width="50px" height="50px" viewBox="0 0 50 50" version="1.1" xmlns="http://www.w3.org/2000/svg" xmlns:xlink="http://www.w3.org/1999/xlink">
    <title>责任单位</title>
    <defs>
        <linearGradient x1="50%" y1="69.9536306%" x2="87.3356094%" y2="43.4641725%" id="linearGradient-1">
            <stop stop-color="#003B7C" offset="0%"></stop>
            <stop stop-color="#4EA2FF" offset="100%"></stop>
        </linearGradient>
        <linearGradient x1="50%" y1="70.0945097%" x2="87.3356094%" y2="43.4180274%" id="linearGradient-2">
            <stop stop-color="#003B7C" offset="0%"></stop>
            <stop stop-color="#4EA2FF" offset="100%"></stop>
        </linearGradient>
        <linearGradient x1="50%" y1="191.52824%" x2="52.4044089%" y2="3.64231277%" id="linearGradient-3">
            <stop stop-color="#003B7C" offset="0%"></stop>
            <stop stop-color="#4EA2FF" offset="100%"></stop>
        </linearGradient>
        <linearGradient x1="-140.01575%" y1="136.63737%" x2="87.3356094%" y2="46.8862989%" id="linearGradient-4">
            <stop stop-color="#003B7C" offset="0%"></stop>
            <stop stop-color="#4EA2FF" offset="100%"></stop>
        </linearGradient>
        <linearGradient x1="100%" y1="111.524222%" x2="285.958856%" y2="-518.719445%" id="linearGradient-5">
            <stop stop-color="#003B7C" offset="0%"></stop>
            <stop stop-color="#4EA2FF" offset="100%"></stop>
        </linearGradient>
        <linearGradient x1="-232.884465%" y1="145.293999%" x2="235.182602%" y2="-108.103245%" id="linearGradient-6">
            <stop stop-color="#003B7C" offset="0%"></stop>
            <stop stop-color="#4EA2FF" offset="100%"></stop>
        </linearGradient>
        <linearGradient x1="44.9147443%" y1="120.097004%" x2="58.174476%" y2="3.64231277%" id="linearGradient-7">
            <stop stop-color="#003B7C" offset="0%"></stop>
            <stop stop-color="#4EA2FF" offset="100%"></stop>
        </linearGradient>
        <linearGradient x1="57.7217558%" y1="0%" x2="36.6134425%" y2="96.715658%" id="linearGradient-8">
            <stop stop-color="#C3EEFF" offset="0%"></stop>
            <stop stop-color="#25A8FF" offset="100%"></stop>
            <stop stop-color="#25A8FF" offset="100%"></stop>
        </linearGradient>
    </defs>
    <g id="页面-1" stroke="none" stroke-width="1" fill="none" fill-rule="evenodd">
        <g id="编组-126" transform="translate(5.000000, -0.000262)">
            <polygon id="Fill-1" fill="url(#linearGradient-1)" fill-rule="nonzero" points="36.6598802 36.729714 29.4338871 33.8918008 31.769575 33.1394725 38.995568 35.9773857"></polygon>
            <polygon id="Fill-3" fill="url(#linearGradient-2)" fill-rule="nonzero" points="26.6114108 39.9687816 19.3854178 37.1308685 21.5048138 36.4478852 28.729488 39.2857984"></polygon>
            <polygon id="Fill-5" fill="url(#linearGradient-3)" fill-rule="nonzero" points="28.7300155 39.2859292 21.5040225 36.4480161 21.9207799 9.16924639 29.1467729 12.0071595"></polygon>
            <polygon id="Fill-7" fill="url(#linearGradient-4)" fill-rule="nonzero" points="29.1474324 12.0068979 21.9214393 9.16898471 28.7504577 9.97364888 35.9764508 12.811562"></polygon>
            <polygon id="Fill-9" fill="#FFF47F" points="21.727568 26.7628687 14.5015749 23.9249556 14.5648799 19.8152805 21.7908729 22.6531937"></polygon>
            <polygon id="Fill-11" fill="#FFF47F" points="14.8860205 32.4557042 7.66002741 29.6177911 14.5022344 23.9249556 21.7269086 26.7628687"></polygon>
            <polygon id="Fill-13" fill="#FFF47F" points="21.8647287 17.7976014 14.6387356 14.9596883 14.7020405 10.8290789 21.9280336 13.666992"></polygon>
            <polygon id="Fill-15" fill="url(#linearGradient-5)" fill-rule="nonzero" points="7.22599305 50.0002617 1.36779477e-13 47.1623485 0.0580295116 43.3614551 7.28402256 46.1993683"></polygon>
            <polygon id="Fill-17" fill="url(#linearGradient-6)" fill-rule="nonzero" points="7.28389067 46.1989758 0.0578976263 43.3610626 2.37512153 42.6139679 9.60111458 45.4518811"></polygon>
            <path d="M16.4166807,-9.85878046e-13 C18.6811505,0.410836668 19.4671866,0.569152708 19.741508,0.641114545 L26.967501,3.4790277 C26.6931797,3.40706587 25.9071436,3.24744143 23.6426738,2.83791316 L16.4166807,-9.85878046e-13 Z" id="形状结合" fill="#878787"></path>
            <polygon id="Fill-23" fill="#FFF47F" points="15.0212028 23.5896134 7.7952098 20.7517003 14.6387356 14.9594266 21.8647287 17.7973398"></polygon>
            <path d="M2.81997049,13.5442644 L10.0459635,16.3821775 L9.60151023,45.4521428 L2.37551719,42.6142296 L2.81997049,13.5442644 Z M11.0398178,13.7236456 L10.9129772,13.8851018 C10.8404403,13.98454 10.7705411,14.0852866 10.7059173,14.1912667 L10.7064449,14.191005 C10.6497342,14.2812844 10.5969801,14.375489 10.5468637,14.471002 L10.4791407,14.6049164 L10.4174843,14.7406626 C10.3779187,14.8296336 10.3409909,14.9212214 10.3080195,15.0115008 C10.2739931,15.1029578 10.2436595,15.195854 10.2159636,15.2900585 C10.188004,15.387665 10.1616269,15.4857947 10.1405253,15.5852329 C10.1162584,15.6951383 10.0964756,15.8050436 10.0819682,15.9136406 C10.0636362,16.0478821 10.0517665,16.182647 10.0478099,16.3174119 L10.0459635,16.3819159 L2.81997049,13.5440027 C2.81997049,13.5230683 2.82128935,13.5008256 2.82128935,13.4798912 C2.82577344,13.3460422 2.83764312,13.2099689 2.85610705,13.075204 C2.8718014,12.9671304 2.89026533,12.8572251 2.91400468,12.7473197 C2.93687645,12.6482198 2.96184048,12.5504194 2.99072973,12.4526233 L2.98997058,12.4521454 C3.01766649,12.3579408 3.0480001,12.2650446 3.08229026,12.1734568 L3.13431899,12.0383158 L3.13431899,12.0383158 L3.19083183,11.9034037 C3.23171625,11.8118159 3.27391954,11.7215365 3.32139823,11.6338739 L3.32087069,11.6330888 C3.37098708,11.5375759 3.42374118,11.4446797 3.48045184,11.3530919 L3.4799243,11.3533536 C3.54454808,11.2473734 3.61444726,11.1466268 3.688303,11.0471886 C3.76914866,10.9374141 3.85619293,10.8327424 3.94719376,10.7319958 L16.4172083,0.000261679401 L23.6432013,2.83817484 L11.1734506,13.5696473 L11.0398178,13.7236456 Z" id="形状结合" fill="url(#linearGradient-7)" fill-rule="nonzero"></path>
            <path d="M21.727568,26.7628687 L21.7908729,22.6531937 L14.948666,28.3460291 L14.8866799,32.4557042 L21.727568,26.7628687 L21.727568,26.7628687 Z M21.8647287,17.7977323 L21.9280336,13.6671229 L15.0845078,19.4580881 L15.0212028,23.5900059 L21.8647287,17.7977323 L21.8647287,17.7977323 Z M36.6596164,36.7302373 L38.9953042,35.9766006 L38.9372747,39.7788024 L7.2254655,50 L7.28349502,46.1991066 L9.60203777,45.4520119 L10.0464911,16.3820467 C10.0609985,15.3824314 10.4817124,14.3278634 11.17411,13.5703015 L23.6425419,2.83752064 C27.1045298,3.46555121 27.111124,3.50480313 27.1177183,3.54536343 C27.1440954,3.74685658 27.1480519,3.79003368 27.1506896,3.83451918 C27.1546462,3.88031307 27.155965,3.92349018 27.1572839,3.96797567 C27.1599216,4.04909629 27.1599216,4.09489019 27.1599216,4.14199248 L26.6112789,39.96852 L28.730675,39.2855367 L29.1474324,12.006767 L35.9764508,12.8114312 C36.583123,13.1084373 36.949764,13.799271 36.9972427,14.669355 L36.9946049,14.8996329 L36.6596164,36.7302373 Z" id="Fill-29" fill="url(#linearGradient-8)" fill-rule="nonzero"></path>
        </g>
    </g>
</svg>