<?xml version="1.0" encoding="UTF-8"?>
<svg width="50px" height="50px" viewBox="0 0 50 50" version="1.1" xmlns="http://www.w3.org/2000/svg" xmlns:xlink="http://www.w3.org/1999/xlink">
    <title>ICP备案</title>
    <defs>
        <linearGradient x1="52.5519634%" y1="237.621237%" x2="63.3935461%" y2="3.73619394%" id="linearGradient-1">
            <stop stop-color="#003B7C" offset="0%"></stop>
            <stop stop-color="#4EA2FF" offset="100%"></stop>
        </linearGradient>
        <linearGradient x1="47.7194121%" y1="0%" x2="53.0751347%" y2="104.705303%" id="linearGradient-2">
            <stop stop-color="#C3EEFF" offset="0%"></stop>
            <stop stop-color="#25A8FF" offset="100%"></stop>
        </linearGradient>
    </defs>
    <g id="页面-1" stroke="none" stroke-width="1" fill="none" fill-rule="evenodd">
        <g id="ICP备案" transform="translate(0.000000, -0.000000)">
            <path d="M29.0683237,36.3545747 L35.8400968,38.1502013 L22.1462245,41.9272907 L15.3744513,40.1316641 L29.0683237,36.3545747 Z M30.0035409,35.1375257 L36.7753141,36.9331524 C36.7646611,36.9828665 36.7528244,37.0313969 36.739804,37.0799274 L36.7168704,37.1537588 L36.6910368,37.2271759 C36.6720981,37.2792573 36.650792,37.3301551 36.6283023,37.3798692 L36.5843734,37.4679786 L36.5843734,37.4679786 L36.5381067,37.551738 C36.4860253,37.6381459 36.4292091,37.7174518 36.3676583,37.7896556 C36.2885892,37.8816267 36.2009976,37.9609326 36.1086714,38.0236671 L36.1067971,38.0234899 L36.0047156,38.085425 L35.8962027,38.1319728 C35.8784477,38.1390748 35.859509,38.1449932 35.8405703,38.1497279 L29.0687971,36.3541012 C29.0877358,36.3493666 29.1066746,36.3434482 29.1244296,36.3363462 L29.1247971,36.3354899 L29.2329425,36.2897984 L29.2854123,36.260632 L29.2854123,36.260632 L29.3368983,36.2280404 C29.4292245,36.165306 29.516816,36.0860001 29.5961219,35.9936739 C29.657436,35.9218251 29.7142521,35.8425193 29.7651499,35.7561114 C29.7988845,35.7020177 29.8284762,35.6440179 29.8557006,35.5836508 L30.5064513,35.7554899 L29.8565292,35.5842426 L29.889376,35.5087837 L29.889376,35.5087837 L29.9195004,35.4316676 C29.9372554,35.3831372 29.9538268,35.333423 29.9680308,35.2837089 L32.2274513,35.8814899 L29.9680308,35.2831171 C29.9822349,35.2357703 29.9940716,35.1872399 30.0035409,35.1375257 Z M29.4282776,33.6614899 L36.2000507,35.4571165 C36.5338455,35.5458917 36.7788651,35.9045436 36.8131915,36.4123378 L36.8158548,36.47451 L36.8167425,36.5376884 C36.8167425,36.5637291 36.8167425,36.5885862 36.8155588,36.6146269 L36.8100252,36.6981792 L36.8100252,36.6981792 L36.8005262,36.7815243 C36.7946079,36.8324221 36.7863222,36.8833199 36.7756692,36.933034 L30.003896,35.1374074 C30.0145491,35.0876933 30.0228347,35.0367955 30.0299368,34.9858977 L30.0293449,34.986016 C30.0364469,34.9303836 30.0411816,34.8747511 30.043549,34.8191186 C30.0449694,34.7929596 30.0449694,34.7669188 30.0449694,34.7408781 C30.0449694,34.698266 30.0437857,34.6568376 30.0414183,34.6165928 C30.0070919,34.108917 29.7620723,33.7490814 29.4282776,33.6614899 Z" id="形状结合" fill="#FFEAA4" fill-rule="nonzero"></path>
            <path d="M27.1160976,30.1556976 L33.8878707,31.9525079 L24.1107607,34.648907 L17.3389876,32.8532804 L27.1160976,30.1556976 Z M34.8369369,30.6694989 L34.821786,30.7459936 L34.8059279,30.8193233 L34.8059279,30.8193233 L34.7868677,30.8921767 L34.7634902,30.9660081 L34.7634902,30.9660081 L34.7386924,31.0389518 C34.7197536,31.0910332 34.6996313,31.1407473 34.6759579,31.1892778 L30.2919876,30.026323 L34.676313,31.1893962 C34.6490886,31.247396 34.6194968,31.3042121 34.5875378,31.3574772 L34.5864527,31.357323 L34.5079952,31.4791584 L34.4207587,31.5906601 C34.3426365,31.6818027 34.2562287,31.7599249 34.1639024,31.8226593 C34.0939476,31.8697694 34.0217437,31.9076468 33.9459889,31.9336875 L33.9434527,31.933323 L33.9172257,31.9431273 C33.9074605,31.9462344 33.8976952,31.9491936 33.8882258,31.9521528 L27.1164527,30.1553425 C27.1353914,30.1506078 27.1555138,30.1446895 27.1744525,30.1375874 C27.2499706,30.1108365 27.3221744,30.0741428 27.3920109,30.026796 C27.4844555,29.9642982 27.5708634,29.886176 27.6501692,29.7950335 L27.6492223,29.7947968 C27.7095895,29.7237766 27.7652219,29.6456544 27.8161197,29.5616139 L27.8619721,29.479556 L27.8619721,29.479556 L27.9041847,29.3936512 C27.9266744,29.3451207 27.9479805,29.2942229 27.9669192,29.2433251 C27.9843191,29.1947947 28.0008905,29.1462642 28.0150945,29.0965501 C28.0287067,29.0486115 28.0405434,29.0000811 28.0511965,28.9503669 L28.0503679,28.9503669 C28.0610209,28.8994692 28.0693066,28.8473877 28.0764086,28.7964899 L33.6599876,30.276323 L28.0764086,28.7960164 L28.085878,28.7102004 L28.085878,28.7102004 L28.0914412,28.6243844 C28.0926249,28.59716 28.0926249,28.5711192 28.0926249,28.5438948 C28.0926249,28.5012827 28.0914412,28.4598543 28.0890739,28.4196095 C28.0547475,27.9166684 27.8120952,27.5520982 27.4759331,27.463323 L34.2477062,29.2589496 C34.5850521,29.3477248 34.8265206,29.712295 34.860847,30.2153545 L34.8635103,30.2764911 L34.8643981,30.3395215 L34.8642501,30.3797662 L34.8642501,30.3797662 L34.8635695,30.420011 C34.8600185,30.4780108 34.8552838,30.5348269 34.8481818,30.5916431 L34.8369369,30.6694989 Z" id="形状结合" fill="#FFEAA4" fill-rule="nonzero"></path>
            <path d="M40.7902026,1.79521333 C40.7687782,1.7956868 40.7462885,1.79687047 40.7237988,1.80042147 C40.7072274,1.80255208 40.6918397,1.80610309 40.6752683,1.81083777 L33.9034952,0.0152111487 C33.9200665,0.0104764707 33.9366379,0.00692546228 33.9520256,0.00455812329 C33.9745153,0.00124384872 33.9970051,6.01792296e-05 34.0183111,6.01792296e-05 C34.0397355,-0.000413288566 34.0598579,0.00195405042 34.0799803,0.00550505889 L34.0804952,0.005 L34.0949833,0.00790198961 C34.1001618,0.00893770041 34.1051924,0.0101213699 34.1099271,0.0113050394 L40.8817003,1.80693166 C40.8722309,1.80456432 40.8615779,1.80219698 40.8509249,1.80101331 C40.8316311,1.79758067 40.8115087,1.79521333 40.7902026,1.79521333 Z" id="形状结合" fill="#8B8B8B"></path>
            <path d="M21.8465194,19.9450095 L31.9474813,20.7572435 L32.6351933,26.1251846 L28.4840282,25.0240838 L25.3748014,28.127835 L18.6030282,26.3322084 L22.2392609,22.7042614 L25.0590282,23.4520838 L21.8465194,19.9450095 Z M22.2503874,9.96608382 L29.0221605,11.7617104 L30.2140282,14.7700838 L34.8852306,16.0093084 L31.947363,20.7570067 L21.846401,19.9447727 L26.9380282,15.2870838 L24.0554834,14.5232114 L22.2503874,9.96608382 Z" id="形状结合" fill="#FFEAA4" fill-rule="nonzero"></path>
            <path d="M17.3392243,32.8529253 L24.1109975,34.6485519 L24.0673497,34.6597967 L24.0673497,34.6597967 L24.0250631,34.6672539 L23.964548,34.6746518 L23.964548,34.6746518 L23.9069328,34.6763681 C23.8702391,34.6763681 23.834729,34.6728171 23.8004026,34.6668988 L17.0286294,32.8712721 C17.0629559,32.8771905 17.0984659,32.8807415 17.1351597,32.8807415 L17.1376294,32.8809253 L17.1935146,32.8785813 C17.2130451,32.8769537 17.2325757,32.8745864 17.2521062,32.8716272 L20.6376294,33.7689253 L17.2528164,32.871864 C17.2812245,32.8671293 17.3096326,32.8612109 17.3392243,32.8529253 Z" id="形状结合" fill="#7F7F7F"></path>
            <path d="M15.0745095,40.1489456 C15.1088359,40.154864 15.1431623,40.1572313 15.1774887,40.158415 L21.9492619,41.9540416 C21.9149355,41.9540416 21.8794254,41.9504906 21.8462826,41.9445722 L15.0745095,40.1489456 Z M15.2915945,40.1498926 L22.0633676,41.9455192 C22.0243065,41.9514375 21.9864291,41.9538049 21.9497353,41.9538049 L15.1779622,40.1581783 C15.2158396,40.1581783 15.2525334,40.1558109 15.2915945,40.1498926 Z M15.3746881,40.1317824 L22.1464612,41.927409 C22.1180531,41.9356947 22.0908287,41.9416131 22.0636043,41.9451641 L15.2918312,40.1495375 C15.3190556,40.1448028 15.34628,40.1388844 15.3746881,40.1317824 Z" id="形状结合" fill="#7F7F7F"></path>
            <path d="M10.0366938,7.37775375 L16.8084669,9.17456403 L16.7717732,49.3974288 C16.7717732,49.4222859 16.7729568,49.4459593 16.7741405,49.4696327 L11.993,48.2013295 L16.7737854,49.4693959 C16.7939078,49.762946 16.9347644,49.9736391 17.1300699,50.0245369 L10.3582968,48.2289103 C10.164175,48.1768289 10.0221346,47.9673194 10.0031959,47.6737693 L10.0023673,47.6740061 C10.0011837,47.6503327 10,47.6266593 10,47.6018022 L10.0366938,7.37775375 Z M33.9033768,0.0153295157 L40.67515,1.81095613 L17.374616,8.23828147 L11.632,6.71532952 L17.3747344,8.23863657 C17.3640814,8.24100391 17.3534283,8.24455492 17.3427753,8.24810592 L17.3415136,8.24800995 L17.2797153,8.27538951 C17.2588532,8.28604253 17.2381389,8.29817514 17.2174247,8.31178734 L17.2176615,8.31131387 C17.1608453,8.3491913 17.1075802,8.39772175 17.0590497,8.45453788 L17.0575136,8.45400995 L17.0137152,8.51164994 L16.9924461,8.54249932 L16.9728786,8.5747987 L16.9471338,8.62170161 L16.9235196,8.66890043 C16.9081319,8.7008595 16.8951115,8.73400225 16.8832748,8.76596133 C16.8727402,8.7957898 16.8620871,8.8265652 16.8538015,8.85615694 L11.278,7.37732952 L16.8538015,8.85639368 C16.8455158,8.88480174 16.8384137,8.91439348 16.8324954,8.94398522 C16.8257485,8.97381369 16.8210138,9.00340543 16.8174628,9.03299716 L16.8120771,9.08105414 L16.8082302,9.12911113 L16.8082302,9.17409057 L10.036457,7.37728028 L10.036605,7.35582627 L10.0370489,7.33336614 C10.0382325,7.30140707 10.0417835,7.26944799 10.0453345,7.23748891 C10.0492407,7.20777881 10.055159,7.17818707 10.0610773,7.14741166 L14.171,8.23732952 L10.0607222,7.14717493 C10.0666406,7.11876686 10.0737426,7.08917513 10.0820283,7.06076706 C10.090314,7.02975492 10.0997833,7.00016318 10.11162,6.97057144 L10.1302924,6.92180426 L10.1513913,6.87386565 C10.166779,6.84190657 10.1833504,6.80994749 10.2011054,6.77917209 L10.2005136,6.77905372 L10.24209,6.71602332 L10.288,6.65732952 L10.2872766,6.6577276 C10.335807,6.60209513 10.3902558,6.55356468 10.4458883,6.51568726 L10.4465136,6.51500995 L10.5074983,6.47976289 C10.5285084,6.46910986 10.5498145,6.45993642 10.5711205,6.45224257 C10.5816552,6.4489283 10.5923082,6.44537729 10.6029612,6.44300995 L33.9033768,0.0153295157 Z" id="形状结合" fill="url(#linearGradient-1)" fill-rule="nonzero"></path>
            <path d="M24.1131281,31.9619772 C23.5698238,32.1111196 23.1294987,32.8378927 23.1283151,33.5765024 C23.1283151,34.3257652 23.5674564,34.7980493 24.1107607,34.648907 L33.8878707,31.9525079 C34.431175,31.8021819 34.8644005,31.0884291 34.8644005,30.3391664 C34.8655817,29.6005566 34.4335424,29.1152521 33.8902381,29.2643945 L24.1131281,31.9619772 L24.1131281,31.9619772 Z M35.8409254,38.1502013 C36.375944,38.0022426 36.816269,37.2754696 36.8174527,36.5368598 C36.8174527,35.7887807 36.3783113,35.3153129 35.8432927,35.4632716 L22.1482367,39.2297079 C21.6120344,39.3776666 21.1728931,40.1044397 21.1717094,40.8418658 C21.1717094,41.5911285 21.6096671,42.0752494 22.1458694,41.9272907 L35.8409254,38.1502013 L35.8409254,38.1502013 Z M27.2013218,17.318802 L23.1496211,19.2469996 L26.0803868,22.375438 L25.3749197,28.1280718 L29.0111524,24.5001248 L32.6355484,26.125303 L31.9478364,20.7573618 L34.8857041,16.0096635 L30.8269014,16.3186012 L29.0218054,11.7614737 L27.2013218,17.318802 L27.2013218,17.318802 Z M40.6750316,1.8103643 C40.9875203,1.72514009 41.2408256,2.00330243 41.2408256,2.43415812 L41.2041318,42.6587984 C41.2029482,43.0884704 40.9496429,43.5074894 40.6371542,43.5938973 L17.3366202,50.0212227 C17.0241315,50.1076305 16.7708262,49.8282845 16.7720058,49.3974288 L16.8087036,9.1739722 C16.8087036,8.96919738 16.8678871,8.75732054 16.97205,8.57503544 C17.0773966,8.40221969 17.2253553,8.27911806 17.3744977,8.2388733 L40.6750316,1.8103643 Z" id="Fill-101" fill="url(#linearGradient-2)" fill-rule="nonzero"></path>
        </g>
    </g>
</svg>