<?xml version="1.0" encoding="UTF-8"?>
<svg width="50px" height="50px" viewBox="0 0 50 50" version="1.1" xmlns="http://www.w3.org/2000/svg" xmlns:xlink="http://www.w3.org/1999/xlink">
    <title>ICP备案-灰</title>
    <defs>
        <linearGradient x1="50%" y1="100%" x2="74.388779%" y2="10.3533133%" id="linearGradient-1">
            <stop stop-color="#5F5F5F" offset="0%"></stop>
            <stop stop-color="#B8B8B8" offset="100%"></stop>
        </linearGradient>
        <linearGradient x1="60.4602911%" y1="0%" x2="44.3534227%" y2="95.0951313%" id="linearGradient-2">
            <stop stop-color="#E7E7E7" offset="0%"></stop>
            <stop stop-color="#AFAFAF" offset="100%"></stop>
        </linearGradient>
    </defs>
    <g id="页面-1" stroke="none" stroke-width="1" fill="none" fill-rule="evenodd">
        <g id="编组-61" transform="translate(9.000000, 0.000000)">
            <path d="M18.7804784,36.3270979 L25.4500285,38.1213703 L11.9628716,41.8956112 L5.29332147,40.1013387 L18.7804784,36.3270979 Z M26.4105323,36.5870722 C26.4082007,36.6426627 26.4035375,36.6982532 26.3965427,36.7538437 C26.3901308,36.8045849 26.3819702,36.8554443 26.371478,36.9051209 C26.360636,36.9549158 26.348978,37.0034096 26.3361542,37.0519035 C26.3221646,37.1009887 26.3058433,37.1506654 26.2883563,37.1991592 C26.2694703,37.2510831 26.2484859,37.3019425 26.2263357,37.3516191 C26.1987062,37.4113494 26.1683954,37.4693054 26.1369187,37.5237132 L26.1375016,37.5233583 C26.0862064,37.609701 26.0302479,37.6889471 25.9696262,37.7610965 L25.9679447,37.761044 L25.88916,37.84853 C25.8337197,37.9039891 25.7751705,37.95314 25.7145489,37.9949315 L23.3233215,37.351044 L25.7143157,37.9946949 L25.6121623,38.0566428 L25.5052875,38.1031555 C25.4878005,38.1102522 25.4691476,38.1161661 25.4504948,38.1208972 L18.7809447,36.3266247 C18.7995976,36.3218936 18.8182504,36.3159798 18.8357374,36.3088831 L18.8369447,36.309044 L18.9426123,36.2623704 C18.9774406,36.2441852 19.0115403,36.2234866 19.0447656,36.2004225 C19.1359313,36.1379718 19.2222006,36.0587258 19.3003093,35.9664692 C19.3606978,35.8946746 19.4166563,35.8154286 19.4667857,35.7290859 L20.6743215,36.054044 L19.4673686,35.7294407 C19.5000111,35.675033 19.5291561,35.6170769 19.5559695,35.5567553 C19.5789358,35.5076701 19.5999203,35.4568107 19.6197389,35.4047685 L19.6188062,35.4048868 C19.6362933,35.3563929 19.6526145,35.3067163 19.6666041,35.2570397 C19.6805937,35.2091372 19.6922517,35.1606433 19.7015781,35.1109667 C19.7124201,35.0611718 19.7205807,35.0103124 19.7275755,34.959453 C19.7339874,34.9039808 19.7386506,34.8483903 19.7409822,34.7927998 L19.7423812,34.7146182 L19.7423812,34.7146182 C19.7423812,34.6720382 19.7412154,34.6306411 19.7388838,34.5904266 C19.7050755,34.0831337 19.4637547,33.7235695 19.1349986,33.636044 L25.8045487,35.4303165 C26.1333047,35.5190247 26.3746256,35.8774061 26.4084339,36.3848174 L26.4110569,36.4469427 L26.4119313,36.5100734 C26.4119313,36.5360945 26.4119313,36.5609328 26.4107655,36.5869539 L21.1973215,35.184044 L26.4105323,36.5870722 Z" id="形状结合" fill="#949494"></path>
            <path d="M16.8577221,30.1328956 L23.5272722,31.9283508 L13.8977522,34.6227164 L7.22820214,32.828444 L16.8577221,30.1328956 Z M17.8035368,28.774713 L24.4730869,30.5689854 L24.4620118,30.6463095 L24.4470895,30.7227464 L24.4313512,30.7965221 L24.4126984,30.8688193 C24.397543,30.918496 24.3823875,30.9669898 24.3649005,31.0154837 L24.3652503,31.0154837 L24.3361052,31.0919206 L24.3038125,31.1658146 C24.2769991,31.2237707 24.2478541,31.280544 24.2163774,31.3337689 L24.2150718,31.3335514 L24.1380356,31.4553584 C24.1106392,31.4940943 24.0820771,31.5310561 24.0523491,31.5665394 L19.4092021,30.3165514 L24.052116,31.566776 C23.9751731,31.6578498 23.8900696,31.735913 23.7991371,31.7986002 L23.7970718,31.7985514 L23.7294178,31.842433 C23.7059291,31.8560131 23.6821381,31.8684541 23.6580017,31.8796686 L23.5847462,31.9090716 C23.5660934,31.9161682 23.5462747,31.9220821 23.5276219,31.927996 L16.8580718,30.1325408 L16.886634,30.124557 L16.886634,30.124557 L16.9149629,30.1152722 C16.9895742,30.0880684 17.0606881,30.0514023 17.1294704,30.0040912 C17.2205195,29.9416406 17.305623,29.8635773 17.3837317,29.7725035 L17.3827991,29.7722669 L17.4684855,29.6606424 L17.4684855,29.6606424 L17.5468273,29.5394965 C17.578304,29.4862715 17.607449,29.4294982 17.6342624,29.3715422 L17.6339127,29.3714239 C17.6560629,29.32293 17.6770474,29.2720706 17.6957002,29.2212112 C17.7127193,29.173045 17.7289381,29.1248788 17.7428644,29.0755537 L17.7425654,29.0751383 C17.756555,29.0266444 17.768213,28.9781506 17.7787052,28.928474 L17.7778892,28.928474 C17.7883814,28.8776146 17.796542,28.8255724 17.8035368,28.774713 Z M17.2121257,27.4425514 L23.8816758,29.2368239 C24.2139292,29.3255321 24.4517527,29.6898274 24.485561,30.1925076 L24.488184,30.253598 L24.4890584,30.3165808 C24.4890584,30.3437847 24.4890584,30.3698058 24.4878926,30.3970097 L24.4882423,30.3970097 C24.4847449,30.4549657 24.4800817,30.511739 24.4730869,30.5685123 L17.8035368,28.7742399 C17.8105316,28.7174666 17.8163606,28.6595105 17.8186922,28.6027372 C17.8195083,28.5755334 17.8195083,28.5495123 17.8195083,28.5223084 C17.8195083,28.4797284 17.8183425,28.4383312 17.8160109,28.3981168 C17.7822026,27.895555 17.5432133,27.5312597 17.2121257,27.4425514 Z" id="形状结合" fill="#949494"></path>
            <path d="M23.6557435,0 L30.3252936,1.79427245 C30.3043092,1.79427245 30.2821589,1.79545523 30.2600087,1.79900356 L30.2576608,1.798 L30.2361098,1.80320241 C30.2282406,1.80497658 30.2203714,1.80704644 30.2122108,1.80941199 L23.5426608,0.0151395434 C23.558982,0.0104084361 23.5753032,0.00686010561 23.5904586,0.00449455195 C23.6126088,0.00118277683 23.6347591,0 23.6557435,0 Z" id="形状结合" fill="#8B8B8B"></path>
            <path d="M12.0654621,9.95850779 L18.7350122,11.7527802 L19.9081615,14.7595078 L24.5095765,15.9971749 L21.6160573,20.7412927 L21.6121615,20.7395078 L21.6161739,20.7415293 L22.2935045,26.1054222 L18.2051615,25.0045078 L15.1427116,28.1065623 L8.4731615,26.3122899 L12.0545035,22.6870789 L15.2021615,23.5335078 L11.0030672,15.7886003 L15.5711615,17.9205078 L17.1141615,15.3915078 L13.8433093,14.5121986 L12.0654621,9.95850779 Z" id="形状结合" fill="#949494"></path>
            <path d="M7.2284353,32.8280892 L13.8979854,34.6223616 C13.8688403,34.6306411 13.8408611,34.6377377 13.8128819,34.641286 L13.8108321,34.6400892 L13.7537466,34.6484418 L13.7537466,34.6484418 L13.6970012,34.6501569 L13.696768,34.6505117 C13.6608614,34.6501569 13.6258873,34.6466085 13.5920791,34.6406947 C13.5735428,34.6373829 13.5560558,34.6338345 13.5385688,34.6291034 L6.89583214,32.8411884 L6.89583214,32.8411884 L6.922529,32.8464222 C6.95633724,32.8523361 6.99131128,32.8558844 7.02745113,32.8558844 L7.02983214,32.8560892 L7.08492514,32.8537259 C7.10416086,32.8520995 7.12339659,32.849734 7.14263231,32.846777 L8.55683214,33.2260892 L7.14333179,32.8470136 C7.17131103,32.8422825 7.19929026,32.8363686 7.2284353,32.8280892 Z" id="形状结合" fill="#7F7F7F"></path>
            <path d="M4.9455629,40.107016 L4.99790739,40.1186073 C5.03171563,40.1245211 5.06552387,40.1268867 5.09933211,40.1280695 L11.7688822,41.9223419 C11.735074,41.9223419 11.7000999,41.9187936 11.6674575,41.9128797 L11.6645629,41.911457 L11.6413435,41.9076459 C11.6326,41.9057239 11.6238565,41.903654 11.615113,41.9012885 L4.9455629,40.107016 Z M5.21171537,40.1195535 L11.8812655,41.9138259 C11.842794,41.9197398 11.8054884,41.9221054 11.7693485,41.9221054 L5.09979843,40.1278329 C5.13710408,40.1278329 5.17324392,40.1254674 5.21171537,40.1195535 Z M5.29355463,40.101457 L11.9631047,41.8957294 C11.9351255,41.9040089 11.908312,41.9099228 11.8814986,41.9134711 L5.21194853,40.1191986 C5.23876197,40.1144675 5.2655754,40.1085537 5.29355463,40.101457 Z" id="形状结合" fill="#7F7F7F"></path>
            <path d="M23.5425442,0.0152578211 L30.2120943,1.80953027 L7.26329276,8.23200845 L3.05,7.09825782 L7.26340934,8.23236328 L7.24767102,8.23665085 L7.23204928,8.24158894 C7.19008043,8.25696504 7.14927738,8.27825503 7.10847433,8.30545889 C7.05274902,8.34283464 7.00028795,8.39132849 6.95249009,8.44810178 L6.95148677,8.44809083 L6.9078399,8.50517076 C6.89355883,8.52527797 6.87986066,8.54627225 6.86703685,8.56815363 L2.256,7.32725782 L6.86761975,8.5682719 C6.85013273,8.5990241 6.83381151,8.63095908 6.81865609,8.66289405 L6.81900583,8.66230266 L6.79787568,8.71079651 L6.77948516,8.75952692 C6.76899295,8.78909634 6.75850073,8.81984854 6.75034012,8.84941796 L6.73897356,8.89297371 L6.72970544,8.93741655 C6.72271063,8.96698597 6.71804742,8.99655539 6.71455002,9.02612481 C6.71070287,9.05817807 6.70720547,9.09011304 6.70603967,9.12204801 L6.527,9.07325782 L6.70545677,9.12216629 L6.70545677,9.16711181 L1.45,7.75225782 L6.70568993,9.16758492 L6.66955008,49.3607071 L6.67188169,49.4322651 C6.69135057,49.7253572 6.83008094,49.9358915 7.02243818,49.9867509 L0.352888098,48.1924784 C0.161696661,48.1404363 0.0218004871,47.9310848 0.00314766391,47.6377561 L0.0023316029,47.6379927 C0.00116580145,47.6143371 0,47.5906816 0,47.5658433 L0.0361398449,7.3721297 L0.0359066846,7.37165659 L0.037072486,7.32789384 L0.0364895853,7.32777557 C0.0376553868,7.29584059 0.0411527911,7.26390562 0.0446501955,7.23197064 C0.0484973402,7.20228294 0.0543263475,7.17271352 0.0601553547,7.14196133 L0.0598056143,7.14172477 C0.0656346215,7.11333813 0.0726294302,7.08376871 0.0807900403,7.05538206 L0.0940510318,7.00978602 L0.109818496,6.96501791 C0.121476511,6.93308294 0.134300327,6.89996519 0.149455746,6.86803021 C0.164261424,6.83668663 0.180582644,6.80475165 0.198069666,6.77399945 L0.197486765,6.77388118 L0.238435541,6.71089831 L0.283,6.65225782 L0.282940011,6.65264655 C0.330737871,6.59705604 0.384364737,6.54856219 0.439157405,6.51071333 L0.439486765,6.51009083 L0.499837371,6.47481606 L0.531058991,6.45995742 L0.562382618,6.44755305 C0.572874831,6.44400472 0.583367044,6.44045639 0.593859257,6.43809083 L23.5425442,0.0152578211 Z" id="形状结合" fill="url(#linearGradient-1)" fill-rule="nonzero"></path>
            <path d="M13.9000838,31.937813 C13.364981,32.0868429 12.9313028,32.8130679 12.930137,33.5511206 C12.930137,34.2998184 13.3626494,34.7717463 13.8977522,34.6227164 L23.5272722,31.9283508 C24.062375,31.7781382 24.4890608,31.0649237 24.4890608,30.316226 C24.4902242,29.5781733 24.0647066,29.0932348 23.5296038,29.2422647 L13.9000838,31.937813 L13.9000838,31.937813 Z M25.4508446,38.1213703 C25.9777868,37.9735232 26.411465,37.2472982 26.4126308,36.5092455 C26.4126308,35.7617305 25.9801184,35.2886198 25.4531762,35.4364669 L11.9648534,39.2000628 C11.4367454,39.3479099 11.004233,40.0741348 11.0030672,40.8110048 C11.0030672,41.5597025 11.4344138,42.0434583 11.9625218,41.8956112 L25.4508446,38.1213703 L25.4508446,38.1213703 Z M16.9416598,17.3056809 L12.9511214,19.2324243 L15.8376458,22.3585035 L15.1428282,28.1067989 L18.7241702,24.4815879 L22.2938542,26.1055405 L21.6165236,20.7416476 L24.5100428,15.9975297 L20.5125096,16.3062345 L18.7346624,11.7525437 L16.9416598,17.3056809 L16.9416598,17.3056809 Z M30.2119777,1.80893888 C30.5197493,1.72377895 30.7692308,2.00173151 30.7692308,2.43226227 L30.7330909,42.6265672 C30.7319251,43.0559152 30.4824436,43.4746182 30.174672,43.5609609 L7.22587053,49.9834391 C6.91809895,50.0697818 6.66861744,49.7906465 6.66977917,49.3601157 L6.70592309,9.16699353 C6.70592309,8.96237314 6.76421316,8.75065609 6.86680369,8.56850846 C6.97056002,8.39582304 7.1162852,8.27281425 7.26317618,8.23259984 L30.2119777,1.80893888 Z" id="Fill-101" fill="url(#linearGradient-2)" fill-rule="nonzero"></path>
        </g>
    </g>
</svg>