<?xml version="1.0" encoding="UTF-8"?>
<svg width="51px" height="50px" viewBox="0 0 51 50" version="1.1" xmlns="http://www.w3.org/2000/svg" xmlns:xlink="http://www.w3.org/1999/xlink">
    <title>安全技术监测</title>
    <defs>
        <linearGradient x1="-208.481085%" y1="98.0653957%" x2="85.2096315%" y2="46.4742712%" id="linearGradient-1">
            <stop stop-color="#003B7C" offset="0%"></stop>
            <stop stop-color="#4EA2FF" offset="100%"></stop>
        </linearGradient>
        <linearGradient x1="-268.903846%" y1="142.488889%" x2="85.2096315%" y2="46.4742712%" id="linearGradient-2">
            <stop stop-color="#003B7C" offset="0%"></stop>
            <stop stop-color="#4EA2FF" offset="100%"></stop>
        </linearGradient>
        <linearGradient x1="37.1307918%" y1="92.6865582%" x2="80.2769995%" y2="-464.976065%" id="linearGradient-3">
            <stop stop-color="#003B7C" offset="0%"></stop>
            <stop stop-color="#4EA2FF" offset="100%"></stop>
        </linearGradient>
        <linearGradient x1="-150.342137%" y1="123.914934%" x2="85.2096315%" y2="46.6853176%" id="linearGradient-4">
            <stop stop-color="#003B7C" offset="0%"></stop>
            <stop stop-color="#4EA2FF" offset="100%"></stop>
        </linearGradient>
        <linearGradient x1="42.2740649%" y1="153.141376%" x2="51.6385728%" y2="-28.6621383%" id="linearGradient-5">
            <stop stop-color="#003B7C" offset="0%"></stop>
            <stop stop-color="#4EA2FF" offset="100%"></stop>
        </linearGradient>
        <linearGradient x1="37.1307918%" y1="92.6865582%" x2="193.138054%" y2="-491.681785%" id="linearGradient-6">
            <stop stop-color="#003B7C" offset="0%"></stop>
            <stop stop-color="#4EA2FF" offset="100%"></stop>
        </linearGradient>
        <linearGradient x1="-59.8403902%" y1="103.577272%" x2="94.9474294%" y2="48.0297629%" id="linearGradient-7">
            <stop stop-color="#003B7C" offset="0%"></stop>
            <stop stop-color="#4EA2FF" offset="100%"></stop>
        </linearGradient>
        <linearGradient x1="-17.0074405%" y1="605.304949%" x2="85.2096315%" y2="12.0334888%" id="linearGradient-8">
            <stop stop-color="#003B7C" offset="0%"></stop>
            <stop stop-color="#4EA2FF" offset="100%"></stop>
        </linearGradient>
        <linearGradient x1="31.3639344%" y1="56.2297008%" x2="100%" y2="16.2192282%" id="linearGradient-9">
            <stop stop-color="#003B7C" offset="0%"></stop>
            <stop stop-color="#4EA2FF" offset="100%"></stop>
        </linearGradient>
        <linearGradient x1="-71.0805079%" y1="104.566529%" x2="108.68278%" y2="41.0384669%" id="linearGradient-10">
            <stop stop-color="#003B7C" offset="0%"></stop>
            <stop stop-color="#4EA2FF" offset="100%"></stop>
        </linearGradient>
        <linearGradient x1="41.7202277%" y1="106.015989%" x2="199.472886%" y2="-349.107846%" id="linearGradient-11">
            <stop stop-color="#003B7C" offset="0%"></stop>
            <stop stop-color="#4EA2FF" offset="100%"></stop>
        </linearGradient>
        <linearGradient x1="8.3007185%" y1="97.7979559%" x2="95.9020603%" y2="31.118161%" id="linearGradient-12">
            <stop stop-color="#003B7C" offset="0%"></stop>
            <stop stop-color="#4EA2FF" offset="100%"></stop>
        </linearGradient>
        <linearGradient x1="56.879811%" y1="112.939612%" x2="83.7620335%" y2="-83.9518773%" id="linearGradient-13">
            <stop stop-color="#003B7C" offset="0%"></stop>
            <stop stop-color="#4EA2FF" offset="100%"></stop>
        </linearGradient>
        <linearGradient x1="72.7914788%" y1="234.869055%" x2="155.702679%" y2="-186.930265%" id="linearGradient-14">
            <stop stop-color="#003B7C" offset="0%"></stop>
            <stop stop-color="#4EA2FF" offset="100%"></stop>
        </linearGradient>
        <linearGradient x1="56.0043688%" y1="0%" x2="33.6156435%" y2="100%" id="linearGradient-15">
            <stop stop-color="#C3EEFF" offset="0%"></stop>
            <stop stop-color="#25A8FF" offset="100%"></stop>
        </linearGradient>
        <linearGradient x1="-13.7091096%" y1="158.448233%" x2="216.477694%" y2="40.571532%" id="linearGradient-16">
            <stop stop-color="#003B7C" offset="0%"></stop>
            <stop stop-color="#4EA2FF" offset="100%"></stop>
        </linearGradient>
        <linearGradient x1="68.268785%" y1="553.848062%" x2="85.2096315%" y2="12.0485414%" id="linearGradient-17">
            <stop stop-color="#003B7C" offset="0%"></stop>
            <stop stop-color="#4EA2FF" offset="100%"></stop>
        </linearGradient>
        <linearGradient x1="24.9705178%" y1="64.9713%" x2="282.112912%" y2="-22.2888603%" id="linearGradient-18">
            <stop stop-color="#003B7C" offset="0%"></stop>
            <stop stop-color="#4EA2FF" offset="100%"></stop>
        </linearGradient>
        <linearGradient x1="80.4819687%" y1="224.823261%" x2="169.541058%" y2="-352.833844%" id="linearGradient-19">
            <stop stop-color="#003B7C" offset="0%"></stop>
            <stop stop-color="#4EA2FF" offset="100%"></stop>
        </linearGradient>
        <linearGradient x1="50%" y1="277.594628%" x2="148.748115%" y2="-27.7591238%" id="linearGradient-20">
            <stop stop-color="#003B7C" offset="0%"></stop>
            <stop stop-color="#4EA2FF" offset="100%"></stop>
        </linearGradient>
        <linearGradient x1="-16.2544563%" y1="74.8779997%" x2="289.191253%" y2="7.74613487%" id="linearGradient-21">
            <stop stop-color="#003B7C" offset="0%"></stop>
            <stop stop-color="#4EA2FF" offset="100%"></stop>
        </linearGradient>
        <linearGradient x1="100%" y1="379.849601%" x2="145.124944%" y2="-217.283764%" id="linearGradient-22">
            <stop stop-color="#003B7C" offset="0%"></stop>
            <stop stop-color="#4EA2FF" offset="100%"></stop>
        </linearGradient>
    </defs>
    <g id="页面-1" stroke="none" stroke-width="1" fill="none" fill-rule="evenodd">
        <g id="安全技术监测" transform="translate(0.000000, -0.000000)" fill-rule="nonzero">
            <g id="编组-58" transform="translate(5.000000, 0.000000)">
                <polygon id="Fill-1" fill="url(#linearGradient-1)" points="36.7213366 26.8368721 29.4250733 24.922439 32.6912384 24.0320636 39.9875016 25.9464968"></polygon>
                <polygon id="Fill-3" fill="url(#linearGradient-2)" points="36.733835 13.48389 29.4375717 11.5694568 32.7024614 10.6790815 40 12.5922535"></polygon>
                <polygon id="Fill-5" fill="url(#linearGradient-3)" points="26.901033 47.3233248 19.6047698 45.4088916 19.6085958 40.950709 26.9048591 42.8651422"></polygon>
                <path d="M27.8094631,3.11164752 L35.1057263,5.02355837 L30.2032904,6.36164374 L22.9070272,4.44721058 L27.8094631,3.11164752 Z M35.1054712,5.02406284 L27.809208,3.11089083 C27.8563959,3.09827928 27.9048591,3.08819004 27.9507716,3.08062311 L35.1940272,4.97924595 L27.9511542,3.08011865 C28.0174723,3.07002941 28.0812396,3.06624595 28.145007,3.06624595 L28.2337074,3.06977718 L28.3203673,3.0813798 C28.3509756,3.08642442 28.3803086,3.0927302 28.4096416,3.10029713 L35.7059049,5.01473029 C35.6765719,5.00716336 35.6459635,5.00085759 35.6166305,4.99455181 C35.5596225,4.98484092 35.5009565,4.9797963 35.4410152,4.9797963 C35.3775029,4.9781568 35.3124601,4.98320142 35.2474174,4.99329066 C35.2011223,5.00010089 35.1539344,5.01145129 35.1054712,5.02406284 Z" id="形状结合" fill="url(#linearGradient-4)"></path>
                <polygon id="Fill-15" fill="url(#linearGradient-5)" points="33.44025 36.6355414 26.1439867 34.7223694 26.1682183 8.00480248 33.4644816 9.91797448"></polygon>
                <polygon id="Fill-19" fill="url(#linearGradient-6)" points="17.0886367 49.9994955 9.79237342 48.0850624 9.79619946 43.6268798 17.0924627 45.5413129"></polygon>
                <polygon id="Fill-21" fill="url(#linearGradient-7)" points="26.9414615 2.80480853 19.6451983 0.89037537 22.9113633 5.45785639e-13 30.2076266 1.91443316"></polygon>
                <polygon id="Fill-23" fill="url(#linearGradient-8)" points="26.937763 7.25201911 19.6414998 5.3388471 19.6453259 0.890753717 26.9415891 2.80518688"></polygon>
                <polygon id="Fill-25" fill="url(#linearGradient-9)" points="13.831144 41.9843516 6.53488076 40.0711796 26.1433491 34.7226216 33.4396123 36.6357936"></polygon>
                <polygon id="Fill-27" fill="url(#linearGradient-10)" points="20.3984186 9.03541827 13.1021553 7.12224627 19.6408621 5.33897322 26.9371254 7.25214522"></polygon>
                <path d="M10.5705905,45.3009368 C10.6275985,46.1393526 11.0369851,46.7409235 11.5968626,46.8884786 L4.30059941,44.9740454 C3.74072185,44.8277515 3.33133529,44.2274417 3.27394465,43.3875125 L9.78067517,45.0931201 L3.27432725,43.3865036 C3.26922586,43.3196624 3.26667517,43.2502989 3.26667517,43.1796742 L3.27381712,36.5031201 L10.5700803,38.4162921 L10.5637036,45.0941074 C10.5642137,45.1647321 10.5654891,45.2328344 10.5705905,45.3009368 Z" id="形状结合" fill="url(#linearGradient-11)"></path>
                <polygon id="Fill-33" fill="url(#linearGradient-12)" points="17.1166943 18.8352225 9.82043107 16.9207894 22.89912 13.3529821 30.1941079 15.2674153"></polygon>
                <polygon id="Fill-35" fill="url(#linearGradient-13)" points="17.1004974 36.6355414 9.80423415 34.7211082 9.82081367 16.9211677 17.1170769 18.8356009"></polygon>
                <polygon id="Fill-39" fill="url(#linearGradient-14)" points="10.5736513 33.9690815 3.27738809 32.0559095 3.28631552 23.1508947 10.5813034 25.0628055"></polygon>
                <path d="M33.44025,36.6355414 L33.4644816,9.91797448 L13.8560133,15.2677936 L13.8317817,41.9840994 L33.44025,36.6355414 L33.44025,36.6355414 Z M39.9955363,17.0409774 L36.7306466,17.9313528 L36.7217192,26.8363677 L39.9866089,25.9459923 L39.9827828,30.3940857 L36.7178931,31.2844611 L36.7115164,37.9610152 C36.710241,39.1956858 35.9794669,40.3899995 35.0726948,40.6371859 L30.1702589,41.9740101 L30.1664329,46.4334539 L26.9015432,47.3238293 L26.9053692,42.8643855 L20.3666624,44.6489197 L20.361561,49.1071023 L17.0890193,50 L17.0928453,45.5418174 L12.1904094,46.8786416 C11.2912894,47.1233056 10.5630659,46.328778 10.5643413,45.0941074 L10.5694427,38.4162921 L7.29562556,39.3091898 L7.2994516,34.8623576 L10.5732687,33.9694599 L10.5821961,25.0631839 L7.30837903,25.9560815 L7.31220508,21.5092493 L10.5860222,20.6163516 L10.5911236,13.9397975 C10.5923989,12.7038657 11.3244484,11.5108131 12.2222931,11.2661491 L17.124729,9.92806372 L17.128555,5.48123149 L20.4023721,4.58833381 L20.3985461,9.03516604 L26.9372529,7.25189299 L26.9410789,2.80506076 L30.207244,1.91468539 L30.2034179,6.36151762 L35.1058538,5.02469341 C36.0126259,4.77624589 36.7408494,5.57203465 36.739574,6.80796646 L36.7344726,13.4845206 L39.9993623,12.5928841 L39.9955363,17.0409774 Z" id="形状结合" fill="url(#linearGradient-15)"></path>
                <polygon id="Fill-43" fill="#FFEAA4" points="30.194618 15.2672892 30.1780385 33.0672296 17.1006249 36.6350369 17.1172044 18.8350964"></polygon>
                <polygon id="Fill-45" fill="url(#linearGradient-16)" points="17.1290652 5.48097926 9.83280194 3.56780726 13.1066191 2.67490958 20.4028823 4.58808158"></polygon>
                <polygon id="Fill-47" fill="url(#linearGradient-17)" points="17.124729 9.92831595 9.82846576 8.01514395 9.83356715 3.56831172 17.128555 5.48148372"></polygon>
                <polygon id="Fill-49" fill="url(#linearGradient-18)" points="7.29996174 34.8619792 0.00369850784 32.9488072 3.27751562 32.0559095 10.5737789 33.9690815"></polygon>
                <polygon id="Fill-51" fill="url(#linearGradient-19)" points="7.29626323 39.3093159 -7.62057084e-13 37.3961439 0.0038260426 32.9493117 7.30008927 34.8624837"></polygon>
                <path d="M9.82884836,8.01577453 L17.1251116,9.92768538 L12.2226757,11.2657707 L4.92641245,9.35259874 L9.82884836,8.01577453 Z M10.5925583,13.8740913 L10.5912511,13.9395453 L10.5861497,20.6160994 L3.28988649,18.7016662 L3.29626323,12.0251121 L3.29549802,12.0252382 C3.29549802,11.982359 3.29677337,11.9382185 3.29932407,11.8953393 L9.03088649,13.3977745 L3.29855886,11.8947087 C3.3023849,11.8001221 3.31131233,11.7067966 3.32279046,11.6134712 L10.6190537,13.525382 C10.6075756,13.6199686 10.5986481,13.7145552 10.5948221,13.8078807 L10.5925583,13.8740913 L10.5925583,13.8740913 Z M3.76380564,10.3354168 C3.84797857,10.1954286 3.94235429,10.0655296 4.04565744,9.94698105 L7.08488649,10.7427745 L4.04463716,9.94622435 C4.17599796,9.79488576 4.32138758,9.66498681 4.47570463,9.56283326 L7.42549802,10.3352293 L4.47557709,9.56207657 C4.59035837,9.48640727 4.70896569,9.42587184 4.8326744,9.38299257 L4.83178166,9.38223588 C4.86366535,9.37214664 4.89554904,9.3620574 4.92743273,9.35322931 L12.2224206,11.2664013 C12.1905369,11.2739682 12.1586532,11.2840575 12.1280449,11.2954079 L12.126498,11.2952293 L12.0062209,11.3444621 C11.9260157,11.3810823 11.8475109,11.4248024 11.7718403,11.4752486 L11.770498,11.4752293 L11.621099,11.5868468 C11.52285,11.6672804 11.4293245,11.7589244 11.3409004,11.8606575 L11.339498,11.8602293 L11.2412627,11.9822048 C11.176834,12.0665621 11.1161842,12.1565245 11.0600689,12.2498499 L11.0588865,12.2497745 L11.0598138,12.2494716 L8.63288649,11.6127745 L11.0588865,12.2497745 L10.9816988,12.3883563 C10.9565106,12.4354919 10.932279,12.4834158 10.9093228,12.5319703 C10.8710624,12.6128103 10.8353526,12.6985688 10.8034689,12.7843274 L4.89788649,11.2347745 L10.8034689,12.7848318 C10.774136,12.8630234 10.7473537,12.9449985 10.7231221,13.0282347 L8.83188649,12.5317745 L10.7226119,13.0287392 C10.6996557,13.108192 10.6792501,13.190167 10.6626706,13.2721421 C10.6445606,13.3555044 10.6305318,13.441263 10.6190537,13.5257604 L3.32279046,11.6125883 C3.33426859,11.5268298 3.34829741,11.4423324 3.36615228,11.3578351 L9.73188649,13.0277745 L3.36640735,11.3577089 L3.39414615,11.2355346 L3.39414615,11.2355346 L3.42688649,11.1137745 L3.42685882,11.1138016 C3.45109042,11.0318265 3.47787272,10.9511126 3.50720571,10.8703987 C3.5390894,10.7841357 3.57479913,10.7008995 3.61305956,10.6189244 C3.65897207,10.5204282 3.70871062,10.4271027 3.76355057,10.3362996 L7.19188649,11.2347745 L3.76380564,10.3354168 Z" id="形状结合" fill="url(#linearGradient-20)"></path>
                <polygon id="Fill-79" fill="url(#linearGradient-21)" points="7.31246015 21.5089971 0.0161969137 19.5945639 3.29001403 18.7016662 10.5862773 20.6160994"></polygon>
                <polygon id="Fill-81" fill="url(#linearGradient-22)" points="7.30812396 25.9563338 0.011860732 24.0431618 0.0169621222 19.5950684 7.31195001 21.5095015"></polygon>
            </g>
        </g>
    </g>
</svg>