<?xml version="1.0" encoding="UTF-8"?>
<svg width="50px" height="50px" viewBox="0 0 50 50" version="1.1" xmlns="http://www.w3.org/2000/svg" xmlns:xlink="http://www.w3.org/1999/xlink">
    <title>关基安全</title>
    <defs>
        <linearGradient x1="56.7826748%" y1="71.1634501%" x2="85.5977158%" y2="44.7814983%" id="linearGradient-1">
            <stop stop-color="#003B7C" offset="0%"></stop>
            <stop stop-color="#4EA2FF" offset="100%"></stop>
        </linearGradient>
        <linearGradient x1="56.7826748%" y1="71.1129185%" x2="85.5977158%" y2="44.7939584%" id="linearGradient-2">
            <stop stop-color="#003B7C" offset="0%"></stop>
            <stop stop-color="#4EA2FF" offset="100%"></stop>
        </linearGradient>
        <linearGradient x1="56.7826748%" y1="65.64104%" x2="85.5977158%" y2="46.1432189%" id="linearGradient-3">
            <stop stop-color="#003B7C" offset="0%"></stop>
            <stop stop-color="#4EA2FF" offset="100%"></stop>
        </linearGradient>
        <linearGradient x1="52.5973317%" y1="237.621237%" x2="63.6316537%" y2="3.73619394%" id="linearGradient-4">
            <stop stop-color="#003B7C" offset="0%"></stop>
            <stop stop-color="#4EA2FF" offset="100%"></stop>
        </linearGradient>
        <linearGradient x1="47.5279026%" y1="0%" x2="53.3333652%" y2="104.705303%" id="linearGradient-5">
            <stop stop-color="#C3EEFF" offset="0%"></stop>
            <stop stop-color="#25A8FF" offset="100%"></stop>
        </linearGradient>
    </defs>
    <g id="页面-1" stroke="none" stroke-width="1" fill="none" fill-rule="evenodd">
        <g id="编组-65" transform="translate(9.000000, 0.000329)">
            <polygon id="Fill-1" fill="url(#linearGradient-1)" fill-rule="nonzero" points="32.4579467 42.998627 25.3768205 41.1209713 19.0432909 38.4932435 26.1231794 40.3721369"></polygon>
            <path d="M8.26490337,25.0950496 L15.3460296,26.9727054 L15.3373654,36.7966695 L15.3351803,36.7965283 L13.4373065,37.3199871 L6.35618029,35.4423314 L8.25611539,34.9187662 L12.2111803,35.9665283 L8.25623917,34.917776 L8.26490337,25.0950496 Z M12.3070066,12.4630186 L26.1445923,14.4816532 L26.1470678,14.5583932 L26.1374134,24.8423026 L14.2871803,23.1145283 L26.1367946,24.8427977 L26.1363313,24.8725283 L19.2341803,23.8665283 L26.1367946,24.8737412 C26.1345666,24.9093882 26.1320911,24.9477582 26.1271402,24.9836528 L26.1275115,24.9837766 C26.1225605,25.0171956 26.1176095,25.0506147 26.1101831,25.0840337 C26.1039944,25.1163388 26.0953302,25.1497579 26.086666,25.1807014 C26.0768878,25.2130065 26.0669859,25.2464256 26.0546084,25.2786069 C26.0419835,25.3121497 26.0283683,25.3468065 26.0122776,25.3802256 C25.9945779,25.418348 25.974774,25.4579558 25.9524947,25.4938503 L25.5681803,25.4375283 L25.9521233,25.4937266 C25.9187043,25.5506627 25.881572,25.6038857 25.8407265,25.6509199 C25.787256,25.712807 25.7290821,25.76603 25.667195,25.8068755 L25.6653313,25.8064008 L25.5995214,25.8473806 C25.5764684,25.8592939 25.5529513,25.8695053 25.5288153,25.8781695 L25.5294342,25.8780457 C25.52077,25.8805212 25.5133435,25.8829967 25.5059171,25.8854721 L13.9751803,24.2025283 L13.9821803,24.2045283 L25.5060409,25.8852246 L20.4213937,27.2875871 L17.2501803,26.4465283 L15.3459058,26.9720865 L8.26477959,25.0944308 L11.9081803,24.0885283 L11.6684551,23.8678277 L12.3501803,23.9665283 L12.3531803,23.9665283 L11.6683313,23.8668375 L11.6906107,23.8606488 L12.3751803,23.9605283 L12.3771803,23.9595283 L11.6912296,23.8595348 C11.7382638,23.8434442 11.785298,23.8186893 11.8298568,23.7902212 C11.8914964,23.7473953 11.9496703,23.6954101 12.0028932,23.6322853 C12.0439863,23.585251 12.0811186,23.5320281 12.1157753,23.4750919 L12.1149089,23.4752157 C12.1359506,23.4393212 12.1569922,23.4021889 12.1755583,23.3625811 L22.5341803,24.8725283 L12.1746919,23.3615909 C12.1907826,23.3294096 12.2043977,23.2959906 12.2167752,23.260096 C12.2294001,23.2290287 12.2393021,23.1968474 12.249204,23.1621906 C12.2589822,23.1311232 12.2664086,23.0989419 12.2725974,23.0655229 C12.2800238,23.0332178 12.2862125,22.9997987 12.2899258,22.9651419 C12.2945054,22.9291236 12.2982186,22.8932291 12.2994564,22.8560968 L17.6233313,23.6315283 L12.2992088,22.8551066 C12.2992088,22.8464424 12.3004466,22.8353027 12.3004466,22.8254008 L12.2998277,22.8249057 L12.3097296,12.5405013 C12.3094821,12.513766 12.3082443,12.4877734 12.3070066,12.4630186 Z M11.9036262,11.8435283 L25.741212,13.8609252 C25.822903,13.8832046 25.8984053,13.9302388 25.9602924,13.9983147 C26.0642628,14.112187 26.1311009,14.2792823 26.1447161,14.4810343 L12.3071304,12.4623997 C12.2935152,12.2618854 12.2266771,12.0960278 12.1227067,11.9809178 C12.0608196,11.9116042 11.9853173,11.8658077 11.9036262,11.8435283 Z" id="形状结合" fill="#FFEAA4" fill-rule="nonzero"></path>
            <path d="M23.9675266,0.0130594426 L31.0486528,1.89195292 C31.0053318,1.89814163 30.9607731,1.90804358 30.9149766,1.920421 L23.8338504,0.0427652683 C23.8784091,0.0303878409 23.9242056,0.020485899 23.9675266,0.0130594426 Z M24.1524454,0.0001869181 C24.2092578,-6.06304474e-05 24.2649562,0.00489034051 24.3194169,0.0147922824 L24.3308504,0.017 L24.3631092,0.0233945945 C24.3776527,0.0264889513 24.3921962,0.0298927438 24.4064302,0.0336059721 L31.4863187,1.91126171 C31.4578506,1.90383525 31.4293825,1.89764654 31.4009144,1.89269557 L29.9158504,1.499 L31.4005431,1.89244802 C31.3460824,1.88254608 31.290384,1.8775951 31.2334478,1.8775951 C31.1729222,1.87660491 31.1110351,1.88155588 31.0491479,1.89145782 L23.9680217,0.0138020882 C24.0311466,0.00390014632 24.091796,-0.00105082464 24.1524454,0.0001869181 Z" id="形状结合" fill="#8B8B8B"></path>
            <path d="M13.2875396,25.4218137 L20.3686658,27.2994694 C20.343911,27.3031827 20.3191561,27.3056582 20.295639,27.3044204 L13.2145128,25.4267647 C13.2380299,25.4267647 13.2627848,25.4255269 13.2875396,25.4218137 Z M13.3408863,25.4107978 L20.4207748,27.2872158 C20.4034464,27.2921668 20.386118,27.2971177 20.3687896,27.2995932 L13.2876634,25.4206997 C13.3049918,25.4182243 13.3223202,25.4157488 13.3408863,25.4107978 Z" id="形状结合" fill="#7F7F7F"></path>
            <polygon id="Fill-49" fill="url(#linearGradient-2)" fill-rule="nonzero" points="19.7734354 46.4979733 12.6923091 44.6203176 6.35011535 41.9950652 13.4312416 43.872721"></polygon>
            <path d="M20.432162,15.2655157 L13.3510358,13.3878599 C13.3510358,13.3581541 13.3497981,13.329686 13.3485603,13.2999802 L20.4296866,15.1788737 C20.4309243,15.2073418 20.432162,15.2370476 20.432162,15.2655157" id="Fill-51" fill="#727272"></path>
            <path d="M20.4298103,15.1785024 L13.3486841,13.2996089 C13.3400199,13.1758346 13.3375444,13.1523175 13.3350689,13.1300381 L20.4161952,15.0076939 C20.4186706,15.0299732 20.4211461,15.0522526 20.4298103,15.1785024" id="Fill-53" fill="url(#linearGradient-3)" fill-rule="nonzero"></path>
            <path d="M0.0358945394,8.79397776 L7.11702075,10.6728712 L7.08112621,49.9996713 L-2.50466314e-13,48.1207778 L0.0358945394,8.79397776 Z M1.62614641,6.16860163 L8.70727262,8.04749511 C8.67632905,8.05492157 8.64538548,8.06482351 8.61444192,8.07596319 L8.61264699,8.07560163 L8.495912,8.12402887 C8.41761331,8.16006094 8.34114832,8.20324441 8.26688375,8.25357928 L8.265,8.25339395 L8.26651243,8.25320795 L4.584,7.27639395 L1.18575754,6.3746858 C1.29715439,6.30042123 1.41350221,6.24100958 1.53356325,6.19768859 L4.57364699,7.00360163 L1.53331571,6.19706972 C1.56425927,6.18716777 1.59520284,6.17726583 1.62614641,6.16860163 Z M23.8333553,0.0423939455 L30.9144815,1.92004968 L8.7069013,8.04687624 L1.62577509,6.16798276 L23.8333553,0.0423939455 Z M7.11924869,10.5453837 C7.1167732,10.5880859 7.1167732,10.6301691 7.1167732,10.6722524 L0.0356469909,8.79335889 C0.0356469909,8.75127563 0.0368847336,8.70919238 0.0381224764,8.66834687 C0.0418357046,8.57613503 0.0504999038,8.48454207 0.0616395884,8.39418685 L6.207,10.0233939 L0.0616395884,8.39332043 L0.0803604473,8.26954616 L0.0803604473,8.26954616 L0.103351519,8.14552434 C0.119442174,8.06507106 0.140483801,7.98585552 0.16276317,7.90663999 L7.24265164,9.78553347 C7.22037227,9.86351126 7.20056838,9.94396454 7.18447773,10.0231801 L7.18484905,10.0234276 C7.16752065,10.1051186 7.15390548,10.1892851 7.1427658,10.2722139 C7.13162611,10.3634356 7.12296192,10.4537908 7.11924869,10.5453837 Z M7.24314674,9.78503837 L0.162020525,7.90614489 C0.185537637,7.82569161 0.211530234,7.74647608 0.239998317,7.66726054 L2.189,8.18339395 L0.240617188,7.66688922 C0.271560757,7.58272271 0.306217554,7.49979395 0.343349836,7.41934067 C0.387908574,7.32254919 0.437418284,7.22971848 0.490641222,7.14060101 C0.573074888,7.00123117 0.664667851,6.87250593 0.764925013,6.75492037 L0.76455369,6.75553924 C0.893278935,6.60577237 1.03561935,6.47704712 1.18538622,6.37555222 L4.584,7.27639395 L8.265,8.25339395 L8.11890015,8.36300032 C8.02281464,8.44230754 7.93149673,8.53335039 7.8456799,8.63319498 L7.84464699,8.63260163 L7.74868213,8.75327894 C7.68569478,8.8365286 7.62655818,8.92509597 7.57127234,9.0175141 L7.57176743,9.017019 C7.51854449,9.10737422 7.46903479,9.20020492 7.42447605,9.29674886 C7.38734376,9.37744968 7.35268697,9.46037845 7.3217434,9.54454495 C7.29265644,9.62289407 7.26666385,9.70458509 7.24314674,9.78503837 Z" id="形状结合" fill="url(#linearGradient-4)" fill-rule="nonzero"></path>
            <path d="M26.1374134,24.8423026 L26.1473154,14.5578981 C26.1473154,14.3214893 26.076764,14.1271637 25.9604162,13.9984384 C25.8440684,13.8697132 25.6806864,13.8189657 25.5173043,13.8635245 L20.4326571,15.265887 C20.4326571,15.2361812 20.4314194,15.2077131 20.4301817,15.1780073 C20.4202797,15.0529952 20.419042,15.0294781 20.4153287,15.0084365 L13.4567391,15.4750655 L13.4369352,37.3199871 L15.3368703,36.7964219 L15.3455345,26.9724578 L19.7927441,25.7458548 L19.7915064,26.5937085 C19.7915064,26.8189777 19.8533935,27.0269185 19.9697414,27.1556437 C20.0947534,27.2818935 20.250709,27.3351164 20.4215175,27.2880822 L25.5061646,25.8857197 C25.8490194,25.7805116 26.129987,25.3175958 26.1374134,24.8423026 L26.1374134,24.8423026 Z M30.9151004,1.92054478 C31.7864713,1.68042269 32.4944601,2.4713403 32.493224,3.67195075 L32.4573278,42.9987508 L26.1237983,40.3722607 L19.7729403,46.4978495 L13.4307465,43.8725972 L7.08112621,49.9994237 L7.11702075,10.6726237 C7.11702075,9.47077549 7.82748508,8.28873117 8.70628243,8.04737134 L30.9151004,1.92054478 Z" id="Fill-87" fill="url(#linearGradient-5)" fill-rule="nonzero"></path>
        </g>
    </g>
</svg>