<?xml version="1.0" encoding="UTF-8"?>
<svg width="50px" height="50px" viewBox="0 0 50 50" version="1.1" xmlns="http://www.w3.org/2000/svg" xmlns:xlink="http://www.w3.org/1999/xlink">
    <title>关基安全-灰</title>
    <defs>
        <linearGradient x1="50%" y1="55.81514%" x2="116.722613%" y2="45.3889793%" id="linearGradient-1">
            <stop stop-color="#5F5F5F" offset="0%"></stop>
            <stop stop-color="#B8B8B8" offset="100%"></stop>
        </linearGradient>
        <linearGradient x1="50%" y1="55.8012553%" x2="116.722613%" y2="45.399989%" id="linearGradient-2">
            <stop stop-color="#5F5F5F" offset="0%"></stop>
            <stop stop-color="#B8B8B8" offset="100%"></stop>
        </linearGradient>
        <linearGradient x1="56.7826748%" y1="66.126916%" x2="85.5977158%" y2="46.0234112%" id="linearGradient-3">
            <stop stop-color="#003B7C" offset="0%"></stop>
            <stop stop-color="#4EA2FF" offset="100%"></stop>
        </linearGradient>
        <linearGradient x1="50%" y1="100%" x2="74.7807111%" y2="10.3533133%" id="linearGradient-4">
            <stop stop-color="#5F5F5F" offset="0%"></stop>
            <stop stop-color="#B8B8B8" offset="100%"></stop>
        </linearGradient>
        <linearGradient x1="61.3196571%" y1="0%" x2="43.8895278%" y2="95.0951313%" id="linearGradient-5">
            <stop stop-color="#E7E7E7" offset="0%"></stop>
            <stop stop-color="#AFAFAF" offset="100%"></stop>
        </linearGradient>
    </defs>
    <g id="页面-1" stroke="none" stroke-width="1" fill="none" fill-rule="evenodd">
        <g id="编组-64" transform="translate(9.000000, 0.000329)">
            <polygon id="Fill-1" fill="url(#linearGradient-1)" fill-rule="nonzero" points="31.9652566 42.998627 24.9916172 41.1209713 18.7542264 38.4932435 25.7266468 40.3721369"></polygon>
            <path d="M23.6037155,0.0130594426 L30.5773549,1.89195292 C30.5346915,1.89814163 30.4908091,1.90804358 30.4457078,1.920421 L23.4720684,0.0427652683 C23.5159507,0.0303878409 23.561052,0.020485899 23.6037155,0.0130594426 Z M23.7858273,0.0001869181 C23.8417773,-6.06304474e-05 23.8966303,0.00489034051 23.9502643,0.0147922824 L23.9620684,0.017 L23.9932934,0.0233945945 C24.0076161,0.0264889513 24.0219388,0.0298927438 24.0359568,0.0336059721 L31.0083772,1.91126171 C30.9803413,1.90383525 30.9523053,1.89764654 30.9242694,1.89269557 L29.4440684,1.494 L30.9239037,1.89244802 C30.8702697,1.88254608 30.8154167,1.8775951 30.7593448,1.8775951 C30.6997379,1.87660491 30.6387902,1.88155588 30.5778425,1.89145782 L23.604203,0.0138020882 C23.6663697,0.00390014632 23.7260985,-0.00105082464 23.7858273,0.0001869181 Z" id="形状结合" fill="#8B8B8B"></path>
            <path d="M19.8870009,27.2911766 L12.9133615,25.4122831 C12.9255511,25.4159963 12.9365216,25.4184718 12.9487112,25.4209473 L19.9211316,27.298603 C19.9101611,27.2973653 19.8979715,27.2948898 19.8870009,27.2911766" id="Fill-41" fill="#7F7F7F"></path>
            <path d="M19.9214973,27.2984793 L12.9478579,25.4208235 C12.9697991,25.4245367 12.9917403,25.4270122 13.0136815,25.4270122 L19.9873209,27.304668 C19.9653797,27.304668 19.9434385,27.3034302 19.9214973,27.2984793" id="Fill-43" fill="#838383"></path>
            <path d="M19.9875647,27.3044204 L13.0139253,25.4267647 C13.0370854,25.4267647 13.0614645,25.4255269 13.0858436,25.4218137 L20.059483,27.2994694 C20.0351039,27.3031827 20.0107248,27.3056582 19.9875647,27.3044204" id="Fill-45" fill="#878787"></path>
            <path d="M20.0596049,27.2995932 L13.0859655,25.4206997 C13.1030308,25.4182243 13.1200962,25.4157488 13.1383805,25.4107978 L20.110801,27.2872158 C20.0937356,27.2921668 20.0766703,27.2971177 20.0596049,27.2995932" id="Fill-47" fill="#8B8B8B"></path>
            <rect id="矩形" fill="#949494" x="12.0859655" y="13.2999802" width="15" height="25"></rect>
            <polygon id="Fill-49" fill="url(#linearGradient-2)" fill-rule="nonzero" points="19.4732877 46.4979733 12.4996483 44.6203176 6.25372481 41.9950652 13.2273642 43.872721"></polygon>
            <path d="M20.1220154,15.2655157 L13.148376,13.3878599 C13.148376,13.3581541 13.147157,13.329686 13.145938,13.2999802 L20.1195775,15.1788737 C20.1207964,15.2073418 20.1220154,15.2370476 20.1220154,15.2655157" id="Fill-51" fill="#727272"></path>
            <path d="M20.1196994,15.1785024 L13.1460599,13.2996089 C13.1375273,13.1758346 13.1350894,13.1523175 13.1326514,13.1300381 L20.1062909,15.0076939 C20.1087288,15.0299732 20.1111667,15.0522526 20.1196994,15.1785024" id="Fill-53" fill="url(#linearGradient-3)" fill-rule="nonzero"></path>
            <path d="M0.0353496841,8.79397776 L7.00898909,10.6728712 L6.97363941,49.9996713 L7.12319093e-13,48.1207778 L0.0353496841,8.79397776 Z M23.4715808,0.0423939455 L30.4452202,1.92004968 L8.57473631,8.04687624 L1.6010969,6.16798276 L23.4715808,0.0423939455 Z M7.01118321,10.5453837 C7.0087453,10.5880859 7.0087453,10.6301691 7.0087453,10.6722524 L0.0351058932,8.79335889 C0.0351058932,8.75127563 0.0363248478,8.70919238 0.0375438024,8.66834687 C0.0412006663,8.57613503 0.0497333487,8.48454207 0.0607039403,8.39418685 L5.226,9.78439395 L0.0607039403,8.39332043 L0.079140629,8.26954616 L0.079140629,8.26954616 L0.102,8.14539395 L0.101782711,8.14552434 C0.117629121,8.06507106 0.13835135,7.98585552 0.160292533,7.90663999 L7.13271299,9.78553347 C7.1107718,9.86351126 7.09126853,9.94396454 7.07542212,10.0231801 L2.356,8.75239395 L7.07578781,10.0234276 C7.05872244,10.1051186 7.04531394,10.1892851 7.03434335,10.2722139 C7.02337276,10.3634356 7.01484008,10.4537908 7.01118321,10.5453837 Z M8.14,8.25339395 C7.99231979,8.35346512 7.85335896,8.4834281 7.72658768,8.63319498 L7.72510589,8.63260163 L7.63106227,8.75327894 C7.60004665,8.79490377 7.5699791,8.83785803 7.54085963,8.88195834 L7.45683302,9.017019 C7.40441797,9.10737422 7.35565979,9.20020492 7.31177742,9.29674886 C7.27520878,9.37744968 7.24107805,9.46037845 7.21060419,9.54454495 L5.249,9.01639395 L7.20999471,9.54491628 C7.18195875,9.62289407 7.15636071,9.70458509 7.13320057,9.78503837 L0.15956116,7.90614489 C0.182721298,7.82569161 0.208319345,7.74647608 0.236355302,7.66726054 C0.267438645,7.58272271 0.301569374,7.49979395 0.338138013,7.41934067 C0.382020379,7.32254919 0.430778564,7.22971848 0.483193613,7.14060101 L0.482706031,7.13985836 C0.564375991,7.00123117 0.654578634,6.87250593 0.753313958,6.75492037 C0.879719553,6.60577237 1.01989933,6.47704712 1.16739284,6.37555222 L4.006,7.13939395 L1.16775853,6.3746858 C1.27746445,6.30042123 1.39204618,6.24100958 1.51028478,6.19768859 L4.02910589,6.87560163 L1.51004099,6.19706972 C1.54051485,6.18716777 1.57098872,6.17726583 1.60146259,6.16860163 L8.575102,8.04749511 C8.54462813,8.05492157 8.51415426,8.06482351 8.4836804,8.07596319 L8.48210589,8.07560163 L8.36694969,8.12402887 C8.28983953,8.16006094 8.21453522,8.20324441 8.14139794,8.25357928 L8.14,8.25339395 L8.14103225,8.25320795 L5.042,7.41839395 L8.14,8.25339395 Z" id="形状结合" fill="url(#linearGradient-4)" fill-rule="nonzero"></path>
            <path d="M25.7406648,24.8423026 L25.7504165,14.5578981 C25.7504165,14.3214893 25.680936,14.1271637 25.5663543,13.9984384 C25.4517726,13.8697132 25.2908706,13.8189657 25.1299685,13.8635245 L20.1225029,15.265887 C20.1225029,15.2361812 20.121284,15.2077131 20.120065,15.1780073 C20.1103134,15.0529952 20.1090944,15.0294781 20.1054376,15.0084365 L13.2524747,15.4750655 L13.2329714,37.3199871 L15.1040668,36.7964219 L15.1125994,26.9724578 L19.4923034,25.7458548 L19.4910845,26.5937085 C19.4910845,26.8189777 19.5520322,27.0269185 19.6666139,27.1556437 C19.7897283,27.2818935 19.9433166,27.3351164 20.1115324,27.2880822 L25.118998,25.8857197 C25.4566484,25.7805116 25.7333511,25.3175958 25.7406648,24.8423026 L25.7406648,24.8423026 Z M30.4458297,1.92054478 C31.3039737,1.68042269 32.0012158,2.4713403 31.9999984,3.67195075 L31.9646471,42.9987508 L25.7272563,40.3722607 L19.4728001,46.4978495 L13.2268766,43.8725972 L6.97363941,49.9994237 L7.00898909,10.6726237 C7.00898909,9.47077549 7.70866905,8.28873117 8.57412683,8.04737134 L30.4458297,1.92054478 Z" id="Fill-87" fill="url(#linearGradient-5)" fill-rule="nonzero"></path>
        </g>
    </g>
</svg>