<?xml version="1.0" encoding="UTF-8"?>
<svg width="50px" height="51px" viewBox="0 0 50 51" version="1.1" xmlns="http://www.w3.org/2000/svg" xmlns:xlink="http://www.w3.org/1999/xlink">
    <title>安全防护措施-灰</title>
    <defs>
        <linearGradient x1="0%" y1="186.659844%" x2="74.4865472%" y2="38.7892282%" id="linearGradient-1">
            <stop stop-color="#5F5F5F" offset="0%"></stop>
            <stop stop-color="#B8B8B8" offset="100%"></stop>
        </linearGradient>
        <linearGradient x1="52.47516%" y1="100%" x2="64.6421278%" y2="-6.35581797%" id="linearGradient-2">
            <stop stop-color="#5F5F5F" offset="0%"></stop>
            <stop stop-color="#B8B8B8" offset="100%"></stop>
        </linearGradient>
        <linearGradient x1="36.2238424%" y1="54.6621348%" x2="83.3252932%" y2="40.0384135%" id="linearGradient-3">
            <stop stop-color="#003B7C" offset="0%"></stop>
            <stop stop-color="#4EA2FF" offset="100%"></stop>
        </linearGradient>
        <linearGradient x1="36.2238424%" y1="53.588352%" x2="83.3252932%" y2="42.3327659%" id="linearGradient-4">
            <stop stop-color="#003B7C" offset="0%"></stop>
            <stop stop-color="#4EA2FF" offset="100%"></stop>
        </linearGradient>
        <linearGradient x1="72.3485753%" y1="0%" x2="37.9359995%" y2="95.0951313%" id="linearGradient-5">
            <stop stop-color="#E7E7E7" offset="0%"></stop>
            <stop stop-color="#AFAFAF" offset="100%"></stop>
        </linearGradient>
        <path d="M6.70251532,45.6533542 L13.4597263,47.4279377 L13.4688498,47.4378392 L13.4688498,47.4378392 L13.5160637,47.4851061 C13.6847041,47.6464949 14.2445235,48.1192883 15.4573563,48.6164524 L8.70014534,46.8418689 C7.48632817,46.3447047 6.92716502,45.8719114 6.75877072,45.7105226 L6.7116285,45.6632557" id="path-6"></path>
    </defs>
    <g id="页面-1" stroke="none" stroke-width="1" fill="none" fill-rule="evenodd">
        <g id="编组-112" transform="translate(4.000000, -0.000188)">
            <path d="M40.1848499,15.8491247 L33.4264576,14.0745412 C33.4630789,14.0768808 33.4985188,14.08156 33.53514,14.0885787 L40.292351,15.8631623 C40.2569111,15.8561435 40.2214711,15.8514643 40.1848499,15.8491247" id="Fill-1" fill="#838383"></path>
            <path d="M40.2928235,15.8628113 L33.5344312,14.0882278 C33.5686898,14.0940768 33.6029484,14.1010956 33.637207,14.1092842 L40.3944179,15.8850375 C40.3613407,15.8756791 40.3270821,15.8686603 40.2928235,15.8628113" id="Fill-2" fill="#7F7F7F"></path>
            <polygon id="Fill-3" fill="#808080" points="39.6427373 15.7542541 32.884345 13.9796706 33.4265758 14.0744242 40.184968 15.8490077"></polygon>
            <path d="M39.171977,15.6646475 L32.4135848,13.890064 L32.5594791,13.925158 L32.5594791,13.925158 L32.7054916,13.9534671 C32.7657394,13.9639953 32.824806,13.9721838 32.8838725,13.9792026 L39.6422647,15.7537861 C39.5831982,15.7479372 39.5229504,15.7385788 39.4638838,15.7280506 C39.3668966,15.7114395 39.2688462,15.6903831 39.171977,15.6646475 Z" id="形状结合" fill="#7F7F7F"></path>
            <path d="M29.5264128,46.7059384 L22.7680206,44.9313548 C22.7562073,44.9278455 22.7432126,44.9243361 22.7313993,44.9208267 L29.4897916,46.6954102 C29.5016049,46.7000894 29.5145995,46.7035988 29.5264128,46.7059384" id="Fill-9" fill="#6E6E6E"></path>
            <path d="M29.4894372,46.6956441 L22.7310449,44.9210606 C22.6341758,44.8906459 22.5821973,44.8707593 22.5302187,44.8485332 C22.423899,44.8017412 22.3636511,44.7713265 22.3069473,44.7374023 C22.2337048,44.6906104 22.1864515,44.6566863 22.141561,44.6227621 L28.8987719,46.3973457 C28.9448438,46.4312698 28.992097,46.4651939 29.0653395,46.5119859 C29.1220434,46.54591 29.1822912,46.5763247 29.288611,46.6231167 C29.3405895,46.6465126 29.3925681,46.6652294 29.4894372,46.6956441" id="Fill-10" fill="#6E6E6E"></path>
            <path d="M28.8993626,46.3968777 L22.1409703,44.6222942 C22.0500079,44.5462574 22.000392,44.5029748 21.9566827,44.4561829 L28.715075,46.2307664 C28.7587842,46.2775583 28.8072188,46.3220107 28.8993626,46.3968777" id="Fill-12" fill="#6E6E6E"></path>
            <polygon id="Fill-14" fill="#6A6A6A" points="28.7148387 46.2307664 21.9564465 44.4561829 21.593778 44.0596214 28.3509889 45.8342049"></polygon>
            <path d="M28.3514614,45.833737 L21.5930692,44.0591535 C21.0425691,43.4531981 20.3963813,43.065995 19.7041216,42.8846763 L26.4625138,44.6592598 C27.1547736,44.8405785 27.8009614,45.2277817 28.3514614,45.833737" id="Fill-16" fill="#6E6E6E"></path>
            <path d="M20.3946093,30.0249703 L27.1530016,31.8007237 L27.1352816,31.8014548 L27.1352816,31.8014548 L27.1181523,31.8034142 C27.109883,31.804584 27.1016137,31.8057538 27.0933444,31.8080934 L20.3349521,30.0335099 C20.3432214,30.0311703 20.3514907,30.0288307 20.3597601,30.0288307 C20.3709827,30.0261401 20.382796,30.0249703 20.3946093,30.0249703 Z" id="形状结合" fill="#8B8B8B"></path>
            <path d="M24.7929393,29.2901033 L31.5501503,31.0646868 C31.2985268,31.6004542 31.0232768,32.1175049 30.7267628,32.6123295 L30.725095,32.6120452 L30.4417976,33.0696409 C30.0540187,33.6704117 29.6340321,34.2328506 29.1860715,34.7503692 L29.184095,34.7500452 L28.9119977,35.0571337 C28.2651985,35.7603764 27.5660538,36.3690187 26.8280175,36.8603338 L26.8286082,36.8606847 C26.2048656,37.275963 25.5539525,37.6070158 24.8841381,37.843315 L24.882095,37.8430452 L24.627051,37.9285056 C24.5409615,37.9552647 24.4547244,37.9804154 24.3684873,38.0043962 L17.610095,36.2298127 C17.7837506,36.181851 17.9550435,36.1280403 18.1263365,36.0683806 L18.1257458,36.0687315 C18.7967416,35.8324323 19.4464734,35.5013795 20.0690346,35.0861012 L25.664095,36.5550452 L20.0696253,35.0857503 C20.9130953,34.5230775 21.7069494,33.8095007 22.4275611,32.9754348 L25.802095,33.8610452 L22.4276792,32.9746159 C22.9876299,32.3288874 23.5038714,31.6118013 23.9681343,30.837395 C24.2648846,30.3429214 24.5413159,29.8258707 24.7929393,29.2901033 Z M26.1380023,25.2582776 L32.8952133,27.0328611 C32.8018881,27.4797239 32.6920244,27.9219076 32.5668034,28.3570724 C32.4800543,28.6584124 32.3860729,28.956061 32.285091,29.2498969 L32.1281753,29.6876006 C31.9533384,30.1578594 31.7607815,30.61759 31.5505047,31.0644528 L24.7921124,29.2898693 C25.0023892,28.8430065 25.1949461,28.3832759 25.3697831,27.9130171 C25.5318616,27.4780862 25.6783466,27.033563 25.808293,26.582021 C25.9336321,26.1473241 26.0434959,25.7051404 26.1380023,25.2582776 Z M20.8738751,11.9030452 L27.6322674,13.6776287 C30.6930949,14.4812799 32.9293537,17.7625632 33.2388623,22.3200961 C33.2636703,22.6823825 33.2754836,23.0532085 33.2754836,23.4310532 C33.2754836,23.6673524 33.2695769,23.901312 33.2601263,24.1364414 C33.2461866,24.4755658 33.2215099,24.8137674 33.1873826,25.1505825 L33.1294711,25.6543712 C33.0692233,26.1176112 32.9912554,26.5773418 32.8955677,27.0323932 L26.1371754,25.2578097 C26.2328632,24.8027583 26.310831,24.3430277 26.3710789,23.8797877 C26.4358158,23.3771255 26.4807063,22.870603 26.5019703,22.3617409 C26.512366,22.1267285 26.5170913,21.8927689 26.5170913,21.6564697 C26.5170913,21.2786249 26.505278,20.907799 26.4804701,20.5451616 C26.1709615,15.9879797 23.935884,12.7066964 20.8738751,11.9030452 Z" id="形状结合" fill="#8B8B8B"></path>
            <polygon id="Fill-50" fill="#949494" points="26.0084104 32.1046372 19.2500181 30.3300537 20.3356609 30.032925 27.0928718 31.8086783"></polygon>
            <path d="M25.7124871,21.7968454 C25.70091,21.7974303 25.6890967,21.7986001 25.6772834,21.7997699 C25.6690141,21.8014077 25.6619261,21.8025774 25.6536568,21.804917 L18.8952645,20.0291637 L18.9070778,20.0269704 L18.9070778,20.0269704 L18.9188911,20.0251864 C18.9307044,20.0228468 18.9425178,20.021677 18.9543311,20.021677 C18.9659081,20.0222619 18.9777214,20.0234317 18.9895347,20.0257713 L18.9902645,20.025677 C19.0017024,20.0281109 19.0046557,20.0286958 19.0076091,20.0292807 L25.7671827,21.8038642 L25.7471,21.8003548 L25.7471,21.8003548 C25.7361137,21.7980152 25.7243004,21.7968454 25.7124871,21.7968454 Z" id="形状结合" fill="#8B8B8B"></path>
            <path d="M22.9072557,38.2392743 L22.5638867,38.2463104 L22.5635323,38.2460765 C22.2413834,38.242801 21.9247868,38.2135561 21.6152782,38.1609152 L21.6116503,38.1594618 L21.3701816,38.1131874 C21.2891128,38.0956405 21.2087823,38.0763388 21.1290425,38.0552824 L14.3706503,36.2806989 L14.6126754,36.3386039 L14.6126754,36.3386039 L14.8568859,36.3863317 C15.063225,36.4214256 15.2727143,36.4461213 15.4850038,36.4597257 L15.80514,36.471493 C16.1465445,36.4738326 16.4950371,36.4492668 16.8506176,36.3931165 C17.1002327,36.3534603 17.3542188,36.2996496 17.6105675,36.2294618 L24.3689598,38.0040453 C24.112611,38.0742332 23.858625,38.1280439 23.6081829,38.167817 C23.3715624,38.2051335 23.1379214,38.2285295 22.9072557,38.2392743 Z" id="形状结合" fill="#7F7F7F"></path>
            <path d="M24.1446251,-2.96651592e-13 L30.9030174,1.77458351 C30.8604895,1.77458351 30.7919723,1.7780929 30.619498,1.79213048 L23.8611058,0.0175469694 C24.0323987,0.00350939389 24.1020972,-2.96651592e-13 24.1446251,-2.96651592e-13 Z M24.1814826,0.00152073735 C24.1897519,0.00152073735 24.2275545,0.00503013124 24.2996157,0.0178979088 L31.0580079,1.79248142 C30.9859468,1.77961364 30.9481442,1.77610425 30.9398749,1.77610425 C30.9280616,1.77493445 30.9174296,1.77493445 30.9032536,1.77493445 L24.1448614,0.000350939388 C24.1590373,0.000350939388 24.1708506,0.000350939388 24.1814826,0.00152073735 Z" id="形状结合" fill="#878787"></path>
            <path d="M14.8857104,33.5085117 L21.6441027,35.2830952 C21.6441027,35.2936234 21.645284,35.3053214 21.645284,35.3170194 C21.6569792,35.4954135 21.7644802,35.6463175 21.8944266,35.6802416 L15.1360344,33.9056581 C15.006088,33.871734 14.8997682,33.72083 14.8867736,33.5418509 C14.8868917,33.5307379 14.8857104,33.5190399 14.8857104,33.5085117 Z" id="形状结合" fill="#6E6E6E"></path>
            <polygon id="Fill-78" fill="#949494" points="22.0104333 33.1967605 15.252041 31.422177 16.5219714 31.074747 23.281545 32.8493306"></polygon>
            <polygon id="Fill-80" fill="#7D7D7D" points="21.6441027 35.2827443 14.8857104 33.5081608 14.8868917 32.0178382 21.645284 33.7924217"></polygon>
            <path d="M14.9003589,31.8967641 L21.6587512,33.6725174 C21.6552072,33.6888945 21.6528445,33.7052717 21.6504818,33.7216489 L18.7814824,32.9676751 L21.6506,33.7222338 C21.6482373,33.738611 21.647056,33.7549881 21.6458747,33.7713653 L21.6458747,33.7924217 L14.8874824,32.0178382 L14.8874824,31.9967818 L14.8874824,31.9967818 C14.8886637,31.9804046 14.8898451,31.9640275 14.8922077,31.9464805 L14.9003589,31.8967641 L14.9003589,31.8967641 Z M14.932373,31.7886747 L21.6907652,33.5632582 L21.6808716,33.5913334 L21.6808716,33.5913334 L21.6721002,33.6192916 C21.6673749,33.6368385 21.6626496,33.6543855 21.6591056,33.6719325 L14.9007133,31.897349 C14.9042573,31.879802 14.9089826,31.862255 14.9137079,31.8447081 L14.9134717,31.844825 C14.9193783,31.8261083 14.925285,31.8062217 14.932373,31.7886747 Z M15.2350299,31.4276751 L21.9934221,33.2022586 C21.9721582,33.2104472 21.9497129,33.2209754 21.9284489,33.2350129 L21.9285671,33.2351299 C21.8943085,33.2573561 21.8600499,33.2877708 21.8293353,33.3240346 L21.8298078,33.3246195 C21.8038186,33.3538644 21.7790106,33.3889584 21.7565653,33.4252221 L18.3774824,32.5376751 L21.7563291,33.4252221 C21.7421531,33.448618 21.7291585,33.4743536 21.7173452,33.4989194 C21.707422,33.5195078 21.6991527,33.5405642 21.6908834,33.5627903 L14.9324911,31.7882068 C14.9407604,31.7659807 14.9490297,31.7449243 14.9596617,31.7238679 L14.9589529,31.7243358 C14.9719475,31.6986003 14.9837608,31.6740345 14.9991181,31.6506386 L14.9981731,31.6506386 C15.0206184,31.6143748 15.044245,31.5792809 15.0714156,31.5488662 C15.1016576,31.5131873 15.1347349,31.4827726 15.1701748,31.4605464 C15.1913206,31.4463919 15.2125846,31.4346939 15.2350299,31.4276751 Z" id="形状结合" fill="#727272"></path>
            <polygon id="Fill-104" fill="#7D7D7D" points="23.2811906 32.8494475 16.5227983 31.074864 16.5298863 23.4021592 23.2882786 25.1767427"></polygon>
            <path d="M18.896564,4.64842616 L25.6549563,6.42300967 C25.2958318,6.65930886 24.917806,6.85466512 24.5161536,6.99504088 C24.4158586,7.03001784 24.3142642,7.06160238 24.2114884,7.08967753 C24.0484648,7.13412986 23.8854412,7.16922379 23.7235989,7.19495935 C23.4953658,7.23005329 23.267369,7.24760026 23.0429162,7.24526066 C22.9048974,7.24381791 22.767338,7.23549935 22.6311787,7.21972874 L22.4285062,7.19086506 C22.3221864,7.17214829 22.2182293,7.14875233 22.1142722,7.12184698 L15.35588,5.34726347 C15.4598371,5.37416882 15.5649755,5.39756478 15.6701139,5.41628155 L15.67088,5.41568667 L15.8727427,5.44514523 L16.0776817,5.46329876 L16.2845239,5.47067715 C16.5101581,5.47301675 16.7369736,5.45546978 16.9649704,5.42037584 C17.1282302,5.39464028 17.2900725,5.35954635 17.4530962,5.31509402 C17.5558719,5.28701887 17.6574663,5.25543433 17.7578794,5.22034039 C18.1594137,5.08008161 18.5374395,4.88472535 18.896564,4.64842616 Z M23.8609876,0.0178979089 L30.6193799,1.79248142 L30.5756707,1.79833041 L30.5732418,1.79689791 L30.5295397,1.80605107 C30.5124104,1.80926802 30.4932138,1.81306986 30.4707685,1.81774905 C30.4282406,1.82710744 30.3857127,1.83646582 30.3420035,1.8481638 C30.2982942,1.86103158 30.2534037,1.87389936 30.1955185,1.89495572 L30.1932418,1.89389791 L30.1381944,1.91554416 C30.1173735,1.92314785 30.0946329,1.93133644 30.0698249,1.94010992 C30.0024891,1.96701527 29.9339719,1.99626022 29.8512788,2.03486356 C29.7792176,2.0699575 29.7071564,2.10973063 29.584298,2.1822581 C29.5476768,2.20448426 29.5110555,2.22788022 29.4744343,2.25244598 L25.13288,1.11189791 L29.4746706,2.2529139 C29.4415933,2.27514006 29.4061534,2.29853602 29.3707135,2.32310177 C29.3021963,2.37340309 29.2360418,2.42721379 29.122634,2.52430702 C29.0602598,2.58127618 28.9976493,2.63859628 28.9338574,2.70644457 L28.8990082,2.7427083 L28.8646314,2.78306633 C28.8256475,2.82751866 28.7819383,2.88132936 28.7252344,2.95385684 L27.42188,2.61089791 L28.7246438,2.95338892 C28.6726652,3.02474659 28.621868,3.09610427 28.5757961,3.17214114 L28.5762687,3.1723751 L28.2112375,3.76780226 L23.47488,2.52389791 L28.2115919,3.76827018 C27.9316166,4.16132229 27.6398279,4.54033683 27.3338633,4.89595541 L27.3339814,4.89618937 C26.8201026,5.49278633 26.2660586,6.01919542 25.6553107,6.42277571 L18.8969184,4.6481922 C19.5076663,4.24461191 20.0628917,3.71703303 20.5755892,3.12160586 C20.882617,2.76575332 21.1732243,2.38556899 21.4531996,1.99368667 L21.4528452,1.99321875 L21.8178764,1.39662179 C21.8634758,1.32152076 21.914273,1.24899328 21.9674328,1.17880541 C22.0247274,1.10557605 22.0672553,1.05293515 22.1050579,1.00731303 L22.1058422,1.00637257 L22.1404682,0.967978569 L22.1742838,0.930691259 C22.239257,0.864012775 22.3006862,0.806692675 22.3644781,0.749372575 C22.4776495,0.651460485 22.5449854,0.598819577 22.6135025,0.548518265 L22.6653334,0.512400753 L22.716042,0.477862468 C22.7538446,0.453296711 22.7892845,0.429900751 22.8259058,0.40767459 C22.9499455,0.335147116 23.0208253,0.295373986 23.0940678,0.260280047 C23.1755796,0.221676714 23.2440968,0.192431765 23.3114326,0.165526412 L23.3795068,0.140960655 L23.4371262,0.12037221 C23.4961927,0.0993158471 23.539902,0.0864480695 23.5836112,0.0735802919 C23.6273204,0.0618823123 23.6698483,0.0525239286 23.7123762,0.0431655449 C23.7572668,0.0338071612 23.7891627,0.0279581714 23.8175147,0.0232789795 C23.8326357,0.0202375048 23.8468117,0.0190677069 23.8609876,0.0178979089 Z" id="形状结合" fill="url(#linearGradient-1)" fill-rule="nonzero"></path>
            <path d="M18.7742963,14.3657039 L25.5326885,16.1414572 L25.5149686,16.1417496 L25.5149686,16.1417496 L25.4978393,16.1442647 C25.48957,16.1454345 25.4813007,16.1466043 25.4730313,16.1489439 L18.7146391,14.3743604 C18.7229084,14.3720208 18.7311777,14.3696812 18.739447,14.3696812 C18.7506697,14.3668737 18.762483,14.3657039 18.7742963,14.3657039 Z" id="形状结合" fill="#8B8B8B"></path>
            <path d="M8.69920027,46.8417519 L15.4575925,48.6163354 C16.9082665,49.7580582 17.4764865,49.9569239 17.6052515,49.990848 L10.8468593,48.2162645 C10.7180942,48.1823404 10.1486929,47.9834747 8.69920027,46.8417519 Z M6.16276538,41.8392279 L12.9211576,43.6138114 L12.7339167,44.4045948 C12.7256474,44.4607451 12.7161968,44.5168954 12.7091088,44.5753853 L12.6876824,44.775333 L12.6749683,44.9802524 C12.666699,45.1580617 12.6690617,45.34172 12.680875,45.5230387 L12.6796805,45.5230113 L12.697734,45.7163039 C12.7753634,46.4226913 13.0140496,47.0907434 13.4601988,47.4285226 C13.4872513,47.4578845 14.0023114,48.0205573 15.4577107,48.6159845 L8.69931841,46.841401 C7.24391913,46.2459738 6.728859,45.683301 6.70168839,45.654056 C6.21627966,45.2854527 5.97528822,44.5239142 5.92330967,43.7483382 L5.92248274,43.7484551 C5.91066944,43.5671365 5.90830677,43.3834782 5.91657609,43.2056689 L5.92930493,43.0007642 L5.95071654,42.8008018 L5.96282518,42.7140905 L5.97611515,42.6300113 L6.16276538,41.8392279 Z M1.81901283,22.7078841 L8.57740509,24.4836374 C8.56086646,24.4929958 8.54550917,24.503524 8.52897054,24.5140521 L8.52782693,24.5138841 L8.3878163,24.6163327 C8.24694263,24.7274818 8.10806245,24.8634708 7.97516276,25.0178841 L7.97382693,25.0178841 L7.81822956,25.2108965 C7.71611009,25.3452066 7.61871595,25.4897416 7.52814727,25.6410355 C7.44120134,25.7863244 7.36087086,25.9372283 7.28762836,26.0916417 L7.20636758,26.2748613 L7.13251966,26.4590752 L7.07862145,26.6140734 L7.03,26.7688841 L7.03139776,26.7696566 L6.99403818,26.9047682 L6.96288059,27.0403478 L6.9404353,27.1596672 C6.93807264,27.1713652 6.92744067,27.2368739 6.91090204,27.3597027 C6.87782478,27.6144847 6.82466491,28.1174978 6.79040632,28.903602 C6.77221383,29.3284726 6.75921919,29.836165 6.75921919,30.4315921 C6.75839226,31.4211242 6.78438153,32.1206634 6.81745879,32.6072994 C6.85489788,33.1683525 6.90058532,33.4445701 6.92236654,33.5517608 L6.93464678,33.6057219 C7.05483485,34.2419462 7.42997813,34.8125278 7.88683456,35.129632 L9.58389875,35.574024 C10.6896242,35.8653037 11.746915,36.7122374 12.3765642,38.057505 C12.775854,38.9009294 13.0121201,39.8660127 13.0818186,40.9118121 C13.0985935,41.1583665 13.1056815,41.4094831 13.1036688,41.6645857 L13.0936319,42.0499085 C13.0841813,42.2706104 13.0684302,42.4933919 13.0456786,42.7185997 L13.0064497,43.0578064 C12.9828231,43.2426345 12.9544712,43.4274626 12.9213939,43.6134605 L6.16300165,41.838877 C6.1960789,41.6528791 6.22443084,41.468051 6.24805745,41.2832229 C6.29266681,40.9424518 6.3210069,40.60705 6.33637482,40.2763192 L6.33547591,40.275559 C6.35201454,39.887186 6.34847055,39.5070017 6.32366261,39.1373455 C6.25372784,38.0914292 6.01864305,37.1263459 5.61817198,36.2829215 C5.14022889,35.2617793 4.41588898,34.5270911 3.61048315,34.1054608 L1.60152987,33.5795184 C0.948254058,33.4075581 0.336324817,32.6764344 0.175663858,31.8306705 L1.238,32.1095966 L0.176254523,31.8311384 L0.173917134,31.8221346 L0.163977181,31.7771701 C0.161800026,31.7664486 0.159384133,31.7540361 0.156761762,31.7398164 L0.138807903,31.6318841 C0.115573276,31.4784962 0.0853829396,31.2251831 0.0593027952,30.8321309 C0.0259892728,30.3460799 5.38591394e-12,29.6453709 5.38591394e-12,28.6568916 L4.862,29.9325966 L0.00082693141,28.6558388 C0.00082693141,28.0604117 0.0138215678,27.5538891 0.0327228571,27.1292525 C0.0662726457,26.3429143 0.119432522,25.8399012 0.152509778,25.5848852 C0.167867076,25.4622904 0.179680382,25.3967817 0.182043043,25.3850837 C0.189131026,25.3453106 0.19621901,25.3055374 0.204488324,25.2645945 C0.223389613,25.175222 0.245834894,25.0851475 0.271824167,24.9939033 L1.098,25.2105966 L0.272532965,24.9944882 C0.30206623,24.8915459 0.336324817,24.7874339 0.375308726,24.6844917 L0.374599928,24.6843747 C0.42067182,24.5603761 0.472650366,24.4375474 0.529354234,24.3170582 C0.602478597,24.1626448 0.682809077,24.0117409 0.769046209,23.866686 C0.905608024,23.6395112 1.05681834,23.4277778 1.2174793,23.2429497 L1.2167705,23.2433006 C1.39397009,23.0374162 1.58180165,22.8642861 1.77081454,22.7391177 C1.7871169,22.7289405 1.80365553,22.7184123 1.81901283,22.7078841 Z M6.5405549,8.35668571 L13.2977658,10.1312692 C13.2422433,10.2505886 13.1902647,10.3769268 13.1406489,10.5079442 C13.0930412,10.6374408 13.0481507,10.7719676 13.0091668,10.9088339 L12.237,10.7055966 L13.0085761,10.9090679 C12.9707735,11.0424248 12.9365149,11.1781214 12.908163,11.3149878 C12.8808743,11.4464731 12.8572477,11.57983 12.840709,11.7108474 C12.8244502,11.8404703 12.8126556,11.9676488 12.8067335,12.0925001 L12.8071592,12.0930204 C12.8012526,12.2252076 12.8024339,12.3550551 12.8107032,12.4790537 C12.8223984,12.6606649 12.8505731,12.8310898 12.8968222,12.985887 L12.9496277,13.1351934 L13.1268273,13.826544 C13.2045588,14.2287205 13.2565374,14.6381498 13.2848893,15.0510885 L13.2851256,15.0515564 C13.3099335,15.4329106 13.3146589,15.8177741 13.2981202,16.2038074 C13.2895359,16.4096139 13.2745986,16.6159922 13.2536935,16.8225612 L13.2170064,17.1324333 L13.2183804,17.132861 C13.1817592,17.4124427 13.1345059,17.6931942 13.0754394,17.9727759 C13.0188537,18.2439351 12.9515178,18.5153282 12.87355,18.7843817 C12.7939283,19.0616238 12.7029659,19.338866 12.6001901,19.6137685 C12.5935747,19.6335381 12.5864867,19.6522548 12.5793987,19.6709716 C12.5578985,19.7178805 12.5366345,19.7646724 12.5141893,19.8114643 C12.3800689,20.0968171 12.2382304,20.3739032 12.0899691,20.6413017 L11.8626854,21.034956 C11.500017,21.6409114 11.1042712,22.1895466 10.6919868,22.667994 C10.1846053,23.2561684 9.65182526,23.7381252 9.12022649,24.0914041 L8.51501283,23.9315966 L9.11963583,24.0912872 L8.57740509,24.4831695 L1.81901283,22.7074162 L2.36124357,22.3167037 C2.893433,21.9635416 3.42739442,21.4815849 3.93300391,20.8931765 C4.34587895,20.4149631 4.74162469,19.8651581 5.10547451,19.2603725 L5.10452945,19.2603725 C5.33607024,18.8743392 5.5546164,18.4649099 5.7554426,18.0367638 C5.77706095,17.9900889 5.79950623,17.943297 5.82077018,17.8965051 C5.82809443,17.8776713 5.83518241,17.8589546 5.84227039,17.839068 L5.84179786,17.839185 C5.94457362,17.5642825 6.03553608,17.2870403 6.11586656,17.0097982 C6.19312558,16.7395749 6.26046142,16.4693516 6.31716529,16.1979584 C6.37611368,15.9186107 6.42336691,15.6378592 6.45998816,15.3582775 C6.49968086,15.0479301 6.52685147,14.7379336 6.5398461,14.4291069 C6.5507931,14.1718294 6.55286699,13.9150197 6.54533273,13.6594059 L6.52649707,13.276505 C6.49814513,12.8635663 6.44616659,12.454137 6.3693801,12.0517265 L6.36843504,12.0519605 L6.19123545,11.3606099 L6.19076292,11.3607269 C6.1127951,11.16888 6.06908587,10.9454486 6.05254724,10.7044702 C6.04404166,10.5793018 6.04286033,10.4506241 6.04876698,10.3184369 C6.0542011,10.1937364 6.06483308,10.0650587 6.08255304,9.93638088 C6.0988554,9.80524652 6.12248201,9.67188956 6.14965261,9.54087218 L9.836,10.5075966 L6.14977075,9.54040426 C6.17812268,9.4035379 6.21238127,9.26784134 6.25018384,9.13448437 C6.29093975,8.99738405 6.33464898,8.86285728 6.38308354,8.73300971 C6.43069116,8.60234328 6.48385103,8.4760051 6.5405549,8.35668571 Z M12.2825303,3.27110604 C12.3746741,3.27812483 12.4337406,3.28514362 12.4857192,3.2933322 L19.2441115,5.06908551 C19.1921329,5.05972713 19.1330664,5.05270834 19.0409226,5.04568955 C19.0090267,5.04334996 18.9771307,5.04218016 18.9428722,5.04218016 C18.9060146,5.0425311 18.8670307,5.0425311 18.8245028,5.04487069 C18.760711,5.04954989 18.6969191,5.05656867 18.5823301,5.07411564 C18.5768959,5.07575336 18.5709893,5.07575336 18.5650826,5.07692316 C18.4930215,5.08979094 18.4209603,5.10499831 18.3477178,5.12488487 C18.3016459,5.13775265 18.2543927,5.15296003 18.1823315,5.17635598 L18.1705182,5.1797484 C18.1291716,5.19378597 18.0783744,5.21367254 17.9236201,5.27801143 C17.8410451,5.31556194 17.7571706,5.35416528 17.6744775,5.3997874 C17.6709335,5.40224397 17.6626642,5.40692316 17.6484882,5.41628155 C17.5081462,5.50881257 16.8158864,5.99778811 15.4951588,7.48460132 L15.4930128,7.4845449 L15.3158056,7.68481099 C14.5040359,8.5968867 14.0121611,9.16157125 13.7475875,9.4682034 L13.6944566,9.52964212 C13.5645103,9.68054606 13.5030811,9.75307353 13.4948118,9.76360172 L13.4930064,9.76343292 L13.4874875,9.7752997 L13.4800451,9.78816747 C13.4174346,9.89344929 13.3560054,10.0092593 13.2981202,10.1309183 L6.53972797,8.35633477 C6.59761317,8.23350598 6.65786103,8.11886578 6.72165288,8.01241417 L6.72209224,8.01143331 L6.72909526,8.00071619 C6.73145792,7.99662189 6.73382059,7.9925276 6.73618325,7.98843331 C6.74587016,7.97849002 6.80611802,7.90596255 6.93606438,7.75505861 L6.93594625,7.75540955 C7.20174563,7.44658289 7.756971,6.809043 8.73747539,5.70943292 C10.0574942,4.2232046 10.7497539,3.73422906 10.8903322,3.64181502 C10.9042719,3.63233965 10.9125413,3.62766046 10.9160852,3.62532087 C10.9987784,3.57958177 11.0826529,3.54097843 11.165346,3.5035449 C11.3211635,3.43908903 11.3707794,3.41920247 11.412126,3.40516489 C11.4168513,3.40294227 11.4203953,3.40177248 11.4239393,3.40060268 C11.4960004,3.37720672 11.5432537,3.36316914 11.5893255,3.35030137 C11.662568,3.3304148 11.7346292,3.31520743 11.8066904,3.30233965 L11.8244103,3.30000005 L16.826,4.61259665 L11.8239378,3.29953213 C11.9385269,3.28198516 12.0035,3.27379658 12.0661106,3.27028718 L12.1273921,3.26780136 L12.1844799,3.26759665 C12.2187385,3.26759665 12.2506344,3.26876645 12.2825303,3.27110604 Z" id="形状结合" fill="url(#linearGradient-2)" fill-rule="nonzero"></path>
            <path d="M23.3606941,20.4151971 L16.6023019,18.6406136 C16.4758995,18.6078592 16.3695797,18.4616345 16.3577664,18.2768064 L23.1149774,20.0513899 C23.127972,20.236218 23.2342918,20.3824427 23.3606941,20.4151971" id="Fill-132" fill="url(#linearGradient-3)" fill-rule="nonzero"></path>
            <path d="M23.115568,20.0518578 L16.3571758,18.2772743 C16.3559944,18.2655763 16.3559944,18.2527086 16.3559944,18.2410106 L23.1143867,20.0155941 C23.1143867,20.0272921 23.115568,20.0401598 23.115568,20.0518578" id="Fill-134" fill="url(#linearGradient-4)" fill-rule="nonzero"></path>
            <path d="M14.8949248,23.3520918 L21.653317,25.1266753 C21.653317,25.1383733 21.6544984,25.1489015 21.6544984,25.1605995 L21.6549709,25.1607165 C21.6667842,25.3385258 21.773104,25.4905995 21.9042317,25.5245236 L15.1458394,23.7499401 C15.0147117,23.716016 14.9083919,23.5639422 14.8965786,23.386133 L20.2489248,24.7910918 L14.8961061,23.386016 C14.8961061,23.374318 14.8949248,23.36262 14.8949248,23.3520918 Z" id="形状结合" fill="#6E6E6E"></path>
            <polygon id="Fill-140" fill="#949494" points="22.0196477 22.7976076 15.2612554 21.0218543 18.8950283 20.0298656 25.6534205 21.8044491"></polygon>
            <polygon id="Fill-142" fill="#949494" points="23.4743381 16.6950056 16.7159459 14.9204221 18.7147572 14.3741264 25.4731495 16.1487099"></polygon>
            <polygon id="Fill-144" fill="#7D7D7D" points="21.653317 25.1269093 14.8949248 23.351156 14.8972874 21.6186852 21.6544984 23.3932687"></polygon>
            <path d="M14.923513,21.4393552 L21.6819052,23.2139387 C21.6771799,23.2314857 21.6724546,23.2490326 21.6689106,23.2665796 L15.3936968,21.6183222 L21.6685562,23.2664626 C21.6650122,23.2840096 21.6626496,23.3003868 21.6602869,23.3179337 C21.6580424,23.3354807 21.6556797,23.3530277 21.6556797,23.3705746 L21.655089,23.3933857 L21.655089,23.3933857 L14.8966968,21.6188022 C14.8966968,21.6117834 14.8966968,21.6035948 14.8978781,21.5954062 L14.8972874,21.5959911 C14.8984688,21.5784442 14.8996501,21.5608972 14.9020128,21.5433502 C14.9042573,21.5258033 14.90662,21.5094261 14.9113453,21.4918791 L14.9105183,21.4919961 C14.9140623,21.4744491 14.9187877,21.4569022 14.923513,21.4393552 Z M15.0059699,21.2504328 L21.7643621,23.0250163 C21.7513675,23.0472425 21.7383728,23.0718082 21.7265595,23.096374 L21.7006884,23.1580223 L21.7006884,23.1580223 L21.7010428,23.1579054 C21.6939548,23.1766221 21.6868668,23.1953389 21.6821415,23.2140557 L14.9237492,21.4394722 C14.9296559,21.4207554 14.9355626,21.4020386 14.9414692,21.3833219 L14.9416968,21.3823222 L14.9548478,21.3520005 C14.9591301,21.3416186 14.9635601,21.3313828 14.9682854,21.3214395 C14.9799806,21.2972247 14.9917939,21.272659 15.0059699,21.2504328 Z M15.2616098,21.0223222 L22.0200021,22.7980755 C22.0140954,22.7992453 22.0081887,22.8004151 22.0022821,22.8027547 L22.0027546,22.8031056 L21.968496,22.8178743 L21.968496,22.8178743 L21.9337649,22.8365619 C21.8995063,22.8599578 21.8652477,22.8915424 21.8345332,22.9278061 C21.8096071,22.9570511 21.7859805,22.9898054 21.7647165,23.0248993 L15.0063243,21.2503158 C15.0275882,21.2152219 15.0512148,21.1824675 15.0760228,21.1520528 C15.1080368,21.1169589 15.1411141,21.0853743 15.176554,21.0619784 L15.1766968,21.0613222 L15.2096608,21.0424135 C15.2210311,21.0367107 15.2325491,21.0320315 15.2443624,21.0285221 L20.5966968,22.4333222 L15.2438898,21.0281712 C15.2497965,21.0258316 15.2557031,21.023492 15.2616098,21.0223222 Z" id="形状结合" fill="#727272"></path>
            <polygon id="Fill-168" fill="#7D7D7D" points="23.1145048 20.0153601 16.3561126 18.2407766 16.3584752 15.5139776 23.1168675 17.2885611"></polygon>
            <path d="M16.4038383,15.2829425 L23.1622306,17.057526 L23.152337,17.0857473 L23.152337,17.0857473 L23.1429749,17.1147291 C23.1382496,17.1322761 23.1335243,17.149823 23.1299803,17.16737 C23.1266725,17.184917 23.1231286,17.2012941 23.1219472,17.2176713 L23.1188167,17.2432606 L23.1188167,17.2432606 L23.1167494,17.2679726 L23.1167494,17.289029 L23.1167494,17.289029 L16.3583571,15.5144455 C16.3583571,15.5074267 16.3583571,15.5004079 16.3595384,15.4922193 L16.3589478,15.4922193 L16.3608674,15.4680922 L16.3608674,15.4680922 L16.363555,15.4430878 C16.3659176,15.4267106 16.3682803,15.4103335 16.3718243,15.3927865 C16.375132,15.3752395 16.3798573,15.3576926 16.385764,15.3401456 L16.384937,15.3402626 C16.3908437,15.320376 16.3979317,15.3016592 16.4038383,15.2829425 Z M16.4711742,15.1431516 L23.2295664,16.9189049 C23.2142091,16.9423009 23.2012145,16.9668666 23.1894012,16.9926022 C23.1800687,17.0138925 23.170618,17.0349489 23.1623487,17.057175 L16.4039565,15.2825915 C16.4122258,15.2603654 16.4216764,15.239309 16.4311271,15.2182526 C16.4440036,15.1922831 16.4569982,15.1665476 16.4711742,15.1431516 Z M16.700116,14.9248673 L23.4585083,16.6994508 C23.4384257,16.7064696 23.4171617,16.7181676 23.3970791,16.7310354 L23.3975516,16.7312693 C23.3644744,16.7534955 23.3313971,16.7827404 23.3018639,16.8166646 L23.3024545,16.8165476 C23.2764653,16.8469623 23.2516573,16.8808865 23.229212,16.91832 L16.4708198,15.1425667 C16.4932651,15.106303 16.5168917,15.0723788 16.5440623,15.0419641 C16.5741862,15.0081569 16.6060821,14.9777422 16.6379781,14.9566858 L18.7623571,15.5138673 L16.6386869,14.9564519 C16.6587695,14.9435841 16.6788521,14.9318861 16.700116,14.9248673 Z" id="形状结合" fill="#727272"></path>
            <path d="M41.9999502,21.3020209 C41.9986649,23.5316558 41.8202839,24.5236445 41.8120146,24.5762854 C41.6324524,25.6080472 40.9035714,26.8000713 40.1746904,27.2527831 L39.6312784,27.6434957 C38.3601667,28.48692 37.089055,30.0708264 36.3589927,32.0033327 C35.6289304,33.9346691 35.4481868,35.9712874 35.8108553,37.8476433 L35.9880549,38.5495221 C36.1735238,39.7345274 35.8084926,41.0716065 35.2568112,41.9711811 C35.2296406,42.0027656 34.7145805,42.6063814 33.2568186,44.2499475 C31.8061446,45.8829855 31.1138849,46.302943 31.0772636,46.3251691 C31.0288291,46.3707912 30.9792132,46.412904 30.9272346,46.4515073 C30.8409975,46.511167 30.8055576,46.534563 30.7701177,46.5556193 C30.3129427,46.7299192 30.2515136,46.742787 30.1900844,46.7509756 C30.0932153,46.7626736 30.0246981,46.7650132 29.9549996,46.7650132 C29.8439545,46.760334 29.788432,46.754485 29.7329094,46.7474662 C29.620683,46.7299192 29.5545285,46.7147118 29.4895553,46.6959951 C29.3926862,46.6655803 29.3395263,46.6456938 29.2887291,46.6234676 C29.1824094,46.5766757 29.1221615,46.5462609 29.0654576,46.511167 C28.9922152,46.4643751 28.9449619,46.4316207 28.89889,46.3965268 C28.8079276,46.3216597 28.759493,46.2783772 28.7146025,46.2304155 L28.351934,45.833854 C27.2674725,44.6394903 25.8120732,44.2979093 24.3625806,44.693301 C22.7276191,45.1401638 21.455326,46.4807523 20.3625952,48.0155272 L19.9975641,48.6121241 C19.9526735,48.6858214 19.9018763,48.7560093 19.8498978,48.8250274 C19.7010501,49.0133648 19.5817357,49.139703 19.4529707,49.2531734 C19.3407443,49.3490969 19.2757711,49.4017378 19.2084353,49.4508693 C19.1340114,49.50468 19.0643129,49.5503021 18.9922518,49.5935846 C18.8717561,49.6649423 18.8020575,49.7035456 18.732359,49.7374698 C18.6496659,49.7784127 18.5776047,49.8088275 18.5055436,49.8369026 C18.3826852,49.8836945 18.3118054,49.9070905 18.2421069,49.9258073 C17.895977,49.9971649 17.7589426,50.0065233 17.6337216,49.9971649 C17.606551,49.9924857 17.0914909,49.9024113 15.4577107,48.6156335 C14.0023114,48.0202064 13.4872513,47.4587033 13.4600807,47.4282886 C12.732381,46.8773138 12.5551814,45.4466509 12.7347437,44.4043609 L12.9213939,43.6135774 C13.2876064,41.5278277 13.1033188,39.591812 12.3768005,38.0570371 C11.6573702,36.5210924 10.3803518,35.6343855 9.10924012,35.4846514 L8.56819071,35.388728 C7.83930974,35.3349173 7.11161011,34.5406244 6.93441052,33.6059559 C6.92495987,33.5708619 6.75721093,32.9040771 6.75952466,30.4311242 C6.76075492,28.2014893 6.93086653,27.2118402 6.94031717,27.1591993 C7.11987942,26.1169093 7.84876039,24.9354134 8.57764136,24.4827016 L9.1198721,24.0908192 C10.3909838,23.2473949 11.6703648,21.6623187 12.5799894,19.6713225 C13.3088703,17.7388163 13.4896139,15.713896 13.1269454,13.8270119 L12.9485645,13.1356613 C12.585896,12.2419357 12.9509272,10.6521802 13.4943392,9.7631338 C13.5215098,9.73154925 14.0377513,9.11857512 15.4955132,7.48436737 C16.9450059,5.85249921 17.6372656,5.42201356 17.6738868,5.3997874 C17.7577613,5.35416528 17.8404545,5.31556194 17.9231476,5.27812841 C18.0932592,5.20794053 18.1381498,5.19039356 18.181859,5.17635598 C18.2551015,5.15296003 18.3011734,5.13775265 18.3472453,5.12488487 C18.4204878,5.10499831 18.4937303,5.08979094 18.5646101,5.07692316 C18.6910125,5.05703659 18.7583483,5.04884801 18.8245028,5.04533861 C18.9060146,5.04065942 18.9745318,5.04182922 19.0418677,5.04533861 C19.1564567,5.054697 19.2214299,5.06288558 19.2828591,5.07692316 C19.3537389,5.09096073 19.4151681,5.1096775 19.475416,5.13073386 C19.5781917,5.170507 19.6360769,5.19624255 19.6904181,5.2266573 C19.7518473,5.26058144 19.8038259,5.29801497 19.8546231,5.33661831 C19.9432229,5.40914578 19.9916574,5.4535981 20.036548,5.50389941 L20.2149289,5.95193203 C21.3064784,7.13342798 22.7618777,7.48553716 24.2113703,7.09014545 C25.8463318,6.64328263 27.1174435,5.30269416 28.2113556,3.76791924 L28.5763868,3.17249207 C28.6224587,3.09645521 28.6732559,3.02392773 28.7252344,2.95373986 C28.8185596,2.83559026 28.8740821,2.76891178 28.9331486,2.70574269 C28.9969405,2.6390642 29.059551,2.58057431 29.1221615,2.524424 C29.2367506,2.42616097 29.3029051,2.37352007 29.3714223,2.32321875 C29.4446648,2.27057785 29.5143633,2.22612552 29.5840618,2.182843 C29.7081015,2.11031552 29.7801626,2.07054239 29.8522238,2.03544846 C29.9337356,1.99567532 30.0022528,1.96760017 30.07077,1.94069482 C30.2007163,1.89156331 30.2715962,1.86816735 30.342476,1.84828078 C30.3850039,1.8365828 30.4275318,1.82722442 30.471241,1.81786603 C30.5397582,1.80382846 30.5799235,1.79680967 30.6200887,1.79213048 C30.8480855,1.77224391 30.8941574,1.77341371 30.9402293,1.77575331 C30.9756692,1.7792627 31.6608409,1.83307341 33.2946211,2.62268703 C34.7500204,3.2181142 35.2650805,3.78078702 35.2922511,3.81003196 C36.0199508,4.35047862 36.2042384,5.78933012 36.0175881,6.8339597 L35.8380259,7.62240352 C35.4718134,9.70932309 35.649013,11.6359803 36.3755313,13.1707553 C37.1020496,14.7148886 38.37198,15.6051048 39.6430917,15.7536692 L40.1853224,15.8495926 C40.9130221,15.9034033 41.6407217,16.6883377 41.8179213,17.6323647 C41.8273719,17.6791566 42.0033902,18.5752218 41.9999502,21.3020209 Z" id="Fill-216" fill="url(#linearGradient-5)" fill-rule="nonzero"></path>
            <path d="M27.6136314,21.291514 L27.6038588,33.1441571 L28.8854756,32.789908 C29.1060589,32.7296997 29.3154735,32.9747337 29.3154735,33.2645738 L29.5332646,34.9882128 C29.5332646,35.2794532 29.3140774,35.6435036 29.1032667,35.7023118 L22.8752789,37.4245505 C22.6560917,37.4847589 22.4452811,37.2397249 22.4452811,36.9484845 L22.4480733,35.1646372 C22.4480733,34.8747971 22.6588839,34.5121468 22.8780711,34.4519384 L24.3802712,34.0360808 L24.3886478,24.8522076 L22.8864477,25.2680653 C22.6672605,25.3282736 22.4564498,25.0832397 22.4564498,24.7933995 L22.4578459,22.7183118 C22.4578459,22.4144697 22.6700526,22.0644212 22.8892398,22.0042128 L27.1836336,20.8168482 C27.3958403,20.7580401 27.6136314,20.9876719 27.6136314,21.291514 Z M27.4008663,14.5219956 L27.3980741,17.785848 C27.396678,18.08829 27.1872635,18.4383385 26.9666802,18.4985468 L24.6044844,19.1524375 C24.3936738,19.2112456 24.1828632,18.9774132 24.1828632,18.6749713 L24.1856553,15.4111188 C24.1870514,15.1198785 24.3978621,14.7586284 24.6086727,14.6998202 L26.9708685,14.0473298 C27.1914518,13.9857212 27.4008663,14.2307552 27.4008663,14.5219956 Z" id="形状结合" fill="#949494"></path>
            <mask id="mask-7" fill="white">
                <use xlink:href="#path-6"></use>
            </mask>
            <g id="Clip-223"></g>
        </g>
    </g>
</svg>