<?xml version="1.0" encoding="UTF-8"?>
<svg width="50px" height="50px" viewBox="0 0 50 50" version="1.1" xmlns="http://www.w3.org/2000/svg" xmlns:xlink="http://www.w3.org/1999/xlink">
    <title>系统安全自查</title>
    <defs>
        <linearGradient x1="41.8647824%" y1="117.463666%" x2="78.4953585%" y2="-3.15327199%" id="linearGradient-1">
            <stop stop-color="#003B7C" offset="0%"></stop>
            <stop stop-color="#4EA2FF" offset="100%"></stop>
        </linearGradient>
        <linearGradient x1="44.8600333%" y1="103.340994%" x2="221.391717%" y2="-404.627616%" id="linearGradient-2">
            <stop stop-color="#003B7C" offset="0%"></stop>
            <stop stop-color="#4EA2FF" offset="100%"></stop>
        </linearGradient>
        <linearGradient x1="65.7589997%" y1="1.62583954%" x2="37.4414378%" y2="96.0220686%" id="linearGradient-3">
            <stop stop-color="#C3EEFF" offset="0%"></stop>
            <stop stop-color="#25A8FF" offset="100%"></stop>
        </linearGradient>
    </defs>
    <g id="页面-1" stroke="none" stroke-width="1" fill="none" fill-rule="evenodd">
        <g id="编组-107" transform="translate(5.000000, 0.000000)">
            <path d="M28.2203188,28.8190675 L34.9482344,30.6129419 C35.2752809,30.7002115 35.5185019,30.96947 35.5861656,31.3517532 L35.6012573,31.4830675 L35.6025627,31.4832725 C35.6037387,31.5128354 35.6049147,31.5435807 35.6049147,31.5743261 L35.6035035,31.6321511 L35.5995344,31.6970415 L35.5928018,31.7604539 C35.5880978,31.8006594 35.5810418,31.8408649 35.5728098,31.8798878 C35.5652833,31.9197386 35.5546993,31.9587616 35.5441153,31.9977845 L29.8007344,30.4650675 L35.5438801,31.9982575 C35.53212,32.0396455 35.519184,32.079851 35.503896,32.121239 L35.5028844,32.1210675 L35.4769655,32.1909483 C35.4675575,32.2140073 35.4575614,32.2367707 35.4469774,32.2592385 C35.4208701,32.3162357 35.39147,32.3718138 35.3597179,32.425027 L28.6318024,30.6311526 C28.6635545,30.5779395 28.6929546,30.5223613 28.7188267,30.4656006 C28.7402299,30.419246 28.759046,30.3743105 28.776686,30.3270099 C28.7912685,30.2859766 28.8042045,30.2457712 28.8159645,30.2032006 C28.8279598,30.1648872 28.8373678,30.1258642 28.8455998,30.0856587 C28.8531262,30.0469905 28.8601823,30.006785 28.8648863,29.9665795 C28.8708839,29.9246002 28.8744119,29.8808472 28.8767639,29.8382767 L28.8758231,29.8383949 L28.8769991,29.7804517 C28.8769991,29.7497064 28.8758231,29.718961 28.8734711,29.6893981 C28.8436006,29.2376776 28.5837039,28.9160337 28.2203188,28.8190675 Z M11.3946499,39.4808541 L4.66673436,37.6869797 C4.7161265,37.6952573 4.76669465,37.6999873 4.8196148,37.7011699 L11.3887344,39.4520675 L4.8194972,37.7008151 L4.90696246,37.6972676 L4.99636812,37.6863884 C5.03988024,37.6804759 5.08339237,37.6710157 5.1280805,37.6580081 L5.12873436,37.6570675 L27.6841788,31.4020338 L28.3337344,31.5740675 L27.6848844,31.4019155 C27.7142845,31.3936379 27.7425086,31.3841778 27.7707327,31.3747177 C27.8833938,31.3346304 27.9904101,31.2790523 28.0915464,31.2104664 C28.1782571,31.1532721 28.2597933,31.0857374 28.3355802,31.01102 L28.4442573,30.8930675 L28.4441123,30.8939073 C28.5134965,30.8123138 28.5770006,30.7236252 28.6310968,30.6313891 L35.3601883,32.4252635 L35.2714001,32.5605136 L35.1715574,32.6877817 C35.0668931,32.8095807 34.9481168,32.918372 34.8199324,33.0046956 C34.7183257,33.0729266 34.6101334,33.1285048 34.498413,33.1687103 L34.4556947,33.1826492 L34.4556947,33.1826492 L34.4132704,33.1959081 L11.85482,39.453065 L11.7895519,39.4690289 L11.7238133,39.4816818 C11.6638371,39.4911419 11.6050369,39.4946895 11.5474128,39.4946895 C11.4946102,39.4938617 11.4440421,39.4891317 11.3946499,39.4808541 Z" id="形状结合" fill="#FFEAA4"></path>
            <path d="M31.383768,0.000126697975 C31.469969,0.000717955187 31.5534653,0.00899555616 31.6369615,0.0231857293 L31.6395482,0.024 L31.7018475,0.0361933879 C31.7237506,0.0409234456 31.7455066,0.0462447606 31.7666747,0.0521573327 L38.4934143,1.84603172 C38.4510781,1.83538909 38.408742,1.82474646 38.3640539,1.81765137 L31.797,0.065 L38.3637011,1.81824263 L38.2394857,1.80065272 L38.1105075,1.79400108 C38.0199553,1.79281857 37.927051,1.79991365 37.8317947,1.81528634 L37.8295482,1.814 L37.73107,1.83462045 C37.6972599,1.84201117 37.6631558,1.85028877 37.6284637,1.85974888 L9.13049053,9.76497607 C9.0843912,9.77751072 9.03852706,9.79170089 8.99266293,9.8082561 L8.99278053,9.80778309 C8.81402801,9.87282138 8.63997951,9.96269248 8.47298702,10.0750313 C8.24766477,10.2274575 8.03598415,10.4213898 7.84311959,10.6472501 C7.7438649,10.7636883 7.64910516,10.8892188 7.56037352,11.0219845 L7.431,11.2259928 L7.4325768,11.2269187 C7.35260857,11.3605428 7.27969635,11.5000795 7.21266416,11.6455288 C7.15574559,11.7661452 7.10517745,11.8914918 7.05813731,12.0180208 L6.99629423,12.1961666 L6.94194817,12.3785694 L6.89432003,12.5559466 L6.85398312,12.7373443 C6.82811104,12.8603258 6.80811898,12.9844898 6.79165494,13.1098364 L6.79200774,13.1099546 C6.77436768,13.2459438 6.76260765,13.3831155 6.75672763,13.5214696 C6.75378763,13.5849707 6.75261162,13.6488264 6.75261162,13.7126822 L6.727,40.843 L6.72826835,40.8439384 C6.72826835,40.9468172 6.73179636,41.0473309 6.73767638,41.1454796 C6.81999662,42.3800247 7.41740635,43.270458 8.23472873,43.4880407 L1.50681318,41.6941663 C0.689490804,41.4765837 0.093257071,40.5861503 0.00976082836,39.3504227 C0.00388081127,39.252274 0.000352801023,39.1517603 0.000352801023,39.0500641 L4.119,40.148 L1.7408297e-13,39.0489998 L0.0246960718,11.9185713 C0.0246960718,11.8549521 0.0258720752,11.7910963 0.028224082,11.7272405 C0.0346921008,11.5892411 0.046452135,11.4520694 0.0640921862,11.3160802 C0.0790274296,11.1906155 0.101371495,11.0652689 0.126067566,10.9422874 L0.166433884,10.7619835 L0.214,10.5839928 L0.213679821,10.5843403 C0.248959923,10.4613588 0.287768036,10.3419249 0.330104159,10.2236734 C0.377261896,10.0964349 0.429006047,9.97227085 0.484278207,9.85165437 C0.551780803,9.7062051 0.624693015,9.5666684 0.704661248,9.43186175 L0.705,9.43099275 L0.832475397,9.228097 C0.921241877,9.09530501 1.01610615,8.9696957 1.11567444,8.85302094 C1.3080686,8.62751544 1.51974922,8.43358308 1.74436587,8.28103872 L2.202,8.40299275 L1.74507147,8.28115697 C1.91088795,8.1688181 2.08493646,8.078947 2.26486498,8.01390871 C2.31061151,7.99782651 2.35647565,7.98363634 2.40233978,7.97062868 L7.878,9.43 L2.40257498,7.96991917 L30.9006658,0.0659927515 C30.9687564,0.0469542692 31.0369646,0.0327640961 31.1039968,0.0209389519 L31.1065482,0.021 L31.2451466,0.00456112707 L31.3829448,0.000717955187 L31.383768,0.000126697975 Z" id="形状结合" fill="url(#linearGradient-1)" fill-rule="nonzero"></path>
            <path d="M26.859918,19.6862721 C26.8069979,19.9428777 26.7446697,20.1994834 26.6717575,20.453724 L24.2514827,19.8077254 L24.2524827,19.8087254 L26.6712871,20.454197 C26.5983749,20.7131676 26.5148786,20.9709558 26.4219744,21.2240139 C26.3223669,21.4968199 26.2118226,21.7640682 26.0906942,22.0265864 L25.4914827,21.8657254 L25.4924827,21.8677254 L26.0902238,22.0268229 C26.0186456,22.1813911 25.9435549,22.3347819 25.8649518,22.4846461 L25.864784,22.4851655 L29.5962428,26.5216785 C29.6832671,26.6186447 29.7326592,26.7605464 29.7432432,26.9166383 C29.7455952,26.9506947 29.7455952,26.9873527 29.7444192,27.0228281 L29.7433273,27.0226216 L29.7414204,27.0678523 L29.7373632,27.1122262 C29.7338352,27.139424 29.7291312,27.1666218 29.7232512,27.1938197 L29.7144899,27.2331678 L29.7041999,27.2722204 C29.6971439,27.2982357 29.6889119,27.324251 29.6795038,27.3490838 C29.669743,27.3767547 29.657983,27.40277 29.6462229,27.4287853 L29.6240259,27.474253 L29.5987124,27.5180651 L23.0586013,25.7820802 L29.5948316,27.525515 L29.4101991,27.8329687 L29.4087884,27.8326216 L29.3695387,27.8945777 C29.3555737,27.9140892 29.3411677,27.9324182 29.3264676,27.9495646 L26.9324827,27.3107254 L29.3261148,27.9501559 L29.2601116,28.0182983 L29.2601116,28.0182983 L29.1901688,28.0729009 C29.1513607,28.0989162 29.1125526,28.1178364 29.0737445,28.1320266 L29.0707884,28.1316213 L29.0361124,28.1438222 L28.9984803,28.1516564 L28.9947884,28.1506213 L28.967522,28.1552335 C28.9570849,28.1559725 28.9465009,28.1562682 28.9359169,28.1562682 C28.917336,28.1563864 28.89852,28.1540214 28.8797039,28.1516564 L28.8707884,28.1496213 C28.8604175,28.1476358 28.8557134,28.1464533 28.8510094,28.1452708 L23.0777884,26.6036216 L23.4266013,26.6960802 L22.1517884,26.3565995 C22.1706044,26.360147 22.1894205,26.362512 22.2082365,26.362512 L22.2393124,26.3613591 L22.2705647,26.357782 C22.2952608,26.3530519 22.3211329,26.3471393 22.3458289,26.3376792 C22.385813,26.3239621 22.4246212,26.3050418 22.4610773,26.2790265 C22.509999,26.2473351 22.5558631,26.2047646 22.5981993,26.155099 L22.5987884,26.1546213 L22.6416232,26.1002599 L22.6820483,26.0386213 L22.6827884,26.0376216 L22.8460784,25.767661 C22.8330335,25.7747852 22.8200191,25.7818563 22.8070575,25.7888743 C22.7800094,25.8030645 22.7529613,25.8172546 22.7270892,25.8302623 C22.6753451,25.8562776 22.6236009,25.8822929 22.5730328,25.9059432 C22.5459847,25.9177684 22.5189366,25.930776 22.4918886,25.9426012 C22.4354404,25.9686165 22.3778162,25.9922668 22.3213681,26.0159171 L22.2613919,26.0395673 C22.2190558,26.0573051 22.1755436,26.0726778 22.1332075,26.0880504 L22.1304827,26.0877254 L22.083198,26.1051673 C22.0662929,26.1109321 22.0492409,26.116549 22.0321888,26.1218704 L21.9780927,26.1384256 C21.9310525,26.1537982 21.8863644,26.1679884 21.8111002,26.1869086 C21.735836,26.2070114 21.6593957,26.2259316 21.5829555,26.2413043 C21.5653155,26.2460344 21.5476754,26.2507644 21.5300354,26.2531295 C21.4841712,26.2625896 21.4383071,26.2708672 21.392443,26.2779623 C21.3437564,26.2863581 21.2955403,26.2922707 21.2485001,26.2981833 L21.182644,26.3040958 C21.1120837,26.3123734 21.0403475,26.318286 20.9697873,26.3218335 C20.9380352,26.3230161 20.9062831,26.3241986 20.8757071,26.3241986 L20.8133789,26.3252333 L20.7508155,26.3254993 C20.7319994,26.3243168 20.7120074,26.3243168 20.6920153,26.3243168 C20.6590872,26.3231343 20.6261591,26.3219518 20.593231,26.3195868 C20.5309029,26.3172217 20.4685747,26.3113092 20.4074225,26.3042141 C20.3780224,26.3006665 20.3486223,26.2983015 20.3203982,26.294754 L13.5924827,24.5008796 C13.6218828,24.5044271 13.6501069,24.5067921 13.6795069,24.5103397 C13.7406591,24.5174348 13.8029873,24.5221648 13.8653155,24.5257124 C13.8982436,24.5280774 13.9311717,24.5292599 13.9652758,24.5304424 L14.024076,24.5304424 C14.0642953,24.5315067 14.1066314,24.5315067 14.1477915,24.5303242 C14.1795436,24.5291417 14.2101197,24.5291417 14.2418718,24.5267766 C14.312432,24.5244116 14.3829922,24.518499 14.4547284,24.5102214 L14.5205846,24.5043089 L14.665233,24.4842061 L14.665233,24.4842061 C14.7103915,24.4769928 14.7562557,24.4687152 14.8021198,24.4592551 C14.8197599,24.4557075 14.8373999,24.45216 14.85504,24.4474299 C14.9314802,24.4308747 15.0079204,24.413137 15.0843606,24.3930343 C15.1584488,24.374114 15.204313,24.3587413 15.2490011,24.3445512 L15.3054493,24.327996 L15.3054493,24.327996 L15.4054096,24.2937031 C15.4476281,24.2788034 15.4911402,24.2634307 15.5334763,24.245693 L15.5934525,24.2220427 C15.6510767,24.1983924 15.7075248,24.1747421 15.763973,24.1487268 C15.7910211,24.1369016 15.8180692,24.123894 15.8451172,24.1120688 C15.8968614,24.0884185 15.9474295,24.0624032 15.9991737,24.0363879 L16.0200366,24.0251799 C15.4220046,23.7157267 15.0537428,23.3121494 14.9152513,22.8144482 C14.4883468,21.2802673 15.8682581,17.4988074 19.0549853,11.4700685 C18.5162779,10.7777387 17.8336629,10.3016261 17.0599288,10.0957254 L23.7878443,11.8895997 C25.5741935,12.366153 26.8760293,14.2806439 27.0536058,16.9483964 L22.1434827,15.6387254 L27.0539586,16.9489877 C27.0668947,17.1582928 27.0751267,17.3723279 27.0739507,17.591093 C27.0751267,17.7377248 27.0715987,17.8855391 27.0657186,18.0333534 C27.0578786,18.2233441 27.0442893,18.4143859 27.025299,18.6054276 L26.9930416,18.8923319 L26.9336535,19.2895089 L26.9336535,19.2895089 L26.859918,19.6862721 Z" id="形状结合" fill="#FFEAA4"></path>
            <path d="M10.0309563,41.6772564 L16.7588719,43.4711307 C16.7459359,43.5302565 16.7318238,43.5893822 16.7153598,43.6485079 L11.4983408,42.2568705 L16.715595,43.6489809 C16.6991309,43.7081066 16.6791389,43.7672324 16.6579708,43.8251756 C16.6356267,43.8870211 16.6097547,43.9473293 16.5827066,44.0076375 L9.85479104,42.2125806 C9.88301512,42.1534549 9.90771119,42.0931467 9.93005525,42.0316559 C9.95122332,41.973358 9.97003937,41.9142322 9.98767942,41.853924 C10.0039083,41.7955078 10.0191963,41.7363821 10.0309563,41.6772564 Z M10.0797605,41.2851346 L16.807676,43.079009 C16.804148,43.1464123 16.798268,43.2149981 16.790036,43.283584 C16.7825096,43.3464937 16.7719255,43.4079845 16.7589895,43.4706577 L10.0310739,41.6767834 C10.04401,41.6141101 10.054594,41.5514368 10.062826,41.4899461 L15.1013408,42.8328705 L10.0621204,41.4897096 C10.0715285,41.4211237 10.0774085,41.3525379 10.0797605,41.2851346 Z M9.3273535,39.8638705 L16.0552691,41.6577449 C16.2057975,41.6991329 16.3445659,41.7842739 16.4609902,41.9143505 C16.6656148,42.1413933 16.7796872,42.4701323 16.8043832,42.8331642 C16.8095576,42.9131022 16.8107336,42.9958782 16.8072056,43.0786542 L10.0792901,41.2847798 C10.0828181,41.2020038 10.0816421,41.1192278 10.0769381,41.0388168 C10.0529476,40.6762579 9.93769928,40.3463364 9.73307468,40.1204761 C9.61665034,39.9903995 9.47788194,39.904076 9.3273535,39.8638705 Z M14.164138,48.5471922 L14.1646084,48.5470739 C14.1634324,48.5801843 14.1622564,48.6132947 14.1622564,48.6464051 L14.1632854,48.7235642 L14.1673132,48.7990677 C14.2084733,49.4198878 14.5071782,49.8656957 14.9152513,49.9744871 L8.18733579,48.1806127 C7.78043861,48.0718214 7.48055774,47.6260134 7.43939762,47.0051934 L7.43904482,47.0050751 C7.43551681,46.9554095 7.4343408,46.9045614 7.4343408,46.8525307 C7.4343408,46.8197514 7.4343408,46.7869721 7.43662295,46.7541928 L7.43622241,46.7533178 C7.43975042,46.6847319 7.44563044,46.6161461 7.45386246,46.5475603 C7.46221208,46.486779 7.47162011,46.4264708 7.48455615,46.3661626 L7.48385055,46.3658078 C7.49678658,46.3078646 7.50972262,46.2511039 7.52618667,46.1943432 C7.54159231,46.1364 7.56158437,46.0796393 7.58157643,46.0228786 C7.58381084,46.0157835 7.58733885,46.0075059 7.59086686,45.9992283 L7.59004365,45.9998196 L9.73154588,42.4463637 L9.73084028,42.4458907 L9.74612832,42.4198754 L12.9843408,43.2828705 L9.74683392,42.4198754 C9.78681804,42.3524721 9.82209814,42.2838863 9.85502624,42.2129354 L16.5829418,44.0079923 C16.5500137,44.0777606 16.5147336,44.1463465 16.4747495,44.2137498 L16.4587558,44.2397651 L10.0533408,42.5318705 L16.4582854,44.2402381 L14.3176064,47.7931027 L14.3093744,47.8179355 C14.2883239,47.8735137 14.2706839,47.9314569 14.2542198,47.9882176 C14.2376382,48.0449783 14.2235261,48.1029215 14.2117661,48.1596822 L10.8473408,47.2622283 L14.2112957,48.1600369 C14.1995357,48.2203452 14.1889516,48.2806534 14.1818956,48.3421442 C14.17237,48.4100205 14.16649,48.4786063 14.164138,48.5471922 Z" id="形状结合" fill="url(#linearGradient-2)" fill-rule="nonzero"></path>
            <path d="M20.0522695,26.2488724 C20.0017013,26.2382298 19.9499572,26.2252221 19.899389,26.2122145 L13.1714735,24.4183401 C13.2220416,24.4313477 13.2737858,24.4431729 13.3255299,24.454998 L13.3965311,24.4683013 L13.3965311,24.4683013 L13.4598295,24.4794761 C13.5068696,24.4889362 13.5492058,24.4948488 13.5927179,24.5007613 L20.3206334,26.2946357 C20.2782973,26.2899057 20.2359612,26.2828106 20.1877451,26.274533 C20.1475257,26.2666101 20.1040136,26.259515 20.0522695,26.2488724 Z" id="形状结合" fill="#7F7F7F"></path>
            <path d="M34.4128,33.1957899 C35.0631299,33.0148652 35.6040915,32.2911664 35.6052675,31.5745626 C35.6052675,30.867419 35.0654819,30.4428963 34.415152,30.623821 L11.8570545,36.8805048 C11.1984925,37.0637946 10.665761,37.7851284 10.665761,38.492272 C10.664587,39.2088757 11.1961405,39.6345809 11.8547024,39.4524737 L34.4128,33.1957899 L34.4128,33.1957899 Z M21.6578669,11.9850286 C18.8542748,12.8955648 16.6092843,16.6642382 16.6057533,20.5156877 C16.6045802,22.0115685 16.9585573,23.3785551 17.6006551,24.4085252 C17.6594553,24.5043089 17.7217835,24.5953625 17.7841117,24.6828685 C17.8041037,24.7100664 17.8252718,24.7360817 17.8452639,24.7632795 C17.889952,24.8224052 17.9346401,24.8803485 17.9805042,24.9371091 C18.0052003,24.966672 18.0298964,24.9950524 18.0545925,25.0234327 C18.0981046,25.0742808 18.1427927,25.1227639 18.1874808,25.1700645 C18.2145289,25.1972623 18.240401,25.2256427 18.2662731,25.251658 C18.3144892,25.3001411 18.3650574,25.3462591 18.4144495,25.3911947 C18.4379696,25.4124799 18.4614896,25.4349477 18.4850097,25.4550505 C18.5579219,25.5189062 18.6331861,25.580397 18.7096264,25.6359752 C18.7966506,25.699831 18.8695628,25.748314 18.943651,25.7956146 C18.9695231,25.8109873 18.9953952,25.82636 19.0212673,25.8405502 C19.0765394,25.8736606 19.1329876,25.9055885 19.1894358,25.9351513 C19.2176598,25.950524 19.2470599,25.9635317 19.275284,25.9777218 C19.3305562,26.0049197 19.3881803,26.030935 19.4446285,26.0545853 C19.4740286,26.0675929 19.5022527,26.0794181 19.5316528,26.0912432 C19.5928049,26.1148935 19.6551331,26.1361788 19.7174613,26.1562815 C19.7409814,26.1645591 19.7656774,26.1740192 19.7891975,26.1811143 C19.8762218,26.2071296 19.964422,26.2295974 20.0526223,26.2485176 C20.1643426,26.2709854 20.2419588,26.2839931 20.320751,26.2946357 C20.3489751,26.2981833 20.3783752,26.3005483 20.4065993,26.3040958 C20.4689275,26.3111909 20.5300797,26.3171035 20.5935838,26.320651 C20.6253359,26.3218335 20.65944,26.3230161 20.6923681,26.3241986 C20.7535203,26.3253811 20.8146725,26.3253811 20.8758247,26.3241986 C20.9064007,26.3230161 20.9381528,26.3230161 20.9699049,26.3218335 C21.0404651,26.318286 21.1110253,26.3123734 21.1827616,26.3040958 C21.2051056,26.3017308 21.2262737,26.3005483 21.2486177,26.2981833 C21.341522,26.2875406 21.4356023,26.2721679 21.5296826,26.2532477 C21.5473226,26.2497002 21.5649627,26.2461526 21.5826027,26.2414226 C21.6590429,26.2248674 21.7354832,26.2071296 21.8119234,26.1870269 C21.8860116,26.1681067 21.9318757,26.152734 21.9777399,26.1385438 C21.9953799,26.1326312 22.014196,26.1279012 22.033012,26.1219886 C22.1094522,26.0971558 22.1858925,26.069958 22.2611567,26.0403951 C22.2811487,26.0321175 22.3011408,26.0238399 22.3211329,26.0155623 C22.378757,25.9930945 22.4352052,25.9682617 22.4916534,25.9434289 C22.5187014,25.9304213 22.5457495,25.9185961 22.5727976,25.9055885 C22.6245417,25.8819382 22.6751099,25.8559229 22.726854,25.8299075 C22.7527261,25.8168999 22.7797742,25.8038922 22.8068223,25.7885195 C22.8691505,25.7554091 22.9303026,25.7222987 22.9914548,25.6856408 L23.0349669,25.660808 C23.1102312,25.6158724 23.1854954,25.5685719 23.2595836,25.5189062 C23.2807516,25.5047161 23.3019197,25.4905259 23.3230878,25.4763357 C23.3771839,25.4384953 23.4312801,25.4006548 23.4853762,25.3616318 C23.5112483,25.3427116 23.5371204,25.3237914 23.5629925,25.3036886 C23.6147366,25.2646656 23.6664808,25.2244602 23.7182249,25.1830721 L23.7876091,25.127494 C23.8534653,25.0719158 23.9204975,25.0163376 23.9863537,24.9572119 C24.079258,24.8732534 24.1509942,24.80585 24.2215544,24.7372642 C24.2450745,24.715979 24.2662425,24.6935112 24.2885866,24.6710434 C24.3379787,24.6213778 24.3873709,24.5705297 24.436763,24.518499 C24.4614591,24.4924837 24.4861552,24.4652859 24.5108512,24.4392706 C24.5590674,24.3872399 24.6061075,24.3328443 24.6543236,24.2784486 C24.6766677,24.2536158 24.6990118,24.228783 24.7213558,24.2015852 C24.789564,24.1211742 24.8577722,24.0395807 24.9236284,23.9556222 L28.6774313,28.0364795 C28.8773519,28.2576097 29.2101609,28.1653735 29.4100815,27.833087 L29.594714,27.5256332 C29.7946346,27.1933467 29.7958106,26.7416262 29.59589,26.520496 L25.8644312,22.4857567 C26.6500014,20.987511 27.0804187,19.2492148 27.0745387,17.5913295 C27.0780667,13.657104 24.7354679,11.1217931 21.8507315,11.9211729 L21.6578669,11.9850286 L21.6578669,11.9850286 Z M37.6279933,1.85915763 C38.9380611,1.4961257 40.0023442,2.67627509 39.9999961,4.49025222 L39.9764722,31.6218632 C39.9741202,33.4358403 38.9074851,35.2060644 37.5985933,35.579739 L31.3399031,37.3156702 C30.1556676,39.1698528 30.1544916,39.2266135 30.1544916,39.2833742 C30.1533156,39.724452 30.279148,40.1087692 30.5002366,40.3547322 L32.6358588,42.712666 C32.9616118,43.4008894 32.7605152,44.4710649 32.1901535,45.0800599 C32.012577,45.2728097 31.8056004,45.4017038 31.5986238,45.459647 L15.3439046,49.967392 C14.6923987,50.1483167 14.1608451,49.558242 14.1620212,48.6465234 C14.1620212,48.3591724 14.2137653,48.0682738 14.3184296,47.7939305 L16.4587558,44.2392921 C16.9256292,43.4753878 16.9268052,42.430045 16.4611078,41.9144688 C16.2388432,41.6685058 15.9366103,41.5774521 15.6249694,41.6637757 L9.10050244,43.4742053 C7.79043464,43.8372372 6.72615154,42.6570878 6.72732657,40.8442932 L6.75202362,13.7126822 C6.75437563,11.8987051 7.82101073,10.128481 9.12990253,9.76544907 L37.6279933,1.85915763 Z" id="Fill-175" fill="url(#linearGradient-3)" fill-rule="nonzero"></path>
        </g>
    </g>
</svg>