<?xml version="1.0" encoding="UTF-8"?>
<svg width="50px" height="50px" viewBox="0 0 50 50" version="1.1" xmlns="http://www.w3.org/2000/svg" xmlns:xlink="http://www.w3.org/1999/xlink">
    <title>受损</title>
    <defs>
        <linearGradient x1="50%" y1="98.4378212%" x2="114.003738%" y2="6.24671782%" id="linearGradient-1">
            <stop stop-color="#003B7C" offset="0%"></stop>
            <stop stop-color="#4EA2FF" offset="100%"></stop>
        </linearGradient>
        <linearGradient x1="12.1560845%" y1="124.544481%" x2="230.439634%" y2="31.8701685%" id="linearGradient-2">
            <stop stop-color="#003B7C" offset="0%"></stop>
            <stop stop-color="#4EA2FF" offset="100%"></stop>
        </linearGradient>
        <linearGradient x1="12.1560845%" y1="599.437817%" x2="230.439634%" y2="-83.6278011%" id="linearGradient-3">
            <stop stop-color="#003B7C" offset="0%"></stop>
            <stop stop-color="#4EA2FF" offset="100%"></stop>
        </linearGradient>
        <linearGradient x1="52.3299878%" y1="185.357469%" x2="88.824913%" y2="-144.255597%" id="linearGradient-4">
            <stop stop-color="#003B7C" offset="0%"></stop>
            <stop stop-color="#4EA2FF" offset="100%"></stop>
        </linearGradient>
        <linearGradient x1="56.973158%" y1="185.357469%" x2="72.6712008%" y2="-53.1237119%" id="linearGradient-5">
            <stop stop-color="#003B7C" offset="0%"></stop>
            <stop stop-color="#4EA2FF" offset="100%"></stop>
        </linearGradient>
        <linearGradient x1="64.6706524%" y1="1.62583954%" x2="38.3087566%" y2="96.0220686%" id="linearGradient-6">
            <stop stop-color="#C3EEFF" offset="0%"></stop>
            <stop stop-color="#25A8FF" offset="100%"></stop>
        </linearGradient>
        <linearGradient x1="46.0951055%" y1="281.838614%" x2="123.892128%" y2="-60.0009125%" id="linearGradient-7">
            <stop stop-color="#003B7C" offset="0%"></stop>
            <stop stop-color="#4EA2FF" offset="100%"></stop>
        </linearGradient>
    </defs>
    <g id="页面-1" stroke="none" stroke-width="1" fill="none" fill-rule="evenodd">
        <g id="编组-119" transform="translate(7.000000, 1.000000)">
            <path d="M26.8488532,14.6777064 L32.9679329,16.3077968 C32.8417002,16.3271387 32.7133279,16.355077 32.5838858,16.3916116 L26.4637363,14.7615212 C26.5931783,14.7249865 26.7215506,14.6970483 26.8488532,14.6777064 Z M33.4943664,16.2678236 C33.3224545,16.265782 33.1470123,16.2797511 32.9683609,16.3076894 L26.8482113,14.6775989 C27.0268628,14.6485861 27.2023049,14.6356915 27.3745378,14.6378406 C27.4819069,14.6384495 27.5881707,14.6453744 27.6926911,14.657871 L27.8484455,14.6807151 C27.929748,14.6946842 28.0110504,14.7129516 28.0902133,14.733368 L34.2103629,16.3634584 C34.1312,16.343042 34.0498975,16.3247747 33.968595,16.3108055 C33.8142274,16.2839418 33.6559015,16.2688981 33.4943664,16.2678236 Z" id="形状结合" fill="#8F8F8F"></path>
            <polygon id="Fill-9" fill="#FFEAA4" points="26.4734712 25.6339128 20.3533216 24.0027478 23.939188 23.8383418 30.0593375 25.4684323"></polygon>
            <polygon id="Fill-11" fill="#FFEAA4" points="30.0593375 25.4686472 23.939188 23.8385567 20.3565309 19.8702482 26.4766805 21.5003387"></polygon>
            <polygon id="Fill-13" fill="#FFEAA4" points="24.0737649 30.4404767 17.9536154 28.8103863 20.3531077 24.0028552 26.4732572 25.6340202"></polygon>
            <path d="M23.7327225,43.1199369 L17.612573,41.4898465 C17.6115032,41.3103968 17.6050846,41.1352454 17.5943869,40.9643921 C17.4423727,38.676463 16.3437197,37.0281052 14.8332056,36.6251494 L20.9533552,38.2552399 C22.4638693,38.6581956 23.5614525,40.3065534 23.7144295,42.5942677 C23.7263039,42.7653358 23.7327225,42.9415618 23.7327225,43.1199369 Z" id="形状结合" fill="url(#linearGradient-1)" fill-rule="nonzero"></path>
            <polygon id="Fill-19" fill="#FFEAA4" points="24.0774021 26.2976615 17.9572526 24.6675711 14.3778049 17.3842797 20.4979544 19.0143702"></polygon>
            <polygon id="Fill-21" fill="url(#linearGradient-2)" fill-rule="nonzero" points="23.7452388 6.5260722 17.6250893 4.89490721 26.4752898 2.44386154 32.5954393 4.07395198"></polygon>
            <polygon id="Fill-23" fill="#FFEAA4" points="16.9003206 31.6000223 10.7801711 29.9688573 11.9463265 21.4986772 20.4926056 24.8153215"></polygon>
            <polygon id="Fill-25" fill="#FFEAA4" points="16.3059569 26.3841627 10.1858073 24.7540723 5.99766096 20.5343194 12.1178105 22.1644098"></polygon>
            <path d="M9.23424765,4.92703622 L15.3533274,6.55712666 C15.2912808,6.77526005 15.2367226,6.99769164 15.1907225,7.22227233 C15.1437596,7.45018411 15.1052479,7.68121209 15.0752944,7.91438917 C15.053899,8.08377387 15.0367827,8.25379136 15.0245794,8.42444561 L15.0096106,8.68043496 C15.0064013,8.76962251 15.003192,8.85881005 15.003192,8.9479976 L8.88304242,7.31790716 C8.88411219,7.22871962 8.88625173,7.13953207 8.89053081,7.05034453 L8.88988895,7.05077435 C8.90058664,6.7939572 8.92305179,6.5382146 8.95514487,6.2846211 C8.9850984,6.05112166 9.0236101,5.82009368 9.07067994,5.59228935 C9.11764281,5.3676012 9.17220104,5.14516962 9.23424765,4.92703622 Z M10.8955992,1.73713084 L17.0157487,3.36722127 C16.7418878,3.68851135 16.4883525,4.04526153 16.2604917,4.42994998 C16.1151101,4.67580673 15.9792494,4.93369842 15.8551561,5.20126106 C15.7518164,5.42541193 15.656607,5.65536536 15.5699557,5.89069153 C15.489509,6.10893238 15.4178345,6.33136397 15.3536483,6.5570192 L9.23349881,4.92692877 C9.29768496,4.70019898 9.37042927,4.47776739 9.44959219,4.26070855 C9.53633039,4.02561997 9.63138771,3.79492445 9.73497811,3.57172402 L9.73500661,3.57117062 C9.85909983,3.30360799 9.99389075,3.04571629 10.1404491,2.79964463 C10.368203,2.41517109 10.6217383,2.05734636 10.8955992,1.73713084 Z M13.0021887,0.201170874 L19.1223382,1.83126131 C18.7939191,1.94838712 18.4751279,2.11386763 18.1691739,2.32018098 C17.756136,2.59967111 17.3688795,2.95427219 17.0158557,3.36689891 L10.8957062,1.73680848 C11.24873,1.32310721 11.6359865,0.969580677 12.0489174,0.690198005 C12.3539086,0.483777192 12.6737695,0.318296687 13.0021887,0.201170874 Z M13.63132,0.0393438345 L19.7503997,1.66943427 C19.6273763,1.68877615 19.5022133,1.71671441 19.3759805,1.75109997 C19.2914687,1.77474005 19.206957,1.80160376 19.1224452,1.83169113 L13.0022957,0.200526145 C13.0868074,0.171513329 13.1713192,0.144649611 13.255831,0.121009539 C13.3820637,0.0855494302 13.5072267,0.0586857118 13.63132,0.0393438345 Z M14.1452371,0.000230260444 C14.3046327,0.00119735431 14.4597492,0.0162410366 14.6116564,0.0420302063 L20.731806,1.67319519 C20.5798987,1.64633147 20.4237124,1.63128779 20.2653866,1.63021324 C20.0974328,1.6281716 19.9262698,1.64106618 19.7508276,1.66900445 L13.6306781,0.038914015 C13.8050505,0.0109757478 13.9772833,-0.00191883703 14.1452371,0.000230260444 Z" id="形状结合" fill="url(#linearGradient-3)" fill-rule="nonzero"></path>
            <polygon id="Fill-55" fill="url(#linearGradient-4)" fill-rule="nonzero" points="6.12014954 48 6.94555524e-13 46.3699096 0.0106976919 34.1727068 6.13084723 35.8027973"></polygon>
            <path d="M1.28671838,33.5768696 L7.40686792,35.2080346 C7.09128601,35.4207952 6.76072733,35.5916485 6.41947096,35.7130725 C6.32468941,35.7463835 6.22841018,35.7775454 6.13106118,35.8033346 L0.0109116457,34.1732441 C0.108260642,34.1463804 0.2034701,34.116293 0.299749327,34.0819075 C0.64164756,33.961558 0.971136471,33.7896302 1.28671838,33.5768696 Z M2.45683192,32.5171496 L8.57698146,34.14724 C8.21967855,34.5652395 7.82707326,34.9241388 7.40665396,35.2078196 L1.28650443,33.5766547 C1.70692372,33.2929738 2.10059878,32.9340745 2.45683192,32.5171496 Z M3.21347967,31.4534538 L9.33469898,33.0835442 C9.10683814,33.4682327 8.85223307,33.8249829 8.57730239,34.1473475 L2.45715285,32.5172571 C2.7331533,32.1948924 2.9866886,31.8381423 3.21347967,31.4534538 Z M3.89759707,30.0059292 L10.0177466,31.6370942 C9.93323484,31.8691967 9.83802538,32.0959265 9.73639731,32.3172835 C9.61337385,32.5825896 9.47858293,32.8383322 9.33416409,33.0833293 L3.21401455,31.4532389 C3.35950316,31.2082418 3.49322431,30.9524992 3.61624777,30.6870857 C3.71894561,30.4658361 3.81201553,30.2391063 3.89759707,30.0059292 Z M4.11165788,29.3490576 L10.2318074,30.979148 C10.168691,31.2015796 10.0970165,31.4218621 10.0178536,31.6367718 L3.89770404,30.0056068 C3.97686696,29.7906971 4.04747173,29.5714892 4.11165788,29.3490576 Z M4.44082586,26.3447267 L10.5599056,27.9748172 C10.5716731,28.1553414 10.5780917,28.3412383 10.5780917,28.5303589 C10.5780917,28.6474847 10.5759522,28.7646105 10.5706033,28.8817363 C10.5597987,29.1354373 10.5384033,29.3879562 10.5063102,29.6383261 C10.4775334,29.8690317 10.4390217,30.096836 10.3919519,30.3224913 C10.3460588,30.5436334 10.2925703,30.7628413 10.2315935,30.9788256 L4.11144393,29.3487352 C4.17242077,29.1327509 4.22590923,28.913543 4.27190931,28.6921859 C4.31887217,28.4667456 4.3563141,28.2389413 4.38626763,28.0079133 C4.41825373,27.7578658 4.44071888,27.5053468 4.45034681,27.2517533 C4.45580263,27.1345201 4.45794217,27.0173943 4.45794217,26.8991939 C4.45901194,26.7100733 4.45259332,26.5252509 4.44082586,26.3447267 Z M1.67889577,22.0268676 L7.7990453,23.656958 C9.30741986,24.0577647 10.4082124,25.697526 10.5601196,27.9744948 L4.43997005,26.3444044 C4.28806282,24.0674356 3.18620056,22.4276742 1.67889577,22.0268676 Z" id="形状结合" fill="url(#linearGradient-5)" fill-rule="nonzero"></path>
            <path d="M26.4734712,25.6339128 L30.0593375,25.4684323 L26.4766805,21.5001238 L24.0771882,26.2979839 L20.4977405,19.0146925 L16.3063848,26.3839478 L12.1182384,22.1641949 L12.1118198,28.7844897 L16.9001067,31.5998073 L20.4923916,24.8151066 L24.0739789,30.4403693 L26.4734712,25.6339128 L26.4734712,25.6339128 Z M32.5839928,16.3917191 C35.0198572,15.7169025 36.9764651,17.8649254 37,21.2003247 L37,21.4238308 C36.9090696,24.6872353 34.9759967,27.8109485 32.6139463,28.4653487 L32.5818532,40.6679241 L23.7327225,43.1200444 C23.7220248,39.7814214 21.7729053,37.6119075 19.3573665,38.2824259 C16.9407579,38.9518698 14.9734524,42.2056034 14.9702431,45.54745 L6.12004256,47.9995702 L6.13074025,35.803442 C8.60725593,35.1350727 10.5756312,31.8727427 10.5788405,28.5298216 C10.5820499,25.1869005 8.61902339,23.0130884 6.20241479,23.6825323 L6.1532054,11.4004402 L15.0034059,8.94831996 C15.0397781,5.63333711 16.9803394,2.41506364 19.3766224,1.75099252 C21.7718356,1.0869214 23.7145364,3.22097519 23.7455597,6.52628711 L32.5957602,4.07416689 L32.5839928,16.3917191 Z" id="Fill-81" fill="url(#linearGradient-6)" fill-rule="nonzero"></path>
            <polygon id="Fill-83" fill="url(#linearGradient-2)" fill-rule="nonzero" points="6.15309843 11.4003327 0.0329488911 9.77024229 8.8831494 7.31812207 15.0032989 8.94821251"></polygon>
            <polygon id="Fill-85" fill="url(#linearGradient-7)" fill-rule="nonzero" points="6.20262874 23.6826397 0.0824792046 22.0525493 0.0322000526 9.7704572 6.15341936 11.4005476"></polygon>
        </g>
    </g>
</svg>