<?xml version="1.0" encoding="UTF-8"?>
<svg width="50px" height="50px" viewBox="0 0 50 50" version="1.1" xmlns="http://www.w3.org/2000/svg" xmlns:xlink="http://www.w3.org/1999/xlink">
    <title>责任单位-灰</title>
    <defs>
        <linearGradient x1="83.7369021%" y1="57.049346%" x2="128.456406%" y2="10.1116749%" id="linearGradient-1">
            <stop stop-color="#5F5F5F" offset="0%"></stop>
            <stop stop-color="#B8B8B8" offset="100%"></stop>
        </linearGradient>
        <linearGradient x1="83.7369021%" y1="57.0991167%" x2="128.456406%" y2="9.83005049%" id="linearGradient-2">
            <stop stop-color="#5F5F5F" offset="0%"></stop>
            <stop stop-color="#B8B8B8" offset="100%"></stop>
        </linearGradient>
        <linearGradient x1="52.1726526%" y1="100%" x2="53.2199942%" y2="-16.1761073%" id="linearGradient-3">
            <stop stop-color="#5F5F5F" offset="0%"></stop>
            <stop stop-color="#B8B8B8" offset="100%"></stop>
        </linearGradient>
        <linearGradient x1="83.7369021%" y1="53.3583438%" x2="100%" y2="43.4632152%" id="linearGradient-4">
            <stop stop-color="#5F5F5F" offset="0%"></stop>
            <stop stop-color="#B8B8B8" offset="100%"></stop>
        </linearGradient>
        <linearGradient x1="57.5435844%" y1="100%" x2="61.1800194%" y2="0%" id="linearGradient-5">
            <stop stop-color="#5F5F5F" offset="0%"></stop>
            <stop stop-color="#B8B8B8" offset="100%"></stop>
        </linearGradient>
        <linearGradient x1="59.2239265%" y1="2.59537828%" x2="39.7481814%" y2="95.0951313%" id="linearGradient-6">
            <stop stop-color="#E7E7E7" offset="0%"></stop>
            <stop stop-color="#AFAFAF" offset="100%"></stop>
        </linearGradient>
    </defs>
    <g id="页面-1" stroke="none" stroke-width="1" fill="none" fill-rule="evenodd">
        <g id="编组-125" transform="translate(5.000000, -0.000260)">
            <polygon id="Fill-1" fill="url(#linearGradient-1)" fill-rule="nonzero" points="36.3770287 36.4463237 29.2067883 33.6303066 31.524455 32.883783 38.6946954 35.6998"></polygon>
            <polygon id="Fill-3" fill="url(#linearGradient-2)" fill-rule="nonzero" points="26.4060889 39.6604002 19.2358484 36.8443831 21.3388922 36.1666695 28.5078239 38.9826865"></polygon>
            <polygon id="Fill-5" fill="url(#linearGradient-3)" fill-rule="nonzero" points="28.5083474 38.9828164 21.3381069 36.1667993 21.7516488 9.09850053 28.9218893 11.9145176"></polygon>
            <polygon id="Fill-7" fill="url(#linearGradient-4)" fill-rule="nonzero" points="28.9225436 11.9142579 21.7523032 9.09824087 28.5286319 9.89669661 35.6988724 12.7127137"></polygon>
            <polygon id="Fill-9" fill="#FFF47F" points="21.5599277 26.5563783 14.3896872 23.7403612 14.4525037 19.6623946 21.6227442 22.4784116"></polygon>
            <polygon id="Fill-11" fill="#FFF47F" points="14.7711665 32.2052903 7.60092603 29.3892733 14.3903415 23.7403612 21.5592733 26.5563783"></polygon>
            <polygon id="Fill-13" fill="#FFF47F" points="21.6960301 17.660283 14.5257896 14.8442659 14.5886061 10.7455265 21.7588466 13.5615435"></polygon>
            <path d="M16.2900169,-1.45439216e-13 C18.537015,0.407666833 19.3169864,0.564761377 19.5891912,0.636167988 L26.7594317,3.45218506 C26.4872269,3.38077845 25.7072555,3.22238561 23.4602573,2.81601707 L16.2900169,-1.45439216e-13 Z" id="形状结合" fill="#878787"></path>
            <polygon id="Fill-23" fill="#FFF47F" points="14.9053059 23.4076064 7.7350654 20.5915893 14.5257896 14.8440063 21.6960301 17.6600234"></polygon>
            <path d="M3.91673895,10.6491925 L11.0869794,13.4652095 L10.9546395,13.61776 L10.8287775,13.7779705 L10.7231018,13.9274375 L10.6238387,14.0815135 C10.5675656,14.1710963 10.5152185,14.2645741 10.4654888,14.3593501 C10.4188999,14.4471154 10.3757136,14.5366982 10.3364533,14.6275793 C10.2978473,14.7152147 10.2612043,14.8060959 10.2284874,14.8956787 L10.1804917,15.0328443 L10.13688,15.1715679 C10.1093978,15.2689405 10.0832243,15.3663132 10.0622855,15.4649841 L9.316,15.1712597 L10.061762,15.4649841 L10.0295358,15.6284079 L10.0295358,15.6284079 L10.0043111,15.7903386 C9.98598959,15.9240637 9.9742115,16.0577888 9.97028547,16.1915139 L8.95,15.7902597 L9.969762,16.1919034 C9.969762,16.2126763 9.96845332,16.2334491 9.96845332,16.2555202 L9.52742922,45.1014541 L9.526,45.1002597 L7.22769139,45.8425249 L7.17024047,49.6144817 L-6.76791956e-13,46.7984647 L0.0575817815,43.0268973 L2.35679614,42.2851774 L2.357,42.2842597 L2.79821285,13.4397628 C2.79821285,13.4187303 2.79952152,13.3966592 2.79952152,13.3758864 C2.80397102,13.2430701 2.81574912,13.1080467 2.83407059,12.9743215 C2.84964385,12.8670818 2.86796532,12.7580244 2.89152151,12.6489671 C2.91429248,12.5502961 2.93915734,12.4529235 2.96794823,12.3555508 L2.96690129,12.3560701 C2.99438351,12.2625924 3.02448307,12.1704129 3.05850867,12.0795318 L3.11013597,11.9454334 L3.16621278,11.8115623 C3.20678176,11.7206811 3.24865942,11.6310983 3.29577178,11.544112 L3.37203493,11.4030515 L3.37203493,11.4030515 L3.45307474,11.2657561 C3.51719991,11.1605936 3.58655978,11.0606244 3.65984569,10.9619534 L3.65892961,10.9620832 C3.74006758,10.8530259 3.82644025,10.7491617 3.91673895,10.6491925 Z M16.2905403,0.000259660391 L23.4607808,2.81627673 L11.0872412,13.4649499 L3.91700069,10.6489328 L16.2905403,0.000259660391 Z" id="形状结合" fill="url(#linearGradient-5)" fill-rule="nonzero"></path>
            <path d="M21.5599277,26.5563783 L21.6227442,22.4784116 L14.8333287,28.1273237 L14.7718208,32.2052903 L21.5599277,26.5563783 L21.5599277,26.5563783 Z M21.6960301,17.6604128 L21.7588466,13.5616734 L14.9681224,19.3079581 L14.9053059,23.4079959 L21.6960301,17.6604128 L21.6960301,17.6604128 Z M36.376767,36.446843 L38.6944337,35.6990211 L38.6368519,39.4718867 L7.169717,49.6142221 L7.22729878,45.8426547 L9.52795269,45.1013243 L9.96897679,16.2556501 C9.98337224,15.2637473 10.4008402,14.2173159 11.0878955,13.465599 L23.4601265,2.81562758 C26.8954032,3.43881255 26.9019466,3.47776161 26.90849,3.51800897 C26.9346635,3.71794749 26.9385895,3.76079145 26.9412069,3.80493372 C26.9451329,3.85037429 26.9464416,3.89321826 26.9477503,3.93736053 C26.9503676,4.01785525 26.9503676,4.06329582 26.9503676,4.11003469 L26.4059581,39.6601405 L28.5090018,38.9824269 L28.9225436,11.9141281 L35.6988724,12.7125839 C36.3008637,13.0072984 36.6646759,13.6928019 36.7117883,14.5561727 L36.7091709,14.7846739 L36.376767,36.446843 Z" id="Fill-29" fill="url(#linearGradient-6)" fill-rule="nonzero"></path>
        </g>
    </g>
</svg>