<?xml version="1.0" encoding="UTF-8"?>
<svg width="50px" height="51px" viewBox="0 0 50 51" version="1.1" xmlns="http://www.w3.org/2000/svg" xmlns:xlink="http://www.w3.org/1999/xlink">
    <title>受攻击</title>
    <defs>
        <linearGradient x1="13.7763335%" y1="193.96087%" x2="24.7993975%" y2="-142.02993%" id="linearGradient-1">
            <stop stop-color="#003B7C" offset="0%"></stop>
            <stop stop-color="#4EA2FF" offset="100%"></stop>
        </linearGradient>
        <linearGradient x1="-83.7544406%" y1="215.240272%" x2="69.4032276%" y2="-15.8778098%" id="linearGradient-2">
            <stop stop-color="#003B7C" offset="0%"></stop>
            <stop stop-color="#4EA2FF" offset="100%"></stop>
        </linearGradient>
        <linearGradient x1="33.9537348%" y1="-96.3440869%" x2="-12.1622663%" y2="151.371532%" id="linearGradient-3">
            <stop stop-color="#C3EEFF" offset="0%"></stop>
            <stop stop-color="#25A8FF" offset="100%"></stop>
        </linearGradient>
        <linearGradient x1="19.6322315%" y1="116.313442%" x2="50%" y2="-389.797549%" id="linearGradient-4">
            <stop stop-color="#003B7C" offset="0%"></stop>
            <stop stop-color="#4EA2FF" offset="100%"></stop>
        </linearGradient>
        <linearGradient x1="50%" y1="71.2696871%" x2="502.555502%" y2="40.1818034%" id="linearGradient-5">
            <stop stop-color="#003B7C" offset="0%"></stop>
            <stop stop-color="#4EA2FF" offset="100%"></stop>
        </linearGradient>
        <linearGradient x1="-18.693547%" y1="279.012979%" x2="78.25823%" y2="0%" id="linearGradient-6">
            <stop stop-color="#003B7C" offset="0%"></stop>
            <stop stop-color="#4EA2FF" offset="100%"></stop>
        </linearGradient>
        <linearGradient x1="50%" y1="100%" x2="81.6125694%" y2="-194.785809%" id="linearGradient-7">
            <stop stop-color="#003B7C" offset="0%"></stop>
            <stop stop-color="#4EA2FF" offset="100%"></stop>
        </linearGradient>
        <linearGradient x1="50%" y1="250.238224%" x2="76.0578364%" y2="18.61398%" id="linearGradient-8">
            <stop stop-color="#003B7C" offset="0%"></stop>
            <stop stop-color="#4EA2FF" offset="100%"></stop>
        </linearGradient>
        <linearGradient x1="29.7485891%" y1="143.287095%" x2="95.0353372%" y2="-90.7914295%" id="linearGradient-9">
            <stop stop-color="#003B7C" offset="0%"></stop>
            <stop stop-color="#4EA2FF" offset="100%"></stop>
        </linearGradient>
        <linearGradient x1="41.8710612%" y1="291.282707%" x2="100%" y2="-104.432707%" id="linearGradient-10">
            <stop stop-color="#003B7C" offset="0%"></stop>
            <stop stop-color="#4EA2FF" offset="100%"></stop>
        </linearGradient>
        <linearGradient x1="32.1651762%" y1="50%" x2="139.368325%" y2="-33.4541745%" id="linearGradient-11">
            <stop stop-color="#003B7C" offset="0%"></stop>
            <stop stop-color="#4EA2FF" offset="100%"></stop>
        </linearGradient>
        <linearGradient x1="73.3780815%" y1="116.898827%" x2="108.490608%" y2="-119.584393%" id="linearGradient-12">
            <stop stop-color="#003B7C" offset="0%"></stop>
            <stop stop-color="#4EA2FF" offset="100%"></stop>
        </linearGradient>
        <linearGradient x1="0%" y1="-86.2430044%" x2="-143.696993%" y2="144.374582%" id="linearGradient-13">
            <stop stop-color="#C3EEFF" offset="0%"></stop>
            <stop stop-color="#25A8FF" offset="100%"></stop>
        </linearGradient>
        <linearGradient x1="64.3983794%" y1="86.2992502%" x2="163.521657%" y2="3.68593865%" id="linearGradient-14">
            <stop stop-color="#003B7C" offset="0%"></stop>
            <stop stop-color="#4EA2FF" offset="100%"></stop>
        </linearGradient>
        <linearGradient x1="30.0616212%" y1="-96.3440869%" x2="-27.2400803%" y2="151.371532%" id="linearGradient-15">
            <stop stop-color="#C3EEFF" offset="0%"></stop>
            <stop stop-color="#25A8FF" offset="100%"></stop>
        </linearGradient>
        <linearGradient x1="56.5516629%" y1="-12.8980919%" x2="41.8601963%" y2="100%" id="linearGradient-16">
            <stop stop-color="#C3EEFF" offset="0%"></stop>
            <stop stop-color="#25A8FF" offset="100%"></stop>
        </linearGradient>
        <linearGradient x1="171.291309%" y1="484.958936%" x2="254.208038%" y2="-147.783739%" id="linearGradient-17">
            <stop stop-color="#003B7C" offset="0%"></stop>
            <stop stop-color="#4EA2FF" offset="100%"></stop>
        </linearGradient>
        <linearGradient x1="163.599153%" y1="193.114698%" x2="238.527342%" y2="-52.4968231%" id="linearGradient-18">
            <stop stop-color="#003B7C" offset="0%"></stop>
            <stop stop-color="#4EA2FF" offset="100%"></stop>
        </linearGradient>
    </defs>
    <g id="页面-1" stroke="none" stroke-width="1" fill="none" fill-rule="evenodd">
        <g id="受攻击" transform="translate(0.000000, -0.000000)">
            <g id="编组-117" transform="translate(3.500000, 0.000000)">
                <path d="M29.7608946,30.6198431 L36.9567898,32.5215176 L36.2039943,34.5095635 L36.1664174,34.6037384 L36.1261362,34.6952181 C36.0934333,34.7666719 36.056957,34.834365 36.0179651,34.899551 L36.0183425,34.8990495 C35.9567101,35.0018428 35.8887887,35.0971145 35.8158361,35.1823577 L35.8162134,35.1827337 C35.7143313,35.3005699 35.6036446,35.4008559 35.4866688,35.4785776 L31.8231248,34.5089477 L35.4861657,35.4790791 C35.400635,35.53549 35.311331,35.5818723 35.2195113,35.6132117 L35.2171853,35.612889 L35.1851418,35.6249326 C35.1736644,35.6286933 35.1620297,35.6321407 35.1500805,35.6352746 L35.1481248,35.6349477 L29.35802,37.2279427 L22.1621248,35.3250146 L27.954311,33.7329733 C27.9780835,33.7273322 28.000724,33.7198108 28.0233645,33.7110357 C28.1154357,33.6801978 28.2047398,33.6338155 28.2902704,33.576151 L28.2911853,33.575889 L28.4055598,33.4918457 C28.4805622,33.430374 28.5523967,33.3596166 28.6203181,33.2810592 L33.6261248,34.6029477 L28.6199408,33.2806831 C28.6928934,33.19544 28.7608148,33.1001682 28.8224472,32.997375 L28.8220699,32.9978764 C28.8610618,32.9326905 28.8975381,32.8637438 28.930241,32.7935436 L28.9301152,32.7934182 C28.9577869,32.7332466 28.9842008,32.6718214 29.008099,32.607889 L29.7608946,30.6198431 Z M26.6907214,22.4619477 L33.8866167,24.3636222 L36.9582992,30.8595268 C37.0463455,31.0500703 37.0979154,31.2669389 37.1130091,31.4963433 L37.1174428,31.618661 L37.1152731,31.7429217 C37.1127575,31.8118684 37.1064685,31.8820686 37.0976639,31.9510153 C37.0902428,32.0148223 37.0789226,32.0800082 37.0650867,32.1439406 L37.0655899,32.144442 C37.051754,32.2058672 37.0366604,32.2697996 37.0190511,32.3312248 C37.0010645,32.3949065 36.9809397,32.4588388 36.9570414,32.5215176 L29.7611461,30.6198431 C29.7837866,30.5571643 29.8051693,30.4932319 29.8240363,30.4292996 C29.8407651,30.3668715 29.8571166,30.3041927 29.8696946,30.2415139 C29.8830273,30.1783337 29.8930897,30.1131478 29.9018944,30.0492154 C29.911831,29.9791405 29.9168622,29.9101938 29.9193778,29.8412472 C29.923277,29.7578844 29.9220192,29.6751484 29.916988,29.5936659 C29.9020202,29.3640108 29.8504502,29.1483958 29.7624039,28.9578523 L26.6907214,22.4619477 Z" id="形状结合" fill="url(#linearGradient-1)" fill-rule="nonzero"></path>
                <path d="M26.0310033,7.3569858 L18.8351081,5.45531128 C18.6954918,5.16197453 18.4804074,4.9664167 18.226331,4.89997718 L25.4222263,6.80165171 C25.6763027,6.86809123 25.8926449,7.06364906 26.0310033,7.3569858" id="Fill-59" fill="#707070"></path>
                <polygon id="Fill-31" fill="url(#linearGradient-2)" fill-rule="nonzero" points="33.8868682 24.3634969 26.690973 22.4618223 29.4707192 19.4933548 36.6666145 21.3950293"></polygon>
                <path d="M36.6664887,21.3947786 L40.6373752,29.8150474 C40.8512018,30.2675883 40.8512018,30.8968834 40.6361174,31.4672604 L38.0437838,38.3694489 C37.8211526,38.9410794 37.4249444,39.3748167 36.9897443,39.4939064 L29.3548755,41.5936459 L29.3573911,37.2274413 L35.1495774,35.6354 C35.5860353,35.5163103 35.9885325,35.0900945 36.203617,34.5096889 L36.9570414,32.5215176 C37.170868,31.941112 37.170868,31.3218456 36.9582992,30.8592761 L33.8867424,24.3632462 L36.6664887,21.3947786 Z" id="Fill-33" fill="url(#linearGradient-3)" fill-rule="nonzero"></path>
                <polygon id="Fill-35" fill="url(#linearGradient-4)" fill-rule="nonzero" points="29.3542466 41.5940219 22.1583514 39.6923474 22.1621248 35.3261428 29.35802 37.2278173"></polygon>
                <polygon id="Fill-39" fill="url(#linearGradient-5)" fill-rule="nonzero" points="27.2519534 48.2530167 20.0560582 46.3513422 16.8763303 44.9561123 24.0722255 46.8577868"></polygon>
                <polygon id="Fill-41" fill="url(#linearGradient-6)" fill-rule="nonzero" points="29.4599021 21.1499552 22.2640069 19.2482807 30.2586075 5.11546687 37.4545028 7.01839497"></polygon>
                <polygon id="Fill-45" fill="url(#linearGradient-7)" fill-rule="nonzero" points="20.8972773 50 13.7013821 48.0983255 16.887399 33.3550202 24.0832942 35.2566947"></polygon>
                <path d="M20.5907505,4.45508312 L16.53861,15.0376449 L9.34271471,13.1359704 L13.3941006,2.55328324 L16.8127147,3.456 L13.3948553,2.55215502 C13.4162379,2.49574411 13.4388784,2.44058677 13.4640345,2.38668301 C13.4969889,2.31673348 13.5322074,2.25029396 13.5711994,2.1863616 C13.6315739,2.08331766 13.6994953,1.98929948 13.772448,1.9053099 C13.8739527,1.78609484 13.9846395,1.68706235 14.102873,1.60934064 L14.1018668,1.60883921 C14.1886552,1.55117473 14.2792171,1.50479242 14.3710368,1.47345302 L17.8277147,2.386 L14.3707852,1.47295159 C14.3934257,1.46417656 14.4173239,1.45790868 14.4399644,1.45038723 L19.6387189,0.0332197594 L26.8346141,1.93489429 L21.6361112,3.35268854 L21.6337147,3.35221976 L21.6012701,3.36334394 C21.5896354,3.36710467 21.5780007,3.37086539 21.5666805,3.37462612 L21.566932,3.37512755 C21.5057189,3.39602048 21.4450648,3.42359915 21.3857151,3.45674927 L21.2975105,3.51101517 C21.1805347,3.58873687 21.069848,3.68902294 20.9679659,3.80685907 C20.8953906,3.890974 20.8274692,3.98499219 20.7670946,4.08778541 C20.7281027,4.15196849 20.6928842,4.21840801 20.6601813,4.28860826 L20.6244282,4.3703414 L20.6244282,4.3703414 L20.5907147,4.454 L17.3427147,3.596 L20.5907505,4.45508312 L20.5907505,4.45508312 Z M26.9356158,1.91308207 C26.9029129,1.91809637 26.8689522,1.92561782 26.8349915,1.93439286 L19.6390962,0.032718329 C19.6730569,0.0239432983 19.7070176,0.0164218433 19.7397205,0.0101539642 C19.7876428,0.00376072748 19.8341816,5.26023669e-13 19.8807203,5.26023669e-13 L19.9450884,0.00307126077 L20.0082616,0.0119089703 L20.0749252,0.0256983044 L27.2695627,1.92862641 C27.24818,1.92235853 27.2267974,1.91734422 27.2041569,1.9135835 C27.1618947,1.90568597 27.1203872,1.90192524 27.076364,1.90192524 C27.0300768,1.90167453 26.9835381,1.90543525 26.9357416,1.91295671 L19.8227147,0.032 L26.9356158,1.91308207 Z" id="形状结合" fill="url(#linearGradient-8)" fill-rule="nonzero"></path>
                <path d="M11.018864,31.6456442 L18.2147593,33.5473187 C18.1703169,33.7604266 18.1314647,33.9757631 18.0978301,34.1925853 L18.0509932,34.5187146 C18.0057123,34.8747302 17.9742672,35.2332529 17.9591735,35.5942827 C17.9555259,35.6702494 17.9530103,35.7467175 17.9517525,35.8244392 L10.7558572,33.9227647 C10.757115,33.845043 10.7596306,33.7685749 10.763404,33.6921067 L13.8898572,34.5179863 L10.7632783,33.6913546 C10.7783719,33.3315783 10.809817,32.9730556 10.8563557,32.6170401 L10.8553495,32.6171655 C10.8981148,32.2899822 10.9522004,31.965306 11.018864,31.6456442 Z M11.5534306,29.7814516 L18.7505837,31.6831261 C18.6373813,31.987745 18.5354992,32.2986318 18.4449373,32.614533 C18.3573942,32.921283 18.2806682,33.2321698 18.2152624,33.5468173 L11.0193671,31.6451428 C11.0847729,31.3304952 11.1614989,31.0183549 11.2495452,30.7124824 C11.3396039,30.3969573 11.441486,30.0860705 11.5534306,29.7814516 Z M16.5760925,24.095357 L23.7719878,25.9970315 C23.3053426,26.16125 22.8525332,26.3944151 22.4198488,26.6839911 L22.4178572,26.6839863 L22.1315729,26.8880883 C21.6560824,27.2427168 21.2060681,27.6677138 20.7909929,28.1492959 L20.7898572,28.1489863 L20.5625959,28.4246112 C20.2622122,28.800002 19.9814704,29.2055589 19.7248784,29.6367889 L17.3518572,29.0089863 L19.7247527,29.6365382 C19.5197306,29.9812716 19.3285445,30.3423014 19.1537098,30.715867 L19.1539613,30.715867 C19.0067983,31.0305145 18.8722133,31.3526835 18.7502063,31.6836275 L11.554311,29.781953 C11.676318,29.451009 11.810903,29.1275864 11.9580661,28.8141925 L11.9578145,28.8141925 C12.1326492,28.4406269 12.3225776,28.0795971 12.5288574,27.7348637 L12.5298572,27.7339863 L12.7263678,27.4165758 C12.9950749,26.9984631 13.2856779,26.6071469 13.5956008,26.2471199 L16.8578572,27.1089863 L13.5950976,26.2463678 C14.0931879,25.6684693 14.6403326,25.1720533 15.2239535,24.7821912 C15.656638,24.491487 16.1094473,24.2595754 16.5760925,24.095357 Z M25.3843664,25.7143502 C25.2264701,25.7133055 25.0660303,25.7205484 24.9039133,25.737077 L24.6596199,25.7683793 C24.4847852,25.795958 24.3086927,25.8348188 24.1313423,25.8837083 C24.0105932,25.9163012 23.8911018,25.9539085 23.7716104,25.9965301 L16.5757152,24.0948556 C16.6952065,24.052234 16.8146979,24.0146267 16.9354471,23.9820338 C17.1140552,23.9331443 17.2901477,23.8942834 17.4637246,23.8667048 L17.4658572,23.8669863 L17.7085771,23.8353561 C17.870694,23.8187346 18.0305749,23.8112132 18.1882196,23.8120489 C18.4123602,23.8139292 18.6299603,23.8339864 18.8437869,23.8715937 L18.8568572,23.8749863 L19.0126471,23.9051582 C19.0686193,23.9172239 19.1242771,23.9303864 19.1796205,23.9448025 L26.3755158,25.8464771 C26.264829,25.8176448 26.1528845,25.7938269 26.0396822,25.7737697 C25.8258555,25.7369145 25.6069977,25.7168573 25.3843664,25.7143502 Z" id="形状结合" fill="url(#linearGradient-9)" fill-rule="nonzero"></path>
                <path d="M30.2882917,32.432263 L17.9517525,35.8244392 C18.0586658,31.2238159 20.7767797,26.8062147 24.1313423,25.8835829 C27.4783581,24.9634583 30.1889252,27.8880507 30.2882917,32.432263 Z M27.1420222,20.8206409 C27.1395058,23.1560526 25.753406,25.4262785 24.0604022,25.8913551 C22.3585937,26.3601924 20.9838142,24.84838 20.9850712,22.5129682 C20.9875876,20.1775565 22.3661405,17.9098378 24.067949,17.442254 C25.7609529,16.9759238 27.1432792,18.4852291 27.1420222,20.8206409 Z" id="形状结合" fill="#FFEAA4"></path>
                <path d="M13.7952142,20.36459 L20.9911095,22.2662645 C20.9873361,22.3490005 20.9860783,22.430483 20.9860783,22.513219 C20.9860783,22.646098 20.9898517,22.7752163 20.9986563,22.903081 C21.1055696,24.4912363 21.8766033,25.6307367 22.9344163,25.9102841 L15.738521,24.0086096 C14.6807081,23.7290621 13.9096744,22.5895617 13.802761,21.0012812 C13.7939564,20.8735418 13.790183,20.7444235 13.790183,20.6115444 C13.790183,20.5288084 13.7926986,20.4460724 13.7952142,20.36459 Z M13.8406209,19.8326978 L21.0365162,21.7356259 C21.0138757,21.9111265 20.9987821,22.0878807 20.9912353,22.2658884 L13.79534,20.3642139 C13.8028868,20.1862062 13.8179805,20.009452 13.8406209,19.8326978 Z M13.9212461,19.3520768 L21.1171414,21.2537513 C21.0844385,21.4129555 21.0580246,21.5734132 21.036642,21.7351244 L13.8407467,19.8321963 C13.8621294,19.6717386 13.8885432,19.5112809 13.9212461,19.3520768 Z M14.0350774,18.8910116 L21.2309727,20.7926861 C21.1882073,20.9443688 21.1492154,21.0985586 21.1177703,21.254002 L13.921875,19.3523275 C13.9545779,19.1968841 13.9923121,19.0426943 14.0350774,18.8910116 Z M15.2000552,16.6741881 L22.3959505,18.5758626 C22.2035065,18.8002527 22.0248984,19.0497143 21.8651573,19.3179795 L21.8656604,19.3176035 C21.7637783,19.4893434 21.6681852,19.6686047 21.5813968,19.8541339 L16.190183,18.4285952 L21.5811452,19.8540086 C21.5094504,20.009452 21.4427868,20.1686561 21.3824122,20.3316209 C21.3269431,20.4823008 21.2766309,20.6364906 21.23135,20.7931876 L14.0354547,18.891513 C14.0807357,18.7348161 14.1310478,18.5806262 14.1863912,18.4289436 C14.2468915,18.2669816 14.3135551,18.1077774 14.3865078,17.952334 L14.3855015,17.9524594 C14.47229,17.7656766 14.5666253,17.5864152 14.6697652,17.4159289 L20.360183,18.9195952 L14.669262,17.4150514 C14.8290031,17.1480398 15.0076112,16.8985782 15.2000552,16.6741881 Z M24.6928259,17.3573869 C24.6136681,17.3565512 24.5340072,17.3601727 24.4532283,17.3686227 L24.3315847,17.3853417 C24.2435384,17.3978774 24.15675,17.4179347 24.0674459,17.4417526 C24.0070713,17.4580491 23.9466967,17.4768527 23.88758,17.4981635 L18.196183,15.9935952 L23.8880831,17.4987903 C23.6541316,17.5815263 23.4277269,17.6968553 23.2113847,17.8422701 L19.613183,16.8905952 L23.2115104,17.8427715 C22.9197,18.0383293 22.6454987,18.2865373 22.3964536,18.5761134 L15.2005583,16.6744388 C15.4496035,16.3848628 15.7238047,16.1366548 16.0156152,15.9398434 L16.016183,15.9395952 L16.1795935,15.8370188 C16.3455057,15.7390049 16.5167242,15.6579142 16.6921878,15.5958622 L16.6916847,15.596489 C16.7520593,15.5751782 16.8124339,15.5563746 16.8715506,15.5400781 C16.9608547,15.5150066 17.048901,15.4962029 17.1344316,15.4836672 L23.086183,17.0555952 L17.1351863,15.4832911 C17.2571933,15.4632339 17.3792002,15.4544588 17.496176,15.4557124 L19.922183,16.0965952 L17.4969307,15.4557124 C17.6088752,15.456966 17.7183041,15.4669946 17.8252174,15.4857982 L17.827183,15.4865952 L17.9095846,15.5020947 C17.937728,15.5080492 17.9657141,15.5146305 17.9933858,15.5221519 L25.1892811,17.4238265 C25.1339377,17.4100371 25.0773365,17.3975014 25.0207354,17.3874728 C24.9141994,17.3686691 24.8047705,17.3586405 24.6928259,17.3573869 Z" id="形状结合" fill="url(#linearGradient-10)" fill-rule="nonzero"></path>
                <polygon id="Fill-123" fill="url(#linearGradient-11)" fill-rule="nonzero" points="12.9703465 41.7653858 5.77445124 39.8637112 11.6697774 38.2428377 18.8656727 40.1445122"></polygon>
                <path d="M5.77432546,39.8638366 L12.9702207,41.7655111 C12.9350022,41.7755397 12.8997837,41.7830612 12.865823,41.7880755 L12.8625883,41.7868366 L12.7927761,41.7967565 C12.7684061,41.7984802 12.7441934,41.799107 12.7202951,41.799107 L12.7155883,41.7978366 L12.6544177,41.7959103 C12.6325633,41.79403 12.6108662,41.7912094 12.5894835,41.7874487 L5.39358827,39.8845206 L5.45852239,39.893609 L5.45852239,39.893609 L5.52439986,39.8974324 C5.5721964,39.8974324 5.62125075,39.8936717 5.67030509,39.8861502 C5.70514626,39.8813867 5.73910696,39.8738652 5.77432546,39.8638366 Z" id="形状结合" fill="#828282"></path>
                <path d="M0.178859694,37.4512046 L7.37475496,39.3528791 C7.36217692,39.4155579 7.35085669,39.4782367 7.34330986,39.5409155 L1.82598866,38.082949 L7.34318408,39.5410408 C7.33437946,39.6087339 7.32809044,39.676427 7.32557483,39.7441201 L7.32607795,39.7439947 C7.32230454,39.8254772 7.32356235,39.905706 7.32859356,39.9846813 L7.32909668,39.9850574 C7.34406021,40.2149697 7.39611007,40.4300973 7.4864718,40.6145616 L7.4885862,40.615606 L10.0679887,46.079949 L10.0713604,46.0819488 C10.208461,46.3802998 10.4248033,46.5708433 10.676364,46.6372828 L3.48046876,44.7356083 C3.23009602,44.6694826 3.01460993,44.4791804 2.87741285,44.1844764 L2.87496204,44.1832828 L0.29498866,38.717949 L0.292942494,38.7176922 C0.202380624,38.5309094 0.148295062,38.3152944 0.131943614,38.0833828 L1.39598866,38.416949 L0.132698296,38.0830068 C0.127667081,38.0040315 0.126409277,37.9238026 0.130182688,37.8423202 L3.44198866,38.716949 L0.129679567,37.841192 C0.133452978,37.7747525 0.138484193,37.7070594 0.147288819,37.6393663 C0.156219226,37.5765621 0.166281656,37.5138834 0.178859694,37.4512046 Z M4.2833249,26.493949 L11.4792202,28.3956235 L7.49072446,38.9607606 L7.48898866,38.959949 L7.4809136,38.9833249 C7.45789579,39.0446248 7.43777093,39.1073036 7.42016167,39.1687288 L4.57598866,38.416949 L7.42053901,39.1693556 C7.40292976,39.2295272 7.38783612,39.2909524 7.37525808,39.3523777 L0.179362815,37.4507031 L0.200116577,37.3585653 L0.224266409,37.2670543 L2.85798866,37.962949 L0.22464375,37.2664275 C0.241875661,37.2056291 0.263258325,37.1429503 0.285898793,37.0815251 L0.29508076,37.0553253 L4.2833249,26.493949 Z" id="形状结合" fill="url(#linearGradient-12)" fill-rule="nonzero"></path>
                <path d="M22.4382127,8.32286598 L19.3062813,16.4924196 L16.5391131,15.0370181 L20.590499,4.45558455 C20.8043256,3.88520755 21.2080806,3.47027396 21.6357339,3.35243783 L26.8354946,1.93464357 C27.2694369,1.81555387 27.6656451,2.03116891 27.8782139,2.48370978 L31.6604298,10.5429488 L28.897035,13.4750626 L26.0305002,7.35635901 C25.8179314,6.90507172 25.422981,6.6882031 24.9865231,6.80854638 L23.4834476,7.20969064 C23.0557943,7.32752677 22.6520393,7.75374255 22.4382127,8.32286598" id="Fill-151" fill="url(#linearGradient-13)" fill-rule="nonzero"></path>
                <polygon id="Fill-153" fill="url(#linearGradient-14)" fill-rule="nonzero" points="19.3060298 16.4919182 12.1101345 14.5902437 9.34296627 13.1360957 16.5388615 15.0377702"></polygon>
                <path d="M11.9188226,41.2181999 C12.1313914,41.6807694 12.5351464,41.8851023 12.9703465,41.7660126 L18.8656727,40.145139 L18.8618993,44.5113436 L11.115086,46.6411689 C10.6874327,46.7577515 10.2836777,46.5546722 10.0711089,46.0921027 L7.48883776,40.6227514 C7.2674643,40.1739713 7.2687221,39.5434226 7.49009556,38.9605099 L11.4785913,28.3953728 L14.2545641,29.8257028 L10.8295645,38.8790274 L11.9188226,41.2181999 Z" id="Fill-159" fill="url(#linearGradient-15)" fill-rule="nonzero"></path>
                <path d="M24.0832942,35.2566947 L27.2517019,48.2525153 L24.071974,46.8572854 L20.8972773,50 L24.0832942,35.2566947 Z M10.7801328,14.2754708 L18.8086942,24.1110267 L7.19539214,23.752504 L10.5927201,19.8639118 L10.7801328,14.2754708 Z M37.4542512,7.01764283 L37.6316016,12.4644298 L41,14.4701511 L29.4596506,21.1504567 L37.4542512,7.01764283 Z" id="形状结合" fill="url(#linearGradient-16)" fill-rule="nonzero"></path>
                <polygon id="Fill-175" fill="url(#linearGradient-17)" fill-rule="nonzero" points="10.5928459 19.8645386 3.39695059 17.9628641 3.58436335 12.3731695 10.7802586 14.2760976"></polygon>
                <polygon id="Fill-177" fill="url(#linearGradient-18)" fill-rule="nonzero" points="7.19589526 23.7526294 -7.30970839e-13 21.8497013 3.39732793 17.9623626 10.5932232 19.8640372"></polygon>
            </g>
        </g>
    </g>
</svg>