<?xml version="1.0" encoding="UTF-8"?>
<svg width="50px" height="50px" viewBox="0 0 50 50" version="1.1" xmlns="http://www.w3.org/2000/svg" xmlns:xlink="http://www.w3.org/1999/xlink">
    <title>备份与恢复-灰</title>
    <defs>
        <linearGradient x1="19.6824131%" y1="90.5506084%" x2="50%" y2="-50.6992671%" id="linearGradient-1">
            <stop stop-color="#5F5F5F" offset="0%"></stop>
            <stop stop-color="#B8B8B8" offset="100%"></stop>
        </linearGradient>
        <linearGradient x1="-88.4772196%" y1="484.761931%" x2="61.2202015%" y2="-45.9855339%" id="linearGradient-2">
            <stop stop-color="#5F5F5F" offset="0%"></stop>
            <stop stop-color="#B8B8B8" offset="100%"></stop>
        </linearGradient>
        <linearGradient x1="14.3931528%" y1="78.9488921%" x2="36.2914253%" y2="17.5159689%" id="linearGradient-3">
            <stop stop-color="#5F5F5F" offset="0%"></stop>
            <stop stop-color="#B8B8B8" offset="100%"></stop>
        </linearGradient>
        <linearGradient x1="37.1517945%" y1="145.62869%" x2="80.887466%" y2="-88.8767566%" id="linearGradient-4">
            <stop stop-color="#5F5F5F" offset="0%"></stop>
            <stop stop-color="#B8B8B8" offset="100%"></stop>
        </linearGradient>
        <linearGradient x1="75.5945412%" y1="-101.922129%" x2="20.2184041%" y2="191.000996%" id="linearGradient-5">
            <stop stop-color="#E7E7E7" offset="0%"></stop>
            <stop stop-color="#AFAFAF" offset="100%"></stop>
        </linearGradient>
        <linearGradient x1="87.3413519%" y1="100%" x2="122.216245%" y2="-147.363789%" id="linearGradient-6">
            <stop stop-color="#5F5F5F" offset="0%"></stop>
            <stop stop-color="#B8B8B8" offset="100%"></stop>
        </linearGradient>
        <linearGradient x1="80.2747277%" y1="-29.4169656%" x2="27.4075074%" y2="71.7359697%" id="linearGradient-7">
            <stop stop-color="#E7E7E7" offset="0%"></stop>
            <stop stop-color="#AFAFAF" offset="100%"></stop>
        </linearGradient>
        <linearGradient x1="45.6695351%" y1="156.942024%" x2="111.590639%" y2="12.5061013%" id="linearGradient-8">
            <stop stop-color="#5F5F5F" offset="0%"></stop>
            <stop stop-color="#B8B8B8" offset="100%"></stop>
        </linearGradient>
        <linearGradient x1="80.2747277%" y1="-34.196925%" x2="27.4075074%" y2="73.0442173%" id="linearGradient-9">
            <stop stop-color="#E7E7E7" offset="0%"></stop>
            <stop stop-color="#AFAFAF" offset="100%"></stop>
        </linearGradient>
    </defs>
    <g id="页面-1" stroke="none" stroke-width="1" fill="none" fill-rule="evenodd">
        <g id="编组-110" transform="translate(4.000000, 0.000000)">
            <path d="M31.3544221,39.7851255 C30.1068584,41.2361488 28.7311666,42.4781265 27.3071457,43.4260986 L27.3077077,43.4260986 C26.3467465,44.0655326 25.3644306,44.5708196 24.3843626,44.9162482 L24.3815463,44.9159441 L24.0386413,45.0310556 C23.9234384,45.0671076 23.8082354,45.1009239 23.6930324,45.1327838 C23.498967,45.1856973 23.3004058,45.2321519 23.0983479,45.2714851 L22.7926511,45.3256201 C22.3888788,45.3885015 21.9737267,45.4256015 21.5547814,45.4378634 L21.1348526,45.441769 C20.5436647,45.4361796 19.951353,45.3814029 19.3815198,45.2830284 L19.3775463,45.2819441 L19.0918536,45.2287072 C18.9002025,45.1898708 18.7118816,45.1459004 18.5275569,45.0974584 L12.0975463,43.4004989 C12.281871,43.4496861 12.4706914,43.4939049 12.6623425,43.5324929 L12.9525463,43.5859441 L13.3832042,43.6522341 C13.8180602,43.7098754 14.2614511,43.7417353 14.704842,43.7459274 L14.7085463,43.7459441 L15.1242966,43.7420043 C15.5430839,43.72969 15.9588682,43.6923804 16.3626405,43.6286606 L16.3645463,43.6289441 L16.668379,43.5751467 C16.8705201,43.5358134 17.069331,43.4898557 17.2641458,43.4369421 C17.4934277,43.3732223 17.7238336,43.3016772 17.9542396,43.2200712 C18.93442,42.874978 19.9167359,42.369691 20.8776971,41.7302569 L20.8771351,41.7302569 C22.301156,40.7822848 23.6768478,39.5391893 24.9244115,38.0892838 C25.8231069,37.0426019 26.65594,35.8889377 27.3921149,34.658139 C27.8246037,33.9349749 28.2224753,33.1871053 28.5821333,32.4179959 C28.8598567,31.8245072 29.1138652,31.2186099 29.3420232,30.6048874 L29.3412365,30.6048874 C29.5390484,30.0716531 29.7166295,29.5328293 29.871732,28.989534 C29.9601854,28.6827845 30.0411085,28.3764822 30.1152879,28.0679441 L30.1145012,28.0682795 C30.1437234,27.9318967 30.1751935,27.8022212 30.2077875,27.6758995 C30.2179029,27.6356554 30.2291422,27.598765 30.2392575,27.5596387 C30.2516208,27.516041 30.263984,27.4724432 30.2752233,27.4288454 L30.2755463,27.4278494 L30.2932062,27.3694015 C30.2991069,27.3496987 30.3050075,27.3301356 30.3106272,27.3105725 C30.3241144,27.2680926 30.3376015,27.2267306 30.3510887,27.1864865 C30.3746913,27.1127057 30.3994177,27.0400427 30.4252682,26.9707334 C30.4320118,26.9517293 30.4387553,26.9327251 30.4454989,26.9137209 C30.4532541,26.8942696 30.4599976,26.8741476 30.4678652,26.8540255 C30.4948395,26.7847163 30.5229378,26.7187606 30.5499121,26.6539229 C30.5881258,26.5667274 30.6162241,26.5052433 30.6387027,26.4560561 C30.6621929,26.4055274 30.6801758,26.3697549 30.6981587,26.3339823 C30.7599749,26.21325 30.8026843,26.1361155 30.8442697,26.0656883 C30.8500018,26.0571924 30.8556214,26.0482492 30.8601172,26.0393061 L30.8605012,26.038549 L30.9080915,25.9655322 C30.9501862,25.90045 30.9769498,25.8608347 31.0030812,25.8231059 L36.1705463,27.1858494 L31.0029688,25.8220997 C31.0872637,25.7091927 31.1198577,25.6678307 31.1513277,25.6298224 C31.2411299,25.5255231 31.2737239,25.4908685 31.3063179,25.4573317 L31.3065012,25.456549 L31.3556764,25.4091998 C31.4138331,25.3529653 31.4442242,25.3272091 31.473896,25.3021683 C31.5581909,25.2317412 31.6087678,25.1948507 31.6570968,25.1635498 C31.661143,25.1599725 31.6667626,25.1566188 31.6712583,25.1543831 C31.7406049,25.1115678 31.7833143,25.0869742 31.8271476,25.0646164 C31.9149266,25.0253784 31.9486446,25.0108458 31.9834864,24.998549 C32.0831791,24.9660183 32.1236407,24.9537215 32.1629783,24.9458963 C32.1854569,24.9403068 32.2068116,24.9369531 32.2259184,24.9335995 L32.2271493,24.9338494 L32.2752871,24.9271995 C32.2911626,24.925383 32.3066167,24.9239856 32.3223517,24.9228677 L32.3777053,24.9203524 L32.4238427,24.9198494 C32.4451974,24.9198494 32.4643042,24.9209673 32.484535,24.9220852 L32.5504254,24.9294912 L32.6037841,24.9372885 C32.6183952,24.9395243 32.6330063,24.942878 32.6464935,24.9462316 L39.0715463,26.6408494 L39.0555709,26.6371825 C39.0484058,26.6356454 39.0411002,26.634248 39.0337947,26.6331301 C39.0010883,26.6279878 38.9639986,26.6223984 38.9145456,26.6179268 C38.8954388,26.6168089 38.8763319,26.615691 38.8538533,26.615691 C38.8254178,26.6153557 38.7928238,26.6164736 38.7523623,26.6187093 C38.7220162,26.6209451 38.6905461,26.6242988 38.6557042,26.6298883 L38.6531493,26.6288494 L38.6262853,26.6347511 C38.6160295,26.6367074 38.6053521,26.6389432 38.5941128,26.6417379 C38.5536513,26.6495632 38.5131897,26.66186 38.4131599,26.6942788 C38.3786552,26.7066874 38.3449372,26.72122 38.2572706,26.7614641 C38.2144488,26.7828158 38.1706155,26.8074095 38.1009318,26.8498893 C38.0956493,26.8535784 38.0911536,26.8558142 38.0866578,26.8591678 C38.0387784,26.8906924 37.9882015,26.9275828 37.9039066,26.99801 C37.8733357,27.0230508 37.8434841,27.048807 37.7855791,27.1050414 L37.7363285,27.1531733 C37.7037345,27.1867101 37.6711405,27.2213647 37.581226,27.3253287 C37.5498683,27.3636723 37.5183982,27.4050343 37.4329794,27.5190593 C37.4061175,27.5566763 37.3797753,27.5962916 37.337944,27.6613739 L37.2901278,27.7362656 C37.285632,27.7440909 37.2800124,27.753034 37.2743927,27.7619771 C37.2326949,27.8319572 37.1899855,27.9090917 37.1281693,28.029824 C37.1101864,28.0655965 37.0922035,28.1024869 37.0686009,28.1516742 C37.0462347,28.201085 37.0181364,28.262569 36.9799228,28.3497646 C36.9518245,28.4146023 36.9248501,28.4805579 36.8978758,28.5498672 L36.8870579,28.5800503 L36.8870579,28.5800503 L36.8755095,28.6106805 L36.8552788,28.6665751 L36.8552788,28.6665751 C36.8294284,28.7358843 36.8047019,28.8085473 36.7810993,28.8823282 C36.7676121,28.9225723 36.754125,28.9639342 36.7406378,29.0064141 C36.7293985,29.0455403 36.7170352,29.0846665 36.7057959,29.1249106 C36.6928707,29.1682848 36.6816314,29.2118826 36.6692682,29.2554804 C36.6591528,29.2946066 36.6479135,29.331497 36.6377981,29.3717411 C36.6052041,29.4980629 36.573734,29.6277383 36.5445118,29.7641211 L36.4288312,30.2256147 L36.4288312,30.2256147 L36.3015463,30.6848494 L36.3028666,30.6853756 C36.1987156,31.0475725 36.0850737,31.407782 35.9622738,31.765673 L35.7709099,32.300729 C35.5438758,32.9144516 35.2898673,33.5203488 35.0122563,34.1139493 C34.6524859,34.882947 34.2534904,35.6319344 33.8219008,36.3540924 C33.0859506,37.5847793 32.2531175,38.7384435 31.3539725,39.7847901 L26.0345463,38.3818494 L31.3544221,39.7851255 Z" id="形状结合" fill="url(#linearGradient-1)" fill-rule="nonzero"></path>
            <path d="M39.0766165,26.6418497 L32.6466059,24.9460081 C32.6567212,24.9482438 32.6645888,24.9504796 32.6735802,24.9527154 L39.1035908,26.648557 C39.0945994,26.6463213 39.0856079,26.6440855 39.0766165,26.6418497" id="Fill-9" fill="#7F7F7F"></path>
            <polygon id="Fill-34" fill="url(#linearGradient-2)" fill-rule="nonzero" points="28.1671779 15.1546186 21.7371673 13.458777 24.9538585 5.81686964 31.3827452 7.51382917"></polygon>
            <polygon id="Fill-36" fill="url(#linearGradient-3)" fill-rule="nonzero" points="40.9996628 20.426931 34.5696522 18.7310894 21.7366053 13.4591124 28.1677399 15.154954"></polygon>
            <path d="M17.87489,29.1823703 L24.3049006,30.8793298 C24.0553879,31.0458957 23.7946358,31.1800427 23.5248923,31.2750635 C23.4563325,31.298651 23.3866488,31.3210088 23.3169651,31.340013 L16.8869544,29.6441713 C16.9566382,29.6251672 17.0263219,29.6028093 17.0948817,29.5793336 C17.3646252,29.484201 17.6253773,29.350054 17.87489,29.1823703 Z M19.4184972,27.4965897 L25.8485078,29.1924313 C25.665307,29.4987336 25.4618754,29.7826781 25.240461,30.0386753 C24.95487,30.3706891 24.6401693,30.6546336 24.3052378,30.8793298 L17.8752272,29.1823703 C18.2101587,28.9587919 18.5248594,28.6737296 18.810338,28.3428336 C19.0318648,28.0868365 19.2352964,27.802892 19.4184972,27.4965897 Z M20.2749328,25.2808166 L26.7049434,26.9766582 C26.6678536,27.1555209 26.6240203,27.3321478 26.5745674,27.505421 C26.5225293,27.6850662 26.4652088,27.8616931 26.4011448,28.0338484 C26.3324726,28.2207599 26.2560452,28.4029762 26.1728743,28.5796031 L26.1733239,28.5794913 C26.074418,28.7918907 25.9653966,28.9964649 25.8485078,29.1920959 L19.4184972,27.4962543 C19.535386,27.3006233 19.6432834,27.0960491 19.7433133,26.8836497 L19.7428637,26.8837615 C19.8260346,26.7071346 19.901338,26.5249182 19.9710218,26.3382303 C20.0351982,26.1658514 20.0925187,25.9881067 20.1442196,25.809244 C20.1940097,25.6363062 20.237843,25.4585614 20.2749328,25.2808166 Z M20.3684438,24.7284663 L26.7984545,26.424308 C26.7748519,26.609878 26.7433818,26.7943301 26.7051682,26.9765465 L20.2751576,25.2807048 C20.3133712,25.0984885 20.3437174,24.9140364 20.3684438,24.7284663 Z M20.4212686,24.116756 L26.8501553,25.8125977 C26.8422878,26.0171718 26.8243049,26.221746 26.7984545,26.4240844 L20.3684438,24.7282428 C20.3942943,24.5259044 20.4122772,24.3213302 20.4212686,24.116756 Z M26.8562245,25.5276471 C26.8562245,25.6226679 26.8551006,25.7176887 26.8506049,25.8127095 L20.4205943,24.1157499 C20.42509,24.0207291 20.4273378,23.9268262 20.4273378,23.8318054 C20.4273378,23.6764185 20.4217182,23.526621 20.4116028,23.3779414 C20.2881952,21.5551073 19.4092809,20.2561172 18.1976831,19.9364002 L24.6276937,21.6322418 C25.8392915,21.9519588 26.7193297,23.2509489 26.8418382,25.0742302 C26.8517288,25.2224627 26.8573485,25.3722601 26.8562245,25.5276471 Z" id="形状结合" fill="#949494"></path>
            <path d="M15.5851049,29.6665292 L15.68092,29.6894459 L15.68092,29.6894459 L15.7783087,29.7085619 C15.9019411,29.7298018 16.0278214,29.7409807 16.1581974,29.7420986 C16.2946427,29.7441108 16.4351341,29.7340498 16.5789973,29.7105741 L23.0090079,31.4075336 C22.8662686,31.4298914 22.7257772,31.4399525 22.5875337,31.4388346 L19.3721049,30.5901713 L22.5870841,31.4390582 C22.458956,31.4368224 22.3319517,31.4256435 22.2083193,31.4044035 C22.1432437,31.3925539 22.0791796,31.3791392 22.0151155,31.3623708 L15.5851049,29.6665292 Z M16.8875164,29.6441713 L23.3164031,31.340013 C23.2130014,31.3690781 23.1107237,31.3903181 23.0084459,31.4070865 L16.5784353,29.7101269 C16.6807131,29.6944764 16.7829908,29.6721186 16.8875164,29.6441713 Z" id="形状结合" fill="#7F7F7F"></path>
            <path d="M11.7553092,22.2284134 L18.1853198,23.9242551 C18.0796703,24.2126711 17.9830122,24.5055587 17.8964695,24.8051537 C17.8135234,25.0952466 17.7404678,25.3892521 17.6786516,25.6877292 C17.6149247,25.9920193 17.5632239,26.3005574 17.5227623,26.6113313 C17.4788166,26.9506114 17.4495944,27.2915683 17.4349833,27.635879 C17.4277902,27.7957375 17.4244184,27.955596 17.4244184,28.1154545 C17.4244184,28.3725696 17.4322859,28.6240952 17.4491449,28.8700313 C17.6545995,31.9061133 19.116834,34.0692336 21.1376624,34.602468 L14.7076518,32.9066263 C12.6870467,32.3734509 11.224912,30.2107496 11.0201012,27.1739666 L11.0191342,27.1730718 C11.0022753,26.9282535 10.9944078,26.6767279 10.9944078,26.4196128 C10.9944078,26.2597543 10.9977796,26.0987779 11.0045231,25.9400373 C11.0195838,25.5957267 11.048806,25.2547697 11.0926393,24.9149307 C11.1332133,24.6047157 11.1849141,24.2961776 11.2489782,23.9909932 C11.3104572,23.6934105 11.3835128,23.399405 11.4666837,23.1087531 C11.5518777,22.8097171 11.6485357,22.5168295 11.7553092,22.2284134 Z M21.6741148,19.1911018 C21.1155209,19.5655955 20.5906451,20.0384637 20.1152221,20.5907022 C19.8391284,20.9106428 19.5799218,21.2560713 19.3390493,21.6238227 L19.1043584,21.9985749 C18.9099183,22.3238814 18.7289654,22.6648383 18.5648714,23.0169742 C18.4273022,23.3109797 18.300298,23.6139284 18.185657,23.9247022 L11.7556464,22.2277427 C11.8702874,21.9180867 11.9972916,21.6151381 12.1344112,21.3211326 C12.3000787,20.9678788 12.4799077,20.6280398 12.6743478,20.3027333 L12.6744078,20.3020206 L12.8612171,20.0017208 C13.115783,19.6060408 13.3916407,19.2352585 13.684762,18.8945252 C14.1617584,18.3426221 14.6855103,17.868636 15.2441042,17.4941423 C15.6613074,17.2152283 16.0996406,16.99165 16.550337,16.8317915 C16.6656524,16.791212 16.7814173,16.7554395 16.8983062,16.7230206 L23.3294407,18.4188623 C23.2114279,18.4512811 23.095663,18.4870537 22.9798981,18.5284156 C22.5285273,18.6874916 22.092442,18.91107 21.6743396,19.1905429 L15.9824078,17.6888291 L21.6741148,19.1911018 Z M18.1145121,16.5590259 C18.3303069,16.5602556 18.5404821,16.5803776 18.7461615,16.6161502 L25.1761721,18.3119918 C24.9704927,18.2762193 24.7603176,18.2572151 24.5445228,18.2549793 C24.3916681,18.2534143 24.2368154,18.2608421 24.0799645,18.2768983 L23.8437516,18.3069613 C23.674038,18.3337907 23.5020765,18.371799 23.3289911,18.4187505 L16.8989805,16.7229088 C17.0720659,16.6748395 17.2440274,16.6379491 17.4126171,16.6111197 C17.6514525,16.5735585 17.8852302,16.5567901 18.1145121,16.5590259 Z" id="形状结合" fill="url(#linearGradient-4)" fill-rule="nonzero"></path>
            <path d="M23.3169651,31.340013 C25.2759772,30.803425 26.8539767,28.2099163 26.8562299,25.5269764 C26.8595963,22.8350932 25.2838447,21.1168938 23.3259565,21.6534818 C21.3602008,22.1934234 19.7889449,24.7746353 19.7855707,27.4676363 C19.7833252,30.1505762 21.3512093,31.8788367 23.3169651,31.340013 M23.3293283,18.4183033 C26.6022161,17.5206363 29.2153562,20.3958537 29.2119877,24.880835 C29.2074887,29.3658163 26.587605,33.6674634 23.3147172,34.5651304 C20.0407055,35.4639153 17.4208218,32.5998769 17.4241903,28.1148955 C17.4286893,23.6310321 20.0553166,19.3170882 23.3293283,18.4183033" id="Fill-126" fill="url(#linearGradient-5)" fill-rule="nonzero"></path>
            <path d="M17.3312445,49.6258139 L10.9012339,47.9299723 C4.98373589,46.3682776 0.668963872,40.0410109 0.0665367293,31.1314144 C0.0314700746,30.6195318 0.0089914499,30.0997122 -1.04360964e-13,29.5709494 L6.42888668,31.2667911 C6.43900206,31.7955538 6.46148068,32.3153734 6.49632255,32.8273678 C7.09897448,41.7368525 11.4137465,48.0652372 17.3312445,49.6258139 Z" id="形状结合" fill="url(#linearGradient-6)" fill-rule="nonzero"></path>
            <path d="M40.0623042,28.8732732 C40.0398255,28.9906519 40.0229666,29.0711401 40.0016119,29.153864 C37.5255914,39.3043203 31.0989526,47.4872872 23.6899978,49.5207321 C14.3062959,52.0952366 6.66581138,44.053124 6.42978582,31.2677972 L19.01332,37.6241291 L16.2934064,44.1123723 C18.0163929,45.3353457 21.2263406,45.8093318 23.6933696,45.1330074 C29.1242054,43.6428578 34.8135453,37.0081708 36.5443994,29.7642329 C36.5736216,29.6278501 36.6050917,29.4981747 36.6376857,29.3718529 C36.6478011,29.3316088 36.6590404,29.2947184 36.6691558,29.2555922 C36.6916344,29.1706324 36.7163609,29.0867905 36.7410874,29.0063023 C36.7545745,28.9638225 36.7669378,28.9224605 36.7815489,28.8822164 C36.8051514,28.8084355 36.8298779,28.7357726 36.8546044,28.6664633 C36.8692155,28.6273371 36.8838266,28.5882109 36.8984377,28.5502025 C36.9242882,28.4808933 36.9523864,28.4138198 36.9804847,28.348982 C37.056912,28.1734731 37.0917539,28.1008101 37.1288436,28.029265 C37.1974034,27.8940001 37.2434846,27.8123941 37.2906897,27.7352595 C37.3626213,27.6223525 37.3974632,27.5686937 37.433429,27.5195064 C37.5177238,27.4054815 37.5491939,27.3641195 37.580664,27.3249933 C37.6717024,27.2210294 37.7042964,27.1863747 37.7368904,27.152838 C37.8290528,27.0622888 37.8661425,27.0298699 37.9043562,26.997451 C37.9965186,26.9214344 38.0482194,26.8834261 38.1010442,26.8498893 C38.1707279,26.8074095 38.2134373,26.7828158 38.2572706,26.7615759 C38.3449372,26.7213318 38.3786552,26.7067992 38.413497,26.6945024 C38.5135269,26.6609656 38.5539884,26.6497867 38.593326,26.6408436 C38.6573901,26.6285468 38.7045952,26.6218394 38.7518003,26.6184858 C38.8237319,26.6140142 38.8686892,26.6151321 38.9147704,26.6184858 C38.986702,26.6251931 39.0316592,26.6319005 39.0766165,26.6419615 C39.1283173,26.6542583 39.1721506,26.667673 39.2137361,26.6833235 C39.2733044,26.7067992 39.313766,26.7258034 39.3531036,26.7470433 C39.4160437,26.7828158 39.4531334,26.8074095 39.4902232,26.8342389 C39.5475437,26.8778366 39.5835095,26.9091376 39.6183513,26.9426743 C39.6543171,26.9784469 39.6880351,27.0164552 39.7195051,27.0555814 C39.7655863,27.1137118 39.7948085,27.1539559 39.8217829,27.1975536 C39.8644923,27.2668629 39.8892188,27.3126965 39.9128213,27.3618837 C39.9442914,27.4278393 39.9645222,27.4781444 39.983629,27.5306854 C40.0083555,27.5999946 40.0240905,27.6558892 40.0387016,27.7140196 C40.0611802,27.802333 40.0724195,27.8604634 40.0825349,27.9208295 C40.0960221,28.0203219 40.1038896,28.0840417 40.1072614,28.1511152 C40.1117571,28.2304855 40.1128811,28.297559 40.1117571,28.3668683 C40.1095093,28.4652428 40.1050136,28.5379057 40.09827,28.6105687 C40.0859067,28.7234758 40.0757913,28.7972566 40.0623042,28.8732732" id="Fill-132" fill="url(#linearGradient-7)" fill-rule="nonzero"></path>
            <path d="M0.874530896,22.0472032 L7.3045415,23.7430448 C7.30229364,23.8179436 7.30341757,23.8906065 7.3079133,24.0113388 C7.30903723,24.0370504 7.31016116,24.0627619 7.31128509,24.0884734 C7.31465689,24.1315122 7.31802868,24.17511 7.32364834,24.2242972 C7.33151585,24.2913707 7.34163124,24.3562084 7.361862,24.4646439 C7.37534917,24.526128 7.38883635,24.5864941 7.4124389,24.6669823 C7.42817394,24.7195232 7.44503291,24.7698283 7.47650298,24.8536702 C7.49662135,24.9059875 7.51909998,24.9562927 7.5595615,25.0345451 C7.58204013,25.0781429 7.60564268,25.1195048 7.64160848,25.1776352 C7.66858283,25.2201151 7.69892898,25.2603592 7.75062981,25.3263148 C7.78209989,25.3643231 7.81469389,25.4000956 7.85965114,25.4436934 C7.89112122,25.4738765 7.92371522,25.5018238 7.98215965,25.5476573 C8.01812545,25.5744867 8.05409125,25.6001983 8.11590746,25.6348529 C8.15074933,25.6549749 8.1855912,25.6728612 8.24178776,25.6974548 C8.28112536,25.7142232 8.32271081,25.7276379 8.39464241,25.74776 L1.9646318,24.0519183 C1.8927002,24.0317963 1.85223868,24.0183816 1.81177715,24.0016132 C1.75558059,23.9770196 1.72073872,23.9591333 1.68589686,23.9390113 C1.62408064,23.9043566 1.58699091,23.8786451 1.55214904,23.8518157 C1.49370461,23.8059821 1.46111061,23.7780349 1.42964053,23.7478518 C1.38468328,23.704254 1.35208928,23.6684815 1.32174314,23.6304732 C1.26891837,23.5645176 1.23857222,23.5242735 1.21159787,23.4817936 C1.17563207,23.4236632 1.15202952,23.3823012 1.12955089,23.3387034 C1.08908937,23.2593331 1.06661074,23.209028 1.04637998,23.157605 C1.0150223,23.0739867 0.998163332,23.0236816 0.982428295,22.9700228 C0.958825739,22.8906525 0.944214632,22.8302863 0.931851389,22.7688023 C0.911620627,22.6603668 0.901505245,22.5955291 0.893637727,22.5273377 C0.888018071,22.4792683 0.884646277,22.4356706 0.881274483,22.3920728 C0.880150552,22.3658023 0.877902689,22.3412087 0.876778758,22.3154972 C0.872283033,22.1947649 0.872283033,22.1221019 0.874530896,22.0472032 Z M7.34784096,23.2659287 L7.33848423,23.3315489 C7.33286457,23.3773825 7.32724492,23.4276876 7.32162526,23.4869359 C7.31488167,23.5595988 7.30926202,23.6311439 7.30476629,23.7429331 L0.874755682,22.0470914 C0.880375338,21.9353023 0.884871063,21.8637572 0.891614651,21.7910942 C0.897195816,21.7322518 0.902776981,21.6822304 0.909459141,21.6366497 L0.908698405,21.6360427 C0.915441993,21.5902091 0.921061649,21.5488471 0.927805236,21.5074851 C0.946462495,21.3999439 0.95994967,21.3228094 0.974560776,21.2535001 C0.979056501,21.2299126 0.984676157,21.2075548 0.989171882,21.1840791 C1.12516756,20.5938323 1.27689828,20.0058213 1.44436403,19.4222818 C1.68591134,18.5811858 1.95890322,17.7498074 2.26221711,16.9307148 L2.26202401,16.9302777 C2.60257517,16.0124887 2.97909214,15.1103501 3.39045097,14.2316873 L3.389889,14.2316873 C3.89116234,13.1607471 4.44076471,12.1222257 5.03644827,11.12842 L11.4653349,12.8242617 C10.9905864,13.6202005 10.5424525,14.4433265 10.1261124,15.2890608 L9.81933765,15.9275289 C9.40910275,16.8073097 9.03146185,17.7083303 8.69203462,18.6261194 L8.69259658,18.6266783 C8.38913515,19.444975 8.11601986,20.2778043 7.87437464,21.1184588 C7.70690889,21.7016629 7.55517817,22.2896739 7.41918249,22.8810386 C7.41468677,22.9033964 7.40906711,22.9268722 7.40457138,22.9503479 C7.38996028,23.0186511 7.3764731,23.0957856 7.35736627,23.2031032 L7.34784096,23.2659287 L7.34784096,23.2659287 Z M20.8579159,0.000591144147 C21.4896777,0.00595702409 22.1100877,0.0629694985 22.7147627,0.168051314 L27.0660544,1.315 L22.7145379,0.167939525 C23.0348583,0.222716216 23.3518069,0.292025499 23.6631359,0.373631589 L30.0931465,2.07059112 C29.7806936,1.98786714 29.4648689,1.91855786 29.1445485,1.86378117 C28.5400983,1.75881114 27.9196883,1.70179866 27.2880389,1.69620921 C26.6158156,1.68972543 25.9290936,1.74114845 25.2311323,1.85070183 L20.5360544,0.612 L25.2309076,1.85114899 C24.7375017,1.92828351 24.2373523,2.036719 23.7327072,2.17533757 C23.4303697,2.25806155 23.1291561,2.35308234 22.8290665,2.45816416 L22.8263557,2.458 L22.3766074,2.62581996 C21.4752452,2.97868945 20.5888191,3.43091156 19.723493,3.97116763 L19.2920544,4.248 L19.2931788,4.24869122 C17.6027863,5.36993655 16.0000603,6.82654938 14.5400736,8.52909837 L14.5383557,8.529 L14.1254159,9.02346761 C13.1681294,10.1928216 12.2760265,11.4680914 11.4656721,12.8238145 L5.03566152,11.1279729 C5.96178086,9.57857506 6.99467366,8.13314115 8.11073738,6.83303315 L10.8363557,7.552 L8.11006302,6.83213884 C9.57117363,5.12958985 11.1727756,3.67409491 12.8620443,2.55284958 L13.8400544,2.81 L12.8626063,2.55273779 C14.0067683,1.79368936 15.1913918,1.18779208 16.3984939,0.761875361 L16.4003557,0.761 L16.8500333,0.6123853 C17.0006401,0.565014641 17.1515279,0.520298975 17.3026966,0.478378038 C17.6391267,0.386710922 17.9735587,0.307961665 18.3056595,0.242461495 L18.8011217,0.154860193 C19.499083,0.0441889187 20.185805,-0.00611620578 20.8579159,0.000591144147 Z" id="形状结合" fill="url(#linearGradient-8)" fill-rule="nonzero"></path>
            <path d="M7.35736627,23.2031032 C7.38209276,23.0588952 7.39895173,22.9705817 7.41918249,22.8800325 C9.65468172,13.1353709 16.3285854,4.20677029 23.7319205,2.17556115 C33.1144984,-0.398943333 40.7639744,7.64205134 41,20.4273782 L28.1669531,15.1542833 L31.3825204,7.5134938 C29.4044014,6.3620654 26.1955777,5.89590458 23.7285487,6.57334692 C18.0504481,8.13056999 12.8612575,16.3135369 10.6280062,23.6849145 C10.5999079,23.7788174 10.5706857,23.8671308 10.5403395,23.9543264 C10.4886387,24.0929449 10.4639122,24.1555469 10.4391857,24.2147951 C10.3773695,24.360121 10.3414037,24.4350198 10.3054379,24.5065648 C10.2604807,24.5926425 10.2256388,24.6530087 10.1907969,24.7122569 C10.1256089,24.8173387 10.0952628,24.8631723 10.0649166,24.9090058 C9.99073716,25.0118519 9.94915171,25.0666286 9.90644232,25.1169337 C9.84912183,25.1828893 9.8120321,25.2231334 9.77494236,25.2611417 C9.7007629,25.3338047 9.66592103,25.3651056 9.63107917,25.3952887 C9.55240398,25.4612443 9.50744673,25.4947811 9.46136555,25.526082 C9.39392967,25.5685619 9.35683994,25.5909198 9.31975021,25.6110418 C9.2399511,25.6512859 9.2039853,25.6680543 9.16689556,25.6837048 C9.08709645,25.7150057 9.04101527,25.7306562 8.99381015,25.7418351 C8.92637428,25.7586035 8.88591276,25.7653109 8.84657516,25.7720182 C8.77689143,25.7809613 8.73305811,25.7831971 8.68922479,25.784315 C8.61504533,25.7831971 8.57233594,25.7798434 8.52962655,25.774254 C8.47904965,25.7675466 8.43634026,25.7586035 8.3947548,25.7474246 C8.32282321,25.7284204 8.28123775,25.7138878 8.24190016,25.6971195 C8.18570359,25.6725258 8.15086173,25.6546396 8.11601986,25.6356354 C8.05420364,25.5998629 8.01711391,25.5752693 7.98227204,25.5484399 C7.92270369,25.5014884 7.89123361,25.4735411 7.85976354,25.4433581 C7.81480629,25.3997603 7.78221228,25.3639877 7.75074221,25.3259794 C7.69904137,25.2611417 7.66869523,25.2208976 7.64059694,25.1772998 C7.60575508,25.1202874 7.58215252,25.0778075 7.5596739,25.0353276 C7.51921237,24.9559573 7.49673375,24.9056522 7.47650298,24.8542292 C7.44503291,24.7703873 7.42705001,24.7189643 7.4124389,24.6664234 C7.38883635,24.587053 7.37534917,24.5266869 7.361862,24.464085 C7.34163124,24.3567674 7.33151585,24.2919297 7.32364834,24.2237383 C7.31465689,24.1454858 7.31016116,24.0795302 7.3079133,24.0113388 C7.30341757,23.8906065 7.30229364,23.8179436 7.3045415,23.7430448 C7.31016116,23.6312557 7.31465689,23.5597106 7.32140047,23.4870477 C7.33376372,23.3685511 7.3438791,23.2869451 7.35736627,23.2031032" id="Fill-168" fill="url(#linearGradient-9)" fill-rule="nonzero"></path>
        </g>
    </g>
</svg>