<?xml version="1.0" encoding="UTF-8"?>
<svg width="50px" height="50px" viewBox="0 0 50 50" version="1.1" xmlns="http://www.w3.org/2000/svg" xmlns:xlink="http://www.w3.org/1999/xlink">
    <title>网站安全-灰</title>
    <defs>
        <linearGradient x1="51.287204%" y1="100%" x2="71.349282%" y2="-65.7000357%" id="linearGradient-1">
            <stop stop-color="#5F5F5F" offset="0%"></stop>
            <stop stop-color="#B8B8B8" offset="100%"></stop>
        </linearGradient>
        <linearGradient x1="11.0652923%" y1="73.9035789%" x2="77.6125621%" y2="37.5713653%" id="linearGradient-2">
            <stop stop-color="#5F5F5F" offset="0%"></stop>
            <stop stop-color="#B8B8B8" offset="100%"></stop>
        </linearGradient>
        <linearGradient x1="14.3931528%" y1="109.247018%" x2="111.590639%" y2="37.0692818%" id="linearGradient-3">
            <stop stop-color="#5F5F5F" offset="0%"></stop>
            <stop stop-color="#B8B8B8" offset="100%"></stop>
        </linearGradient>
        <linearGradient x1="66.2260118%" y1="0%" x2="41.2410249%" y2="95.0951313%" id="linearGradient-4">
            <stop stop-color="#E7E7E7" offset="0%"></stop>
            <stop stop-color="#AFAFAF" offset="100%"></stop>
        </linearGradient>
    </defs>
    <g id="页面-1" stroke="none" stroke-width="1" fill="none" fill-rule="evenodd">
        <g id="编组-108" transform="translate(7.000000, 0.000617)">
            <path d="M14.8170639,40.0597136 L21.8514375,41.9337049 C21.7801224,42.0176519 21.7063481,42.1028333 21.6313443,42.1855457 L14.5969707,40.3115543 C14.6719745,40.2288419 14.7445192,40.1461295 14.8170639,40.0597136 Z M15.400864,21.1266866 L21.7635011,24.0256866 L26.7971394,25.366041 C26.7971394,25.3783862 26.8118943,25.6080057 26.8118943,26.0573686 L25.3925011,25.6786866 L25.4005011,25.6816866 L26.8112795,26.0571217 L26.8112795,26.3248876 C26.8100499,26.6112947 26.8026725,26.9594275 26.7854585,27.3544718 L19.9005011,24.2166866 L19.8965011,24.2156866 L26.7849667,27.3549656 C26.7542274,28.1154259 26.6853715,29.0573596 26.5501187,30.1141031 C26.4563025,30.8478979 26.3296567,31.636752 26.1599759,32.4589379 C26.0270594,33.1038477 25.8672152,33.7680159 25.6754021,34.4432948 C25.5102708,35.0279603 25.3196874,35.6217613 25.1020534,36.2143277 L25.1025452,36.2138339 C24.8984365,36.771834 24.6697363,37.3285995 24.4139856,37.880427 C24.1448326,38.4626236 23.846047,39.0379068 23.5128333,39.5996104 C23.0320712,40.4138955 22.4812236,41.1978115 21.8516834,41.9335815 L14.8173098,40.0595901 C15.1040233,39.7257104 14.4698291,38.6945528 13.7378281,37.5927021 L13.4417624,37.1496768 C12.6487492,35.9661432 11.8693211,34.7972318 12.1024178,34.4033846 L16.5925011,36.4466866 L12.1024178,34.4026439 C12.4356315,33.8409403 12.7344171,33.2656571 13.0036931,32.6829667 L19.1465011,35.4796866 L13.0035702,32.682226 C13.2593208,32.131633 13.488021,31.573633 13.6921297,31.0168674 L17.3505011,32.6816866 L13.6916379,31.0161267 C13.9092719,30.4235603 14.0986258,29.8309938 14.2658474,29.2458345 L16.1725011,30.1136866 L14.2649867,29.2450938 C14.4567997,28.572284 14.6166439,27.9056467 14.7494375,27.2612307 L15.5985011,27.6476866 L14.7495605,27.2607369 C14.9192412,26.4397855 15.045887,25.6509314 15.1393343,24.9176304 L16.1255011,25.3656866 L15.1397032,24.9171366 C15.274956,23.8603931 15.3425824,22.9172249 15.3757808,22.1567646 L19.6845011,24.1186866 L19.6805011,24.1166866 L15.375043,22.1562708 C15.392257,21.7612265 15.3996344,21.4155628 15.400864,21.1266866 Z" id="形状结合" fill="#949494" fill-rule="nonzero"></path>
            <path d="M26.360396,25.2567866 L19.3260224,23.3840297 C16.7414649,22.6964058 14.8577627,21.4507817 14.6450469,21.3075782 L21.6794205,23.1791005 C21.8921363,23.3235386 23.7758385,24.5679281 26.360396,25.2567866" id="Fill-23" fill="#949494" fill-rule="nonzero"></path>
            <path d="M0.023361842,19.4960532 L7.05773544,21.36881 L7.0343736,46.4207909 L4.41424675e-13,44.5467995 L0.023361842,19.4960532 Z M9.03955739,49.9301422 L2.00518379,48.0573853 C0.91947292,47.7685092 0.122711149,46.5821418 0.0132793628,44.945177 L5.969,46.5300532 L0.0131564058,44.9446832 C0.00454941135,44.8150593 0.000860699444,44.6829663 0.000860699444,44.5471699 L7.03400473,46.4211612 C7.03400473,46.5557232 7.03892301,46.6890506 7.04753,46.81744 C7.15708475,48.4548986 7.95384652,49.641266 9.03955739,49.9301422 Z" id="形状结合" fill="url(#linearGradient-1)" fill-rule="nonzero"></path>
            <polygon id="Fill-29" fill="url(#linearGradient-2)" fill-rule="nonzero" points="7.05712065 21.36881 0.0227470567 19.4960532 29.9578737 11.2062956 36.9934769 13.0778179"></polygon>
            <path d="M4.19861484,12.623517 L11.2329884,14.4962738 C11.1346228,14.6110836 11.0276501,14.7098447 10.9145296,14.7863845 L10.9124272,14.7862963 L10.8335875,14.8357422 C10.7793042,14.8668336 10.7241101,14.8931699 10.6683696,14.9129221 L10.6687385,14.9124283 L10.6048008,14.9321805 L10.6048008,14.9321805 L3.57042721,13.0594237 C3.59132991,13.0544856 3.61346218,13.0470785 3.63436488,13.0396714 L8.74842721,14.4011704 L3.63399601,13.0389307 C3.71883638,13.0093024 3.80121761,12.967329 3.87991014,12.9130104 C3.99327655,12.8370878 4.10024919,12.7383267 4.19861484,12.623517 Z M4.66511394,11.7326921 L11.6994875,13.6054489 C11.6822736,13.6659401 11.6626004,13.7264313 11.6404681,13.7856879 L10.9604272,13.6041704 L11.6398534,13.7860583 C11.6164915,13.850253 11.589441,13.9144477 11.5611608,13.9774078 C11.526364,14.0524663 11.4882473,14.1253025 11.4464419,14.1956698 C11.3827501,14.3044304 11.3102055,14.4056605 11.2327425,14.49578 L4.19836893,12.6230232 C4.27583188,12.5316692 4.34714698,12.4304391 4.41231422,12.3218019 C4.45387371,12.2525457 4.4919904,12.1797094 4.52764795,12.1044041 L6.47342721,12.6221704 L4.52678725,12.1034165 C4.55629694,12.0416908 4.58211792,11.9774961 4.60670934,11.9120669 L4.60609455,11.9116965 C4.62822682,11.8536744 4.64789995,11.7931832 4.66511394,11.7326921 Z M11.8633893,7.60917037 L18.8977629,9.48316174 C19.2742164,9.58387746 19.5731814,9.97504675 19.6516484,10.5102326 L19.6679659,10.6592827 L19.6707325,10.7273352 L19.6716547,10.7963137 C19.6716547,10.823473 19.6716547,10.8531013 19.6704251,10.8802606 C19.66772,10.9424801 19.6615722,11.0042057 19.6541948,11.0671659 L19.6414072,11.1547855 L19.6251769,11.2414792 C19.6128812,11.3007358 19.5981263,11.358758 19.5821419,11.4167801 C19.5651738,11.476654 19.5455007,11.5371452 19.5233684,11.5964018 L19.4855658,11.6933342 L19.4855658,11.6933342 L19.4438152,11.7888625 C19.4081577,11.8654023 19.370041,11.9382386 19.3282356,12.0098404 C19.2850367,12.0832116 19.2377665,12.1531674 19.1881283,12.2187337 L19.1118311,12.3141479 C19.0134655,12.4289577 18.9052633,12.5277187 18.7921428,12.6042586 L18.7907127,12.6041704 L18.7123072,12.6541192 C18.6588437,12.6851192 18.6044693,12.7106325 18.5495485,12.7295617 L18.5477127,12.7291704 L18.5184404,12.7400242 C18.507989,12.7435734 18.4975377,12.7469683 18.4870863,12.7500546 L15.7214272,12.0121704 L15.7189539,12.0681402 C15.7161874,12.0997747 15.7128061,12.1315634 15.7091174,12.1630435 C15.7012481,12.2216829 15.6914116,12.2809395 15.6791159,12.3401961 L15.6796077,12.3397023 C15.667312,12.398959 15.6525571,12.4569811 15.6365727,12.5150032 L9.48042721,10.8761704 L15.6366957,12.5156205 C15.6194817,12.5761117 15.5998085,12.6366028 15.5776763,12.697094 L8.54330268,10.8231026 C8.56543495,10.7650805 8.58510808,10.7045893 8.60232207,10.6428636 L8.62509987,10.5555218 L8.62509987,10.5555218 L8.64474226,10.4662048 C8.65703796,10.4094172 8.66687453,10.3501605 8.67425195,10.2896694 L14.6194272,11.8721704 L8.67474378,10.2890521 C8.68335077,10.2273264 8.68826906,10.1643662 8.6907282,10.1014061 L11.5194272,10.8541704 L11.5204272,10.8541704 L8.69097411,10.1009123 C8.69220368,10.0725184 8.69220368,10.0441246 8.69220368,10.0157308 C8.69220368,9.96881932 8.69097411,9.92314232 8.68851497,9.87746532 L10.5754272,10.3791704 L8.68802314,9.87672462 C8.64744731,9.26564047 8.33267723,8.80887051 7.92323021,8.70023333 L12.4174272,9.89617037 L12.4514622,9.82157273 C12.4648338,9.78932107 12.4774369,9.75660646 12.4891178,9.72389185 C12.5111271,9.66562282 12.5308002,9.60513166 12.5480142,9.54340599 L15.1814272,10.2431704 L12.5477683,9.54278874 L12.5706691,9.45729868 L12.5706691,9.45729868 L12.5904344,9.36921615 C12.6027301,9.31242853 12.6125667,9.25317189 12.6199441,9.19391524 C12.6284282,9.13268338 12.6333464,9.06972319 12.6358056,9.00676301 C12.6372811,8.97910991 12.6372811,8.95195061 12.6372811,8.9235568 C12.6372811,8.87664529 12.6360515,8.83220281 12.6335923,8.78776033 L16.1534272,9.72317037 L12.6331005,8.78689617 C12.5925247,8.17457751 12.2752955,7.71904206 11.8633893,7.60917037 Z M11.6992416,13.6048317 L4.66486803,11.7320748 C4.68085245,11.6752872 4.69560729,11.6160306 4.707903,11.5567739 L10.2734272,13.0381704 L4.70753413,11.5560332 C4.71982984,11.4992456 4.7296664,11.439989 4.73704382,11.3807323 L8.86442721,12.4782963 L4.73753565,11.3801151 C4.74614265,11.3183894 4.75106093,11.2541947 4.75352007,11.1912345 C4.75499556,11.1623469 4.75499556,11.1351876 4.75499556,11.1055593 C4.75499556,11.0586478 4.75376598,11.0129708 4.75130684,10.9685283 L6.95742721,11.5551704 L4.75069206,10.9677876 C4.71011623,10.3579379 4.39780529,9.90116798 3.98466955,9.79129629 L8.47542721,10.9871704 L8.50530895,10.9208761 C8.51852683,10.8887787 8.53112993,10.8560641 8.54342564,10.8233495 L15.5777992,12.6973409 C15.5532078,12.7615356 15.5261573,12.8257303 15.4978771,12.8886905 C15.4630803,12.9649834 15.4249636,13.0365852 15.3831582,13.1069524 L11.5553983,12.0872109 C11.5556032,12.0875351 11.555808,12.0878594 11.5560128,12.0881838 L15.3827893,13.1071993 C15.3188517,13.217071 15.246307,13.3170666 15.1700736,13.4084206 C15.0724457,13.5224896 14.9654731,13.6200162 14.8535821,13.696556 L14.8515046,13.6962333 L14.7741883,13.7447249 C14.7210891,13.7750848 14.6672612,13.8008724 14.6123404,13.8206246 L14.6125863,13.8202543 C14.5916836,13.8276614 14.5707809,13.8338339 14.5498782,13.8400065 L11.7854272,13.1021704 L11.7817766,13.1585242 C11.7789793,13.1899117 11.775598,13.2213918 11.7719092,13.2528719 L11.7704272,13.2522963 L11.7585069,13.3411396 C11.7535886,13.3707679 11.7480556,13.4003963 11.7419077,13.4300246 C11.7299809,13.4887874 11.715226,13.5468096 11.6992416,13.6048317 Z" id="形状结合" fill="#949494"></path>
            <path d="M3.16516073,13.0642383 L3.19666847,13.071491 L3.19666847,13.071491 L3.22872953,13.077571 C3.26807579,13.0849781 3.30865162,13.0886816 3.34922745,13.0886816 C3.39250834,13.0896692 3.43554331,13.0859657 3.47857828,13.0797931 L10.5129519,14.95255 C10.4699169,14.9599571 10.4268819,14.9624261 10.383847,14.9624261 C10.3430252,14.962673 10.3024494,14.9577349 10.2631031,14.9515624 L10.2601607,14.9501644 L10.2310421,14.9453281 C10.220437,14.9428591 10.2099857,14.9400814 10.1995343,14.9369951 L3.16516073,13.0642383 Z M3.57141086,13.0601644 L10.6045549,14.9316867 C10.5738156,14.9403283 10.5430764,14.9477354 10.5135667,14.9526734 L3.47919307,13.0786821 C3.50993233,13.0749785 3.5406716,13.068806 3.57141086,13.0601644 Z" id="形状结合" fill="#7F7F7F"></path>
            <path d="M3.18139106,6.63353441 L10.2157647,8.50629127 C10.1555157,8.52357446 10.0952667,8.54209216 10.0350178,8.56307889 L8.70482098,8.209 L10.0347719,8.56332579 C9.79992387,8.6472727 9.57122373,8.76578599 9.35113059,8.9139276 L9.35149946,8.91429795 C9.11247093,9.07626611 8.88524627,9.27299817 8.6729732,9.49817342 L8.51686691,9.67228919 C8.38407328,9.82701487 8.25838384,9.99326268 8.14052722,10.1699353 L7.96995389,10.4428725 C7.86421082,10.6206424 7.76584517,10.8070539 7.67608651,11.0008725 L7.56880647,11.2456303 L7.46982098,11.4970332 L7.47087117,11.4971469 L7.38864364,11.7347908 L7.31382098,11.9750332 L7.31508457,11.9757678 C7.27082003,12.132551 7.23147377,12.2918032 7.19827536,12.4535245 L6.29282098,12.2120332 L7.19778353,12.4540183 L7.15244312,12.6990692 L7.11589413,12.9484409 L7.08653813,13.2184907 L7.06867862,13.4905157 C7.06621948,13.5744627 7.06376034,13.6584096 7.06376034,13.7423565 L7.06388329,13.7427268 L7.06019458,18.0956212 L0.0258209833,16.2228643 L0.0295096952,11.86997 C0.0293867382,11.7856527 0.0318458794,11.7017058 0.0355345913,11.6177589 L0.0347968489,11.6176354 C0.0434038434,11.436162 0.058158691,11.253454 0.081520533,11.0744495 L0.0810287048,11.0738323 C0.101931406,10.9084075 0.13021153,10.7429827 0.164639508,10.5800269 C0.197100173,10.4202809 0.236446433,10.2610286 0.280710976,10.1042454 L2.93082098,10.8090332 L0.280342105,10.1033813 C0.327065789,9.94166002 0.378707755,9.78117328 0.436497575,9.62439007 L4.88682098,10.809 L0.436374618,9.62352591 C0.49908272,9.45439757 0.567938676,9.28897278 0.641712914,9.12725152 L0.782652448,8.84283506 L0.935334381,8.5686342 C1.04517602,8.38345718 1.16376128,8.20651026 1.28926857,8.03998812 L1.4822474,7.79829782 C1.68684795,7.55929602 1.90718701,7.34715724 2.14011687,7.16883424 L2.31682098,7.0410332 L2.31675699,7.04117074 C2.53685013,6.89302913 2.76555027,6.77575036 3.00039826,6.69056893 C3.06089314,6.6693353 3.1211421,6.64958308 3.18139106,6.63353441 Z M27.4553286,-4.3443027e-13 C27.5689409,0.00061725671 27.6796023,0.0117278775 27.7890341,0.0314800922 L31.3051161,0.967382743 L27.7884193,0.0307393842 C27.8462091,0.0406154915 27.9039989,0.0541951391 27.9605592,0.0690093002 L34.9949328,1.94176616 C34.9383725,1.926952 34.8805827,1.91460686 34.8227929,1.90349624 L34.8151161,1.90138274 L34.6574156,1.88170708 C34.6017776,1.87676903 34.5455247,1.87399137 34.4889645,1.87337411 L31.087821,0.967 L34.4884726,1.87399137 C34.4089604,1.87316836 34.3278087,1.87673473 34.2457463,1.88505627 L34.1223065,1.90090376 L33.9893592,1.92621129 L33.9893592,1.92621129 L33.8561044,1.95855554 L10.2163794,8.50641472 L3.18200584,6.63242335 L26.8205013,0.0870331961 L32.633821,1.633 L26.8211161,0.0861690367 C26.9108747,0.0614787683 26.9994038,0.0417265536 27.0879329,0.028146906 L32.6421161,1.50638274 L27.087687,0.0271592952 L27.2728911,0.00663550963 L27.4545909,-0.00061725671 L27.4553286,-4.3443027e-13 Z" id="形状结合" fill="url(#linearGradient-3)" fill-rule="nonzero"></path>
            <path d="M36.9937228,13.0781883 L36.970361,38.1301691 C36.9679018,40.5251251 35.5514364,42.8855148 33.8177418,43.3657405 L10.1792464,49.9135997 C8.44678138,50.3925909 7.03277516,48.8161173 7.03400392,46.4211612 L7.05736657,21.3691804 L36.9937228,13.0781883 Z M21.6794205,23.1789064 C21.6634361,23.1629284 19.5264424,25.8825615 16.5164535,28.2133228 C16.5164535,28.2256679 16.500469,28.463929 16.500469,28.9132919 L16.500469,29.1799468 C16.5127647,31.8822967 16.978772,39.5387489 21.6314673,42.1855457 C26.3149018,36.9536778 26.7932048,29.0355087 26.8116484,26.3245173 L26.8116484,26.0578624 C26.8116484,25.607265 26.7981231,25.37888 26.7968935,25.3665348 C23.9897838,24.7110082 21.9032024,23.3320567 21.6794205,23.1789064 Z M36.9999968,5.45111746 L36.9950753,9.80524629 L7.05994867,18.0962384 L7.06363738,13.7421096 C7.06609652,11.3471535 8.48379146,8.98676389 10.2162565,8.50653817 L33.8559815,1.95867899 C35.5884465,1.47968778 37.0024527,3.05616142 36.9999968,5.45111746 Z M10.6072599,11.6693616 C9.98140849,11.8434279 9.43055878,12.7544988 9.43055878,13.6322379 C9.42933128,14.4988663 9.97771978,15.1062469 10.6048008,14.9321805 C11.2392593,14.7568796 11.7888773,13.8458087 11.7901069,12.9791803 C11.7901069,12.1014412 11.2417184,11.4940606 10.6072599,11.6693616 Z M14.5529521,10.5780517 C13.9184937,10.7533526 13.3688756,11.665658 13.367646,12.540928 C13.367646,13.408791 13.914805,14.0161716 14.5492634,13.8396361 C15.1763444,13.6668043 15.7259625,12.7544988 15.7271941,11.8878704 C15.7284216,11.0113659 15.1788036,10.4039853 14.5529521,10.5780517 Z M18.4900373,9.48674183 C17.8555788,9.66204273 17.3059608,10.5743481 17.3047312,11.4520872 C17.3047312,12.3187156 17.8531197,12.9248617 18.4875781,12.7495608 C19.1134296,12.5767289 19.6716547,11.663189 19.6728842,10.7953261 C19.6728842,9.91882152 19.1158887,9.31267543 18.4900373,9.48674183 Z" id="形状结合" fill="url(#linearGradient-4)" fill-rule="nonzero"></path>
        </g>
    </g>
</svg>