<?xml version="1.0" encoding="UTF-8"?>
<svg width="50px" height="50px" viewBox="0 0 50 50" version="1.1" xmlns="http://www.w3.org/2000/svg" xmlns:xlink="http://www.w3.org/1999/xlink">
    <title>威胁</title>
    <defs>
        <linearGradient x1="39.642662%" y1="80.4141458%" x2="75.8923099%" y2="9.83814753%" id="linearGradient-1">
            <stop stop-color="#003B7C" offset="0%"></stop>
            <stop stop-color="#4EA2FF" offset="100%"></stop>
        </linearGradient>
        <linearGradient x1="1.98260923%" y1="196.801999%" x2="50%" y2="-79.2567894%" id="linearGradient-2">
            <stop stop-color="#003B7C" offset="0%"></stop>
            <stop stop-color="#4EA2FF" offset="100%"></stop>
        </linearGradient>
        <linearGradient x1="-26.826949%" y1="288.371107%" x2="22.8889826%" y2="-43.1588614%" id="linearGradient-3">
            <stop stop-color="#003B7C" offset="0%"></stop>
            <stop stop-color="#4EA2FF" offset="100%"></stop>
        </linearGradient>
        <linearGradient x1="13.8421594%" y1="61.1506738%" x2="92.573531%" y2="-0.861058525%" id="linearGradient-4">
            <stop stop-color="#003B7C" offset="0%"></stop>
            <stop stop-color="#4EA2FF" offset="100%"></stop>
        </linearGradient>
        <linearGradient x1="-84.3199617%" y1="89.7811488%" x2="50%" y2="-58.1880026%" id="linearGradient-5">
            <stop stop-color="#003B7C" offset="0%"></stop>
            <stop stop-color="#4EA2FF" offset="100%"></stop>
        </linearGradient>
        <linearGradient x1="36.5894884%" y1="182.47892%" x2="134.638111%" y2="-107.202874%" id="linearGradient-6">
            <stop stop-color="#003B7C" offset="0%"></stop>
            <stop stop-color="#4EA2FF" offset="100%"></stop>
        </linearGradient>
        <linearGradient x1="0%" y1="80.4184951%" x2="119.644824%" y2="-0.245360345%" id="linearGradient-7">
            <stop stop-color="#003B7C" offset="0%"></stop>
            <stop stop-color="#4EA2FF" offset="100%"></stop>
        </linearGradient>
        <linearGradient x1="47.846223%" y1="103.340994%" x2="59.1802501%" y2="0%" id="linearGradient-8">
            <stop stop-color="#003B7C" offset="0%"></stop>
            <stop stop-color="#4EA2FF" offset="100%"></stop>
        </linearGradient>
        <linearGradient x1="66.6334946%" y1="1.62583954%" x2="36.7445408%" y2="96.0220686%" id="linearGradient-9">
            <stop stop-color="#C3EEFF" offset="0%"></stop>
            <stop stop-color="#25A8FF" offset="100%"></stop>
        </linearGradient>
    </defs>
    <g id="页面-1" stroke="none" stroke-width="1" fill="none" fill-rule="evenodd">
        <g id="编组-101" transform="translate(5.000000, 1.000000)">
            <polygon id="Fill-1" fill="url(#linearGradient-1)" fill-rule="nonzero" points="26.9059257 23.4522699 20.7864938 21.823247 29.0441435 19.537031 35.1625057 21.1660539"></polygon>
            <polygon id="Fill-3" fill="url(#linearGradient-2)" fill-rule="nonzero" points="28.7496706 38.2065785 22.6302387 36.5775556 18.6019604 27.8514909 24.7213922 29.4805138"></polygon>
            <path d="M18.113668,25.1317636 L24.2320302,26.7607865 C24.2234731,26.7768942 24.2127766,26.7940757 24.2031498,26.8101834 C24.0835637,27.0116367 23.9530671,27.196338 23.8118742,27.3617102 C23.6163433,27.5917278 23.4024145,27.783946 23.178859,27.9342843 C23.0700406,28.0075206 22.958655,28.0701138 22.8454629,28.1218413 L22.674308,28.1908259 L22.608525,28.2133767 L22.608525,28.2133767 L22.5430628,28.233028 L22.4409118,28.2607332 C22.3884992,28.2736194 22.3360867,28.2843578 22.2836742,28.2929486 L22.2798369,28.2917103 L22.1386037,28.3101301 C22.0906035,28.3138885 22.0430043,28.3154993 21.99594,28.3149624 C21.9080153,28.3138885 21.8224438,28.3063716 21.7379419,28.2913378 L15.6185101,26.6623149 L15.7461988,26.6793622 L15.8765081,26.6859395 C15.9706368,26.6870133 16.0669047,26.6794964 16.1642423,26.6633887 L16.1658369,26.6637103 L16.2429948,26.6494288 L16.3220148,26.6319251 L16.4236309,26.6040051 L16.42331,26.603683 C16.4671654,26.5918707 16.5110208,26.5768368 16.5548762,26.561803 C16.7261262,26.5010234 16.8961995,26.4140419 17.059855,26.3055836 C17.2840523,26.1549231 17.4969114,25.9627049 17.6926562,25.732902 C17.8336353,25.5673151 17.9652015,25.3826138 18.0839319,25.1807309 L18.08431,25.1797636 L18.098693,25.1560593 C18.1035064,25.1478712 18.1083198,25.1398174 18.113668,25.1317636 Z M17.4731654,19.9074001 L23.5915276,21.536423 C23.6246865,21.5493092 23.6589151,21.5589738 23.6899348,21.5750814 C23.7295116,21.5933368 23.7669491,21.6169614 23.8043867,21.6384383 C23.833267,21.654546 23.8610778,21.668506 23.8888885,21.6867613 C23.929535,21.7125336 23.9691118,21.7458228 24.007619,21.7769643 C24.0300815,21.7941458 24.0546833,21.8102535 24.0760762,21.8295827 C24.1370459,21.8822011 24.1948066,21.9391149 24.2504281,22.0024718 C24.659032,22.4470436 24.9007715,23.1181967 24.9510448,23.8827744 C24.9583183,23.9853266 24.9615273,24.0894896 24.9615273,24.1958002 C24.9615273,24.2689291 24.9604576,24.3430244 24.9572487,24.4160459 C24.9511517,24.5486657 24.9404553,24.6828963 24.923341,24.8160531 C24.9077242,24.9382567 24.8863313,25.060675 24.8617295,25.1820195 C24.8380904,25.2998203 24.80921,25.4168694 24.776051,25.5328447 L24.7225421,25.7093043 L24.6625618,25.8830256 C24.6165672,26.0065177 24.5662939,26.1278622 24.5117421,26.2459852 L24.4113827,26.4500157 L24.3008083,26.6486771 C24.2783458,26.6862616 24.2558833,26.7238462 24.2323511,26.7603569 L18.1129193,25.131334 C18.1364514,25.0937495 18.158914,25.0572387 18.1813765,25.0185803 L18.2920846,24.8209928 L18.3923102,24.6169623 L18.4713302,24.4374959 L18.5428091,24.25411 C18.5845252,24.1381348 18.6230324,24.0221595 18.6561913,23.9040365 C18.6897781,23.7878465 18.7175889,23.6707974 18.7421907,23.5526744 C18.7679691,23.4316521 18.7882923,23.3092338 18.8032673,23.1868154 C18.8209806,23.0531352 18.8327306,22.9203086 18.8380975,22.7874847 L18.8378168,22.7870229 C18.8410258,22.7129276 18.8420954,22.6399062 18.8420954,22.5668847 C18.8420954,22.4608074 18.838907,22.3569714 18.8325302,22.2542058 L18.8316129,22.2537515 C18.78027,21.4891738 18.5396002,20.8169468 18.1309963,20.372375 C18.0753748,20.310092 18.017614,20.2531782 17.9566443,20.199486 C17.9341818,20.1801567 17.9106496,20.1651229 17.8881871,20.1468675 C17.8486103,20.1167999 17.8101031,20.0835107 17.7694567,20.0566646 C17.7427156,20.039483 17.7127656,20.0255231 17.6860245,20.0094154 C17.6475173,19.9879385 17.6100798,19.9643139 17.5705029,19.9449847 C17.5384136,19.9299508 17.5063243,19.9202862 17.4731654,19.9074001 Z" id="形状结合" fill="#FFEAA4"></path>
            <path d="M35.1628266,21.1661612 L29.0433947,19.5360645 C29.045534,18.9969943 29.0284197,18.465441 28.9941911,17.9414046 C28.8333167,15.5227835 28.2877984,13.2827427 27.3818102,11.3927755 C26.2672414,9.02172563 24.6552883,7.25525055 22.7117456,6.27697773 L28.8311774,7.90600064 C30.7736505,8.88427347 32.3877429,10.6507485 33.5023117,13.0217984 C34.4072303,14.9117656 34.9527486,17.1528802 35.1131951,19.5701054 C35.1478516,20.0944639 35.1649659,20.627091 35.1628266,21.1661612 Z" id="形状结合" fill="url(#linearGradient-3)" fill-rule="nonzero"></path>
            <path d="M19.9717462,38.8750471 L26.0901084,40.50407 C26.0537405,40.5287684 26.016303,40.5534668 25.9788654,40.5781653 L25.9761913,40.5796687 C25.9408931,40.6032932 25.9055948,40.6279917 25.8702966,40.6505424 C25.8308267,40.6771738 25.7912499,40.7040199 25.7516731,40.7287183 C25.691773,40.7673768 25.631873,40.8028137 25.5719729,40.8403982 C25.5003068,40.8844259 25.4286407,40.9295274 25.3569746,40.9724812 C25.2970745,41.0079181 25.2371745,41.0412073 25.1772744,41.0755703 C25.1056083,41.1163764 25.0328725,41.1582564 24.9601367,41.1979886 C24.8980974,41.2312778 24.8360581,41.2634932 24.7740187,41.2957085 C24.7034222,41.3332931 24.6328257,41.3708777 24.5622293,41.4063146 C24.4991203,41.4374561 24.4360113,41.4675237 24.3718327,41.4975914 C24.3012362,41.5308806 24.2306397,41.5663175 24.1589736,41.5985328 C24.0969342,41.6264528 24.0338252,41.6532989 23.9707163,41.680145 C23.8990501,41.7112866 23.827384,41.7424281 23.7546482,41.7724957 C23.6904696,41.798268 23.626291,41.8229664 23.5621124,41.8476649 C23.4915159,41.874511 23.4209194,41.902431 23.3503229,41.9282032 L23.3246514,41.9378679 L23.3246514,41.9378679 L23.1544711,41.9958555 L23.1544711,41.9958555 L22.9426817,42.0678031 L22.9426817,42.0678031 C22.8763638,42.0882062 22.8100458,42.1075354 22.7447976,42.1268646 C22.6870368,42.1429723 22.6303457,42.1623015 22.5725849,42.1784091 C22.5479831,42.1848522 22.5223117,42.1923691 22.4966402,42.1988122 L22.3821883,42.2310275 L22.3821883,42.2310275 C22.3297758,42.2460614 22.2784329,42.2567998 22.2260204,42.2707598 C22.1597024,42.2879413 22.0944542,42.3051229 22.0292059,42.3212305 C21.9575398,42.3373382 21.8869433,42.352372 21.8163468,42.3674059 C21.7489592,42.3824397 21.6815717,42.3974735 21.6141841,42.4103597 C21.5457269,42.4232458 21.4772697,42.4339843 21.4077429,42.4468704 L21.3317982,42.4592196 L21.3317982,42.4592196 L21.2563883,42.4712467 C21.239274,42.4744682 21.2232293,42.4766159 21.2071847,42.4798374 C21.1365882,42.489502 21.0670614,42.4980928 20.9964649,42.5066836 C20.930147,42.5142005 20.8638291,42.5227912 20.7985808,42.5292343 C20.7269147,42.5367512 20.6573878,42.5421205 20.5867913,42.5474897 C20.5226127,42.5517851 20.4584341,42.5582281 20.3942554,42.5614497 C20.3225893,42.565745 20.2519928,42.5668189 20.1813963,42.5689666 C20.1172177,42.5711143 20.0530391,42.5743358 19.9888605,42.5743358 L19.9193336,42.5743358 L19.9193336,42.5743358 L19.7834889,42.5721881 L19.7834889,42.5721881 C19.7182406,42.5711143 19.6529923,42.5711143 19.5888137,42.5689666 C19.5203565,42.565745 19.4518993,42.5614497 19.3845118,42.5560804 C19.3192635,42.5528589 19.2550849,42.5496374 19.1909062,42.5442681 C19.1235187,42.5378251 19.0572008,42.5303082 18.9908829,42.5227912 C18.9256346,42.5152743 18.8603863,42.5099051 18.7962077,42.5013143 C18.7298898,42.4916497 18.6646415,42.4809113 18.5983236,42.4701728 C18.5416325,42.4615821 18.4838717,42.4529913 18.4271806,42.4433267 L12.3077488,40.8143038 C12.3655095,40.8239684 12.4222006,40.8325592 12.4788918,40.8411499 C12.5452097,40.8518884 12.6115276,40.8626268 12.6767758,40.8722914 C12.7420241,40.8808822 12.8072724,40.8862514 12.871451,40.8937683 C12.9377689,40.9012852 13.0051565,40.9088022 13.0714744,40.9152452 C13.135653,40.9206145 13.2009013,40.923836 13.2650799,40.9270575 C13.3335371,40.9313529 13.4009247,40.9367221 13.4693819,40.9399437 C13.5335605,40.9420914 13.5988088,40.9420914 13.664057,40.9431652 L13.7999018,40.9453129 L13.7999018,40.9453129 L13.8704983,40.9453129 L13.8704983,40.9453129 C13.9336072,40.944239 13.9977859,40.9420914 14.0619645,40.9399437 C14.132561,40.937796 14.2042271,40.9367221 14.2748236,40.9324267 C14.3390022,40.9292052 14.4031808,40.9227621 14.4673595,40.9184668 C14.537956,40.9130975 14.6085524,40.9077283 14.6791489,40.9002114 C14.7454668,40.8937683 14.8117848,40.8851776 14.8781027,40.8765868 C14.9476295,40.867996 15.0171564,40.8604791 15.0877528,40.8497407 L15.1119535,40.8463849 L15.1119535,40.8463849 L15.1364216,40.8425459 C15.1877645,40.835029 15.2380378,40.8253644 15.288311,40.8167736 C15.3578379,40.8049613 15.4262951,40.7942229 15.4947523,40.7813368 C15.5621398,40.7684506 15.6295274,40.7534168 15.696915,40.738383 C15.7685811,40.7233491 15.8391776,40.7083153 15.9087044,40.6922076 C15.9750223,40.6760999 16.0402706,40.6589184 16.1065885,40.6417369 C16.1590011,40.6277769 16.2114136,40.6159646 16.2638261,40.6020046 C16.3012637,40.5912662 16.3387012,40.5805277 16.3772084,40.5697893 L16.4531531,40.5483124 L16.4531531,40.5483124 C16.5109138,40.5332786 16.567605,40.5139493 16.6242961,40.4978417 C16.690614,40.4785125 16.7569319,40.4591832 16.8232498,40.4377063 L17.0350393,40.3668326 L17.0350393,40.3668326 C17.0917304,40.3475034 17.1484215,40.3281742 17.2051126,40.3077711 C17.2137767,40.3056234 17.2223339,40.3024019 17.230891,40.2991803 C17.3014875,40.2734081 17.372084,40.2454881 17.4426805,40.2175681 C17.5079288,40.1928697 17.5721074,40.1692451 17.636286,40.1434728 C17.7079522,40.1134051 17.7796183,40.0822636 17.8512844,40.0511221 L18.0395417,39.9695099 L18.0395417,39.9695099 C18.1112078,39.9372946 18.1818043,39.9018577 18.2524008,39.8685685 C18.3155098,39.837427 18.3796884,39.8084332 18.4427974,39.7772916 C18.5133939,39.7418548 18.5839904,39.7031963 18.6545869,39.6666856 L18.8417745,39.5678919 L18.8417745,39.5678919 C18.9134407,39.5292334 18.9851068,39.4873535 19.0578426,39.4454735 C19.1177426,39.4111105 19.1787123,39.3778213 19.2375427,39.3423844 C19.3102785,39.3005045 19.380875,39.255403 19.4525411,39.2103015 C19.5124411,39.1737907 19.5723412,39.1383539 19.6322412,39.0996954 C19.6718181,39.0739232 19.7113949,39.0481509 19.7509717,39.0213047 C19.786163,38.9978949 19.8214612,38.9742703 19.8567595,38.9506457 C19.8578291,38.9506457 19.8588988,38.9495719 19.8588988,38.9495719 C19.8968711,38.9233701 19.9343086,38.8997455 19.9717462,38.8750471 Z M22.6303457,36.5777704 L28.7497775,38.2067933 C28.6321167,38.3324332 28.5133863,38.4548515 28.3946558,38.5751221 C28.3379647,38.6320359 28.2791343,38.686802 28.2224432,38.742642 C28.1582646,38.8059988 28.0951556,38.8693557 28.0299073,38.9305648 C27.9849823,38.9735186 27.9389876,39.0153986 27.8929929,39.0572786 C27.8159786,39.1292262 27.7389642,39.2011738 27.6608802,39.2709737 L27.5250355,39.3890967 L27.5250355,39.3890967 C27.4458818,39.4578228 27.3667282,39.5276227 27.2875745,39.5942011 C27.2405102,39.6339333 27.1923763,39.6725918 27.1442423,39.7112502 C27.0661583,39.7756809 26.9870047,39.8411854 26.9089207,39.9034684 C26.8607867,39.941053 26.8115831,39.9775637 26.7634491,40.0140745 C26.6853651,40.0752836 26.6062115,40.1364928 26.5270578,40.1944804 L26.3708899,40.3061603 L26.3708899,40.3061603 C26.2938755,40.3620003 26.2168612,40.4167664 26.1398468,40.4704586 C26.1238022,40.4822709 26.1077575,40.4930094 26.0906432,40.5037478 L19.9712113,38.8747249 C19.987256,38.8639864 20.0043703,38.853248 20.020415,38.8414357 C20.0974293,38.7877435 20.1744437,38.7329774 20.2525277,38.6771374 C20.3038706,38.6395528 20.3562831,38.6030421 20.407626,38.5654575 C20.4867796,38.5074699 20.5648636,38.4451869 20.6440173,38.3850516 C20.6921512,38.347467 20.7413548,38.3120301 20.7894888,38.2744455 C20.8686424,38.2121625 20.9467264,38.146658 21.0248104,38.0822273 C21.0729444,38.042495 21.1210784,38.0049104 21.1681427,37.9651782 C21.248366,37.8985998 21.32645,37.8287998 21.4056036,37.7600738 L21.5414484,37.6419508 L21.5414484,37.6419508 C21.6195324,37.5721509 21.6965467,37.5002033 21.7735611,37.4282556 C21.8195557,37.3863757 21.8655504,37.3444957 21.9104755,37.3015419 C21.9746541,37.2403328 22.0388327,37.1769759 22.1030113,37.113619 C22.1597024,37.0577791 22.2174632,37.003013 22.275224,36.9460992 C22.3939544,36.8258286 22.5126849,36.7023364 22.6303457,36.5777704 Z" id="形状结合" fill="url(#linearGradient-4)" fill-rule="nonzero"></path>
            <path d="M18.0202881,42.359352 L11.9008563,40.7303291 C11.961826,40.7442891 12.0238653,40.7561014 12.084835,40.7689875 L18.2042668,42.3980104 C18.1432972,42.3851243 18.0812578,42.373312 18.0202881,42.359352" id="Fill-57" fill="#828282"></path>
            <path d="M23.5920624,21.5363156 L17.4726305,19.9072927 C17.4362626,19.8933327 17.3988251,19.8772251 17.3613876,19.8654128 L23.4808194,21.4944357 C23.5193266,21.506248 23.5556945,21.5223556 23.5920624,21.5363156" id="Fill-58" fill="#707070"></path>
            <path d="M23.4808194,21.4944357 L17.3613876,19.8654128 C17.357109,19.8632651 17.3517608,19.8621912 17.3474822,19.8611174 L23.4658444,21.4901403 C23.4711926,21.492288 23.4765409,21.4933618 23.4808194,21.4944357" id="Fill-59" fill="#707070"></path>
            <path d="M21.0401063,30.9964608 L14.9206745,29.3674379 C14.8778887,29.3556256 14.8361726,29.3416656 14.7944565,29.3287795 L20.9138884,30.9578024 C20.9556045,30.9717624 20.9973206,30.9857224 21.0401063,30.9964608" id="Fill-60" fill="#707070"></path>
            <path d="M20.9137814,30.9581246 L14.7943496,29.3291016 C14.7611906,29.3183632 14.7258924,29.3108463 14.6938031,29.299034 L20.8121653,30.9280569 C20.8463939,30.9398692 20.8795528,30.9473861 20.9137814,30.9581246" id="Fill-69" fill="#707070"></path>
            <path d="M17.8019738,42.3038342 L11.682542,40.6748113 C11.7552778,40.6930667 11.8280135,40.7134697 11.9007493,40.7306513 L18.0201812,42.3596742 C17.9474454,42.3424927 17.8747096,42.3231635 17.8019738,42.3038342" id="Fill-70" fill="#828282"></path>
            <path d="M17.6745793,42.2707598 L11.5551474,40.6417369 C11.5979332,40.6535492 11.6407189,40.6632138 11.682435,40.6750261 L17.8018669,42.304049 C17.7601508,42.2933106 17.717365,42.2825721 17.6745793,42.2707598" id="Fill-71" fill="#828282"></path>
            <path d="M20.8123792,30.9277347 L14.6929473,29.2987118 C14.6405348,29.2793826 14.5891919,29.255758 14.537849,29.2332073 C14.507899,29.221395 14.4779489,29.2106565 14.4490686,29.1966966 C14.3699149,29.1580381 14.2907613,29.1150843 14.2148166,29.0667613 L20.3331788,30.6957842 C20.4101931,30.7441072 20.4882771,30.787061 20.5685004,30.8257195 C20.5973808,30.8396794 20.6273308,30.8504179 20.6562112,30.8622302 C20.7086237,30.8847809 20.7599666,30.9084055 20.8123792,30.9277347" id="Fill-72" fill="#707070"></path>
            <path d="M12.0782032,22.9618449 L18.1987047,24.5908678 C18.1687547,24.8174491 18.1495011,25.0451043 18.1398743,25.2727594 L14.2668308,24.2411721 L18.1393395,25.2728668 C18.131852,25.472602 18.1307823,25.6723372 18.1382698,25.8709985 L12.018838,24.2419756 C12.0113505,24.0433142 12.0124201,23.8435791 12.0209773,23.6438439 L12.0204424,23.6437365 C12.0300692,23.4160814 12.0503925,23.1884262 12.0782032,22.9618449 Z M12.1827074,22.3381557 L18.3032089,23.9671786 C18.2604231,24.1733569 18.2251249,24.3816828 18.1983838,24.5910826 L12.078952,22.9609858 C12.1056931,22.7526599 12.1409913,22.544334 12.1827074,22.3381557 Z M12.5253143,21.1358788 L18.6447461,22.7659756 C18.57308,22.9624892 18.5078317,23.1632982 18.450071,23.366255 C18.3938077,23.5644867 18.3446041,23.7652958 18.302888,23.9671786 L12.1834562,22.3381557 C12.2251025,22.1355384 12.2742113,21.9350616 12.3307826,21.7377938 L12.3306391,21.737232 C12.3883999,21.5332015 12.4536482,21.3334663 12.5253143,21.1358788 Z M14.2240155,18.4411721 L20.3434474,20.070195 L20.1378084,20.2789236 L20.1378084,20.2789236 L19.9402986,20.5000552 C19.6932109,20.7899933 19.4685858,21.1089253 19.2664231,21.4493342 C19.1350708,21.6716201 19.0142011,21.9035706 18.9029581,22.1419642 L15.1238308,21.1351721 L18.9027442,22.1419642 C18.8086156,22.3449209 18.7230441,22.5532469 18.6449601,22.7658682 L12.5255282,21.1357714 C12.6036122,20.924224 12.6902534,20.715898 12.784382,20.5129413 L12.7835263,20.5129413 C12.8936996,20.2745477 13.015639,20.0425972 13.1472052,19.8203113 C13.3491539,19.4799024 13.5748487,19.1609704 13.8208668,18.8710323 L13.8207598,18.8707101 C13.9491171,18.719298 14.0838922,18.5754027 14.2240155,18.4411721 Z" id="形状结合" fill="url(#linearGradient-5)" fill-rule="nonzero"></path>
            <polygon id="Fill-92" fill="url(#linearGradient-6)" fill-rule="nonzero" points="20.3434474 20.0703024 14.2240155 18.4402056 10.1347675 9.7592424 16.2541993 11.3893392"></polygon>
            <polygon id="Fill-94" fill="url(#linearGradient-7)" fill-rule="nonzero" points="9.98908202 28.1277912 3.86965017 26.4987683 12.0181962 24.241546 18.1386977 25.8705689"></polygon>
            <path d="M0.028880381,26.4168339 L6.14831223,28.0458568 C6.13012829,28.4818379 6.12050149,28.9199667 6.11943185,29.3570216 C6.11943185,30.0700547 6.14189437,30.768054 6.18788905,31.4510194 L6.18820994,31.4512342 C6.7593997,39.9947453 10.880737,46.136065 16.5370131,47.6415957 L10.4175813,46.0125728 C4.76130519,44.5070421 0.641037495,38.3657224 0.0687780926,29.8222113 L4.813,31.085 L0.0684571995,29.8219965 C0.0224625186,29.1390311 -1.54321e-12,28.4410318 -1.54321e-12,27.7279987 C0.00106964374,27.2898699 0.0106964374,26.852815 0.028880381,26.4168339 Z M0.703718618,20.9740504 L6.82315047,22.6030733 C6.64772889,23.4557062 6.50225734,24.3190776 6.3910144,25.1888921 C6.27014465,26.1345201 6.18778208,27.0880944 6.14820527,28.0459642 L0.0287734167,26.4158675 C0.0683502351,25.4590715 0.150712803,24.5054971 0.271582546,23.5594397 C0.382825495,22.6900547 0.528297044,21.8266833 0.703718618,20.9740504 Z M2.12014086,16.0061211 L8.23957271,17.635144 C7.94114211,18.4480447 7.67052224,19.2781269 7.43092204,20.1221691 L7.43102901,20.1222765 C7.19998596,20.9373249 6.99675365,21.7652594 6.82347136,22.6028585 L0.704039511,20.9738356 C0.877321797,20.1362365 1.07948446,19.308302 1.31159716,18.4932536 C1.55109039,17.649104 1.82171026,16.8190218 2.12014086,16.0061211 Z M25.9297688,1.62926905 C25.4190139,1.62443674 24.9013063,1.65433259 24.3794913,1.71982855 L23.9875097,1.77595628 C23.5254236,1.85005159 23.0601285,1.95099302 22.5926942,2.07985442 C22.2675225,2.17005741 21.9423508,2.27314653 21.6214577,2.3869741 C20.3758576,2.83014995 19.1682298,3.45512776 18.0119449,4.23688694 L18.0121588,4.23656478 C16.4536879,5.29000676 14.9893456,6.62586998 13.6576392,8.18509297 L13.656,8.185 L13.2744318,8.64368897 C12.3899408,9.72854721 11.568304,10.9125788 10.8195534,12.1763602 C10.2729655,13.0987931 9.76595433,14.0641797 9.30279859,15.0650033 C8.91655024,15.898844 8.56142851,16.7568462 8.23946575,17.6352514 L2.1200339,16.0051546 C2.44199666,15.1278233 2.79818803,14.2698211 3.18325978,13.4354435 C3.64652248,12.4351568 4.15353362,11.4697701 4.70012157,10.5473373 C5.55583656,9.1030157 6.50781949,7.7628571 7.53895606,6.55585528 L7.539,6.555 L7.94165981,6.09506301 C9.16372351,4.73249864 10.4901031,3.55563965 11.892727,2.60754187 L16.725,3.893 L11.8925131,2.60679018 C13.0487979,1.82610484 14.2564257,1.20112703 15.5025607,0.757629035 C15.8239886,0.64304977 16.147021,0.541034492 16.474332,0.45083151 C16.7852418,0.364923907 17.0956762,0.290947916 17.4050013,0.229539889 L17.8679709,0.146611212 C18.5236625,0.0424482441 19.1718666,-0.00587478238 19.8104439,0.00056828781 C20.2571806,0.00507843694 20.6998126,0.0364884041 21.1364278,0.0944760358 L21.5709705,0.161215505 C21.875819,0.213833911 22.1774585,0.280412303 22.4758891,0.359876835 L28.595321,1.98889975 C28.2968904,1.90943522 27.9952508,1.84285682 27.6904024,1.79023842 C27.1138644,1.68940437 26.5255603,1.63571212 25.9297688,1.62926905 Z" id="形状结合" fill="url(#linearGradient-8)" fill-rule="nonzero"></path>
            <path d="M22.5416722,21.5075366 C21.9020253,21.684721 21.290189,22.2076835 20.8387994,22.9464889 C20.3531811,23.6949589 20.0836309,24.6442379 20.0900488,25.5451939 C20.0675862,27.3836166 21.1158371,28.5906184 22.4411257,28.260948 L22.5427419,28.233028 C23.1813192,28.0558436 23.794225,27.5232165 24.232779,26.7607865 C24.7034222,26.015538 24.9676242,25.0866621 24.9612064,24.1953707 C24.962276,23.3019316 24.7141187,22.5062125 24.2498933,22.0015053 C24.1942718,21.9392223 24.136511,21.8823085 24.076611,21.8296901 C24.0541485,21.8103609 24.0306163,21.7942532 24.0070842,21.7759978 C23.968577,21.7459302 23.9300698,21.712641 23.8883537,21.6868687 C23.8616126,21.6686133 23.8327322,21.6546534 23.8049215,21.6385457 C23.7664143,21.6170688 23.7289768,21.5934442 23.6904696,21.574115 C23.6583803,21.5590811 23.6252213,21.5494165 23.5920624,21.5365304 C23.5556945,21.5225704 23.5193266,21.5064627 23.4808194,21.4946504 C23.4465908,21.4849858 23.4112926,21.4785428 23.377064,21.4710259 C23.3385568,21.4624351 23.3000496,21.4516966 23.2615425,21.4463274 C23.2273139,21.4409582 23.190946,21.4409582 23.1556477,21.4388105 C23.1160709,21.435589 23.0764941,21.4312936 23.0358476,21.4312936 C22.9994797,21.4312936 22.9631119,21.435589 22.9256743,21.4388105 C22.8850279,21.4409582 22.8443814,21.4431059 22.8026653,21.449549 C22.7662974,21.4549182 22.7299295,21.4645828 22.692492,21.4720997 C22.6582634,21.4796166 22.6251044,21.483912 22.5898062,21.4935766 L22.5416722,21.5075366 M28.7498845,38.2069007 L24.7216062,29.4808359 C24.3846684,29.8717155 24.0070842,30.1992383 23.6166642,30.4472965 C23.5214659,30.5020626 23.425198,30.554681 23.32893,30.6040778 C23.2947014,30.6212594 23.2604728,30.6362932 23.2262442,30.6534747 C23.1642049,30.6824685 23.1021655,30.71361 23.0390566,30.7404562 C23.0005494,30.7565638 22.9620422,30.7715977 22.9224654,30.7877053 C22.8647046,30.8102561 22.8069439,30.8338807 22.7481135,30.8542837 C22.707467,30.8682437 22.6668205,30.8811299 22.6261741,30.8929422 C22.5577169,30.9154929 22.48819,30.9380437 22.4186632,30.9552252 C22.3619721,30.9713329 22.3042113,30.9831451 22.2475202,30.9960313 C22.2079434,31.0056959 22.1672969,31.0164343 22.1277201,31.0239513 C22.0763772,31.0336159 22.0261039,31.0379112 21.9758307,31.0443543 C21.9351842,31.0497235 21.8956074,31.0572405 21.8549609,31.060462 C21.806827,31.0636835 21.7576234,31.0636835 21.7084197,31.0647574 C21.6677733,31.0658312 21.6271268,31.0690527 21.5864804,31.0690527 C21.5372768,31.0679789 21.4891428,31.0626097 21.4410088,31.0583143 C21.401432,31.0561666 21.3618552,31.0550928 21.3222784,31.0497235 C21.2730747,31.0432805 21.2249408,31.032542 21.1757372,31.0228774 C21.1382996,31.0164343 21.1008621,31.012139 21.0644942,31.0024744 C21.0131513,30.9906621 20.9628781,30.9734805 20.9136744,30.9584467 C20.8794458,30.9477083 20.8462869,30.9401913 20.8120583,30.9273052 C20.7596457,30.9090498 20.7083029,30.8854252 20.65696,30.8628745 C20.6270099,30.8499884 20.5970599,30.8392499 20.5681795,30.8252899 C20.4890259,30.7866315 20.4098722,30.7436777 20.3339275,30.6953547 L16.159108,41.6840109 C16.2789081,41.7441462 16.3997779,41.80106 16.5217172,41.8558261 C16.5591548,41.8719338 16.5976619,41.8880414 16.6361691,41.9041491 C16.720671,41.939586 16.8041032,41.9760967 16.888605,42.0093859 C16.9378087,42.0287151 16.9870123,42.0448228 17.0362159,42.0630782 C17.1100213,42.0899243 17.1848964,42.1189181 17.2597714,42.1436166 C17.3143233,42.1618719 17.3699447,42.1779796 17.4244966,42.1951611 C17.4961627,42.2177119 17.5678288,42.2413365 17.639495,42.2617395 C17.6929771,42.2767733 17.7485986,42.2896595 17.8020808,42.3036195 C17.8748166,42.3229487 17.9475524,42.3422779 18.0202881,42.3594594 C18.0812578,42.3734194 18.1432972,42.3852317 18.2042668,42.3981178 C18.2716544,42.4120778 18.3379723,42.4271116 18.4053599,42.4399978 C18.4695385,42.4507362 18.5337171,42.4604008 18.5978957,42.4700655 C18.6642137,42.4808039 18.7305316,42.4926162 18.7968495,42.501207 C18.8610281,42.5097977 18.9262764,42.5151669 18.990455,42.5226839 C19.0578426,42.5302008 19.1241605,42.5377177 19.1904784,42.5441608 C19.254657,42.54953 19.3199053,42.5527515 19.3840839,42.5570469 C19.4525411,42.5613423 19.5199287,42.5656377 19.5883859,42.5688592 C19.6536341,42.5710069 19.7178127,42.5710069 19.783061,42.5720807 C19.8515182,42.5731546 19.9199754,42.5753023 19.9895023,42.5742284 C20.0526112,42.5742284 20.1167899,42.5710069 20.1809685,42.5688592 C20.251565,42.5667115 20.3232311,42.5656377 20.3948972,42.5613423 C20.4580062,42.5581207 20.5221848,42.5527515 20.5863635,42.5473823 C20.65696,42.5420131 20.7275564,42.5366438 20.7981529,42.5302008 C20.8644708,42.5226839 20.9307887,42.5140931 20.9971067,42.5065762 C21.0666335,42.4979854 21.13723,42.4893947 21.2067568,42.4797301 C21.2730747,42.4700655 21.3404623,42.4571793 21.4078499,42.4464409 C21.4763071,42.4346286 21.5458339,42.4238901 21.6142911,42.4099301 C21.6816787,42.397044 21.7490662,42.3820102 21.8164538,42.3680502 C21.8870503,42.3530163 21.9576467,42.3379825 22.0293129,42.320801 C22.0945611,42.3057672 22.1598094,42.2885856 22.2261273,42.2703303 C22.2774702,42.2574441 22.3298828,42.2456318 22.3822953,42.230598 C22.4208025,42.2209334 22.45824,42.210195 22.4967472,42.1994565 C22.521349,42.1919396 22.5470204,42.1844227 22.5726919,42.1779796 C22.6304527,42.1618719 22.6871438,42.1436166 22.7438349,42.126435 C22.8101528,42.1071058 22.8764707,42.0888505 22.9427886,42.0673736 C23.0133851,42.0448228 23.0839816,42.0201244 23.1545781,41.9964998 C23.2198264,41.973949 23.2850746,41.9524721 23.3503229,41.9288476 C23.4209194,41.9030753 23.4915159,41.8751553 23.5621124,41.8472353 C23.626291,41.8225369 23.6904696,41.7989123 23.7546482,41.7720662 C23.827384,41.7430724 23.8990501,41.710857 23.9707163,41.6797155 C24.0338252,41.6528694 24.0969342,41.6270971 24.1589736,41.5981033 C24.2306397,41.5658879 24.3012362,41.530451 24.3718327,41.4971619 C24.4360113,41.4670942 24.4991203,41.4381004 24.5622293,41.405885 C24.6328257,41.371522 24.7034222,41.3328636 24.7740187,41.2963528 C24.8360581,41.2630636 24.8980974,41.2319221 24.9601367,41.1975591 C25.0328725,41.1578268 25.1045386,41.1159469 25.1772744,41.0751408 C25.2371745,41.0407777 25.2970745,41.0074885 25.3569746,40.9720516 C25.4286407,40.9290978 25.5003068,40.8839963 25.5719729,40.8399687 C25.631873,40.803458 25.691773,40.7669472 25.7506035,40.7282888 C25.8265482,40.6810396 25.9014232,40.6305689 25.9752286,40.5800982 C26.0308501,40.5435875 26.0854019,40.5081506 26.1399538,40.470566 C26.2169681,40.4168737 26.2939825,40.3621077 26.3709968,40.3062677 C26.4234094,40.2686831 26.4747523,40.2321724 26.5271648,40.1945878 C26.6063184,40.1366002 26.6854721,40.075391 26.7635561,40.0141819 C26.81169,39.9776711 26.8608937,39.9411604 26.9090276,39.9035758 C26.9871116,39.8412928 27.0651956,39.7757883 27.1443492,39.7113576 C27.1924832,39.6726991 27.2406172,39.6340407 27.2876815,39.5943085 C27.3668351,39.5277301 27.4459888,39.4579301 27.5251424,39.3892041 C27.5700675,39.3494718 27.6160621,39.3118872 27.6609872,39.2710811 C27.7390712,39.2012812 27.8160855,39.1293336 27.8930999,39.0573859 C27.9380249,39.015506 27.9840196,38.973626 28.0300143,38.9306722 C28.0941929,38.8694631 28.1573019,38.8061062 28.2225501,38.7427493 C28.2792413,38.6869094 28.337002,38.6321433 28.3947628,38.5752295 C28.5134932,38.4549589 28.6322237,38.3314667 28.7498845,38.2069007 M9.98940291,28.1277912 L18.1379489,25.8705689 C18.0598649,23.7164358 18.9219978,21.4409582 20.3435543,20.0707319 L16.2543063,11.3886949 C12.3554549,15.5380321 9.96052253,21.9402961 9.98940291,28.1277912 M26.9058187,23.4522699 L35.1623987,21.1660539 C35.1720255,18.1399586 34.6029751,15.3211154 33.5023117,13.0220131 C32.3877429,10.6509633 30.7736505,8.88448824 28.8311774,7.90514157 L24.7772276,18.7767487 C26.1292573,19.4908556 26.9486044,21.283103 26.9058187,23.4522699 M38.9981412,20.271541 C38.9874448,32.8226417 31.6101119,45.0429981 22.5320454,47.5472048 C13.453979,50.0514114 6.10873541,41.9095183 6.11942018,29.3573438 C6.13761579,16.7944307 13.5085308,4.58696042 22.5930151,2.08060611 C26.9464652,0.874678144 31.123424,2.10852609 34.2018587,5.51583637 C37.3401934,8.86086365 39.0772948,14.2032427 38.9981412,20.271541" id="Fill-126" fill="url(#linearGradient-9)" fill-rule="nonzero"></path>
        </g>
    </g>
</svg>