<?xml version="1.0" encoding="UTF-8"?>
<svg width="50px" height="50px" viewBox="0 0 50 50" version="1.1" xmlns="http://www.w3.org/2000/svg" xmlns:xlink="http://www.w3.org/1999/xlink">
    <title>脆弱性-灰</title>
    <defs>
        <linearGradient x1="57.3912796%" y1="100%" x2="78.5908226%" y2="0%" id="linearGradient-1">
            <stop stop-color="#5F5F5F" offset="0%"></stop>
            <stop stop-color="#B8B8B8" offset="100%"></stop>
        </linearGradient>
        <linearGradient x1="74.7304367%" y1="0%" x2="36.6502452%" y2="95.0951313%" id="linearGradient-2">
            <stop stop-color="#E7E7E7" offset="0%"></stop>
            <stop stop-color="#AFAFAF" offset="100%"></stop>
        </linearGradient>
    </defs>
    <g id="页面-1" stroke="none" stroke-width="1" fill="none" fill-rule="evenodd">
        <g id="编组-114" transform="translate(3.000000, 1.000000)">
            <path d="M25.0238244,18.9456239 L32.6245037,20.8945942 L32.6588667,26.90374 L32.6566983,26.9026239 L28.7603776,27.9488136 L21.1596983,26.0009177 L25.0576983,24.9536239 L25.0238244,18.9456239 Z" id="形状结合" fill="#949494"></path>
            <path d="M18.098594,13.2649523 L27.7777015,15.0821718 L27.8907774,34.7803088 L23.4729766,35.9643029 L15.8722973,34.0164071 L19.1442973,33.1379523 L18.2113478,32.9630894 L18.1976759,30.7549523 L10.6456759,28.8196186 L15.8344979,27.4282645 L18.1826759,28.0299523 L18.098594,13.2649523 Z" id="形状结合" fill="#949494"></path>
            <path d="M26.5629673,1.2265744e-12 L34.1636466,1.94897025 L16.2005719,6.76477474 L7.60014235,29.715135 L16.4373548,48 L8.83667557,46.0521042 L1.17239551e-13,27.765735 L8.59989262,4.81580449 L8.601,4.815 L26.5629673,1.2265744e-12 Z" id="形状结合" fill="url(#linearGradient-1)" fill-rule="nonzero"></path>
            <path d="M32.6588667,26.90374 L32.6245037,20.8945942 L28.7253702,21.9389156 L28.7608071,27.9491359 L32.6588667,26.90374 L32.6588667,26.90374 Z M27.8909922,34.7802014 L27.7771645,15.0820644 L23.3593637,16.2660584 L23.4001698,23.3582043 L18.2113478,24.7581537 L18.2467847,30.7672996 L23.4356067,29.3759454 L23.4731913,35.9641955 L27.8909922,34.7802014 L27.8909922,34.7802014 Z M34.1633244,1.94854049 L43,20.2241656 L34.4006443,43.1841955 L16.4373548,47.9996777 L7.60067927,29.7154573 L16.200035,6.76402266 L34.1633244,1.94854049 Z" id="Fill-13" fill="url(#linearGradient-2)" fill-rule="nonzero"></path>
        </g>
    </g>
</svg>