<?xml version="1.0" encoding="UTF-8"?>
<svg width="50px" height="50px" viewBox="0 0 50 50" version="1.1" xmlns="http://www.w3.org/2000/svg" xmlns:xlink="http://www.w3.org/1999/xlink">
    <title>攻击者</title>
    <defs>
        <linearGradient x1="83.0798595%" y1="44.0890513%" x2="23.6382079%" y2="55.6235413%" id="linearGradient-1">
            <stop stop-color="#C3EEFF" offset="0%"></stop>
            <stop stop-color="#25A8FF" offset="100%"></stop>
        </linearGradient>
        <linearGradient x1="55.9279203%" y1="61.7694968%" x2="263.025205%" y2="-70.5662865%" id="linearGradient-2">
            <stop stop-color="#003B7C" offset="0%"></stop>
            <stop stop-color="#4EA2FF" offset="100%"></stop>
        </linearGradient>
        <linearGradient x1="-5.62884132%" y1="53.231483%" x2="83.6187066%" y2="40.1615231%" id="linearGradient-3">
            <stop stop-color="#003B7C" offset="0%"></stop>
            <stop stop-color="#4EA2FF" offset="100%"></stop>
        </linearGradient>
        <linearGradient x1="51.1194515%" y1="110.584766%" x2="64.7945321%" y2="-81.667424%" id="linearGradient-4">
            <stop stop-color="#003B7C" offset="0%"></stop>
            <stop stop-color="#4EA2FF" offset="100%"></stop>
        </linearGradient>
        <linearGradient x1="55.9279203%" y1="52.3420262%" x2="128.342657%" y2="44.9101304%" id="linearGradient-5">
            <stop stop-color="#003B7C" offset="0%"></stop>
            <stop stop-color="#4EA2FF" offset="100%"></stop>
        </linearGradient>
        <linearGradient x1="-1.68601145%" y1="74.7137106%" x2="94.8434615%" y2="48.5777022%" id="linearGradient-6">
            <stop stop-color="#003B7C" offset="0%"></stop>
            <stop stop-color="#4EA2FF" offset="100%"></stop>
        </linearGradient>
        <linearGradient x1="51.6146784%" y1="110.584766%" x2="71.3393884%" y2="-81.667424%" id="linearGradient-7">
            <stop stop-color="#003B7C" offset="0%"></stop>
            <stop stop-color="#4EA2FF" offset="100%"></stop>
        </linearGradient>
        <linearGradient x1="71.8993447%" y1="1.62583954%" x2="32.5481129%" y2="96.0220686%" id="linearGradient-8">
            <stop stop-color="#C3EEFF" offset="0%"></stop>
            <stop stop-color="#25A8FF" offset="100%"></stop>
        </linearGradient>
        <linearGradient x1="36.9276587%" y1="206.996944%" x2="66.8171275%" y2="4.51514872%" id="linearGradient-9">
            <stop stop-color="#003B7C" offset="0%"></stop>
            <stop stop-color="#4EA2FF" offset="100%"></stop>
        </linearGradient>
        <linearGradient x1="52.6485628%" y1="110.584766%" x2="85.0030764%" y2="-81.667424%" id="linearGradient-10">
            <stop stop-color="#003B7C" offset="0%"></stop>
            <stop stop-color="#4EA2FF" offset="100%"></stop>
        </linearGradient>
        <linearGradient x1="66.2409455%" y1="1.62583954%" x2="37.0573686%" y2="96.0220686%" id="linearGradient-11">
            <stop stop-color="#C3EEFF" offset="0%"></stop>
            <stop stop-color="#25A8FF" offset="100%"></stop>
        </linearGradient>
    </defs>
    <g id="页面-1" stroke="none" stroke-width="1" fill="none" fill-rule="evenodd">
        <g id="编组-99" transform="translate(6.000000, 0.000000)">
            <polygon id="Fill-1" fill="url(#linearGradient-1)" fill-rule="nonzero" points="14.3903128 49.6331958 14.3913984 48.5422275 29.1970866 44.4573383 29.1960011 45.5493921"></polygon>
            <polygon id="Fill-3" fill="url(#linearGradient-2)" fill-rule="nonzero" points="14.3903128 49.6331958 8.17993507 47.9864307 8.18102061 46.8954624 14.3913984 48.5422275"></polygon>
            <polygon id="Fill-5" fill="url(#linearGradient-3)" fill-rule="nonzero" points="14.3913984 48.5417933 8.18102061 46.8950282 22.9867088 42.8112245 29.1970866 44.4579896"></polygon>
            <path d="M32.5591144,33.7326314 C32.5887858,33.7992112 32.6102554,33.8739929 32.6238448,33.9534383 L32.6387931,34.0755536 L32.6409642,34.1471993 L32.6396615,34.2187364 L32.6364049,34.2773556 L32.6302173,34.3361919 C32.6258751,34.3709292 32.6193619,34.404581 32.6128487,34.4393183 C32.6068782,34.4666739 32.6003649,34.494898 32.5927662,34.5220365 L32.5856624,34.5429857 L28.8896624,33.5629857 L32.5863615,34.5442901 L32.5690471,34.6008739 L32.5497788,34.6550152 C32.5356667,34.6940947 32.5204692,34.731003 32.504186,34.7668259 C32.4845378,34.8090534 32.4639125,34.8481329 32.4411161,34.8861268 C32.4063788,34.9442032 32.3694705,34.9973947 32.3282199,35.0451585 C32.2919629,35.0871327 32.2538242,35.1247648 32.2137718,35.1577331 L32.1525794,35.2034303 L32.141724,35.2110291 L31.9376624,35.1569857 L32.1412898,35.2113548 L30.6660402,36.1253799 L24.4556624,34.4786149 L25.9309121,33.5635041 C25.9346029,33.5610074 25.9389451,33.5599218 25.9422017,33.5566652 L25.9423463,33.5557286 L26.0036312,33.510968 C26.0439168,33.4779997 26.0822726,33.4403676 26.1177336,33.3983934 C26.1580072,33.3506296 26.1970866,33.2974381 26.2307384,33.2388189 C26.2535347,33.2013678 26.27416,33.1612028 26.2936997,33.1199522 C26.3099486,33.0845522 26.3260888,33.047977 26.3401147,33.009278 L26.3399438,33.0087929 C26.3540558,32.9718845 26.3659967,32.9349761 26.3768521,32.8969822 L26.3759837,32.897525 L26.3824969,32.8747286 C26.3899872,32.8481329 26.3965004,32.8199088 26.4019281,32.7927703 C26.4100697,32.7578159 26.4154974,32.7230786 26.4198395,32.6883413 L26.4195139,32.6881242 C26.4249416,32.6501303 26.4281982,32.6110508 26.4303693,32.5719713 L26.4295009,32.5720799 C26.4316719,32.5232306 26.4316719,32.4765523 26.4284153,32.4287885 C26.4192968,32.3040599 26.3932438,32.185736 26.3498222,32.0858663 L26.3489537,32.085432 L26.3283285,32.0441815 L25.2319325,29.9109857 L31.4412247,31.5577508 L32.5387062,33.690838 L32.5591144,33.7326314 Z" id="形状结合" fill="#FFEAA4"></path>
            <path d="M25.5215547,18.2739904 L25.580581,18.280368 L25.580581,18.280368 L25.6392273,18.2892966 C25.6783068,18.2958098 25.7173862,18.3044941 25.7553801,18.314264 L31.9657579,19.9610291 C31.927764,19.9512592 31.8886845,19.9425749 31.8496051,19.9360617 L31.8425547,19.9339904 L31.7913658,19.9271331 C31.7718261,19.9245549 31.752015,19.9223838 31.7319325,19.9207555 L25.5215547,18.2739904 Z" id="形状结合" fill="#868686"></path>
            <polygon id="Fill-41" fill="url(#linearGradient-4)" fill-rule="nonzero" points="29.0079854 42.6200608 22.7976077 40.9732957 22.8095486 28.3039514 29.0188408 29.9507165"></polygon>
            <polygon id="Fill-43" fill="url(#linearGradient-5)" fill-rule="nonzero" points="28.0046203 19.6138732 21.7942425 17.9671081 25.5219889 18.2743161 31.7323667 19.9210812"></polygon>
            <path d="M16.4175599,12.9964178 L25.7064223,15.993921 C25.5826706,16.3315242 25.4545768,16.6430743 25.3199698,16.9307426 L17.5796159,14.4328835 L25.3202955,16.9309597 C25.1846029,17.2229701 25.0434826,17.4900131 24.8980202,17.7353453 C24.6895964,18.0877118 24.4703172,18.3927487 24.2412681,18.6587061 C24.002015,18.936344 23.7512985,19.1704213 23.4899524,19.366885 L23.2917458,19.5074903 C23.057269,19.6646223 22.813633,19.7936659 22.5622116,19.8992008 L22.3085716,19.9972862 C22.198932,20.0352801 22.0882069,20.071103 21.9753107,20.1014981 L21.9726159,20.1008835 L21.9754192,20.1019323 L21.8798916,20.1279852 L21.8776159,20.1268835 L21.6987692,20.169263 L21.5226402,20.2016935 C21.4391148,20.2151654 21.3567041,20.2254792 21.2754847,20.2328655 L19.1224557,20.6339722 C19.1762739,20.6194827 18.5393577,20.0214527 17.8699073,19.3954122 L10.9246159,17.1538212 L11.043754,17.1823166 L11.1641947,17.2062528 C11.3205126,17.2333913 11.4811726,17.2475033 11.6483458,17.2485889 L12.0786159,17.3868835 L11.6486715,17.2486974 C11.7738705,17.2501448 11.9019643,17.2443553 12.0335962,17.2306855 L12.2332351,17.2041903 L12.2337779,17.2041903 C12.3504735,17.1857361 15.8684935,18.1283109 15.9889885,18.0979158 L16.7876105,18.3735501 C16.5437138,18.1363277 16.3917309,17.9765392 16.4183198,17.9673253 C16.761025,17.8466131 13.6902477,16.7194964 14.0039689,16.509987 L14.0031005,16.5097699 C14.3363615,16.2861486 14.6522538,16.0082502 14.951863,15.6608772 C15.1814548,15.3952454 15.400734,15.0902085 15.6091578,14.7374078 C15.7546203,14.4925098 15.8957405,14.2254669 16.0314331,13.9334564 C16.1646289,13.6455711 16.2938083,13.3340209 16.4175599,12.9964178 Z M26.5417458,12.959618 L25.7636159,12.7078835 L26.5414201,12.959618 C26.432866,13.4867565 26.3173645,13.9777682 26.1954713,14.4337647 L26.1030788,14.7696484 C25.9771561,15.2103778 25.8447201,15.6185411 25.7068565,15.9941382 L16.4179941,12.9966349 C16.5558578,12.6210378 16.6882937,12.2128746 16.8142164,11.7710596 C16.9703172,11.2235129 17.1168652,10.6210378 17.2536433,9.9621147 L17.2528834,9.9621147 C17.3733784,9.38352156 17.4851891,8.75933572 17.589401,8.08738609 L23.1636159,9.88588353 L17.5899438,8.08782031 C17.490074,8.00640476 17.3902043,7.93150246 17.2914201,7.85877124 C17.2621105,7.83706043 17.2338864,7.8175207 17.2045768,7.79689543 C17.1307601,7.74478948 17.0580289,7.69485461 16.9842121,7.64600528 C16.955988,7.62755109 16.9266784,7.6090969 16.8984544,7.58955717 C16.7019715,7.46580554 16.5065742,7.3550804 16.3122625,7.25846729 C16.2829529,7.2454408 16.2547288,7.23132877 16.2254192,7.21830229 C16.1574222,7.18533402 16.0884473,7.15432133 16.0203507,7.12433623 L16.0088539,7.11995231 C15.9817154,7.10801136 15.9545768,7.09607041 15.9263528,7.08521501 L15.739074,7.01288353 L24.6431352,9.88623542 C24.8320193,9.93942691 25.0230745,10.0045593 25.2152151,10.0827183 L25.2564657,10.0996798 L25.2971735,10.1170213 C25.3699047,10.148502 25.4426359,10.1810682 25.5142816,10.2158055 C25.5435912,10.228832 25.5718152,10.2429441 25.6011248,10.2570561 C25.7943511,10.3525837 25.9908339,10.4633088 26.1873167,10.588146 C26.2155408,10.6066002 26.2448504,10.6250543 26.2730745,10.6435085 C26.3468912,10.6923579 26.4196224,10.7422927 26.4934392,10.7943987 C26.5227488,10.815024 26.5509728,10.8356492 26.5802824,10.8562745 C26.6790666,10.9290057 26.7789364,11.0049936 26.8788061,11.0853236 C26.7740514,11.756839 26.6622408,12.3810248 26.5417458,12.959618 Z" id="形状结合" fill="#FFEAA4"></path>
            <path d="M24.6430267,9.8863439 L18.4326489,8.23957881 C18.4228791,8.23632219 18.4120237,8.23415111 18.4022538,8.23198003 L24.6126316,9.87874512 C24.6224014,9.8809162 24.6332568,9.88417282 24.6430267,9.8863439" id="Fill-67" fill="#707070"></path>
            <polygon id="Fill-70" fill="url(#linearGradient-6)" fill-rule="nonzero" points="16.4240732 35.8036257 10.2136954 34.1568606 20.9768304 31.1879071 27.1872082 32.8346722"></polygon>
            <polygon id="Fill-72" fill="url(#linearGradient-7)" fill-rule="nonzero" points="16.4146289 46.0749023 10.2042512 44.4281372 10.214021 34.1567521 16.4243988 35.8035172"></polygon>
            <polygon id="Fill-74" fill="url(#linearGradient-8)" fill-rule="nonzero" points="16.4240732 35.8036257 27.1872082 32.8346722 27.1774383 43.1060573 16.4143033 46.0750109"></polygon>
            <path d="M6.33505882,35.1330873 L12.5454366,36.7798524 L12.5566991,37.3036257 L12.5566991,37.3036257 L12.5834305,37.8246852 C12.6083979,38.1915979 12.6442208,38.555254 12.6930701,38.9113113 C12.8296311,39.6356926 13.0337128,40.3119844 13.3126967,40.9122883 L11.8380983,40.8115502 L5.62772057,39.1647851 L7.10231892,39.2655232 C6.82333498,38.6652193 6.61925335,37.9889275 6.48247524,37.2648719 C6.43384302,36.9084889 6.39802018,36.5448328 6.37305274,36.1768346 C6.35025639,35.8321754 6.33831544,35.4826314 6.33505882,35.1330873 Z" id="形状结合" fill="#FFEAA4"></path>
            <path d="" id="形状结合" fill="#838383"></path>
            <path d="M21.4232047,1.84601607 L21.3908556,1.88178463 C21.3821713,1.89264003 21.3724014,1.90349544 21.3637171,1.91543639 C20.7644987,2.68074251 19.5258969,4.33076422 18.2862095,6.41608771 C17.726939,7.35638298 17.1678856,8.38547547 16.6674514,9.46233174 L16.6663304,9.46232783 L16.3818979,10.0967016 C16.1964715,10.5227964 16.0213376,10.9548415 15.8606776,11.3912288 C15.7427155,11.7103054 15.6319904,12.0318425 15.530432,12.3545215 L15.3843304,12.8388413 L15.385645,12.8394485 C15.3111046,13.0992546 15.2433186,13.3595431 15.1822871,13.6196708 L15.0962399,14.0100955 C15.0235087,14.3574685 14.9638039,14.7059271 14.9192968,15.051129 C14.8757666,15.3879722 14.846457,15.7223187 14.832345,16.0544941 C14.8270258,16.1967 14.8237692,16.3389058 14.8237692,16.4789405 C14.8226837,17.4407295 14.8498222,18.2668259 14.8965004,18.9756839 L10.8273304,17.8963278 L14.8961748,18.975901 C15.1469346,22.7383847 15.9643467,23.2214503 16.2020801,23.2844116 L9.99170233,21.6376465 C9.75396894,21.5746852 8.93655687,21.0916196 8.68688253,17.3291359 L8.68612265,17.3289188 C8.63944441,16.6200608 8.61230589,15.7939644 8.61336006,14.8321754 C8.61336006,14.6910551 8.61664805,14.5499349 8.62207576,14.407729 C8.63607923,14.0755536 8.66538883,13.7412071 8.70881045,13.4046895 C8.75342617,13.059162 8.8131309,12.7107034 8.88477658,12.3622449 L8.88533044,12.3613278 L8.97190931,11.9729057 C9.03294081,11.712778 9.10072679,11.4524895 9.17526725,11.1926835 C9.31378223,10.7072297 9.4733567,10.2230786 9.65029981,9.74435519 C9.89128983,9.08988276 10.1637605,8.44507165 10.4568565,7.8154581 C10.9575078,6.73871038 11.5165612,5.70961789 12.0756146,4.76953973 C13.3155191,2.68399913 14.5541209,1.03397742 15.1533393,0.267585758 C15.1620237,0.256730352 15.170708,0.244789405 15.1804778,0.23501954 L15.1802607,0.234802432 C15.200886,0.209834998 15.2225968,0.187038645 15.2453932,0.165327833 C15.6059012,0.0578593139 15.7676468,0.0166087712 15.8447201,0.00358228397 L15.8465017,0.00413569257 L15.8719401,0.000841293959 L15.9059446,0.0010855406 L20.0955017,1.11113569 L22.1083304,1.64584129 L22.1014505,1.64676509 L22.08225,1.64761995 L22.08225,1.64761995 L22.0550979,1.65143291 C21.9780245,1.66337386 21.816279,1.7046244 21.4558795,1.81209292 L21.4232047,1.84601607 Z" id="形状结合" fill="url(#linearGradient-9)" fill-rule="nonzero"></path>
            <path d="M0.0786541332,41.620495 L6.288,43.2671993 L6.26186625,43.4111756 C6.25386039,43.4590751 6.24680437,43.5068389 6.2408339,43.5546027 L6.2237095,43.7124132 L6.21369538,43.8690838 C6.20826768,43.9960921 6.20935322,44.1220148 6.21803755,44.2446809 C6.23649174,44.5233391 6.28968323,44.788211 6.37869755,45.0259444 C6.57192378,45.537234 6.90084258,45.8726661 7.30140706,45.9790491 L1.0910293,44.332284 C0.690464815,44.225901 0.361546013,43.890469 0.169405327,43.3780938 C0.0803909981,43.1414459 0.0261139682,42.876574 0.00765977797,42.5975901 C-0.00102454682,42.4752497 -0.00211008742,42.349327 0.00331761558,42.2223187 C0.00776833203,42.1184325 0.0175381974,42.013135 0.0305646846,41.9078376 L0.0519091266,41.7644106 L0.0519091266,41.7644106 L0.0786541332,41.620495 Z M0.129674541,41.405558 L6.34005231,43.0523231 C6.32051258,43.1239687 6.30422947,43.1956144 6.2890319,43.2672601 L6.288,43.2671993 L6.28859769,43.2669344 L0.0782199169,41.6201693 L0.0782199169,41.6201693 C0.0938517016,41.5488493 0.111220351,41.4772036 0.129674541,41.405558 Z M10.0547722,21.6471993 L16.2640645,23.2939644 L12.5764831,24.875597 L12.574566,24.8751993 L12.4384566,24.9476227 C12.3928639,24.9736756 12.3475425,25.0016283 12.3024926,25.0314807 C12.1036216,25.1642423 11.915823,25.3346722 11.7432221,25.5365827 L11.7416889,25.5363977 L11.6147343,25.6955903 C11.5315899,25.805833 11.4529485,25.923795 11.3791318,26.0475467 C11.3079203,26.1681502 11.2406168,26.2940729 11.1798265,26.4265089 L11.1786889,26.4263977 L11.1044629,26.5980786 C11.0804453,26.656155 11.0573775,26.7150456 11.035124,26.7747503 L10.9793679,26.9343655 L10.9793679,26.9343655 L10.9296094,27.0979158 L6.33994376,43.0521059 L0.129565987,41.4053409 L4.71856599,25.4501993 L4.76889512,25.2875868 C4.78653516,25.2337169 4.80498935,25.1805254 4.82398631,25.1278767 L5.815,25.3901993 L4.82474619,25.1279852 C4.86816781,25.0085758 4.91701714,24.8924229 4.96912309,24.7795267 C5.03023902,24.6473079 5.09754254,24.5213851 5.16918822,24.4008901 C5.2427155,24.2763425 5.32174286,24.1585975 5.40485506,24.048588 L5.53284432,23.8898176 C5.70544528,23.6879071 5.8932438,23.5174772 6.09189773,23.3850413 C6.18112917,23.3250109 6.27340012,23.2729049 6.36567107,23.2283977 L10.0547722,21.6471993 Z" id="形状结合" fill="url(#linearGradient-10)" fill-rule="nonzero"></path>
            <path d="M11.8380983,40.8115502 L13.3122625,40.9125054 C13.0332785,40.3122015 12.8291969,39.6359097 12.6935043,38.9118541 C12.5979768,38.2225358 12.5512985,37.5017369 12.5447853,36.7798524 L11.4429616,39.5197568 C11.3268087,39.805254 11.3137822,40.1189752 11.387599,40.3805905 C11.455988,40.6161528 11.6123059,40.7702996 11.7968478,40.8039514 L11.8380983,40.8115502 L11.8380983,40.8115502 Z M32.5925491,34.5219279 C32.6674514,34.2472861 32.6544249,33.949848 32.5588973,33.7327399 L32.538272,33.6904038 L31.441876,31.5584021 C31.4342772,32.2933131 31.3854279,33.0314807 31.2823015,33.7739904 C31.1585499,34.5230135 30.974008,35.2600955 30.7210771,35.9700391 L30.6657145,36.1252714 L32.1420497,35.2112462 C32.3461313,35.0788102 32.510048,34.8269648 32.5925491,34.5219279 L32.5925491,34.5219279 Z M21.9748765,20.1016066 C24.2295443,19.4795918 25.8969346,17.3931828 26.8782633,11.0851064 C26.7783936,11.0047764 26.6796094,10.9287885 26.5797397,10.8560573 C26.5515156,10.835432 26.522206,10.8148068 26.4928964,10.795267 C26.4201652,10.7420756 26.3463484,10.6921407 26.2725317,10.6432914 C26.2443076,10.6248372 26.2160836,10.606383 26.186774,10.5879288 C25.9902911,10.4630916 25.7948938,10.3523665 25.6005821,10.2568389 C25.572358,10.2427269 25.5430484,10.2286149 25.5148243,10.2155884 C25.4420931,10.1808511 25.3693619,10.1482848 25.2977162,10.1178897 C25.2705777,10.1059488 25.2423537,10.0940078 25.2152151,10.0820669 C25.0230745,10.0049935 24.8320193,9.93986105 24.6431352,9.88666956 C24.6149112,9.87798524 24.5856016,9.87147199 24.5573775,9.86387321 C24.4879029,9.84650456 24.4184283,9.82913591 24.3489537,9.81393834 C24.3218152,9.80851064 24.2946767,9.80199739 24.2664527,9.79656969 C24.0797397,9.75966131 23.8941122,9.73469388 23.7117414,9.71949631 C23.6846029,9.71732523 23.6585499,9.71623969 23.6324969,9.71515415 C23.5641079,9.70972644 23.4957188,9.70646982 23.4273298,9.70538428 C23.4012768,9.70538428 23.3752238,9.70420809 23.3491709,9.70420809 C23.1700567,9.7032132 22.992028,9.71189752 22.8161704,9.72926617 C22.7901174,9.7325228 22.7640645,9.73577942 22.7380115,9.7379505 C22.6728791,9.74663482 22.6077466,9.75531915 22.5426142,9.76508901 C22.5187323,9.76943118 22.4937649,9.7726878 22.4687974,9.77702996 C22.297282,9.80633956 22.1279377,9.84433348 21.9607644,9.88884064 C21.9509946,9.89209726 21.9423102,9.89318281 21.9325404,9.89643943 C21.9162573,9.89969605 21.9010597,9.90620929 21.8847766,9.91055145 C21.8239863,9.9279201 21.763196,9.94637429 21.7024058,9.96591403 C21.6774383,9.97351281 21.6535564,9.98111159 21.6296745,9.98871038 C21.548259,10.0158489 21.467929,10.0440729 21.3886845,10.0744681 C21.307269,10.1059488 21.2280245,10.138515 21.1498656,10.1710812 C21.1259837,10.1819366 21.1031874,10.1917065 21.0793055,10.2025619 C21.0228573,10.2275293 20.9664092,10.2535823 20.9099611,10.2796353 C20.8860792,10.2904907 20.8621973,10.3024316 20.8383154,10.313287 C20.7634131,10.3501954 20.6895964,10.3871038 20.6157796,10.4261832 C20.5365352,10.4685193 20.4638039,10.5086843 20.3921583,10.5499349 C20.3693619,10.5629614 20.3476511,10.5759878 20.3248547,10.5890143 C20.2727488,10.6194095 20.2206428,10.6508901 20.1696224,10.6823708 C20.1468261,10.6953973 20.1251153,10.7095093 20.1034045,10.7225358 C20.0404431,10.7627008 19.9774817,10.8028658 19.9156059,10.8441164 C19.9004084,10.8538862 19.8862963,10.8636561 19.8700132,10.873426 C19.811394,10.913591 19.7538604,10.953756 19.6963267,10.993921 C19.6724448,11.0102041 19.6485629,11.0275727 19.6246811,11.0460269 C19.5790883,11.0775076 19.5345812,11.1100738 19.4911596,11.1437256 C19.4694487,11.1600087 19.4477379,11.1752063 19.4260271,11.1914894 C19.3652369,11.2381676 19.3055321,11.2837603 19.2469129,11.3315241 C19.1720106,11.3901433 19.1133914,11.4389926 19.0547722,11.4867564 C19.036318,11.501954 19.0189494,11.5171515 19.0015808,11.5323491 C18.9581591,11.5692575 18.915823,11.6050803 18.873487,11.6409032 C18.8550328,11.6582718 18.8365786,11.6745549 18.8181244,11.6897525 C18.7703606,11.7320886 18.7236824,11.7744247 18.6770041,11.8167607 C18.6596355,11.8319583 18.6422668,11.8482414 18.6248982,11.8645245 C18.5782199,11.9068606 18.5326272,11.9491967 18.48812,11.9915328 C18.4729225,12.0067304 18.4577249,12.0219279 18.4414418,12.0371255 C18.4045334,12.0718628 18.3687106,12.1076856 18.3328877,12.1424229 C18.3144336,12.1608771 18.2959794,12.1782458 18.2786107,12.1967 C18.2351891,12.2401216 18.1917675,12.2835432 18.1494314,12.3269648 C18.0821279,12.3964394 18.0376207,12.4420321 17.9952846,12.4876248 C17.9833437,12.5006513 17.9714027,12.5136778 17.9594618,12.5256188 C17.9268956,12.5603561 17.8954149,12.5950934 17.8639342,12.6287451 C17.8509077,12.6439427 17.8367957,12.6591403 17.8237692,12.6743378 C17.7412681,12.7644377 17.6652803,12.8512809 17.5936346,12.9348676 C17.578437,12.9522362 17.5632395,12.9706904 17.5480419,12.9880591 C17.5274166,13.0119409 17.5078769,13.0358228 17.4883372,13.0597047 C17.4742251,13.0759878 17.4601131,13.092271 17.4460011,13.1085541 C17.3808686,13.1877985 17.3222494,13.2605297 17.2679724,13.3289188 C17.2603736,13.3386887 17.2527748,13.3484585 17.2440905,13.3582284 C17.2256363,13.3831958 17.2071821,13.4059922 17.1898135,13.4298741 C17.1800436,13.4407295 17.1724448,13.4515849 17.1637605,13.4624403 C17.1159967,13.5243161 17.0747462,13.5796787 17.0400089,13.6274425 C17.0128704,13.6643508 16.9976728,13.6849761 16.9835608,13.7034303 C16.9520801,13.7468519 16.9303693,13.7794182 16.9140862,13.8022145 C17.2658013,17.8176292 18.8061834,20.9005645 21.8793489,20.1276596 L21.9748765,20.1016066 L21.9748765,20.1016066 Z M37.5632395,34.4676509 C37.7673211,35.0788102 37.7532091,35.8441164 37.5198178,36.5573165 C37.3016242,37.2477204 36.8978031,37.8198003 36.4266784,38.1194095 L29.008094,42.6200608 L29.0189494,29.9507165 L14.6029702,33.9270517 L14.5910293,46.596396 L7.50462026,46.0123752 C7.01287037,45.9787234 6.60362157,45.6215805 6.37891466,45.0256188 C6.16831979,44.4633087 6.1552933,43.7425098 6.3398352,43.0521059 L10.9295009,27.0979158 C11.2301956,26.0557968 11.8522104,25.2166739 12.5762659,24.8758142 L16.2649329,23.2941815 C16.1922017,23.2920104 14.8168217,23.2518454 14.823335,16.4791576 C14.8287627,10.6476335 19.9286324,3.74902301 21.3637171,1.9144594 C21.3930267,1.87755102 21.4234218,1.84389926 21.455988,1.81241858 C22.0769173,1.62679114 22.1062269,1.63873209 22.1355365,1.6550152 C23.6574644,2.48545376 29.0406602,5.94724273 29.034147,13.1422058 C29.0287193,18.9737299 28.0245942,19.5990013 28.0050545,19.6141989 L31.7317154,19.9203213 C32.3526446,19.9756839 32.8650197,20.4359531 33.1309772,21.180634 L37.5632395,34.4676509 Z" id="Fill-149" fill="url(#linearGradient-11)" fill-rule="nonzero"></path>
        </g>
    </g>
</svg>