<?xml version="1.0" encoding="UTF-8"?>
<svg width="50px" height="50px" viewBox="0 0 50 50" version="1.1" xmlns="http://www.w3.org/2000/svg" xmlns:xlink="http://www.w3.org/1999/xlink">
    <title>攻击者-灰</title>
    <defs>
        <linearGradient x1="91.8526197%" y1="43.8952244%" x2="27.4075074%" y2="55.5059132%" id="linearGradient-1">
            <stop stop-color="#E7E7E7" offset="0%"></stop>
            <stop stop-color="#AFAFAF" offset="100%"></stop>
        </linearGradient>
        <linearGradient x1="67.0782423%" y1="61.4221395%" x2="143.478155%" y2="22.9582968%" id="linearGradient-2">
            <stop stop-color="#5F5F5F" offset="0%"></stop>
            <stop stop-color="#B8B8B8" offset="100%"></stop>
        </linearGradient>
        <linearGradient x1="67.0782423%" y1="54.3716524%" x2="143.478155%" y2="39.6501941%" id="linearGradient-3">
            <stop stop-color="#5F5F5F" offset="0%"></stop>
            <stop stop-color="#B8B8B8" offset="100%"></stop>
        </linearGradient>
        <linearGradient x1="1.87725952%" y1="152.250354%" x2="43.9827848%" y2="-182.538221%" id="linearGradient-4">
            <stop stop-color="#5F5F5F" offset="0%"></stop>
            <stop stop-color="#B8B8B8" offset="100%"></stop>
        </linearGradient>
        <linearGradient x1="55.9279203%" y1="52.3401716%" x2="128.342657%" y2="44.9141611%" id="linearGradient-5">
            <stop stop-color="#003B7C" offset="0%"></stop>
            <stop stop-color="#4EA2FF" offset="100%"></stop>
        </linearGradient>
        <linearGradient x1="11.0904147%" y1="79.6513009%" x2="76.0254229%" y2="2.07112972%" id="linearGradient-6">
            <stop stop-color="#5F5F5F" offset="0%"></stop>
            <stop stop-color="#B8B8B8" offset="100%"></stop>
        </linearGradient>
        <linearGradient x1="50%" y1="131.05688%" x2="86.6525878%" y2="-274.144362%" id="linearGradient-7">
            <stop stop-color="#5F5F5F" offset="0%"></stop>
            <stop stop-color="#B8B8B8" offset="100%"></stop>
        </linearGradient>
        <linearGradient x1="77.7289969%" y1="0%" x2="35.0315903%" y2="95.0951313%" id="linearGradient-8">
            <stop stop-color="#E7E7E7" offset="0%"></stop>
            <stop stop-color="#AFAFAF" offset="100%"></stop>
        </linearGradient>
        <linearGradient x1="42.4190269%" y1="201.666205%" x2="71.3422278%" y2="12.9665995%" id="linearGradient-9">
            <stop stop-color="#5F5F5F" offset="0%"></stop>
            <stop stop-color="#B8B8B8" offset="100%"></stop>
        </linearGradient>
        <linearGradient x1="57.6365138%" y1="108.843304%" x2="91.7986353%" y2="-89.3104305%" id="linearGradient-10">
            <stop stop-color="#5F5F5F" offset="0%"></stop>
            <stop stop-color="#B8B8B8" offset="100%"></stop>
        </linearGradient>
        <linearGradient x1="70.5643199%" y1="0%" x2="38.8991598%" y2="95.0951313%" id="linearGradient-11">
            <stop stop-color="#E7E7E7" offset="0%"></stop>
            <stop stop-color="#AFAFAF" offset="100%"></stop>
        </linearGradient>
    </defs>
    <g id="页面-1" stroke="none" stroke-width="1" fill="none" fill-rule="evenodd">
        <g id="编组-98" transform="translate(6.000000, 0.000000)">
            <polygon id="Fill-1" fill="url(#linearGradient-1)" fill-rule="nonzero" points="14.5024048 50 14.5034988 48.9009691 29.4245146 44.7858913 29.4234206 45.8860157"></polygon>
            <polygon id="Fill-3" fill="url(#linearGradient-2)" fill-rule="nonzero" points="14.5024048 50 8.24365191 48.3410648 8.24474591 47.2420339 14.5034988 48.9009691"></polygon>
            <polygon id="Fill-5" fill="url(#linearGradient-3)" fill-rule="nonzero" points="14.5034988 48.9005317 8.24474591 47.2415965 23.1657617 43.1276122 29.4245146 44.7865474"></polygon>
            <path d="M32.8127306,33.9819256 C32.8426332,34.0489975 32.86427,34.1243318 32.8779652,34.2043644 L32.8930299,34.3273822 L32.8952179,34.3995573 L32.8939051,34.4716231 L32.8906231,34.5306755 L32.8843874,34.5899467 C32.8800114,34.6249407 32.8734474,34.6588411 32.8668834,34.6938351 L26.6081305,33.0349 C26.6157885,32.999906 26.6212584,32.9649119 26.6256344,32.9299179 C26.6307762,32.8914245 26.6340582,32.8520562 26.6362462,32.812688 L26.635371,32.8127973 L26.6368752,32.7402121 L26.6338394,32.6685563 C26.6280047,32.5847165 26.6143906,32.5037928 26.5929969,32.4293495 L26.5541965,32.322553 L26.5334105,32.2809976 L25.4284743,30.1320368 L31.6861332,31.790972 L32.7921635,33.9398234 L32.8127306,33.9819256 Z M30.9049104,36.3923573 L24.6461575,34.7334221 L26.1328985,33.8115485 L29.7711575,34.7760368 L26.1333361,33.8112204 C26.1366181,33.8090333 26.1409941,33.8079397 26.144276,33.804659 L26.1443361,33.8036827 L26.2061841,33.7586241 C26.2467835,33.7254121 26.285438,33.687502 26.3211752,33.6452175 C26.3617625,33.5971007 26.4011464,33.5435162 26.4350603,33.4844637 C26.4580342,33.4467358 26.4788201,33.406274 26.4985121,33.3647186 C26.5148899,33.3290515 26.5311584,33.2922002 26.545295,33.2532086 L26.5451163,33.2527377 C26.5593382,33.2155566 26.5713722,33.1783754 26.5823122,33.1401007 L26.588001,33.1176827 C26.5955495,33.0908904 26.6021135,33.0624578 26.6075835,33.0351187 L32.8674304,34.6940539 C32.8608664,34.7213929 32.8543025,34.7498256 32.8466445,34.7771647 L32.8401899,34.7995827 L32.822768,34.856653 L32.8033222,34.9111261 C32.7891003,34.9504944 32.7737843,34.9876755 32.7573744,35.0237631 L32.7563361,35.0236827 L32.7267698,35.0854401 L32.6938132,35.1444925 C32.6588053,35.2024513 32.6216094,35.2560359 32.5800376,35.3041527 C32.5252284,35.3675794 32.4661526,35.4211639 32.4027008,35.4638129 L32.4013361,35.4636827 C32.395371,35.469062 32.39373,35.4701556 32.392089,35.4712491 L30.9049104,36.3923573 Z" id="形状结合" fill="#949494"></path>
            <path d="" id="形状结合" fill="#868686"></path>
            <polygon id="Fill-41" fill="url(#linearGradient-4)" fill-rule="nonzero" points="29.2339404 42.9350358 22.9751875 41.2761006 22.9872215 28.513126 29.2448804 30.1720612"></polygon>
            <polygon id="Fill-43" fill="url(#linearGradient-5)" fill-rule="nonzero" points="28.2227596 19.7588256 21.9640067 18.0998904 25.7207901 18.4093688 31.979543 20.0683039"></polygon>
            <path d="M15.8595316,7.06366283 L24.8350907,9.95929765 C25.025446,10.0128822 25.2179894,10.078496 25.4116267,10.1572326 C25.4389766,10.1681682 25.4674205,10.1801974 25.4947704,10.1922266 L25.3857122,10.1566623 L25.4942234,10.1917892 C25.5675212,10.2235025 25.6408189,10.2563094 25.7130227,10.2913034 L25.8005424,10.3328588 C25.9952737,10.4290923 26.1932871,10.5406358 26.3913004,10.6663955 C26.4197443,10.6849861 26.4492822,10.7035767 26.4777261,10.7221673 C26.5521179,10.7713776 26.6254156,10.8216815 26.6998074,10.8741725 C26.7293453,10.8949502 26.7577892,10.9157279 26.7873271,10.9365056 C26.8865511,11.0095317 26.9868619,11.0858168 27.0871763,11.1664437 L27.0887231,11.16681 C27.0091348,11.6744966 26.9258544,12.1551176 26.8379586,12.6095956 L26.748162,13.0553934 C26.6114125,13.7191862 26.463723,14.3261137 26.3061875,14.8783631 L26.3064063,14.8788005 C26.1795027,15.3227871 26.0460352,15.7339668 25.9070976,16.1123396 C25.8236622,16.3389259 25.7384763,16.5539447 25.6507622,16.7579793 L25.5175256,17.0560845 C25.380776,17.350253 25.2385565,17.6192695 25.091961,17.8664148 L25.090337,17.8661543 L24.9323914,18.1236482 C24.8246669,18.2895963 24.7142759,18.4440621 24.6013549,18.5881391 L24.4306402,18.7962715 C24.1890858,19.0762236 23.9363289,19.3120833 23.6729296,19.5100095 L23.4731746,19.6516565 C23.2368714,19.8099497 22.9913376,19.9399471 22.7379578,20.0462619 L22.4823422,20.1450721 L22.3156445,20.2004338 L22.3156445,20.2004338 L22.1465947,20.2504916 L22.050323,20.2767371 L22.0477122,20.2766623 L21.8677897,20.3183199 L21.6902888,20.3509901 C21.6052459,20.3647012 21.5213495,20.3751652 21.4386795,20.3826214 L19.2714083,20.7864634 C19.3256759,20.7718587 18.6830526,20.1687455 18.0079752,19.5376956 L11.0097122,17.280593 L11.1297783,17.3092991 L11.2511572,17.3334121 C11.4086927,17.3607512 11.5706041,17.3749675 11.7390795,17.3760611 C11.865582,17.3776285 11.9946736,17.3717962 12.1273307,17.3580254 L12.3285248,17.3313344 L12.3290718,17.3313344 C12.4466764,17.3127438 15.9920996,18.2622846 16.1135332,18.2316648 L16.917013,18.5080108 C16.6720135,18.2697657 16.5194623,18.1093741 16.5462088,18.1001092 C16.7054357,18.0438664 16.1321247,17.7718293 15.4995353,17.4743597 L15.1814192,17.3243878 C14.5477811,17.0237345 13.9671293,16.729412 14.1130516,16.6320008 L14.1121764,16.6317821 C14.4480332,16.4065081 14.7663862,16.1265559 15.0683291,15.7766158 L15.0687122,15.7756623 L15.2401378,15.5684834 C15.4095192,15.352368 15.5732084,15.1128777 15.7307439,14.8463217 C15.8773394,14.5996138 16.0195589,14.3305973 16.1563085,14.0364288 C16.2905418,13.7464159 16.4207274,13.4325633 16.545443,13.0924652 C16.6848181,12.7143111 16.8182856,12.3031314 16.9451892,11.8580512 C17.1025059,11.306458 17.2501954,10.6995305 17.3880389,10.0357377 L17.3872731,10.0357377 C17.5087067,9.4528686 17.6213883,8.82406983 17.726412,8.14715429 L22.1997122,9.58966225 L17.726959,8.14759172 C17.6263113,8.06557449 17.5256637,7.99011863 17.42611,7.91684991 C17.3965721,7.89497865 17.3681282,7.87529451 17.3385903,7.85451681 C17.2641985,7.80202579 17.1909008,7.75172189 17.116509,7.70251155 C17.0880651,7.68392098 17.0585272,7.6653304 17.0300833,7.64564627 C16.83207,7.52098008 16.6351507,7.40943665 16.4393253,7.31210953 C16.4097874,7.29898678 16.3813435,7.28477046 16.3518056,7.2716477 L16.242953,7.22066032 L16.1367122,7.17266225 L16.1335533,7.17257088 C16.1062034,7.16054169 16.0788535,7.1485125 16.0504096,7.13757687 L15.8595316,7.06366283 Z" id="形状结合" fill="#949494"></path>
            <path d="M24.8349813,9.95940694 L18.5762283,8.30047176 C18.5663824,8.29719107 18.5554424,8.29500395 18.5455964,8.29281682 L24.8043494,9.951752 C24.8141953,9.95393912 24.8251353,9.95721981 24.8349813,9.95940694" id="Fill-67" fill="#707070"></path>
            <polygon id="Fill-70" fill="url(#linearGradient-6)" fill-rule="nonzero" points="16.5520069 36.0682252 10.293254 34.40929 21.1402275 31.418395 27.3989804 33.0773302"></polygon>
            <polygon id="Fill-72" fill="url(#linearGradient-7)" fill-rule="nonzero" points="16.5424892 46.4154096 10.2837362 44.7564744 10.2935822 34.4091807 16.5523351 36.0681159"></polygon>
            <polygon id="Fill-74" fill="url(#linearGradient-8)" fill-rule="nonzero" points="16.5520069 36.0682252 27.3989804 33.0773302 27.3891345 43.424624 16.542161 46.415519"></polygon>
            <path d="M5.67155717,39.4542245 L7.15829817,39.5559259 L13.4159571,41.2148611 L11.9303101,41.1131597 L5.67155717,39.4542245 Z M6.38440517,35.3927313 L12.6431581,37.0516665 C12.6453461,37.4037938 12.658474,37.7559211 12.681448,38.1036742 L9.55155717,37.2737313 L12.681448,38.1042209 C12.7066099,38.4738453 12.7427118,38.8401889 12.7919416,39.1988776 C12.9295663,39.9286122 13.1352376,40.609902 13.4163947,41.2146424 L7.15764177,39.5557072 C6.87648472,38.9509668 6.67081341,38.269677 6.53296987,37.5402705 C6.48395884,37.1812537 6.44785696,36.8149101 6.42269504,36.4441922 C6.39972112,36.0969859 6.38768716,35.7448586 6.38440517,35.3927313 Z" id="形状结合" fill="#949494"></path>
            <polygon id="Fill-88" fill="#838383" points="11.8891758 41.1051767 5.63042291 39.4462415 5.67199477 39.4538965 11.9307477 41.1128317"></polygon>
            <path d="M11.8561372,41.0981779 L5.59738422,39.4392427 C5.60832419,39.4414299 5.61926415,39.443617 5.63020411,39.4458041 L11.888957,41.1047393 C11.8780171,41.1036457 11.8670771,41.100365 11.8561372,41.0981779" id="Fill-90" fill="#828282"></path>
            <path d="M21.5564232,1.895 L21.5574777,1.89569158 L21.5301278,1.92959204 L21.5301278,1.92959204 C20.9262418,2.700554 19.677992,4.36276986 18.4286482,6.46350452 C17.8650213,7.41074885 17.3016132,8.44744664 16.7972809,9.5322612 C16.5027771,10.1664184 16.22709,10.8159949 15.9842229,11.4754134 C15.8059015,11.9575654 15.64399,12.4452945 15.5050525,12.9341172 L15.5054901,12.9343359 C15.430369,13.196062 15.362055,13.4582741 15.3005481,13.7203242 L15.2124232,14.113 L15.2138306,14.1136343 C15.1405329,14.4635745 15.0803631,14.8146083 15.0355092,15.1623613 L13.7184232,14.813 L15.0353998,15.1626894 C14.99164,15.5016939 14.9621021,15.8385114 14.9478801,16.1731417 C14.9425196,16.3163984 14.9392376,16.4596552 14.9392376,16.6007248 C14.9381436,17.5696217 14.9654935,18.4018232 15.0125353,19.1159199 L10.9114232,18.0285497 L15.0122071,19.1161386 C15.2449692,22.6071948 15.9621884,23.2956359 16.261186,23.4321378 L16.3054232,23.4495497 L10.0695318,21.7975552 C9.82994657,21.7341286 9.00616735,21.247493 8.75454819,17.4572034 L8.7537824,17.4569847 C8.70674055,16.742888 8.67939065,15.9106865 8.68045302,14.9417896 C8.68045302,14.7996264 8.68376663,14.6574632 8.68923661,14.5142065 C8.70334917,14.1795762 8.73288707,13.8427588 8.77664692,13.5037542 C8.82161017,13.1556731 8.88177997,12.8046393 8.95398372,12.4536056 L8.95442317,12.453 L9.04179516,12.0613891 C9.10330206,11.799339 9.17161606,11.5371268 9.24673714,11.2754007 L9.24629954,11.275182 C9.38633107,10.7863593 9.54714853,10.2986302 9.72546992,9.81636889 C9.96833711,9.15705972 10.2429302,8.50748325 10.5383092,7.87321667 L12.9484232,8.512 L10.538528,7.87332603 C11.0428603,6.78851146 11.6062684,5.75181367 12.1696765,4.80478806 C13.4192391,2.70383469 14.6674889,1.04161882 15.2713749,0.269563297 C15.2801268,0.258627666 15.2888788,0.246598472 15.2987248,0.236756404 C15.3192919,0.211385741 15.3411718,0.188420917 15.3641457,0.166549655 C15.7274619,0.0582869116 15.8904674,0.016731515 15.9681411,0.00360875813 L15.9702551,0.004 L15.9955731,0.000847511378 L16.0148547,-3.01980663e-13 C16.0214187,-3.01980663e-13 16.0257947,-3.01980663e-13 16.0301707,0.00109356307 C16.0320305,0.00109356307 16.0331245,0.00109356307 16.0353125,0.00218712614 L22.2885954,1.66002874 C22.2845476,1.65893518 22.2790777,1.65893518 22.2736077,1.65893518 L16.6412551,0.166 L22.2730607,1.65882582 L22.2541892,1.65978269 L22.226894,1.6636375 C22.1492203,1.67566669 21.9862148,1.71722209 21.6230081,1.82548483 L21.5564232,1.895 Z" id="形状结合" fill="url(#linearGradient-9)" fill-rule="nonzero"></path>
            <path d="M0.0788292037,41.9277548 L6.33758213,43.58669 C6.3178902,43.6840171 6.30148025,43.7802507 6.28944629,43.8764842 C6.27533374,43.9825599 6.26658177,44.0886355 6.26220578,44.1936175 C6.2566264,44.3212363 6.2577204,44.4480897 6.26647237,44.5716623 C6.28507031,44.8523799 6.33867613,45.1192093 6.42838383,45.3586996 C6.62311517,45.8737678 6.95459605,46.2116788 7.35828069,46.318848 L1.09952777,44.6599128 C0.695843126,44.5527436 0.364362242,44.2148327 0.170724894,43.6986709 C0.0810171963,43.4602741 0.0263173805,43.1934447 0.0077194431,42.912399 C-0.00103252743,42.7891545 -0.00212652375,42.6623012 0.00334345784,42.5343543 C0.00782884273,42.4297003 0.0176748096,42.3236247 0.0308027654,42.2175491 C0.0438213216,42.1213155 0.05913727,42.025082 0.0788292037,41.9277548 Z M6.33801973,43.5870181 L0.0792668022,41.9280829 C0.0945827506,41.8559078 0.112086692,41.7837326 0.130684629,41.7115574 L4.75489766,25.6392423 C4.78717055,25.5279176 4.82327243,25.4196548 4.8615623,25.3135792 C4.90608795,25.1933966 4.95531779,25.0763854 5.00782961,24.9626548 C5.0694216,24.8294588 5.13724937,24.7026055 5.20945313,24.58122 L5.20901553,24.5811107 C5.32060316,24.3930178 5.44422474,24.2202349 5.5755043,24.0660425 L5.57644466,24.0650626 L5.70920432,23.9198673 C5.84520174,23.7795153 5.989199,23.6579247 6.13935,23.5578637 C6.2292765,23.4973897 6.32226618,23.4448986 6.41525587,23.4000626 L6.41657523,23.4001786 L10.133093,21.8071786 L16.3907519,23.4661138 L12.6744464,25.0594352 L12.6725752,25.0591786 L12.5353448,25.1319931 C12.4893969,25.1582386 12.4437226,25.1863978 12.3983217,25.2164708 C12.1979016,25.3502136 12.0086402,25.521903 11.8346948,25.7253057 L11.8334447,25.7250626 L11.7052062,25.8854884 L11.5829622,26.0576638 L11.4682061,26.2401552 C11.3960023,26.3615407 11.3281745,26.488394 11.2669107,26.6218087 C11.2140707,26.7353206 11.1659349,26.8523318 11.121081,26.9726237 L11.0650531,27.1329253 L11.0650531,27.1329253 L11.0147446,27.2981775 L6.38932816,43.3702739 C6.36974562,43.4426678 6.35333568,43.5148429 6.33801973,43.5870181 Z" id="形状结合" fill="url(#linearGradient-10)" fill-rule="nonzero"></path>
            <path d="M11.9303101,41.1131597 L13.4159571,41.2148611 C13.1348,40.6101207 12.9291287,39.9288309 12.7923792,39.1994243 C12.6961075,38.5050118 12.6490657,37.7788859 12.6425017,37.0516665 L11.5320954,39.8118197 C11.4150378,40.0994268 11.4019099,40.4154665 11.4763016,40.6790152 C11.5452234,40.9163184 11.7027589,41.0716043 11.8887382,41.1055048 L11.9303101,41.1131597 L11.9303101,41.1131597 Z M32.8464257,34.7770553 C32.9219114,34.5003838 32.9087835,34.2007476 32.8125118,33.9820349 L32.7917259,33.939386 L31.6867896,31.7916281 C31.6791316,32.5319703 31.6299018,33.2755932 31.5259721,34.0235903 C31.4012565,34.7781489 31.2152772,35.5206782 30.960376,36.2358684 L30.9045822,36.392248 L32.3924172,35.4714678 C32.5980885,35.3380532 32.763282,35.0843465 32.8464257,34.7770553 L32.8464257,34.7770553 Z M22.1460477,20.2501635 C24.4182781,19.6235518 26.0986564,17.5217236 27.0876291,11.1670286 C26.9869814,11.086105 26.8874277,11.0095556 26.7867801,10.9362868 C26.7583362,10.9155091 26.7287983,10.8947314 26.6992604,10.8750473 C26.6259626,10.8214627 26.5515709,10.7711588 26.4771791,10.7219485 C26.4487352,10.7033579 26.4202913,10.6847673 26.3907534,10.6661768 C26.1927401,10.540417 25.9958207,10.4288736 25.7999954,10.33264 C25.7715515,10.3184237 25.7420136,10.3042074 25.7135697,10.2910846 C25.6402719,10.2560906 25.5669742,10.2232837 25.4947704,10.1926639 C25.4674205,10.1806347 25.4389766,10.1686056 25.4116267,10.1565764 C25.2179894,10.0789334 25.025446,10.0133196 24.8350907,9.95973501 C24.8066467,9.9509865 24.7771088,9.94442512 24.7486649,9.93677018 C24.6786492,9.91927317 24.6086334,9.90177617 24.5386177,9.88646628 C24.5112677,9.88099847 24.4839178,9.87443709 24.4554739,9.86896927 C24.2673066,9.83178813 24.0802332,9.80663618 23.8964418,9.7913263 C23.8690919,9.78913917 23.842836,9.78804561 23.8165801,9.78695204 C23.7476583,9.78148423 23.6787365,9.77820354 23.6098148,9.77710998 C23.5835589,9.77710998 23.557303,9.77592509 23.531047,9.77592509 C23.3505377,9.77492285 23.1711223,9.78367135 22.9938949,9.80116836 C22.9676389,9.80444905 22.941383,9.80772974 22.9151271,9.80991687 C22.8494873,9.81866537 22.7838476,9.82741388 22.7182078,9.83725594 C22.6941399,9.8416302 22.6689779,9.84491089 22.643816,9.84928514 C22.4709646,9.87881134 22.3003012,9.91708605 22.1318258,9.96192213 C22.1219798,9.96520282 22.1132278,9.96629639 22.1033818,9.96957708 C22.0869719,9.97285776 22.071656,9.97941914 22.055246,9.9837934 C21.9939822,10.0012904 21.9327184,10.019881 21.8714546,10.0395651 C21.8462927,10.0472201 21.8222248,10.054875 21.7981569,10.0625299 C21.7161072,10.089869 21.6351514,10.1183017 21.5552897,10.1489214 C21.47324,10.1806347 21.3933782,10.2134416 21.3146105,10.2462485 C21.2905426,10.2571842 21.2675687,10.2670262 21.2435007,10.2779619 C21.1866129,10.3031138 21.1297251,10.3293593 21.0728373,10.3556048 C21.0487694,10.3665405 21.0247015,10.3785697 21.0006336,10.3895053 C20.9251478,10.4266864 20.8507561,10.4638676 20.7763643,10.5032359 C20.6965026,10.5458848 20.6232048,10.5863466 20.5510011,10.627902 C20.5280272,10.6410248 20.5061472,10.6541476 20.4831733,10.6672703 C20.4306615,10.6978901 20.3781497,10.7296034 20.3267318,10.7613167 C20.3037579,10.7744395 20.281878,10.7886558 20.2599981,10.8017786 C20.1965463,10.8422404 20.1330945,10.8827022 20.0707367,10.9242576 C20.0554207,10.9340997 20.0411988,10.9439418 20.0247888,10.9537838 C19.965713,10.9942457 19.9077312,11.0347075 19.8497494,11.0751693 C19.8256815,11.0915728 19.8016136,11.1090698 19.7775457,11.1276604 C19.7315978,11.1593737 19.686744,11.1921806 19.6429841,11.226081 C19.6211042,11.2424845 19.5992243,11.2577944 19.5773444,11.2741978 C19.5160806,11.321221 19.4559108,11.3671507 19.396835,11.4152675 C19.3213492,11.4743199 19.2622734,11.5235302 19.2031976,11.571647 C19.1845997,11.5869569 19.1670957,11.6022667 19.1495918,11.6175766 C19.1058319,11.6547578 19.0631661,11.6908453 19.0205002,11.7269329 C19.0019023,11.7444299 18.9833044,11.7608334 18.9647064,11.7761433 C18.9165706,11.8187922 18.8695287,11.8614412 18.8224869,11.9040901 C18.804983,11.9194 18.787479,11.9358035 18.7699751,11.9522069 C18.7229332,11.9948559 18.6769854,12.0375048 18.6321315,12.0801538 C18.6168156,12.0954637 18.6014996,12.1107736 18.5850897,12.1260834 C18.5478938,12.1610775 18.5117919,12.197165 18.4756901,12.2321591 C18.4570921,12.2507496 18.4384942,12.2682466 18.4209902,12.2868372 C18.3772304,12.3305797 18.3334705,12.3743223 18.2908047,12.4180648 C18.2229769,12.4880528 18.1781231,12.5339825 18.1354572,12.5799121 C18.1234232,12.5930349 18.1113893,12.6061576 18.0993553,12.6181868 C18.0665354,12.6531808 18.0348095,12.6881749 18.0030837,12.7220753 C17.9899557,12.7373852 17.9757337,12.7526951 17.9626058,12.768005 C17.8794621,12.8587707 17.8028823,12.9462557 17.7306786,13.0304601 C17.7153626,13.0479571 17.7000467,13.0665477 17.6847307,13.0840447 C17.6639448,13.1081031 17.6442529,13.1321615 17.6245609,13.1562199 C17.610339,13.1726233 17.596117,13.1890268 17.5818951,13.2054302 C17.5162553,13.2852603 17.4571795,13.358529 17.4024797,13.4274235 C17.3948217,13.4372656 17.3871637,13.4471076 17.3784118,13.4569497 C17.3598138,13.4821017 17.3412159,13.5050665 17.3237119,13.5291249 C17.313866,13.5400605 17.306208,13.5509961 17.297456,13.5619318 C17.2493202,13.6242649 17.2077483,13.6800366 17.1727405,13.7281533 C17.1453905,13.7653345 17.1300746,13.7861122 17.1158526,13.8047028 C17.0841267,13.8484453 17.0622468,13.8812522 17.0458369,13.904217 C17.4002917,17.9493068 18.9526725,21.0550259 22.049776,20.276409 L22.1460477,20.2501635 L22.1460477,20.2501635 Z M37.8558348,34.7223771 C38.0615061,35.3380532 38.0472842,36.1090151 37.812075,36.8274861 C37.5921817,37.5229922 37.1852151,38.0992999 36.7104207,38.4011233 L29.2340498,42.9350358 L29.2449898,30.1720612 L14.7167187,34.1777827 L14.7046848,46.9407573 L7.56307681,46.3524204 C7.06749647,46.3185199 6.65505986,45.9587377 6.42860262,45.3583716 C6.21636734,44.7919059 6.20323938,44.06578 6.38921876,43.3702739 L11.0146352,27.2981775 C11.3176722,26.2483569 11.9445321,25.4030327 12.6742276,25.0596539 L16.3916271,23.4663325 C16.3183293,23.4641453 14.932236,23.4236835 14.9388,16.6009435 C14.94427,10.7263227 20.0838646,3.77672942 21.5301278,1.92860783 C21.5596657,1.89142668 21.5902976,1.85752623 21.6231175,1.8258129 C22.2488834,1.63881362 22.2784213,1.65084281 22.3079592,1.66724626 C23.841742,2.503822 29.2668697,5.99119463 29.2603058,13.2393307 C29.2548358,19.1139515 28.2428892,19.7438438 28.2231972,19.7591537 L31.9788866,20.0675385 C32.6046525,20.1233102 33.1210188,20.5869809 33.3890479,21.3371652 L37.8558348,34.7223771 Z" id="Fill-149" fill="url(#linearGradient-11)" fill-rule="nonzero"></path>
        </g>
    </g>
</svg>