<?xml version="1.0" encoding="UTF-8"?>
<svg width="1202px" height="1312px" viewBox="0 0 1202 1312" version="1.1" xmlns="http://www.w3.org/2000/svg" xmlns:xlink="http://www.w3.org/1999/xlink">
    <title>mb-aqwd</title>
    <g id="页面-1" stroke="none" stroke-width="1" fill="none" fill-rule="evenodd" opacity="0.5">
        <path d="M1201.5,0.25 L1201.5,1311.25 L0.5,1311.25 L0.5,757.3 L274.246556,706.325082 C298.002121,834.601803 410.46754,931.75 545.62313,931.75 C698.05372,931.75 821.62313,808.180591 821.62313,655.75 C821.62313,503.319409 698.05372,379.75 545.62313,379.75 C411.85928,379.75 300.320711,474.907767 275.008559,601.222175 L0.5,546.286 L0.5,0.25 L1201.5,0.25 Z M545.62313,509.75 C626.2567,509.75 691.62313,575.116427 691.62313,655.75 C691.62313,736.383573 626.2567,801.75 545.62313,801.75 C474.13389,801.75 414.64537,750.368793 402.07208,682.520879 L546.68086,655.592602 L402.5057,626.737621 C415.9606,560.002749 474.92329,509.75 545.62313,509.75 Z" id="mb-aqwd" fill="#040A16" fill-rule="nonzero"></path>
    </g>
</svg>