<?xml version="1.0" encoding="UTF-8"?>
<svg width="1201px" height="1313px" viewBox="0 0 1201 1313" version="1.1" xmlns="http://www.w3.org/2000/svg" xmlns:xlink="http://www.w3.org/1999/xlink">
    <title>mb-stwd</title>
    <g id="页面-1" stroke="none" stroke-width="1" fill="none" fill-rule="evenodd" opacity="0.5">
        <path d="M1201,0.75 L1201,1312.75 L0,1312.75 L0,758.3 L145.801986,731.15131 C180.748616,919.845933 346.18579,1062.75 545,1062.75 C769.22761,1062.75 951,880.977608 951,656.75 C951,432.522392 769.22761,250.75 545,250.75 C348.18062,250.75 184.071847,390.80076 146.893224,576.68274 L0,547.285 L0,0.75 L1201,0.75 Z M545,380.75 C697.43059,380.75 821,504.319409 821,656.75 C821,809.180591 697.43059,932.75 545,932.75 C409.85214,932.75 297.391863,835.612921 273.627506,707.347103 L546.18086,656.592602 L274.390247,602.198141 C299.71173,475.895697 411.24463,380.75 545,380.75 Z" id="mb-stwd" fill="#040A16" fill-rule="nonzero"></path>
    </g>
</svg>