<?xml version="1.0" encoding="UTF-8"?>
<svg width="1201px" height="1312px" viewBox="0 0 1201 1312" version="1.1" xmlns="http://www.w3.org/2000/svg" xmlns:xlink="http://www.w3.org/1999/xlink">
    <title>mb-ywwd</title>
    <g id="页面-1" stroke="none" stroke-width="1" fill="none" fill-rule="evenodd" opacity="0.5">
        <path d="M1201,0.25 L1201,1311.25 L-0.00142639267,1311.25 L-0.00142639267,756.73 L6.55768597,755.509133 C53.4614634,1010.52923 276.915811,1203.75 545.499287,1203.75 C848.15133,1203.75 1093.49929,958.402043 1093.49929,655.75 C1093.49929,353.097957 848.15133,107.75 545.499287,107.75 C279.904355,107.75 58.4398298,296.694735 8.18878499,547.501133 L-0.00142639267,545.862 L-0.00142639267,0.25 L1201,0.25 Z M544,252.25 C766.57075,252.25 947,432.679246 947,655.25 C947,877.820754 766.57075,1058.25 544,1058.25 C346.65487,1058.25 182.44014,916.401884 147.751729,729.101567 L545.18086,655.092602 L148.835556,575.77109 C185.740735,391.264255 348.63611,252.25 544,252.25 Z" id="mb-ywwd" fill="#040A16" fill-rule="nonzero"></path>
    </g>
</svg>